<svg xmlns="http://www.w3.org/2000/svg" viewBox="0 0 64 64"><g class="gotchi-bg"><defs fill="#fff"><pattern id="a" patternUnits="userSpaceOnUse" width="4" height="4"><path d="M0 0h1v1H0zm2 2h1v1H2z"/></pattern><pattern id="b" patternUnits="userSpaceOnUse" x="0" y="0" width="2" height="2"><path d="M0 0h1v1H0z"/></pattern><pattern id="c" patternUnits="userSpaceOnUse" x="-2" y="0" width="8" height="1"><path d="M0 0h1v1H0zm2 0h1v1H2zm2 0h1v1H4z"/></pattern><pattern id="d" patternUnits="userSpaceOnUse" x="0" y="0" width="4" height="4"><path d="M0 0h1v1H0zm0 2h1v1H0zm1 0V1h1v1zm1 0h1v1H2zm0-1h1V0H2zm1 2h1v1H3z"/></pattern><pattern id="e" patternUnits="userSpaceOnUse" width="64" height="32"><path d="M4 4h1v1H4zm7 0h1v1h-1zm7 0h1v1h-1zm7 0h1v1h-1zm7 0h1v1h-1zm7 0h1v1h-1zm7 0h1v1h-1zm7 0h1v1h-1zm7 0h1v1h-1z"/><path fill="url(#a)" d="M0 8h64v7H0z"/><path fill="url(#b)" d="M0 16h64v1H0z"/><path fill="url(#c)" d="M0 18h64v1H0z"/><path fill="url(#b)" d="M22 18h15v1H22zM0 20h64v3H0z"/><path fill="url(#d)" d="M0 24h64v8H0z"/></pattern><mask id="f"><path fill="url(#e)" d="M0 0h64v32H0z"/></mask></defs><path fill="#fff" d="M0 0h64v32H0z"/><path fill="#dea8ff" class="gotchi-secondary" mask="url(#f)" d="M0 0h64v32H0z"/><path fill="#dea8ff" class="gotchi-secondary" d="M0 32h64v32H0z"/><path mask="url(#f)" fill="#fff" transform="matrix(1 0 0 -1 0 64)" d="M0 0h64v32H0z"/></g><style>.gotchi-primary{fill:#824EE2;}.gotchi-secondary{fill:#E6DCF9;}.gotchi-cheek{fill:#F696C6;}.gotchi-eyeColor{fill:#824EE2;}.gotchi-primary-mouth{fill:#824EE2;}.gotchi-sleeves-up{display:none;}.gotchi-handsUp{display:none;}.gotchi-handsDownOpen{display:block;}.gotchi-handsDownClosed{display:none;}</style><g class="gotchi-body"><path d="M47 14v-2h-2v-2h-4V8h-4V6H27v2h-4v2h-4v2h-2v2h-2v41h4v-2h5v2h5v-2h6v2h5v-2h5v2h4V14z" class="gotchi-primary"/><path d="M45 14v-2h-4v-2h-4V8H27v2h-4v2h-4v2h-2v39h2v-2h5v2h5v-2h6v2h5v-2h5v2h2V14z" class="gotchi-secondary"/><path d="M18,49h2v-1h2v1h2v2h5v-2h2v-1h2v1h2v2h5v-2h2v-1h2v1h1V14h-4v-2h-4v-2h-5V9h-5v2h-4v2h-4v2h-1V49z" fill="#fff"/></g><path class="gotchi-cheek" d="M21 32v2h2v-2h-1zm21 0h-1v2h2v-2z"/><g class="gotchi-primary-mouth"><path d="M29 32h-2v2h2v-1z"/><path d="M33 34h-4v2h6v-2h-1z"/><path d="M36 32h-1v2h2v-2z"/></g>
    <style>
        .gotchi-bg { display: none }
    </style>
<g class="gotchi-shadow"><path opacity=".25" d="M25 58H19v1h1v1h24V59h1V58h-1z" fill="#000"/></g>,<g class="gotchi-collateral"><path d="M37.25 17.04v-.75h-.75v-.75h-.75v-.75H33.5v.75h-.75v.75h-1.5v.75h-.75v.75h-2.25v-.75h-.75v-2.25h.75v-.75h2.25v.75h.75v.75H32v-1.5h-.75v-.75h-.75v-.75h-2.25v.75h-.75v.75h-.75v.75H26v2.25h.75v.75h.75v.75h.75v.75h2.25v-.75h.75v-.75h1.5v-.75h.75v-.75h2.25v.75h.75v2.25h-.75v.75H33.5v-.75h-.75v-.75H32v1.5h.75v.75h.75v.75h2.25v-.75h.75v-.75h.75v-.75H38v-2.25h-.75z" fill="#824ee2"/></g><g class="gotchi-eyeColor"><g><path d="M25 24h-1v1h1v-1z" /><path d="M25 25h-1v1h1v-1z" /></g><g class="gotchi-primary"><path d="M28 27h-1v1h1v-1z" /><path d="M27 27h-1v1h1v-1zm1-5h-1v1h1v-1z" /><path d="M27 22h-1v1h1v-1zm-4 0h-1v1h1v-1z" /><path d="M24 22h-1v1h1v-1z" /></g><g><path d="M26 24h-1v1h1v-1z" /><path d="M26 25h-1v1h1v-1z" /></g><g class="gotchi-primary"><path d="M23 27h-1v1h1v-1z" /><path d="M24 27h-1v1h1v-1z" /></g><path d="M39 25h-1v1h1v-1z" /><g class="gotchi-primary"><path d="M38 27h-1v1h1v-1z" /><path d="M37 27h-1v1h1v-1zm4 0h-1v1h1v-1z" /><path d="M42 27h-1v1h1v-1z" /></g><path d="M38 24h1v1h-1" /><g class="gotchi-primary"><path d="M38 22h-1v1h1v-1z" /><path d="M37 22h-1v1h1v-1zm4 0h-1v1h1v-1z" /><path d="M42 22h-1v1h1v-1z" /></g><g><path d="M40 25h-1v1h1v-1z" /><path d="M40 24h-1v1h1v-1z" /></g></g><g class="gotchi-wearable wearable-body"><svg x="12" y="32"><style><![CDATA[.O{fill:#369c2e}.P{fill:#5fb935}.Q{fill:#368528}.R{fill:#a322d4}.S{fill:#2234cb}.T{fill:#f122ad}.U{fill:#0e982e}.V{fill:#e8dc21}.W{fill:#d322e8}.X{fill:#36a72e}.Y{fill:#1ce4a3}.Z{fill:#6822bc}.a{fill:#8a22b4}.b{fill:#18742e}]]></style><path d="M35 1v1h-2v1h-2v1h-2v1h-2v1h-1v1h-1v1h-1v1h-1v1h-1v1h-1v1h-2v-1h-1v-1h-1V9h-1V8h-1V7h-1V6h-1V5h-2V4H9V3H7V2H5V1H3v18h34V1z" fill="#1ca4b4"/><path d="M35 2v1h-2v1h-2v1h-2v1h-2v1h-1v1h-1v1h-1v1h-1v1h-1v1h-2v1h1v1h-1v1h1v1h-1v1h1v1h15V9h1V2h-2zm-8 12v-1h1v1h-1zm6-4h-4V9h4v1zm-15 1h-1v-1h-1V9h-1V8h-1V7h-1V6h-2V5H9V4H7V3H5V2H3v7h1v9h15v-6h-1v-1zM7 10V9h4v1H7zm6 3v1h-1v-1h1z" fill="#20c7db"/><path d="M20,14h1v1h-1V14z" class="V"/><path d="M21 14h1v1h-1v-1zm0-2h1v1h-1v-1z" class="R"/><path d="M31,5h1v1h-1V5z" class="S"/><path d="M31,8h1v1h-1V8z" class="T"/><path d="M30,8h1v1h-1V8z" fill="#8a22a0"/><path d="M30,7h1v1h-1V7z" class="T"/><path d="M29,10h1v1h-1V10z" class="O"/><path d="M29,8h1v1h-1V8z" class="T"/><path d="M32,12h1v1h-1V12z" class="P"/><path d="M32,13h1v1h-1V13z" class="O"/><path d="M20,12h1v1h-1V12z" class="V"/><path d="M23,14h1v1h-1V14z" class="R"/><path d="M31,13h1v1h-1V13z" class="P"/><path d="M23,12h1v1h-1V12z" class="R"/><path d="M26,8h1v1h-1V8z" class="Q"/><path d="M22,13h1v1h-1V13z" fill="#f122a4"/><path d="M36,2h1v1h-1V2z" fill="#b782c2"/><path d="M33,3h1v1h-1V3z" class="S"/><path d="M35,11h1v1h-1V11z" fill="#1c62a3"/><path d="M35,14h1v1h-1V14z" class="W"/><g class="X"><path d="M35 7h1v1h-1V7zm0-2h1v1h-1V5z"/><path d="M36,6h1v1h-1V6z"/></g><path d="M31,11h1v1h-1V11z" class="P"/><path d="M25,9h1v1h-1V9z" class="Q"/><path d="M30,11h1v1h-1V11z" class="O"/><path d="M27,7h1v1h-1V7z" class="Q"/><path d="M34,12h1v1h-1V12z" class="Y"/><path d="M33,5h1v1h-1V5z" class="S"/><path d="M34,6h1v1h-1V6z" class="X"/><path d="M34,10h1v1h-1V10z" class="Y"/><path d="M30,12h1v1h-1V12z" class="P"/><path d="M24,10h1v1h-1V10z" class="Q"/><path d="M31,12h1v1h-1V12z" class="O"/><path d="M20,16h1v1h-1V16z" class="V"/><path d="M21,16h1v1h-1V16z" class="Z"/><path d="M26,16h1v1h-1V16z" class="U"/><path d="M32 15h1v1h-1v-1zm-2 0h1v1h-1v-1z" class="a"/><path d="M25,16h1v1h-1V16z" class="b"/><path d="M31,16h1v1h-1V16z" fill="#cec81c"/><path d="M35,15h1v1h-1V15z" fill="#ba911c"/><g class="W"><path d="M35,16h1v1h-1V16z"/><path d="M34,15h1v1h-1V15z"/></g><path d="M21,17h1v1h-1V17z" fill="#84861c"/><path d="M32 17h1v1h-1v-1zm-2 0h1v1h-1v-1z" class="a"/><path d="M25,17h1v1h-1V17z" class="U"/><path d="M22,17h1v1h-1V17z" class="Z"/><path d="M26,17h1v1h-1V17z" class="b"/><path d="M27,17h1v1h-1V17z" class="U"/><path d="M18 14h1v1h-1v-1zm0-2h1v1h-1v-1z" class="R"/><path d="M8,5h1v1H8V5z" class="S"/><path d="M8,8h1v1H8V8z" class="T"/><path d="M9,8h1v1H9V8z" fill="#8a22a0"/><path d="M9,7h1v1H9V7z" class="T"/><path d="M10,10h1v1h-1V10z" class="O"/><path d="M10,8h1v1h-1V8z" class="T"/><path d="M7,12h1v1H7V12z" class="P"/><path d="M7,13h1v1H7V13z" class="O"/><path d="M16,14h1v1h-1V14z" class="R"/><path d="M8,13h1v1H8V13z" class="P"/><path d="M16,12h1v1h-1V12z" class="R"/><path d="M13,8h1v1h-1V8z" class="Q"/><path d="M17,13h1v1h-1V13z" fill="#f122a4"/><path d="M3,2h1v1H3V2z" fill="#b782c2"/><path d="M6,3h1v1H6V3z" class="S"/><path d="M4,11h1v1H4V11z" fill="#1c62a3"/><path d="M4,14h1v1H4V14z" class="W"/><g class="X"><path d="M4 7h1v1H4V7zm0-2h1v1H4V5z"/><path d="M3,6h1v1H3V6z"/></g><path d="M8,11h1v1H8V11z" class="P"/><path d="M14,9h1v1h-1V9z" class="Q"/><path d="M9,11h1v1H9V11z" class="O"/><path d="M12,7h1v1h-1V7z" class="Q"/><path d="M5,12h1v1H5V12z" class="Y"/><path d="M6,5h1v1H6V5z" class="S"/><path d="M5,6h1v1H5V6z" class="X"/><g fill="#367f2e"><path d="M36,5h1v1h-1V5z"/><path d="M35,6h1v1h-1V6z"/><path d="M34 7h1v1h-1V7zM3 5h1v1H3V5z"/><path d="M4,6h1v1H4V6z"/><path d="M5,7h1v1H5V7z"/></g><path d="M5,10h1v1H5V10z" class="Y"/><g fill="#077c22"><path d="M26,9h1v1h-1V9z"/><path d="M25 10h1v1h-1v-1zm0-2h1v1h-1V8z"/><path d="M24 9h1v1h-1V9zM13 9h1v1h-1V9z"/><path d="M14 10h1v1h-1v-1zm0-2h1v1h-1V8z"/><path d="M15,9h1v1h-1V9z"/></g><path d="M9,12h1v1H9V12z" class="P"/><path d="M15,10h1v1h-1V10z" class="Q"/><g class="V"><path d="M32 4h1v1h-1V4zm-5 10h1v1h-1v-1zm0-2h1v1h-1v-1z"/><path d="M26 13h1v1h-1v-1zm2 0h1v1h-1v-1zM7 4h1v1H7V4zm5 10h1v1h-1v-1zm0-2h1v1h-1v-1z"/><path d="M13 13h1v1h-1v-1zm-2 0h1v1h-1v-1z"/></g><path d="M8,12h1v1H8V12z" class="O"/><path d="M18,16h1v1h-1V16z" class="Z"/><path d="M13,16h1v1h-1V16z" class="U"/><path d="M7 15h1v1H7v-1zm2 0h1v1H9v-1z" class="a"/><path d="M14,16h1v1h-1V16z" class="b"/><path d="M8,16h1v1H8V16z" fill="#cec81c"/><path d="M4,15h1v1H4V15z" fill="#ba911c"/><g class="W"><path d="M4,16h1v1H4V16z"/><path d="M5,15h1v1H5V15z"/></g><path d="M18,17h1v1h-1V17z" fill="#84861c"/><path d="M7 17h1v1H7v-1zm2 0h1v1H9v-1z" class="a"/><path d="M14,17h1v1h-1V17z" class="U"/><path d="M17,17h1v1h-1V17z" class="Z"/><path d="M13,17h1v1h-1V17z" class="b"/><path d="M12,17h1v1h-1V17z" class="U"/></svg></g><g class="gotchi-handsDownClosed"><g class="gotchi-primary"><path d="M19 42h1v1h-1zm1-6h1v1h-1z"/><path d="M21 37h1v1h-1zm5 3v4h1v-4zm-5 3h-1v1h2v-1z"/><path d="M24 44h-2v1h4v-1h-1zm1-5h-1v1h2v-1z"/><path d="M23 38h-1v1h2v-1z"/></g><g class="gotchi-secondary"><path d="M19 43h1v1h-1zm5 2h-2v1h4v-1h-1z"/><path d="M27 41v3h1v-3zm-6 3h-1v1h2v-1z"/><path d="M26 44h1v1h-1zm-7-3h-1v2h1v-1z"/></g><g class="gotchi-primary"><path d="M44 42h1v1h-1zm-1-6h1v1h-1z"/><path d="M42 37h1v1h-1z"/><path d="M42 39v-1h-2v1h1zm0 4v1h2v-1h-1z"/><path d="M40 44h-2v1h4v-1h-1z"/><path d="M38 42v-2h-1v4h1v-1z"/><path d="M40 40v-1h-2v1h1z"/></g><g class="gotchi-secondary"><path d="M42 44v1h2v-1h-1zm-5-2v-1h-1v3h1v-1z"/><path d="M40 45h-2v1h4v-1h-1z"/><path d="M37 44h1v1h-1zm7-1h1v1h-1z"/></g></g><g class="gotchi-handsDownOpen"><g class="gotchi-primary"><path d="M56 38v-1h-2v-1h-2v-1h-1v-1h-1v-1h-1v8h1v1h2v1h4v-1h1v-4z"/></g><g class="gotchi-secondary"><path d="M54 38v-1h-2v-1h-1v-1h-1v-1h-1v6h1v1h2v1h4v-4z" /></g><path d="M54,38v-1h-2v-1h-1v-1h-1v-1h-1v5h1v1h2v1h4v-3H54z" fill="#fff"/><g class="gotchi-primary"><path d="M8 38v-1h2v-1h2v-1h1v-1h1v-1h1v8h-1v1h-2v1H8v-1H7v-4z"/></g><g class="gotchi-secondary"><path d="M10 38v-1h2v-1h1v-1h1v-1h1v6h-1v1h-2v1H8v-4z" /></g><path d="M8,38v3h4v-1h2v-1h1v-5h-1v1h-1v1h-1v1h-2v1H8z" fill="#fff"/></g><g class="gotchi-handsUp"><g class="gotchi-secondary"><path d="M50,38h1v1h-1V38z"/><path d="M49 39h1v1h-1v-1zm2-2h1v1h-1v-1z"/><path d="M52,36h2v1h-2V36z"/><path d="M54,35h2v1h-2V35z"/></g><path d="M52,32v1h-2v1h-1v5h1v-1h1v-1h1v-1h2v-1h2v-3H52z" fill="#fff"/><g class="gotchi-primary"><path d="M49,33h1v1h-1V33z"/><path d="M50 32h2v1h-2v-1zm0 7h1v1h-1v-1z"/><path d="M49 40h1v1h-1v-1zm2-2h1v1h-1v-1z"/><path d="M52 37h2v1h-2v-1zm0-6h4v1h-4v-1z"/><path d="M56,32h1v4h-1V32z"/><path d="M54,36h2v1h-2V36z"/></g><g class="gotchi-secondary"><path d="M13,38h1v1h-1V38z"/><path d="M14 39h1v1h-1v-1zm-2-2h1v1h-1v-1z"/><path d="M10,36h2v1h-2V36z"/><path d="M8,35h2v1H8V35z"/></g><path d="M8,32v3h2v1h2v1h1v1h1v1h1v-5h-1v-1h-2v-1H8z" fill="#fff"/><g class="gotchi-primary"><path d="M14,33h1v1h-1V33z"/><path d="M12 32h2v1h-2v-1zm1 7h1v1h-1v-1z"/><path d="M14 40h1v1h-1v-1zm-2-2h1v1h-1v-1z"/><path d="M10 37h2v1h-2v-1zm-2-6h4v1H8v-1z"/><path d="M7,32h1v4H7V32z"/><path d="M8,36h2v1H8V36z"/></g></g><g class="gotchi-wearable wearable-face"><svg x="15" y="19"><g fill="#7d0064"><path d="M36 6h2v2h-2z"/><path d="M38 4V0h-2v2h-2v2h-4V3h-2V2h-2V1h-4v1h-2v1h-2v1h-2V3h-2V2h-2V1H8v1H6v1H4v1H0v6h4v1h2v1h2v1h4v-1h2v-1h2v-1h2v1h2v1h2v1h4v-1h2v-1h2v-1h4V6h2V4z"/></g><path d="M30 5V4h-2V3h-2V2h-4v1h-2v1h-2v1h-2V4h-2V3h-2V2H8v1H6v1H4v1H0v4h4v1h2v1h2v1h4v-1h2v-1h2V9h2v1h2v1h2v1h4v-1h2v-1h2V9h4V5h-4z" fill="#a73796"/><g fill="#7d0064"><path d="M26,2v1h2V2H26z"/><path d="M28 3v1h2V3h-2zm-6-2v1h4V1h-4z"/><path d="M20 2v1h2V2h-2zm-8 0v1h2V2h-2z"/><path d="M8,1v1h4V1H8z"/><path d="M6,2v1h2V2H6z"/><path d="M4,3v1h2V3H4z"/><path d="M0 4v1h4V4H0zm16 0v1h2V4h-2z"/><path d="M14 3v1h2V3h-2zm4 0v1h2V3h-2zM8 12v1h4v-1H8z"/><path d="M6,11v1h2v-1H6z"/><path d="M4,10v1h2v-1H4z"/><path d="M0 9v1h4V9H0zm12 2v1h2v-1h-2zm8 0v1h2v-1h-2z"/><path d="M22,12v1h4v-1H22z"/><path d="M26,11v1h2v-1H26z"/><path d="M28,10v1h2v-1H28z"/><path d="M30 9v1h4V9h-4zm-16 1v1h2v-1h-2z"/><path d="M16,9v1h2V9H16z"/><path d="M18 10v1h2v-1h-2zm18-2h2V6h-2v2z"/><path d="M36,0v2h-2v2h-4v1h4v1h2V4h2V0H36z"/></g><path d="M26 6V5h-1V4h-2v1h-1v1h-1v2h1v1h1v1h2V9h1V8h1V6z" fill="#fff"/><path d="M23 6h2v2h-2z" fill="#7d0064"/><path d="M12 5h-1V4H9v1H8v1H7v2h1v1h1v1h2V9h1V8h1V6h-1z" fill="#fff"/><path d="M9 6h2v2H9z" fill="#7d0064"/></svg></g><g class="gotchi-wearable wearable-eyes"><svg x="15" y="20"><path d="M31 4V3h-1V2h-1V1h-1V0h-6v1h-1v1h-1v1h-1v1h-4V3h-1V2h-1V1h-1V0H6v1H5v1H4v1H3v1H0v4h3v1h1v1h1v1h1v1h5v5h1v1h1v1h8v-1h1v-1h1v-5h5v-1h1v-1h1V9h1V8h3V4h-3z" fill="#390601"/><g fill="#592f2a"><path d="M11,1h1v1h-1V1z"/><path d="M12 2h1v1h-1V2zM6 1h1v1H6V1z"/><path d="M5,2h1v1H5V2z"/><path d="M4,3h1v1H4V3z"/><path d="M3 4h1v1H3V4zm8 6h1v1h-1v-1z"/><path d="M12 9h1v1h-1V9zm-6 1h1v1H6v-1z"/><path d="M5,9h1v1H5V9z"/><path d="M4,8h1v1H4V8z"/><path d="M3 7h1v1H3V7zM1 6h1v1H1V6z"/><path d="M2 5h1v1H2V5zM0 5h1v1H0V5zm13-2h1v1h-1V3zm0 5h1v1h-1V8z"/><path d="M14 4h1v1h-1V4zm0 3h1v1h-1V7zm5-3h1v1h-1V4zm0 3h1v1h-1V7z"/><path d="M20 3h1v1h-1V3zm0 5h1v1h-1V8zm2-7h1v1h-1V1z"/><path d="M21 2h1v1h-1V2zm6-1h1v1h-1V1z"/><path d="M28,2h1v1h-1V2z"/><path d="M29,3h1v1h-1V3z"/><path d="M30 4h1v1h-1V4zm-8 6h1v1h-1v-1z"/><path d="M21 9h1v1h-1V9zm6 1h1v1h-1v-1z"/><path d="M28,9h1v1h-1V9z"/><path d="M29,8h1v1h-1V8z"/><path d="M30 7h1v1h-1V7zm2-1h1v1h-1V6z"/><path d="M31 5h1v1h-1V5zm2 0h1v1h-1V5z"/></g><g fill="#846460"><path d="M11,2h1v1h-1V2z"/><path d="M12 3h1v1h-1V3zm0 5h1v1h-1V8z"/><path d="M11 9h1v1h-1V9zM6 2h1v1H6V2z"/><path d="M5 3h1v1H5V3zm0 5h1v1H5V8z"/><path d="M6 9h1v1H6V9zm2-8h2v1H8V1zM4 5h1v2H4V5zM2 6h1v1H2V6zM0 6h1v1H0V6z"/><path d="M1 5h1v1H1V5zm7 5h2v1H8v-1zm11-1h1v1h-1V9z"/><path d="M20,10h1v1h-1V10z"/><path d="M21 16h-1v1h-6v-1h-1v-5h-1v6h1v1h8v-1h1v-6h-1v5zm-6-8h4v1h-4V8zm3 2h1v1h-1v-1z"/><path d="M19 11h1v1h-1v-1zm-4-1h1v1h-1v-1z"/><path d="M14 11h1v1h-1v-1zm2 0h2v1h-2v-1z"/><path d="M18 12h1v1h-1v-1zm-3 0h1v1h-1v-1z"/><path d="M16,13h2v1h-2V13z"/><path d="M18 14h1v1h-1v-1zm-3 0h1v1h-1v-1z"/><path d="M16 15h2v1h-2v-1zm3-2h1v1h-1v-1zm0 2h1v1h-1v-1zm-5-2h1v1h-1v-1zm0 2h1v1h-1v-1zm0-6h1v1h-1V9z"/><path d="M13 10h1v1h-1v-1zm0-5h1v2h-1V5zm2 0h1v2h-1V5zm3 0h1v2h-1V5zm2 0h1v2h-1V5zm2-3h1v1h-1V2z"/><path d="M21 3h1v1h-1V3zm0 5h1v1h-1V8z"/><path d="M22 9h1v1h-1V9zm5-7h1v1h-1V2z"/><path d="M28 3h1v1h-1V3zm0 5h1v1h-1V8z"/><path d="M27 9h1v1h-1V9zm-3-8h2v1h-2V1zm7 5h1v1h-1V6zm2 0h1v1h-1V6z"/><path d="M29 5h1v2h-1V5zm3 0h1v1h-1V5zm-8 5h2v1h-2v-1z"/></g><path d="M11 3H7v1H6v4h1v1h4V8h1V4h-1V3zm16 1V3h-4v1h-1v4h1v1h4V8h1V4h-1z" fill="#0ff"/><g fill="#fff"><path d="M9,3h1v1H9V3z"/><path d="M8,4h1v1H8V4z"/><path d="M7,5h1v1H7V5z"/><path d="M6 6h1v1H6V6zm5-1h-1v1H9v1H8v1H7v1h2V8h1V7h1V6h1V4h-1v1zm14-2h1v1h-1V3z"/><path d="M24,4h1v1h-1V4z"/><path d="M23 5h1v1h-1V5zm4-1v1h-1v1h-1v1h-1v1h-1v1h2V8h1V7h1V6h1V4h-1z"/><path d="M22,6h1v1h-1V6z"/></g></svg></g><g class="gotchi-wearable wearable-head"><svg x="5" y="6"><path d="M6 18v-2H4v-4H2V2H0V0h10v2h2v2h2V2h6V0h14v2h6v2h2V2h2V0h10v2h-2v10h-2v4h-2v2z"/><path d="M4 2v2h4v2H4v2h4v2H4v2h4v2H6v2h4V2H4zm40 0v14h4v-2h-2v-2h4v-2h-4V8h4V6h-4V4h4V2h-6zm-8 2h2v6h-2V4zM16 4h2v6h-2V4zm14 2V5h-1V4h-1V3h-2v1h-1v1h-1v1h-1v4h1v1h1v1h1v1h2v-1h1v-1h1v-1h1V6z" fill="#fff"/><path d="M26,4v1h-1v1h-1v2h3V4H26z" fill="#46cdff"/><path d="M27,8v4h1v-1h1v-1h1V8H27z" fill="#0093ff"/><g fill="#00afff"><path d="M24,8v2h1v1h1v1h1V8H24z"/><path d="M29,6V5h-1V4h-1v4h3V6H29z"/></g><path d="M42 13v-2h-6v1h-3v1h-2v1h-1v1h-1v1h-1v1h-2v-1h-1v-1h-1v-1h-1v-1h-2v-1h-3v-1h-6v2h-2v9h2v2h3v1h3v1h4v-1h1v-1h1v1h1v1h1v1h2v-1h1v-1h1v-1h1v1h1v1h4v-1h3v-1h3v-2h2v-9h-2z" fill="#ffcb00"/><path d="M26,17v-1h-1v-1h-1v-1h-1v-1h-2v-1h-3v-1h-6v2h-2v9h2v2h3v1h3v1h4v-1h1v-1h1v1h1v1h1v1h1V17H26z" fill="#ffb300"/><path d="M24 18h-2v-1h-2v-1h-6v4h1v2h1v1h2v1h4v-1h2v-1h1v-3h-1zm10-2v1h-2v1h-2v1h-1v3h1v1h2v1h4v-1h2v-1h1v-1h1v-5z"/><g fill="#fff"><path d="M16 17h2v1h-2z"/><path d="M23 20h-1v1h-4v-1h-1v-1h-1v-1h-1v2h1v2h2v1h4v-1h2v-3h-1zm13-3h2v1h-2z"/><path d="M38 18v1h-1v1h-1v1h-4v-1h-1v-1h-1v3h2v1h4v-1h2v-2h1v-2z"/></g></svg></g>"><svg x="12" y="32"><g><g class="gotchi-sleeves gotchi-sleeves-left gotchi-sleeves-up"><path d="M38 0v1h-1v8h1V8h1V7h1V0z" fill="#1ca4b4"/><path d="M38 1v1h-1v6h1V7h1V1z" fill="#20c7db"/><path d="M38,2h1v1h-1V2z" fill="#f1751c"/><path d="M37,5h1v1h-1V5z" fill="#367f2e"/></g><g class="gotchi-sleeves gotchi-sleeves-left gotchi-sleeves-down"><path d="M39 3V2h-1V1h-1v8h1v1h2V3z" fill="#1ca4b4"/><path d="M38 3V2h-1v6h1v1h1V3z" fill="#20c7db"/><path d="M38,7h1v1h-1V7z" fill="#f1751c"/><path d="M37,4h1v1h-1V4z" fill="#367f2e"/></g><g class="gotchi-sleeves gotchi-sleeves-right gotchi-sleeves-up"><path d="M2 1V0H0v7h1v1h1v1h1V1z" fill="#1ca4b4"/><path d="M2 2V1H1v6h1v1h1V2z" fill="#20c7db"/><path d="M1,2h1v1H1V2z" fill="#f1751c"/><path d="M2,5h1v1H2V5z" fill="#367f2e"/></g><g class="gotchi-sleeves gotchi-sleeves-right gotchi-sleeves-down"><path d="M2 1v1H1v1H0v7h2V9h1V1z" fill="#1ca4b4"/><path d="M2 2v1H1v6h1V8h1V2z" fill="#20c7db"/><path d="M1,7h1v1H1V7z" fill="#f1751c"/><path d="M2,4h1v1H2V4z" fill="#367f2e"/></g></g></svg><g class="gotchi-wearable wearable-hand wearable-hand-left"><svg x="0" y="34"><path d="M11 3V2h-1V1H9V0H3v1H2v1H1v1H0v6h1v1h1v1h1v1h6v-1h1v-1h1V9h1V3z" fill="#00d2ff"/><path d="M0,6.1v2h12v-2H0z" fill="#f500eb"/><path d="M0,4.1v2h12v-2H0z" fill="#00f0ff"/><path d="M0,8.1v1h1v1h10v-1h1v-1H0z" fill="#d719cd"/><path d="M2,10.1v1h1v1h6v-1h1v-1H2z" fill="#cd00c3"/><g fill="#fff"><path d="M4.6 8.1v1.2h2.8V8.1H4.6z"/><path d="M7.4 4.1v4h1.2v-4H7.4zm-2.8 0H3.4v4h1.2v-4zm-1.7-.5h.6v-.2h.2v-.5h-.6v.2h.4v.3h-.7v-.9h.9v-.2h-.9v.2h-.2v.9h.2v.2h.1zm1.9-1.1v-.2h-.7v.2h-.2v.9h.2v.2h.7v-.2H5v-.9h-.2zm0 .9h-.7v-.9h.7v.9zm4-1.1h-.2v.5h-.7v-.5h-.2v1.3h.2V3h.7v.6h.2V2.3zm.2 0h.2v1.3H9zm-1.7.2h.2v.2h-.2z"/><path d="M6.6 2.3v.2h-.2v.9h.2v.2h.7v-.2h.2v-.2h-.2v.2h-.7v-.9h.7v-.2h-.7zm-1.4 0v.2h.4v1.1h.2V2.5h.4v-.2h-1z"/></g></svg></g><g class="gotchi-wearable wearable-hand wearable-hand-right"><svg x="0" y="25"><g transform="scale(-1, 1) translate(-64, 0)"><path d="M14 0v1h-1v1h-1V1h-1V0H7v1H6v1H5V1H4V0H0v10h4V9h1V8h1v1h1v11H6v4h1v1h4v-1h1v-4h-1V9h1V8h1v1h1v1h4V0h-4z" fill="#282c3c"/><path d="M14 1v1h-1v1h-1V2h-1V1H7v1H6v1H5V2H4V1H3v8h1V8h1V7h1v1h1v1h4V8h1V7h1v1h1v1h1V1h-1zm-4 9H8v10H7v4h4v-4h-1V10z" fill="#525375"/><path d="M7 1v7h4V1H7z" fill="#6d6e97"/><path d="M1 9h1V1H1v8zm15-8v8h1V1h-1zM5 7h1V3H5v4zm7 0h1V3h-1v4z" fill="#df2b25"/><g fill="#6d6e97"><path d="M9 10H8v2h1v-2z"/><path d="M9 12v1H8v1h1v1H8v1h1v1H8v1h1v1h1v-7H9z"/><path d="M8 20H7v4h1v-2h1v-3H8v1z"/></g><path d="M7 1v2h1V2h3V1H7z" fill="#9a97b9"/><path d="M8 13v1h2v-1H8zm0 2v1h2v-1H8zm0 2v1h2v-1H8z" fill="#ac1f22"/><path d="M9 12h1v1H9zm0 2h1v1H9zm0 2h1v1H9zm0 2h1v1H9z" fill="#34394e"/><g fill="#9a97b9"><path d="M8 20h1v1H8z"/><path d="M7 21h1v1H7z"/></g><path d="M8 13h1v1H8zm0 2h1v1H8zm0 2h1v1H8z" fill="#df2b25"/><path d="M1 8h1V1H1v7zm15-7v7h1V1h-1zM5 6h1V3H5v3zm7 0h1V3h-1v3z" fill="#ee5122"/><path d="M1 4h1V1H1v3zm15-3v3h1V1h-1zM5 3h1v1H5zm7 0h1v1h-1z" fill="#f37720"/></g></svg></g><g class="gotchi-wearable wearable-pet"><svg x="42" y="43"><path d="M19 2V1h-1V0h-5v1h-1v1H8V1H7V0H2v1H1v1H0v2h1v1h1v1H1v3h1v1h1v1H2v1H1v2h1v1H1v2h4v1h3v-1h1v-1h2v1h1v1h3v-1h4v-2h-1v-1h1v-2h-1v-1h-1v-1h1V9h1V6h-1V5h1V4h1V2h-1z"/><path d="M18 3h-1v1h-3V3h-2v1h1v1h5V4h1V3h-1zM6 3v1H3V3H1v1h1v1h5V4h1V3H6z" fill="#fff"/><g fill="#33bacc"><path d="M17 1h-4v1h5V1h-1zm-7 4h2V4h-1V3H9v1H8v1h2zM4 2h3V1H2v1h2zm5 11v2h2v-2H9z"/><path d="M16 12v-2H4v2H2v2h2v1H2v1h3v-3h1v3H5v1h3v-4h1v-1h2v1h1v4h3v-1h-1v-3h1v3h3v-1h-2v-1h2v-2h-2z"/></g><path d="M17 6H2v3h16V6h-1zm0 2H3V7h14v1z" fill="#ef1e26"/><defs /></svg></g></svg>