<svg xmlns="http://www.w3.org/2000/svg" viewBox="0 0 64 64"><g class="gotchi-bg"><defs fill="#fff"><pattern id="a" patternUnits="userSpaceOnUse" width="4" height="4"><path d="M0 0h1v1H0zm2 2h1v1H2z"/></pattern><pattern id="b" patternUnits="userSpaceOnUse" x="0" y="0" width="2" height="2"><path d="M0 0h1v1H0z"/></pattern><pattern id="c" patternUnits="userSpaceOnUse" x="-2" y="0" width="8" height="1"><path d="M0 0h1v1H0zm2 0h1v1H2zm2 0h1v1H4z"/></pattern><pattern id="d" patternUnits="userSpaceOnUse" x="0" y="0" width="4" height="4"><path d="M0 0h1v1H0zm0 2h1v1H0zm1 0V1h1v1zm1 0h1v1H2zm0-1h1V0H2zm1 2h1v1H3z"/></pattern><pattern id="e" patternUnits="userSpaceOnUse" width="64" height="32"><path d="M4 4h1v1H4zm7 0h1v1h-1zm7 0h1v1h-1zm7 0h1v1h-1zm7 0h1v1h-1zm7 0h1v1h-1zm7 0h1v1h-1zm7 0h1v1h-1zm7 0h1v1h-1z"/><path fill="url(#a)" d="M0 8h64v7H0z"/><path fill="url(#b)" d="M0 16h64v1H0z"/><path fill="url(#c)" d="M0 18h64v1H0z"/><path fill="url(#b)" d="M22 18h15v1H22zM0 20h64v3H0z"/><path fill="url(#d)" d="M0 24h64v8H0z"/></pattern><mask id="f"><path fill="url(#e)" d="M0 0h64v32H0z"/></mask></defs><path fill="#fff" d="M0 0h64v32H0z"/><path fill="#dea8ff" class="gotchi-secondary" mask="url(#f)" d="M0 0h64v32H0z"/><path fill="#dea8ff" class="gotchi-secondary" d="M0 32h64v32H0z"/><path mask="url(#f)" fill="#fff" transform="matrix(1 0 0 -1 0 64)" d="M0 0h64v32H0z"/></g><style>.gotchi-primary{fill:#000000;}.gotchi-secondary{fill:#FBDFEB;}.gotchi-cheek{fill:#F696C6;}.gotchi-eyeColor{fill:#FF00FF;}.gotchi-primary-mouth{fill:#000000;}.gotchi-sleeves-up{display:none;}.gotchi-handsUp{display:none;}.gotchi-handsDownOpen{display:block;}.gotchi-handsDownClosed{display:none;}</style><g class="gotchi-body"><path d="M47 14v-2h-2v-2h-4V8h-4V6H27v2h-4v2h-4v2h-2v2h-2v41h4v-2h5v2h5v-2h6v2h5v-2h5v2h4V14z" class="gotchi-primary"/><path d="M45 14v-2h-4v-2h-4V8H27v2h-4v2h-4v2h-2v39h2v-2h5v2h5v-2h6v2h5v-2h5v2h2V14z" class="gotchi-secondary"/><path d="M18,49h2v-1h2v1h2v2h5v-2h2v-1h2v1h2v2h5v-2h2v-1h2v1h1V14h-4v-2h-4v-2h-5V9h-5v2h-4v2h-4v2h-1V49z" fill="#fff"/></g><path class="gotchi-cheek" d="M21 32v2h2v-2h-1zm21 0h-1v2h2v-2z"/><g class="gotchi-primary-mouth"><path d="M29 32h-2v2h2v-1z"/><path d="M33 34h-4v2h6v-2h-1z"/><path d="M36 32h-1v2h2v-2z"/></g><g class="gotchi-shadow"><path opacity=".25" d="M25 58H19v1h1v1h24V59h1V58h-1z" fill="#000"/></g>,<g class="gotchi-collateral"><path d="M35.5 20h1v-1h1v-5h-1v-1h-1v-1h-1v-1h-5v1h-1v1h-1v1h-1v5h1v1h1v1h1v1h5v-1h1v-1zm0-2h-1v1h-4v-1h-1v-3h1v-1h4v1h1v3z"/><path d="M28.5 15h1v-1h1v-1h3v-1h-4v1h-1v1h-1v5h1v1h1v1h4v-1h-3v-1h-1v-1h-1v-3z" fill="#e51b6d"/></g>
    <style>
        .gotchi-bg { display: none }
    </style>
<g class="gotchi-eyeColor"><path d="M43 22h-1v-1h-5v1h-1v1h-1v5h1v1h1v1h5v-1h1v-1h1v-5h-1v-1zm-1 5h-4v-3h4v3z"/><path d="M36 24h1v-1h1v-1h3v-1h-4v1h-1v1h-1v5h1v1h1v1h4v-1h-3v-1h-1v-1h-1v-3z" fill="#e51b6d"/><path d="M28 22h-1v-1h-5v1h-1v1h-1v5h1v1h1v1h5v-1h1v-1h1v-5h-1v-1zm-1 5h-4v-3h4v3z"/><path d="M22 21v1h-1v1h-1v5h1v1h1v1h4v-1h-3v-1h-1v-1h-1v-3h1v-1h1v-1h3v-1h-4z" fill="#e51b6d"/></g><g class="gotchi-wearable wearable-body"><svg x="12" y="32"><style><![CDATA[.a{fill:#369c2e}.b{fill:#5fb935}.c{fill:#368528}.d{fill:#a322d4}.e{fill:#2234cb}.f{fill:#f122ad}.g{fill:#0e982e}.h{fill:#d322e8}.i{fill:#36a72e}.j{fill:#1ce4a3}.k{fill:#6822bc}.l{fill:#8a22b4}.m{fill:#18742e}.n{fill:#28ff3c}]]></style><path d="M35 1v1h-2v1h-2v1h-2v1h-2v1h-1v1h-1v1h-1v1h-1v1h-1v1h-1v1h-2v-1h-1v-1h-1V9h-1V8h-1V7h-1V6h-1V5h-2V4H9V3H7V2H5V1H3v18h34V1z" fill="#c5221c"/><path d="M35 2v1h-2v1h-2v1h-2v1h-2v1h-1v1h-1v1h-1v1h-1v1h-1v1h-2v1h1v1h-1v1h1v1h-1v1h1v1h15V9h1V2h-2zm-8 12v-1h1v1h-1zm6-4h-4V9h4v1zm-15 1h-1v-1h-1V9h-1V8h-1V7h-1V6h-2V5H9V4H7V3H5V2H3v7h1v9h15v-6h-1v-1zM7 10V9h4v1H7zm6 3v1h-1v-1h1z" fill="#f1221c"/><path d="M20,14h1v1h-1V14z" class="n"/><path d="M21 14h1v1h-1v-1zm0-2h1v1h-1v-1z" class="d"/><path d="M31,5h1v1h-1V5z" class="e"/><path d="M31,8h1v1h-1V8z" class="f"/><path d="M30,8h1v1h-1V8z" fill="#8a22a0"/><path d="M30,7h1v1h-1V7z" class="f"/><path d="M29,10h1v1h-1V10z" class="a"/><path d="M29,8h1v1h-1V8z" class="f"/><path d="M32,12h1v1h-1V12z" class="b"/><path d="M32,13h1v1h-1V13z" class="a"/><path d="M20,12h1v1h-1V12z" class="n"/><path d="M23,14h1v1h-1V14z" class="d"/><path d="M31,13h1v1h-1V13z" class="b"/><path d="M23,12h1v1h-1V12z" class="d"/><path d="M26,8h1v1h-1V8z" class="c"/><path d="M22,13h1v1h-1V13z" fill="#f122a4"/><path d="M36,2h1v1h-1V2z" fill="#b782c2"/><path d="M33,3h1v1h-1V3z" class="e"/><path d="M35,11h1v1h-1V11z" fill="#1c62a3"/><path d="M35,14h1v1h-1V14z" class="h"/><g class="i"><path d="M35 7h1v1h-1V7zm0-2h1v1h-1V5z"/><path d="M36,6h1v1h-1V6z"/></g><path d="M31,11h1v1h-1V11z" class="b"/><path d="M25,9h1v1h-1V9z" class="c"/><path d="M30,11h1v1h-1V11z" class="a"/><path d="M27,7h1v1h-1V7z" class="c"/><path d="M34,12h1v1h-1V12z" class="j"/><path d="M33,5h1v1h-1V5z" class="e"/><path d="M34,6h1v1h-1V6z" class="i"/><path d="M34,10h1v1h-1V10z" class="j"/><path d="M30,12h1v1h-1V12z" class="b"/><path d="M24,10h1v1h-1V10z" class="c"/><path d="M31,12h1v1h-1V12z" class="a"/><path d="M20,16h1v1h-1V16z" class="n"/><path d="M21,16h1v1h-1V16z" class="k"/><path d="M26,16h1v1h-1V16z" class="g"/><path d="M32 15h1v1h-1v-1zm-2 0h1v1h-1v-1z" class="l"/><path d="M25,16h1v1h-1V16z" class="m"/><path d="M31,16h1v1h-1V16z" fill="#cec81c"/><path d="M35,15h1v1h-1V15z" fill="#ba911c"/><g class="h"><path d="M35,16h1v1h-1V16z"/><path d="M34,15h1v1h-1V15z"/></g><path d="M21,17h1v1h-1V17z" fill="#84861c"/><path d="M32 17h1v1h-1v-1zm-2 0h1v1h-1v-1z" class="l"/><path d="M25,17h1v1h-1V17z" class="g"/><path d="M22,17h1v1h-1V17z" class="k"/><path d="M26,17h1v1h-1V17z" class="m"/><path d="M27,17h1v1h-1V17z" class="g"/><path d="M18 14h1v1h-1v-1zm0-2h1v1h-1v-1z" class="d"/><path d="M8,5h1v1H8V5z" class="e"/><path d="M8,8h1v1H8V8z" class="f"/><path d="M9,8h1v1H9V8z" fill="#8a22a0"/><path d="M9,7h1v1H9V7z" class="f"/><path d="M10,10h1v1h-1V10z" class="a"/><path d="M10,8h1v1h-1V8z" class="f"/><path d="M7,12h1v1H7V12z" class="b"/><path d="M7,13h1v1H7V13z" class="a"/><path d="M16,14h1v1h-1V14z" class="d"/><path d="M8,13h1v1H8V13z" class="b"/><path d="M16,12h1v1h-1V12z" class="d"/><path d="M13,8h1v1h-1V8z" class="c"/><path d="M17,13h1v1h-1V13z" fill="#f122a4"/><path d="M3,2h1v1H3V2z" fill="#b782c2"/><path d="M6,3h1v1H6V3z" class="e"/><path d="M4,11h1v1H4V11z" fill="#1c62a3"/><path d="M4,14h1v1H4V14z" class="h"/><g class="i"><path d="M4 7h1v1H4V7zm0-2h1v1H4V5z"/><path d="M3,6h1v1H3V6z"/></g><path d="M8,11h1v1H8V11z" class="b"/><path d="M14,9h1v1h-1V9z" class="c"/><path d="M9,11h1v1H9V11z" class="a"/><path d="M12,7h1v1h-1V7z" class="c"/><path d="M5,12h1v1H5V12z" class="j"/><path d="M6,5h1v1H6V5z" class="e"/><path d="M5,6h1v1H5V6z" class="i"/><g fill="#367f2e"><path d="M36,5h1v1h-1V5z"/><path d="M35,6h1v1h-1V6z"/><path d="M34 7h1v1h-1V7zM3 5h1v1H3V5z"/><path d="M4,6h1v1H4V6z"/><path d="M5,7h1v1H5V7z"/></g><path d="M5,10h1v1H5V10z" class="j"/><g fill="#077c22"><path d="M26,9h1v1h-1V9z"/><path d="M25 10h1v1h-1v-1zm0-2h1v1h-1V8z"/><path d="M24 9h1v1h-1V9zM13 9h1v1h-1V9z"/><path d="M14 10h1v1h-1v-1zm0-2h1v1h-1V8z"/><path d="M15,9h1v1h-1V9z"/></g><path d="M9,12h1v1H9V12z" class="b"/><path d="M15,10h1v1h-1V10z" class="c"/><g fill="#e8dc21"><path d="M32 4h1v1h-1V4zm-5 10h1v1h-1v-1zm0-2h1v1h-1v-1z"/><path d="M26 13h1v1h-1v-1zm2 0h1v1h-1v-1zM7 4h1v1H7V4zm5 10h1v1h-1v-1zm0-2h1v1h-1v-1z"/><path d="M13 13h1v1h-1v-1zm-2 0h1v1h-1v-1z"/></g><path d="M8,12h1v1H8V12z" class="a"/><path d="M18,16h1v1h-1V16z" class="k"/><path d="M13,16h1v1h-1V16z" class="g"/><path d="M7 15h1v1H7v-1zm2 0h1v1H9v-1z" class="l"/><path d="M14,16h1v1h-1V16z" class="m"/><path d="M8,16h1v1H8V16z" fill="#cec81c"/><path d="M4,15h1v1H4V15z" fill="#ba911c"/><g class="h"><path d="M4,16h1v1H4V16z"/><path d="M5,15h1v1H5V15z"/></g><path d="M18,17h1v1h-1V17z" fill="#84861c"/><path d="M7 17h1v1H7v-1zm2 0h1v1H9v-1z" class="l"/><path d="M14,17h1v1h-1V17z" class="g"/><path d="M17,17h1v1h-1V17z" class="k"/><path d="M13,17h1v1h-1V17z" class="m"/><path d="M12,17h1v1h-1V17z" class="g"/></svg></g><g class="gotchi-handsDownClosed"><g class="gotchi-primary"><path d="M19 42h1v1h-1zm1-6h1v1h-1z"/><path d="M21 37h1v1h-1zm5 3v4h1v-4zm-5 3h-1v1h2v-1z"/><path d="M24 44h-2v1h4v-1h-1zm1-5h-1v1h2v-1z"/><path d="M23 38h-1v1h2v-1z"/></g><g class="gotchi-secondary"><path d="M19 43h1v1h-1zm5 2h-2v1h4v-1h-1z"/><path d="M27 41v3h1v-3zm-6 3h-1v1h2v-1z"/><path d="M26 44h1v1h-1zm-7-3h-1v2h1v-1z"/></g><g class="gotchi-primary"><path d="M44 42h1v1h-1zm-1-6h1v1h-1z"/><path d="M42 37h1v1h-1z"/><path d="M42 39v-1h-2v1h1zm0 4v1h2v-1h-1z"/><path d="M40 44h-2v1h4v-1h-1z"/><path d="M38 42v-2h-1v4h1v-1z"/><path d="M40 40v-1h-2v1h1z"/></g><g class="gotchi-secondary"><path d="M42 44v1h2v-1h-1zm-5-2v-1h-1v3h1v-1z"/><path d="M40 45h-2v1h4v-1h-1z"/><path d="M37 44h1v1h-1zm7-1h1v1h-1z"/></g></g><g class="gotchi-handsDownOpen"><g class="gotchi-primary"><path d="M56 38v-1h-2v-1h-2v-1h-1v-1h-1v-1h-1v8h1v1h2v1h4v-1h1v-4z"/></g><g class="gotchi-secondary"><path d="M54 38v-1h-2v-1h-1v-1h-1v-1h-1v6h1v1h2v1h4v-4z" /></g><path d="M54,38v-1h-2v-1h-1v-1h-1v-1h-1v5h1v1h2v1h4v-3H54z" fill="#fff"/><g class="gotchi-primary"><path d="M8 38v-1h2v-1h2v-1h1v-1h1v-1h1v8h-1v1h-2v1H8v-1H7v-4z"/></g><g class="gotchi-secondary"><path d="M10 38v-1h2v-1h1v-1h1v-1h1v6h-1v1h-2v1H8v-4z" /></g><path d="M8,38v3h4v-1h2v-1h1v-5h-1v1h-1v1h-1v1h-2v1H8z" fill="#fff"/></g><g class="gotchi-handsUp"><g class="gotchi-secondary"><path d="M50,38h1v1h-1V38z"/><path d="M49 39h1v1h-1v-1zm2-2h1v1h-1v-1z"/><path d="M52,36h2v1h-2V36z"/><path d="M54,35h2v1h-2V35z"/></g><path d="M52,32v1h-2v1h-1v5h1v-1h1v-1h1v-1h2v-1h2v-3H52z" fill="#fff"/><g class="gotchi-primary"><path d="M49,33h1v1h-1V33z"/><path d="M50 32h2v1h-2v-1zm0 7h1v1h-1v-1z"/><path d="M49 40h1v1h-1v-1zm2-2h1v1h-1v-1z"/><path d="M52 37h2v1h-2v-1zm0-6h4v1h-4v-1z"/><path d="M56,32h1v4h-1V32z"/><path d="M54,36h2v1h-2V36z"/></g><g class="gotchi-secondary"><path d="M13,38h1v1h-1V38z"/><path d="M14 39h1v1h-1v-1zm-2-2h1v1h-1v-1z"/><path d="M10,36h2v1h-2V36z"/><path d="M8,35h2v1H8V35z"/></g><path d="M8,32v3h2v1h2v1h1v1h1v1h1v-5h-1v-1h-2v-1H8z" fill="#fff"/><g class="gotchi-primary"><path d="M14,33h1v1h-1V33z"/><path d="M12 32h2v1h-2v-1zm1 7h1v1h-1v-1z"/><path d="M14 40h1v1h-1v-1zm-2-2h1v1h-1v-1z"/><path d="M10 37h2v1h-2v-1zm-2-6h4v1H8v-1z"/><path d="M7,32h1v4H7V32z"/><path d="M8,36h2v1H8V36z"/></g></g><g class="gotchi-wearable wearable-face"><svg x="22" y="32"><g fill="#0f0"><path d="M3 18h1v1H3zm-2 1h1v1H1zm-1 3h1v1H0zm16-4h1v1h-1z"/><path d="M18 19h1v1h-1zm-1 2h-1v-2h-1V1H5v18H4v2H3v1H2v1h16v-1h-1v-1zm2 1h1v1h-1z"/></g><path d="M6 1v22h1V1H6z" fill="#0ff"/><g fill="#007dff"><path d="M5 1v18H4v2H3v1H2v1h4V1H5z"/><path d="M3 18h1v1H3zm-2 1h1v1H1zm-1 3h1v1H0z"/></g><path d="M13 1v22h1V1h-1z" fill="#009600"/><path d="M8 1v22h1V1H8z" fill="#7d00ff"/><path d="M9 1v22h1V1H9z" fill="#7d0064"/><path d="M7 1v22h1V1H7z" fill="#32007d"/><path d="M10 1v22h1V1h-1z" fill="#f0f"/><path d="M11 1v22h1V1h-1z" fill="#ffc800"/><path d="M12 1v22h1V1h-1z" fill="#ff0"/><path d="M5 0v2h10V0H5z" fill="#64438e"/></svg></g><g class="gotchi-wearable wearable-eyes"><svg x="15" y="19"><path d="M31 5V3h-1V2h-1V1h-1V0h-6v1h-1v1h-1v1h-1v2h-4V3h-1V2h-1V1h-1V0H6v1H5v1H4v1H3v2H0v2h3v2h1v1h1v1h1v1h6v-1h1v-1h1V9h1V7h4v2h1v1h1v1h1v1h6v-1h1v-1h1V9h1V7h3V5z" fill="red"/><path d="M13 2h-1V1H6v1H5v1H4v6h1v1h1v1h6v-1h1V9h1V3h-1V2zm16 0h-1V1h-6v1h-1v1h-1v6h1v1h1v1h6v-1h1V9h1V3h-1V2z"/><path d="M8,2v1H7v1H6v2h3V2H8z" fill="#7d7d7d"/><path d="M9,6v4h1V9h1V8h1V6H9z" fill="#282828"/><g fill="#464646"><path d="M6,6v2h1v1h1v1h1V6H6z"/><path d="M11,4V3h-1V2H9v4h3V4H11z"/></g><g fill="#646464"><path d="M26.5 4.6h1v1h-1v-1zm0 2h1v1h-1v-1z"/><path d="M24.5 5.6v-1h2v-1h-1v-1h-1v1h-2v1h1v3h-1v1h2v1h1v-1h1v-1h-2v-1h2v-1h-2z"/></g></svg></g><g class="gotchi-wearable wearable-head"><svg x="27" y="0"><path d="M6,6h4v13H6V6z" fill="#0f0"/><path d="M5,3h3v18H5V3z" fill="#ff0"/><path d="M5,3h2v18H5V3z" fill="#ffc800"/><path d="M0,19h4V6H0V19z" fill="#0ff"/><path d="M0,19h1V6H0V19z" fill="#007dff"/><path d="M4,0h2v22H4V0z" fill="#f0f"/><path d="M2,3h3v18H2V3z" fill="#7d00ff"/><path d="M8,6h1v13H8V6z" fill="#009600"/><path d="M4,0h1v22H4V0z" fill="#7d0064"/><path d="M2,3h1v18H2V3z" fill="#32007d"/></svg></g>"><svg x="12" y="32"><g><g class="gotchi-sleeves gotchi-sleeves-left gotchi-sleeves-up"><path d="M38 0v1h-1v8h1V8h1V7h1V0z" fill="#c5221c"/><path d="M38 1v1h-1v6h1V7h1V1z" fill="#f1221c"/><path d="M38,2h1v1h-1V2z" fill="#f1751c"/><path d="M37,5h1v1h-1V5z" fill="#367f2e"/></g><g class="gotchi-sleeves gotchi-sleeves-left gotchi-sleeves-down"><path d="M39 3V2h-1V1h-1v8h1v1h2V3z" fill="#c5221c"/><path d="M38 3V2h-1v6h1v1h1V3z" fill="#f1221c"/><path d="M38,7h1v1h-1V7z" fill="#f1751c"/><path d="M37,4h1v1h-1V4z" fill="#367f2e"/></g><g class="gotchi-sleeves gotchi-sleeves-right gotchi-sleeves-up"><path d="M2 1V0H0v7h1v1h1v1h1V1z" fill="#c5221c"/><path d="M2 2V1H1v6h1v1h1V2z" fill="#f1221c"/><path d="M1,2h1v1H1V2z" fill="#f1751c"/><path d="M2,5h1v1H2V5z" fill="#367f2e"/></g><g class="gotchi-sleeves gotchi-sleeves-right gotchi-sleeves-down"><path d="M2 1v1H1v1H0v7h2V9h1V1z" fill="#c5221c"/><path d="M2 2v1H1v6h1V8h1V2z" fill="#f1221c"/><path d="M1,7h1v1H1V7z" fill="#f1751c"/><path d="M2,4h1v1H2V4z" fill="#367f2e"/></g></g></svg><g class="gotchi-wearable wearable-hand wearable-hand-left"><svg x="0" y="33"><path d="M12 2V1h-1V0H2v1H1v1H0v2h1v1h1v1h1v1h1v1h1v1h1v1h1V9h1V8h1V7h1V6h1V5h1V4h1V2z"/><path d="M2 4v1h1v1h1v1h1v1h1v1h1V8h1V7h1V6h1V5h1V4z" fill="#46a7c0"/><g fill="#0ff"><path d="M9 2H8V1H5v1H4v1H3v2h1v1h1v1h1v1h1V7h1V6h1V5h1V3H9zm2 0h1v1h-1z"/><path d="M10 1h1v1h-1zM2 1h1v1H2z"/><path d="M1 2h1v1H1z"/></g><g fill="#fff"><path d="M11 3h1v1h-1V3zM1 3h1v1H1V3zm8-2h1v1H9V1zM8 3V2H7V1H6v1H5v1H3v1h7V3H8z"/><path d="M10 2h1v1h-1V2zM2 2h1v1H2V2z"/><path d="M3,1h1v1H3V1z"/></g></svg></g><g class="gotchi-wearable wearable-hand wearable-hand-right"><svg x="0" y="30"><g transform="scale(-1, 1) translate(-64, 0)"><path d="M15 12v-1h-1v-1h1V1h-1V0H2v1H1v9h1v1H1v1H0v2h16v-2h-1z"/><path d="M14 12v-1H2v1H1v1h14v-1h-1z" fill="#646464"/><path d="M2 1v9h12V1H2z" fill="#323232"/><g fill="#969696"><path d="M2 11h1v1H2zm2 0h1v1H4zm2 0h1v1H6zm2 0h1v1H8z"/><path d="M10 11h1v1h-1zm2 0h1v1h-1zM1 12h1v1H1zm2 0h1v1H3z"/><path d="M5 12h1v1H5zm2 0h1v1H7zm2 0h1v1H9zm2 0h1v1h-1zm2 0h1v1h-1z"/></g><path d="M3 4v4h1V3H3v1zm2-1v1h1v1H5v1h1v1H5v1h2V3H5zm3 0v1h1v1H8v1h1v1H8v1h2V3H8zm3 0v1h1v4h1V3h-2z" fill="#0f0"/></g></svg></g><g class="gotchi-wearable wearable-pet"><svg x="40" y="45"><path d="M12 3h1v1h-1V3zm8-2h1v1h-1V1zm-6 0h1v1h-1V1zm8 2h1v1h-1V3z" fill="#0f0"/><path d="M22,4h-1V3h-1V2h-1V1h-1V0h-1v1h-1v1h-1v1h-1v1h-1v2h-1v1h1v1h1v1h1v1h5V9h1V8h1V7h1V6h-1V4z" fill="#ff3bff"/><path d="M18 3V2h1V1h-1V0h-1v1h-1v1h1v1h1zm-6 3h1v1h-1V6zm0-3h1v1h-1V3zm6 3h1v1h-1V6zm-2-2h1v1h-1V4zm4-3h1v1h-1V1zm-6 0h1v1h-1V1zm5 7h1v1h-1V8zm-4 0h1v1h-1V8zm5-4h1v1h-1V4zm2 2h1v1h-1V6zm0-3h1v1h-1V3z" fill="#8700ff"/><path d="M17 4v6h1V3h-1v1zm2-1v5h1V2h-1v1zm0 6h1v1h-1V9zm-4-6v5h1V2h-1v1zm0 6h1v1h-1V9zm6-5v4h1V4h-1zm-8 1v3h1V4h-1v1z" fill="#ff9aff"/><path d="M17,1h1v1h-1V1z" fill="#ff0"/><path d="M16,13v-1h-1v-1h-1v-1h-1v1h-1v2h-1v1h-1v1h1v1h1v1h4v-1h1v-1h1v-1h-1v-1H16z" fill="#ff3bff"/><path d="M17,12h1v1h-1V12z" fill="#009300"/><path d="M13 14v3h1v-4h-1v1zm2-2h1v1h-1v-1zm0 3v2h1v-3h-1v1zm-4-1v2h1v-3h-1v1z" fill="#ff9aff"/><path d="M14 13v-1h1v-1h-1v-1h-1v1h-1v1h1v1h1zm0 3h1v1h-1v-1zm-2-2h1v1h-1v-1zm-2 0h1v1h-1v-1zm5-1h1v1h-1v-1zm2-1h1v1h-1v-1zm0 2h1v1h-1v-1z" fill="#8700ff"/><path d="M13,11h1v1h-1V11z" fill="#ff0"/><path d="M0 6h1v1H0V6zm8-2h1v1H8V4zM2 4h1v1H2V4z" fill="#0f0"/><path d="M9 6H8V5H7V4H6V3H5v1H4v1H3v1H2v1H1v2H0v1h1v1H0v1h1v1h1v1h1v1h5v-1h1v-1h1v-1h1v-1h-1v-1h1V9h-1V7H9V6z" fill="#ff3bff"/><path d="M10,6h1v1h-1V6z" fill="#0f0"/><path d="M6 6V5h1V4H6V3H5v1H4v1h1v1h1zm-6 5h1v1H0v-1zm0-2h1v1H0V9zm0-3h1v1H0V6zm6 4h1v1H6v-1zM4 7h1v1H4V7zm4-3h1v1H8V4zM2 4h1v1H2V4zm5 8h1v1H7v-1zm-4 0h1v1H3v-1zm5-4h1v1H8V8zm2 3h1v1h-1v-1zm0-2h1v1h-1V9zm0-3h1v1h-1V6zM2 8h1v1H2V8z" fill="#8700ff"/><path d="M5 7v8h1V6H5v1zm2-1v6h1V5H7v1zm0 8v1h1v-2H7v1zM3 6v6h1V5H3v1zm0 8v1h1v-2H3v1zm6-6v5h1V7H9v1zM1 8v5h1V7H1v1z" fill="#ff9aff"/><path d="M5,4h1v1H5V4z" fill="#ff0"/></svg></g></svg>