<svg xmlns="http://www.w3.org/2000/svg" viewBox="0 0 64 64"><g class="gotchi-bg"><defs fill="#fff"><pattern id="a" patternUnits="userSpaceOnUse" width="4" height="4"><path d="M0 0h1v1H0zm2 2h1v1H2z"/></pattern><pattern id="b" patternUnits="userSpaceOnUse" x="0" y="0" width="2" height="2"><path d="M0 0h1v1H0z"/></pattern><pattern id="c" patternUnits="userSpaceOnUse" x="-2" y="0" width="8" height="1"><path d="M0 0h1v1H0zm2 0h1v1H2zm2 0h1v1H4z"/></pattern><pattern id="d" patternUnits="userSpaceOnUse" x="0" y="0" width="4" height="4"><path d="M0 0h1v1H0zm0 2h1v1H0zm1 0V1h1v1zm1 0h1v1H2zm0-1h1V0H2zm1 2h1v1H3z"/></pattern><pattern id="e" patternUnits="userSpaceOnUse" width="64" height="32"><path d="M4 4h1v1H4zm7 0h1v1h-1zm7 0h1v1h-1zm7 0h1v1h-1zm7 0h1v1h-1zm7 0h1v1h-1zm7 0h1v1h-1zm7 0h1v1h-1zm7 0h1v1h-1z"/><path fill="url(#a)" d="M0 8h64v7H0z"/><path fill="url(#b)" d="M0 16h64v1H0z"/><path fill="url(#c)" d="M0 18h64v1H0z"/><path fill="url(#b)" d="M22 18h15v1H22zM0 20h64v3H0z"/><path fill="url(#d)" d="M0 24h64v8H0z"/></pattern><mask id="f"><path fill="url(#e)" d="M0 0h64v32H0z"/></mask></defs><path fill="#fff" d="M0 0h64v32H0z"/><path fill="#dea8ff" class="gotchi-secondary" mask="url(#f)" d="M0 0h64v32H0z"/><path fill="#dea8ff" class="gotchi-secondary" d="M0 32h64v32H0z"/><path mask="url(#f)" fill="#fff" transform="matrix(1 0 0 -1 0 64)" d="M0 0h64v32H0z"/></g><style>.gotchi-primary{fill:#824EE2;}.gotchi-secondary{fill:#E6DCF9;}.gotchi-cheek{fill:#F696C6;}.gotchi-eyeColor{fill:#EA8C27;}.gotchi-primary-mouth{fill:#824EE2;}.gotchi-sleeves-up{display:none;}.gotchi-handsUp{display:none;}.gotchi-handsDownOpen{display:block;}.gotchi-handsDownClosed{display:none;}</style><g class="gotchi-body"><path d="M47 14v-2h-2v-2h-4V8h-4V6H27v2h-4v2h-4v2h-2v2h-2v41h4v-2h5v2h5v-2h6v2h5v-2h5v2h4V14z" class="gotchi-primary"/><path d="M45 14v-2h-4v-2h-4V8H27v2h-4v2h-4v2h-2v39h2v-2h5v2h5v-2h6v2h5v-2h5v2h2V14z" class="gotchi-secondary"/><path d="M18,49h2v-1h2v1h2v2h5v-2h2v-1h2v1h2v2h5v-2h2v-1h2v1h1V14h-4v-2h-4v-2h-5V9h-5v2h-4v2h-4v2h-1V49z" fill="#fff"/></g><path class="gotchi-cheek" d="M21 32v2h2v-2h-1zm21 0h-1v2h2v-2z"/><g class="gotchi-primary-mouth"><path d="M29 32h-2v2h2v-1z"/><path d="M33 34h-4v2h6v-2h-1z"/><path d="M36 32h-1v2h2v-2z"/></g><g class="gotchi-shadow"><path opacity=".25" d="M25 58H19v1h1v1h24V59h1V58h-1z" fill="#000"/></g>,<g class="gotchi-collateral"><path d="M37.25 17.04v-.75h-.75v-.75h-.75v-.75H33.5v.75h-.75v.75h-1.5v.75h-.75v.75h-2.25v-.75h-.75v-2.25h.75v-.75h2.25v.75h.75v.75H32v-1.5h-.75v-.75h-.75v-.75h-2.25v.75h-.75v.75h-.75v.75H26v2.25h.75v.75h.75v.75h.75v.75h2.25v-.75h.75v-.75h1.5v-.75h.75v-.75h2.25v.75h.75v2.25h-.75v.75H33.5v-.75h-.75v-.75H32v1.5h.75v.75h.75v.75h2.25v-.75h.75v-.75h.75v-.75H38v-2.25h-.75z" fill="#824ee2"/></g>
    <style>
        .gotchi-bg { display: none }
    </style>
<g class="gotchi-eyeColor"><rect x="21" y="23" width="8" height="2" class="gotchi-primary" /><rect x="35" y="23" width="8" height="2" class="gotchi-primary" /><rect x="38" y="25" width="2" height="2" /><rect x="24" y="25" width="2" height="2" /></g><g class="gotchi-wearable wearable-body"><svg x="15" y="40"><path d="M20 1V0h-6v1H0v14h4v-2h5v2h5v-2h6v2h5v-2h5v2h4V1H20z" fill="#001e6e"/><g fill="#334b8b"><path d="M14 5V4H4v3H3v1H1v5h3v-2h5v2h5v-2h2V5h-2z"/><path d="M3 5V4H1v3h2V5zm15 1V5h-1v3h1V6zm14-2h-1v3h2V4h-1z"/><path d="M30 6V4H20v1h-1v3h-1v1h-1v2h3v2h5v-2h5v2h3V8h-2V7h-1V6z"/></g><path d="M14 12V7h-1v1h-1v1h-1V8h-1V7H9v6H8v2h7v-2h-1v-1z" fill="#4b2d00"/><path d="M13 7v1h-1v1h-1V8h-1V7H9v6h1v-1h3v1h1V7h-1z" fill="#a97955"/><path d="M11 9v3h1V9h-1z" fill="#8b4b1a"/><path d="M13 9h1v1h-1zM9 9h1v1H9zm4 2h1v1h-1zm-4 0h1v1H9z" fill="#e4c599"/><path d="M25 12V7h-1v1h-1v1h-1V8h-1V7h-1v6h-1v2h7v-2h-1v-1z" fill="#4b2d00"/><path d="M24 7v1h-1v1h-1V8h-1V7h-1v6h1v-1h3v1h1V7h-1z" fill="#a97955"/><path d="M22 9v3h1V9h-1z" fill="#8b4b1a"/><path d="M24 9h1v1h-1zm-4 0h1v1h-1zm4 2h1v1h-1zm-4 0h1v1h-1z" fill="#e4c599"/><path d="M21 2V1h-1V0h-6v1h-1v1H1v1h12v1h1v1h4 0 1 0 1V4h1V3h12V2H21z" fill="#4b2d00"/><path d="M21 2v1h2V2h-2zM11 2v1h2V2h-2zM3 2v1h2V2H3zm4 0v1h2V2H7zm18 0v1h2V2h-2zm4 0v1h2V2h-2zM14 1v3h6V1h-6zm2 2V2h2v1h-2z" fill="#a97955"/><path d="M15 2h1v1h-1zm3 0h1v1h-1z" fill="#e4c599"/></svg></g><g class="gotchi-handsDownClosed"><g class="gotchi-primary"><path d="M19 42h1v1h-1zm1-6h1v1h-1z"/><path d="M21 37h1v1h-1zm5 3v4h1v-4zm-5 3h-1v1h2v-1z"/><path d="M24 44h-2v1h4v-1h-1zm1-5h-1v1h2v-1z"/><path d="M23 38h-1v1h2v-1z"/></g><g class="gotchi-secondary"><path d="M19 43h1v1h-1zm5 2h-2v1h4v-1h-1z"/><path d="M27 41v3h1v-3zm-6 3h-1v1h2v-1z"/><path d="M26 44h1v1h-1zm-7-3h-1v2h1v-1z"/></g><g class="gotchi-primary"><path d="M44 42h1v1h-1zm-1-6h1v1h-1z"/><path d="M42 37h1v1h-1z"/><path d="M42 39v-1h-2v1h1zm0 4v1h2v-1h-1z"/><path d="M40 44h-2v1h4v-1h-1z"/><path d="M38 42v-2h-1v4h1v-1z"/><path d="M40 40v-1h-2v1h1z"/></g><g class="gotchi-secondary"><path d="M42 44v1h2v-1h-1zm-5-2v-1h-1v3h1v-1z"/><path d="M40 45h-2v1h4v-1h-1z"/><path d="M37 44h1v1h-1zm7-1h1v1h-1z"/></g></g><g class="gotchi-handsDownOpen"><g class="gotchi-primary"><path d="M56 38v-1h-2v-1h-2v-1h-1v-1h-1v-1h-1v8h1v1h2v1h4v-1h1v-4z"/></g><g class="gotchi-secondary"><path d="M54 38v-1h-2v-1h-1v-1h-1v-1h-1v6h1v1h2v1h4v-4z" /></g><path d="M54,38v-1h-2v-1h-1v-1h-1v-1h-1v5h1v1h2v1h4v-3H54z" fill="#fff"/><g class="gotchi-primary"><path d="M8 38v-1h2v-1h2v-1h1v-1h1v-1h1v8h-1v1h-2v1H8v-1H7v-4z"/></g><g class="gotchi-secondary"><path d="M10 38v-1h2v-1h1v-1h1v-1h1v6h-1v1h-2v1H8v-4z" /></g><path d="M8,38v3h4v-1h2v-1h1v-5h-1v1h-1v1h-1v1h-2v1H8z" fill="#fff"/></g><g class="gotchi-handsUp"><g class="gotchi-secondary"><path d="M50,38h1v1h-1V38z"/><path d="M49 39h1v1h-1v-1zm2-2h1v1h-1v-1z"/><path d="M52,36h2v1h-2V36z"/><path d="M54,35h2v1h-2V35z"/></g><path d="M52,32v1h-2v1h-1v5h1v-1h1v-1h1v-1h2v-1h2v-3H52z" fill="#fff"/><g class="gotchi-primary"><path d="M49,33h1v1h-1V33z"/><path d="M50 32h2v1h-2v-1zm0 7h1v1h-1v-1z"/><path d="M49 40h1v1h-1v-1zm2-2h1v1h-1v-1z"/><path d="M52 37h2v1h-2v-1zm0-6h4v1h-4v-1z"/><path d="M56,32h1v4h-1V32z"/><path d="M54,36h2v1h-2V36z"/></g><g class="gotchi-secondary"><path d="M13,38h1v1h-1V38z"/><path d="M14 39h1v1h-1v-1zm-2-2h1v1h-1v-1z"/><path d="M10,36h2v1h-2V36z"/><path d="M8,35h2v1H8V35z"/></g><path d="M8,32v3h2v1h2v1h1v1h1v1h1v-5h-1v-1h-2v-1H8z" fill="#fff"/><g class="gotchi-primary"><path d="M14,33h1v1h-1V33z"/><path d="M12 32h2v1h-2v-1zm1 7h1v1h-1v-1z"/><path d="M14 40h1v1h-1v-1zm-2-2h1v1h-1v-1z"/><path d="M10 37h2v1h-2v-1zm-2-6h4v1H8v-1z"/><path d="M7,32h1v4H7V32z"/><path d="M8,36h2v1H8V36z"/></g></g><g class="gotchi-wearable wearable-face"><svg x="11" y="6"><path d="M40 13V0h-2v25h2v-2h2V13h-2z" fill="#2800af"/><path d="M38 13v10h2V13h-2z" fill="#9b00a0"/><path d="M40 11h-2v2h2v-2zm-2 12v2h2v-2h-2z"/><path d="M40 13v2h2v-2h-2zm0 8v2h2v-2h-2z"/><path d="M38 15v6h2v-6h-2z" fill="#ff09d7"/><path d="M2 13V0h2v25H2v-2H0V13h2z" fill="#2800af"/><path d="M4 13v10H2V13h2z" fill="#9b00a0"/><path d="M2 11h2v2H2v-2zm2 12v2H2v-2h2z"/><path d="M2 13v2H0v-2h2zm0 8v2H0v-2h2z"/><path d="M4 15v6H2v-6h2z" fill="#ff09d7"/></svg></g><g class="gotchi-wearable wearable-eyes"><svg x="19" y="20"><path d="M11 3V2h-1V1H8V0H4v1H2v1H1v2H0v4h1v2h1v1h2v1h4v-1h2v-1h1V8h1V4h-1V3zm14 1V2h-1V1h-2V0h-4v1h-2v1h-1v2h-1v4h1v2h1v1h2v1h4v-1h2v-1h1V8h1V4h-1z" fill="#fff"/><g fill="#4309d7"><path d="M7 2H4v1h4V2H7z"/><path d="M9 2h1V1H8v1h1z"/><path d="M10 4h1V2h-1v2zM6 1h2V0H4v1h2zm2 9v1h2v-1H8z"/><path d="M10 9v1h1V8h-1v1z"/><path d="M11 5v3h1V4h-1v1zM1 6V4H0v4h1V6z"/><path d="M6 11v1h2v-1H6zM2 3V2H1v2h1V3z"/><path d="M4 2V1H2v1h2zM3 3h1v1H3z"/><path d="M2 5v3H1v2h1v1h1v-1h1V9h1V8h2V7h1V5H7V4H5v1H4v2H3V4H2v1zm6-2h1v1H8zM7 9H6v1h2V9H7z"/><path d="M8 8h1v1H8z"/><path d="M10 7V4H9v4h1V7zm11-5h-3v1h4V2h-1z"/><path d="M23 2h1V1h-2v1h1z"/><path d="M24 4h1V2h-1v2zm-4-3h2V0h-4v1h2zm2 9v1h2v-1h-2z"/><path d="M24 9v1h1V8h-1v1z"/><path d="M25 4v4h1V4h-1zM15 6V4h-1v4h1V6z"/><path d="M20 11v1h2v-1h-2zm-4-8V2h-1v2h1V3z"/><path d="M18 2V1h-2v1h2zm-1 1h1v1h-1z"/><path d="M16 5v3h-1v2h1v1h1v-1h1V9h1V8h2V7h1V5h-1V4h-2v1h-1v2h-1V4h-1v1zm6-2h1v1h-1zm-1 6h-1v1h2V9h-1z"/><path d="M22 8h1v1h-1z"/><path d="M24 7V4h-1v4h1V7z"/></g></svg></g><g class="gotchi-wearable wearable-head"><svg x="11" y="0"><path d="M42 14v-4h-2V8h-2V6h-2V4h-2V2h-4V0H18v2h-4v2h-2v2h-2v2H8v2H6v4H4v4H2v2H0v2h42v-2h-2v-2h-2v-4h-2v-2h-2v-2h4v2h2v2z" fill="#3a2b77"/><g fill="#b135ff"><path d="M4 18v2h34v-2H4zm32-2v-2h-4v-2h-2v-2h2V8h4V6h-2V4h-4V2H18v2h-4v2h-2v2h-2v2H8v4H6v2h30z"/><path d="M20 15.9h3V18h-3z"/></g><path d="M25 9V8h-1V7h-1V5h-1V4h-1v1h-1v2h-1v1h-1v1h-1v1h1v1h1v1h1v2h1v1h1v-1h1v-2h1v-1h1v-1h1V9z" fill="#47289b"/><path d="M20,11h3v1h-3V11z" fill="#cb5bff"/><path d="M22,8h2v1h-2V8z" fill="#6f16e2"/><g fill="#3a2b77"><path d="M22 10h1v1h-1v-1zm0-5h1v2h-1V5z"/><path d="M23 7h1v1h-1V7zm2 2h1v1h-1V9z"/><path d="M24 8h1v1h-1V8zm0 2h1v1h-1v-1zm-6-2h1v1h-1V8zm0 2h1v1h-1v-1zm2 4h1v-2h-1v2z"/><path d="M19,11h1v1h-1V11z"/></g><path d="M21,9h3v1h-3V9z" fill="#f37aff"/><path d="M22,7h1v2h-1V7z" fill="#5d24bf"/><g fill="#8000ff"><path d="M20 10h2v1h-2v-1zm2-3h1v1h-1V7z"/><path d="M21,11h1v3h-1V11z"/></g><g fill="#b135ff"><path d="M21,9h1v2h-1V9z"/><path d="M22,11h1v1h-1V11z"/><path d="M23,9h1v2h-1V9z"/></g><path d="M20 7v1h-1v2h3V7z" fill="#ffa3ff"/><path d="M20,8h1v2h-1V8z" fill="#ffc9ff"/><path d="M19 9.5h1V11h-1V9.5zm4-.5v1h2V9h-2z" fill="#cb5bff"/><path d="M21 5h1v5h-1z" fill="#fff"/><path d="M18 9h4v1h-4z" fill="#ffc9ff"/><path d="M20 9h1v1h-1z" fill="#fff"/><path d="M20 16h1v1h-1z" fill="#f37aff"/><path d="M20 17h1v1h-1z" fill="#ffc9ff"/><path d="M21 16h1v1h-1z" fill="#fff"/><path d="M21 17h1v1h-1z" fill="#5d24bf"/><path d="M22 16h1v1h-1z" fill="#8000ff"/><path d="M22 17h1v1h-1z" fill="#b135ff"/></svg></g><g class="gotchi-wearable wearable-hand wearable-hand-left"><svg x="0" y="17"><path d="M14 29v-2h-1v-5h1v-4h-1v-1h-1v1h-1v2H9v-1H8V7h1V4H8V3h1V2h1V1H9V0H7v1H6v1H5v2H4v4h1v10H3v-2H2v-1H1v2H0v2h1v2h1v6H1v2H0v6h1v1h1v1h2v1h6v-1h2v-1h1v-1h1v-2h1v-4h-1z"/><path d="M13,30v-3h-1v-5h1v-4h-1v3H9v-1H8v1H5v-2H4v6H3v5h1v2h5v-1h3v2h2v-3H13z" fill="#e1e1e1"/><g fill="#ff8700"><path d="M11,24h1v1h-1V24z"/><path d="M10,25v-1h1v-1h-1v-1H9v1H8v1h1v3H8v1h1v1h1v-1h1v-1h-1v-1h1v-1H10z"/><path d="M11,26h1v1h-1V26z"/></g><path d="M7 21H5v1h3v-1H7zm-1 2H5v2h3v-2H7 6zm0 3H5v1h3v-1H7 6zm0 3H5v1h3v-1H7 6z" fill="#fff"/><path d="M7 23h1v-1H5v1h1 1zm0 3h1v-1H5v1h1 1zm0 3h1v-2H5v2h1 1zm1 1H4v2h5v-2H8z" fill="#7f7f7f"/><path d="M9 1V0H7v2H6v2H5v3H4v1h1v13h1v-1h1v1h1V7h1V4H8V3h1V2h1V1H9zM7 19H6v-1h1v1zm0-2H6v-1h1v1zm0-2H6v-1h1v1zm0-2H6v-1h1v1zm0-2H6v-1h1v1zm0-2H6V8h1v1z" fill="#eda350"/></svg></g><g class="gotchi-wearable wearable-hand wearable-hand-right"><svg x="7" y="19"><g transform="scale(-1, 1) translate(-50, 0)"><path d="M4 18v-1H3v-1H0v8h1v1h1v1h1v1h2v-9H4zm0 6H3v-1H2v-1H1v-4h1v1h1v1h1v4z" fill="#ffd400"/><path d="M2,17h1v1H2V17z" fill="#494949"/><g fill="#fc0000"><path d="M1,23h1v1H1V23z"/><path d="M2,24h1v1H2V24z"/><path d="M3,25h1v1H3V25z"/></g><g fill="#494949"><path d="M3,18h1v1H3V18z"/><path d="M4,2V1H3V0H1v1H0v1h1v1H0v1h1v1H0v1h1v1H0v1h1v1H0v1h1v1H0v1h1v1H0v1h1v1H0v1h3v1h1v1h1V2H4z"/></g></g></svg></g><g class="gotchi-wearable wearable-pet"><svg x="44" y="33"><path d="M16 4V3h-1V2h-1V1h-2V0H5v1H3v1H2v1H1v1H0v7h1v1h1v1h1v1h2v1h2v2H3v1H1v2h1v1H1v1H0v3h1v1h2v-1h1v-1h1v-1h7v1h1v1h1v1h2v-1h1v-3h-1v-1h-1v-1h1v-2h-2v-1h-4v-2h2v-1h2v-1h1v-1h1v-1h1V4h-1z"/><path d="M15 4V3h-1V2h-2V1H5v1H3v1H2v1H1v7h1v1h1v1h2v1h3v3h1v-3h3v-1h2v-1h1v-1h1V4h-1zM8 8v1H7V8h1V7H7V6h1v1h1V6h1v1H9v1h1v1H9V8H8z" fill="#a0a0a0"/><g fill="#2800af"><path d="M2 19h1v1H2z"/><path d="M5 21v-1H3v2h1v-1h1z"/><path d="M4 22h1v1H4z"/><path d="M5 21v1h2v-1H5zm6 0h-1v1h2v-1h-1z"/><path d="M12 20v1h1v1h1v-2h-2z"/><path d="M14 19h1v1h-1zm-2 3h1v1h-1zm-1-2h1v-1h1v-1H4v1h1v1h2v1h1v1h1v-1h1v-1h1z"/></g><g fill="#e6e6e6"><path d="M14 11h1v1h-1z"/><path d="M15 4v7h1V4h-1z"/><path d="M14 3h1v1h-1zm-2 9v1h2v-1h-2z"/><path d="M13 3h1V2h-2v1h1zM2 11h1v1H2z"/><path d="M2 9V4H1v7h1V9z"/><path d="M2 3h1v1H2zm2 9H3v1h2v-1H4z"/><path d="M5 3V2H3v1h2z"/><path d="M7 2h5V1H5v1h2zm3 11H5v1h7v-1h-2zM8 6h1v1H8z"/><path d="M7 7h1v1H7zm2 0h1v1H9z"/><path d="M8 8h1v1H8z"/></g><g fill="#c8c8c8"><path d="M6 5h1v1h3V5h1V4h1V3H5v1h1v1z"/><path d="M6 10V9h1V6H6V5H5V4H3v7h2v-1h1z"/><path d="M11 10h-1V9H7v1H6v1H5v1h7v-1h-1v-1z"/><path d="M14 4h-2v1h-1v1h-1v3h1v1h1v1h2V4z"/></g><path d="M14 22v3h2v-3h-2z" fill="#a0a0a0"/><path d="M15 22v3h1v-3h-1z" fill="#e6e6e6"/><path d="M3 22v3H1v-3h2z" fill="#a0a0a0"/><path d="M2 22v3H1v-3h1z" fill="#e6e6e6"/><g fill="#4309d7"><path d="M5 19v1h2v-1H5z"/><path d="M4 20h1v1H4z"/><path d="M5 21h1v1H5zm6 0h1v1h-1z"/><path d="M12 20h1v1h-1z"/><path d="M11 19h-1v1h2v-1h-1z"/></g><path d="M4 18h1v1H4zm-2 1h1v1H2zm1 2h1v1H3zm5-2H7v1h3v-1H8zm0 2h1v1H8zm6-2h1v1h-1zm-1 2h1v1h-1zm-1-3h1v1h-1z" fill="#ff09d7"/></svg></g></svg>