<svg xmlns="http://www.w3.org/2000/svg" viewBox="0 0 64 64"><g class="gotchi-bg"><defs fill="#fff"><pattern id="a" patternUnits="userSpaceOnUse" width="4" height="4"><path d="M0 0h1v1H0zm2 2h1v1H2z"/></pattern><pattern id="b" patternUnits="userSpaceOnUse" x="0" y="0" width="2" height="2"><path d="M0 0h1v1H0z"/></pattern><pattern id="c" patternUnits="userSpaceOnUse" x="-2" y="0" width="8" height="1"><path d="M0 0h1v1H0zm2 0h1v1H2zm2 0h1v1H4z"/></pattern><pattern id="d" patternUnits="userSpaceOnUse" x="0" y="0" width="4" height="4"><path d="M0 0h1v1H0zm0 2h1v1H0zm1 0V1h1v1zm1 0h1v1H2zm0-1h1V0H2zm1 2h1v1H3z"/></pattern><pattern id="e" patternUnits="userSpaceOnUse" width="64" height="32"><path d="M4 4h1v1H4zm7 0h1v1h-1zm7 0h1v1h-1zm7 0h1v1h-1zm7 0h1v1h-1zm7 0h1v1h-1zm7 0h1v1h-1zm7 0h1v1h-1zm7 0h1v1h-1z"/><path fill="url(#a)" d="M0 8h64v7H0z"/><path fill="url(#b)" d="M0 16h64v1H0z"/><path fill="url(#c)" d="M0 18h64v1H0z"/><path fill="url(#b)" d="M22 18h15v1H22zM0 20h64v3H0z"/><path fill="url(#d)" d="M0 24h64v8H0z"/></pattern><mask id="f"><path fill="url(#e)" d="M0 0h64v32H0z"/></mask></defs><path fill="#fff" d="M0 0h64v32H0z"/><path fill="#dea8ff" class="gotchi-secondary" mask="url(#f)" d="M0 0h64v32H0z"/><path fill="#dea8ff" class="gotchi-secondary" d="M0 32h64v32H0z"/><path mask="url(#f)" fill="#fff" transform="matrix(1 0 0 -1 0 64)" d="M0 0h64v32H0z"/></g><style>.gotchi-primary{fill:#FF5E00;}.gotchi-secondary{fill:#FFCAA2;}.gotchi-cheek{fill:#F696C6;}.gotchi-eyeColor{fill:#5D24BF;}.gotchi-primary-mouth{fill:#FF5E00;}.gotchi-sleeves-up{display:none;}.gotchi-handsUp{display:none;}.gotchi-handsDownOpen{display:block;}.gotchi-handsDownClosed{display:none;}</style><g class="gotchi-body"><path d="M47 14v-2h-2v-2h-4V8h-4V6H27v2h-4v2h-4v2h-2v2h-2v41h4v-2h5v2h5v-2h6v2h5v-2h5v2h4V14z" class="gotchi-primary"/><path d="M45 14v-2h-4v-2h-4V8H27v2h-4v2h-4v2h-2v39h2v-2h5v2h5v-2h6v2h5v-2h5v2h2V14z" class="gotchi-secondary"/><path d="M18,49h2v-1h2v1h2v2h5v-2h2v-1h2v1h2v2h5v-2h2v-1h2v1h1V14h-4v-2h-4v-2h-5V9h-5v2h-4v2h-4v2h-1V49z" fill="#fff"/></g><path class="gotchi-cheek" d="M21 32v2h2v-2h-1zm21 0h-1v2h2v-2z"/><g class="gotchi-primary-mouth"><path d="M29 32h-2v2h2v-1z"/><path d="M33 34h-4v2h6v-2h-1z"/><path d="M36 32h-1v2h2v-2z"/></g>
    <style>
        .gotchi-bg { display: none }
    </style>
<g class="gotchi-shadow"><path opacity=".25" d="M25 58H19v1h1v1h24V59h1V58h-1z" fill="#000"/></g>,<g class="gotchi-collateral"><path d="M30 11v1h4v-1h-4z"/><path d="M29 12h1v1h-1zm7.5 2.5v4h1v-4h-1zm-10 4h1v-4h-1v4z"/><path d="M27.5 13.5h1v1h-1zm8 5h1v1h-1zm0-5h1v1h-1zM34 12h1v1h-1zm-5 8h1v1h-1zm-1.5-1.5h1v1h-1zM34 20h1v1h-1z"/><path d="M30 21v1h4v-1h-4z"/><g fill="#ff5e00"><path d="M32.5 16h-1v-1h2v-1h-1v-1h-1v1h-2v1h1v3h-1v1h2v1h1v-1h1v-1h-2v-1h2v-1h-1z"/><path d="M33.5 17h1v1h-1zm0-2h1v1h-1z"/></g></g><g class="gotchi-eyeColor"><rect x="22" y="28" width="6" height="6" transform="rotate(-90 22 28)" /><rect x="36" y="22" width="6" height="6" /></g><g class="gotchi-wearable wearable-body"><svg x="15" y="33"><path d="M26 5v1h-2v1h-2 0-1v1h-2v1h-4V8h-2V7h-1 0-2V6H8V5H7V4H6V3H5V2H4V1H3V0H0v22h4v-2h5v2h5v-2h6v2h5v-2h5v2h4V0h-3v1h-1v1h-1v1h-1v1h-1v1h-1z"/><path d="M32 1v19h1V1h-1zm-3 3h-1v1h-1v1h-1v1h-2v1h-2 0-1v1h-2v1h-4V9h-2V8h-1 0-2V7H8V6H7V5H6V4H5V3H4v16h6v1h3v-1h8v1h3v-1h6v-2h-5v-1h5V3h-1v1zM1 20h1V1H1v19z" fill="red"/><path d="M18 15.5v1h2v-1h-2zm-3-2h-1v1h2v-2h-1v1zm5-1h1v1h-1v-1z"/><path d="M18 11.5v1h2v-1h-2zm0 2v1h2v-1h-2zm-5-2v1h2v-1h-2zm0 5h3v-1h-2v-1h-1v2z"/><path d="M20 14.5h1v1h-1v-1z"/><path d="M32 20h1v1h-1v-1zm-2 0h1V2h-1v18zm-9 0v1h3v-1h-3zM1 20h1v1H1v-1zm2 0h1V2H3v18zm7 0v1h3v-1h-3z" fill="#fff"/></svg></g><g class="gotchi-handsDownClosed"><g class="gotchi-primary"><path d="M19 42h1v1h-1zm1-6h1v1h-1z"/><path d="M21 37h1v1h-1zm5 3v4h1v-4zm-5 3h-1v1h2v-1z"/><path d="M24 44h-2v1h4v-1h-1zm1-5h-1v1h2v-1z"/><path d="M23 38h-1v1h2v-1z"/></g><g class="gotchi-secondary"><path d="M19 43h1v1h-1zm5 2h-2v1h4v-1h-1z"/><path d="M27 41v3h1v-3zm-6 3h-1v1h2v-1z"/><path d="M26 44h1v1h-1zm-7-3h-1v2h1v-1z"/></g><g class="gotchi-primary"><path d="M44 42h1v1h-1zm-1-6h1v1h-1z"/><path d="M42 37h1v1h-1z"/><path d="M42 39v-1h-2v1h1zm0 4v1h2v-1h-1z"/><path d="M40 44h-2v1h4v-1h-1z"/><path d="M38 42v-2h-1v4h1v-1z"/><path d="M40 40v-1h-2v1h1z"/></g><g class="gotchi-secondary"><path d="M42 44v1h2v-1h-1zm-5-2v-1h-1v3h1v-1z"/><path d="M40 45h-2v1h4v-1h-1z"/><path d="M37 44h1v1h-1zm7-1h1v1h-1z"/></g></g><g class="gotchi-handsDownOpen"><g class="gotchi-primary"><path d="M56 38v-1h-2v-1h-2v-1h-1v-1h-1v-1h-1v8h1v1h2v1h4v-1h1v-4z"/></g><g class="gotchi-secondary"><path d="M54 38v-1h-2v-1h-1v-1h-1v-1h-1v6h1v1h2v1h4v-4z" /></g><path d="M54,38v-1h-2v-1h-1v-1h-1v-1h-1v5h1v1h2v1h4v-3H54z" fill="#fff"/><g class="gotchi-primary"><path d="M8 38v-1h2v-1h2v-1h1v-1h1v-1h1v8h-1v1h-2v1H8v-1H7v-4z"/></g><g class="gotchi-secondary"><path d="M10 38v-1h2v-1h1v-1h1v-1h1v6h-1v1h-2v1H8v-4z" /></g><path d="M8,38v3h4v-1h2v-1h1v-5h-1v1h-1v1h-1v1h-2v1H8z" fill="#fff"/></g><g class="gotchi-handsUp"><g class="gotchi-secondary"><path d="M50,38h1v1h-1V38z"/><path d="M49 39h1v1h-1v-1zm2-2h1v1h-1v-1z"/><path d="M52,36h2v1h-2V36z"/><path d="M54,35h2v1h-2V35z"/></g><path d="M52,32v1h-2v1h-1v5h1v-1h1v-1h1v-1h2v-1h2v-3H52z" fill="#fff"/><g class="gotchi-primary"><path d="M49,33h1v1h-1V33z"/><path d="M50 32h2v1h-2v-1zm0 7h1v1h-1v-1z"/><path d="M49 40h1v1h-1v-1zm2-2h1v1h-1v-1z"/><path d="M52 37h2v1h-2v-1zm0-6h4v1h-4v-1z"/><path d="M56,32h1v4h-1V32z"/><path d="M54,36h2v1h-2V36z"/></g><g class="gotchi-secondary"><path d="M13,38h1v1h-1V38z"/><path d="M14 39h1v1h-1v-1zm-2-2h1v1h-1v-1z"/><path d="M10,36h2v1h-2V36z"/><path d="M8,35h2v1H8V35z"/></g><path d="M8,32v3h2v1h2v1h1v1h1v1h1v-5h-1v-1h-2v-1H8z" fill="#fff"/><g class="gotchi-primary"><path d="M14,33h1v1h-1V33z"/><path d="M12 32h2v1h-2v-1zm1 7h1v1h-1v-1z"/><path d="M14 40h1v1h-1v-1zm-2-2h1v1h-1v-1z"/><path d="M10 37h2v1h-2v-1zm-2-6h4v1H8v-1z"/><path d="M7,32h1v4H7V32z"/><path d="M8,36h2v1H8V36z"/></g></g><g class="gotchi-wearable wearable-face"><svg x="9" y="18"><path d="M5 2H4V0H0v6h2v4h2v2h2V2z" fill="#64438e"/><path d="M5 4H4V2H2v4h2v4h2V4z" fill="#b464ed"/><g fill="#edd3fd"><path d="M4 4H2v2h2V5z"/><path d="M5 6H4v4h2V6z"/></g><path d="M41 2h1V0h4v6h-2v4h-2v2h-2V2z" fill="#64438e"/><path d="M41 4h1V2h2v4h-2v4h-2V4z" fill="#b464ed"/><g fill="#edd3fd"><path d="M42 4h2v2h-2V5z"/><path d="M41 6h1v4h-2V6z"/></g></svg></g><g class="gotchi-wearable wearable-eyes"><svg x="15" y="22"><path d="M32,0H2v2H0v4h2v2h30V6h2V2h-2V0z" fill="#c8c8c8"/><path d="M2,2h30v4H2V2z"/><path d="M26,2v4h2V2H26z" fill="#c260ff"/></svg></g><g class="gotchi-wearable wearable-head"><svg x="11" y="0"><path d="M42 14v-4h-2V8h-2V6h-2V4h-2V2h-4V0H18v2h-4v2h-2v2h-2v2H8v2H6v4H4v4H2v2H0v2h42v-2h-2v-2h-2v-4h-2v-2h-2v-2h4v2h2v2z" fill="#3a2b77"/><g fill="#b135ff"><path d="M4 18v2h34v-2H4zm32-2v-2h-4v-2h-2v-2h2V8h4V6h-2V4h-4V2H18v2h-4v2h-2v2h-2v2H8v4H6v2h30z"/><path d="M20 15.9h3V18h-3z"/></g><path d="M25 9V8h-1V7h-1V5h-1V4h-1v1h-1v2h-1v1h-1v1h-1v1h1v1h1v1h1v2h1v1h1v-1h1v-2h1v-1h1v-1h1V9z" fill="#47289b"/><path d="M20,11h3v1h-3V11z" fill="#cb5bff"/><path d="M22,8h2v1h-2V8z" fill="#6f16e2"/><g fill="#3a2b77"><path d="M22 10h1v1h-1v-1zm0-5h1v2h-1V5z"/><path d="M23 7h1v1h-1V7zm2 2h1v1h-1V9z"/><path d="M24 8h1v1h-1V8zm0 2h1v1h-1v-1zm-6-2h1v1h-1V8zm0 2h1v1h-1v-1zm2 4h1v-2h-1v2z"/><path d="M19,11h1v1h-1V11z"/></g><path d="M21,9h3v1h-3V9z" fill="#f37aff"/><path d="M22,7h1v2h-1V7z" fill="#5d24bf"/><g fill="#8000ff"><path d="M20 10h2v1h-2v-1zm2-3h1v1h-1V7z"/><path d="M21,11h1v3h-1V11z"/></g><g fill="#b135ff"><path d="M21,9h1v2h-1V9z"/><path d="M22,11h1v1h-1V11z"/><path d="M23,9h1v2h-1V9z"/></g><path d="M20 7v1h-1v2h3V7z" fill="#ffa3ff"/><path d="M20,8h1v2h-1V8z" fill="#ffc9ff"/><path d="M19 9.5h1V11h-1V9.5zm4-.5v1h2V9h-2z" fill="#cb5bff"/><path d="M21 5h1v5h-1z" fill="#fff"/><path d="M18 9h4v1h-4z" fill="#ffc9ff"/><path d="M20 9h1v1h-1z" fill="#fff"/><path d="M20 16h1v1h-1z" fill="#f37aff"/><path d="M20 17h1v1h-1z" fill="#ffc9ff"/><path d="M21 16h1v1h-1z" fill="#fff"/><path d="M21 17h1v1h-1z" fill="#5d24bf"/><path d="M22 16h1v1h-1z" fill="#8000ff"/><path d="M22 17h1v1h-1z" fill="#b135ff"/></svg></g><g class="gotchi-wearable wearable-hand wearable-hand-left"><svg x="6" y="22"><path d="M8 5V4H7V3H6V1H5V0H4v1H3v2H2v1H1v1H0v1h1v1h1v1h1v2h1v23h1V10h1V8h1V7h1V6h1V5z" fill="#47289b"/><path d="M3,7h3v1H3V7z" fill="#cb5bff"/><path d="M5,4h2v1H5V4z" fill="#6f16e2"/><g fill="#3a2b77"><path d="M5 6h1v1H5V6zm0-5h1v2H5V1z"/><path d="M6 3h1v1H6V3zm2 2h1v1H8V5z"/><path d="M7 4h1v1H7V4zm0 2h1v1H7V6zM1 4h1v1H1V4zm0 2h1v1H1V6zm2 4h1V8H3v2z"/><path d="M2,7h1v1H2V7z"/></g><path d="M4,5h3v1H4V5z" fill="#f37aff"/><path d="M5,3h1v2H5V3z" fill="#5d24bf"/><g fill="#8000ff"><path d="M3 6h2v1H3V6zm2-3h1v1H5V3z"/><path d="M4,7h1v3H4V7z"/></g><g fill="#b135ff"><path d="M4,5h1v2H4V5z"/><path d="M5,7h1v1H5V7z"/><path d="M6,5h1v2H6V5z"/></g><path d="M3 3v1H2v2h3V3z" fill="#ffa3ff"/><path d="M3,4h1v2H3V4z" fill="#ffc9ff"/><path d="M2 5.5h1V7H2V5.5zM6 5v1h2V5H6z" fill="#cb5bff"/><path d="M4 1h1v5H4z" fill="#fff"/><path d="M1 5h4v1H1z" fill="#ffc9ff"/><path d="M3 5h1v1H3z" fill="#fff"/></svg></g><g class="gotchi-wearable wearable-hand wearable-hand-right"><svg x="4" y="34"><g transform="scale(-1, 1) translate(-56, 0)"><path d="M0,10h6V0H0V10z"/><path d="M1,1v8h4V1H1z" fill="#b4ecff"/><path d="M1,2v7h4V2H1z" fill="#fff"/></g></svg></g><g class="gotchi-wearable wearable-pet"><svg x="39" y="36"><svg xmlns="http://www.w3.org/2000/svg" width="25" height="27" xmlns:v="https://vecta.io/nano"><path d="M24 12V7h-1V6h-1V5h-1V4h-3V2h-1V1h-1V0H9v1H8v1H7v2H4v1H3v1H2v1H1v4H0v5h1v1h1v1h2v2H3v2h1v1h1v2h1v2h12v-2h1v-2h1v-1h1v-2h-1v-1h3v-1h1v-3h1v-3h-1zM6 18h2v-1h1v-1h1v2h1v2H7v-1H6v-1zm12 2h-5v-2h1v-2h1v2h1v1h2v1z" fill="#134c4c"/><path d="M9 10H7v1H6v-1H4v1H3v-1H1v1H0v5h1v1h1v1h6v-1h1v-1h1v-5H9v-1zm15 2v-1h-2v-1h-1V9h-3v1h-1v1h-2v1h-1v3h1v3h1v1h3v-1h1v1h3v-1h1v-3h1v-3h-1z" fill="#1e6f50"/><path d="M10 16v2h1v2h2v-2h1v-2h-4z" fill="#0c2e44"/><path d="M3 20v2h1v1h1v2h1v2h12v-2h1v-2h1v-1h1v-2H3z" fill="#391f21"/><path d="M4 21v1h16v-1H4z" fill="#bf6f4a"/><path d="M6 23v2h1v1h10v-1h1v-2H6z" fill="#8a4836"/><g fill="#5d2c28"><path d="M17 23v2h1v-2h-1z"/><path d="M16 25h1v1h-1z"/></g><g fill="#fff"><path d="M16 11h1v-1h1V9h3v1h1v1h1V7h-1V6h-1V5h-3v1h-1V2h-1V1H9v1H8v4H7V5H4v1H3v1H2v3h1v1h1v-1h2v1h1v-1h2v1h1v4h4v-3h1v-1h1zm1-4v1h-1V7h-2v1h-1V7h1V6h2v1h1zM9 7V6h2v1h1v1h-1V7H9v1H8V7h1zm5 3v1h-3v-1h-1V9h1v1h3V9h1v1h-1z"/><path d="M7 11v1H6v-1H4v1H3v-1H1v5h1v1h6v-1h1v-5H7zm-3 2h1v1H3v-1h1zm1 3H4v-1h2v1H5zm3-2H6v-1h2v1zm13-2v-2h-3v2h-3v3h2v1h-1v2h3v-1h1v1h3v-2h-1v-1h2v-3h-3zm-2 1h1v1h-1v-1zm-2 0h1v1h-1v-1zm2 3h-1v-1h2v1h-1z"/></g><g fill="#d3fc7e"><path d="M9 1v1H8v3h1V3h1V2h2V1H9zM4 5v1h2V5H4z"/><path d="M3 6h1v1H3z"/><path d="M2 7h1v1H2zm16 3v2h1v-1h1v-1h-2zM1 11v3h1v-2h1v-1H1zm3 0h1v1H4zm3 0h1v1H7zm8 1v2h1v-1h1v-1h-2z"/></g></svg></svg></g></svg>