<svg xmlns="http://www.w3.org/2000/svg" viewBox="0 0 64 64"><g class="gotchi-bg"><defs fill="#fff"><pattern id="a" patternUnits="userSpaceOnUse" width="4" height="4"><path d="M0 0h1v1H0zm2 2h1v1H2z"/></pattern><pattern id="b" patternUnits="userSpaceOnUse" x="0" y="0" width="2" height="2"><path d="M0 0h1v1H0z"/></pattern><pattern id="c" patternUnits="userSpaceOnUse" x="-2" y="0" width="8" height="1"><path d="M0 0h1v1H0zm2 0h1v1H2zm2 0h1v1H4z"/></pattern><pattern id="d" patternUnits="userSpaceOnUse" x="0" y="0" width="4" height="4"><path d="M0 0h1v1H0zm0 2h1v1H0zm1 0V1h1v1zm1 0h1v1H2zm0-1h1V0H2zm1 2h1v1H3z"/></pattern><pattern id="e" patternUnits="userSpaceOnUse" width="64" height="32"><path d="M4 4h1v1H4zm7 0h1v1h-1zm7 0h1v1h-1zm7 0h1v1h-1zm7 0h1v1h-1zm7 0h1v1h-1zm7 0h1v1h-1zm7 0h1v1h-1zm7 0h1v1h-1z"/><path fill="url(#a)" d="M0 8h64v7H0z"/><path fill="url(#b)" d="M0 16h64v1H0z"/><path fill="url(#c)" d="M0 18h64v1H0z"/><path fill="url(#b)" d="M22 18h15v1H22zM0 20h64v3H0z"/><path fill="url(#d)" d="M0 24h64v8H0z"/></pattern><mask id="f"><path fill="url(#e)" d="M0 0h64v32H0z"/></mask></defs><path fill="#fff" d="M0 0h64v32H0z"/><path fill="#dea8ff" class="gotchi-secondary" mask="url(#f)" d="M0 0h64v32H0z"/><path fill="#dea8ff" class="gotchi-secondary" d="M0 32h64v32H0z"/><path mask="url(#f)" fill="#fff" transform="matrix(1 0 0 -1 0 64)" d="M0 0h64v32H0z"/></g><style>.gotchi-primary{fill:#B6509E;}.gotchi-secondary{fill:#CFEEF4;}.gotchi-cheek{fill:#F696C6;}.gotchi-eyeColor{fill:#0064FF;}.gotchi-primary-mouth{fill:#B6509E;}.gotchi-sleeves-up{display:none;}.gotchi-handsUp{display:none;}.gotchi-handsDownOpen{display:block;}.gotchi-handsDownClosed{display:none;}</style><g class="gotchi-body"><path d="M47 14v-2h-2v-2h-4V8h-4V6H27v2h-4v2h-4v2h-2v2h-2v41h4v-2h5v2h5v-2h6v2h5v-2h5v2h4V14z" class="gotchi-primary"/><path d="M45 14v-2h-4v-2h-4V8H27v2h-4v2h-4v2h-2v39h2v-2h5v2h5v-2h6v2h5v-2h5v2h2V14z" class="gotchi-secondary"/><path d="M18,49h2v-1h2v1h2v2h5v-2h2v-1h2v1h2v2h5v-2h2v-1h2v1h1V14h-4v-2h-4v-2h-5V9h-5v2h-4v2h-4v2h-1V49z" fill="#fff"/></g><path class="gotchi-cheek" d="M21 32v2h2v-2h-1zm21 0h-1v2h2v-2z"/><g class="gotchi-primary-mouth"><path d="M29 32h-2v2h2v-1z"/><path d="M33 34h-4v2h6v-2h-1z"/><path d="M36 32h-1v2h2v-2z"/></g>
    <style>
        .gotchi-bg { display: none }
    </style>
<g class="gotchi-shadow"><path opacity=".25" d="M25 58H19v1h1v1h24V59h1V58h-1z" fill="#000"/></g>,<g class="gotchi-collateral" fill="#a73796"><path d="M30.5 15h1v-2h-1z"/><path d="M31.5 12h1v1h-1z"/><path d="M33.5 13h-1v2h1zm-4 3h-2v1h1v2h1v-2h2v-1h-1v-1h-1z"/><path d="M34.5 15h-1v2h1z"/><path d="M35.5 17h-1v2h1zm-8 4h1v-2h-1z"/><path d="M35.5 19v2h1v-2z"/></g><g class="gotchi-eyeColor"><g><path d="M40 23v2h1v-2h-1z" /><path d="M39 24v-1h-2v2h1v1h2v-1h-1v-1zm-13 0v1h1v-2h-1v1z" /><path d="M25 24v-1h-2v2h1v1h2v-1h-1v-1z" /></g><g class="gotchi-primary"><path d="M35 23h-1v1h1v-1zm0 2h-1v1h1v-1zm9-2h-1v1h1v-1z" /><path d="M45 24h-1v1h1v-1zm-8-1h6v-1h-8v1h2z" /><path d="M34 24h-1v1h1v-1zm10 1h-1v1h1v-1z" /><path d="M41 26h-6v1h8v-1h-2zm-20-3h-1v1h1v-1zm0 2h-1v1h1v-1zm9-2h-1v1h1v-1z" /><path d="M31 24h-1v1h1v-1zm-8-1h6v-1h-8v1h2z" /><path d="M20 24h-1v1h1v-1zm10 1h-1v1h1v-1z" /><path d="M27 26h-6v1h8v-1h-2z" /></g></g><g class="gotchi-wearable wearable-body"><svg x="10" y="30"><path d="M39 4h-2v1h-1v1h-1v1h-1v2h-2v1H12V9h-1V8h-1V7H9V6H8V5H7V4H5v21h4v-2h5v2h5v-2h6v2h5v-2h5v2h4V4z" fill="#3c0055"/><path d="M18 11v1h-1v-2h1V9h-6v2h-1V9h1V8h-1V7h-1v2H9V7h1V6H9V5H8V4H7V3H5v8h2v2h2v2h8v-2h2v-3h-1v1zm-5-1h1v2h-1v-2zM6 6V5h1v2H6V6zm1 3V8h1v2H7V9zm2 2v-1h1v2H9v-1zm2 3v-2h1v2h-1zm2 0v-1h1v1h-1zm2-1v-2h1v2h-1zM37 3v1h-1v1h-1v1h-1v1h1v2h-1V7h-1v1h-1v1h1v2h-1V9h-6v1h1v2h-1v-2h-1v3h2v2h8v-2h2v-2h2V3h-2zm-6 7v2h-1v-2h1zm-3 2v-1h1v2h-1v-1zm2 2v-1h1v1h-1zm2 0v-2h1v2h-1zm2-2v-2h1v2h-1zm2-2V8h1v2h-1zm2-4v1h-1V5h1v1z" fill="#fff"/><path d="M10 8V7H9v2h1V8zm25 0V7h-1v2h1V8zm-19 4v-1h-1v2h1v-1zm1-1v1h1v-2h-1v1zm12 1v-1h-1v2h1v-1zM7 6V5H6v2h1V6zm0 3v1h1V8H7v1zm26 4v-1h-1v2h1v-1zm-21 0v-1h-1v2h1v-1zm0-3V9h-1v2h1v-1zm2 1v-1h-1v2h1v-1zm23-5v1h1V5h-1v1zm-4 4V9h-1v2h1v-1zm-2 1v-1h-1v2h1v-1zm-4 0v-1h-1v2h1v-1zm10-2V8h-1v2h1V9zm-27 2v-1H9v2h1v-1zm3 2h1v1h-1v-1zm17 0h1v1h-1v-1zm5-2v-1h-1v2h1v-1zm2 3h-1v1h-1v1h-8v7h3v-2h5v2h3V13h-1v1zm-22 2H9v-1H8v-1H7v-1H6v10h3v-2h5v2h3v-7h-2z" fill="#5f0087"/><path d="M43 24v-2h-1v-4h-1v-4h-1v-3h-1v14h5v-1h-1zM4 12v2H3v4H2v4H1v2H0v1h5V11H4v1zm36-9V0h-1v1h-1v1h-1v1h3zM6 1H5V0H4v3h3V2H6V1z" fill="#ffc03c"/><path d="M39 25h1V11h-1v14zm4-1h1v1h-1v-1zm-2-5v6h1v-7h-1v1zM4 12v13h1V11H4v1zM39 1v2h1V0h-1v1zM4 3h1V0H4v3zM0 24h1v1H0v-1zm2-5v6h1v-7H2v1z" fill="#ff9e00"/><path d="M24,10h-5v3h6v-3H24z" fill="#00c8ff"/><path d="M26 13h-9v4h10v-4h-1zm-1 6h-8v6h2v-2h6v2h2v-6h-2z" fill="#ffc03c"/><path d="M26,17h-9v2h10v-2H26z" fill="#400"/><defs /></svg></g><g class="gotchi-handsDownClosed"><g class="gotchi-primary"><path d="M19 42h1v1h-1zm1-6h1v1h-1z"/><path d="M21 37h1v1h-1zm5 3v4h1v-4zm-5 3h-1v1h2v-1z"/><path d="M24 44h-2v1h4v-1h-1zm1-5h-1v1h2v-1z"/><path d="M23 38h-1v1h2v-1z"/></g><g class="gotchi-secondary"><path d="M19 43h1v1h-1zm5 2h-2v1h4v-1h-1z"/><path d="M27 41v3h1v-3zm-6 3h-1v1h2v-1z"/><path d="M26 44h1v1h-1zm-7-3h-1v2h1v-1z"/></g><g class="gotchi-primary"><path d="M44 42h1v1h-1zm-1-6h1v1h-1z"/><path d="M42 37h1v1h-1z"/><path d="M42 39v-1h-2v1h1zm0 4v1h2v-1h-1z"/><path d="M40 44h-2v1h4v-1h-1z"/><path d="M38 42v-2h-1v4h1v-1z"/><path d="M40 40v-1h-2v1h1z"/></g><g class="gotchi-secondary"><path d="M42 44v1h2v-1h-1zm-5-2v-1h-1v3h1v-1z"/><path d="M40 45h-2v1h4v-1h-1z"/><path d="M37 44h1v1h-1zm7-1h1v1h-1z"/></g></g><g class="gotchi-handsDownOpen"><g class="gotchi-primary"><path d="M56 38v-1h-2v-1h-2v-1h-1v-1h-1v-1h-1v8h1v1h2v1h4v-1h1v-4z"/></g><g class="gotchi-secondary"><path d="M54 38v-1h-2v-1h-1v-1h-1v-1h-1v6h1v1h2v1h4v-4z" /></g><path d="M54,38v-1h-2v-1h-1v-1h-1v-1h-1v5h1v1h2v1h4v-3H54z" fill="#fff"/><g class="gotchi-primary"><path d="M8 38v-1h2v-1h2v-1h1v-1h1v-1h1v8h-1v1h-2v1H8v-1H7v-4z"/></g><g class="gotchi-secondary"><path d="M10 38v-1h2v-1h1v-1h1v-1h1v6h-1v1h-2v1H8v-4z" /></g><path d="M8,38v3h4v-1h2v-1h1v-5h-1v1h-1v1h-1v1h-2v1H8z" fill="#fff"/></g><g class="gotchi-handsUp"><g class="gotchi-secondary"><path d="M50,38h1v1h-1V38z"/><path d="M49 39h1v1h-1v-1zm2-2h1v1h-1v-1z"/><path d="M52,36h2v1h-2V36z"/><path d="M54,35h2v1h-2V35z"/></g><path d="M52,32v1h-2v1h-1v5h1v-1h1v-1h1v-1h2v-1h2v-3H52z" fill="#fff"/><g class="gotchi-primary"><path d="M49,33h1v1h-1V33z"/><path d="M50 32h2v1h-2v-1zm0 7h1v1h-1v-1z"/><path d="M49 40h1v1h-1v-1zm2-2h1v1h-1v-1z"/><path d="M52 37h2v1h-2v-1zm0-6h4v1h-4v-1z"/><path d="M56,32h1v4h-1V32z"/><path d="M54,36h2v1h-2V36z"/></g><g class="gotchi-secondary"><path d="M13,38h1v1h-1V38z"/><path d="M14 39h1v1h-1v-1zm-2-2h1v1h-1v-1z"/><path d="M10,36h2v1h-2V36z"/><path d="M8,35h2v1H8V35z"/></g><path d="M8,32v3h2v1h2v1h1v1h1v1h1v-5h-1v-1h-2v-1H8z" fill="#fff"/><g class="gotchi-primary"><path d="M14,33h1v1h-1V33z"/><path d="M12 32h2v1h-2v-1zm1 7h1v1h-1v-1z"/><path d="M14 40h1v1h-1v-1zm-2-2h1v1h-1v-1z"/><path d="M10 37h2v1h-2v-1zm-2-6h4v1H8v-1z"/><path d="M7,32h1v4H7V32z"/><path d="M8,36h2v1H8V36z"/></g></g><g class="gotchi-wearable wearable-face"><svg x="15" y="21"><path fill="#773e1d" d="M11 14h-1v-1H9v-1H8v-1H6v-1H5V9H4V8H3V0H0v12h2v1h1v1h1v1h2v1h2v1h4v-2h-1v-1zm7 2h-4v1h1v1h1v1h2v-1h1v-1h1v-1h-2zM31 0v8h-1v1h-1v1h-1v1h-2v1h-1v1h-1v1h-1v1h-1v2h4v-1h2v-1h2v-1h1v-1h1v-1h2V0h-3z"/></svg></g><g class="gotchi-wearable wearable-eyes"><svg x="14" y="5"><path d="M35,13v-2h-2V9H21V0h-6v9H3v2H1v2H0v7h1v2h2v2h2v2h10v-2h6v2h10v-2h2v-2h2v-2h1v-7H35z"/><path d="M3,11v11h2v2h10v-2h6v2h10v-2h2V11H3z" fill="#ff0097"/><path d="M5,13v9h10v-2h6v2h10v-9H5z" fill="#ff14ff"/><path d="M7 11h2v13H7V11zm20 0h2v13h-2V11zm-2 0h1v13h-1V11zm-15 0h1v13h-1V11z" opacity=".8" fill="#fff" enable-background="new"/></svg></g><g class="gotchi-wearable wearable-head"><svg x="7" y="0"><path d="M46 4V2h-2V0H30v2h-8v2h-4V2h-4v6H8v2H4v2H2v2H0v4h2v2h2v2h4v-2h2v-2h6v-2h9v-2h13v2h2v2h2v-2h2v-2h2v-4h2V4h-2z"/><path d="M44 4V2H30v2h-8v2h-2v2h-6v2H8v2H4v2H2v4h2v2h4v-2h2v-2h6v-2h9v-2h13v2h2v2h2v-2h2v-4h2V4h-2zM18 6V4h-2v2h2z" fill="#d200c8"/><path d="M42 4V2H30v2h-8v2h-2v2h-6v2H8v2H4v2H2v2h2v2h4v-2h2v-2h6v-2h9v-2h13v2h2v-2h2V8h2V4h-2z" fill="#f0f"/><g fill="#ff87ff"><path d="M30 2v2h12V2H30z"/><path d="M22 4v2h8V4h-8z"/><path d="M20 6v2h2V6h-2z"/><path d="M14 8v2h6V8h-6z"/><path d="M8 10v2h6v-2H8z"/><path d="M4 12v2h4v-2H4z"/><path d="M2 14v2h2v-2H2z"/></g><path d="M39 5V4h-1V3h-4v1h-1v1h-1v6h2v-1h1v1h2v-1h1v1h2V5h-1z"/><path d="M38 5V4h-4v1h-1v5h1V9h1v1h2V9h1v1h1V5h-1z" fill="#0f0"/><path d="M33 5v4h6V5h-6z" fill="#0ff"/><path d="M33 5v3h6V5h-6z" fill="#ff0"/><path d="M33 6v2h6V6h-6z" fill="#f0f"/><path d="M33 7v1h6V7h-6z" fill="#7d00ff"/></svg></g>"><svg x="10" y="30"><g><g class="gotchi-sleeves gotchi-sleeves-left gotchi-sleeves-up"><path d="M39.5 11h-1V3h1v8z" fill="#fff"/><path d="M39 11h1v-1h1V9h1V2h-2v1h-1v8z" fill="#3c0055"/><path d="M41,9h-1V3h1V9z" fill="#5f0087"/></g><g class="gotchi-sleeves gotchi-sleeves-left gotchi-sleeves-down"><path d="M39.5 11h-1V3h1v8z" fill="#fff"/><path d="M39 11h1v1h2V5h-1V4h-1V3h-1v8z" fill="#3c0055"/><path d="M41 11h-1V5h1v6z" fill="#5f0087"/></g><g class="gotchi-sleeves gotchi-sleeves-right gotchi-sleeves-up"><path d="M4.5,3h1v8h-1V3z" fill="#fff"/><path d="M5,3H4V2H2v7h1v1h1v1h1V3z" fill="#3c0055"/><path d="M3,3h1v6H3V3z" fill="#5f0087"/></g><g class="gotchi-sleeves gotchi-sleeves-right gotchi-sleeves-down"><path d="M4.5,3h1v8h-1V3z" fill="#fff"/><path d="M5,3H4v1H3v1H2v7h2v-1h1V3z" fill="#3c0055"/><path d="M3,5h1v6H3V5z" fill="#5f0087"/></g></g>,</svg><g class="gotchi-wearable wearable-hand wearable-hand-left"><svg x="6" y="22"><path d="M3 2V1H2V0H0v1h1v4h1v24h2V2H3z"/><path d="M2 2v3h1V2H2z" fill="#1b1b1b"/><path d="M2 6v1h2V6H2z" fill="#d7d7d7"/><path d="M2 7v22h2V7H2z" fill="#7d4100"/><g fill="#2a2a2a"><path d="M2 5h1v1H2z"/><path d="M2 1H1v4h1V1z"/></g><path d="M2 6h1v1H2z" fill="#ededed"/><path d="M2 7v22h1V7H2z" fill="#976733"/></svg></g><g class="gotchi-wearable wearable-hand wearable-hand-right"><svg x="7" y="19"><g transform="scale(-1, 1) translate(-50, 0)"><path d="M4 18v-1H3v-1H0v8h1v1h1v1h1v1h2v-9H4zm0 6H3v-1H2v-1H1v-4h1v1h1v1h1v4z" fill="#ffd400"/><path d="M2,17h1v1H2V17z" fill="#494949"/><g fill="#fc0000"><path d="M1,23h1v1H1V23z"/><path d="M2,24h1v1H2V24z"/><path d="M3,25h1v1H3V25z"/></g><g fill="#494949"><path d="M3,18h1v1H3V18z"/><path d="M4,2V1H3V0H1v1H0v1h1v1H0v1h1v1H0v1h1v1H0v1h1v1H0v1h1v1H0v1h1v1H0v1h1v1H0v1h3v1h1v1h1V2H4z"/></g></g></svg></g><g class="gotchi-wearable wearable-pet"><svg x="42" y="43"><path d="M19 2V1h-1V0h-5v1h-1v1H8V1H7V0H2v1H1v1H0v2h1v1h1v1H1v3h1v1h1v1H2v1H1v2h1v1H1v2h4v1h3v-1h1v-1h2v1h1v1h3v-1h4v-2h-1v-1h1v-2h-1v-1h-1v-1h1V9h1V6h-1V5h1V4h1V2h-1z"/><path d="M18 3h-1v1h-3V3h-2v1h1v1h5V4h1V3h-1zM6 3v1H3V3H1v1h1v1h5V4h1V3H6z" fill="#fff"/><g fill="#ffc36b"><path d="M17 1h-4v1h5V1h-1zm-7 4h2V4h-1V3H9v1H8v1h2zM4 2h3V1H2v1h2zm5 11v2h2v-2H9z"/><path d="M16 12v-2H4v2H2v2h2v1H2v1h3v-3h1v3H5v1h3v-4h1v-1h2v1h1v4h3v-1h-1v-3h1v3h3v-1h-2v-1h2v-2h-2z"/></g><path d="M17 6H2v3h16V6h-1zm0 2H3V7h14v1z" fill="#ef1e26"/><defs /></svg></g></svg>