<svg xmlns="http://www.w3.org/2000/svg" viewBox="0 0 64 64"><g class="gotchi-bg"><defs fill="#fff"><pattern id="a" patternUnits="userSpaceOnUse" width="4" height="4"><path d="M0 0h1v1H0zm2 2h1v1H2z"/></pattern><pattern id="b" patternUnits="userSpaceOnUse" x="0" y="0" width="2" height="2"><path d="M0 0h1v1H0z"/></pattern><pattern id="c" patternUnits="userSpaceOnUse" x="-2" y="0" width="8" height="1"><path d="M0 0h1v1H0zm2 0h1v1H2zm2 0h1v1H4z"/></pattern><pattern id="d" patternUnits="userSpaceOnUse" x="0" y="0" width="4" height="4"><path d="M0 0h1v1H0zm0 2h1v1H0zm1 0V1h1v1zm1 0h1v1H2zm0-1h1V0H2zm1 2h1v1H3z"/></pattern><pattern id="e" patternUnits="userSpaceOnUse" width="64" height="32"><path d="M4 4h1v1H4zm7 0h1v1h-1zm7 0h1v1h-1zm7 0h1v1h-1zm7 0h1v1h-1zm7 0h1v1h-1zm7 0h1v1h-1zm7 0h1v1h-1zm7 0h1v1h-1z"/><path fill="url(#a)" d="M0 8h64v7H0z"/><path fill="url(#b)" d="M0 16h64v1H0z"/><path fill="url(#c)" d="M0 18h64v1H0z"/><path fill="url(#b)" d="M22 18h15v1H22zM0 20h64v3H0z"/><path fill="url(#d)" d="M0 24h64v8H0z"/></pattern><mask id="f"><path fill="url(#e)" d="M0 0h64v32H0z"/></mask></defs><path fill="#fff" d="M0 0h64v32H0z"/><path fill="#dea8ff" class="gotchi-secondary" mask="url(#f)" d="M0 0h64v32H0z"/><path fill="#dea8ff" class="gotchi-secondary" d="M0 32h64v32H0z"/><path mask="url(#f)" fill="#fff" transform="matrix(1 0 0 -1 0 64)" d="M0 0h64v32H0z"/></g><style>.gotchi-primary{fill:#B6509E;}.gotchi-secondary{fill:#CFEEF4;}.gotchi-cheek{fill:#F696C6;}.gotchi-eyeColor{fill:#FF00FF;}.gotchi-primary-mouth{fill:#B6509E;}.gotchi-sleeves-up{display:none;}.gotchi-handsUp{display:none;}.gotchi-handsDownOpen{display:block;}.gotchi-handsDownClosed{display:none;}</style><g class="gotchi-body"><path d="M47 14v-2h-2v-2h-4V8h-4V6H27v2h-4v2h-4v2h-2v2h-2v41h4v-2h5v2h5v-2h6v2h5v-2h5v2h4V14z" class="gotchi-primary"/><path d="M45 14v-2h-4v-2h-4V8H27v2h-4v2h-4v2h-2v39h2v-2h5v2h5v-2h6v2h5v-2h5v2h2V14z" class="gotchi-secondary"/><path d="M18,49h2v-1h2v1h2v2h5v-2h2v-1h2v1h2v2h5v-2h2v-1h2v1h1V14h-4v-2h-4v-2h-5V9h-5v2h-4v2h-4v2h-1V49z" fill="#fff"/></g><path class="gotchi-cheek" d="M21 32v2h2v-2h-1zm21 0h-1v2h2v-2z"/><g class="gotchi-primary-mouth"><path d="M29 32h-2v2h2v-1z"/><path d="M33 34h-4v2h6v-2h-1z"/><path d="M36 32h-1v2h2v-2z"/></g><g class="gotchi-shadow"><path opacity=".25" d="M25 58H19v1h1v1h24V59h1V58h-1z" fill="#000"/></g>,<g class="gotchi-collateral" fill="#a73796"><path d="M30.5 15h1v-2h-1z"/><path d="M31.5 12h1v1h-1z"/><path d="M33.5 13h-1v2h1zm-4 3h-2v1h1v2h1v-2h2v-1h-1v-1h-1z"/><path d="M34.5 15h-1v2h1z"/><path d="M35.5 17h-1v2h1zm-8 4h1v-2h-1z"/><path d="M35.5 19v2h1v-2z"/></g>
    <style>
        .gotchi-bg { display: none }
    </style>
<g class="gotchi-eyeColor"><path d="M27 23H26H25H24H23H22H21V24H22H23H24V25H23H22H21V26H22H23H24H25H26H27H28H29V25H28H27H26V24H27H28H29V23H28H27Z" class="gotchi-primary" /><path d="M41 24H42H43V23H42H41H40H39H38H37H36H35V24H36H37H38V25H37H36H35V26H36H37H38H39H40H41H42H43V25H42H41H40V24H41Z" class="gotchi-primary" /><rect x="24" y="24" width="2" height="1" /><rect x="38" y="24" width="2" height="1" /></g><g class="gotchi-wearable wearable-body"><svg x="10" y="30"><path d="M39 4h-2v1h-1v1h-1v1h-1v2h-2v1H12V9h-1V8h-1V7H9V6H8V5H7V4H5v21h4v-2h5v2h5v-2h6v2h5v-2h5v2h4V4z" fill="#3c0055"/><path d="M18 11v1h-1v-2h1V9h-6v2h-1V9h1V8h-1V7h-1v2H9V7h1V6H9V5H8V4H7V3H5v8h2v2h2v2h8v-2h2v-3h-1v1zm-5-1h1v2h-1v-2zM6 6V5h1v2H6V6zm1 3V8h1v2H7V9zm2 2v-1h1v2H9v-1zm2 3v-2h1v2h-1zm2 0v-1h1v1h-1zm2-1v-2h1v2h-1zM37 3v1h-1v1h-1v1h-1v1h1v2h-1V7h-1v1h-1v1h1v2h-1V9h-6v1h1v2h-1v-2h-1v3h2v2h8v-2h2v-2h2V3h-2zm-6 7v2h-1v-2h1zm-3 2v-1h1v2h-1v-1zm2 2v-1h1v1h-1zm2 0v-2h1v2h-1zm2-2v-2h1v2h-1zm2-2V8h1v2h-1zm2-4v1h-1V5h1v1z" fill="#fff"/><path d="M10 8V7H9v2h1V8zm25 0V7h-1v2h1V8zm-19 4v-1h-1v2h1v-1zm1-1v1h1v-2h-1v1zm12 1v-1h-1v2h1v-1zM7 6V5H6v2h1V6zm0 3v1h1V8H7v1zm26 4v-1h-1v2h1v-1zm-21 0v-1h-1v2h1v-1zm0-3V9h-1v2h1v-1zm2 1v-1h-1v2h1v-1zm23-5v1h1V5h-1v1zm-4 4V9h-1v2h1v-1zm-2 1v-1h-1v2h1v-1zm-4 0v-1h-1v2h1v-1zm10-2V8h-1v2h1V9zm-27 2v-1H9v2h1v-1zm3 2h1v1h-1v-1zm17 0h1v1h-1v-1zm5-2v-1h-1v2h1v-1zm2 3h-1v1h-1v1h-8v7h3v-2h5v2h3V13h-1v1zm-22 2H9v-1H8v-1H7v-1H6v10h3v-2h5v2h3v-7h-2z" fill="#5f0087"/><path d="M43 24v-2h-1v-4h-1v-4h-1v-3h-1v14h5v-1h-1zM4 12v2H3v4H2v4H1v2H0v1h5V11H4v1zm36-9V0h-1v1h-1v1h-1v1h3zM6 1H5V0H4v3h3V2H6V1z" fill="#ffc03c"/><path d="M39 25h1V11h-1v14zm4-1h1v1h-1v-1zm-2-5v6h1v-7h-1v1zM4 12v13h1V11H4v1zM39 1v2h1V0h-1v1zM4 3h1V0H4v3zM0 24h1v1H0v-1zm2-5v6h1v-7H2v1z" fill="#ff9e00"/><path d="M24,10h-5v3h6v-3H24z" fill="#00c8ff"/><path d="M26 13h-9v4h10v-4h-1zm-1 6h-8v6h2v-2h6v2h2v-6h-2z" fill="#ffc03c"/><path d="M26,17h-9v2h10v-2H26z" fill="#400"/><defs /></svg></g><g class="gotchi-handsDownClosed"><g class="gotchi-primary"><path d="M19 42h1v1h-1zm1-6h1v1h-1z"/><path d="M21 37h1v1h-1zm5 3v4h1v-4zm-5 3h-1v1h2v-1z"/><path d="M24 44h-2v1h4v-1h-1zm1-5h-1v1h2v-1z"/><path d="M23 38h-1v1h2v-1z"/></g><g class="gotchi-secondary"><path d="M19 43h1v1h-1zm5 2h-2v1h4v-1h-1z"/><path d="M27 41v3h1v-3zm-6 3h-1v1h2v-1z"/><path d="M26 44h1v1h-1zm-7-3h-1v2h1v-1z"/></g><g class="gotchi-primary"><path d="M44 42h1v1h-1zm-1-6h1v1h-1z"/><path d="M42 37h1v1h-1z"/><path d="M42 39v-1h-2v1h1zm0 4v1h2v-1h-1z"/><path d="M40 44h-2v1h4v-1h-1z"/><path d="M38 42v-2h-1v4h1v-1z"/><path d="M40 40v-1h-2v1h1z"/></g><g class="gotchi-secondary"><path d="M42 44v1h2v-1h-1zm-5-2v-1h-1v3h1v-1z"/><path d="M40 45h-2v1h4v-1h-1z"/><path d="M37 44h1v1h-1zm7-1h1v1h-1z"/></g></g><g class="gotchi-handsDownOpen"><g class="gotchi-primary"><path d="M56 38v-1h-2v-1h-2v-1h-1v-1h-1v-1h-1v8h1v1h2v1h4v-1h1v-4z"/></g><g class="gotchi-secondary"><path d="M54 38v-1h-2v-1h-1v-1h-1v-1h-1v6h1v1h2v1h4v-4z" /></g><path d="M54,38v-1h-2v-1h-1v-1h-1v-1h-1v5h1v1h2v1h4v-3H54z" fill="#fff"/><g class="gotchi-primary"><path d="M8 38v-1h2v-1h2v-1h1v-1h1v-1h1v8h-1v1h-2v1H8v-1H7v-4z"/></g><g class="gotchi-secondary"><path d="M10 38v-1h2v-1h1v-1h1v-1h1v6h-1v1h-2v1H8v-4z" /></g><path d="M8,38v3h4v-1h2v-1h1v-5h-1v1h-1v1h-1v1h-2v1H8z" fill="#fff"/></g><g class="gotchi-handsUp"><g class="gotchi-secondary"><path d="M50,38h1v1h-1V38z"/><path d="M49 39h1v1h-1v-1zm2-2h1v1h-1v-1z"/><path d="M52,36h2v1h-2V36z"/><path d="M54,35h2v1h-2V35z"/></g><path d="M52,32v1h-2v1h-1v5h1v-1h1v-1h1v-1h2v-1h2v-3H52z" fill="#fff"/><g class="gotchi-primary"><path d="M49,33h1v1h-1V33z"/><path d="M50 32h2v1h-2v-1zm0 7h1v1h-1v-1z"/><path d="M49 40h1v1h-1v-1zm2-2h1v1h-1v-1z"/><path d="M52 37h2v1h-2v-1zm0-6h4v1h-4v-1z"/><path d="M56,32h1v4h-1V32z"/><path d="M54,36h2v1h-2V36z"/></g><g class="gotchi-secondary"><path d="M13,38h1v1h-1V38z"/><path d="M14 39h1v1h-1v-1zm-2-2h1v1h-1v-1z"/><path d="M10,36h2v1h-2V36z"/><path d="M8,35h2v1H8V35z"/></g><path d="M8,32v3h2v1h2v1h1v1h1v1h1v-5h-1v-1h-2v-1H8z" fill="#fff"/><g class="gotchi-primary"><path d="M14,33h1v1h-1V33z"/><path d="M12 32h2v1h-2v-1zm1 7h1v1h-1v-1z"/><path d="M14 40h1v1h-1v-1zm-2-2h1v1h-1v-1z"/><path d="M10 37h2v1h-2v-1zm-2-6h4v1H8v-1z"/><path d="M7,32h1v4H7V32z"/><path d="M8,36h2v1H8V36z"/></g></g><g class="gotchi-wearable wearable-face"><svg x="22" y="32"><g fill="#0f0"><path d="M3 18h1v1H3zm-2 1h1v1H1zm-1 3h1v1H0zm16-4h1v1h-1z"/><path d="M18 19h1v1h-1zm-1 2h-1v-2h-1V1H5v18H4v2H3v1H2v1h16v-1h-1v-1zm2 1h1v1h-1z"/></g><path d="M6 1v22h1V1H6z" fill="#0ff"/><g fill="#007dff"><path d="M5 1v18H4v2H3v1H2v1h4V1H5z"/><path d="M3 18h1v1H3zm-2 1h1v1H1zm-1 3h1v1H0z"/></g><path d="M13 1v22h1V1h-1z" fill="#009600"/><path d="M8 1v22h1V1H8z" fill="#7d00ff"/><path d="M9 1v22h1V1H9z" fill="#7d0064"/><path d="M7 1v22h1V1H7z" fill="#32007d"/><path d="M10 1v22h1V1h-1z" fill="#f0f"/><path d="M11 1v22h1V1h-1z" fill="#ffc800"/><path d="M12 1v22h1V1h-1z" fill="#ff0"/><path d="M5 0v2h10V0H5z" fill="#64438e"/></svg></g><g class="gotchi-wearable wearable-eyes"><svg x="32" y="15"><path d="M16 2V1h-2V0H3v1H2v1H1v1H0v6h1v4h2v2h4v2h1v1h1v1h7v-1h1V2h-1z" fill="#0a040b"/><g fill="#323232"><path d="M14 2V1H3v1H2v1H1v6h2V7h8v2h2v1h2V9h1V2h-2z"/><path d="M3 9v4h8V9H3z"/><path d="M11 15H8v2h1v1h7v-5h-1v-1h-2v1h-2v2z"/></g><path d="M3 9v4h8V9H3z" fill="#af00ff"/><g fill="#646464"><path d="M14 2V1H3v1h10v1h1v7h1V2h-1z"/><path d="M2 2h1v1H2z"/><path d="M1 4v2h1V3H1v1zm13 9v4h1v-5h-1v1z"/></g><g fill="#0affff"><path d="M11 5H3v2h8V5z"/><path d="M1 7v2h2V7H1zm10 0v2h2V7h-2zm-2 8H8v2h3v-2H9z"/><path d="M11 13v2h2v-2h-2z"/></g><path d="M13 3V2H3v1H2v2h1V4h8v1h1v1h1v1h1V3h-1zm0 13h-1v1h2v-2h-1v1z" fill="#c5c8cf"/><path d="M3 10v2h8v-2H3z" fill="#f0f"/></svg></g><g class="gotchi-wearable wearable-head"><svg x="9" y="1"><path d="M6 12v2h1v1h1v1h1v1h1v1h1v1h3v1h18v-1h3v-1h1v-1h1v-1h1v-1h1v-1h1v-2z"/><path d="M4 12v-2H2V8H0V6h4V4h4V2h4V0h22v2h4v2h4v2h4v2h-2v2h-2v2z" fill="#fff"/><g fill="#c8c8c8"><path d="M1,7V6H0v2h2V7H1z"/><path d="M3,9V8H2v2h2V9H3z"/><path d="M5 10H4v2h2v-1H5v-1zm36 1h-1v1h2v-2h-1v1zm4-5v1h-1v1h2V6h-1z"/><path d="M43,9h-1v1h2V8h-1V9z"/></g><g fill="#2f2f2f"><path d="M10 17h1v1h-1v-1zm25 0h1v1h-1v-1z"/><path d="M11 18h1v1h-1v-1zm23 0h1v1h-1v-1zM8 15h1v1H8v-1z"/><path d="M7,14h1v1H7V14z"/><path d="M7 12H6v2h1v-2zm31 2h1v1h-1v-1z"/><path d="M39 12v2h1v-2h-1zm-2 3h1v1h-1v-1z"/><path d="M9 16h1v1H9v-1zm27 0h1v1h-1v-1z"/></g><path d="M27 4V3h-1V2h-1V1h-4v1h-1v1h-1v1h-1v4h1v1h1v1h1v1h4v-1h1V9h1V8h1V4h-1zm-3-1v1h1v1h1v2h-1v1h-1v1h-2V8h-1V7h-1V5h1V4h1V3h2z" fill="#0000b9"/><path d="M6,11v1h34v-1H6z" fill="orange"/></svg></g>"><svg x="10" y="30"><g><g class="gotchi-sleeves gotchi-sleeves-left gotchi-sleeves-up"><path d="M39.5 11h-1V3h1v8z" fill="#fff"/><path d="M39 11h1v-1h1V9h1V2h-2v1h-1v8z" fill="#3c0055"/><path d="M41,9h-1V3h1V9z" fill="#5f0087"/></g><g class="gotchi-sleeves gotchi-sleeves-left gotchi-sleeves-down"><path d="M39.5 11h-1V3h1v8z" fill="#fff"/><path d="M39 11h1v1h2V5h-1V4h-1V3h-1v8z" fill="#3c0055"/><path d="M41 11h-1V5h1v6z" fill="#5f0087"/></g><g class="gotchi-sleeves gotchi-sleeves-right gotchi-sleeves-up"><path d="M4.5,3h1v8h-1V3z" fill="#fff"/><path d="M5,3H4V2H2v7h1v1h1v1h1V3z" fill="#3c0055"/><path d="M3,3h1v6H3V3z" fill="#5f0087"/></g><g class="gotchi-sleeves gotchi-sleeves-right gotchi-sleeves-down"><path d="M4.5,3h1v8h-1V3z" fill="#fff"/><path d="M5,3H4v1H3v1H2v7h2v-1h1V3z" fill="#3c0055"/><path d="M3,5h1v6H3V5z" fill="#5f0087"/></g></g>,</svg><g class="gotchi-wearable wearable-hand wearable-hand-left"><svg x="6" y="22"><path d="M8 5V4H7V3H6V1H5V0H4v1H3v2H2v1H1v1H0v1h1v1h1v1h1v2h1v23h1V10h1V8h1V7h1V6h1V5z" fill="#47289b"/><path d="M3,7h3v1H3V7z" fill="#cb5bff"/><path d="M5,4h2v1H5V4z" fill="#6f16e2"/><g fill="#3a2b77"><path d="M5 6h1v1H5V6zm0-5h1v2H5V1z"/><path d="M6 3h1v1H6V3zm2 2h1v1H8V5z"/><path d="M7 4h1v1H7V4zm0 2h1v1H7V6zM1 4h1v1H1V4zm0 2h1v1H1V6zm2 4h1V8H3v2z"/><path d="M2,7h1v1H2V7z"/></g><path d="M4,5h3v1H4V5z" fill="#f37aff"/><path d="M5,3h1v2H5V3z" fill="#5d24bf"/><g fill="#8000ff"><path d="M3 6h2v1H3V6zm2-3h1v1H5V3z"/><path d="M4,7h1v3H4V7z"/></g><g fill="#b135ff"><path d="M4,5h1v2H4V5z"/><path d="M5,7h1v1H5V7z"/><path d="M6,5h1v2H6V5z"/></g><path d="M3 3v1H2v2h3V3z" fill="#ffa3ff"/><path d="M3,4h1v2H3V4z" fill="#ffc9ff"/><path d="M2 5.5h1V7H2V5.5zM6 5v1h2V5H6z" fill="#cb5bff"/><path d="M4 1h1v5H4z" fill="#fff"/><path d="M1 5h4v1H1z" fill="#ffc9ff"/><path d="M3 5h1v1H3z" fill="#fff"/></svg></g><g class="gotchi-wearable wearable-hand wearable-hand-right"><svg x="2" y="33"><g transform="scale(-1, 1) translate(-60, 0)"><path d="M12 0v1h-1v1h-1v1H7v1H6V3H2v1H1v1H0v4h1v1h1v1h3v-1h1v1h4v-1h2V9h1V0h-1z" fill="#0a040b"/><path d="M1 5v4h1V5H1z" fill="#0affff"/><path d="M12 1v1h-1v1h-1v1H7v1h1v1h1v1h4V1h-1z" fill="#323232"/><path d="M9 8V7H8V6H7V5H6v5h4V9h2V8H9z" fill="#c5c8cf"/><g fill="#646464"><path d="M3 4v6h2V4H3zm5 0h1v1H8zm4 2h1v1h-1zm-2 0h1v1h-1z"/><path d="M11 5h1v1h-1z"/><path d="M12 4h1v1h-1zm0-2h1v1h-1z"/><path d="M11 3h1v1h-1z"/><path d="M10 4h1v1h-1z"/><path d="M9 5h1v1H9z"/></g><path d="M8 7v3h1V7H8z" fill="#0affff"/><path d="M10 8h1v1h-1zM7 6v4h1V6H7z" fill="#646464"/><path d="M3 4v6h1V4H3z" fill="#c5c8cf"/></g></svg></g><g class="gotchi-wearable wearable-pet"><svg x="40" y="45"><path d="M12 3h1v1h-1V3zm8-2h1v1h-1V1zm-6 0h1v1h-1V1zm8 2h1v1h-1V3z" fill="#0f0"/><path d="M22,4h-1V3h-1V2h-1V1h-1V0h-1v1h-1v1h-1v1h-1v1h-1v2h-1v1h1v1h1v1h1v1h5V9h1V8h1V7h1V6h-1V4z" fill="#ff3bff"/><path d="M18 3V2h1V1h-1V0h-1v1h-1v1h1v1h1zm-6 3h1v1h-1V6zm0-3h1v1h-1V3zm6 3h1v1h-1V6zm-2-2h1v1h-1V4zm4-3h1v1h-1V1zm-6 0h1v1h-1V1zm5 7h1v1h-1V8zm-4 0h1v1h-1V8zm5-4h1v1h-1V4zm2 2h1v1h-1V6zm0-3h1v1h-1V3z" fill="#8700ff"/><path d="M17 4v6h1V3h-1v1zm2-1v5h1V2h-1v1zm0 6h1v1h-1V9zm-4-6v5h1V2h-1v1zm0 6h1v1h-1V9zm6-5v4h1V4h-1zm-8 1v3h1V4h-1v1z" fill="#ff9aff"/><path d="M17,1h1v1h-1V1z" fill="#ff0"/><path d="M16,13v-1h-1v-1h-1v-1h-1v1h-1v2h-1v1h-1v1h1v1h1v1h4v-1h1v-1h1v-1h-1v-1H16z" fill="#ff3bff"/><path d="M17,12h1v1h-1V12z" fill="#009300"/><path d="M13 14v3h1v-4h-1v1zm2-2h1v1h-1v-1zm0 3v2h1v-3h-1v1zm-4-1v2h1v-3h-1v1z" fill="#ff9aff"/><path d="M14 13v-1h1v-1h-1v-1h-1v1h-1v1h1v1h1zm0 3h1v1h-1v-1zm-2-2h1v1h-1v-1zm-2 0h1v1h-1v-1zm5-1h1v1h-1v-1zm2-1h1v1h-1v-1zm0 2h1v1h-1v-1z" fill="#8700ff"/><path d="M13,11h1v1h-1V11z" fill="#ff0"/><path d="M0 6h1v1H0V6zm8-2h1v1H8V4zM2 4h1v1H2V4z" fill="#0f0"/><path d="M9 6H8V5H7V4H6V3H5v1H4v1H3v1H2v1H1v2H0v1h1v1H0v1h1v1h1v1h1v1h5v-1h1v-1h1v-1h1v-1h-1v-1h1V9h-1V7H9V6z" fill="#ff3bff"/><path d="M10,6h1v1h-1V6z" fill="#0f0"/><path d="M6 6V5h1V4H6V3H5v1H4v1h1v1h1zm-6 5h1v1H0v-1zm0-2h1v1H0V9zm0-3h1v1H0V6zm6 4h1v1H6v-1zM4 7h1v1H4V7zm4-3h1v1H8V4zM2 4h1v1H2V4zm5 8h1v1H7v-1zm-4 0h1v1H3v-1zm5-4h1v1H8V8zm2 3h1v1h-1v-1zm0-2h1v1h-1V9zm0-3h1v1h-1V6zM2 8h1v1H2V8z" fill="#8700ff"/><path d="M5 7v8h1V6H5v1zm2-1v6h1V5H7v1zm0 8v1h1v-2H7v1zM3 6v6h1V5H3v1zm0 8v1h1v-2H3v1zm6-6v5h1V7H9v1zM1 8v5h1V7H1v1z" fill="#ff9aff"/><path d="M5,4h1v1H5V4z" fill="#ff0"/></svg></g></svg>