<svg xmlns="http://www.w3.org/2000/svg" viewBox="0 0 64 64"><g class="gotchi-bg"><defs fill="#fff"><pattern id="a" patternUnits="userSpaceOnUse" width="4" height="4"><path d="M0 0h1v1H0zm2 2h1v1H2z"/></pattern><pattern id="b" patternUnits="userSpaceOnUse" x="0" y="0" width="2" height="2"><path d="M0 0h1v1H0z"/></pattern><pattern id="c" patternUnits="userSpaceOnUse" x="-2" y="0" width="8" height="1"><path d="M0 0h1v1H0zm2 0h1v1H2zm2 0h1v1H4z"/></pattern><pattern id="d" patternUnits="userSpaceOnUse" x="0" y="0" width="4" height="4"><path d="M0 0h1v1H0zm0 2h1v1H0zm1 0V1h1v1zm1 0h1v1H2zm0-1h1V0H2zm1 2h1v1H3z"/></pattern><pattern id="e" patternUnits="userSpaceOnUse" width="64" height="32"><path d="M4 4h1v1H4zm7 0h1v1h-1zm7 0h1v1h-1zm7 0h1v1h-1zm7 0h1v1h-1zm7 0h1v1h-1zm7 0h1v1h-1zm7 0h1v1h-1zm7 0h1v1h-1z"/><path fill="url(#a)" d="M0 8h64v7H0z"/><path fill="url(#b)" d="M0 16h64v1H0z"/><path fill="url(#c)" d="M0 18h64v1H0z"/><path fill="url(#b)" d="M22 18h15v1H22zM0 20h64v3H0z"/><path fill="url(#d)" d="M0 24h64v8H0z"/></pattern><mask id="f"><path fill="url(#e)" d="M0 0h64v32H0z"/></mask></defs><path fill="#fff" d="M0 0h64v32H0z"/><path fill="#dea8ff" class="gotchi-secondary" mask="url(#f)" d="M0 0h64v32H0z"/><path fill="#dea8ff" class="gotchi-secondary" d="M0 32h64v32H0z"/><path mask="url(#f)" fill="#fff" transform="matrix(1 0 0 -1 0 64)" d="M0 0h64v32H0z"/></g><style>.gotchi-primary{fill:#0000B9;}.gotchi-secondary{fill:#D4DEF8;}.gotchi-cheek{fill:#F696C6;}.gotchi-eyeColor{fill:#0000B9;}.gotchi-primary-mouth{fill:#0000B9;}.gotchi-sleeves-up{display:none;}.gotchi-handsUp{display:none;}.gotchi-handsDownOpen{display:block;}.gotchi-handsDownClosed{display:none;}</style><g class="gotchi-bg"><defs fill="#fff"><pattern id="a" patternUnits="userSpaceOnUse" width="4" height="4"><path d="M0 0h1v1H0zm2 2h1v1H2z"/></pattern><pattern id="b" patternUnits="userSpaceOnUse" x="0" y="0" width="2" height="2"><path d="M0 0h1v1H0z"/></pattern><pattern id="c" patternUnits="userSpaceOnUse" x="-2" y="0" width="8" height="1"><path d="M0 0h1v1H0zm2 0h1v1H2zm2 0h1v1H4z"/></pattern><pattern id="d" patternUnits="userSpaceOnUse" x="0" y="0" width="4" height="4"><path d="M0 0h1v1H0zm0 2h1v1H0zm1 0V1h1v1zm1 0h1v1H2zm0-1h1V0H2zm1 2h1v1H3z"/></pattern><pattern id="e" patternUnits="userSpaceOnUse" width="64" height="32"><path d="M4 4h1v1H4zm7 0h1v1h-1zm7 0h1v1h-1zm7 0h1v1h-1zm7 0h1v1h-1zm7 0h1v1h-1zm7 0h1v1h-1zm7 0h1v1h-1zm7 0h1v1h-1z"/><path fill="url(#a)" d="M0 8h64v7H0z"/><path fill="url(#b)" d="M0 16h64v1H0z"/><path fill="url(#c)" d="M0 18h64v1H0z"/><path fill="url(#b)" d="M22 18h15v1H22zM0 20h64v3H0z"/><path fill="url(#d)" d="M0 24h64v8H0z"/></pattern><mask id="f"><path fill="url(#e)" d="M0 0h64v32H0z"/></mask></defs><path fill="#fff" d="M0 0h64v32H0z"/><path fill="#dea8ff" class="gotchi-secondary" mask="url(#f)" d="M0 0h64v32H0z"/><path fill="#dea8ff" class="gotchi-secondary" d="M0 32h64v32H0z"/><path mask="url(#f)" fill="#fff" transform="matrix(1 0 0 -1 0 64)" d="M0 0h64v32H0z"/></g><g class="gotchi-body"><path d="M47 14v-2h-2v-2h-4V8h-4V6H27v2h-4v2h-4v2h-2v2h-2v41h4v-2h5v2h5v-2h6v2h5v-2h5v2h4V14z" class="gotchi-primary"/><path d="M45 14v-2h-4v-2h-4V8H27v2h-4v2h-4v2h-2v39h2v-2h5v2h5v-2h6v2h5v-2h5v2h2V14z" class="gotchi-secondary"/><path d="M18,49h2v-1h2v1h2v2h5v-2h2v-1h2v1h2v2h5v-2h2v-1h2v1h1V14h-4v-2h-4v-2h-5V9h-5v2h-4v2h-4v2h-1V49z" fill="#fff"/></g><path class="gotchi-cheek" d="M21 32v2h2v-2h-1zm21 0h-1v2h2v-2z"/><g class="gotchi-primary-mouth"><path d="M29 32h-2v2h2v-1z"/><path d="M33 34h-4v2h6v-2h-1z"/><path d="M36 32h-1v2h2v-2z"/></g><g class="gotchi-shadow"><path opacity=".25" d="M25 58H19v1h1v1h24V59h1V58h-1z" fill="#000"/></g>,<g class="gotchi-collateral"><path d="M34 13v-1h-4v1h-1v1h-1v1h-1v4h1v1h1v1h1v1h4v-1h1v-1h1v-1h1v-4h-1v-1h-1v-1h-1zm-2 1h1v1h1v1h1v2h-1v1h-1v1h-2v-1h-1v-1h-1v-2h1v-1h1v-1h1z" fill="#0000b9"/></g>
    <style>
        .gotchi-bg { display: none }
    </style>
<g class="gotchi-eyeColor"><path d="M27 23H26H25H24H23H22H21V24V25H22H23H24H25H26H27H28H29V24V23H28H27Z" class="gotchi-primary" /><path d="M42 23H41H40H39H38H37H36H35V24V25H36H37H38H39H40H41H42H43V24V23H42Z" class="gotchi-primary" /><rect x="24" y="23" width="2" height="2" /> <rect x="38" y="23" width="2" height="2" /></g><g class="gotchi-wearable wearable-body"><svg x="7" y="29"><path d="M41 0v1h-1v1h-1v1h-1v1h-1v1h-1v1h-1v1h-2v1h-1v1h-1v1h-1v1h-1v1h-1v1h-6v-1h-1v-1h-1v-1h-1V9h-1V8h-1V7h-2V6h-1V5h-1V4h-1V3h-1V2h-1V1H9V0H7.5v12H8v14h4v-1h5v1h5v-1h6v1h5v-1h5v1h4V12h.5V0H41z" fill="#2a2a2a"/><g fill="#303030"><path d="M18 19h1v1h-1v-1zm0 2h1v1h-1v-1zm0-4h1v1h-1v-1zm-2 1h1v1h-1v-1zm2-3h1v1h-1v-1zm0 8h1v1h-1v-1zm-2-7h1v1h-1v-1zm4 2h1v1h-1v-1zm9 6h1v1h-1v-1zm-9-8h1v1h-1v-1zm9 6h1v1h-1v-1zm-9 2h1v1h-1v-1zm0-4h1v1h-1v-1zm0 2h1v1h-1v-1zm-8 0h1v1h-1v-1zm-2-7h1v1h-1v-1zm19 5h1v1h-1v-1zm-19-3h1v1h-1v-1zm2 3h1v1h-1v-1zm-2-1h1v1h-1v-1zm0 4h1v1h-1v-1zm0-2h1v1h-1v-1zm4 2h1v1h-1v-1zm0-6h1v1h-1v-1zm0 2h1v1h-1v-1zm0-4h1v1h-1v-1zm2 7h1v1h-1v-1zm-4-6h1v1h-1v-1zm2 5h1v1h-1v-1zm-2-3h1v1h-1v-1zm4 2h1v1h-1v-1zm21 2h1v1h-1v-1zm0-2h1v1h-1v-1zm-2 1h1v1h-1v-1zm0-2h1v1h-1v-1zm0-2h1v1h-1v-1zm2 1h1v1h-1v-1zm-2-3h1v1h-1v-1zm2 1h1v1h-1v-1zm2 3h1v1h-1v-1zm0-4h1v1h-1v-1zm-10 3h1v1h-1v-1zm10 5h1v1h-1v-1zm0-2h1v1h-1v-1zm0-4h1v1h-1v-1zm-10-1h1v1h-1v-1zm2 1h1v1h-1v-1zm0-2h1v1h-1v-1zm0 8h1v1h-1v-1zm0-4h1v1h-1v-1zm0 2h1v1h-1v-1zm2 1h1v1h-1v-1zm0-5h1v2h-1v-2zm2 6h1v1h-1v-1zm-2-3h1v1h-1v-1zm-23-9h1v1h-1v-1zm30-8h1v1h-1V3zM10 13h1v1h-1v-1zm29 0h1v1h-1v-1zm0-2h1v1h-1v-1zm-17 4h1v2h-1v1h1v7h4v-7h1v-1h-1v-2h1v-2h-6v2zm-10-1h1v1h-1v-1zm23-1h1v1h-1v-1zm-21 0h1v1h-1v-1zm19 1h1v2h-1v-2zm4-2h1v1h-1v-1zm-21 2h1v1h-1v-1zm-4-2h1v1h-1v-1zm25 2h1v1h-1v-1zM9 3h1v1H9V3z"/><path d="M41 2h1v1h-1V2zM8 2h1v1H8V2z"/></g><g fill="#414040"><path d="M24,23h1v1h-1V23z"/><path d="M25,22h1v1h-1V22z"/><path d="M24,21h1v1h-1V21z"/><path d="M25,20h1v1h-1V20z"/><path d="M24,19h1v1h-1V19z"/><path d="M25,18h1v1h-1V18z"/><path d="M24,17h1v1h-1V17z"/><path d="M25,16h1v1h-1V16z"/><path d="M24 15h1v1h-1v-1zm2-1h1v1h-1v-1z"/><path d="M23 14h1v1h-1v-1zm5-2h1v1h-1v-1z"/><path d="M21 12h1v1h-1v-1zm8-1h1v1h-1v-1z"/><path d="M20 11h1v1h-1v-1zm10-1h1v1h-1v-1z"/><path d="M19 10h1v1h-1v-1zm12-1h1v1h-1V9z"/><path d="M18 9h1v1h-1V9zm14-1h1v1h-1V8z"/><path d="M17 8h1v1h-1V8zm16-1h2v1h-2V7z"/><path d="M15 7h2v1h-2V7zm20-1h1v1h-1V6z"/><path d="M14 6h1v1h-1V6zm22-1h1v1h-1V5z"/><path d="M13 5h1v1h-1V5zm24-1h1v1h-1V4z"/><path d="M12 4h1v1h-1V4zm26-1h1v1h-1V3z"/><path d="M11 3h1v1h-1V3zm28-1h1v1h-1V2z"/><path d="M10 2h1v1h-1V2zm30-1h1v1h-1V1z"/><path d="M9 1h1v1H9V1zm32-1h1v1h-1V0z"/><path d="M8,0h1v1H8V0z"/></g><path d="M34,16h1v1h-1V16z" fill="#ecd3fc"/><g fill="#de37e4"><path d="M34,17h1v1h-1V17z"/><path d="M35 16h1v1h-1v-1zm-2 0h1v1h-1v-1z"/><path d="M34 15h1v1h-1v-1zm-10-1h2v1h-2v-1z"/></g>,</svg></g><g class="gotchi-handsDownClosed"><g class="gotchi-primary"><path d="M19 42h1v1h-1zm1-6h1v1h-1z"/><path d="M21 37h1v1h-1zm5 3v4h1v-4zm-5 3h-1v1h2v-1z"/><path d="M24 44h-2v1h4v-1h-1zm1-5h-1v1h2v-1z"/><path d="M23 38h-1v1h2v-1z"/></g><g class="gotchi-secondary"><path d="M19 43h1v1h-1zm5 2h-2v1h4v-1h-1z"/><path d="M27 41v3h1v-3zm-6 3h-1v1h2v-1z"/><path d="M26 44h1v1h-1zm-7-3h-1v2h1v-1z"/></g><g class="gotchi-primary"><path d="M44 42h1v1h-1zm-1-6h1v1h-1z"/><path d="M42 37h1v1h-1z"/><path d="M42 39v-1h-2v1h1zm0 4v1h2v-1h-1z"/><path d="M40 44h-2v1h4v-1h-1z"/><path d="M38 42v-2h-1v4h1v-1z"/><path d="M40 40v-1h-2v1h1z"/></g><g class="gotchi-secondary"><path d="M42 44v1h2v-1h-1zm-5-2v-1h-1v3h1v-1z"/><path d="M40 45h-2v1h4v-1h-1z"/><path d="M37 44h1v1h-1zm7-1h1v1h-1z"/></g></g><g class="gotchi-handsDownOpen"><g class="gotchi-primary"><path d="M56 38v-1h-2v-1h-2v-1h-1v-1h-1v-1h-1v8h1v1h2v1h4v-1h1v-4z"/></g><g class="gotchi-secondary"><path d="M54 38v-1h-2v-1h-1v-1h-1v-1h-1v6h1v1h2v1h4v-4z" /></g><path d="M54,38v-1h-2v-1h-1v-1h-1v-1h-1v5h1v1h2v1h4v-3H54z" fill="#fff"/><g class="gotchi-primary"><path d="M8 38v-1h2v-1h2v-1h1v-1h1v-1h1v8h-1v1h-2v1H8v-1H7v-4z"/></g><g class="gotchi-secondary"><path d="M10 38v-1h2v-1h1v-1h1v-1h1v6h-1v1h-2v1H8v-4z" /></g><path d="M8,38v3h4v-1h2v-1h1v-5h-1v1h-1v1h-1v1h-2v1H8z" fill="#fff"/></g><g class="gotchi-handsUp"><g class="gotchi-secondary"><path d="M50,38h1v1h-1V38z"/><path d="M49 39h1v1h-1v-1zm2-2h1v1h-1v-1z"/><path d="M52,36h2v1h-2V36z"/><path d="M54,35h2v1h-2V35z"/></g><path d="M52,32v1h-2v1h-1v5h1v-1h1v-1h1v-1h2v-1h2v-3H52z" fill="#fff"/><g class="gotchi-primary"><path d="M49,33h1v1h-1V33z"/><path d="M50 32h2v1h-2v-1zm0 7h1v1h-1v-1z"/><path d="M49 40h1v1h-1v-1zm2-2h1v1h-1v-1z"/><path d="M52 37h2v1h-2v-1zm0-6h4v1h-4v-1z"/><path d="M56,32h1v4h-1V32z"/><path d="M54,36h2v1h-2V36z"/></g><g class="gotchi-secondary"><path d="M13,38h1v1h-1V38z"/><path d="M14 39h1v1h-1v-1zm-2-2h1v1h-1v-1z"/><path d="M10,36h2v1h-2V36z"/><path d="M8,35h2v1H8V35z"/></g><path d="M8,32v3h2v1h2v1h1v1h1v1h1v-5h-1v-1h-2v-1H8z" fill="#fff"/><g class="gotchi-primary"><path d="M14,33h1v1h-1V33z"/><path d="M12 32h2v1h-2v-1zm1 7h1v1h-1v-1z"/><path d="M14 40h1v1h-1v-1zm-2-2h1v1h-1v-1z"/><path d="M10 37h2v1h-2v-1zm-2-6h4v1H8v-1z"/><path d="M7,32h1v4H7V32z"/><path d="M8,36h2v1H8V36z"/></g></g><g class="gotchi-wearable wearable-face"><svg x="15" y="6"><path d="M13.8,30.2v-3.5h6.5v3.5H13.8z" fill="#fff"/><g fill="#773e1d"><path d="M15,28h4v1h-4V28z"/><path d="M0 27h2v1h2v1h2v1h2v1h4v1h3v1h1v1h2v-1h1v-1h3v-1h4v-1h2v-1h2v-1h2v-1h2V8h-2V6h-2V4h-4V2h-4V0H12v2H8v2H4v2H2v2H0v19zm15 3v-1h-1v-1h1v-1h4v1h1v1h-1v1h-4zm12-5v1h-2v1h-3v-1h-1v-1h-1v-1h-6v1h-1v1h-1v1H9v-1H7v-1H3V12h1V9h1V8h3V7h4v1h3v1h4V8h3V7h4v1h3v1h1v3h1v13h-4z"/></g></svg></g><g class="gotchi-wearable wearable-eyes"><svg x="34" y="21"><g fill="#646464"><path d="M10 4V2H9V1H8V0H2v1H1v1H0v6h1v1h1v1h6V9h1V8h1V6h1V4z"/><path d="M11 6h1v12h-1z"/><path d="M10 18h1v2h-1z"/><path d="M9 20h1v1H9z"/></g><path d="M8,2V1H2v1H1v6h1v1h6V8h1V2H8z" fill="#fff"/><path d="M3,3h4v4H3V3z"/><path d="M8,2V1H2v1H1v6h1v1h6V8h1V2H8z" opacity=".5" fill="#fff" enable-background="new"/></svg></g><g class="gotchi-wearable wearable-head"><svg x="11" y="0"><path d="M42 14v-4h-2V8h-2V6h-2V4h-2V2h-4V0H18v2h-4v2h-2v2h-2v2H8v2H6v4H4v4H2v2H0v2h42v-2h-2v-2h-2v-4h-2v-2h-2v-2h4v2h2v2z" fill="#501e80"/><path d="M36 16v-2h-4v-2h-2v-2h2V8h4V6h-2V4h-4V2H18v2h-4v2h-2v2h-2v2H8v4H6v2zM4 18h34v2H4z" fill="#fa34f3"/><path d="M22 18v2h2v-2h-2zm-12 0v2h2v-2h-2zm4 0v2h2v-2h-2zm16 0v2h2v-2h-2zm-4 0v2h2v-2h-2zM6 18v2h2v-2H6zm28 0v2h2v-2h-2zm-16 0v2h2v-2h-2zm12-6v4h2v-4h-2zM10 8v8h2V8h-2zm20-4v6h2V4h-2zM14 4v12h2V4h-2zm8-2v14h2V2h-2zm4 0v14h2V2h-2zm-8 0v14h2V2h-2zM6 14v2h2v-2H6zm28 0v2h2v-2h-2zm0-8v2h2V6h-2z" fill="#faaff3"/><path d="M20 16h1v1h-1z" fill="#d700c1"/><path d="M20 17h1v1h-1z" fill="#ffc8ff"/><path d="M21 16h1v1h-1z" fill="#fff"/><path d="M21 17h1v1h-1z" fill="#870075"/><path d="M22 16h1v1h-1z" fill="#ff96ff"/><path d="M22 17h1v1h-1z" fill="#f0f"/><path d="M26 7V6h-2V5h-5v1h-2v1h-1v2h1v2h1v1h1v1h1v1h1v1h1v-1h1v-1h1v-1h1v-1h1V9h1V7z" fill="#870075"/><path d="M24 7V6h-5v1h-2v2h1v2h1v1h1v1h1v1h1v-1h1v-1h1v-1h1V9h1V7z" fill="#f0f"/><path d="M22,12h1v1h-1V12z" fill="#9a298b"/><g fill="#ff62ff"><path d="M20 12h1v1h-1v-1zm5-5h1v1h-1V7zm-5 0v1h3V7h-3zm-2 2h1v2h-1V9z"/><path d="M19 11h1v1h-1v-1zm-2-3h1v1h-1V8z"/></g><g fill="#d700c1"><path d="M24 11h1V9h-1v2z"/><path d="M23 11h1v1h-1v-1zm2-3h1v1h-1V8zm-2-1h1v1h-1V7zm-4 0h1v1h-1V7zm2 2h-2v2h1v1h1V9h1V8h-1v1z"/><path d="M18,8h1v1h-1V8z"/></g><path d="M20 6h3v1h-3V6zm1 6h1V9h-1v3zm-4-5h2v1h-2V7zm5 1h1v1h-1V8zm-3 0h2v1h-2V8z" fill="#ffc8ff"/><g fill="#fff"><path d="M21 6h1v1h-1V6zm0 3h1v1h-1V9z"/><path d="M20 8h1v1h-1V8zm-2-1h1v1h-1V7z"/></g><g fill="#ff96ff"><path d="M23,6h1v1h-1V6z"/><path d="M24 7h1v1h-1V7zm-5-1h1v1h-1V6zm3 6h-1v2h1v-2z"/></g><path d="M23,8v1h-1v3h1v-1h1V9h1V8H23z" fill="#f0f"/></svg></g>"><svg x="7" y="29"><g><g class="gotchi-sleeves gotchi-sleeves-left gotchi-sleeves-up"><path d="M49,3V2h-4V1h-1V0h-2.5v12H43v-1h1v-1h1V9h2V8h2V7h1V3H49z" fill="#2a2a2a"/><g fill="#414040"><path d="M47 3v1h1v1h-6V4h4V3h1z"/><path d="M45,2h1v1h-1V2z"/><path d="M44,1h1v1h-1V1z"/><path d="M41.5,0H44v1h-2.5V0z"/></g><g fill="#303030"><path d="M46,5h1v1h-1V5z"/><path d="M45 6h1v1h-1V6zm-3-3h1v1h-1V3z"/><path d="M41.5,2H44v1h-2.5V2z"/><path d="M42 1h1v1h-1V1zm2 2h1v1h-1V3z"/></g><path d="M48 5h1v1h-1V5zm-6-3h1v1h-1V2z" fill="#de37e4"/></g><g class="gotchi-sleeves gotchi-sleeves-left gotchi-sleeves-down"><path d="M44,0v1h1v1h1v1h1v1h1v1h-4v1h1v1h2v1h2v1h1v4h-1v1h-4v-1h-2v-1h-1.5V0H44z" fill="#2a2a2a"/><g fill="#de37e4"><path d="M47 13h-1v-1h1v1z"/><path d="M48 12h-1v-1h1v1z"/></g><g fill="#303030"><path d="M46 12h-1v-1h1v1z"/><path d="M47 11h-1v-1h1v1z"/><path d="M46 10h-1V9h1v1zm-3-6h-1V3h1v1zm2 0h-1V3h1v1z"/><path d="M44,3h-2.5V2H44V3z"/><path d="M43,2h-1V1h1V2z"/></g><g fill="#414040"><path d="M46,3v1h-4v1h6V4h-1V3H46z"/><path d="M46,3h-1V2h1V3z"/><path d="M45,2h-1V1h1V2z"/><path d="M44,1h-2.5V0H44V1z"/></g><path d="M49 11h-1v-1h1v1zm-6-8h-1V2h1v1z" fill="#de37e4"/></g><g class="gotchi-sleeves gotchi-sleeves-right gotchi-sleeves-up"><path d="M0,3v4h1v1h2v1h2v1h1v1h1v1h1.5V0H6v1H5v1H1v1H0z" fill="#2a2a2a"/><g fill="#414040"><path d="M4,3v1h4v1H2V4h1V3H4z"/><path d="M5,3H4V2h1V3z"/><path d="M6,2H5V1h1V2z"/><path d="M8.5,1H6V0h2.5V1z"/></g><g fill="#303030"><path d="M4,6H3V5h1V6z"/><path d="M5 7H4V6h1v1zm3-3H7V3h1v1z"/><path d="M8.5,3H6V2h2.5V3z"/><path d="M8 2H7V1h1v1zM6 4H5V3h1v1z"/></g><path d="M2 6H1V5h1v1zm6-3H7V2h1v1z" fill="#de37e4"/></g><g class="gotchi-sleeves gotchi-sleeves-right gotchi-sleeves-down"><path d="M8.5,0v12H7v1H5v1H1v-1H0V9h1V8h2V7h2V6h1V5H2V4h1V3h1V2h1V1h1V0H8.5z" fill="#2a2a2a"/><g fill="#de37e4"><path d="M3,12h1v1H3V12z"/><path d="M2,11h1v1H2V11z"/></g><g fill="#303030"><path d="M4,11h1v1H4V11z"/><path d="M3,10h1v1H3V10z"/><path d="M4 9h1v1H4V9zm3-6h1v1H7V3zM5 3h1v1H5V3z"/><path d="M6,2h2.5v1H6V2z"/><path d="M7,1h1v1H7V1z"/></g><g fill="#414040"><path d="M3,3v1H2v1h6V4H4V3H3z"/><path d="M4,2h1v1H4V2z"/><path d="M5,1h1v1H5V1z"/><path d="M6,0h2.5v1H6V0z"/></g><path d="M1 10h1v1H1v-1zm6-8h1v1H7V2z" fill="#de37e4"/></g></g></svg><g class="gotchi-wearable wearable-hand wearable-hand-left"><svg x="0" y="24"><path d="M0,1v9h11.5V1H0z" fill="#7d0064"/><path d="M8 3V2H3v1H2v6h1V8h1v1h1V8h1v1h1V8h1v1h1V3H8zM7 3v1H6V3h1zM5 3v1H4V3h1zm3 3H7v1H4V6H3V5h1v1h3V5h1v1z" fill="#fff"/><path d="M11,0v25h1V0H11z" fill="#8e7064"/><path d="M11 24h1v1h-1v-1zm0-24h1v1h-1V0z" fill="#7a5749"/></svg></g><g class="gotchi-wearable wearable-hand wearable-hand-right"><svg x="0" y="33"><g transform="scale(-1, 1) translate(-64, 0)"><path d="M12 2V1h-1V0H2v1H1v1H0v2h1v1h1v1h1v1h1v1h1v1h1v1h1V9h1V8h1V7h1V6h1V5h1V4h1V2z"/><path d="M2 4v1h1v1h1v1h1v1h1v1h1V8h1V7h1V6h1V5h1V4z" fill="#46a7c0"/><g fill="#0ff"><path d="M9 2H8V1H5v1H4v1H3v2h1v1h1v1h1v1h1V7h1V6h1V5h1V3H9zm2 0h1v1h-1z"/><path d="M10 1h1v1h-1zM2 1h1v1H2z"/><path d="M1 2h1v1H1z"/></g><g fill="#fff"><path d="M11 3h1v1h-1V3zM1 3h1v1H1V3zm8-2h1v1H9V1zM8 3V2H7V1H6v1H5v1H3v1h7V3H8z"/><path d="M10 2h1v1h-1V2zM2 2h1v1H2V2z"/><path d="M3,1h1v1H3V1z"/></g></g></svg></g><g class="gotchi-wearable wearable-pet"><svg x="42" y="43"><path d="M19 2V1h-1V0h-5v1h-1v1H8V1H7V0H2v1H1v1H0v2h1v1h1v1H1v3h1v1h1v1H2v1H1v2h1v1H1v2h4v1h3v-1h1v-1h2v1h1v1h3v-1h4v-2h-1v-1h1v-2h-1v-1h-1v-1h1V9h1V6h-1V5h1V4h1V2h-1z"/><path d="M18 3h-1v1h-3V3h-2v1h1v1h5V4h1V3h-1zM6 3v1H3V3H1v1h1v1h5V4h1V3H6z" fill="#fff"/><g fill="#33bacc"><path d="M17 1h-4v1h5V1h-1zm-7 4h2V4h-1V3H9v1H8v1h2zM4 2h3V1H2v1h2zm5 11v2h2v-2H9z"/><path d="M16 12v-2H4v2H2v2h2v1H2v1h3v-3h1v3H5v1h3v-4h1v-1h2v1h1v4h3v-1h-1v-3h1v3h3v-1h-2v-1h2v-2h-2z"/></g><path d="M17 6H2v3h16V6h-1zm0 2H3V7h14v1z" fill="#ef1e26"/><defs /></svg></g></svg>