<svg xmlns="http://www.w3.org/2000/svg" viewBox="0 0 64 64"><g class="gotchi-bg"><defs fill="#fff"><pattern id="a" patternUnits="userSpaceOnUse" width="4" height="4"><path d="M0 0h1v1H0zm2 2h1v1H2z"/></pattern><pattern id="b" patternUnits="userSpaceOnUse" x="0" y="0" width="2" height="2"><path d="M0 0h1v1H0z"/></pattern><pattern id="c" patternUnits="userSpaceOnUse" x="-2" y="0" width="8" height="1"><path d="M0 0h1v1H0zm2 0h1v1H2zm2 0h1v1H4z"/></pattern><pattern id="d" patternUnits="userSpaceOnUse" x="0" y="0" width="4" height="4"><path d="M0 0h1v1H0zm0 2h1v1H0zm1 0V1h1v1zm1 0h1v1H2zm0-1h1V0H2zm1 2h1v1H3z"/></pattern><pattern id="e" patternUnits="userSpaceOnUse" width="64" height="32"><path d="M4 4h1v1H4zm7 0h1v1h-1zm7 0h1v1h-1zm7 0h1v1h-1zm7 0h1v1h-1zm7 0h1v1h-1zm7 0h1v1h-1zm7 0h1v1h-1zm7 0h1v1h-1z"/><path fill="url(#a)" d="M0 8h64v7H0z"/><path fill="url(#b)" d="M0 16h64v1H0z"/><path fill="url(#c)" d="M0 18h64v1H0z"/><path fill="url(#b)" d="M22 18h15v1H22zM0 20h64v3H0z"/><path fill="url(#d)" d="M0 24h64v8H0z"/></pattern><mask id="f"><path fill="url(#e)" d="M0 0h64v32H0z"/></mask></defs><path fill="#fff" d="M0 0h64v32H0z"/><path fill="#dea8ff" class="gotchi-secondary" mask="url(#f)" d="M0 0h64v32H0z"/><path fill="#dea8ff" class="gotchi-secondary" d="M0 32h64v32H0z"/><path mask="url(#f)" fill="#fff" transform="matrix(1 0 0 -1 0 64)" d="M0 0h64v32H0z"/></g><style>.gotchi-primary{fill:#000000;}.gotchi-secondary{fill:#FBDFEB;}.gotchi-cheek{fill:#F696C6;}.gotchi-eyeColor{fill:#51FFA8;}.gotchi-primary-mouth{fill:#000000;}.gotchi-sleeves-up{display:none;}.gotchi-handsUp{display:none;}.gotchi-handsDownOpen{display:block;}.gotchi-handsDownClosed{display:none;}</style><g class="gotchi-body"><path d="M47 14v-2h-2v-2h-4V8h-4V6H27v2h-4v2h-4v2h-2v2h-2v41h4v-2h5v2h5v-2h6v2h5v-2h5v2h4V14z" class="gotchi-primary"/><path d="M45 14v-2h-4v-2h-4V8H27v2h-4v2h-4v2h-2v39h2v-2h5v2h5v-2h6v2h5v-2h5v2h2V14z" class="gotchi-secondary"/><path d="M18,49h2v-1h2v1h2v2h5v-2h2v-1h2v1h2v2h5v-2h2v-1h2v1h1V14h-4v-2h-4v-2h-5V9h-5v2h-4v2h-4v2h-1V49z" fill="#fff"/></g><path class="gotchi-cheek" d="M21 32v2h2v-2h-1zm21 0h-1v2h2v-2z"/><g class="gotchi-primary-mouth"><path d="M29 32h-2v2h2v-1z"/><path d="M33 34h-4v2h6v-2h-1z"/><path d="M36 32h-1v2h2v-2z"/></g>
    <style>
        .gotchi-bg { display: none }
    </style>
<g class="gotchi-shadow"><path opacity=".25" d="M25 58H19v1h1v1h24V59h1V58h-1z" fill="#000"/></g>,<g class="gotchi-collateral"><path d="M35.5 20h1v-1h1v-5h-1v-1h-1v-1h-1v-1h-5v1h-1v1h-1v1h-1v5h1v1h1v1h1v1h5v-1h1v-1zm0-2h-1v1h-4v-1h-1v-3h1v-1h4v1h1v3z"/><path d="M28.5 15h1v-1h1v-1h3v-1h-4v1h-1v1h-1v5h1v1h1v1h4v-1h-3v-1h-1v-1h-1v-3z" fill="#e51b6d"/></g><g class="gotchi-eyeColor"><path d="M43 22h-1v-1h-5v1h-1v1h-1v5h1v1h1v1h5v-1h1v-1h1v-5h-1v-1zm-1 5h-4v-3h4v3z"/><path d="M36 24h1v-1h1v-1h3v-1h-4v1h-1v1h-1v5h1v1h1v1h4v-1h-3v-1h-1v-1h-1v-3z" fill="#e51b6d"/><path d="M28 22h-1v-1h-5v1h-1v1h-1v5h1v1h1v1h5v-1h1v-1h1v-5h-1v-1zm-1 5h-4v-3h4v3z"/><path d="M22 21v1h-1v1h-1v5h1v1h1v1h4v-1h-3v-1h-1v-1h-1v-3h1v-1h1v-1h3v-1h-4z" fill="#e51b6d"/></g><g class="gotchi-wearable wearable-body"><svg x="12" y="32"><path d="M34 1v1h-1v1h-1v1h-1v1h-1v1h-1v1h-2v1h-2v1h-3v1h-4V9h-3V8h-2V7h-2V6h-1V5H9V4H8V3H7V2H6V1H3v20h34V1h-3z"/><path d="M34 2v1h-1v1h-1v1h-1v1h-1v1h-1v1h-2v1h-2v1h-3v1h-4v-1h-3V9h-2V8h-2V7h-1V6H9V5H8V4H7V3H6V2H4v18h32V2h-2z" fill="#870aff"/><path d="M22 10v1h-4v-1H4v8h32v-8H22zm12-8v1h-1v1h-1v1h-1v1h-1v1h-1v1h7V2h-2zM11 8V7h-1V6H9V5H8V4H7V3H6V2H4v6h7z" fill="#f0f"/><path d="M9 6V5H8V4H7V3H6V2H4v4h5zm13 4v1h-4v-1H4v6h32v-6H22zm12-8v1h-1v1h-1v1h-1v1h5V2h-2z" fill="#ff0"/><path d="M22 10v1h-4v-1H4v2h32v-2H22z" fill="#0ff"/><path d="M7 4V3H6V2H4v2h3zm-3 8v2h32v-2H4zM34 2v1h-1v1h3V2h-2z" fill="#0f0"/><path d="M17.5 12h1v1h-1zm4 0h-1v5h1v-2h1v-1h-1v-2z"/><path d="M22.5 14h1v-2h-1v2zm0 3h1v-2h-1v2zm-4-2h-1v-2h-1v4h1v-1h1v1h1v-4h-1v2zm-6-3v5h1v-2h2v-1h-2v-1h2v-1h-3zm15 1v-1h-3v5h3v-1h-2v-1h2v-1h-2v-1h2z"/></svg></g><g class="gotchi-handsDownClosed"><g class="gotchi-primary"><path d="M19 42h1v1h-1zm1-6h1v1h-1z"/><path d="M21 37h1v1h-1zm5 3v4h1v-4zm-5 3h-1v1h2v-1z"/><path d="M24 44h-2v1h4v-1h-1zm1-5h-1v1h2v-1z"/><path d="M23 38h-1v1h2v-1z"/></g><g class="gotchi-secondary"><path d="M19 43h1v1h-1zm5 2h-2v1h4v-1h-1z"/><path d="M27 41v3h1v-3zm-6 3h-1v1h2v-1z"/><path d="M26 44h1v1h-1zm-7-3h-1v2h1v-1z"/></g><g class="gotchi-primary"><path d="M44 42h1v1h-1zm-1-6h1v1h-1z"/><path d="M42 37h1v1h-1z"/><path d="M42 39v-1h-2v1h1zm0 4v1h2v-1h-1z"/><path d="M40 44h-2v1h4v-1h-1z"/><path d="M38 42v-2h-1v4h1v-1z"/><path d="M40 40v-1h-2v1h1z"/></g><g class="gotchi-secondary"><path d="M42 44v1h2v-1h-1zm-5-2v-1h-1v3h1v-1z"/><path d="M40 45h-2v1h4v-1h-1z"/><path d="M37 44h1v1h-1zm7-1h1v1h-1z"/></g></g><g class="gotchi-handsDownOpen"><g class="gotchi-primary"><path d="M56 38v-1h-2v-1h-2v-1h-1v-1h-1v-1h-1v8h1v1h2v1h4v-1h1v-4z"/></g><g class="gotchi-secondary"><path d="M54 38v-1h-2v-1h-1v-1h-1v-1h-1v6h1v1h2v1h4v-4z" /></g><path d="M54,38v-1h-2v-1h-1v-1h-1v-1h-1v5h1v1h2v1h4v-3H54z" fill="#fff"/><g class="gotchi-primary"><path d="M8 38v-1h2v-1h2v-1h1v-1h1v-1h1v8h-1v1h-2v1H8v-1H7v-4z"/></g><g class="gotchi-secondary"><path d="M10 38v-1h2v-1h1v-1h1v-1h1v6h-1v1h-2v1H8v-4z" /></g><path d="M8,38v3h4v-1h2v-1h1v-5h-1v1h-1v1h-1v1h-2v1H8z" fill="#fff"/></g><g class="gotchi-handsUp"><g class="gotchi-secondary"><path d="M50,38h1v1h-1V38z"/><path d="M49 39h1v1h-1v-1zm2-2h1v1h-1v-1z"/><path d="M52,36h2v1h-2V36z"/><path d="M54,35h2v1h-2V35z"/></g><path d="M52,32v1h-2v1h-1v5h1v-1h1v-1h1v-1h2v-1h2v-3H52z" fill="#fff"/><g class="gotchi-primary"><path d="M49,33h1v1h-1V33z"/><path d="M50 32h2v1h-2v-1zm0 7h1v1h-1v-1z"/><path d="M49 40h1v1h-1v-1zm2-2h1v1h-1v-1z"/><path d="M52 37h2v1h-2v-1zm0-6h4v1h-4v-1z"/><path d="M56,32h1v4h-1V32z"/><path d="M54,36h2v1h-2V36z"/></g><g class="gotchi-secondary"><path d="M13,38h1v1h-1V38z"/><path d="M14 39h1v1h-1v-1zm-2-2h1v1h-1v-1z"/><path d="M10,36h2v1h-2V36z"/><path d="M8,35h2v1H8V35z"/></g><path d="M8,32v3h2v1h2v1h1v1h1v1h1v-5h-1v-1h-2v-1H8z" fill="#fff"/><g class="gotchi-primary"><path d="M14,33h1v1h-1V33z"/><path d="M12 32h2v1h-2v-1zm1 7h1v1h-1v-1z"/><path d="M14 40h1v1h-1v-1zm-2-2h1v1h-1v-1z"/><path d="M10 37h2v1h-2v-1zm-2-6h4v1H8v-1z"/><path d="M7,32h1v4H7V32z"/><path d="M8,36h2v1H8V36z"/></g></g><g class="gotchi-wearable wearable-face"><svg x="25" y="28"><svg xmlns="http://www.w3.org/2000/svg" width="14" height="14" xmlns:v="https://vecta.io/nano"><path d="M13 5V3h-1V2h-1V1H9V0H5v1H3v1H2v1H1v2H0v4h1v2h1v1h1v1h2v1h4v-1h2v-1h1v-1h1V9h1V5h-1z" fill="#f0f"/><path d="M12 5V3h-1V2H9V1H5v1H3v1H2v2H1v4h1v2h1v1h2v1h4v-1h2v-1h1V9h1V5h-1z" fill="#ff78ff"/><path d="M4 3v1H3v2h1V5h1V4h1V3H4z" fill="#fff"/><g fill="#ff46ff"><path d="M9 11v1h2v-1H9zm3-6v4h1V5h-1z"/><path d="M11 11h1V9h-1v2zm-6 1v1h4v-1H5z"/></g></svg></svg></g><g class="gotchi-wearable wearable-eyes"><svg x="19" y="20"><path d="M25 4V3h-1V2h-1V1h-1V0h-4v1h-1v1h-1v1h-1v1h-1v4h1v1h1v1h1v1h1v1h4v-1h1v-1h1V9h1V8h1V4h-1z" fill="#326400"/><path d="M24 4V3h-1V2h-1V1h-4v1h-1v1h-1v1h-1v4h1v1h1v1h1v1h4v-1h1V9h1V8h1V4h-1z" fill="#8bc53f"/><path d="M23 4V3h-1V2h-4v1h-1v1h-1v4h1v1h1v1h4V9h1V8h1V4h-1z" fill="#f9e988"/><path d="M22 4V3h-4v1h-1v4h1v1h4V8h1V4h-1z" fill="#fff"/><path d="M20 3h-1v6h2V3h-1z" fill="#58595b"/><path d="M11 4V3h-1V2H9V1H8V0H4v1H3v1H2v1H1v1H0v4h1v1h1v1h1v1h1v1h4v-1h1v-1h1V9h1V8h1V4h-1z" fill="#326400"/><path d="M10 4V3H9V2H8V1H4v1H3v1H2v1H1v4h1v1h1v1h1v1h4v-1h1V9h1V8h1V4h-1z" fill="#8bc53f"/><path d="M9 4V3H8V2H4v1H3v1H2v4h1v1h1v1h4V9h1V8h1V4H9z" fill="#f9e988"/><path d="M8 4V3H4v1H3v4h1v1h4V8h1V4H8z" fill="#fff"/><path d="M6 3H5v6h2V3H6z" fill="#58595b"/></svg></g><g class="gotchi-wearable wearable-head"><svg x="27" y="0"><path d="M6,6h4v13H6V6z" fill="#0f0"/><path d="M5,3h3v18H5V3z" fill="#ff0"/><path d="M5,3h2v18H5V3z" fill="#ffc800"/><path d="M0,19h4V6H0V19z" fill="#0ff"/><path d="M0,19h1V6H0V19z" fill="#007dff"/><path d="M4,0h2v22H4V0z" fill="#f0f"/><path d="M2,3h3v18H2V3z" fill="#7d00ff"/><path d="M8,6h1v13H8V6z" fill="#009600"/><path d="M4,0h1v22H4V0z" fill="#7d0064"/><path d="M2,3h1v18H2V3z" fill="#32007d"/></svg></g>"><svg x="12" y="32"><g><g class="gotchi-sleeves gotchi-sleeves-left gotchi-sleeves-up"><path d="M38 9V8h1V7h1V0h-2v1h-1.5v8H38z"/><path d="M38 8V7h1V1h-1v1h-1v6h1z" fill="#7d00ff"/><path d="M38 8V7h1V3h-2v5h1z" fill="#f0f"/><path d="M38 8V7h1V5h-2v3h1z" fill="#ff0"/><path d="M37 7h1v1h-1z" fill="#0f0"/></g><g class="gotchi-sleeves gotchi-sleeves-left gotchi-sleeves-down"><path d="M38 1v1h1v1h1v7h-2V9h-1.5V1H38z"/><path d="M38 2v1h1v6h-1V8h-1V2h1z" fill="#7d00ff"/><path d="M38 2v1h1v4h-2V2h1z" fill="#f0f"/><path d="M38 2v1h1v2h-2V2h1z" fill="#ff0"/><path d="M37 2h1v1h-1z" fill="#0f0"/></g><g class="gotchi-sleeves gotchi-sleeves-right gotchi-sleeves-up"><path d="M2 9V8H1V7H0V0h2v1h1.5v8H2z"/><path d="M2 8V7H1V1h1v1h1v6H2z" fill="#7d00ff"/><path d="M2 8V7H1V3h2v5H2z" fill="#f0f"/><path d="M2 8V7H1V5h2v3H2z" fill="#ff0"/><path d="M2 7h1v1H2z" fill="#0f0"/></g><g class="gotchi-sleeves gotchi-sleeves-right gotchi-sleeves-down"><path d="M2 1v1H1v1H0v7h2V9h1.5V1H2z"/><path d="M2 2v1H1v6h1V8h1V2H2z" fill="#7d00ff"/><path d="M2 2v1H1v4h2V2H2z" fill="#f0f"/><path d="M2 2v1H1v2h2V2H2z" fill="#ff0"/><path d="M2 2h1v1H2z" fill="#0f0"/></g></g></svg><g class="gotchi-wearable wearable-hand wearable-hand-left"><svg x="5" y="25"><path d="M0 5v8h1v1h1v4H1v1h3v-1H3v-4h1v-1h1V5z" fill="#0000b9"/><path d="M1,6v7h3V6H1z" fill="#fff"/><path d="M1 8v5h3V8H1zm1-5h1v1H2V3zm1-2h1v1H3V1zM1 0h1v1H1V0z" fill="#ffffbe"/></svg></g><g class="gotchi-wearable wearable-hand wearable-hand-right"><svg x="1" y="21"><g transform="scale(-1, 1) translate(-62, 0)"><g fill="#ff64ff"><path d="M7 24h1v1H7z"/><path d="M16 8V5h-1V4h-1V3h-2V2h-2V1H9V0H8v1H7v1H5v1H3v1H2v1H1v3H0v1h1v1h1V9h1v1h1V9h1v1h1V9h1v1h1v14h1V10h1V9h1v1h1V9h1v1h1V9h1v1h1V9h1V8zM6 23h1v1H6z"/></g><g fill="#ffb9ff"><path d="M1 8h1v1H1z"/><path d="M14 5V4h-2V3h-2V2H9V1H8v1H7v1H5v1H3v1H2v3h1v1h1V8h1v1h1V8h1v1h1V8h1v1h1V8h1v1h1V8h1v1h1V8h1V5h-1zm-4 1H9v1H8V6H7V5h1V4h1v1h1v1z"/><path d="M8 5h1v1H8zm7 3h1v1h-1z"/></g></g></svg></g><g class="gotchi-wearable wearable-pet"><svg x="39" y="36"><svg xmlns="http://www.w3.org/2000/svg" width="25" height="27" xmlns:v="https://vecta.io/nano"><path d="M24 12V7h-1V6h-1V5h-1V4h-3V2h-1V1h-1V0H9v1H8v1H7v2H4v1H3v1H2v1H1v4H0v5h1v1h1v1h2v2H3v2h1v1h1v2h1v2h12v-2h1v-2h1v-1h1v-2h-1v-1h3v-1h1v-3h1v-3h-1zM6 18h2v-1h1v-1h1v2h1v2H7v-1H6v-1zm12 2h-5v-2h1v-2h1v2h1v1h2v1z" fill="#134c4c"/><path d="M9 10H7v1H6v-1H4v1H3v-1H1v1H0v5h1v1h1v1h6v-1h1v-1h1v-5H9v-1zm15 2v-1h-2v-1h-1V9h-3v1h-1v1h-2v1h-1v3h1v3h1v1h3v-1h1v1h3v-1h1v-3h1v-3h-1z" fill="#1e6f50"/><path d="M10 16v2h1v2h2v-2h1v-2h-4z" fill="#0c2e44"/><path d="M3 20v2h1v1h1v2h1v2h12v-2h1v-2h1v-1h1v-2H3z" fill="#391f21"/><path d="M4 21v1h16v-1H4z" fill="#bf6f4a"/><path d="M6 23v2h1v1h10v-1h1v-2H6z" fill="#8a4836"/><g fill="#5d2c28"><path d="M17 23v2h1v-2h-1z"/><path d="M16 25h1v1h-1z"/></g><g fill="#fff"><path d="M16 11h1v-1h1V9h3v1h1v1h1V7h-1V6h-1V5h-3v1h-1V2h-1V1H9v1H8v4H7V5H4v1H3v1H2v3h1v1h1v-1h2v1h1v-1h2v1h1v4h4v-3h1v-1h1zm1-4v1h-1V7h-2v1h-1V7h1V6h2v1h1zM9 7V6h2v1h1v1h-1V7H9v1H8V7h1zm5 3v1h-3v-1h-1V9h1v1h3V9h1v1h-1z"/><path d="M7 11v1H6v-1H4v1H3v-1H1v5h1v1h6v-1h1v-5H7zm-3 2h1v1H3v-1h1zm1 3H4v-1h2v1H5zm3-2H6v-1h2v1zm13-2v-2h-3v2h-3v3h2v1h-1v2h3v-1h1v1h3v-2h-1v-1h2v-3h-3zm-2 1h1v1h-1v-1zm-2 0h1v1h-1v-1zm2 3h-1v-1h2v1h-1z"/></g><g fill="#d3fc7e"><path d="M9 1v1H8v3h1V3h1V2h2V1H9zM4 5v1h2V5H4z"/><path d="M3 6h1v1H3z"/><path d="M2 7h1v1H2zm16 3v2h1v-1h1v-1h-2zM1 11v3h1v-2h1v-1H1zm3 0h1v1H4zm3 0h1v1H7zm8 1v2h1v-1h1v-1h-2z"/></g></svg></svg></g></svg>