<svg xmlns="http://www.w3.org/2000/svg" viewBox="0 0 64 64"><g class="gotchi-bg"><defs fill="#fff"><pattern id="a" patternUnits="userSpaceOnUse" width="4" height="4"><path d="M0 0h1v1H0zm2 2h1v1H2z"/></pattern><pattern id="b" patternUnits="userSpaceOnUse" x="0" y="0" width="2" height="2"><path d="M0 0h1v1H0z"/></pattern><pattern id="c" patternUnits="userSpaceOnUse" x="-2" y="0" width="8" height="1"><path d="M0 0h1v1H0zm2 0h1v1H2zm2 0h1v1H4z"/></pattern><pattern id="d" patternUnits="userSpaceOnUse" x="0" y="0" width="4" height="4"><path d="M0 0h1v1H0zm0 2h1v1H0zm1 0V1h1v1zm1 0h1v1H2zm0-1h1V0H2zm1 2h1v1H3z"/></pattern><pattern id="e" patternUnits="userSpaceOnUse" width="64" height="32"><path d="M4 4h1v1H4zm7 0h1v1h-1zm7 0h1v1h-1zm7 0h1v1h-1zm7 0h1v1h-1zm7 0h1v1h-1zm7 0h1v1h-1zm7 0h1v1h-1zm7 0h1v1h-1z"/><path fill="url(#a)" d="M0 8h64v7H0z"/><path fill="url(#b)" d="M0 16h64v1H0z"/><path fill="url(#c)" d="M0 18h64v1H0z"/><path fill="url(#b)" d="M22 18h15v1H22zM0 20h64v3H0z"/><path fill="url(#d)" d="M0 24h64v8H0z"/></pattern><mask id="f"><path fill="url(#e)" d="M0 0h64v32H0z"/></mask></defs><path fill="#fff" d="M0 0h64v32H0z"/><path fill="#dea8ff" class="gotchi-secondary" mask="url(#f)" d="M0 0h64v32H0z"/><path fill="#dea8ff" class="gotchi-secondary" d="M0 32h64v32H0z"/><path mask="url(#f)" fill="#fff" transform="matrix(1 0 0 -1 0 64)" d="M0 0h64v32H0z"/></g><style>.gotchi-primary{fill:#824EE2;}.gotchi-secondary{fill:#E6DCF9;}.gotchi-cheek{fill:#F696C6;}.gotchi-eyeColor{fill:#824EE2;}.gotchi-primary-mouth{fill:#824EE2;}.gotchi-sleeves-up{display:none;}.gotchi-handsUp{display:none;}.gotchi-handsDownOpen{display:block;}.gotchi-handsDownClosed{display:none;}</style><g class="gotchi-body"><path d="M47 14v-2h-2v-2h-4V8h-4V6H27v2h-4v2h-4v2h-2v2h-2v41h4v-2h5v2h5v-2h6v2h5v-2h5v2h4V14z" class="gotchi-primary"/><path d="M45 14v-2h-4v-2h-4V8H27v2h-4v2h-4v2h-2v39h2v-2h5v2h5v-2h6v2h5v-2h5v2h2V14z" class="gotchi-secondary"/><path d="M18,49h2v-1h2v1h2v2h5v-2h2v-1h2v1h2v2h5v-2h2v-1h2v1h1V14h-4v-2h-4v-2h-5V9h-5v2h-4v2h-4v2h-1V49z" fill="#fff"/></g><path class="gotchi-cheek" d="M21 32v2h2v-2h-1zm21 0h-1v2h2v-2z"/><g class="gotchi-primary-mouth"><path d="M29 32h-2v2h2v-1z"/><path d="M33 34h-4v2h6v-2h-1z"/><path d="M36 32h-1v2h2v-2z"/></g><g class="gotchi-shadow"><path opacity=".25" d="M25 58H19v1h1v1h24V59h1V58h-1z" fill="#000"/></g>,<g class="gotchi-collateral"><path d="M37.25 17.04v-.75h-.75v-.75h-.75v-.75H33.5v.75h-.75v.75h-1.5v.75h-.75v.75h-2.25v-.75h-.75v-2.25h.75v-.75h2.25v.75h.75v.75H32v-1.5h-.75v-.75h-.75v-.75h-2.25v.75h-.75v.75h-.75v.75H26v2.25h.75v.75h.75v.75h.75v.75h2.25v-.75h.75v-.75h1.5v-.75h.75v-.75h2.25v.75h.75v2.25h-.75v.75H33.5v-.75h-.75v-.75H32v1.5h.75v.75h.75v.75h2.25v-.75h.75v-.75h.75v-.75H38v-2.25h-.75z" fill="#824ee2"/></g>
    <style>
        .gotchi-bg { display: none }
    </style>
<g class="gotchi-eyeColor"><rect x="21" y="23" width="8" height="2" class="gotchi-primary" /><rect x="35" y="23" width="8" height="2" class="gotchi-primary" /><rect x="38" y="25" width="2" height="2" /><rect x="24" y="25" width="2" height="2" /></g><g class="gotchi-wearable wearable-body"><svg x="7" y="31"><path d="M46 19v-5h-1v-4h-1V9h-2V2h-2v1h-1v1h-1v1h-1v1h-1v1h-2v1h-2v1H18V8h-2V7h-2V6h-1V5h-1V4h-1V3h-1V2H8v7H6v1H5v4H4v5H2v5h46v-5h-2z" fill="#333"/><path d="M33 22v2h5v-2h-5zm-11 0v2h6v-2h-6zm-10 0v2h5v-2h-5zm34-3v-5h-1v-4h-1V9h-2v15h6v-5h-2zM6 9v1H5v4H4v5H2v5h6V9H6z" fill="#9600bd"/><g fill="#f0f"><path d="M46 20v-1h-1v-4h-1v-4h-1V9h-1v7h1v1h1v3h1v3h2v-3h-1z"/><path d="M43 17h-1v6h2v-3h-1v-3zm-7 5v1h2v-1h-2zm-3 0v1h2v-1h-2zm-7 0v1h2v-1h-2zm-4 0v1h2v-1h-2zm-7 0v1h2v-1h-2zm-3 0v1h2v-1h-2zm-5-3v1H6v3h2v-6H7v2z"/><path d="M7 10v1H6v4H5v4H4v1H3v3h2v-3h1v-3h1v-1h1V9H7v1z"/></g><g fill="#bfbfbf"><path d="M18 19v1h3v-1h-3z"/><path d="M17 22h1v-2h-1v2zm4 0h1v-2h-1v2zm7 0h1v-2h-1v2zm-7-4v-1h-3v1h3z"/><path d="M29 19v1h3v-1h-3z"/><path d="M32 20v2h1v-2h-1zm0-2v-1h-3v1h3z"/></g><g fill="#f0f"><path d="M13 14h1v1h-1zm2 0h1v1h-1zm2 0h1v1h-1zm2 0h1v1h-1z"/><path d="M21 14h1v1h-1zm2 0v1h1v1h2v-1h1v-1h-4zm5 0h1v1h-1zm-16 1h1v1h-1z"/><path d="M14 15h1v1h-1zm2 0h1v1h-1zm2 0h1v1h-1zm2 0h1v1h-1zm2 0h1v1h-1zm5 0h1v1h-1zm2 0h1v1h-1zm-19 0h1v1h-1z"/><path d="M11 14h1v1h-1zm-2 0h1v1H9zm27 0h1v1h-1zm-2 0h1v1h-1z"/><path d="M32 14h1v1h-1zm-2 0h1v1h-1zm7 1h1v1h-1zm-2 0h1v1h-1z"/><path d="M33 15h1v1h-1zm-2 0h1v1h-1zm8 0h1v1h-1z"/><path d="M38 14h1v1h-1zm2 0h1v1h-1z"/></g><g fill="gray"><path d="M9 17v1h2v1H9v1h2v1H9v1h3v-2h5v-3H9zm7 2h-3v-1h3v1zm6-2v3h6v-3h-6zm5 2h-4v-1h4v1zm14-1v-1h-8v3h5v2h3v-1h-2v-1h2v-1h-2v-1h2zm-7 1v-1h3v1h-3zm-16-9V9h-2V8h-2V7h-1V6h-1V5h-1v1H9v1h2v1H9v1h2v1H9v1h2v1H9v1h3v-1h1v1h2v-1h1v1h2v-1h1v1h2v-1h1v1h2v-3h-6z"/><path d="M10 4V3H9v2h2V4h-1zm30-1v1h-1v1h2V3h-1z"/><path d="M38 6h-1v1h-1v1h-2v1h-2v1h-6v3h2v-1h1v1h2v-1h1v1h2v-1h1v1h2v-1h1v1h3v-1h-2v-1h2v-1h-2V9h2V8h-2V7h2V6h-2V5h-1v1z"/></g></svg></g><g class="gotchi-handsDownClosed"><g class="gotchi-primary"><path d="M19 42h1v1h-1zm1-6h1v1h-1z"/><path d="M21 37h1v1h-1zm5 3v4h1v-4zm-5 3h-1v1h2v-1z"/><path d="M24 44h-2v1h4v-1h-1zm1-5h-1v1h2v-1z"/><path d="M23 38h-1v1h2v-1z"/></g><g class="gotchi-secondary"><path d="M19 43h1v1h-1zm5 2h-2v1h4v-1h-1z"/><path d="M27 41v3h1v-3zm-6 3h-1v1h2v-1z"/><path d="M26 44h1v1h-1zm-7-3h-1v2h1v-1z"/></g><g class="gotchi-primary"><path d="M44 42h1v1h-1zm-1-6h1v1h-1z"/><path d="M42 37h1v1h-1z"/><path d="M42 39v-1h-2v1h1zm0 4v1h2v-1h-1z"/><path d="M40 44h-2v1h4v-1h-1z"/><path d="M38 42v-2h-1v4h1v-1z"/><path d="M40 40v-1h-2v1h1z"/></g><g class="gotchi-secondary"><path d="M42 44v1h2v-1h-1zm-5-2v-1h-1v3h1v-1z"/><path d="M40 45h-2v1h4v-1h-1z"/><path d="M37 44h1v1h-1zm7-1h1v1h-1z"/></g></g><g class="gotchi-handsDownOpen"><g class="gotchi-primary"><path d="M56 38v-1h-2v-1h-2v-1h-1v-1h-1v-1h-1v8h1v1h2v1h4v-1h1v-4z"/></g><g class="gotchi-secondary"><path d="M54 38v-1h-2v-1h-1v-1h-1v-1h-1v6h1v1h2v1h4v-4z" /></g><path d="M54,38v-1h-2v-1h-1v-1h-1v-1h-1v5h1v1h2v1h4v-3H54z" fill="#fff"/><g class="gotchi-primary"><path d="M8 38v-1h2v-1h2v-1h1v-1h1v-1h1v8h-1v1h-2v1H8v-1H7v-4z"/></g><g class="gotchi-secondary"><path d="M10 38v-1h2v-1h1v-1h1v-1h1v6h-1v1h-2v1H8v-4z" /></g><path d="M8,38v3h4v-1h2v-1h1v-5h-1v1h-1v1h-1v1h-2v1H8z" fill="#fff"/></g><g class="gotchi-handsUp"><g class="gotchi-secondary"><path d="M50,38h1v1h-1V38z"/><path d="M49 39h1v1h-1v-1zm2-2h1v1h-1v-1z"/><path d="M52,36h2v1h-2V36z"/><path d="M54,35h2v1h-2V35z"/></g><path d="M52,32v1h-2v1h-1v5h1v-1h1v-1h1v-1h2v-1h2v-3H52z" fill="#fff"/><g class="gotchi-primary"><path d="M49,33h1v1h-1V33z"/><path d="M50 32h2v1h-2v-1zm0 7h1v1h-1v-1z"/><path d="M49 40h1v1h-1v-1zm2-2h1v1h-1v-1z"/><path d="M52 37h2v1h-2v-1zm0-6h4v1h-4v-1z"/><path d="M56,32h1v4h-1V32z"/><path d="M54,36h2v1h-2V36z"/></g><g class="gotchi-secondary"><path d="M13,38h1v1h-1V38z"/><path d="M14 39h1v1h-1v-1zm-2-2h1v1h-1v-1z"/><path d="M10,36h2v1h-2V36z"/><path d="M8,35h2v1H8V35z"/></g><path d="M8,32v3h2v1h2v1h1v1h1v1h1v-5h-1v-1h-2v-1H8z" fill="#fff"/><g class="gotchi-primary"><path d="M14,33h1v1h-1V33z"/><path d="M12 32h2v1h-2v-1zm1 7h1v1h-1v-1z"/><path d="M14 40h1v1h-1v-1zm-2-2h1v1h-1v-1z"/><path d="M10 37h2v1h-2v-1zm-2-6h4v1H8v-1z"/><path d="M7,32h1v4H7V32z"/><path d="M8,36h2v1H8V36z"/></g></g><g class="gotchi-wearable wearable-eyes"><svg x="18" y="19"><path d="M20 0v1h-.5v.5H19v.3h-1.5V2H16v2h-1v2h-2V4h-1V2h-1.5v-.2H9v-.3h-.5V1H8V0H0v13h13V8h2v5h12V0z" fill="#fff"/><path d="M24 5v1h-1V5h-1v1h-1V5h-1v1h-1V5h-1v1h-1v1h1v1h6V7h1V5h-1zM10 5H9v1H8V5H7v1H6V5H5v1H4V5H3v2h1v1h6V7h1V6h-1V5z"/></svg></g><g class="gotchi-wearable wearable-face"><svg x="21" y="32"><path d="M21 9v1h-1V8h-1V5h-1V2h-1V1h-1V0h-3v1h-1v1h-2V1H9V0H6v1H5v1H4v3H3v3H2v2H1V9H0v2h4v-1h1V9h1V8h1V7h1V6h1V5h1V4h2v1h1v1h1v1h1v1h1v1h1v1h1v1h4V9h-1z" fill="#5c2700"/><g fill="#724422"><path d="M5 5h1V3H5v2z"/><path d="M6 2v1h2V2H6zm10 1v2h1V3h-1z"/><path d="M14 2v1h2V2h-2z"/></g></svg></g><g class="gotchi-wearable wearable-head"><svg x="13" y="0"><path d="M36 22v-8h-2v-2h-2v-2h-4V8h-4V6h2V2h2V0h-6v2h-2v2h-2v2h-4v2h-4v2H6v2H4v2H2v8H0v6h2v2h34v-2h2v-6h-2z" fill="#333"/><path d="M32 22v-2h-4v-2h-4v-2h-4v-2h-2v2h-4v2h-4v2H6v2H2v2h2v2H2v2h34v-2h-2v-2h2v-2h-4zM8 27v-5h2v5H8zm6 0v-7h2v7h-2zm8 0v-7h2v7h-2zm6 0v-5h2v5h-2z" fill="#bfbfbf"/><path d="M32 14v-2h-4v-2h-4V8H14v2h-4v2H6v2H4v6h2v-2h4v-2h4v-2h4v-2h2v2h4v2h4v2h4v2h2v-6h-2z" fill="gray"/><path d="M22 0v2h-2v2h-2v4h6V6h2V2h2V0h-6z" fill="#9600bd"/><path d="M22 2v2h-2v2h4V2h-2z" fill="#f0f"/></svg></g>"><svg x="7" y="31"><g><g class="gotchi-sleeves gotchi-sleeves-left gotchi-sleeves-up"><path d="M43 10V9h1V8h1V7h2V6h2V5h1V1h-1V0h-4v1h-2v1h-1.5v8H43z" fill="#333"/><path d="M43 9V3h-1v6h1z" fill="gray"/><path d="M47 6V5h2V1h-3v5h1z" fill="#e6e6e6"/><path d="M45 7V2h-1v5h1z" fill="#bfbfbf"/></g><g class="gotchi-sleeves gotchi-sleeves-left gotchi-sleeves-down"><path d="M43 2v1h1v1h1v1h2v1h2v1h1v4h-1v1h-4v-1h-2v-1h-1.5V2H43z" fill="#333"/><path d="M43 3v6h-1V3h1z" fill="gray"/><path d="M47 6v1h2v4h-3V6h1z" fill="#e6e6e6"/><path d="M45 5v5h-1V5h1z" fill="#bfbfbf"/></g><g class="gotchi-sleeves gotchi-sleeves-right gotchi-sleeves-up"><path d="M7 10V9H6V8H5V7H3V6H1V5H0V1h1V0h4v1h2v1h1.5v8H7z" fill="#333"/><path d="M7 9V3h1v6H7z" fill="gray"/><path d="M3 6V5H1V1h3v5H3z" fill="#e6e6e6"/><path d="M5 7V2h1v5H5z" fill="#bfbfbf"/></g><g class="gotchi-sleeves gotchi-sleeves-right gotchi-sleeves-down"><path d="M7 2v1H6v1H5v1H3v1H1v1H0v4h1v1h4v-1h2v-1h1.5V2H7z" fill="#333"/><path d="M7 3v6h1V3H7z" fill="gray"/><path d="M3 6v1H1v4h3V6H3z" fill="#e6e6e6"/><path d="M5 5v5h1V5H5z" fill="#bfbfbf"/></g></g></svg><g class="gotchi-wearable wearable-hand wearable-hand-left"><svg x="1" y="31"><path d="M17 4V3h-1V2h-2V1h-2V0H6v1H4v1H2v1H1v1H0v1h1v1h1v1h1v1h1v1h1v1h1v1h1v1h4v-1h1v-1h1V9h1V8h1V7h1V6h1V5h1V4h-1z"/><g fill="red"><path d="M10 10h1v1h-1zm-3 0h1v1H7z"/><path d="M8 9v1h2V9H8z"/></g><path d="M11 8V7H7v1H6v1h2V8h2v1h2V8h-1z" fill="#ff0"/><g fill="#fff"><path d="M6 2h1v1H6z"/><path d="M7 3h1v1H7zM5 3h1v1H5zM3 3h1v1H3z"/><path d="M4 4h1v1H4zm2 0h1v1H6z"/><path d="M5 5h1v1H5zm3-1v1h2V4H8z"/><path d="M10 3h1v1h-1z"/><path d="M11 2h1v1h-1zm2 0h1v1h-1z"/><path d="M14 3h1v1h-1z"/><path d="M15 4v1h-1v1h-1v1h-1v1h2V7h1V6h1V5h1V4h-2z"/><path d="M13 4h1v1h-1z"/><path d="M12 5h1v1h-1z"/><path d="M11 6h1v1h-1zm1-3h1v1h-1z"/><path d="M11 4h1v1h-1z"/><path d="M10 5h1v1h-1zM7 5h1v1H7z"/><path d="M6 6h1v1H6z"/><path d="M5 6H4V5H3V4H1v1h1v1h1v1h1v1h2V7H5V6zM4 2h1v1H4zm4 1h2V2h1V1H7v1h1v1z"/></g></svg></g><g class="gotchi-wearable wearable-hand wearable-hand-right"><svg x="1" y="31"><g transform="scale(-1, 1) translate(-62, 0)"><path d="M17 4V3h-1V2h-2V1h-2V0H6v1H4v1H2v1H1v1H0v1h1v1h1v1h1v1h1v1h1v1h1v1h1v1h4v-1h1v-1h1V9h1V8h1V7h1V6h1V5h1V4h-1z"/><g fill="red"><path d="M10 10h1v1h-1zm-3 0h1v1H7z"/><path d="M8 9v1h2V9H8z"/></g><path d="M11 8V7H7v1H6v1h2V8h2v1h2V8h-1z" fill="#ff0"/><g fill="#fff"><path d="M6 2h1v1H6z"/><path d="M7 3h1v1H7zM5 3h1v1H5zM3 3h1v1H3z"/><path d="M4 4h1v1H4zm2 0h1v1H6z"/><path d="M5 5h1v1H5zm3-1v1h2V4H8z"/><path d="M10 3h1v1h-1z"/><path d="M11 2h1v1h-1zm2 0h1v1h-1z"/><path d="M14 3h1v1h-1z"/><path d="M15 4v1h-1v1h-1v1h-1v1h2V7h1V6h1V5h1V4h-2z"/><path d="M13 4h1v1h-1z"/><path d="M12 5h1v1h-1z"/><path d="M11 6h1v1h-1zm1-3h1v1h-1z"/><path d="M11 4h1v1h-1z"/><path d="M10 5h1v1h-1zM7 5h1v1H7z"/><path d="M6 6h1v1H6z"/><path d="M5 6H4V5H3V4H1v1h1v1h1v1h1v1h2V7H5V6zM4 2h1v1H4zm4 1h2V2h1V1H7v1h1v1z"/></g></g></svg></g><g class="gotchi-wearable wearable-pet"><svg x="3" y="2"><g fill="#9600bd"><path d="M13 1v1h-1v1H9V2H8v2H7V2H6v1H3V2H2V1H0v5h1v1h1v1h1v1H2v1H1v3h1v1h3v-1h1v-1h1v-1h1v1h1v1h1v1h3v-1h1v-3h-1V9h-1V8h1V7h1V6h1V1h-2z"/><path d="M5 1h1v1H5z"/><path d="M4 0h1v1H4zm5 1h1v1H9z"/><path d="M10 0h1v1h-1z"/></g><g fill="#f0f"><path d="M7 5h1v1H7z"/><path d="M13 2v1h-1v2h-1v1H8v5h1v1h1v1h3v-3h-1V9H9V8h3V7h1V6h1V2h-1zM5 6H4V5H3V3H2V2H1v4h1v1h1v1h3v1H3v1H2v3h3v-1h1v-1h1V6H5z"/></g><g fill="#ff8bff"><path d="M6 7H4V6H3V5H2V3H1v3h1v1h1v1h3v1h1V6H6v1zm7-4v2h-1v1h-1v1H9V6H8v3h1V8h3V7h1V6h1V3h-1z"/><path d="M9 11h1v1h3v-1h-1v-1h-1V9H9v2zM4 9v1H3v1H2v1h3v-1h1V9H4z"/></g><path d="M4 3v2h3V3H4zm4 0v2h3V3H8z" fill="#fff"/><path d="M4 3v1h1v1h1V4h1V3H4zm4 0v1h1v1h1V4h1V3H8z"/></svg></g></svg>