<svg xmlns="http://www.w3.org/2000/svg" viewBox="0 0 64 64"><g class="gotchi-bg"><defs fill="#fff"><pattern id="a" patternUnits="userSpaceOnUse" width="4" height="4"><path d="M0 0h1v1H0zm2 2h1v1H2z"/></pattern><pattern id="b" patternUnits="userSpaceOnUse" x="0" y="0" width="2" height="2"><path d="M0 0h1v1H0z"/></pattern><pattern id="c" patternUnits="userSpaceOnUse" x="-2" y="0" width="8" height="1"><path d="M0 0h1v1H0zm2 0h1v1H2zm2 0h1v1H4z"/></pattern><pattern id="d" patternUnits="userSpaceOnUse" x="0" y="0" width="4" height="4"><path d="M0 0h1v1H0zm0 2h1v1H0zm1 0V1h1v1zm1 0h1v1H2zm0-1h1V0H2zm1 2h1v1H3z"/></pattern><pattern id="e" patternUnits="userSpaceOnUse" width="64" height="32"><path d="M4 4h1v1H4zm7 0h1v1h-1zm7 0h1v1h-1zm7 0h1v1h-1zm7 0h1v1h-1zm7 0h1v1h-1zm7 0h1v1h-1zm7 0h1v1h-1zm7 0h1v1h-1z"/><path fill="url(#a)" d="M0 8h64v7H0z"/><path fill="url(#b)" d="M0 16h64v1H0z"/><path fill="url(#c)" d="M0 18h64v1H0z"/><path fill="url(#b)" d="M22 18h15v1H22zM0 20h64v3H0z"/><path fill="url(#d)" d="M0 24h64v8H0z"/></pattern><mask id="f"><path fill="url(#e)" d="M0 0h64v32H0z"/></mask></defs><path fill="#fff" d="M0 0h64v32H0z"/><path fill="#dea8ff" class="gotchi-secondary" mask="url(#f)" d="M0 0h64v32H0z"/><path fill="#dea8ff" class="gotchi-secondary" d="M0 32h64v32H0z"/><path mask="url(#f)" fill="#fff" transform="matrix(1 0 0 -1 0 64)" d="M0 0h64v32H0z"/></g><style>.gotchi-primary{fill:#FF7D00;}.gotchi-secondary{fill:#F9D792;}.gotchi-cheek{fill:#F4AF24;}.gotchi-eyeColor{fill:#36818E;}.gotchi-primary-mouth{fill:#FF7D00;}.gotchi-sleeves-up{display:none;}.gotchi-handsUp{display:none;}.gotchi-handsDownOpen{display:block;}.gotchi-handsDownClosed{display:none;}</style><g class="gotchi-bg"><defs fill="#fff"><pattern id="a" patternUnits="userSpaceOnUse" width="4" height="4"><path d="M0 0h1v1H0zm2 2h1v1H2z"/></pattern><pattern id="b" patternUnits="userSpaceOnUse" x="0" y="0" width="2" height="2"><path d="M0 0h1v1H0z"/></pattern><pattern id="c" patternUnits="userSpaceOnUse" x="-2" y="0" width="8" height="1"><path d="M0 0h1v1H0zm2 0h1v1H2zm2 0h1v1H4z"/></pattern><pattern id="d" patternUnits="userSpaceOnUse" x="0" y="0" width="4" height="4"><path d="M0 0h1v1H0zm0 2h1v1H0zm1 0V1h1v1zm1 0h1v1H2zm0-1h1V0H2zm1 2h1v1H3z"/></pattern><pattern id="e" patternUnits="userSpaceOnUse" width="64" height="32"><path d="M4 4h1v1H4zm7 0h1v1h-1zm7 0h1v1h-1zm7 0h1v1h-1zm7 0h1v1h-1zm7 0h1v1h-1zm7 0h1v1h-1zm7 0h1v1h-1zm7 0h1v1h-1z"/><path fill="url(#a)" d="M0 8h64v7H0z"/><path fill="url(#b)" d="M0 16h64v1H0z"/><path fill="url(#c)" d="M0 18h64v1H0z"/><path fill="url(#b)" d="M22 18h15v1H22zM0 20h64v3H0z"/><path fill="url(#d)" d="M0 24h64v8H0z"/></pattern><mask id="f"><path fill="url(#e)" d="M0 0h64v32H0z"/></mask></defs><path fill="#fff" d="M0 0h64v32H0z"/><path fill="#dea8ff" class="gotchi-secondary" mask="url(#f)" d="M0 0h64v32H0z"/><path fill="#dea8ff" class="gotchi-secondary" d="M0 32h64v32H0z"/><path mask="url(#f)" fill="#fff" transform="matrix(1 0 0 -1 0 64)" d="M0 0h64v32H0z"/></g><g class="gotchi-body"><g class="gotchi-primary"><path d="M21 12h2v-2h-4v2h1z"/><path d="M19 14v-2h-2v2h1zm6-4h2V8h-4v2h1z"/><path d="M29 8h8V6H27v2h1zm16 6h2v-2h-2v1z"/><path d="M48 14h-1v39h-2v2h4V14zm-11-4h4V8h-4v1z"/><path d="M41 12h4v-2h-4v1zM17 53V14h-2v41h4v-2h-1z"/><path d="M24 51h-5v2h5v-1z"/><path d="M27 53h-3v2h5v-2h-1zm18-2h-5v2h5v-1z"/><path d="M35 51h-6v2h6v-1z"/><path d="M38 53h-3v2h5v-2h-1z"/></g><g class="gotchi-secondary"><path d="M18 43v6h2v-1h2v1h2v2h-5v2h-2V14h2v1h-1v26z"/><path d="M27 51h-3v2h5v-2h-1zm11 0h-3v2h5v-2h-1z"/><path d="M35 49h-2v-1h-2v1h-2v2h6v-1zM25 11h2v-1h-4v1h1zm-4 2h2v-1h-4v1h1zm24 31v5h-1v-1h-2v1h-2v2h5v2h2V14h-2v29z"/><path d="M37 8H27v1h5v1h5V9zm8 4h-4v2h4v-1z"/><path d="M41 10h-4v2h4v-1z"/></g><path d="M44 14h-3v-2h-4v-2h-5V9h-5v2h-4v2h-4v2h-1v34h2v-1h2v1h2v2h5v-2h2v-1h2v1h2v2h5v-2h2v-1h2v1h1V14z" fill="#fff"/></g><path class="gotchi-cheek" d="M21 32v2h2v-2h-1zm21 0h-1v2h2v-2z"/><g class="gotchi-primary-mouth"><path d="M29 32h-2v2h2v-1z"/><path d="M33 34h-4v2h6v-2h-1z"/><path d="M36 32h-1v2h2v-2z"/></g><g class="gotchi-shadow"><path opacity=".25" d="M25 58H19v1h1v1h24V59h1V58h-1z" fill="#000"/></g><g class="gotchi-collateral" fill="#ff7d00"><path d="M37 16v-1h-1v-1h-1v1h-6v-2h5v-1h-6v3h-1v1h1v1h-1v1h1v3h6v-1h-5v-2h6v1h1v-1h1v-1h-1v-1h1zm-2 1h-6v-1h6v1z"/><path d="M34 19h1v1h-1zm0-6h1v1h-1z"/></g>
    <style>
        .gotchi-bg { display: none }
    </style>
<g class="gotchi-eyeColor"><g><path d="M25 24h-1v1h1v-1z" /><path d="M25 25h-1v1h1v-1z" /></g><g class="gotchi-primary"><path d="M28 27h-1v1h1v-1z" /><path d="M27 27h-1v1h1v-1zm1-5h-1v1h1v-1z" /><path d="M27 22h-1v1h1v-1zm-4 0h-1v1h1v-1z" /><path d="M24 22h-1v1h1v-1z" /></g><g><path d="M26 24h-1v1h1v-1z" /><path d="M26 25h-1v1h1v-1z" /></g><g class="gotchi-primary"><path d="M23 27h-1v1h1v-1z" /><path d="M24 27h-1v1h1v-1z" /></g><path d="M39 25h-1v1h1v-1z" /><g class="gotchi-primary"><path d="M38 27h-1v1h1v-1z" /><path d="M37 27h-1v1h1v-1zm4 0h-1v1h1v-1z" /><path d="M42 27h-1v1h1v-1z" /></g><path d="M38 24h1v1h-1" /><g class="gotchi-primary"><path d="M38 22h-1v1h1v-1z" /><path d="M37 22h-1v1h1v-1zm4 0h-1v1h1v-1z" /><path d="M42 22h-1v1h1v-1z" /></g><g><path d="M40 25h-1v1h1v-1z" /><path d="M40 24h-1v1h1v-1z" /></g></g><g class="gotchi-wearable wearable-body"><svg x="12" y="32"><path d="M37,1h-3v1h-1v1h-1v1h-1v1h-1v1h-1v1h-2v1h-2v1h-3v1h-4V9h-3V8h-2V7h-2V6h-1V5H9V4H8V3H7V2H6V1H3v20h34V1z" fill="#009696"/><g fill="#00ffe1"><path d="M34 2v1h-1v1h-1v1h-1v1h-1v1h-1v1h-2v1h-2v1h-3v1h-4v-1h-3V9h-2V8h-2V7h-1V6H9V5H8V4H7V3H6V2H4v18h32V2h-2zM24 19h-2v-1h-1v1h-2v-1h-1v1h-2v-5h1v-1h1v-1h4v1h1v1h1v5z"/><path d="M23 14h-1v-1h-4v1h-1v4h1v-1h1v1h2v-1h1v1h1v-4zm-2.5 3h-1v-3h1v3z"/></g><path d="M37 1h-3v1h-1v1h-2v1h-2v1h-2v1h-2v15h12V1zM3 21h12V6h-2V5h-2V4H9V3H7V2H6V1H3v20z" fill="#323232"/><path d="M34 2v1h-1v1h-2v1h1v1h1v1h-1v1h-1v1h-1v1h-1v1h-1v1h-1v1h-1v7h10V2h-2zm0 14h-4v-1h4v1z"/><path d="M28 11v-1h1V9h1V8h1V7h1V6h-1V5h-2v1h-2v1h-1v5h1v-1h1zM13 6h-2V5H9v1H8v1h1v1h1v1h1v1h1v1h1v1h1V7h-1V6z"/><path d="M12 11h-1v-1h-1V9H9V8H8V7H7V6h1V5h1V4H7V3H6V2H4v18h10v-7h-1v-1h-1v-1zm-2 5H6v-1h4v1z"/></svg></g><g class="gotchi-handsDownClosed"><g class="gotchi-primary"><path d="M19 42h1v1h-1zm1-6h1v1h-1z"/><path d="M21 37h1v1h-1zm5 3v4h1v-4zm-5 3h-1v1h2v-1z"/><path d="M24 44h-2v1h4v-1h-1zm1-5h-1v1h2v-1z"/><path d="M23 38h-1v1h2v-1z"/></g><g class="gotchi-secondary"><path d="M19 43h1v1h-1zm5 2h-2v1h4v-1h-1z"/><path d="M27 41v3h1v-3zm-6 3h-1v1h2v-1z"/><path d="M26 44h1v1h-1zm-7-3h-1v2h1v-1z"/></g><g class="gotchi-primary"><path d="M44 42h1v1h-1zm-1-6h1v1h-1z"/><path d="M42 37h1v1h-1z"/><path d="M42 39v-1h-2v1h1zm0 4v1h2v-1h-1z"/><path d="M40 44h-2v1h4v-1h-1z"/><path d="M38 42v-2h-1v4h1v-1z"/><path d="M40 40v-1h-2v1h1z"/></g><g class="gotchi-secondary"><path d="M42 44v1h2v-1h-1zm-5-2v-1h-1v3h1v-1z"/><path d="M40 45h-2v1h4v-1h-1z"/><path d="M37 44h1v1h-1zm7-1h1v1h-1z"/></g></g><g class="gotchi-handsDownOpen"><g class="gotchi-primary"><path d="M14 40h1v1h-1v-1zm-1-6h1v1h-1v-1z"/><path d="M14 33h1v1h-1v-1zm-2 2h1v1h-1v-1zm-5 3h1v4H7v-4zm5 3h2v1h-2v-1z"/><path d="M8 42h4v1H8v-1zm0-5h2v1H8v-1z"/><path d="M10,36h2v1h-2V36z"/></g><g class="gotchi-secondary"><path d="M14,39h1v1h-1V39z"/><path d="M12,40h2v1h-2V40z"/><path d="M8,41h4v1H8V41z"/></g><path d="M8,38v3h4v-1h2v-1h1v-5h-1v1h-1v1h-1v1h-2v1H8z" fill="#fff" /><g class="gotchi-primary"><path d="M49 40h1v1h-1v-1zm1-6h1v1h-1v-1z"/><path d="M49 33h1v1h-1v-1zm2 2h1v1h-1v-1zm5 3h1v4h-1v-4zm-6 3h2v1h-2v-1z"/><path d="M52 42h4v1h-4v-1zm2-5h2v1h-2v-1z"/><path d="M52,36h2v1h-2V36z"/></g><g class="gotchi-secondary"><path d="M49,39h1v1h-1V39z"/><path d="M50,40h2v1h-2V40z"/><path d="M52,41h4v1h-4V41z"/></g><path d="M54,38v-1h-2v-1h-1v-1h-1v-1h-1v5h1v1h2v1h4v-3H54z" fill="#fff" /></g><g class="gotchi-handsUp"><g class="gotchi-secondary"><path d="M50,38h1v1h-1V38z"/><path d="M49 39h1v1h-1v-1zm2-2h1v1h-1v-1z"/><path d="M52,36h2v1h-2V36z"/><path d="M54,35h2v1h-2V35z"/></g><path d="M52,32v1h-2v1h-1v5h1v-1h1v-1h1v-1h2v-1h2v-3H52z" fill="#fff"/><g class="gotchi-primary"><path d="M49,33h1v1h-1V33z"/><path d="M50 32h2v1h-2v-1zm0 7h1v1h-1v-1z"/><path d="M49 40h1v1h-1v-1zm2-2h1v1h-1v-1z"/><path d="M52 37h2v1h-2v-1zm0-6h4v1h-4v-1z"/><path d="M56,32h1v4h-1V32z"/><path d="M54,36h2v1h-2V36z"/></g><g class="gotchi-secondary"><path d="M13,38h1v1h-1V38z"/><path d="M14 39h1v1h-1v-1zm-2-2h1v1h-1v-1z"/><path d="M10,36h2v1h-2V36z"/><path d="M8,35h2v1H8V35z"/></g><path d="M8,32v3h2v1h2v1h1v1h1v1h1v-5h-1v-1h-2v-1H8z" fill="#fff"/><g class="gotchi-primary"><path d="M14,33h1v1h-1V33z"/><path d="M12 32h2v1h-2v-1zm1 7h1v1h-1v-1z"/><path d="M14 40h1v1h-1v-1zm-2-2h1v1h-1v-1z"/><path d="M10 37h2v1h-2v-1zm-2-6h4v1H8v-1z"/><path d="M7,32h1v4H7V32z"/><path d="M8,36h2v1H8V36z"/></g></g><g class="gotchi-wearable wearable-face"><svg x="9" y="18"><path d="M5 2H4V0H0v6h2v4h2v2h2V2z" fill="#64438e"/><path d="M5 4H4V2H2v4h2v4h2V4z" fill="#b464ed"/><g fill="#edd3fd"><path d="M4 4H2v2h2V5z"/><path d="M5 6H4v4h2V6z"/></g><path d="M41 2h1V0h4v6h-2v4h-2v2h-2V2z" fill="#64438e"/><path d="M41 4h1V2h2v4h-2v4h-2V4z" fill="#b464ed"/><g fill="#edd3fd"><path d="M42 4h2v2h-2V5z"/><path d="M41 6h1v4h-2V6z"/></g></svg></g><g class="gotchi-wearable wearable-head"><svg x="12" y="2"><path d="M3 29h1v-1h1v-9h30v9h1v1h1v1h3v-6h-1v-7h-1v-6h-1V7h-2V5h-2V3h-2V2h-4V1h-4V0h-6v1h-4v1H9v1H7v2H5v2H3v4H2v6H1v7H0v6h3v-1h0z"/><g fill="#232323"><path d="M5,18v1h30v-1H5z"/><path d="M4 27H3v2h1v-1h1v-9H4v8z"/><path d="M2 29H1v1h2v-2H2v1zm36 0v-1h-1v-1h-1v-8h-1v9h1v1h1v1h2v-1h-1z"/></g><g fill="#646464"><path d="M5,17v1h30v-1H5z"/><path d="M35 18h1v1h-1v-1zM4 18h1v1H4v-1z"/><path d="M3 27h1v-8H3v8zm34 0v-8h-1v8h1v1h1v-1h-1z"/><path d="M2 27h1v1H2v-1zm36 1h1v1h-1v-1z"/><path d="M1 28h1v1H1v-1zm38 1h1v1h-1v-1z"/><path d="M0,29h1v1H0V29z"/></g><path d="M25.5 3v1h-1v1h-1v1h-1v1h-1v1h-1v1h3v1h-1v1h-1v1h-1v1h-1v-1h-1v-1h-1v-1h-1V9h3V8h-1V7h-1V6h-1V5h-1V4h-1V3h-4v1h1v1h1v1h1v1h1v1h-3v1h1v1h1v1h1v1h1v1h1v1h1v1h1v1h3v-1h1v-1h1v-1h1v-1h1v-1h1v-1h1V9h1V8h-3V7h1V6h1V5h1V4h1V3h-4z" fill="#a000dc"/><path d="M25.5 3v1h-1v1h-1v1h-1v1h-1v1h-1v1h3v1h-1v1h-1v1h-1v1h-1v-1h-1v-1h-1v-1h-1V9h3V8h-1V7h-1V6h-1V5h-1V4h-1V3h-3v1h1v1h1v1h1v1h1v1h-3v1h1v1h1v1h1v1h1v1h1v1h1v1h1v1h1v-1h1v-1h1v-1h1v-1h1v-1h1v-1h1V9h1V8h-3V7h1V6h1V5h1V4h1V3h-3z" fill="#c02df0"/><g fill="#d778f5"><path d="M19.5,13h1v1h-1V13z"/><path d="M18.5,12h1v1h-1V12z"/><path d="M17.5,11h1v1h-1V11z"/><path d="M16.5 10h1v1h-1v-1zm-3-7h1v1h-1V3z"/><path d="M14.5,4h1v1h-1V4z"/><path d="M15.5,5h1v1h-1V5z"/><path d="M16.5,6h1v1h-1V6z"/><path d="M17.5 7h1v1h-1V7zm-2 2h1v1h-1V9z"/><path d="M18.5 8h1v1h-1V8zm2 4h1v1h-1v-1z"/><path d="M21.5,11h1v1h-1V11z"/><path d="M22.5 10h1v1h-1v-1zm3-7h1v1h-1V3z"/><path d="M24.5,4h1v1h-1V4z"/><path d="M23.5,5h1v1h-1V5z"/><path d="M22.5,6h1v1h-1V6z"/><path d="M21.5 7h1v1h-1V7zm2 2h1v1h-1V9z"/><path d="M20.5,8h1v1h-1V8z"/></g></svg></g>"><svg x="12" y="32"><g><g class="gotchi-sleeves gotchi-sleeves-left gotchi-sleeves-up"><path d="M36.7,9V1H38V0h2v7h-1v1h-1v1H36.7z" fill="#323232"/><path d="M37,8V2h1V1h1v6h-1v1H37z"/></g><g class="gotchi-sleeves gotchi-sleeves-left gotchi-sleeves-down"><path d="M38,1v1h1v1h1v7h-2V9h-1.3V1H38z" fill="#323232"/><path d="M38 2v1h1v6h-1V8h-1V2h1z"/></g><g class="gotchi-sleeves gotchi-sleeves-right gotchi-sleeves-up"><path d="M2,9V8H1V7H0V0h2v1h1.3v8H2z" fill="#323232"/><path d="M2,8V7H1V1h1v1h1v6H2z"/></g><g class="gotchi-sleeves gotchi-sleeves-right gotchi-sleeves-down"><path d="M2,1v1H1v1H0v7h2V9h1.3V1H2z" fill="#323232"/><path d="M2,2v1H1v6h1V8h1V2H2z"/></g></g></svg><g class="gotchi-wearable wearable-hand wearable-hand-left"><svg x="2" y="23"><g fill="#e4c599"><path d="M9 14h1v-1H8v1h1z"/><path d="M7 13h1v-2H7v2zm0-4v1h2V9H7z"/><path d="M9 8h1v1H9z"/><path d="M10 7h1v1h-1z"/><path d="M11 3v4h1V3h-1z"/><path d="M10 2h1v1h-1z"/><path d="M9 1h1v1H9z"/><path d="M5 1h4V0H3v1h2zM1 2h1v1H1z"/><path d="M2 1h1v1H2zM1 5V3H0v4h1V5z"/><path d="M1 7h1v1H1z"/><path d="M2 8h1v1H2z"/><path d="M4 9H3v1h2V9H4z"/><path d="M5 10v1h2v-1H5zm5 6h1v-2h-1v2z"/><path d="M11 18v1h1v-3h-1v2z"/><path d="M10 19h1v1h-1z"/><path d="M8 20H6v1h4v-1H8z"/><path d="M5 21h1v1H5z"/><path d="M4 23v1h1v-2H4v1z"/><path d="M5 24h1v1H5z"/><path d="M6 25h1v1H6z"/></g><path d="M7 12h1v1H7zm-1-2h1v1H6zm2-1h1v1H8zm2-2h1v1h-1zm1-2h1v1h-1zm0-2h1v1h-1zM9 1h1v1H9zM7 0h1v1H7zM5 0h1v1H5zM3 0h1v1H3zM1 2h1v1H1zM0 4h1v1H0zm0 2h1v1H0zm2 2h1v1H2zm2 1h1v1H4zm5 4h1v1H9zm1 2h1v1h-1zm1 2h1v1h-1zm-1 2h1v1h-1zm-2 1h1v1H8zm-2 0h1v1H6zm-2 2h1v1H4zm1 2h1v1H5z" fill="#a97955"/></svg></g><g class="gotchi-wearable wearable-hand wearable-hand-right"><svg x="2" y="23"><g transform="scale(-1, 1) translate(-60, 0)"><g fill="#e4c599"><path d="M9 14h1v-1H8v1h1z"/><path d="M7 13h1v-2H7v2zm0-4v1h2V9H7z"/><path d="M9 8h1v1H9z"/><path d="M10 7h1v1h-1z"/><path d="M11 3v4h1V3h-1z"/><path d="M10 2h1v1h-1z"/><path d="M9 1h1v1H9z"/><path d="M5 1h4V0H3v1h2zM1 2h1v1H1z"/><path d="M2 1h1v1H2zM1 5V3H0v4h1V5z"/><path d="M1 7h1v1H1z"/><path d="M2 8h1v1H2z"/><path d="M4 9H3v1h2V9H4z"/><path d="M5 10v1h2v-1H5zm5 6h1v-2h-1v2z"/><path d="M11 18v1h1v-3h-1v2z"/><path d="M10 19h1v1h-1z"/><path d="M8 20H6v1h4v-1H8z"/><path d="M5 21h1v1H5z"/><path d="M4 23v1h1v-2H4v1z"/><path d="M5 24h1v1H5z"/><path d="M6 25h1v1H6z"/></g><path d="M7 12h1v1H7zm-1-2h1v1H6zm2-1h1v1H8zm2-2h1v1h-1zm1-2h1v1h-1zm0-2h1v1h-1zM9 1h1v1H9zM7 0h1v1H7zM5 0h1v1H5zM3 0h1v1H3zM1 2h1v1H1zM0 4h1v1H0zm0 2h1v1H0zm2 2h1v1H2zm2 1h1v1H4zm5 4h1v1H9zm1 2h1v1h-1zm1 2h1v1h-1zm-1 2h1v1h-1zm-2 1h1v1H8zm-2 0h1v1H6zm-2 2h1v1H4zm1 2h1v1H5z" fill="#a97955"/></g></svg></g></svg>