<svg xmlns="http://www.w3.org/2000/svg" viewBox="0 0 64 64"><g class="gotchi-bg"><defs fill="#fff"><pattern id="a" patternUnits="userSpaceOnUse" width="4" height="4"><path d="M0 0h1v1H0zm2 2h1v1H2z"/></pattern><pattern id="b" patternUnits="userSpaceOnUse" x="0" y="0" width="2" height="2"><path d="M0 0h1v1H0z"/></pattern><pattern id="c" patternUnits="userSpaceOnUse" x="-2" y="0" width="8" height="1"><path d="M0 0h1v1H0zm2 0h1v1H2zm2 0h1v1H4z"/></pattern><pattern id="d" patternUnits="userSpaceOnUse" x="0" y="0" width="4" height="4"><path d="M0 0h1v1H0zm0 2h1v1H0zm1 0V1h1v1zm1 0h1v1H2zm0-1h1V0H2zm1 2h1v1H3z"/></pattern><pattern id="e" patternUnits="userSpaceOnUse" width="64" height="32"><path d="M4 4h1v1H4zm7 0h1v1h-1zm7 0h1v1h-1zm7 0h1v1h-1zm7 0h1v1h-1zm7 0h1v1h-1zm7 0h1v1h-1zm7 0h1v1h-1zm7 0h1v1h-1z"/><path fill="url(#a)" d="M0 8h64v7H0z"/><path fill="url(#b)" d="M0 16h64v1H0z"/><path fill="url(#c)" d="M0 18h64v1H0z"/><path fill="url(#b)" d="M22 18h15v1H22zM0 20h64v3H0z"/><path fill="url(#d)" d="M0 24h64v8H0z"/></pattern><mask id="f"><path fill="url(#e)" d="M0 0h64v32H0z"/></mask></defs><path fill="#fff" d="M0 0h64v32H0z"/><path fill="#dea8ff" class="gotchi-secondary" mask="url(#f)" d="M0 0h64v32H0z"/><path fill="#dea8ff" class="gotchi-secondary" d="M0 32h64v32H0z"/><path mask="url(#f)" fill="#fff" transform="matrix(1 0 0 -1 0 64)" d="M0 0h64v32H0z"/></g><style>.gotchi-primary{fill:#824EE2;}.gotchi-secondary{fill:#E6DCF9;}.gotchi-cheek{fill:#F696C6;}.gotchi-eyeColor{fill:#51FFA8;}.gotchi-primary-mouth{fill:#824EE2;}.gotchi-sleeves-up{display:none;}.gotchi-handsUp{display:none;}.gotchi-handsDownOpen{display:block;}.gotchi-handsDownClosed{display:none;}</style><g class="gotchi-bg"><defs fill="#fff"><pattern id="a" patternUnits="userSpaceOnUse" width="4" height="4"><path d="M0 0h1v1H0zm2 2h1v1H2z"/></pattern><pattern id="b" patternUnits="userSpaceOnUse" x="0" y="0" width="2" height="2"><path d="M0 0h1v1H0z"/></pattern><pattern id="c" patternUnits="userSpaceOnUse" x="-2" y="0" width="8" height="1"><path d="M0 0h1v1H0zm2 0h1v1H2zm2 0h1v1H4z"/></pattern><pattern id="d" patternUnits="userSpaceOnUse" x="0" y="0" width="4" height="4"><path d="M0 0h1v1H0zm0 2h1v1H0zm1 0V1h1v1zm1 0h1v1H2zm0-1h1V0H2zm1 2h1v1H3z"/></pattern><pattern id="e" patternUnits="userSpaceOnUse" width="64" height="32"><path d="M4 4h1v1H4zm7 0h1v1h-1zm7 0h1v1h-1zm7 0h1v1h-1zm7 0h1v1h-1zm7 0h1v1h-1zm7 0h1v1h-1zm7 0h1v1h-1zm7 0h1v1h-1z"/><path fill="url(#a)" d="M0 8h64v7H0z"/><path fill="url(#b)" d="M0 16h64v1H0z"/><path fill="url(#c)" d="M0 18h64v1H0z"/><path fill="url(#b)" d="M22 18h15v1H22zM0 20h64v3H0z"/><path fill="url(#d)" d="M0 24h64v8H0z"/></pattern><mask id="f"><path fill="url(#e)" d="M0 0h64v32H0z"/></mask></defs><path fill="#fff" d="M0 0h64v32H0z"/><path fill="#dea8ff" class="gotchi-secondary" mask="url(#f)" d="M0 0h64v32H0z"/><path fill="#dea8ff" class="gotchi-secondary" d="M0 32h64v32H0z"/><path mask="url(#f)" fill="#fff" transform="matrix(1 0 0 -1 0 64)" d="M0 0h64v32H0z"/></g><g class="gotchi-body"><g class="gotchi-primary"><path d="M21 12h2v-2h-4v2h1z"/><path d="M19 14v-2h-2v2h1zm6-4h2V8h-4v2h1z"/><path d="M29 8h8V6H27v2h1zm16 6h2v-2h-2v1z"/><path d="M48 14h-1v39h-2v2h4V14zm-11-4h4V8h-4v1z"/><path d="M41 12h4v-2h-4v1zM17 53V14h-2v41h4v-2h-1z"/><path d="M24 51h-5v2h5v-1z"/><path d="M27 53h-3v2h5v-2h-1zm18-2h-5v2h5v-1z"/><path d="M35 51h-6v2h6v-1z"/><path d="M38 53h-3v2h5v-2h-1z"/></g><g class="gotchi-secondary"><path d="M18 43v6h2v-1h2v1h2v2h-5v2h-2V14h2v1h-1v26z"/><path d="M27 51h-3v2h5v-2h-1zm11 0h-3v2h5v-2h-1z"/><path d="M35 49h-2v-1h-2v1h-2v2h6v-1zM25 11h2v-1h-4v1h1zm-4 2h2v-1h-4v1h1zm24 31v5h-1v-1h-2v1h-2v2h5v2h2V14h-2v29z"/><path d="M37 8H27v1h5v1h5V9zm8 4h-4v2h4v-1z"/><path d="M41 10h-4v2h4v-1z"/></g><path d="M44 14h-3v-2h-4v-2h-5V9h-5v2h-4v2h-4v2h-1v34h2v-1h2v1h2v2h5v-2h2v-1h2v1h2v2h5v-2h2v-1h2v1h1V14z" fill="#fff"/></g><path class="gotchi-cheek" d="M21 32v2h2v-2h-1zm21 0h-1v2h2v-2z"/><g class="gotchi-primary-mouth"><path d="M29 32h-2v2h2v-1z"/><path d="M33 34h-4v2h6v-2h-1z"/><path d="M36 32h-1v2h2v-2z"/></g><g class="gotchi-shadow"><path opacity=".25" d="M25 58H19v1h1v1h24V59h1V58h-1z" fill="#000"/></g><g class="gotchi-collateral"><path d="M37.25 17.04v-.75h-.75v-.75h-.75v-.75H33.5v.75h-.75v.75h-1.5v.75h-.75v.75h-2.25v-.75h-.75v-2.25h.75v-.75h2.25v.75h.75v.75H32v-1.5h-.75v-.75h-.75v-.75h-2.25v.75h-.75v.75h-.75v.75H26v2.25h.75v.75h.75v.75h.75v.75h2.25v-.75h.75v-.75h1.5v-.75h.75v-.75h2.25v.75h.75v2.25h-.75v.75H33.5v-.75h-.75v-.75H32v1.5h.75v.75h.75v.75h2.25v-.75h.75v-.75h.75v-.75H38v-2.25h-.75z" fill="#824ee2"/></g>
    <style>
        .gotchi-bg { display: none }
    </style>
<g class="gotchi-eyeColor"><path d="M28 22H27V21H26H25H24H23V22H22V23H21V24V25V26V27H22V28H23V29H24H25H26H27V28H28V27H29V26V25V24V23H28V22Z" /><path d="M42 23V22H41V21H40H39H38H37V22H36V23H35V24V25V26V27H36V28H37V29H38H39H40H41V28H42V27H43V26V25V24V23H42Z" /></g><g class="gotchi-wearable wearable-body"><svg x="15" y="33"><path d="M31,0v1h-1v1h-1v1h-1v1h-1v1h-1v1h-2v1h-2v1h-3v1h-4V8h-3V7h-2V6H8V5H7V4H6V3H5V2H4V1H3V0H0v20h34V0H31z" fill="#a000dc"/><path d="M31 1v1h-1v1h-1v1h-1v1h-1v1h-1v1h-2v1h-2v1h-3v1h-4V9h-3V8h-2V7H8V6H7V5H6V4H5V3H4V2H3V1H1v18h32V1h-2zm-8.75 9.96h-.55v.55h-.55v.55h-.55v.55h-.55v.55h1.66v.55h-.55v.55h-.55v.55h-.55v.55h-.55v.55h-.55v.55h-.55v.55h-.55v.55H16.2v-.55h-.55v-.55h-.55v-.55h-.55v-.55H14v-.55h-.55v-.55h-.55v-.55h-.6v-.55h1.66v-.55h-.55v-.55h-.55v-.55h-.56v-.55h-.55v-.55h2.21v.55h.55v.55h.55v.55h.55v.55h.55v.55h.55v.55h-1.66v.55h.55v.55h.55v.55h.55v.55h.55v-.55h.55v-.55h.55v-.55h.55v-.55h-1.66v-.55h.55v-.55h.55v-.55h.55v-.55h.55v-.55h.55v-.55h2.21v.55h.05 0z" fill="#d778f5"/><path d="M13 7h-1V6h-1V5h-1V4H8V3H6V2H4V1H3V0H0v20h14V8h-1V7zm18-7v1h-1v1h-2v1h-2v1h-2v1h-1v1h-1v1h-1v1h-1v12h14V0h-3z" fill="#232323"/><path d="M12 7h-1V6h-1V5H8V4H6V3H4V2H3V1H1v18h12V8h-1V7zm19-6v1h-1v1h-2v1h-2v1h-2v1h-1v1h-1v1h-1v11h12V1h-2z"/><path d="M4,8v1h1v1h2V9h1V8H4z" fill="#232323"/><path d="M5,8h2v1H5V8z" fill="#646464"/><path d="M26,8v1h1v1h2V9h1V8H26z" fill="#232323"/><path d="M27,8h2v1h-2V8z" fill="#646464"/><path d="M4 14v1h4v-1H4zm22 0v1h4v-1h-4z" fill="#232323"/><path d="M4 14h1v1H4v-1zm3 0h1v1H7v-1zm22 0h1v1h-1v-1zm-3 0h1v1h-1v-1zm-15 0h1v1h-1v-1zm0-2h1v1h-1v-1zm0 4h1v1h-1v-1zm0-6h1v1h-1v-1zm11 4h1v1h-1v-1zm0-2h1v1h-1v-1zm0 4h1v1h-1v-1zm0-6h1v1h-1v-1z" fill="#646464"/></svg></g><g class="gotchi-handsDownClosed"><g class="gotchi-primary"><path d="M19 42h1v1h-1zm1-6h1v1h-1z"/><path d="M21 37h1v1h-1zm5 3v4h1v-4zm-5 3h-1v1h2v-1z"/><path d="M24 44h-2v1h4v-1h-1zm1-5h-1v1h2v-1z"/><path d="M23 38h-1v1h2v-1z"/></g><g class="gotchi-secondary"><path d="M19 43h1v1h-1zm5 2h-2v1h4v-1h-1z"/><path d="M27 41v3h1v-3zm-6 3h-1v1h2v-1z"/><path d="M26 44h1v1h-1zm-7-3h-1v2h1v-1z"/></g><g class="gotchi-primary"><path d="M44 42h1v1h-1zm-1-6h1v1h-1z"/><path d="M42 37h1v1h-1z"/><path d="M42 39v-1h-2v1h1zm0 4v1h2v-1h-1z"/><path d="M40 44h-2v1h4v-1h-1z"/><path d="M38 42v-2h-1v4h1v-1z"/><path d="M40 40v-1h-2v1h1z"/></g><g class="gotchi-secondary"><path d="M42 44v1h2v-1h-1zm-5-2v-1h-1v3h1v-1z"/><path d="M40 45h-2v1h4v-1h-1z"/><path d="M37 44h1v1h-1zm7-1h1v1h-1z"/></g></g><g class="gotchi-handsDownOpen"><g class="gotchi-primary"><path d="M14 40h1v1h-1v-1zm-1-6h1v1h-1v-1z"/><path d="M14 33h1v1h-1v-1zm-2 2h1v1h-1v-1zm-5 3h1v4H7v-4zm5 3h2v1h-2v-1z"/><path d="M8 42h4v1H8v-1zm0-5h2v1H8v-1z"/><path d="M10,36h2v1h-2V36z"/></g><g class="gotchi-secondary"><path d="M14,39h1v1h-1V39z"/><path d="M12,40h2v1h-2V40z"/><path d="M8,41h4v1H8V41z"/></g><path d="M8,38v3h4v-1h2v-1h1v-5h-1v1h-1v1h-1v1h-2v1H8z" fill="#fff" /><g class="gotchi-primary"><path d="M49 40h1v1h-1v-1zm1-6h1v1h-1v-1z"/><path d="M49 33h1v1h-1v-1zm2 2h1v1h-1v-1zm5 3h1v4h-1v-4zm-6 3h2v1h-2v-1z"/><path d="M52 42h4v1h-4v-1zm2-5h2v1h-2v-1z"/><path d="M52,36h2v1h-2V36z"/></g><g class="gotchi-secondary"><path d="M49,39h1v1h-1V39z"/><path d="M50,40h2v1h-2V40z"/><path d="M52,41h4v1h-4V41z"/></g><path d="M54,38v-1h-2v-1h-1v-1h-1v-1h-1v5h1v1h2v1h4v-3H54z" fill="#fff" /></g><g class="gotchi-handsUp"><g class="gotchi-secondary"><path d="M50,38h1v1h-1V38z"/><path d="M49 39h1v1h-1v-1zm2-2h1v1h-1v-1z"/><path d="M52,36h2v1h-2V36z"/><path d="M54,35h2v1h-2V35z"/></g><path d="M52,32v1h-2v1h-1v5h1v-1h1v-1h1v-1h2v-1h2v-3H52z" fill="#fff"/><g class="gotchi-primary"><path d="M49,33h1v1h-1V33z"/><path d="M50 32h2v1h-2v-1zm0 7h1v1h-1v-1z"/><path d="M49 40h1v1h-1v-1zm2-2h1v1h-1v-1z"/><path d="M52 37h2v1h-2v-1zm0-6h4v1h-4v-1z"/><path d="M56,32h1v4h-1V32z"/><path d="M54,36h2v1h-2V36z"/></g><g class="gotchi-secondary"><path d="M13,38h1v1h-1V38z"/><path d="M14 39h1v1h-1v-1zm-2-2h1v1h-1v-1z"/><path d="M10,36h2v1h-2V36z"/><path d="M8,35h2v1H8V35z"/></g><path d="M8,32v3h2v1h2v1h1v1h1v1h1v-5h-1v-1h-2v-1H8z" fill="#fff"/><g class="gotchi-primary"><path d="M14,33h1v1h-1V33z"/><path d="M12 32h2v1h-2v-1zm1 7h1v1h-1v-1z"/><path d="M14 40h1v1h-1v-1zm-2-2h1v1h-1v-1z"/><path d="M10 37h2v1h-2v-1zm-2-6h4v1H8v-1z"/><path d="M7,32h1v4H7V32z"/><path d="M8,36h2v1H8V36z"/></g></g><g class="gotchi-wearable wearable-face"><svg x="9" y="18"><path d="M5 2H4V0H0v6h2v4h2v2h2V2z" fill="#64438e"/><path d="M5 4H4V2H2v4h2v4h2V4z" fill="#b464ed"/><g fill="#edd3fd"><path d="M4 4H2v2h2V5z"/><path d="M5 6H4v4h2V6z"/></g><path d="M41 2h1V0h4v6h-2v4h-2v2h-2V2z" fill="#64438e"/><path d="M41 4h1V2h2v4h-2v4h-2V4z" fill="#b464ed"/><g fill="#edd3fd"><path d="M42 4h2v2h-2V5z"/><path d="M41 6h1v4h-2V6z"/></g></svg></g><g class="gotchi-wearable wearable-eyes"><svg x="15" y="22"><path d="M2.1 7.9v-2h-2V2.1h2v-2h29.8v2h2v3.8h-2v2z"/><path d="M31.8.2v2h2v3.5h-2v2.1H2.2v-2h-2V2.2h2v-2h29.6M32 0H2v2H0v4h2v2h30V6h2V2h-2V0z" fill="#c8c8c8"/><path d="M2 2h30v4H2z"/><path d="M26,2v4h2V2H26z" fill="#c260ff"/><g fill="#c8c8c8"><path d="M2,0h30v2H2V0z"/><path d="M0 2h2v4H0V2zm32 0h2v4h-2V2z"/><path d="M2,6h30v2H2V6z"/></g></svg></g><g class="gotchi-wearable wearable-head"><svg x="15" y="8"><path d="M33 8h-1V6h-2v2h-2V6h-2v2h-2V6h-2V4h-2V2h-2V0h-2v2h-2v2h-2v2h-2v2H8V6H6v2H4V6H2v2H0v2h34V8z" fill="#ffc03c"/><path d="M19 5V4h-1V3h-2v1h-1v1h-1v2h1v1h1v1h2V8h1V7h1V5z" fill="#ffd781"/><path d="M18 5V4h-2v1h-1v2h1v1h2V7h1V5z" fill="#ffeabe"/><path d="M17 5h-1v2h2V5z" fill="#64438e"/><path d="M17 5h-1v1h2V5z" fill="#715398"/></svg></g><g class="gotchi-wearable wearable-hand wearable-hand-left"><svg x="1" y="29"><g fill="#d3cadf"><path d="M2,0h1v1H2V0z"/><path d="M3,1h1v1H3V1z"/><path d="M4,2h1v1H4V2z"/><path d="M3,3h1v1H3V3z"/><path d="M2 4h1v2H2V4zm4-4h1v1H6V0z"/><path d="M7,1h1v1H7V1z"/><path d="M8,2h1v1H8V2z"/><path d="M7,3h1v1H7V3z"/><path d="M6,4h1v2H6V4z"/></g><g fill="#64438e"><path d="M0,5v9h1v1h8v-1h1v-2h2v-1h-2V8h2V7h-2V5H0z"/><path d="M12,8v3h1V8H12z"/></g><path d="M1 14h8V6H1v8z" fill="#fff"/><path d="M8,6v8h1V6H8z" fill="#d3cadf"/><path d="M7.1 8.3v-.9H5.4v.9h-.8v-.9H2.9v.9H2v1.8h.9v.9h.8v.9h.9v.9h.9v-.9h.8V11h.9v-.9H8V8.3h-.9z" fill="#fa34f3"/><path d="M4.6 11.9h.9v.9h-.9v-.9z" fill="#7e18f8"/><path d="M3.7 11v.9h2.6V11H3.7h0z" fill="#8f17f9"/><path d="M2.9 10.1v.9h4.3v-.9H2.9z" fill="#ac15f9"/><path d="M2 9.2v.9h6v-.9H2z" fill="#cf15f9"/><path d="M7.1 8.3v-.9H5.4v.9h-.8v-.9H2.9v.9H2v.9h6v-.9h-.9z" fill="#fa34f3"/></svg></g><g class="gotchi-wearable wearable-hand wearable-hand-right"><svg x="5" y="29"><g transform="scale(-1, 1) translate(-54, 0)"><path d="M6 6V5h1V4h1V3H7V2H6V1H5V0H3v1H2v1H1v1H0v1h1v1h1v1h1v1H2v1H1v1H0v3h1v1h1v1h4v-1h1v-1h1V9H7V8H6V7H5V6h1zm0 7H2v-1H1V9h1V8h4v1h1v3H6v1z"/><path d="M6 3V2H5V1H3v1H2v1H1v1h1v1h1v1h2V5h1V4h1V3z" fill="#b132ff"/><path d="M3 1v1H2v1H1v1h3V1z" fill="#c260ff"/><path d="M6 3V2H5V1H4v3h3V3z" fill="#edd3fd"/><path d="M5 4H4v2h1V5h1V4z" fill="#d596fb"/><g fill="#ffe600"><path d="M2 10V9H1v3h1v-1z"/><path d="M4 9h2V8H2v1h1z"/><path d="M6 9v3h1V9z"/><path d="M4 12H2v1h4v-1H5z"/></g><g fill="#ffc03c"><path d="M2 10V9H1v3h1v-1z"/><path d="M4 9V8H2v1h1zm-1 4h1v-1H2v1z"/></g></g></svg></g><g class="gotchi-wearable wearable-pet"><svg x="40" y="45"><path d="M12 3h1v1h-1zm8-2h1v1h-1zm-6 0h1v1h-1zm8 2h1v1h-1z" fill="#0f0"/><path d="M22 4h-1V3h-1V2h-1V1h-1V0h-1v1h-1v1h-1v1h-1v1h-1v2h-1v1h1v1h1v1h1v1h5V9h1V8h1V7h1V6h-1V4z" fill="#009300"/><path d="M18 3V2h1V1h-1V0h-1v1h-1v1h1v1h1zm-6 3h1v1h-1zm0-3h1v1h-1zm6 3h1v1h-1zm-2-2h1v1h-1zm4-3h1v1h-1zm-6 0h1v1h-1zm5 7h1v1h-1zm-4 0h1v1h-1zm5-4h1v1h-1zm2 2h1v1h-1zm0-3h1v1h-1z" fill="#f0f"/><path d="M17 4v6h1V3h-1v1zm2-1v5h1V2h-1v1zm0 6h1v1h-1zm-4-6v5h1V2h-1v1zm0 6h1v1h-1zm6-5v4h1V4h-1zm-8 1v3h1V4h-1v1z" fill="#006300"/><path d="M17 1h1v1h-1z" fill="#ff0"/><path d="M0 6h1v1H0zm8-2h1v1H8zM2 4h1v1H2z" fill="#0f0"/><path d="M9 6H8V5H7V4H6V3H5v1H4v1H3v1H2v1H1v2H0v1h1v1H0v1h1v1h1v1h1v1h5v-1h1v-1h1v-1h1v-1h-1v-1h1V9h-1V7H9V6z" fill="#009300"/><path d="M10 6h1v1h-1z" fill="#0f0"/><path d="M6 6V5h1V4H6V3H5v1H4v1h1v1h1zm-6 5h1v1H0zm0-2h1v1H0zm0-3h1v1H0zm6 4h1v1H6zM4 7h1v1H4zm4-3h1v1H8zM2 4h1v1H2zm5 8h1v1H7zm-4 0h1v1H3zm5-4h1v1H8zm2 3h1v1h-1zm0-2h1v1h-1zm0-3h1v1h-1zM2 8h1v1H2z" fill="#f0f"/><path d="M5 7v8h1V6H5v1zm2-1v6h1V5H7v1zm0 8v1h1v-2H7v1zM3 6v6h1V5H3v1zm0 8v1h1v-2H3v1zm6-6v5h1V7H9v1zM1 8v5h1V7H1v1z" fill="#006300"/><path d="M5 4h1v1H5z" fill="#ff0"/><g fill="#009300"><path d="M16 13v-1h-1v-1h-1v-1h-1v1h-1v2h-1v1h-1v1h1v1h1v1h4v-1h1v-1h1v-1h-1v-1h-1z"/><path d="M17 12h1v1h-1z"/></g><path d="M13 14v3h1v-4h-1v1zm2-2h1v1h-1zm0 3v2h1v-3h-1v1zm-4-1v2h1v-3h-1v1z" fill="#006300"/><path d="M14 13v-1h1v-1h-1v-1h-1v1h-1v1h1v1zm0 3h1v1h-1zm-2-2h1v1h-1zm-2 0h1v1h-1zm5-1h1v1h-1zm2-1h1v1h-1zm0 2h1v1h-1z" fill="#f0f"/><path d="M13 11h1v1h-1z" fill="#ff0"/></svg></g></svg>