<svg xmlns="http://www.w3.org/2000/svg" viewBox="0 0 64 64"><g class="gotchi-bg"><defs fill="#fff"><pattern id="a" patternUnits="userSpaceOnUse" width="4" height="4"><path d="M0 0h1v1H0zm2 2h1v1H2z"/></pattern><pattern id="b" patternUnits="userSpaceOnUse" x="0" y="0" width="2" height="2"><path d="M0 0h1v1H0z"/></pattern><pattern id="c" patternUnits="userSpaceOnUse" x="-2" y="0" width="8" height="1"><path d="M0 0h1v1H0zm2 0h1v1H2zm2 0h1v1H4z"/></pattern><pattern id="d" patternUnits="userSpaceOnUse" x="0" y="0" width="4" height="4"><path d="M0 0h1v1H0zm0 2h1v1H0zm1 0V1h1v1zm1 0h1v1H2zm0-1h1V0H2zm1 2h1v1H3z"/></pattern><pattern id="e" patternUnits="userSpaceOnUse" width="64" height="32"><path d="M4 4h1v1H4zm7 0h1v1h-1zm7 0h1v1h-1zm7 0h1v1h-1zm7 0h1v1h-1zm7 0h1v1h-1zm7 0h1v1h-1zm7 0h1v1h-1zm7 0h1v1h-1z"/><path fill="url(#a)" d="M0 8h64v7H0z"/><path fill="url(#b)" d="M0 16h64v1H0z"/><path fill="url(#c)" d="M0 18h64v1H0z"/><path fill="url(#b)" d="M22 18h15v1H22zM0 20h64v3H0z"/><path fill="url(#d)" d="M0 24h64v8H0z"/></pattern><mask id="f"><path fill="url(#e)" d="M0 0h64v32H0z"/></mask></defs><path fill="#fff" d="M0 0h64v32H0z"/><path fill="#dea8ff" class="gotchi-secondary" mask="url(#f)" d="M0 0h64v32H0z"/><path fill="#dea8ff" class="gotchi-secondary" d="M0 32h64v32H0z"/><path mask="url(#f)" fill="#fff" transform="matrix(1 0 0 -1 0 64)" d="M0 0h64v32H0z"/></g><style>.gotchi-primary{fill:#FF5E00;}.gotchi-secondary{fill:#FFCAA2;}.gotchi-cheek{fill:#F696C6;}.gotchi-eyeColor{fill:#0064FF;}.gotchi-primary-mouth{fill:#FF5E00;}.gotchi-sleeves-up{display:none;}.gotchi-handsUp{display:none;}.gotchi-handsDownOpen{display:block;}.gotchi-handsDownClosed{display:none;}</style><g class="gotchi-bg"><defs fill="#fff"><pattern id="a" patternUnits="userSpaceOnUse" width="4" height="4"><path d="M0 0h1v1H0zm2 2h1v1H2z"/></pattern><pattern id="b" patternUnits="userSpaceOnUse" x="0" y="0" width="2" height="2"><path d="M0 0h1v1H0z"/></pattern><pattern id="c" patternUnits="userSpaceOnUse" x="-2" y="0" width="8" height="1"><path d="M0 0h1v1H0zm2 0h1v1H2zm2 0h1v1H4z"/></pattern><pattern id="d" patternUnits="userSpaceOnUse" x="0" y="0" width="4" height="4"><path d="M0 0h1v1H0zm0 2h1v1H0zm1 0V1h1v1zm1 0h1v1H2zm0-1h1V0H2zm1 2h1v1H3z"/></pattern><pattern id="e" patternUnits="userSpaceOnUse" width="64" height="32"><path d="M4 4h1v1H4zm7 0h1v1h-1zm7 0h1v1h-1zm7 0h1v1h-1zm7 0h1v1h-1zm7 0h1v1h-1zm7 0h1v1h-1zm7 0h1v1h-1zm7 0h1v1h-1z"/><path fill="url(#a)" d="M0 8h64v7H0z"/><path fill="url(#b)" d="M0 16h64v1H0z"/><path fill="url(#c)" d="M0 18h64v1H0z"/><path fill="url(#b)" d="M22 18h15v1H22zM0 20h64v3H0z"/><path fill="url(#d)" d="M0 24h64v8H0z"/></pattern><mask id="f"><path fill="url(#e)" d="M0 0h64v32H0z"/></mask></defs><path fill="#fff" d="M0 0h64v32H0z"/><path fill="#dea8ff" class="gotchi-secondary" mask="url(#f)" d="M0 0h64v32H0z"/><path fill="#dea8ff" class="gotchi-secondary" d="M0 32h64v32H0z"/><path mask="url(#f)" fill="#fff" transform="matrix(1 0 0 -1 0 64)" d="M0 0h64v32H0z"/></g><g class="gotchi-body"><g class="gotchi-primary"><path d="M21 12h2v-2h-4v2h1z"/><path d="M19 14v-2h-2v2h1zm6-4h2V8h-4v2h1z"/><path d="M29 8h8V6H27v2h1zm16 6h2v-2h-2v1z"/><path d="M48 14h-1v39h-2v2h4V14zm-11-4h4V8h-4v1z"/><path d="M41 12h4v-2h-4v1zM17 53V14h-2v41h4v-2h-1z"/><path d="M24 51h-5v2h5v-1z"/><path d="M27 53h-3v2h5v-2h-1zm18-2h-5v2h5v-1z"/><path d="M35 51h-6v2h6v-1z"/><path d="M38 53h-3v2h5v-2h-1z"/></g><g class="gotchi-secondary"><path d="M18 43v6h2v-1h2v1h2v2h-5v2h-2V14h2v1h-1v26z"/><path d="M27 51h-3v2h5v-2h-1zm11 0h-3v2h5v-2h-1z"/><path d="M35 49h-2v-1h-2v1h-2v2h6v-1zM25 11h2v-1h-4v1h1zm-4 2h2v-1h-4v1h1zm24 31v5h-1v-1h-2v1h-2v2h5v2h2V14h-2v29z"/><path d="M37 8H27v1h5v1h5V9zm8 4h-4v2h4v-1z"/><path d="M41 10h-4v2h4v-1z"/></g><path d="M44 14h-3v-2h-4v-2h-5V9h-5v2h-4v2h-4v2h-1v34h2v-1h2v1h2v2h5v-2h2v-1h2v1h2v2h5v-2h2v-1h2v1h1V14z" fill="#fff"/></g><path class="gotchi-cheek" d="M21 32v2h2v-2h-1zm21 0h-1v2h2v-2z"/><g class="gotchi-primary-mouth"><path d="M29 32h-2v2h2v-1z"/><path d="M33 34h-4v2h6v-2h-1z"/><path d="M36 32h-1v2h2v-2z"/></g><g class="gotchi-shadow"><path opacity=".25" d="M25 58H19v1h1v1h24V59h1V58h-1z" fill="#000"/></g><g class="gotchi-collateral"><path d="M30 11v1h4v-1h-4z"/><path d="M29 12h1v1h-1zm7.5 2.5v4h1v-4h-1zm-10 4h1v-4h-1v4z"/><path d="M27.5 13.5h1v1h-1zm8 5h1v1h-1zm0-5h1v1h-1zM34 12h1v1h-1zm-5 8h1v1h-1zm-1.5-1.5h1v1h-1zM34 20h1v1h-1z"/><path d="M30 21v1h4v-1h-4z"/><g fill="#ff5e00"><path d="M32.5 16h-1v-1h2v-1h-1v-1h-1v1h-2v1h1v3h-1v1h2v1h1v-1h1v-1h-2v-1h2v-1h-1z"/><path d="M33.5 17h1v1h-1zm0-2h1v1h-1z"/></g></g>
    <style>
        .gotchi-bg { display: none }
    </style>
<g class="gotchi-eyeColor"><path d="M27 23H26H25H24H23H22H21V24V25V26H22H23H24H25H26H27H28H29V25V24V23H28H27ZM23 25H22V24H23H24V25H23ZM28 25H27H26V24H27H28V25Z" class="gotchi-primary" /><rect x="24" y="24" width="2" height="1" /><path d="M42 23H41H40H39H38H37H36H35V24V25V26H36H37H38H39H40H41H42H43V25V24V23H42ZM37 25H36V24H37H38V25H37ZM42 25H41H40V24H41H42V25Z" class="gotchi-primary" /><rect x="38" y="24" width="2" height="1" /></g><g class="gotchi-wearable wearable-body"><svg x="12" y="32"><style><![CDATA[.a{fill:#369c2e}.b{fill:#5fb935}.c{fill:#368528}.d{fill:#a322d4}.e{fill:#2234cb}.f{fill:#f122ad}.g{fill:#0e982e}.h{fill:#d322e8}.i{fill:#36a72e}.j{fill:#1ce4a3}.k{fill:#6822bc}.l{fill:#8a22b4}.m{fill:#18742e}.n{fill:#28ff3c}]]></style><path d="M35 1v1h-2v1h-2v1h-2v1h-2v1h-1v1h-1v1h-1v1h-1v1h-1v1h-1v1h-2v-1h-1v-1h-1V9h-1V8h-1V7h-1V6h-1V5h-2V4H9V3H7V2H5V1H3v18h34V1z" fill="#c5221c"/><path d="M35 2v1h-2v1h-2v1h-2v1h-2v1h-1v1h-1v1h-1v1h-1v1h-1v1h-2v1h1v1h-1v1h1v1h-1v1h1v1h15V9h1V2h-2zm-8 12v-1h1v1h-1zm6-4h-4V9h4v1zm-15 1h-1v-1h-1V9h-1V8h-1V7h-1V6h-2V5H9V4H7V3H5V2H3v7h1v9h15v-6h-1v-1zM7 10V9h4v1H7zm6 3v1h-1v-1h1z" fill="#f1221c"/><path d="M20,14h1v1h-1V14z" class="n"/><path d="M21 14h1v1h-1v-1zm0-2h1v1h-1v-1z" class="d"/><path d="M31,5h1v1h-1V5z" class="e"/><path d="M31,8h1v1h-1V8z" class="f"/><path d="M30,8h1v1h-1V8z" fill="#8a22a0"/><path d="M30,7h1v1h-1V7z" class="f"/><path d="M29,10h1v1h-1V10z" class="a"/><path d="M29,8h1v1h-1V8z" class="f"/><path d="M32,12h1v1h-1V12z" class="b"/><path d="M32,13h1v1h-1V13z" class="a"/><path d="M20,12h1v1h-1V12z" class="n"/><path d="M23,14h1v1h-1V14z" class="d"/><path d="M31,13h1v1h-1V13z" class="b"/><path d="M23,12h1v1h-1V12z" class="d"/><path d="M26,8h1v1h-1V8z" class="c"/><path d="M22,13h1v1h-1V13z" fill="#f122a4"/><path d="M36,2h1v1h-1V2z" fill="#b782c2"/><path d="M33,3h1v1h-1V3z" class="e"/><path d="M35,11h1v1h-1V11z" fill="#1c62a3"/><path d="M35,14h1v1h-1V14z" class="h"/><g class="i"><path d="M35 7h1v1h-1V7zm0-2h1v1h-1V5z"/><path d="M36,6h1v1h-1V6z"/></g><path d="M31,11h1v1h-1V11z" class="b"/><path d="M25,9h1v1h-1V9z" class="c"/><path d="M30,11h1v1h-1V11z" class="a"/><path d="M27,7h1v1h-1V7z" class="c"/><path d="M34,12h1v1h-1V12z" class="j"/><path d="M33,5h1v1h-1V5z" class="e"/><path d="M34,6h1v1h-1V6z" class="i"/><path d="M34,10h1v1h-1V10z" class="j"/><path d="M30,12h1v1h-1V12z" class="b"/><path d="M24,10h1v1h-1V10z" class="c"/><path d="M31,12h1v1h-1V12z" class="a"/><path d="M20,16h1v1h-1V16z" class="n"/><path d="M21,16h1v1h-1V16z" class="k"/><path d="M26,16h1v1h-1V16z" class="g"/><path d="M32 15h1v1h-1v-1zm-2 0h1v1h-1v-1z" class="l"/><path d="M25,16h1v1h-1V16z" class="m"/><path d="M31,16h1v1h-1V16z" fill="#cec81c"/><path d="M35,15h1v1h-1V15z" fill="#ba911c"/><g class="h"><path d="M35,16h1v1h-1V16z"/><path d="M34,15h1v1h-1V15z"/></g><path d="M21,17h1v1h-1V17z" fill="#84861c"/><path d="M32 17h1v1h-1v-1zm-2 0h1v1h-1v-1z" class="l"/><path d="M25,17h1v1h-1V17z" class="g"/><path d="M22,17h1v1h-1V17z" class="k"/><path d="M26,17h1v1h-1V17z" class="m"/><path d="M27,17h1v1h-1V17z" class="g"/><path d="M18 14h1v1h-1v-1zm0-2h1v1h-1v-1z" class="d"/><path d="M8,5h1v1H8V5z" class="e"/><path d="M8,8h1v1H8V8z" class="f"/><path d="M9,8h1v1H9V8z" fill="#8a22a0"/><path d="M9,7h1v1H9V7z" class="f"/><path d="M10,10h1v1h-1V10z" class="a"/><path d="M10,8h1v1h-1V8z" class="f"/><path d="M7,12h1v1H7V12z" class="b"/><path d="M7,13h1v1H7V13z" class="a"/><path d="M16,14h1v1h-1V14z" class="d"/><path d="M8,13h1v1H8V13z" class="b"/><path d="M16,12h1v1h-1V12z" class="d"/><path d="M13,8h1v1h-1V8z" class="c"/><path d="M17,13h1v1h-1V13z" fill="#f122a4"/><path d="M3,2h1v1H3V2z" fill="#b782c2"/><path d="M6,3h1v1H6V3z" class="e"/><path d="M4,11h1v1H4V11z" fill="#1c62a3"/><path d="M4,14h1v1H4V14z" class="h"/><g class="i"><path d="M4 7h1v1H4V7zm0-2h1v1H4V5z"/><path d="M3,6h1v1H3V6z"/></g><path d="M8,11h1v1H8V11z" class="b"/><path d="M14,9h1v1h-1V9z" class="c"/><path d="M9,11h1v1H9V11z" class="a"/><path d="M12,7h1v1h-1V7z" class="c"/><path d="M5,12h1v1H5V12z" class="j"/><path d="M6,5h1v1H6V5z" class="e"/><path d="M5,6h1v1H5V6z" class="i"/><g fill="#367f2e"><path d="M36,5h1v1h-1V5z"/><path d="M35,6h1v1h-1V6z"/><path d="M34 7h1v1h-1V7zM3 5h1v1H3V5z"/><path d="M4,6h1v1H4V6z"/><path d="M5,7h1v1H5V7z"/></g><path d="M5,10h1v1H5V10z" class="j"/><g fill="#077c22"><path d="M26,9h1v1h-1V9z"/><path d="M25 10h1v1h-1v-1zm0-2h1v1h-1V8z"/><path d="M24 9h1v1h-1V9zM13 9h1v1h-1V9z"/><path d="M14 10h1v1h-1v-1zm0-2h1v1h-1V8z"/><path d="M15,9h1v1h-1V9z"/></g><path d="M9,12h1v1H9V12z" class="b"/><path d="M15,10h1v1h-1V10z" class="c"/><g fill="#e8dc21"><path d="M32 4h1v1h-1V4zm-5 10h1v1h-1v-1zm0-2h1v1h-1v-1z"/><path d="M26 13h1v1h-1v-1zm2 0h1v1h-1v-1zM7 4h1v1H7V4zm5 10h1v1h-1v-1zm0-2h1v1h-1v-1z"/><path d="M13 13h1v1h-1v-1zm-2 0h1v1h-1v-1z"/></g><path d="M8,12h1v1H8V12z" class="a"/><path d="M18,16h1v1h-1V16z" class="k"/><path d="M13,16h1v1h-1V16z" class="g"/><path d="M7 15h1v1H7v-1zm2 0h1v1H9v-1z" class="l"/><path d="M14,16h1v1h-1V16z" class="m"/><path d="M8,16h1v1H8V16z" fill="#cec81c"/><path d="M4,15h1v1H4V15z" fill="#ba911c"/><g class="h"><path d="M4,16h1v1H4V16z"/><path d="M5,15h1v1H5V15z"/></g><path d="M18,17h1v1h-1V17z" fill="#84861c"/><path d="M7 17h1v1H7v-1zm2 0h1v1H9v-1z" class="l"/><path d="M14,17h1v1h-1V17z" class="g"/><path d="M17,17h1v1h-1V17z" class="k"/><path d="M13,17h1v1h-1V17z" class="m"/><path d="M12,17h1v1h-1V17z" class="g"/></svg></g><g class="gotchi-handsDownClosed"><g class="gotchi-primary"><path d="M19 42h1v1h-1zm1-6h1v1h-1z"/><path d="M21 37h1v1h-1zm5 3v4h1v-4zm-5 3h-1v1h2v-1z"/><path d="M24 44h-2v1h4v-1h-1zm1-5h-1v1h2v-1z"/><path d="M23 38h-1v1h2v-1z"/></g><g class="gotchi-secondary"><path d="M19 43h1v1h-1zm5 2h-2v1h4v-1h-1z"/><path d="M27 41v3h1v-3zm-6 3h-1v1h2v-1z"/><path d="M26 44h1v1h-1zm-7-3h-1v2h1v-1z"/></g><g class="gotchi-primary"><path d="M44 42h1v1h-1zm-1-6h1v1h-1z"/><path d="M42 37h1v1h-1z"/><path d="M42 39v-1h-2v1h1zm0 4v1h2v-1h-1z"/><path d="M40 44h-2v1h4v-1h-1z"/><path d="M38 42v-2h-1v4h1v-1z"/><path d="M40 40v-1h-2v1h1z"/></g><g class="gotchi-secondary"><path d="M42 44v1h2v-1h-1zm-5-2v-1h-1v3h1v-1z"/><path d="M40 45h-2v1h4v-1h-1z"/><path d="M37 44h1v1h-1zm7-1h1v1h-1z"/></g></g><g class="gotchi-handsDownOpen"><g class="gotchi-primary"><path d="M14 40h1v1h-1v-1zm-1-6h1v1h-1v-1z"/><path d="M14 33h1v1h-1v-1zm-2 2h1v1h-1v-1zm-5 3h1v4H7v-4zm5 3h2v1h-2v-1z"/><path d="M8 42h4v1H8v-1zm0-5h2v1H8v-1z"/><path d="M10,36h2v1h-2V36z"/></g><g class="gotchi-secondary"><path d="M14,39h1v1h-1V39z"/><path d="M12,40h2v1h-2V40z"/><path d="M8,41h4v1H8V41z"/></g><path d="M8,38v3h4v-1h2v-1h1v-5h-1v1h-1v1h-1v1h-2v1H8z" fill="#fff" /><g class="gotchi-primary"><path d="M49 40h1v1h-1v-1zm1-6h1v1h-1v-1z"/><path d="M49 33h1v1h-1v-1zm2 2h1v1h-1v-1zm5 3h1v4h-1v-4zm-6 3h2v1h-2v-1z"/><path d="M52 42h4v1h-4v-1zm2-5h2v1h-2v-1z"/><path d="M52,36h2v1h-2V36z"/></g><g class="gotchi-secondary"><path d="M49,39h1v1h-1V39z"/><path d="M50,40h2v1h-2V40z"/><path d="M52,41h4v1h-4V41z"/></g><path d="M54,38v-1h-2v-1h-1v-1h-1v-1h-1v5h1v1h2v1h4v-3H54z" fill="#fff" /></g><g class="gotchi-handsUp"><g class="gotchi-secondary"><path d="M50,38h1v1h-1V38z"/><path d="M49 39h1v1h-1v-1zm2-2h1v1h-1v-1z"/><path d="M52,36h2v1h-2V36z"/><path d="M54,35h2v1h-2V35z"/></g><path d="M52,32v1h-2v1h-1v5h1v-1h1v-1h1v-1h2v-1h2v-3H52z" fill="#fff"/><g class="gotchi-primary"><path d="M49,33h1v1h-1V33z"/><path d="M50 32h2v1h-2v-1zm0 7h1v1h-1v-1z"/><path d="M49 40h1v1h-1v-1zm2-2h1v1h-1v-1z"/><path d="M52 37h2v1h-2v-1zm0-6h4v1h-4v-1z"/><path d="M56,32h1v4h-1V32z"/><path d="M54,36h2v1h-2V36z"/></g><g class="gotchi-secondary"><path d="M13,38h1v1h-1V38z"/><path d="M14 39h1v1h-1v-1zm-2-2h1v1h-1v-1z"/><path d="M10,36h2v1h-2V36z"/><path d="M8,35h2v1H8V35z"/></g><path d="M8,32v3h2v1h2v1h1v1h1v1h1v-5h-1v-1h-2v-1H8z" fill="#fff"/><g class="gotchi-primary"><path d="M14,33h1v1h-1V33z"/><path d="M12 32h2v1h-2v-1zm1 7h1v1h-1v-1z"/><path d="M14 40h1v1h-1v-1zm-2-2h1v1h-1v-1z"/><path d="M10 37h2v1h-2v-1zm-2-6h4v1H8v-1z"/><path d="M7,32h1v4H7V32z"/><path d="M8,36h2v1H8V36z"/></g></g><g class="gotchi-wearable wearable-face"><svg x="23" y="32"><path d="M17,3V2h-1V1h-2V0h-4v1H8V0H4v1H2v1H1v1H0v6h1V8h1V6h1V5h2V4h8v1h2v1h1v2h1v1h1V3H17z" fill="#aaa"/><g fill="#e1e1e1"><path d="M2 3h1v1H2V3zm2-2v1h2V1H4z"/><path d="M3 2h1v1H3V2zm12 1h1v1h-1V3zm-3-2v1h2V1h-2z"/><path d="M14,2h1v1h-1V2z"/></g><g fill="#919191"><path d="M7,0h1v1H7V0z"/><path d="M10 2V1H8v1h2zM3 4v1h2V4H3z"/><path d="M2,5h1v1H2V5z"/><path d="M1 8h1V6H1v2zm9-8h1v1h-1V0zM5 3v1h8V3H5z"/><path d="M13,4v1h2V4H13z"/><path d="M15,5h1v1h-1V5z"/><path d="M17 6h-1v2h1V6zM0 8h1v1H0V8z"/><path d="M17,8h1v1h-1V8z"/></g></svg></g><g class="gotchi-wearable wearable-eyes"><svg x="15" y="20"><path d="M31 4V3h-1V2h-1V1h-1V0h-6v1h-1v1h-1v1h-1v1h-4V3h-1V2h-1V1h-1V0H6v1H5v1H4v1H3v1H0v4h3v1h1v1h1v1h1v1h5v5h1v1h1v1h8v-1h1v-1h1v-5h5v-1h1v-1h1V9h1V8h3V4h-3z" fill="#390601"/><g fill="#592f2a"><path d="M11,1h1v1h-1V1z"/><path d="M12 2h1v1h-1V2zM6 1h1v1H6V1z"/><path d="M5,2h1v1H5V2z"/><path d="M4,3h1v1H4V3z"/><path d="M3 4h1v1H3V4zm8 6h1v1h-1v-1z"/><path d="M12 9h1v1h-1V9zm-6 1h1v1H6v-1z"/><path d="M5,9h1v1H5V9z"/><path d="M4,8h1v1H4V8z"/><path d="M3 7h1v1H3V7zM1 6h1v1H1V6z"/><path d="M2 5h1v1H2V5zM0 5h1v1H0V5zm13-2h1v1h-1V3zm0 5h1v1h-1V8z"/><path d="M14 4h1v1h-1V4zm0 3h1v1h-1V7zm5-3h1v1h-1V4zm0 3h1v1h-1V7z"/><path d="M20 3h1v1h-1V3zm0 5h1v1h-1V8zm2-7h1v1h-1V1z"/><path d="M21 2h1v1h-1V2zm6-1h1v1h-1V1z"/><path d="M28,2h1v1h-1V2z"/><path d="M29,3h1v1h-1V3z"/><path d="M30 4h1v1h-1V4zm-8 6h1v1h-1v-1z"/><path d="M21 9h1v1h-1V9zm6 1h1v1h-1v-1z"/><path d="M28,9h1v1h-1V9z"/><path d="M29,8h1v1h-1V8z"/><path d="M30 7h1v1h-1V7zm2-1h1v1h-1V6z"/><path d="M31 5h1v1h-1V5zm2 0h1v1h-1V5z"/></g><g fill="#846460"><path d="M11,2h1v1h-1V2z"/><path d="M12 3h1v1h-1V3zm0 5h1v1h-1V8z"/><path d="M11 9h1v1h-1V9zM6 2h1v1H6V2z"/><path d="M5 3h1v1H5V3zm0 5h1v1H5V8z"/><path d="M6 9h1v1H6V9zm2-8h2v1H8V1zM4 5h1v2H4V5zM2 6h1v1H2V6zM0 6h1v1H0V6z"/><path d="M1 5h1v1H1V5zm7 5h2v1H8v-1zm11-1h1v1h-1V9z"/><path d="M20,10h1v1h-1V10z"/><path d="M21 16h-1v1h-6v-1h-1v-5h-1v6h1v1h8v-1h1v-6h-1v5zm-6-8h4v1h-4V8zm3 2h1v1h-1v-1z"/><path d="M19 11h1v1h-1v-1zm-4-1h1v1h-1v-1z"/><path d="M14 11h1v1h-1v-1zm2 0h2v1h-2v-1z"/><path d="M18 12h1v1h-1v-1zm-3 0h1v1h-1v-1z"/><path d="M16,13h2v1h-2V13z"/><path d="M18 14h1v1h-1v-1zm-3 0h1v1h-1v-1z"/><path d="M16 15h2v1h-2v-1zm3-2h1v1h-1v-1zm0 2h1v1h-1v-1zm-5-2h1v1h-1v-1zm0 2h1v1h-1v-1zm0-6h1v1h-1V9z"/><path d="M13 10h1v1h-1v-1zm0-5h1v2h-1V5zm2 0h1v2h-1V5zm3 0h1v2h-1V5zm2 0h1v2h-1V5zm2-3h1v1h-1V2z"/><path d="M21 3h1v1h-1V3zm0 5h1v1h-1V8z"/><path d="M22 9h1v1h-1V9zm5-7h1v1h-1V2z"/><path d="M28 3h1v1h-1V3zm0 5h1v1h-1V8z"/><path d="M27 9h1v1h-1V9zm-3-8h2v1h-2V1zm7 5h1v1h-1V6zm2 0h1v1h-1V6z"/><path d="M29 5h1v2h-1V5zm3 0h1v1h-1V5zm-8 5h2v1h-2v-1z"/></g><path d="M11 3H7v1H6v4h1v1h4V8h1V4h-1V3zm16 1V3h-4v1h-1v4h1v1h4V8h1V4h-1z" fill="#0ff"/><g fill="#fff"><path d="M9,3h1v1H9V3z"/><path d="M8,4h1v1H8V4z"/><path d="M7,5h1v1H7V5z"/><path d="M6 6h1v1H6V6zm5-1h-1v1H9v1H8v1H7v1h2V8h1V7h1V6h1V4h-1v1zm14-2h1v1h-1V3z"/><path d="M24,4h1v1h-1V4z"/><path d="M23 5h1v1h-1V5zm4-1v1h-1v1h-1v1h-1v1h-1v1h2V8h1V7h1V6h1V4h-1z"/><path d="M22,6h1v1h-1V6z"/></g></svg></g><g class="gotchi-wearable wearable-head"><svg x="12" y="1"><path d="M39 28v-1h-1V13h-1v-2h-1v-1h-1V9h-1V8h-1V7h-1V6h-2V5h-8V4h1V3h1V2h-1V1h-1V0h-4v1h-1v1h-1v1h1v1h1v1h-8v1H8v1H7v1H6v1H5v1H4v1H3v2H2v14H1v1H0v1h1v1h1v-1h1v-1h1v-2h2v-5h2v-1h2v-1h4v-1h2v-1h8v1h2v1h4v1h2v1h2v5h2v2h1v1h1v1h1v-1h1v-1h-1z" fill="#000032"/><path d="M11 5v1h2V5h-2zm17 0h-1v1h2V5h-1zm-1 4v1h2V9h-2zM11 9v1h2V9h-2zm11-1h-1v3h3V8h-2zm1 2h-1V9h1v1zm-6-2h-1v3h3V8h-2zm1 2h-1V9h1v1zm-7 3v1h2v-1h-2zm16 0v1h2v-1h-2z" fill="#f0f"/><g fill="#ff0"><path d="M17 5h1v1h-1zm5-4h-4v1h-1v1h1v1h1v1h2V4h1V3h1V2h-1V1zm-1 2h-2V2h2v1zm1 2h1v1h-1zm-1 7v-1h-2v1h2zm-2-5v1h2V7h-2z"/><path d="M21 6h1v1h-1zm-3 0h1v1h-1zM2 26v1h1v-2H2v1zm-1 2h1v1H1zm36-1h1v-2h-1v2zm1 1h1v1h-1z"/><path d="M36 24v-4h-1v5h2v-1h-1zM7 18v1h2v-1H7z"/><path d="M5 19v1h2v-1H5z"/><path d="M4 21v3H3v1h2v-5H4v1zm7-4H9v1h4v-1h-2zm19 0h-3v1h4v-1h-1z"/><path d="M32 18h-1v1h2v-1h-1z"/><path d="M34 19h-1v1h2v-1h-1zm-15-4v1h2v-1h-2z"/><path d="M18 14h1v1h-1zm3 0h1v1h-1z"/><path d="M19 13v1h2v-1h-2z"/><path d="M18 12h1v1h-1zm3 0h1v1h-1z"/></g><path d="M27 11v1h2v-1h-2zm-16 0v1h2v-1h-2zm17-4h-1v1h2V7h-1zM11 7v1h2V7h-2zm0 8v1h2v-1h-2zm5 0v1h2v-1h-2zm6 0v1h2v-1h-2zm5 0v1h2v-1h-2zm-10-2v-1h-1v2h1v-1zm6 0v1h1v-2h-1v1z" fill="#0f0"/><path d="M14 6v1h1V5h-1v1zm11-1v2h1V5h-1zm0 5h1v1h-1zm-11 0h1v1h-1zm11-2h1v1h-1zM14 8h1v1h-1zm0 8v1h1v-2h-1v1zm11 0v1h1v-2h-1v1zm-11-3v1h1v-2h-1v1zm11 0v1h1v-2h-1v1z" fill="#0ff"/></svg></g>"><svg x="12" y="32"><g><g class="gotchi-sleeves gotchi-sleeves-left gotchi-sleeves-up"><path d="M38 0v1h-1v8h1V8h1V7h1V0z" fill="#c5221c"/><path d="M38 1v1h-1v6h1V7h1V1z" fill="#f1221c"/><path d="M38,2h1v1h-1V2z" fill="#f1751c"/><path d="M37,5h1v1h-1V5z" fill="#367f2e"/></g><g class="gotchi-sleeves gotchi-sleeves-left gotchi-sleeves-down"><path d="M39 3V2h-1V1h-1v8h1v1h2V3z" fill="#c5221c"/><path d="M38 3V2h-1v6h1v1h1V3z" fill="#f1221c"/><path d="M38,7h1v1h-1V7z" fill="#f1751c"/><path d="M37,4h1v1h-1V4z" fill="#367f2e"/></g><g class="gotchi-sleeves gotchi-sleeves-right gotchi-sleeves-up"><path d="M2 1V0H0v7h1v1h1v1h1V1z" fill="#c5221c"/><path d="M2 2V1H1v6h1v1h1V2z" fill="#f1221c"/><path d="M1,2h1v1H1V2z" fill="#f1751c"/><path d="M2,5h1v1H2V5z" fill="#367f2e"/></g><g class="gotchi-sleeves gotchi-sleeves-right gotchi-sleeves-down"><path d="M2 1v1H1v1H0v7h2V9h1V1z" fill="#c5221c"/><path d="M2 2v1H1v6h1V8h1V2z" fill="#f1221c"/><path d="M1,7h1v1H1V7z" fill="#f1751c"/><path d="M2,4h1v1H2V4z" fill="#367f2e"/></g></g></svg><g class="gotchi-wearable wearable-hand wearable-hand-left"><svg x="6" y="27"><path d="M7 8V5H6V4H5V2H4V0H3v2H2v2H1v1H0v3h1v2H0v6h1v1h5v-1h1v-6H6V8z" fill="#faa"/><path d="M6,8V5H5V4H2v1H1v3h1v2H1v6h5v-6H5V8H6z" fill="#fff"/><path d="M1 6h3v1H1V6zm1 2h1v1H2V8zm-1 2h3v1H1v-1zm0 2h2v1H1v-1zm0 2h3v1H1v-1z" fill-opacity=".5"/><path d="M3,0h1v2H3V0z" fill="#fc0"/><path d="M2,2h3v1H2V2z" fill="#f0f" fill-opacity=".6"/></svg></g><g class="gotchi-wearable wearable-hand wearable-hand-right"><svg x="6" y="27"><g transform="scale(-1, 1) translate(-52, 0)"><path d="M7 8V5H6V4H5V2H4V0H3v2H2v2H1v1H0v3h1v2H0v6h1v1h5v-1h1v-6H6V8z" fill="#faa"/><path d="M6,8V5H5V4H2v1H1v3h1v2H1v6h5v-6H5V8H6z" fill="#fff"/><path d="M1 6h3v1H1V6zm1 2h1v1H2V8zm-1 2h3v1H1v-1zm0 2h2v1H1v-1zm0 2h3v1H1v-1z" fill-opacity=".5"/><path d="M3,0h1v2H3V0z" fill="#fc0"/><path d="M2,2h3v1H2V2z" fill="#f0f" fill-opacity=".6"/></g></svg></g><g class="gotchi-wearable wearable-pet"><svg x="42" y="43"><path d="M19 2V1h-1V0h-5v1h-1v1H8V1H7V0H2v1H1v1H0v2h1v1h1v1H1v3h1v1h1v1H2v1H1v2h1v1H1v2h4v1h3v-1h1v-1h2v1h1v1h3v-1h4v-2h-1v-1h1v-2h-1v-1h-1v-1h1V9h1V6h-1V5h1V4h1V2h-1z"/><path d="M18 3h-1v1h-3V3h-2v1h1v1h5V4h1V3h-1zM6 3v1H3V3H1v1h1v1h5V4h1V3H6z" fill="#fff"/><g fill="#ffc36b"><path d="M17 1h-4v1h5V1h-1zm-7 4h2V4h-1V3H9v1H8v1h2zM4 2h3V1H2v1h2zm5 11v2h2v-2H9z"/><path d="M16 12v-2H4v2H2v2h2v1H2v1h3v-3h1v3H5v1h3v-4h1v-1h2v1h1v4h3v-1h-1v-3h1v3h3v-1h-2v-1h2v-2h-2z"/></g><path d="M17 6H2v3h16V6h-1zm0 2H3V7h14v1z" fill="#ef1e26"/><defs /></svg></g></svg>