<svg xmlns="http://www.w3.org/2000/svg" viewBox="0 0 64 64"><g class="gotchi-bg"><defs fill="#fff"><pattern id="a" patternUnits="userSpaceOnUse" width="4" height="4"><path d="M0 0h1v1H0zm2 2h1v1H2z"/></pattern><pattern id="b" patternUnits="userSpaceOnUse" x="0" y="0" width="2" height="2"><path d="M0 0h1v1H0z"/></pattern><pattern id="c" patternUnits="userSpaceOnUse" x="-2" y="0" width="8" height="1"><path d="M0 0h1v1H0zm2 0h1v1H2zm2 0h1v1H4z"/></pattern><pattern id="d" patternUnits="userSpaceOnUse" x="0" y="0" width="4" height="4"><path d="M0 0h1v1H0zm0 2h1v1H0zm1 0V1h1v1zm1 0h1v1H2zm0-1h1V0H2zm1 2h1v1H3z"/></pattern><pattern id="e" patternUnits="userSpaceOnUse" width="64" height="32"><path d="M4 4h1v1H4zm7 0h1v1h-1zm7 0h1v1h-1zm7 0h1v1h-1zm7 0h1v1h-1zm7 0h1v1h-1zm7 0h1v1h-1zm7 0h1v1h-1zm7 0h1v1h-1z"/><path fill="url(#a)" d="M0 8h64v7H0z"/><path fill="url(#b)" d="M0 16h64v1H0z"/><path fill="url(#c)" d="M0 18h64v1H0z"/><path fill="url(#b)" d="M22 18h15v1H22zM0 20h64v3H0z"/><path fill="url(#d)" d="M0 24h64v8H0z"/></pattern><mask id="f"><path fill="url(#e)" d="M0 0h64v32H0z"/></mask></defs><path fill="#fff" d="M0 0h64v32H0z"/><path fill="#dea8ff" class="gotchi-secondary" mask="url(#f)" d="M0 0h64v32H0z"/><path fill="#dea8ff" class="gotchi-secondary" d="M0 32h64v32H0z"/><path mask="url(#f)" fill="#fff" transform="matrix(1 0 0 -1 0 64)" d="M0 0h64v32H0z"/></g><style>.gotchi-primary{fill:#B6509E;}.gotchi-secondary{fill:#CFEEF4;}.gotchi-cheek{fill:#F696C6;}.gotchi-eyeColor{fill:#36818E;}.gotchi-primary-mouth{fill:#B6509E;}.gotchi-sleeves-up{display:none;}.gotchi-handsUp{display:none;}.gotchi-handsDownOpen{display:block;}.gotchi-handsDownClosed{display:none;}</style><g class="gotchi-bg"><defs fill="#fff"><pattern id="a" patternUnits="userSpaceOnUse" width="4" height="4"><path d="M0 0h1v1H0zm2 2h1v1H2z"/></pattern><pattern id="b" patternUnits="userSpaceOnUse" x="0" y="0" width="2" height="2"><path d="M0 0h1v1H0z"/></pattern><pattern id="c" patternUnits="userSpaceOnUse" x="-2" y="0" width="8" height="1"><path d="M0 0h1v1H0zm2 0h1v1H2zm2 0h1v1H4z"/></pattern><pattern id="d" patternUnits="userSpaceOnUse" x="0" y="0" width="4" height="4"><path d="M0 0h1v1H0zm0 2h1v1H0zm1 0V1h1v1zm1 0h1v1H2zm0-1h1V0H2zm1 2h1v1H3z"/></pattern><pattern id="e" patternUnits="userSpaceOnUse" width="64" height="32"><path d="M4 4h1v1H4zm7 0h1v1h-1zm7 0h1v1h-1zm7 0h1v1h-1zm7 0h1v1h-1zm7 0h1v1h-1zm7 0h1v1h-1zm7 0h1v1h-1zm7 0h1v1h-1z"/><path fill="url(#a)" d="M0 8h64v7H0z"/><path fill="url(#b)" d="M0 16h64v1H0z"/><path fill="url(#c)" d="M0 18h64v1H0z"/><path fill="url(#b)" d="M22 18h15v1H22zM0 20h64v3H0z"/><path fill="url(#d)" d="M0 24h64v8H0z"/></pattern><mask id="f"><path fill="url(#e)" d="M0 0h64v32H0z"/></mask></defs><path fill="#fff" d="M0 0h64v32H0z"/><path fill="#dea8ff" class="gotchi-secondary" mask="url(#f)" d="M0 0h64v32H0z"/><path fill="#dea8ff" class="gotchi-secondary" d="M0 32h64v32H0z"/><path mask="url(#f)" fill="#fff" transform="matrix(1 0 0 -1 0 64)" d="M0 0h64v32H0z"/></g><g class="gotchi-body"><g class="gotchi-primary"><path d="M21 12h2v-2h-4v2h1z"/><path d="M19 14v-2h-2v2h1zm6-4h2V8h-4v2h1z"/><path d="M29 8h8V6H27v2h1zm16 6h2v-2h-2v1z"/><path d="M48 14h-1v39h-2v2h4V14zm-11-4h4V8h-4v1z"/><path d="M41 12h4v-2h-4v1zM17 53V14h-2v41h4v-2h-1z"/><path d="M24 51h-5v2h5v-1z"/><path d="M27 53h-3v2h5v-2h-1zm18-2h-5v2h5v-1z"/><path d="M35 51h-6v2h6v-1z"/><path d="M38 53h-3v2h5v-2h-1z"/></g><g class="gotchi-secondary"><path d="M18 43v6h2v-1h2v1h2v2h-5v2h-2V14h2v1h-1v26z"/><path d="M27 51h-3v2h5v-2h-1zm11 0h-3v2h5v-2h-1z"/><path d="M35 49h-2v-1h-2v1h-2v2h6v-1zM25 11h2v-1h-4v1h1zm-4 2h2v-1h-4v1h1zm24 31v5h-1v-1h-2v1h-2v2h5v2h2V14h-2v29z"/><path d="M37 8H27v1h5v1h5V9zm8 4h-4v2h4v-1z"/><path d="M41 10h-4v2h4v-1z"/></g><path d="M44 14h-3v-2h-4v-2h-5V9h-5v2h-4v2h-4v2h-1v34h2v-1h2v1h2v2h5v-2h2v-1h2v1h2v2h5v-2h2v-1h2v1h1V14z" fill="#fff"/></g><path class="gotchi-cheek" d="M21 32v2h2v-2h-1zm21 0h-1v2h2v-2z"/><g class="gotchi-primary-mouth"><path d="M29 32h-2v2h2v-1z"/><path d="M33 34h-4v2h6v-2h-1z"/><path d="M36 32h-1v2h2v-2z"/></g><g class="gotchi-shadow"><path opacity=".25" d="M25 58H19v1h1v1h24V59h1V58h-1z" fill="#000"/></g><g class="gotchi-collateral" fill="#a73796"><path d="M30.5 15h1v-2h-1z"/><path d="M31.5 12h1v1h-1z"/><path d="M33.5 13h-1v2h1zm-4 3h-2v1h1v2h1v-2h2v-1h-1v-1h-1z"/><path d="M34.5 15h-1v2h1z"/><path d="M35.5 17h-1v2h1zm-8 4h1v-2h-1z"/><path d="M35.5 19v2h1v-2z"/></g>
    <style>
        .gotchi-bg { display: none }
    </style>
<g class="gotchi-eyeColor"><g><path d="M40 23v2h1v-2h-1z" /><path d="M39 24v-1h-2v2h1v1h2v-1h-1v-1zm-13 0v1h1v-2h-1v1z" /><path d="M25 24v-1h-2v2h1v1h2v-1h-1v-1z" /></g><g class="gotchi-primary"><path d="M35 23h-1v1h1v-1zm0 2h-1v1h1v-1zm9-2h-1v1h1v-1z" /><path d="M45 24h-1v1h1v-1zm-8-1h6v-1h-8v1h2z" /><path d="M34 24h-1v1h1v-1zm10 1h-1v1h1v-1z" /><path d="M41 26h-6v1h8v-1h-2zm-20-3h-1v1h1v-1zm0 2h-1v1h1v-1zm9-2h-1v1h1v-1z" /><path d="M31 24h-1v1h1v-1zm-8-1h6v-1h-8v1h2z" /><path d="M20 24h-1v1h1v-1zm10 1h-1v1h1v-1z" /><path d="M27 26h-6v1h8v-1h-2z" /></g></g><g class="gotchi-wearable wearable-body"><svg x="12" y="32"><path d="M35 1v1h-2v1h-2v1h-2v1h-2v1h-2v1H15V6h-2V5h-2V4H9V3H7V2H5V1H3v22h4v-2h5v2h5v-2h6v2h5v-2h5v2h4V1z" fill="#141b30"/><g fill="#fff"><path d="M22,6v2h-1v4h1V9h1V7h2V6H22z"/><path d="M25 5v1h2V5h-2zM13 5v1h2V5h-2z"/><path d="M18,7V6h-3v1h2v2h1v3h1V8h-1V7z"/></g><g fill="#343a4c"><path d="M17 13h-1v-1h-1v-1h-1v-1h-2V9h-2V8H9V7H7V6H5V3H4v17h15v-1h-1v-1h1v-1h-1v-1h1v-1h-1v-1h-1v-1zM7 14h5v1H7v-1zm0 5v-3h5v3H7z"/><path d="M18 11V9h-1V7h-2V6h-2V5h-2V4H9V3H7V2H5v1h1v2h1v1h2v1h1v1h2v1h2v1h1v1h1v1h1v1h1v1h1v-2h-1v-1zm-5-3V7h1v1h-1z"/><path d="M4 1h1v1H4V1zm29 1v1h-2v1h-2v1h-2v1h-2v1h-2v2h-1v3h-2v3h1v-1h1v-1h1v-1h1v-1h1v-1h2V9h1V8h1V7h2V6h2V5h1V3h1V2h-2zm-7 6V7h1v1h-1z"/><path d="M35 1h1v1h-1V1zm0 5h-2v1h-2v1h-2v1h-1v1h-1v1h-2v1h-1v1h-1v1h-1v1h-1v1h-1v1h1v1h-1v2h16V3h-1v3zm-7 8h5v1h-5v-1zm0 5v-3h5v3h-5z"/></g></svg></g><g class="gotchi-handsDownClosed"><g class="gotchi-primary"><path d="M19 42h1v1h-1zm1-6h1v1h-1z"/><path d="M21 37h1v1h-1zm5 3v4h1v-4zm-5 3h-1v1h2v-1z"/><path d="M24 44h-2v1h4v-1h-1zm1-5h-1v1h2v-1z"/><path d="M23 38h-1v1h2v-1z"/></g><g class="gotchi-secondary"><path d="M19 43h1v1h-1zm5 2h-2v1h4v-1h-1z"/><path d="M27 41v3h1v-3zm-6 3h-1v1h2v-1z"/><path d="M26 44h1v1h-1zm-7-3h-1v2h1v-1z"/></g><g class="gotchi-primary"><path d="M44 42h1v1h-1zm-1-6h1v1h-1z"/><path d="M42 37h1v1h-1z"/><path d="M42 39v-1h-2v1h1zm0 4v1h2v-1h-1z"/><path d="M40 44h-2v1h4v-1h-1z"/><path d="M38 42v-2h-1v4h1v-1z"/><path d="M40 40v-1h-2v1h1z"/></g><g class="gotchi-secondary"><path d="M42 44v1h2v-1h-1zm-5-2v-1h-1v3h1v-1z"/><path d="M40 45h-2v1h4v-1h-1z"/><path d="M37 44h1v1h-1zm7-1h1v1h-1z"/></g></g><g class="gotchi-handsDownOpen"><g class="gotchi-primary"><path d="M14 40h1v1h-1v-1zm-1-6h1v1h-1v-1z"/><path d="M14 33h1v1h-1v-1zm-2 2h1v1h-1v-1zm-5 3h1v4H7v-4zm5 3h2v1h-2v-1z"/><path d="M8 42h4v1H8v-1zm0-5h2v1H8v-1z"/><path d="M10,36h2v1h-2V36z"/></g><g class="gotchi-secondary"><path d="M14,39h1v1h-1V39z"/><path d="M12,40h2v1h-2V40z"/><path d="M8,41h4v1H8V41z"/></g><path d="M8,38v3h4v-1h2v-1h1v-5h-1v1h-1v1h-1v1h-2v1H8z" fill="#fff" /><g class="gotchi-primary"><path d="M49 40h1v1h-1v-1zm1-6h1v1h-1v-1z"/><path d="M49 33h1v1h-1v-1zm2 2h1v1h-1v-1zm5 3h1v4h-1v-4zm-6 3h2v1h-2v-1z"/><path d="M52 42h4v1h-4v-1zm2-5h2v1h-2v-1z"/><path d="M52,36h2v1h-2V36z"/></g><g class="gotchi-secondary"><path d="M49,39h1v1h-1V39z"/><path d="M50,40h2v1h-2V40z"/><path d="M52,41h4v1h-4V41z"/></g><path d="M54,38v-1h-2v-1h-1v-1h-1v-1h-1v5h1v1h2v1h4v-3H54z" fill="#fff" /></g><g class="gotchi-handsUp"><g class="gotchi-secondary"><path d="M50,38h1v1h-1V38z"/><path d="M49 39h1v1h-1v-1zm2-2h1v1h-1v-1z"/><path d="M52,36h2v1h-2V36z"/><path d="M54,35h2v1h-2V35z"/></g><path d="M52,32v1h-2v1h-1v5h1v-1h1v-1h1v-1h2v-1h2v-3H52z" fill="#fff"/><g class="gotchi-primary"><path d="M49,33h1v1h-1V33z"/><path d="M50 32h2v1h-2v-1zm0 7h1v1h-1v-1z"/><path d="M49 40h1v1h-1v-1zm2-2h1v1h-1v-1z"/><path d="M52 37h2v1h-2v-1zm0-6h4v1h-4v-1z"/><path d="M56,32h1v4h-1V32z"/><path d="M54,36h2v1h-2V36z"/></g><g class="gotchi-secondary"><path d="M13,38h1v1h-1V38z"/><path d="M14 39h1v1h-1v-1zm-2-2h1v1h-1v-1z"/><path d="M10,36h2v1h-2V36z"/><path d="M8,35h2v1H8V35z"/></g><path d="M8,32v3h2v1h2v1h1v1h1v1h1v-5h-1v-1h-2v-1H8z" fill="#fff"/><g class="gotchi-primary"><path d="M14,33h1v1h-1V33z"/><path d="M12 32h2v1h-2v-1zm1 7h1v1h-1v-1z"/><path d="M14 40h1v1h-1v-1zm-2-2h1v1h-1v-1z"/><path d="M10 37h2v1h-2v-1zm-2-6h4v1H8v-1z"/><path d="M7,32h1v4H7V32z"/><path d="M8,36h2v1H8V36z"/></g></g><g class="gotchi-wearable wearable-face"><svg x="11" y="6"><path d="M40 13V0h-2v25h2v-2h2V13h-2z" fill="#2800af"/><path d="M38 13v10h2V13h-2z" fill="#9b00a0"/><path d="M40 11h-2v2h2v-2zm-2 12v2h2v-2h-2z"/><path d="M40 13v2h2v-2h-2zm0 8v2h2v-2h-2z"/><path d="M38 15v6h2v-6h-2z" fill="#ff09d7"/><path d="M2 13V0h2v25H2v-2H0V13h2z" fill="#2800af"/><path d="M4 13v10H2V13h2z" fill="#9b00a0"/><path d="M2 11h2v2H2v-2zm2 12v2H2v-2h2z"/><path d="M2 13v2H0v-2h2zm0 8v2H0v-2h2z"/><path d="M4 15v6H2v-6h2z" fill="#ff09d7"/></svg></g><g class="gotchi-wearable wearable-eyes"><svg x="19" y="20"><path d="M11 3V2h-1V1H8V0H4v1H2v1H1v2H0v4h1v2h1v1h2v1h4v-1h2v-1h1V8h1V4h-1V3zm14 1V2h-1V1h-2V0h-4v1h-2v1h-1v2h-1v4h1v2h1v1h2v1h4v-1h2v-1h1V8h1V4h-1z" fill="#fff"/><g fill="#4309d7"><path d="M7 2H4v1h4V2H7z"/><path d="M9 2h1V1H8v1h1z"/><path d="M10 4h1V2h-1v2zM6 1h2V0H4v1h2zm2 9v1h2v-1H8z"/><path d="M10 9v1h1V8h-1v1z"/><path d="M11 5v3h1V4h-1v1zM1 6V4H0v4h1V6z"/><path d="M6 11v1h2v-1H6zM2 3V2H1v2h1V3z"/><path d="M4 2V1H2v1h2zM3 3h1v1H3z"/><path d="M2 5v3H1v2h1v1h1v-1h1V9h1V8h2V7h1V5H7V4H5v1H4v2H3V4H2v1zm6-2h1v1H8zM7 9H6v1h2V9H7z"/><path d="M8 8h1v1H8z"/><path d="M10 7V4H9v4h1V7zm11-5h-3v1h4V2h-1z"/><path d="M23 2h1V1h-2v1h1z"/><path d="M24 4h1V2h-1v2zm-4-3h2V0h-4v1h2zm2 9v1h2v-1h-2z"/><path d="M24 9v1h1V8h-1v1z"/><path d="M25 4v4h1V4h-1zM15 6V4h-1v4h1V6z"/><path d="M20 11v1h2v-1h-2zm-4-8V2h-1v2h1V3z"/><path d="M18 2V1h-2v1h2zm-1 1h1v1h-1z"/><path d="M16 5v3h-1v2h1v1h1v-1h1V9h1V8h2V7h1V5h-1V4h-2v1h-1v2h-1V4h-1v1zm6-2h1v1h-1zm-1 6h-1v1h2V9h-1z"/><path d="M22 8h1v1h-1z"/><path d="M24 7V4h-1v4h1V7z"/></g></svg></g><g class="gotchi-wearable wearable-head"><svg x="7" y="0"><path d="M6 6h2v2H6V6zm2-4h2v2H8V2zm-4 8h2v2H4v-2zm-2 4h2v2H2v-2zM0 26h2v2H0v-2zM13 0h2v2h-2V0zM0 20h2v2H0v-2zm46-6h2v2h-2v-2zM32 0h2v2h-2V0z"/><path d="M48 24v-2h-3v-4h1v-2h-2v-4h-2V8h-5V6h2V4h-7V2H15v2h-5v2h2v2H8v4H6v4H4v2h1v4H2v2h3v4H2v2h5v3h3v1h1V22h1v-2h2v-2h2v-4h2v-2h2v-2h2V8h8v2h4v2h4v2h2v19h3v-3h5v-2h-3v-4h3z"/><path d="M48 20h2v2h-2v-2zm0 6h2v2h-2v-2zM39 2h2v2h-2V2zm5 8h2v2h-2v-2zm-2-4h2v2h-2V6z"/></svg></g>"><svg x="12" y="32"><g><g class="gotchi-sleeves gotchi-sleeves-left gotchi-sleeves-up"><path d="M38 0v1h-1v8h1V8h1V7h1V0z" fill="#141b30"/><path d="M37,8h1V7h1V1h-1v1h-1V8z" fill="#343a4c"/></g><g class="gotchi-sleeves gotchi-sleeves-left gotchi-sleeves-down"><path d="M38 10V9h-1V1h1v1h1v1h1v7z" fill="#141b30"/><path d="M37,8h1v1h1V3h-1V2h-1V8z" fill="#343a4c"/></g><g class="gotchi-sleeves gotchi-sleeves-right gotchi-sleeves-up"><path d="M2 0v1h1v8H2V8H1V7H0V0z" fill="#141b30"/><path d="M3,2H2V1H1v6h1v1h1V2z" fill="#343a4c"/></g><g class="gotchi-sleeves gotchi-sleeves-right gotchi-sleeves-down"><path d="M2 10V9h1V1H2v1H1v1H0v7z" fill="#141b30"/><path d="M3,2H2v1H1v6h1V8h1V2z" fill="#343a4c"/></g></g></svg><g class="gotchi-wearable wearable-hand wearable-hand-left"><svg x="0" y="24"><path d="M0,1v9h11.5V1H0z" fill="#7d0064"/><path d="M8 3V2H3v1H2v6h1V8h1v1h1V8h1v1h1V8h1v1h1V3H8zM7 3v1H6V3h1zM5 3v1H4V3h1zm3 3H7v1H4V6H3V5h1v1h3V5h1v1z" fill="#fff"/><path d="M11,0v25h1V0H11z" fill="#8e7064"/><path d="M11 24h1v1h-1v-1zm0-24h1v1h-1V0z" fill="#7a5749"/></svg></g><g class="gotchi-wearable wearable-pet"><svg x="44" y="33"><path d="M16 4V3h-1V2h-1V1h-2V0H5v1H3v1H2v1H1v1H0v7h1v1h1v1h1v1h2v1h2v2H3v1H1v2h1v1H1v1H0v3h1v1h2v-1h1v-1h1v-1h7v1h1v1h1v1h2v-1h1v-3h-1v-1h-1v-1h1v-2h-2v-1h-4v-2h2v-1h2v-1h1v-1h1v-1h1V4h-1z"/><path d="M15 4V3h-1V2h-2V1H5v1H3v1H2v1H1v7h1v1h1v1h2v1h3v3h1v-3h3v-1h2v-1h1v-1h1V4h-1zM8 8v1H7V8h1V7H7V6h1v1h1V6h1v1H9v1h1v1H9V8H8z" fill="#a0a0a0"/><g fill="#2800af"><path d="M2 19h1v1H2z"/><path d="M5 21v-1H3v2h1v-1h1z"/><path d="M4 22h1v1H4z"/><path d="M5 21v1h2v-1H5zm6 0h-1v1h2v-1h-1z"/><path d="M12 20v1h1v1h1v-2h-2z"/><path d="M14 19h1v1h-1zm-2 3h1v1h-1zm-1-2h1v-1h1v-1H4v1h1v1h2v1h1v1h1v-1h1v-1h1z"/></g><g fill="#e6e6e6"><path d="M14 11h1v1h-1z"/><path d="M15 4v7h1V4h-1z"/><path d="M14 3h1v1h-1zm-2 9v1h2v-1h-2z"/><path d="M13 3h1V2h-2v1h1zM2 11h1v1H2z"/><path d="M2 9V4H1v7h1V9z"/><path d="M2 3h1v1H2zm2 9H3v1h2v-1H4z"/><path d="M5 3V2H3v1h2z"/><path d="M7 2h5V1H5v1h2zm3 11H5v1h7v-1h-2zM8 6h1v1H8z"/><path d="M7 7h1v1H7zm2 0h1v1H9z"/><path d="M8 8h1v1H8z"/></g><g fill="#c8c8c8"><path d="M6 5h1v1h3V5h1V4h1V3H5v1h1v1z"/><path d="M6 10V9h1V6H6V5H5V4H3v7h2v-1h1z"/><path d="M11 10h-1V9H7v1H6v1H5v1h7v-1h-1v-1z"/><path d="M14 4h-2v1h-1v1h-1v3h1v1h1v1h2V4z"/></g><path d="M14 22v3h2v-3h-2z" fill="#a0a0a0"/><path d="M15 22v3h1v-3h-1z" fill="#e6e6e6"/><path d="M3 22v3H1v-3h2z" fill="#a0a0a0"/><path d="M2 22v3H1v-3h1z" fill="#e6e6e6"/><g fill="#4309d7"><path d="M5 19v1h2v-1H5z"/><path d="M4 20h1v1H4z"/><path d="M5 21h1v1H5zm6 0h1v1h-1z"/><path d="M12 20h1v1h-1z"/><path d="M11 19h-1v1h2v-1h-1z"/></g><path d="M4 18h1v1H4zm-2 1h1v1H2zm1 2h1v1H3zm5-2H7v1h3v-1H8zm0 2h1v1H8zm6-2h1v1h-1zm-1 2h1v1h-1zm-1-3h1v1h-1z" fill="#ff09d7"/></svg></g></svg>