<svg xmlns="http://www.w3.org/2000/svg" viewBox="0 0 64 64"><g class="gotchi-bg"><defs fill="#fff"><pattern id="a" patternUnits="userSpaceOnUse" width="4" height="4"><path d="M0 0h1v1H0zm2 2h1v1H2z"/></pattern><pattern id="b" patternUnits="userSpaceOnUse" x="0" y="0" width="2" height="2"><path d="M0 0h1v1H0z"/></pattern><pattern id="c" patternUnits="userSpaceOnUse" x="-2" y="0" width="8" height="1"><path d="M0 0h1v1H0zm2 0h1v1H2zm2 0h1v1H4z"/></pattern><pattern id="d" patternUnits="userSpaceOnUse" x="0" y="0" width="4" height="4"><path d="M0 0h1v1H0zm0 2h1v1H0zm1 0V1h1v1zm1 0h1v1H2zm0-1h1V0H2zm1 2h1v1H3z"/></pattern><pattern id="e" patternUnits="userSpaceOnUse" width="64" height="32"><path d="M4 4h1v1H4zm7 0h1v1h-1zm7 0h1v1h-1zm7 0h1v1h-1zm7 0h1v1h-1zm7 0h1v1h-1zm7 0h1v1h-1zm7 0h1v1h-1zm7 0h1v1h-1z"/><path fill="url(#a)" d="M0 8h64v7H0z"/><path fill="url(#b)" d="M0 16h64v1H0z"/><path fill="url(#c)" d="M0 18h64v1H0z"/><path fill="url(#b)" d="M22 18h15v1H22zM0 20h64v3H0z"/><path fill="url(#d)" d="M0 24h64v8H0z"/></pattern><mask id="f"><path fill="url(#e)" d="M0 0h64v32H0z"/></mask></defs><path fill="#fff" d="M0 0h64v32H0z"/><path fill="#dea8ff" class="gotchi-secondary" mask="url(#f)" d="M0 0h64v32H0z"/><path fill="#dea8ff" class="gotchi-secondary" d="M0 32h64v32H0z"/><path mask="url(#f)" fill="#fff" transform="matrix(1 0 0 -1 0 64)" d="M0 0h64v32H0z"/></g><style>.gotchi-primary{fill:#FF5E00;}.gotchi-secondary{fill:#FFCAA2;}.gotchi-cheek{fill:#F696C6;}.gotchi-eyeColor{fill:#FF00FF;}.gotchi-primary-mouth{fill:#FF5E00;}.gotchi-sleeves-up{display:none;}.gotchi-handsUp{display:none;}.gotchi-handsDownOpen{display:block;}.gotchi-handsDownClosed{display:none;}</style><g class="gotchi-bg"><defs fill="#fff"><pattern id="a" patternUnits="userSpaceOnUse" width="4" height="4"><path d="M0 0h1v1H0zm2 2h1v1H2z"/></pattern><pattern id="b" patternUnits="userSpaceOnUse" x="0" y="0" width="2" height="2"><path d="M0 0h1v1H0z"/></pattern><pattern id="c" patternUnits="userSpaceOnUse" x="-2" y="0" width="8" height="1"><path d="M0 0h1v1H0zm2 0h1v1H2zm2 0h1v1H4z"/></pattern><pattern id="d" patternUnits="userSpaceOnUse" x="0" y="0" width="4" height="4"><path d="M0 0h1v1H0zm0 2h1v1H0zm1 0V1h1v1zm1 0h1v1H2zm0-1h1V0H2zm1 2h1v1H3z"/></pattern><pattern id="e" patternUnits="userSpaceOnUse" width="64" height="32"><path d="M4 4h1v1H4zm7 0h1v1h-1zm7 0h1v1h-1zm7 0h1v1h-1zm7 0h1v1h-1zm7 0h1v1h-1zm7 0h1v1h-1zm7 0h1v1h-1zm7 0h1v1h-1z"/><path fill="url(#a)" d="M0 8h64v7H0z"/><path fill="url(#b)" d="M0 16h64v1H0z"/><path fill="url(#c)" d="M0 18h64v1H0z"/><path fill="url(#b)" d="M22 18h15v1H22zM0 20h64v3H0z"/><path fill="url(#d)" d="M0 24h64v8H0z"/></pattern><mask id="f"><path fill="url(#e)" d="M0 0h64v32H0z"/></mask></defs><path fill="#fff" d="M0 0h64v32H0z"/><path fill="#dea8ff" class="gotchi-secondary" mask="url(#f)" d="M0 0h64v32H0z"/><path fill="#dea8ff" class="gotchi-secondary" d="M0 32h64v32H0z"/><path mask="url(#f)" fill="#fff" transform="matrix(1 0 0 -1 0 64)" d="M0 0h64v32H0z"/></g><g class="gotchi-body"><g class="gotchi-primary"><path d="M21 12h2v-2h-4v2h1z"/><path d="M19 14v-2h-2v2h1zm6-4h2V8h-4v2h1z"/><path d="M29 8h8V6H27v2h1zm16 6h2v-2h-2v1z"/><path d="M48 14h-1v39h-2v2h4V14zm-11-4h4V8h-4v1z"/><path d="M41 12h4v-2h-4v1zM17 53V14h-2v41h4v-2h-1z"/><path d="M24 51h-5v2h5v-1z"/><path d="M27 53h-3v2h5v-2h-1zm18-2h-5v2h5v-1z"/><path d="M35 51h-6v2h6v-1z"/><path d="M38 53h-3v2h5v-2h-1z"/></g><g class="gotchi-secondary"><path d="M18 43v6h2v-1h2v1h2v2h-5v2h-2V14h2v1h-1v26z"/><path d="M27 51h-3v2h5v-2h-1zm11 0h-3v2h5v-2h-1z"/><path d="M35 49h-2v-1h-2v1h-2v2h6v-1zM25 11h2v-1h-4v1h1zm-4 2h2v-1h-4v1h1zm24 31v5h-1v-1h-2v1h-2v2h5v2h2V14h-2v29z"/><path d="M37 8H27v1h5v1h5V9zm8 4h-4v2h4v-1z"/><path d="M41 10h-4v2h4v-1z"/></g><path d="M44 14h-3v-2h-4v-2h-5V9h-5v2h-4v2h-4v2h-1v34h2v-1h2v1h2v2h5v-2h2v-1h2v1h2v2h5v-2h2v-1h2v1h1V14z" fill="#fff"/></g><path class="gotchi-cheek" d="M21 32v2h2v-2h-1zm21 0h-1v2h2v-2z"/><g class="gotchi-primary-mouth"><path d="M29 32h-2v2h2v-1z"/><path d="M33 34h-4v2h6v-2h-1z"/><path d="M36 32h-1v2h2v-2z"/></g><g class="gotchi-shadow"><path opacity=".25" d="M25 58H19v1h1v1h24V59h1V58h-1z" fill="#000"/></g><g class="gotchi-collateral"><path d="M30 11v1h4v-1h-4z"/><path d="M29 12h1v1h-1zm7.5 2.5v4h1v-4h-1zm-10 4h1v-4h-1v4z"/><path d="M27.5 13.5h1v1h-1zm8 5h1v1h-1zm0-5h1v1h-1zM34 12h1v1h-1zm-5 8h1v1h-1zm-1.5-1.5h1v1h-1zM34 20h1v1h-1z"/><path d="M30 21v1h4v-1h-4z"/><g fill="#ff5e00"><path d="M32.5 16h-1v-1h2v-1h-1v-1h-1v1h-2v1h1v3h-1v1h2v1h1v-1h1v-1h-2v-1h2v-1h-1z"/><path d="M33.5 17h1v1h-1zm0-2h1v1h-1z"/></g></g>
    <style>
        .gotchi-bg { display: none }
    </style>
<g class="gotchi-eyeColor"><g><path d="M40 23v2h1v-2h-1z" /><path d="M39 24v-1h-2v2h1v1h2v-1h-1v-1zm-13 0v1h1v-2h-1v1z" /><path d="M25 24v-1h-2v2h1v1h2v-1h-1v-1z" /></g><g class="gotchi-primary"><path d="M35 23h-1v1h1v-1zm0 2h-1v1h1v-1zm9-2h-1v1h1v-1z" /><path d="M45 24h-1v1h1v-1zm-8-1h6v-1h-8v1h2z" /><path d="M34 24h-1v1h1v-1zm10 1h-1v1h1v-1z" /><path d="M41 26h-6v1h8v-1h-2zm-20-3h-1v1h1v-1zm0 2h-1v1h1v-1zm9-2h-1v1h1v-1z" /><path d="M31 24h-1v1h1v-1zm-8-1h6v-1h-8v1h2z" /><path d="M20 24h-1v1h1v-1zm10 1h-1v1h1v-1z" /><path d="M27 26h-6v1h8v-1h-2z" /></g></g><g class="gotchi-wearable wearable-body"><svg x="12" y="32"><path d="M3,1v20h34V1h-3v1h-1v1h-1v1h-1v1h-1v1h-1v1h-2v1h-3v1h-8V8h-3V7h-2V6h-1V5H9V4H8V3H7V2H6V1H3z" fill="#bc20d2"/><path d="M34,2v1h-1v1h-1v1h-1v1h-1v1h-1v1h-2v1h-3v1h-8V9h-3V8h-2V7h-1V6H9V5H8V4H7V3H6V2H4v18h32V2H34z" fill="#4c0067"/><path d="M9.6 17.2H7.9V12H7v6.1h3.5V12h-.9v5.2zm1.8-5.2v6.1h.9v-1.7h2.6V12h-3.5zm2.6 3.4h-1.8v-2.6H14v2.6zm7.3-3.4v6.1h.9v-5.2h1.7v5.2h.9V12h-3.5zM17 12v6.1h3.5V12H17zm2.6 5.2h-1.7v-4.3h1.7v4.3zM32.1 12v3.5h-1.7V12h-.9v4.3h1.3V18h.9v-1.7H33V12h-.9zm-5.6 5.2V12h-.9v6.1h3.5v-.9h-2.6z" fill="#fff"/></svg></g><g class="gotchi-handsDownClosed"><g class="gotchi-primary"><path d="M19 42h1v1h-1zm1-6h1v1h-1z"/><path d="M21 37h1v1h-1zm5 3v4h1v-4zm-5 3h-1v1h2v-1z"/><path d="M24 44h-2v1h4v-1h-1zm1-5h-1v1h2v-1z"/><path d="M23 38h-1v1h2v-1z"/></g><g class="gotchi-secondary"><path d="M19 43h1v1h-1zm5 2h-2v1h4v-1h-1z"/><path d="M27 41v3h1v-3zm-6 3h-1v1h2v-1z"/><path d="M26 44h1v1h-1zm-7-3h-1v2h1v-1z"/></g><g class="gotchi-primary"><path d="M44 42h1v1h-1zm-1-6h1v1h-1z"/><path d="M42 37h1v1h-1z"/><path d="M42 39v-1h-2v1h1zm0 4v1h2v-1h-1z"/><path d="M40 44h-2v1h4v-1h-1z"/><path d="M38 42v-2h-1v4h1v-1z"/><path d="M40 40v-1h-2v1h1z"/></g><g class="gotchi-secondary"><path d="M42 44v1h2v-1h-1zm-5-2v-1h-1v3h1v-1z"/><path d="M40 45h-2v1h4v-1h-1z"/><path d="M37 44h1v1h-1zm7-1h1v1h-1z"/></g></g><g class="gotchi-handsDownOpen"><g class="gotchi-primary"><path d="M14 40h1v1h-1v-1zm-1-6h1v1h-1v-1z"/><path d="M14 33h1v1h-1v-1zm-2 2h1v1h-1v-1zm-5 3h1v4H7v-4zm5 3h2v1h-2v-1z"/><path d="M8 42h4v1H8v-1zm0-5h2v1H8v-1z"/><path d="M10,36h2v1h-2V36z"/></g><g class="gotchi-secondary"><path d="M14,39h1v1h-1V39z"/><path d="M12,40h2v1h-2V40z"/><path d="M8,41h4v1H8V41z"/></g><path d="M8,38v3h4v-1h2v-1h1v-5h-1v1h-1v1h-1v1h-2v1H8z" fill="#fff" /><g class="gotchi-primary"><path d="M49 40h1v1h-1v-1zm1-6h1v1h-1v-1z"/><path d="M49 33h1v1h-1v-1zm2 2h1v1h-1v-1zm5 3h1v4h-1v-4zm-6 3h2v1h-2v-1z"/><path d="M52 42h4v1h-4v-1zm2-5h2v1h-2v-1z"/><path d="M52,36h2v1h-2V36z"/></g><g class="gotchi-secondary"><path d="M49,39h1v1h-1V39z"/><path d="M50,40h2v1h-2V40z"/><path d="M52,41h4v1h-4V41z"/></g><path d="M54,38v-1h-2v-1h-1v-1h-1v-1h-1v5h1v1h2v1h4v-3H54z" fill="#fff" /></g><g class="gotchi-handsUp"><g class="gotchi-secondary"><path d="M50,38h1v1h-1V38z"/><path d="M49 39h1v1h-1v-1zm2-2h1v1h-1v-1z"/><path d="M52,36h2v1h-2V36z"/><path d="M54,35h2v1h-2V35z"/></g><path d="M52,32v1h-2v1h-1v5h1v-1h1v-1h1v-1h2v-1h2v-3H52z" fill="#fff"/><g class="gotchi-primary"><path d="M49,33h1v1h-1V33z"/><path d="M50 32h2v1h-2v-1zm0 7h1v1h-1v-1z"/><path d="M49 40h1v1h-1v-1zm2-2h1v1h-1v-1z"/><path d="M52 37h2v1h-2v-1zm0-6h4v1h-4v-1z"/><path d="M56,32h1v4h-1V32z"/><path d="M54,36h2v1h-2V36z"/></g><g class="gotchi-secondary"><path d="M13,38h1v1h-1V38z"/><path d="M14 39h1v1h-1v-1zm-2-2h1v1h-1v-1z"/><path d="M10,36h2v1h-2V36z"/><path d="M8,35h2v1H8V35z"/></g><path d="M8,32v3h2v1h2v1h1v1h1v1h1v-5h-1v-1h-2v-1H8z" fill="#fff"/><g class="gotchi-primary"><path d="M14,33h1v1h-1V33z"/><path d="M12 32h2v1h-2v-1zm1 7h1v1h-1v-1z"/><path d="M14 40h1v1h-1v-1zm-2-2h1v1h-1v-1z"/><path d="M10 37h2v1h-2v-1zm-2-6h4v1H8v-1z"/><path d="M7,32h1v4H7V32z"/><path d="M8,36h2v1H8V36z"/></g></g><g class="gotchi-wearable wearable-eyes"><svg x="15" y="22"><path d="M2.1 7.9v-2h-2V2.1h2v-2h29.8v2h2v3.8h-2v2z"/><path d="M31.8.2v2h2v3.5h-2v2.1H2.2v-2h-2V2.2h2v-2h29.6M32 0H2v2H0v4h2v2h30V6h2V2h-2V0z" fill="#c8c8c8"/><path d="M2 2h30v4H2z"/><path d="M26,2v4h2V2H26z" fill="#c260ff"/><g fill="#c8c8c8"><path d="M2,0h30v2H2V0z"/><path d="M0 2h2v4H0V2zm32 0h2v4h-2V2z"/><path d="M2,6h30v2H2V6z"/></g></svg></g><g class="gotchi-wearable wearable-head"><svg x="11" y="0"><path d="M43 13v-1h-1v-2h-2V8h-2V6h-2V4h-2V2h-4V0H18v2h-4v2h-2v2h-2v2H8v2H6v4H4v4H2v2H0v2h42v-2h-2v-2h-2v-4h-2v-2h-2v-2h4v2h2v1h-1v3h1v1h3v-1h1v-3z"/><path d="M6,16v-2h2v-4h2V8h2V6h2V4h4V2h12v2h4v2h2v2h-4v2h-2v2h2v2h4v2H6z" fill="red"/><path d="M4 18h34v2H4v-2zm36-5h3v3h-3v-3z" fill="#fff"/><path d="M24 8V7h-1V6h-1V5h-2v1h-1v1h-1v1h-1v4h1v1h1v1h1v1h2v-1h1v-1h1v-1h1V8z"/><path d="M23 8V7h-1V6h-2v1h-1v1h-1v4h1v1h1v1h2v-1h1v-1h1V8z" fill="#fffacc"/><g fill="#fff066"><path d="M18,10v2h1v1h1v1h1v-4H18z"/><path d="M23,8V7h-1V6h-1v4h3V8H23z"/></g><path d="M21,10v4h1v-1h1v-1h1v-2H21z" fill="#ffe600"/></svg></g>"><svg x="12" y="32"><g><g class="gotchi-sleeves gotchi-sleeves-left gotchi-sleeves-up"><path d="M36.5 9H38V8h1V7h1V0h-2v1h-1.5v8z" fill="#bc20d2"/><path d="M39 7V1h-1v1h-1v6h1V7h1z" fill="#4c0067"/></g><g class="gotchi-sleeves gotchi-sleeves-left gotchi-sleeves-down"><path d="M36.5 9H38v1h2V3h-1V2h-1V1h-1.5v8z" fill="#bc20d2"/><path d="M38 3V2h-1v6h1v1h1V3h-1z" fill="#4c0067"/></g><g class="gotchi-sleeves gotchi-sleeves-right gotchi-sleeves-up"><path d="M3.5 1H2V0H0v7h1v1h1v1h1.5V1z" fill="#bc20d2"/><path d="M2 7v1h1V2H2V1H1v6h1z" fill="#4c0067"/></g><g class="gotchi-sleeves gotchi-sleeves-right gotchi-sleeves-down"><path d="M3.5 1H2v1H1v1H0v7h2V9h1.5V1z" fill="#bc20d2"/><path d="M1 3v6h1V8h1V2H2v1H1z" fill="#4c0067"/></g></g></svg><g class="gotchi-wearable wearable-hand wearable-hand-left"><svg x="2" y="33"><path d="M12 0v1h-1v1h-1v1H7v1H6V3H2v1H1v1H0v4h1v1h1v1h3v-1h1v1h4v-1h2V9h1V0h-1z" fill="#0a040b"/><path d="M1 5v4h1V5H1z" fill="#0affff"/><path d="M12 1v1h-1v1h-1v1H7v1h1v1h1v1h4V1h-1z" fill="#323232"/><path d="M9 8V7H8V6H7V5H6v5h4V9h2V8H9z" fill="#c5c8cf"/><g fill="#646464"><path d="M3 4v6h2V4H3zm5 0h1v1H8zm4 2h1v1h-1zm-2 0h1v1h-1z"/><path d="M11 5h1v1h-1z"/><path d="M12 4h1v1h-1zm0-2h1v1h-1z"/><path d="M11 3h1v1h-1z"/><path d="M10 4h1v1h-1z"/><path d="M9 5h1v1H9z"/></g><path d="M8 7v3h1V7H8z" fill="#0affff"/><path d="M10 8h1v1h-1zM7 6v4h1V6H7z" fill="#646464"/><path d="M3 4v6h1V4H3z" fill="#c5c8cf"/></svg></g><g class="gotchi-wearable wearable-hand wearable-hand-right"><svg x="3" y="36"><g transform="scale(-1, 1) translate(-58, 0)"><path d="M11 19h-1v-1h1v1zM1 19H0v-1h1v1z"/><path d="M1 7v11h1v1h1v-1h1v1h1v-1h1v1h1v-1h1v1h1v-1h1V7H9V5H8V0H7v1H5v1H4v1H3v2H2v2H1z"/><path d="M2,7v11h1v-1h1v1h1v-1h1v1h1v-1h1v1h1V7H8V5H7V2H5v1H4v2H3v2H2z" fill="#fff"/></g></svg></g><g class="gotchi-wearable wearable-pet"><svg x="42" y="43"><path d="M19 2V1h-1V0h-5v1h-1v1H8V1H7V0H2v1H1v1H0v2h1v1h1v1H1v3h1v1h1v1H2v1H1v2h1v1H1v2h4v1h3v-1h1v-1h2v1h1v1h3v-1h4v-2h-1v-1h1v-2h-1v-1h-1v-1h1V9h1V6h-1V5h1V4h1V2h-1z"/><path d="M18 3h-1v1h-3V3h-2v1h1v1h5V4h1V3h-1zM6 3v1H3V3H1v1h1v1h5V4h1V3H6z" fill="#fff"/><g fill="#59bcff"><path d="M17 1h-4v1h5V1h-1zm-7 4h2V4h-1V3H9v1H8v1h2zM4 2h3V1H2v1h2zm5 11v2h2v-2H9z"/><path d="M16 12v-2H4v2H2v2h2v1H2v1h3v-3h1v3H5v1h3v-4h1v-1h2v1h1v4h3v-1h-1v-3h1v3h3v-1h-2v-1h2v-2h-2z"/></g><path d="M17 6H2v3h16V6h-1zm0 2H3V7h14v1z" fill="#ef1e26"/><defs /></svg></g></svg>