<svg xmlns="http://www.w3.org/2000/svg" viewBox="0 0 64 64"><g class="gotchi-bg"><defs fill="#fff"><pattern id="a" patternUnits="userSpaceOnUse" width="4" height="4"><path d="M0 0h1v1H0zm2 2h1v1H2z"/></pattern><pattern id="b" patternUnits="userSpaceOnUse" x="0" y="0" width="2" height="2"><path d="M0 0h1v1H0z"/></pattern><pattern id="c" patternUnits="userSpaceOnUse" x="-2" y="0" width="8" height="1"><path d="M0 0h1v1H0zm2 0h1v1H2zm2 0h1v1H4z"/></pattern><pattern id="d" patternUnits="userSpaceOnUse" x="0" y="0" width="4" height="4"><path d="M0 0h1v1H0zm0 2h1v1H0zm1 0V1h1v1zm1 0h1v1H2zm0-1h1V0H2zm1 2h1v1H3z"/></pattern><pattern id="e" patternUnits="userSpaceOnUse" width="64" height="32"><path d="M4 4h1v1H4zm7 0h1v1h-1zm7 0h1v1h-1zm7 0h1v1h-1zm7 0h1v1h-1zm7 0h1v1h-1zm7 0h1v1h-1zm7 0h1v1h-1zm7 0h1v1h-1z"/><path fill="url(#a)" d="M0 8h64v7H0z"/><path fill="url(#b)" d="M0 16h64v1H0z"/><path fill="url(#c)" d="M0 18h64v1H0z"/><path fill="url(#b)" d="M22 18h15v1H22zM0 20h64v3H0z"/><path fill="url(#d)" d="M0 24h64v8H0z"/></pattern><mask id="f"><path fill="url(#e)" d="M0 0h64v32H0z"/></mask></defs><path fill="#fff" d="M0 0h64v32H0z"/><path fill="#dea8ff" class="gotchi-secondary" mask="url(#f)" d="M0 0h64v32H0z"/><path fill="#dea8ff" class="gotchi-secondary" d="M0 32h64v32H0z"/><path mask="url(#f)" fill="#fff" transform="matrix(1 0 0 -1 0 64)" d="M0 0h64v32H0z"/></g><style>.gotchi-primary{fill:#26A17B;}.gotchi-secondary{fill:#AEDCCE;}.gotchi-cheek{fill:#F696C6;}.gotchi-eyeColor{fill:#36818E;}.gotchi-primary-mouth{fill:#26A17B;}.gotchi-sleeves-up{display:none;}.gotchi-handsUp{display:none;}.gotchi-handsDownOpen{display:block;}.gotchi-handsDownClosed{display:none;}</style><g class="gotchi-body"><path d="M47 14v-2h-2v-2h-4V8h-4V6H27v2h-4v2h-4v2h-2v2h-2v41h4v-2h5v2h5v-2h6v2h5v-2h5v2h4V14z" class="gotchi-primary"/><path d="M45 14v-2h-4v-2h-4V8H27v2h-4v2h-4v2h-2v39h2v-2h5v2h5v-2h6v2h5v-2h5v2h2V14z" class="gotchi-secondary"/><path d="M18,49h2v-1h2v1h2v2h5v-2h2v-1h2v1h2v2h5v-2h2v-1h2v1h1V14h-4v-2h-4v-2h-5V9h-5v2h-4v2h-4v2h-1V49z" fill="#fff"/></g><path class="gotchi-cheek" d="M21 32v2h2v-2h-1zm21 0h-1v2h2v-2z"/><g class="gotchi-primary-mouth"><path d="M29 32h-2v2h2v-1z"/><path d="M33 34h-4v2h6v-2h-1z"/><path d="M36 32h-1v2h2v-2z"/></g>
    <style>
        .gotchi-bg { display: none }
    </style>
<g class="gotchi-shadow"><path opacity=".25" d="M25 58H19v1h1v1h24V59h1V58h-1z" fill="#000"/></g><g class="gotchi-collateral" fill="#26a17b"><path d="M31 19h2v3h-2zm0-2v1h2v-1h3v-1h-3v-1h2v-2h-6v2h2v1h-3v1z"/><path d="M27 17h1v1h-1z"/><path d="M28 18h3v1h-3zm8-1h1v1h-1z"/><path d="M33 18h3v1h-3z"/></g><g class="gotchi-eyeColor"><path d="M28 22H27V21H26H25H24H23V22H22V23H21V24V25V26V27H22V28H23V29H24H25H26H27V28H28V27H29V26V25V24V23H28V22Z" /><path d="M42 23V22H41V21H40H39H38H37V22H36V23H35V24V25V26V27H36V28H37V29H38H39H40H41V28H42V27H43V26V25V24V23H42Z" /></g><g class="gotchi-wearable wearable-body"><svg x="12" y="32"><path d="M35 1v1h-2v1h-2v1h-2v1h-2v1h-2v1H15V6h-2V5h-2V4H9V3H7V2H5V1H2.5v8H3v14h4v-2h5v2h5v-2h6v2h5v-2h5v2h4V9h.5V1H35z" fill="#092c1b"/><path d="M31 9h1v1h-1V9zm-2 0h1v1h-1V9z" fill="#fff"/><path d="M28,14h1v1h-1V14z" fill="#e15667"/><path d="M27,14h1v1h-1V14z" fill="#fed11f"/><path d="M30,14h1v1h-1V14z" fill="#4b6329"/><path d="M32,14h1v1h-1V14z" fill="#f55549"/><path d="M32,12h1v1h-1V12z" fill="#698bd9"/><path d="M32,13h1v1h-1V13z" fill="#e2e5f3"/><path d="M30,13h1v1h-1V13z" fill="#45322f"/><path d="M29,14h1v1h-1V14z" fill="#474981"/><path d="M31,14h1v1h-1V14z" fill="#756638"/><path d="M18,7v1h1v2h2V8h1V7H18z" fill="#222423"/><path d="M31,13h1v1h-1V13z" fill="#d9c6b2"/><g fill="#c2cbc7"><path d="M22,6v2h-1v2h1V9h1V7h2V6H22z"/><path d="M25 5v1h2V5h-2zM13 5v1h2V5h-2z"/><path d="M18,6h-3v1h2v2h1v1h1V8h-1V6z"/></g><path d="M28,12h1v1h-1V12z" fill="#76946f"/><path d="M29,12h1v1h-1V12z" fill="#cad4e4"/><path d="M30,16h1v1h-1V16z" fill="#fafefd"/><path d="M33,13h1v1h-1V13z" fill="#556592"/><path d="M33,14h1v1h-1V14z" fill="#4770bb"/><g fill="#6f4017"><path d="M9,7h1v1H9V7z"/><path d="M10 8v1h1v3h1V8h-2zm-1 5h1v1H9v-1zm23-4h1v1h-1V9zm-2 0h1v1h-1V9zm-2 0h1v1h-1V9zM8 9h1V8H7v4h1V9z"/><path d="M10 12h1v1h-1v-1zm-2 0h1v1H8v-1z"/></g><path d="M30,12h1v1h-1V12z" fill="#5666bc"/><path d="M29,13h1v1h-1V13z" fill="#f6d435"/><path d="M28,13h1v1h-1V13z" fill="#e6bf8f"/><path d="M7 15v1h5v-1H7zm6-8h1v1h-1V7zm18 5h1v1h-1v-1z" fill="#c23e3f"/><path d="M27,13h1v1h-1V13z" fill="#f75457"/><g fill="#f8af4e"><path d="M10 8H9v1H8v3h1v1h1v-1h1V9h-1V8zm18 2v1h5v-1h-5zm5-1V8h-5v1h5z"/><path d="M27 9h1v1h-1V9zm-1-2h1v1h-1V7zm-6 11h1v1h-1v-1zm0-2h1v1h-1v-1zm13-7h1v1h-1V9z"/></g><g fill="#ddd9d6"><path d="M30,15h1v1h-1V15z"/><path d="M31 17h-1v-1h-1v2h3v-2h-1v1z"/></g><g fill="#283d2e"><path d="M17,13h-1v-1h-1v-1h-1v-1h-2v2h-1v1h-1v1h2v5H7v-5h2v-1H8v-1H7V8h2V7H7V6H5V3H4v17h15v-5h-1v-1h-1V13z"/><path d="M18 9h-1V7h-2V6h-2V5h-2V4H9V3H7V2H5v1h1v2h1v1h2v1h1v1h2v1h2v1h1v1h1v1h1v1h1v1h1v-4h-1V9zm-5-1V7h1v1h-1z"/><path d="M4 1h1v1H4V1zm29 1v1h-2v1h-2v1h-2v1h-2v1h-2v2h-1v1h-2v5h1v-1h1v-1h1v-1h1v-1h1v-1h2V9h1V8h1V7h2V6h2V5h1V3h1V2h-2zm-7 6V7h1v1h-1z"/><path d="M35 1h1v1h-1V1zm0 5h-2v1h-2v1h2v1h1v1h-1v1h-5v-1h-1v1h-2v1h-1v1h-1v1h-1v1h-1v2h-1v1h1v1h-1v1h16V3h-1v3zm-8 13v-6h1v-1h5v1h1v6h-7z"/></g></svg></g><g class="gotchi-handsDownClosed"><g class="gotchi-primary"><path d="M19 42h1v1h-1zm1-6h1v1h-1z"/><path d="M21 37h1v1h-1zm5 3v4h1v-4zm-5 3h-1v1h2v-1z"/><path d="M24 44h-2v1h4v-1h-1zm1-5h-1v1h2v-1z"/><path d="M23 38h-1v1h2v-1z"/></g><g class="gotchi-secondary"><path d="M19 43h1v1h-1zm5 2h-2v1h4v-1h-1z"/><path d="M27 41v3h1v-3zm-6 3h-1v1h2v-1z"/><path d="M26 44h1v1h-1zm-7-3h-1v2h1v-1z"/></g><g class="gotchi-primary"><path d="M44 42h1v1h-1zm-1-6h1v1h-1z"/><path d="M42 37h1v1h-1z"/><path d="M42 39v-1h-2v1h1zm0 4v1h2v-1h-1z"/><path d="M40 44h-2v1h4v-1h-1z"/><path d="M38 42v-2h-1v4h1v-1z"/><path d="M40 40v-1h-2v1h1z"/></g><g class="gotchi-secondary"><path d="M42 44v1h2v-1h-1zm-5-2v-1h-1v3h1v-1z"/><path d="M40 45h-2v1h4v-1h-1z"/><path d="M37 44h1v1h-1zm7-1h1v1h-1z"/></g></g><g class="gotchi-handsDownOpen"><g class="gotchi-primary"><path d="M56 38v-1h-2v-1h-2v-1h-1v-1h-1v-1h-1v8h1v1h2v1h4v-1h1v-4z"/></g><g class="gotchi-secondary"><path d="M54 38v-1h-2v-1h-1v-1h-1v-1h-1v6h1v1h2v1h4v-4z" /></g><path d="M54,38v-1h-2v-1h-1v-1h-1v-1h-1v5h1v1h2v1h4v-3H54z" fill="#fff"/><g class="gotchi-primary"><path d="M8 38v-1h2v-1h2v-1h1v-1h1v-1h1v8h-1v1h-2v1H8v-1H7v-4z"/></g><g class="gotchi-secondary"><path d="M10 38v-1h2v-1h1v-1h1v-1h1v6h-1v1h-2v1H8v-4z" /></g><path d="M8,38v3h4v-1h2v-1h1v-5h-1v1h-1v1h-1v1h-2v1H8z" fill="#fff"/></g><g class="gotchi-handsUp"><g class="gotchi-secondary"><path d="M50,38h1v1h-1V38z"/><path d="M49 39h1v1h-1v-1zm2-2h1v1h-1v-1z"/><path d="M52,36h2v1h-2V36z"/><path d="M54,35h2v1h-2V35z"/></g><path d="M52,32v1h-2v1h-1v5h1v-1h1v-1h1v-1h2v-1h2v-3H52z" fill="#fff"/><g class="gotchi-primary"><path d="M49,33h1v1h-1V33z"/><path d="M50 32h2v1h-2v-1zm0 7h1v1h-1v-1z"/><path d="M49 40h1v1h-1v-1zm2-2h1v1h-1v-1z"/><path d="M52 37h2v1h-2v-1zm0-6h4v1h-4v-1z"/><path d="M56,32h1v4h-1V32z"/><path d="M54,36h2v1h-2V36z"/></g><g class="gotchi-secondary"><path d="M13,38h1v1h-1V38z"/><path d="M14 39h1v1h-1v-1zm-2-2h1v1h-1v-1z"/><path d="M10,36h2v1h-2V36z"/><path d="M8,35h2v1H8V35z"/></g><path d="M8,32v3h2v1h2v1h1v1h1v1h1v-5h-1v-1h-2v-1H8z" fill="#fff"/><g class="gotchi-primary"><path d="M14,33h1v1h-1V33z"/><path d="M12 32h2v1h-2v-1zm1 7h1v1h-1v-1z"/><path d="M14 40h1v1h-1v-1zm-2-2h1v1h-1v-1z"/><path d="M10 37h2v1h-2v-1zm-2-6h4v1H8v-1z"/><path d="M7,32h1v4H7V32z"/><path d="M8,36h2v1H8V36z"/></g></g><g class="gotchi-wearable wearable-face"><svg x="48" y="25"><path d="M3 2V1H2V0H0v3h2V2z"/><path d="M2 3h1v1H2z"/><path d="M1 4h1v1H1z"/><path d="M2 5h1v1H2z"/><path d="M1 6h1v1H1z"/><path d="M1,1h1v1H1V1z" fill="#f0f"/></svg></g><g class="gotchi-wearable wearable-eyes"><svg x="15" y="19"><g fill="#42433d"><path d="M5 9h1v1H5V9zm0-7h1v1H5V2z"/><path d="M6 10h1v1H6v-1zm8-1h1v1h-1V9z"/><path d="M6 1h1v1H6V1zm7 9h1v1h-1v-1z"/><path d="M4 3v2H0v2h4v2h1V3H4zm3 8h6v1H7v-1zm14 0h6v1h-6v-1zm-7-9h1v1h-1V2z"/><path d="M13,1h1v1h-1V1z"/><path d="M7 0h6v1H7V0zm14 0h6v1h-6V0zm-2 9h1v1h-1V9z"/><path d="M20 10h1v1h-1v-1zm7 0h1v1h-1v-1zm3-5V3h-1v6h1V7h4V5h-4z"/><path d="M28 9h1v1h-1V9zm-8-8h1v1h-1V1z"/><path d="M28 2h1v1h-1V2zm-9 0h1v1h-1V2z"/><path d="M18 3v2h-2V3h-1v6h1V7h2v2h1V3h-1zm9-2h1v1h-1V1z"/></g><g opacity=".9"><linearGradient id="A" gradientUnits="userSpaceOnUse" x1="17" y1="11" x2="17" y2="1"><stop offset="0" stop-color="#ee34b8"/><stop offset=".085" stop-color="#ef3dbb"/><stop offset=".225" stop-color="#f155c4"/><stop offset=".4" stop-color="#f47dd2"/><stop offset=".606" stop-color="#f9b4e5"/><stop offset=".834" stop-color="#fffafd"/><stop offset=".85" stop-color="#fff"/></linearGradient><path d="M14 2h-1V1H7v1H6v1H5v6h1v1h1v1h6v-1h1V9h1V3h-1V2zm14 0h-1V1h-6v1h-1v1h-1v6h1v1h1v1h6v-1h1V9h1V3h-1V2z" fill="url(#A)"/></g></svg></g><g class="gotchi-wearable wearable-head"><svg x="12" y="2"><path d="M3 29h1v-1h1v-9h30v9h1v1h1v1h3v-6h-1v-7h-1v-6h-1V7h-2V5h-2V3h-2V2h-4V1h-4V0h-6v1h-4v1H9v1H7v2H5v2H3v4H2v6H1v7H0v6h3v-1h0z"/><g fill="#232323"><path d="M5,18v1h30v-1H5z"/><path d="M4 27H3v2h1v-1h1v-9H4v8z"/><path d="M2 29H1v1h2v-2H2v1zm36 0v-1h-1v-1h-1v-8h-1v9h1v1h1v1h2v-1h-1z"/></g><g fill="#646464"><path d="M5,17v1h30v-1H5z"/><path d="M35 18h1v1h-1v-1zM4 18h1v1H4v-1z"/><path d="M3 27h1v-8H3v8zm34 0v-8h-1v8h1v1h1v-1h-1z"/><path d="M2 27h1v1H2v-1zm36 1h1v1h-1v-1z"/><path d="M1 28h1v1H1v-1zm38 1h1v1h-1v-1z"/><path d="M0,29h1v1H0V29z"/></g><path d="M25.5 3v1h-1v1h-1v1h-1v1h-1v1h-1v1h3v1h-1v1h-1v1h-1v1h-1v-1h-1v-1h-1v-1h-1V9h3V8h-1V7h-1V6h-1V5h-1V4h-1V3h-4v1h1v1h1v1h1v1h1v1h-3v1h1v1h1v1h1v1h1v1h1v1h1v1h1v1h3v-1h1v-1h1v-1h1v-1h1v-1h1v-1h1V9h1V8h-3V7h1V6h1V5h1V4h1V3h-4z" fill="#a000dc"/><path d="M25.5 3v1h-1v1h-1v1h-1v1h-1v1h-1v1h3v1h-1v1h-1v1h-1v1h-1v-1h-1v-1h-1v-1h-1V9h3V8h-1V7h-1V6h-1V5h-1V4h-1V3h-3v1h1v1h1v1h1v1h1v1h-3v1h1v1h1v1h1v1h1v1h1v1h1v1h1v1h1v-1h1v-1h1v-1h1v-1h1v-1h1v-1h1V9h1V8h-3V7h1V6h1V5h1V4h1V3h-3z" fill="#c02df0"/><g fill="#d778f5"><path d="M19.5,13h1v1h-1V13z"/><path d="M18.5,12h1v1h-1V12z"/><path d="M17.5,11h1v1h-1V11z"/><path d="M16.5 10h1v1h-1v-1zm-3-7h1v1h-1V3z"/><path d="M14.5,4h1v1h-1V4z"/><path d="M15.5,5h1v1h-1V5z"/><path d="M16.5,6h1v1h-1V6z"/><path d="M17.5 7h1v1h-1V7zm-2 2h1v1h-1V9z"/><path d="M18.5 8h1v1h-1V8zm2 4h1v1h-1v-1z"/><path d="M21.5,11h1v1h-1V11z"/><path d="M22.5 10h1v1h-1v-1zm3-7h1v1h-1V3z"/><path d="M24.5,4h1v1h-1V4z"/><path d="M23.5,5h1v1h-1V5z"/><path d="M22.5,6h1v1h-1V6z"/><path d="M21.5 7h1v1h-1V7zm2 2h1v1h-1V9z"/><path d="M20.5,8h1v1h-1V8z"/></g>
</svg></g>"><svg x="12" y="32"><g><g class="gotchi-sleeves gotchi-sleeves-left gotchi-sleeves-up"><path d="M38,1V0h2v7h-1v1h-1v1h-1.5V1H38z" fill="#092c1b"/><path d="M38,8h-1V7h1V8z" fill="#f8af4e"/><path d="M37,7h2V1h-1v1h-1V7z" fill="#283d2e"/></g><g class="gotchi-sleeves gotchi-sleeves-left gotchi-sleeves-down"><path d="M39 0v1h-1v1h1v1h1v7h-2V9h-1.5V1h.5V0h2z" fill="#092c1b"/><path d="M38,3h-1V2h1V3z" fill="#ddd9d6"/><path d="M37,8h1v1h1V3h-2V8z" fill="#283d2e"/></g><g class="gotchi-sleeves gotchi-sleeves-right gotchi-sleeves-up"><path d="M2,1V0H0v7h1v1h1v1h1.5V1H2z" fill="#092c1b"/><path d="M2,7h1v1H2V7z" fill="#ddd9d6"/><path d="M3,2H2V1H1v6h2V2z" fill="#283d2e"/></g><g class="gotchi-sleeves gotchi-sleeves-right gotchi-sleeves-down"><path d="M1,0v1h1v1H1v1H0v7h2V9h1.5V1H3V0H1z" fill="#092c1b"/><path d="M2,2h1v1H2V2z" fill="#f8af4e"/><path d="M3,3H1v6h1V8h1V3z" fill="#283d2e"/></g></g></svg><g class="gotchi-wearable wearable-hand wearable-hand-left"><svg x="1" y="27"><path d="M11 7V6h-1V5H3v1H2v1H1v7h1v2h1v1h2v1h3v-1h2v-1h1v-2h1V7z" fill="#511f17"/><path d="M9 9h1v1H9V9zm-7 4h1v-3H2v3zm2-1h1v-2H4v2zm2 2h1v-3H6v3zm2-3h1v1H8v-1zm2 0v2h1v-2h-1zm-6 5h1v-3H4v3zm4-1h1v-2H8v2zm-2 2h1v-2H6v2z" fill="#7a500c"/><path d="M10 7V6H3v1H2v1h1v1h7V8h1V7z" fill="#955c4b"/><path d="M3 7h7v1H3z" fill="#fff"/><g fill="#ff89ff"><path d="M2 0h1v1H2z"/><path d="M1 1h1v1H1zm2 0h1v2H3z"/><path d="M0 2h1v1H0zm4 1h1v2H4z"/><path d="M5 5h1v2H5z"/><path d="M6 7h1v1H6z"/></g></svg></g><g class="gotchi-wearable wearable-hand wearable-hand-right"><svg x="7" y="25"><g transform="scale(-1, 1) translate(-50, 0)"><path d="M5 0v1H4v1H3v2H2v2H1v3H0v4h3v5h3V0z"/><path d="M4 2v2H3v2H2v3H1v3h4V2z" fill="#999"/><g fill="#ccc"><path d="M4 2v2h1V2H4zM2 9h1V6H2v3z"/><path d="M3 6h1V4H3v2zm-2 6h1V9H1v3z"/></g><path d="M4,12v5h1v-5H4z" fill="#8c6238"/></g></svg></g><g class="gotchi-wearable wearable-pet"><svg x="40" y="45"><path d="M12 3h1v1h-1zm8-2h1v1h-1zm-6 0h1v1h-1zm8 2h1v1h-1z" fill="#0f0"/><path d="M22 4h-1V3h-1V2h-1V1h-1V0h-1v1h-1v1h-1v1h-1v1h-1v2h-1v1h1v1h1v1h1v1h5V9h1V8h1V7h1V6h-1V4z" fill="#009300"/><path d="M18 3V2h1V1h-1V0h-1v1h-1v1h1v1h1zm-6 3h1v1h-1zm0-3h1v1h-1zm6 3h1v1h-1zm-2-2h1v1h-1zm4-3h1v1h-1zm-6 0h1v1h-1zm5 7h1v1h-1zm-4 0h1v1h-1zm5-4h1v1h-1zm2 2h1v1h-1zm0-3h1v1h-1z" fill="#f0f"/><path d="M17 4v6h1V3h-1v1zm2-1v5h1V2h-1v1zm0 6h1v1h-1zm-4-6v5h1V2h-1v1zm0 6h1v1h-1zm6-5v4h1V4h-1zm-8 1v3h1V4h-1v1z" fill="#006300"/><path d="M17 1h1v1h-1z" fill="#ff0"/><path d="M0 6h1v1H0zm8-2h1v1H8zM2 4h1v1H2z" fill="#0f0"/><path d="M9 6H8V5H7V4H6V3H5v1H4v1H3v1H2v1H1v2H0v1h1v1H0v1h1v1h1v1h1v1h5v-1h1v-1h1v-1h1v-1h-1v-1h1V9h-1V7H9V6z" fill="#009300"/><path d="M10 6h1v1h-1z" fill="#0f0"/><path d="M6 6V5h1V4H6V3H5v1H4v1h1v1h1zm-6 5h1v1H0zm0-2h1v1H0zm0-3h1v1H0zm6 4h1v1H6zM4 7h1v1H4zm4-3h1v1H8zM2 4h1v1H2zm5 8h1v1H7zm-4 0h1v1H3zm5-4h1v1H8zm2 3h1v1h-1zm0-2h1v1h-1zm0-3h1v1h-1zM2 8h1v1H2z" fill="#f0f"/><path d="M5 7v8h1V6H5v1zm2-1v6h1V5H7v1zm0 8v1h1v-2H7v1zM3 6v6h1V5H3v1zm0 8v1h1v-2H3v1zm6-6v5h1V7H9v1zM1 8v5h1V7H1v1z" fill="#006300"/><path d="M5 4h1v1H5z" fill="#ff0"/><g fill="#009300"><path d="M16 13v-1h-1v-1h-1v-1h-1v1h-1v2h-1v1h-1v1h1v1h1v1h4v-1h1v-1h1v-1h-1v-1h-1z"/><path d="M17 12h1v1h-1z"/></g><path d="M13 14v3h1v-4h-1v1zm2-2h1v1h-1zm0 3v2h1v-3h-1v1zm-4-1v2h1v-3h-1v1z" fill="#006300"/><path d="M14 13v-1h1v-1h-1v-1h-1v1h-1v1h1v1zm0 3h1v1h-1zm-2-2h1v1h-1zm-2 0h1v1h-1zm5-1h1v1h-1zm2-1h1v1h-1zm0 2h1v1h-1z" fill="#f0f"/><path d="M13 11h1v1h-1z" fill="#ff0"/></svg></g></svg>