<svg xmlns="http://www.w3.org/2000/svg" viewBox="0 0 64 64"><g class="gotchi-bg"><defs fill="#fff"><pattern id="a" patternUnits="userSpaceOnUse" width="4" height="4"><path d="M0 0h1v1H0zm2 2h1v1H2z"/></pattern><pattern id="b" patternUnits="userSpaceOnUse" x="0" y="0" width="2" height="2"><path d="M0 0h1v1H0z"/></pattern><pattern id="c" patternUnits="userSpaceOnUse" x="-2" y="0" width="8" height="1"><path d="M0 0h1v1H0zm2 0h1v1H2zm2 0h1v1H4z"/></pattern><pattern id="d" patternUnits="userSpaceOnUse" x="0" y="0" width="4" height="4"><path d="M0 0h1v1H0zm0 2h1v1H0zm1 0V1h1v1zm1 0h1v1H2zm0-1h1V0H2zm1 2h1v1H3z"/></pattern><pattern id="e" patternUnits="userSpaceOnUse" width="64" height="32"><path d="M4 4h1v1H4zm7 0h1v1h-1zm7 0h1v1h-1zm7 0h1v1h-1zm7 0h1v1h-1zm7 0h1v1h-1zm7 0h1v1h-1zm7 0h1v1h-1zm7 0h1v1h-1z"/><path fill="url(#a)" d="M0 8h64v7H0z"/><path fill="url(#b)" d="M0 16h64v1H0z"/><path fill="url(#c)" d="M0 18h64v1H0z"/><path fill="url(#b)" d="M22 18h15v1H22zM0 20h64v3H0z"/><path fill="url(#d)" d="M0 24h64v8H0z"/></pattern><mask id="f"><path fill="url(#e)" d="M0 0h64v32H0z"/></mask></defs><path fill="#fff" d="M0 0h64v32H0z"/><path fill="#dea8ff" class="gotchi-secondary" mask="url(#f)" d="M0 0h64v32H0z"/><path fill="#dea8ff" class="gotchi-secondary" d="M0 32h64v32H0z"/><path mask="url(#f)" fill="#fff" transform="matrix(1 0 0 -1 0 64)" d="M0 0h64v32H0z"/></g><style>.gotchi-primary{fill:#000000;}.gotchi-secondary{fill:#FBDFEB;}.gotchi-cheek{fill:#F696C6;}.gotchi-eyeColor{fill:#51FFA8;}.gotchi-primary-mouth{fill:#000000;}.gotchi-sleeves-up{display:none;}.gotchi-handsUp{display:none;}.gotchi-handsDownOpen{display:block;}.gotchi-handsDownClosed{display:none;}</style><g class="gotchi-body"><path d="M47 14v-2h-2v-2h-4V8h-4V6H27v2h-4v2h-4v2h-2v2h-2v41h4v-2h5v2h5v-2h6v2h5v-2h5v2h4V14z" class="gotchi-primary"/><path d="M45 14v-2h-4v-2h-4V8H27v2h-4v2h-4v2h-2v39h2v-2h5v2h5v-2h6v2h5v-2h5v2h2V14z" class="gotchi-secondary"/><path d="M18,49h2v-1h2v1h2v2h5v-2h2v-1h2v1h2v2h5v-2h2v-1h2v1h1V14h-4v-2h-4v-2h-5V9h-5v2h-4v2h-4v2h-1V49z" fill="#fff"/></g><path class="gotchi-cheek" d="M21 32v2h2v-2h-1zm21 0h-1v2h2v-2z"/><g class="gotchi-primary-mouth"><path d="M29 32h-2v2h2v-1z"/><path d="M33 34h-4v2h6v-2h-1z"/><path d="M36 32h-1v2h2v-2z"/></g>
    <style>
        .gotchi-bg { display: none }
    </style>
<g class="gotchi-shadow"><path opacity=".25" d="M25 58H19v1h1v1h24V59h1V58h-1z" fill="#000"/></g><g class="gotchi-collateral"><path d="M35.5 20h1v-1h1v-5h-1v-1h-1v-1h-1v-1h-5v1h-1v1h-1v1h-1v5h1v1h1v1h1v1h5v-1h1v-1zm0-2h-1v1h-4v-1h-1v-3h1v-1h4v1h1v3z"/><path d="M28.5 15h1v-1h1v-1h3v-1h-4v1h-1v1h-1v5h1v1h1v1h4v-1h-3v-1h-1v-1h-1v-3z" fill="#e51b6d"/></g><g class="gotchi-eyeColor"><rect x="22" y="28" width="6" height="6" transform="rotate(-90 22 28)" /><rect x="36" y="22" width="6" height="6" /></g><g class="gotchi-wearable wearable-body"><svg x="7" y="31"><path d="M8 2v22h4v-2h4v2h7v-2h4v2h7v-2h4v2h4V2h-2v1h-1v1h-1v1h-1v1h-2v1h-2v1H17V7h-2V6h-2V5h-1V4h-1V3h-1V2H8z"/><path d="M38 5v1h-1v1h-2v1h-2v2h6V5h-1zm0 4h-2V8h2v1zm-6 1V9h-2v1h2zm-4 0h1V9h-8v1h7zm-8 0V9h-2v1h2zm-3 0V8h-2V7h-2V6h-1V5h-1v5h6zm-4-1h-1V8h2v1h-1zm7 12h-3v1h5v-1h-2zm11 0h-3v1h5v-1h-2zm-20-8v9h1v-2h1v-7h-2zm10 0h-5v7h1v-6h5v6h1v-7h-2zm11 0h-5v7h1v-6h5v6h1v-7h-2zm5 0v7h1v2h1v-9h-2z" fill="#969696"/><path d="M40 4v6h1V3h-1v1zM9 4v6h1V3H9v1zm5 10v6h1v-7h-1v1zm21 0v6h1v-7h-1v1zm-15 6h-3v1h5v-1h-2zm11 0h-3v1h5v-1h-2zm-11-6h-3v1h5v-1h-2zm11 0h-3v1h5v-1h-2zm-11 2h-3v1h5v-1h-2zm11 0h-3v1h5v-1h-2zM9 14v8h1v-9H9v1zm11 4h-3v1h5v-1h-2zm20-4v8h1v-9h-1v1zm-9 4h-3v1h5v-1h-2zm-7-5v7h2v-7h-2z" fill="#e1e1e1"/><path d="M33 11v1h2v-1h-2zm-12 0v1h2v-1h-2zm6 0v1h2v-1h-2zm-12 0v1h2v-1h-2zm-6 0v1h2v-1H9zm30 0v1h2v-1h-2z" fill="#00f0ff"/><path d="M24 11v1h2v-1h-2zm-6 0v1h2v-1h-2zm12 0v1h2v-1h-2zm-18 0v1h2v-1h-2zm24 0v1h2v-1h-2z" fill="#f500eb"/></svg></g><g class="gotchi-handsDownClosed"><g class="gotchi-primary"><path d="M19 42h1v1h-1zm1-6h1v1h-1z"/><path d="M21 37h1v1h-1zm5 3v4h1v-4zm-5 3h-1v1h2v-1z"/><path d="M24 44h-2v1h4v-1h-1zm1-5h-1v1h2v-1z"/><path d="M23 38h-1v1h2v-1z"/></g><g class="gotchi-secondary"><path d="M19 43h1v1h-1zm5 2h-2v1h4v-1h-1z"/><path d="M27 41v3h1v-3zm-6 3h-1v1h2v-1z"/><path d="M26 44h1v1h-1zm-7-3h-1v2h1v-1z"/></g><g class="gotchi-primary"><path d="M44 42h1v1h-1zm-1-6h1v1h-1z"/><path d="M42 37h1v1h-1z"/><path d="M42 39v-1h-2v1h1zm0 4v1h2v-1h-1z"/><path d="M40 44h-2v1h4v-1h-1z"/><path d="M38 42v-2h-1v4h1v-1z"/><path d="M40 40v-1h-2v1h1z"/></g><g class="gotchi-secondary"><path d="M42 44v1h2v-1h-1zm-5-2v-1h-1v3h1v-1z"/><path d="M40 45h-2v1h4v-1h-1z"/><path d="M37 44h1v1h-1zm7-1h1v1h-1z"/></g></g><g class="gotchi-handsDownOpen"><g class="gotchi-primary"><path d="M56 38v-1h-2v-1h-2v-1h-1v-1h-1v-1h-1v8h1v1h2v1h4v-1h1v-4z"/></g><g class="gotchi-secondary"><path d="M54 38v-1h-2v-1h-1v-1h-1v-1h-1v6h1v1h2v1h4v-4z" /></g><path d="M54,38v-1h-2v-1h-1v-1h-1v-1h-1v5h1v1h2v1h4v-3H54z" fill="#fff"/><g class="gotchi-primary"><path d="M8 38v-1h2v-1h2v-1h1v-1h1v-1h1v8h-1v1h-2v1H8v-1H7v-4z"/></g><g class="gotchi-secondary"><path d="M10 38v-1h2v-1h1v-1h1v-1h1v6h-1v1h-2v1H8v-4z" /></g><path d="M8,38v3h4v-1h2v-1h1v-5h-1v1h-1v1h-1v1h-2v1H8z" fill="#fff"/></g><g class="gotchi-handsUp"><g class="gotchi-secondary"><path d="M50,38h1v1h-1V38z"/><path d="M49 39h1v1h-1v-1zm2-2h1v1h-1v-1z"/><path d="M52,36h2v1h-2V36z"/><path d="M54,35h2v1h-2V35z"/></g><path d="M52,32v1h-2v1h-1v5h1v-1h1v-1h1v-1h2v-1h2v-3H52z" fill="#fff"/><g class="gotchi-primary"><path d="M49,33h1v1h-1V33z"/><path d="M50 32h2v1h-2v-1zm0 7h1v1h-1v-1z"/><path d="M49 40h1v1h-1v-1zm2-2h1v1h-1v-1z"/><path d="M52 37h2v1h-2v-1zm0-6h4v1h-4v-1z"/><path d="M56,32h1v4h-1V32z"/><path d="M54,36h2v1h-2V36z"/></g><g class="gotchi-secondary"><path d="M13,38h1v1h-1V38z"/><path d="M14 39h1v1h-1v-1zm-2-2h1v1h-1v-1z"/><path d="M10,36h2v1h-2V36z"/><path d="M8,35h2v1H8V35z"/></g><path d="M8,32v3h2v1h2v1h1v1h1v1h1v-5h-1v-1h-2v-1H8z" fill="#fff"/><g class="gotchi-primary"><path d="M14,33h1v1h-1V33z"/><path d="M12 32h2v1h-2v-1zm1 7h1v1h-1v-1z"/><path d="M14 40h1v1h-1v-1zm-2-2h1v1h-1v-1z"/><path d="M10 37h2v1h-2v-1zm-2-6h4v1H8v-1z"/><path d="M7,32h1v4H7V32z"/><path d="M8,36h2v1H8V36z"/></g></g><g class="gotchi-wearable wearable-eyes"><svg x="15" y="22"><path d="M0,0v2h3v2h1v2h1v1h1v1h7V7h1V6h1V4h1V2h2v2h1v2h1v1h1v1h7V7h1V6h1V4h1V2h3V0H0z"/><path d="M29 1v2h-1V2h-1V1zM14 1v2h-1V2h-1V1z" fill="#fff"/></svg></g><g class="gotchi-wearable wearable-head"><svg x="15" y="14"><path d="M0 0v6h34V0H0z" fill="red"/><path d="M0 2v2h34V2H0z"/></svg></g>"><svg x="7" y="31"><g><g class="gotchi-sleeves gotchi-sleeves-left gotchi-sleeves-up"><path d="M8.5,2H7V1H5V0H1v1H0v4h1v1h2v1h2v1h1v1h1v1h1.5V2z"/><path d="M3,5v1h1V1H1v4H3z" fill="#e1e1e1"/><path d="M5,7h1V2H5V7z" fill="#00f0ff"/><path d="M8,3H7v6h1V3z" fill="#f500eb"/></g><g class="gotchi-sleeves gotchi-sleeves-left gotchi-sleeves-down"><path d="M8.5,2H7v1H6v1H5v1H3v1H1v1H0v4h1v1h4v-1h2v-1h1.5V2z"/><path d="M1,7v4h3V6H3v1H1z" fill="#e1e1e1"/><path d="M5 10h1V5H5v5z" fill="#00f0ff"/><path d="M8,3H7v6h1V3z" fill="#f500eb"/></g><g class="gotchi-sleeves gotchi-sleeves-right gotchi-sleeves-up"><path d="M41.5 10H43V9h1V8h1V7h2V6h2V5h1V1h-1V0h-4v1h-2v1h-1.5v8z"/><path d="M49 5V1h-3v5h1V5h2z" fill="#e1e1e1"/><path d="M45,2h-1v5h1V2z" fill="#00f0ff"/><path d="M42,9h1V3h-1V9z" fill="#f500eb"/></g><g class="gotchi-sleeves gotchi-sleeves-right gotchi-sleeves-down"><path d="M41.5 10H43v1h2v1h4v-1h1V7h-1V6h-2V5h-2V4h-1V3h-1V2h-1.5v8z"/><path d="M47,7V6h-1v5h3V7H47z" fill="#e1e1e1"/><path d="M45,5h-1v5h1V5z" fill="#00f0ff"/><path d="M42,9h1V3h-1V9z" fill="#f500eb"/></g></g></svg><g class="gotchi-wearable wearable-hand wearable-hand-left"><svg x="5" y="25"><path d="M7,2V1H6V0H2v1H1v1H0v22h1v1h1v1h4v-1h1v-1h1V2H7z"/><path d="M2 7v1h4V7H2zm0 11v1h4v-1H2z" fill="#e1e1e1"/><path d="M6 6v3h1V6H6zM1 9h1V6H1v3zm5 11h1v-3H6v3zm-5 0h1v-3H1v3z" fill="#ff6e00"/></svg></g><g class="gotchi-wearable wearable-hand wearable-hand-right"><svg x="5" y="25"><g transform="scale(-1, 1) translate(-54, 0)"><path d="M7,2V1H6V0H2v1H1v1H0v22h1v1h1v1h4v-1h1v-1h1V2H7z"/><path d="M2 7v1h4V7H2zm0 11v1h4v-1H2z" fill="#e1e1e1"/><path d="M6 6v3h1V6H6zM1 9h1V6H1v3zm5 11h1v-3H6v3zm-5 0h1v-3H1v3z" fill="#ff6e00"/></g></svg></g><g class="gotchi-wearable wearable-pet"><svg x="42" y="43"><path d="M19 2V1h-1V0h-5v1h-1v1H8V1H7V0H2v1H1v1H0v2h1v1h1v1H1v3h1v1h1v1H2v1H1v2h1v1H1v2h4v1h3v-1h1v-1h2v1h1v1h3v-1h4v-2h-1v-1h1v-2h-1v-1h-1v-1h1V9h1V6h-1V5h1V4h1V2z"/><path d="M18 3h-1v1h-3V3h-2v1h1v1h5V4h1V3zM6 3v1H3V3H1v1h1v1h5V4h1V3H7z" fill="#fff"/><g fill="#9b00dc"><path d="M17 1h-4v1h5V1zm-7 4h2V4h-1V3H9v1H8v1h1zM4 2h3V1H2v1h1zm5 11v2h2v-2h-1z"/><path d="M16 12v-2H4v2H2v2h2v1H2v1h3v-3h1v3H5v1h3v-4h1v-1h2v1h1v4h3v-1h-1v-3h1v3h3v-1h-2v-1h2v-2h-1z"/></g><path d="M17 6H2v3h16V6h-1zm0 2H3V7h14v1z" fill="#faaff3"/></svg></g></svg>