<svg xmlns="http://www.w3.org/2000/svg" viewBox="0 0 64 64"><g class="gotchi-bg"><defs fill="#fff"><pattern id="a" patternUnits="userSpaceOnUse" width="4" height="4"><path d="M0 0h1v1H0zm2 2h1v1H2z"/></pattern><pattern id="b" patternUnits="userSpaceOnUse" x="0" y="0" width="2" height="2"><path d="M0 0h1v1H0z"/></pattern><pattern id="c" patternUnits="userSpaceOnUse" x="-2" y="0" width="8" height="1"><path d="M0 0h1v1H0zm2 0h1v1H2zm2 0h1v1H4z"/></pattern><pattern id="d" patternUnits="userSpaceOnUse" x="0" y="0" width="4" height="4"><path d="M0 0h1v1H0zm0 2h1v1H0zm1 0V1h1v1zm1 0h1v1H2zm0-1h1V0H2zm1 2h1v1H3z"/></pattern><pattern id="e" patternUnits="userSpaceOnUse" width="64" height="32"><path d="M4 4h1v1H4zm7 0h1v1h-1zm7 0h1v1h-1zm7 0h1v1h-1zm7 0h1v1h-1zm7 0h1v1h-1zm7 0h1v1h-1zm7 0h1v1h-1zm7 0h1v1h-1z"/><path fill="url(#a)" d="M0 8h64v7H0z"/><path fill="url(#b)" d="M0 16h64v1H0z"/><path fill="url(#c)" d="M0 18h64v1H0z"/><path fill="url(#b)" d="M22 18h15v1H22zM0 20h64v3H0z"/><path fill="url(#d)" d="M0 24h64v8H0z"/></pattern><mask id="f"><path fill="url(#e)" d="M0 0h64v32H0z"/></mask></defs><path fill="#fff" d="M0 0h64v32H0z"/><path fill="#dea8ff" class="gotchi-secondary" mask="url(#f)" d="M0 0h64v32H0z"/><path fill="#dea8ff" class="gotchi-secondary" d="M0 32h64v32H0z"/><path mask="url(#f)" fill="#fff" transform="matrix(1 0 0 -1 0 64)" d="M0 0h64v32H0z"/></g><style>.gotchi-primary{fill:#0000B9;}.gotchi-secondary{fill:#D4DEF8;}.gotchi-cheek{fill:#F696C6;}.gotchi-eyeColor{fill:#36818E;}.gotchi-primary-mouth{fill:#0000B9;}.gotchi-sleeves-up{display:none;}.gotchi-handsUp{display:none;}.gotchi-handsDownOpen{display:block;}.gotchi-handsDownClosed{display:none;}</style><g class="gotchi-body"><path d="M47 14v-2h-2v-2h-4V8h-4V6H27v2h-4v2h-4v2h-2v2h-2v41h4v-2h5v2h5v-2h6v2h5v-2h5v2h4V14z" class="gotchi-primary"/><path d="M45 14v-2h-4v-2h-4V8H27v2h-4v2h-4v2h-2v39h2v-2h5v2h5v-2h6v2h5v-2h5v2h2V14z" class="gotchi-secondary"/><path d="M18,49h2v-1h2v1h2v2h5v-2h2v-1h2v1h2v2h5v-2h2v-1h2v1h1V14h-4v-2h-4v-2h-5V9h-5v2h-4v2h-4v2h-1V49z" fill="#fff"/></g><path class="gotchi-cheek" d="M21 32v2h2v-2h-1zm21 0h-1v2h2v-2z"/><g class="gotchi-primary-mouth"><path d="M29 32h-2v2h2v-1z"/><path d="M33 34h-4v2h6v-2h-1z"/><path d="M36 32h-1v2h2v-2z"/></g>
    <style>
        .gotchi-bg { display: none }
    </style>
<g class="gotchi-shadow"><path opacity=".25" d="M25 58H19v1h1v1h24V59h1V58h-1z" fill="#000"/></g>,<g class="gotchi-collateral"><path d="M34 13v-1h-4v1h-1v1h-1v1h-1v4h1v1h1v1h1v1h4v-1h1v-1h1v-1h1v-4h-1v-1h-1v-1h-1zm-2 1h1v1h1v1h1v2h-1v1h-1v1h-2v-1h-1v-1h-1v-2h1v-1h1v-1h1z" fill="#0000b9"/></g><g class="gotchi-eyeColor"><path d="M39 23v1h-1v-1h1v-1h-2v1h-1v2h1v1h2v-1h1v-2h-1z" /><g class="gotchi-primary"><path d="M34 25h-1v1h1v-1zm7 0v1h1v-2h-1v1zm-4-2v-1h-2v1h2z" /><path d="M44 21h-7v1h5v2h1v-1h1v-1h1v-1h-1zm-9 5h-1v1h2v-1h-1z" /><path d="M38 27h-2v1h4v-1h-2zm-3-3v-1h-1v2h1v-1z" /><path d="M41 26h-1v1h1v-1z" /></g><path d="M27 22h-2v1h1v1h-1v-1h-1v2h1v1h2v-1h1v-2h-1v-1z" /><g class="gotchi-primary"><path d="M31 25h-1v1h1v-1zm-8-1h-1v2h1v-2z" /><path d="M22 22h5v-1h-8v1h1v1h1v1h1v-2z" /><path d="M28 23h1v-1h-2v1h1zm0 3v1h2v-1h-2z" /><path d="M26 27h-2v1h4v-1h-2zm3-2h1v-2h-1v2z" /><path d="M24 26h-1v1h1v-1z" /></g></g><g class="gotchi-wearable wearable-body"><svg x="11" y="31"><path d="M38 0h-3v1h-2v1h-2v1h-2v1h-2v1h-2v2h-2v1h-1v1h-2V8h-1V7h-2V5h-2V4h-2V3h-2V2H9V1H7V0H4v22h4v-2h5v2h5v-2h6v2h5v-2h5v2h4V0z" fill="#0064b4"/><path d="M36 15v-2h-1v-2h-1v-1h-5v1h-2v2h-1v2h-1v1h-1v1h-2v1h2v2h5v-2h5v2h3v-4h-1v-1zm-18 2v-1h-1v-1h-1v-2h-1v-2h-2v-1H8v1H7v2H6v3H5v4h3v-2h5v2h5v-2h2v-1h-2z" fill="#0af"/><g fill="#ff0096"><path d="M14,5h-1v1h2V5H14z"/><path d="M15 6v1h2V6h-2zm13-1h-1v1h2V5h-1z"/><path d="M25,6v1h2V6H25z"/></g><g fill="#0000be"><path d="M14,4h-1v1h2V4H14z"/><path d="M15 5v1h2V5h-2zm13-1h-1v1h2V4h-1z"/><path d="M25,5v1h2V5H25z"/></g><g fill="#ffbe00"><path d="M5 8V7H4v3h1V8zm-1 5h1v1H4v-1z"/><path d="M20 10v1h2v-1h-2zm-7-4V4h-2V3H9V2H7V1H4v2h1v4h1v3H5v1H4v1h1v1h1v-2h1v-1h1V7H7V4h1v3h1v2h2V7h-1V5h1v2h1v2h1v1h1V7h1V6h-2z"/><path d="M19,9V8h-2v1h1v1h2V9H19z"/><path d="M16 7h1v1h-1V7zm21-6h-2v1h-2v1h-2v1h-2v2h-2v1h1v3h1V9h1V7h1V5h1v2h-1v2h2V7h1V4h1v3h-1v3h1v1h1v2h1v-1h1v-1h-1v-1h-1V7h1V3h1V1h-1z"/><path d="M37 9v1h1V7h-1v2zm0 4h1v1h-1v-1zm-16-1h-1v-1h-3v-1h-1v3h1v-1h2v1h-2v2h1v-1h6v1h1v-2h-2v-1h2v1h1v-3h-1v1h-3v1h-1zm4-5h1v1h-1V7z"/><path d="M23,8v1h-1v1h2V9h1V8H23z"/></g><g fill="#fff"><path d="M17 10h1v1h-1v-1zm3 6v1h2v-1h-2z"/><path d="M19 15v-1h-1v2h2v-1h-1zm-2-7h-1V7h-1v3h2V8zm7 2h1v1h-1v-1z"/><path d="M26 7v1h-1v2h2V7h-1zm-3 8h-1v1h2v-2h-1v1z"/></g><path d="M7,10h1v1H7V10z"/><path d="M6 12v1h1v-2H6v1zM5 5V3H4v4h1V5z"/><path d="M6,9V7H5v3h1V9z"/><path d="M4 10h1v1H4v-1zm0 2h1v1H4v-1z"/><path d="M5 14H4v2h2v-3H5v1zm12-5h1v1h-1V9zM8 5V4H7v3h1V5z"/><path d="M12 9V7h-1v2H9V7H8v3h5V9h-1zm5 4h-1v2h1v-2z"/><path d="M17 15h1v1h-1v-1zm-1-4v-1h-1V7h-1v3h-1v1h2v2h1v-2zm-5-7h2V3h-2v1z"/><path d="M10 3h1V2H9v1h1z"/><path d="M8 2h1V1H7v1h1zm11 6h1v1h-1V8z"/><path d="M18 7h-1v1h2V7h-1zm4 9v1h2v-1h-2zm-3 0h-1v1h2v-1h-1zM7 1V0H4v1h3zm4 4h-1v2h1V5zm8 8v-1h-2v1h2zm0-2h1v-1h-2v1h1z"/><path d="M20 11v1h2v-1h-2zM35 0v1h3V0h-3zm-1 10h1v1h-1v-1z"/><path d="M36 11h-1v2h1v-2zm0-3v2h1V7h-1v1z"/><path d="M37 10h1v1h-1v-1zm0 2h1v1h-1v-1z"/><path d="M36 14v2h2v-2h-1v-1h-1v1zm-4-8V5h-1v2h1V6zm-4 3V7h-1v3h-1v3h1v-2h2v-1h-1V9zm-4 0h1v1h-1V9zm13-5v3h1V3h-1v1zm-2 2V4h-1v3h1V6z"/><path d="M34 8V7h-1v2h-2V7h-1v2h-1v1h5V8zm-9 6v1h1v-2h-1v1z"/><path d="M24 15h1v1h-1v-1zm0-3h-1v1h2v-1h-1zm7-8V3h-2v1h2z"/><path d="M31,2v1h2V2H31z"/><path d="M33 1v1h2V1h-2zM23 11h1v-1h-2v1h1zm-1-3h1v1h-1V8z"/><path d="M25 8V7h-2v1h2zm-3 2V9h-2v1h2zm0 6v-1h1v-1h-4v1h1v1h2zm-2 1v1h2v-1h-2z"/><defs /></svg></g><g class="gotchi-handsDownClosed"><g class="gotchi-primary"><path d="M19 42h1v1h-1zm1-6h1v1h-1z"/><path d="M21 37h1v1h-1zm5 3v4h1v-4zm-5 3h-1v1h2v-1z"/><path d="M24 44h-2v1h4v-1h-1zm1-5h-1v1h2v-1z"/><path d="M23 38h-1v1h2v-1z"/></g><g class="gotchi-secondary"><path d="M19 43h1v1h-1zm5 2h-2v1h4v-1h-1z"/><path d="M27 41v3h1v-3zm-6 3h-1v1h2v-1z"/><path d="M26 44h1v1h-1zm-7-3h-1v2h1v-1z"/></g><g class="gotchi-primary"><path d="M44 42h1v1h-1zm-1-6h1v1h-1z"/><path d="M42 37h1v1h-1z"/><path d="M42 39v-1h-2v1h1zm0 4v1h2v-1h-1z"/><path d="M40 44h-2v1h4v-1h-1z"/><path d="M38 42v-2h-1v4h1v-1z"/><path d="M40 40v-1h-2v1h1z"/></g><g class="gotchi-secondary"><path d="M42 44v1h2v-1h-1zm-5-2v-1h-1v3h1v-1z"/><path d="M40 45h-2v1h4v-1h-1z"/><path d="M37 44h1v1h-1zm7-1h1v1h-1z"/></g></g><g class="gotchi-handsDownOpen"><g class="gotchi-primary"><path d="M56 38v-1h-2v-1h-2v-1h-1v-1h-1v-1h-1v8h1v1h2v1h4v-1h1v-4z"/></g><g class="gotchi-secondary"><path d="M54 38v-1h-2v-1h-1v-1h-1v-1h-1v6h1v1h2v1h4v-4z" /></g><path d="M54,38v-1h-2v-1h-1v-1h-1v-1h-1v5h1v1h2v1h4v-3H54z" fill="#fff"/><g class="gotchi-primary"><path d="M8 38v-1h2v-1h2v-1h1v-1h1v-1h1v8h-1v1h-2v1H8v-1H7v-4z"/></g><g class="gotchi-secondary"><path d="M10 38v-1h2v-1h1v-1h1v-1h1v6h-1v1h-2v1H8v-4z" /></g><path d="M8,38v3h4v-1h2v-1h1v-5h-1v1h-1v1h-1v1h-2v1H8z" fill="#fff"/></g><g class="gotchi-handsUp"><g class="gotchi-secondary"><path d="M50,38h1v1h-1V38z"/><path d="M49 39h1v1h-1v-1zm2-2h1v1h-1v-1z"/><path d="M52,36h2v1h-2V36z"/><path d="M54,35h2v1h-2V35z"/></g><path d="M52,32v1h-2v1h-1v5h1v-1h1v-1h1v-1h2v-1h2v-3H52z" fill="#fff"/><g class="gotchi-primary"><path d="M49,33h1v1h-1V33z"/><path d="M50 32h2v1h-2v-1zm0 7h1v1h-1v-1z"/><path d="M49 40h1v1h-1v-1zm2-2h1v1h-1v-1z"/><path d="M52 37h2v1h-2v-1zm0-6h4v1h-4v-1z"/><path d="M56,32h1v4h-1V32z"/><path d="M54,36h2v1h-2V36z"/></g><g class="gotchi-secondary"><path d="M13,38h1v1h-1V38z"/><path d="M14 39h1v1h-1v-1zm-2-2h1v1h-1v-1z"/><path d="M10,36h2v1h-2V36z"/><path d="M8,35h2v1H8V35z"/></g><path d="M8,32v3h2v1h2v1h1v1h1v1h1v-5h-1v-1h-2v-1H8z" fill="#fff"/><g class="gotchi-primary"><path d="M14,33h1v1h-1V33z"/><path d="M12 32h2v1h-2v-1zm1 7h1v1h-1v-1z"/><path d="M14 40h1v1h-1v-1zm-2-2h1v1h-1v-1z"/><path d="M10 37h2v1h-2v-1zm-2-6h4v1H8v-1z"/><path d="M7,32h1v4H7V32z"/><path d="M8,36h2v1H8V36z"/></g></g><g class="gotchi-wearable wearable-face"><svg x="23" y="32"><path d="M17,3V2h-1V1h-2V0h-4v1H8V0H4v1H2v1H1v1H0v6h1V8h1V6h1V5h2V4h8v1h2v1h1v2h1v1h1V3H17z" fill="#aaa"/><g fill="#e1e1e1"><path d="M2 3h1v1H2V3zm2-2v1h2V1H4z"/><path d="M3 2h1v1H3V2zm12 1h1v1h-1V3zm-3-2v1h2V1h-2z"/><path d="M14,2h1v1h-1V2z"/></g><g fill="#919191"><path d="M7,0h1v1H7V0z"/><path d="M10 2V1H8v1h2zM3 4v1h2V4H3z"/><path d="M2,5h1v1H2V5z"/><path d="M1 8h1V6H1v2zm9-8h1v1h-1V0zM5 3v1h8V3H5z"/><path d="M13,4v1h2V4H13z"/><path d="M15,5h1v1h-1V5z"/><path d="M17 6h-1v2h1V6zM0 8h1v1H0V8z"/><path d="M17,8h1v1h-1V8z"/></g></svg></g><g class="gotchi-wearable wearable-eyes"><svg x="32" y="15"><path d="M16 2V1h-2V0H3v1H2v1H1v1H0v6h1v4h2v2h4v2h1v1h1v1h7v-1h1V2h-1z" fill="#0a040b"/><g fill="#323232"><path d="M14 2V1H3v1H2v1H1v6h2V7h8v2h2v1h2V9h1V2h-2z"/><path d="M3 9v4h8V9H3z"/><path d="M11 15H8v2h1v1h7v-5h-1v-1h-2v1h-2v2z"/></g><path d="M3 9v4h8V9H3z" fill="#af00ff"/><g fill="#646464"><path d="M14 2V1H3v1h10v1h1v7h1V2h-1z"/><path d="M2 2h1v1H2z"/><path d="M1 4v2h1V3H1v1zm13 9v4h1v-5h-1v1z"/></g><g fill="#0affff"><path d="M11 5H3v2h8V5z"/><path d="M1 7v2h2V7H1zm10 0v2h2V7h-2zm-2 8H8v2h3v-2H9z"/><path d="M11 13v2h2v-2h-2z"/></g><path d="M13 3V2H3v1H2v2h1V4h8v1h1v1h1v1h1V3h-1zm0 13h-1v1h2v-2h-1v1z" fill="#c5c8cf"/><path d="M3 10v2h8v-2H3z" fill="#f0f"/></svg></g><g class="gotchi-wearable wearable-head"><svg x="27" y="0"><path d="M6,6h4v13H6V6z" fill="#0f0"/><path d="M5,3h3v18H5V3z" fill="#ff0"/><path d="M5,3h2v18H5V3z" fill="#ffc800"/><path d="M0,19h4V6H0V19z" fill="#0ff"/><path d="M0,19h1V6H0V19z" fill="#007dff"/><path d="M4,0h2v22H4V0z" fill="#f0f"/><path d="M2,3h3v18H2V3z" fill="#7d00ff"/><path d="M8,6h1v13H8V6z" fill="#009600"/><path d="M4,0h1v22H4V0z" fill="#7d0064"/><path d="M2,3h1v18H2V3z" fill="#32007d"/></svg></g>"><svg x="11" y="31"><g><g class="gotchi-sleeves gotchi-sleeves-left gotchi-sleeves-up"><path d="M37 9h1.5V2H37v1h.5v2H37z"/><path d="M38.5 5H37V3h1.5zm0 5H37V9h1.5z" fill="#ffbe00"/><path d="M38 10h1V9h1V8h1V7h1V0h-1v1h-2v1h-1v8z" fill="#0064b4"/><g fill="#0af"><path d="M38 9h1V8h1V2h-1v1h-1m4 3h-1V5h1v1z"/><path d="M42 4h-1V3h1v1zm0-2h-1V1h1v1z"/></g></g><g class="gotchi-sleeves gotchi-sleeves-left gotchi-sleeves-down"><path d="M37 9h1.5V2H37v1h.5v2H37z"/><path d="M37 3h1.5v2H37zm0 6h1.5v1H37z" fill="#ffbe00"/><path d="M38 10h1v1h2v1h1V5h-1V4h-1V3h-1V2h-1v8z" fill="#0064b4"/><path d="M38 9h1v1h1V4h-1V3h-1m4 4h-1V6h1v1zm0 2h-1V8h1v1zm0 2h-1v-1h1v1z" fill="#0af"/></g><g class="gotchi-sleeves gotchi-sleeves-right gotchi-sleeves-up"><path d="M5 9H3.5V2H5v1h-.5v2H5z"/><path d="M3.5 3H5v2H3.5zm0 6H5v1H3.5z" fill="#ffbe00"/><path d="M4,2H3V1H1V0H0v7h1v1h1v1h1v1h1V2z" fill="#0064b4"/><g fill="#0af"><path d="M4 3H3V2H2v6h1v1h1M0 5h1v1H0V5z"/><path d="M0 3h1v1H0V3zm0-2h1v1H0V1z"/></g></g><g class="gotchi-sleeves gotchi-sleeves-right gotchi-sleeves-down"><path d="M5 9H3.5V2H5v1h-.5v2H5z"/><path d="M3.5 3H5v2H3.5zm0 6H5v1H3.5z" fill="#ffbe00"/><path d="M4,2H3v1H2v1H1v1H0v7h1v-1h2v-1h1V2z" fill="#0064b4"/><path d="M4 3H3v1H2v6h1V9h1M0 6h1v1H0V6zm0 2h1v1H0V8zm0 2h1v1H0v-1z" fill="#0af"/></g></g>,</svg><g class="gotchi-wearable wearable-hand wearable-hand-left"><svg x="0" y="25"><path d="M14 0v1h-1v1h-1V1h-1V0H7v1H6v1H5V1H4V0H0v10h4V9h1V8h1v1h1v11H6v4h1v1h4v-1h1v-4h-1V9h1V8h1v1h1v1h4V0h-4z" fill="#282c3c"/><path d="M14 1v1h-1v1h-1V2h-1V1H7v1H6v1H5V2H4V1H3v8h1V8h1V7h1v1h1v1h4V8h1V7h1v1h1v1h1V1h-1zm-4 9H8v10H7v4h4v-4h-1V10z" fill="#525375"/><path d="M7 1v7h4V1H7z" fill="#6d6e97"/><path d="M1 9h1V1H1v8zm15-8v8h1V1h-1zM5 7h1V3H5v4zm7 0h1V3h-1v4z" fill="#df2b25"/><g fill="#6d6e97"><path d="M9 10H8v2h1v-2z"/><path d="M9 12v1H8v1h1v1H8v1h1v1H8v1h1v1h1v-7H9z"/><path d="M8 20H7v4h1v-2h1v-3H8v1z"/></g><path d="M7 1v2h1V2h3V1H7z" fill="#9a97b9"/><path d="M8 13v1h2v-1H8zm0 2v1h2v-1H8zm0 2v1h2v-1H8z" fill="#ac1f22"/><path d="M9 12h1v1H9zm0 2h1v1H9zm0 2h1v1H9zm0 2h1v1H9z" fill="#34394e"/><g fill="#9a97b9"><path d="M8 20h1v1H8z"/><path d="M7 21h1v1H7z"/></g><path d="M8 13h1v1H8zm0 2h1v1H8zm0 2h1v1H8z" fill="#df2b25"/><path d="M1 8h1V1H1v7zm15-7v7h1V1h-1zM5 6h1V3H5v3zm7 0h1V3h-1v3z" fill="#ee5122"/><path d="M1 4h1V1H1v3zm15-3v3h1V1h-1zM5 3h1v1H5zm7 0h1v1h-1z" fill="#f37720"/></svg></g><g class="gotchi-wearable wearable-hand wearable-hand-right"><svg x="0" y="25"><g transform="scale(-1, 1) translate(-64, 0)"><path d="M14 0v1h-1v1h-1V1h-1V0H7v1H6v1H5V1H4V0H0v10h4V9h1V8h1v1h1v11H6v4h1v1h4v-1h1v-4h-1V9h1V8h1v1h1v1h4V0h-4z" fill="#282c3c"/><path d="M14 1v1h-1v1h-1V2h-1V1H7v1H6v1H5V2H4V1H3v8h1V8h1V7h1v1h1v1h4V8h1V7h1v1h1v1h1V1h-1zm-4 9H8v10H7v4h4v-4h-1V10z" fill="#525375"/><path d="M7 1v7h4V1H7z" fill="#6d6e97"/><path d="M1 9h1V1H1v8zm15-8v8h1V1h-1zM5 7h1V3H5v4zm7 0h1V3h-1v4z" fill="#df2b25"/><g fill="#6d6e97"><path d="M9 10H8v2h1v-2z"/><path d="M9 12v1H8v1h1v1H8v1h1v1H8v1h1v1h1v-7H9z"/><path d="M8 20H7v4h1v-2h1v-3H8v1z"/></g><path d="M7 1v2h1V2h3V1H7z" fill="#9a97b9"/><path d="M8 13v1h2v-1H8zm0 2v1h2v-1H8zm0 2v1h2v-1H8z" fill="#ac1f22"/><path d="M9 12h1v1H9zm0 2h1v1H9zm0 2h1v1H9zm0 2h1v1H9z" fill="#34394e"/><g fill="#9a97b9"><path d="M8 20h1v1H8z"/><path d="M7 21h1v1H7z"/></g><path d="M8 13h1v1H8zm0 2h1v1H8zm0 2h1v1H8z" fill="#df2b25"/><path d="M1 8h1V1H1v7zm15-7v7h1V1h-1zM5 6h1V3H5v3zm7 0h1V3h-1v3z" fill="#ee5122"/><path d="M1 4h1V1H1v3zm15-3v3h1V1h-1zM5 3h1v1H5zm7 0h1v1h-1z" fill="#f37720"/></g></svg></g><g class="gotchi-wearable wearable-pet"><svg x="40" y="45"><path d="M12 3h1v1h-1zm8-2h1v1h-1zm-6 0h1v1h-1zm8 2h1v1h-1z" fill="#0f0"/><path d="M22 4h-1V3h-1V2h-1V1h-1V0h-1v1h-1v1h-1v1h-1v1h-1v2h-1v1h1v1h1v1h1v1h5V9h1V8h1V7h1V6h-1V4z" fill="#00a"/><path d="M18 3V2h1V1h-1V0h-1v1h-1v1h1v1h1zm-6 3h1v1h-1zm0-3h1v1h-1zm6 3h1v1h-1zm-2-2h1v1h-1zm4-3h1v1h-1zm-6 0h1v1h-1zm5 7h1v1h-1zm-4 0h1v1h-1zm5-4h1v1h-1zm2 2h1v1h-1zm0-3h1v1h-1z" fill="#f0f"/><path d="M17 4v6h1V3h-1v1zm2-1v5h1V2h-1v1zm0 6h1v1h-1zm-4-6v5h1V2h-1v1zm0 6h1v1h-1zm6-5v4h1V4h-1zm-8 1v3h1V4h-1v1z" fill="#0064ff"/><path d="M17 1h1v1h-1z" fill="#ff0"/><path d="M0 6h1v1H0zm8-2h1v1H8zM2 4h1v1H2z" fill="#0f0"/><path d="M9 6H8V5H7V4H6V3H5v1H4v1H3v1H2v1H1v2H0v1h1v1H0v1h1v1h1v1h1v1h5v-1h1v-1h1v-1h1v-1h-1v-1h1V9h-1V7H9V6z" fill="#00a"/><path d="M10 6h1v1h-1z" fill="#0f0"/><path d="M6 6V5h1V4H6V3H5v1H4v1h1v1h1zm-6 5h1v1H0zm0-2h1v1H0zm0-3h1v1H0zm6 4h1v1H6zM4 7h1v1H4zm4-3h1v1H8zM2 4h1v1H2zm5 8h1v1H7zm-4 0h1v1H3zm5-4h1v1H8zm2 3h1v1h-1zm0-2h1v1h-1zm0-3h1v1h-1zM2 8h1v1H2z" fill="#f0f"/><path d="M5 7v8h1V6H5v1zm2-1v6h1V5H7v1zm0 8v1h1v-2H7v1zM3 6v6h1V5H3v1zm0 8v1h1v-2H3v1zm6-6v5h1V7H9v1zM1 8v5h1V7H1v1z" fill="#0064ff"/><path d="M5 4h1v1H5z" fill="#ff0"/><path d="M16 13v-1h-1v-1h-1v-1h-1v1h-1v2h-1v1h-1v1h1v1h1v1h4v-1h1v-1h1v-1h-1v-1h-1z" fill="#00a"/><path d="M17 12h1v1h-1z" fill="#009300"/><path d="M13 14v3h1v-4h-1v1zm2-2h1v1h-1zm0 3v2h1v-3h-1v1zm-4-1v2h1v-3h-1v1z" fill="#0064ff"/><path d="M14 13v-1h1v-1h-1v-1h-1v1h-1v1h1v1zm0 3h1v1h-1zm-2-2h1v1h-1zm-2 0h1v1h-1zm5-1h1v1h-1zm2-1h1v1h-1zm0 2h1v1h-1z" fill="#f0f"/><path d="M13 11h1v1h-1z" fill="#ff0"/></svg></g></svg>