<svg xmlns="http://www.w3.org/2000/svg" viewBox="0 0 64 64"><g class="gotchi-bg"><defs fill="#fff"><pattern id="a" patternUnits="userSpaceOnUse" width="4" height="4"><path d="M0 0h1v1H0zm2 2h1v1H2z"/></pattern><pattern id="b" patternUnits="userSpaceOnUse" x="0" y="0" width="2" height="2"><path d="M0 0h1v1H0z"/></pattern><pattern id="c" patternUnits="userSpaceOnUse" x="-2" y="0" width="8" height="1"><path d="M0 0h1v1H0zm2 0h1v1H2zm2 0h1v1H4z"/></pattern><pattern id="d" patternUnits="userSpaceOnUse" x="0" y="0" width="4" height="4"><path d="M0 0h1v1H0zm0 2h1v1H0zm1 0V1h1v1zm1 0h1v1H2zm0-1h1V0H2zm1 2h1v1H3z"/></pattern><pattern id="e" patternUnits="userSpaceOnUse" width="64" height="32"><path d="M4 4h1v1H4zm7 0h1v1h-1zm7 0h1v1h-1zm7 0h1v1h-1zm7 0h1v1h-1zm7 0h1v1h-1zm7 0h1v1h-1zm7 0h1v1h-1zm7 0h1v1h-1z"/><path fill="url(#a)" d="M0 8h64v7H0z"/><path fill="url(#b)" d="M0 16h64v1H0z"/><path fill="url(#c)" d="M0 18h64v1H0z"/><path fill="url(#b)" d="M22 18h15v1H22zM0 20h64v3H0z"/><path fill="url(#d)" d="M0 24h64v8H0z"/></pattern><mask id="f"><path fill="url(#e)" d="M0 0h64v32H0z"/></mask></defs><path fill="#fff" d="M0 0h64v32H0z"/><path fill="#dea8ff" class="gotchi-secondary" mask="url(#f)" d="M0 0h64v32H0z"/><path fill="#dea8ff" class="gotchi-secondary" d="M0 32h64v32H0z"/><path mask="url(#f)" fill="#fff" transform="matrix(1 0 0 -1 0 64)" d="M0 0h64v32H0z"/></g><style>.gotchi-primary{fill:#0000B9;}.gotchi-secondary{fill:#D4DEF8;}.gotchi-cheek{fill:#F696C6;}.gotchi-eyeColor{fill:#0000B9;}.gotchi-primary-mouth{fill:#0000B9;}.gotchi-sleeves-up{display:none;}.gotchi-handsUp{display:none;}.gotchi-handsDownOpen{display:block;}.gotchi-handsDownClosed{display:none;}</style><g class="gotchi-body"><path d="M47 14v-2h-2v-2h-4V8h-4V6H27v2h-4v2h-4v2h-2v2h-2v41h4v-2h5v2h5v-2h6v2h5v-2h5v2h4V14z" class="gotchi-primary"/><path d="M45 14v-2h-4v-2h-4V8H27v2h-4v2h-4v2h-2v39h2v-2h5v2h5v-2h6v2h5v-2h5v2h2V14z" class="gotchi-secondary"/><path d="M18,49h2v-1h2v1h2v2h5v-2h2v-1h2v1h2v2h5v-2h2v-1h2v1h1V14h-4v-2h-4v-2h-5V9h-5v2h-4v2h-4v2h-1V49z" fill="#fff"/></g><path class="gotchi-cheek" d="M21 32v2h2v-2h-1zm21 0h-1v2h2v-2z"/><g class="gotchi-primary-mouth"><path d="M29 32h-2v2h2v-1z"/><path d="M33 34h-4v2h6v-2h-1z"/><path d="M36 32h-1v2h2v-2z"/></g>
    <style>
        .gotchi-bg { display: none }
    </style>
<g class="gotchi-shadow"><path opacity=".25" d="M25 58H19v1h1v1h24V59h1V58h-1z" fill="#000"/></g>,<g class="gotchi-collateral"><path d="M34 13v-1h-4v1h-1v1h-1v1h-1v4h1v1h1v1h1v1h4v-1h1v-1h1v-1h1v-4h-1v-1h-1v-1h-1zm-2 1h1v1h1v1h1v2h-1v1h-1v1h-2v-1h-1v-1h-1v-2h1v-1h1v-1h1z" fill="#0000b9"/></g><g class="gotchi-eyeColor"><path d="M28 22H27V21H26H25H24H23V22H22V23H21V24V25V26V27H22V28H23V29H24H25H26H27V28H28V27H29V26V25V24V23H28V22Z" /><path d="M42 23V22H41V21H40H39H38H37V22H36V23H35V24V25V26V27H36V28H37V29H38H39H40H41V28H42V27H43V26V25V24V23H42Z" /></g><g class="gotchi-wearable wearable-body"><svg x="12" y="32"><path d="M3,20h34V0h-2v1h-1v1h-1v1h-1v1h-1v1h-1v1h-8v1h-4V6h-8V5H9V4H8V3H7V2H6V1H5V0H3V20z" fill="#501e87"/><path d="M35,2h-1v1h-1v1h-1v1h-1v1h-1v1h-8v1h-4V7h-8V6H9V5H8V4H7V3H6V2H5V1H4v18h32V1h-1V2z" fill="#824ee2"/><path d="M33 10h-1V7h-1v4h3v-1h-1zm-1 2h-1v1h2v1h-2v3h3v-1h-2v-1h2v-3h-2zM7 12H6v1h2v1H6v3h3v-1H7v-1h2v-3H7zm0-2V7H6v4h3v-1H7z" fill="#501e87"/><path d="M27 13v-1h-1v-1h-1v-1h-3v1h-1v1h-2v1h-1v1h-3v-1h-1v-3h1V9h3v1h1v1h1V9h-1V8h-1V7h-3v1h-1v1h-1v1h-1v3h1v1h1v1h1v1h3v-1h1v-1h2v-1h1v-1h3v1h1v3h-1v1h-3v-1h-1v-1h-1v2h1v1h1v1h3v-1h1v-1h1v-1h1v-3h-1z" fill="#fff"/><defs /></svg></g><g class="gotchi-handsDownClosed"><g class="gotchi-primary"><path d="M19 42h1v1h-1zm1-6h1v1h-1z"/><path d="M21 37h1v1h-1zm5 3v4h1v-4zm-5 3h-1v1h2v-1z"/><path d="M24 44h-2v1h4v-1h-1zm1-5h-1v1h2v-1z"/><path d="M23 38h-1v1h2v-1z"/></g><g class="gotchi-secondary"><path d="M19 43h1v1h-1zm5 2h-2v1h4v-1h-1z"/><path d="M27 41v3h1v-3zm-6 3h-1v1h2v-1z"/><path d="M26 44h1v1h-1zm-7-3h-1v2h1v-1z"/></g><g class="gotchi-primary"><path d="M44 42h1v1h-1zm-1-6h1v1h-1z"/><path d="M42 37h1v1h-1z"/><path d="M42 39v-1h-2v1h1zm0 4v1h2v-1h-1z"/><path d="M40 44h-2v1h4v-1h-1z"/><path d="M38 42v-2h-1v4h1v-1z"/><path d="M40 40v-1h-2v1h1z"/></g><g class="gotchi-secondary"><path d="M42 44v1h2v-1h-1zm-5-2v-1h-1v3h1v-1z"/><path d="M40 45h-2v1h4v-1h-1z"/><path d="M37 44h1v1h-1zm7-1h1v1h-1z"/></g></g><g class="gotchi-handsDownOpen"><g class="gotchi-primary"><path d="M56 38v-1h-2v-1h-2v-1h-1v-1h-1v-1h-1v8h1v1h2v1h4v-1h1v-4z"/></g><g class="gotchi-secondary"><path d="M54 38v-1h-2v-1h-1v-1h-1v-1h-1v6h1v1h2v1h4v-4z" /></g><path d="M54,38v-1h-2v-1h-1v-1h-1v-1h-1v5h1v1h2v1h4v-3H54z" fill="#fff"/><g class="gotchi-primary"><path d="M8 38v-1h2v-1h2v-1h1v-1h1v-1h1v8h-1v1h-2v1H8v-1H7v-4z"/></g><g class="gotchi-secondary"><path d="M10 38v-1h2v-1h1v-1h1v-1h1v6h-1v1h-2v1H8v-4z" /></g><path d="M8,38v3h4v-1h2v-1h1v-5h-1v1h-1v1h-1v1h-2v1H8z" fill="#fff"/></g><g class="gotchi-handsUp"><g class="gotchi-secondary"><path d="M50,38h1v1h-1V38z"/><path d="M49 39h1v1h-1v-1zm2-2h1v1h-1v-1z"/><path d="M52,36h2v1h-2V36z"/><path d="M54,35h2v1h-2V35z"/></g><path d="M52,32v1h-2v1h-1v5h1v-1h1v-1h1v-1h2v-1h2v-3H52z" fill="#fff"/><g class="gotchi-primary"><path d="M49,33h1v1h-1V33z"/><path d="M50 32h2v1h-2v-1zm0 7h1v1h-1v-1z"/><path d="M49 40h1v1h-1v-1zm2-2h1v1h-1v-1z"/><path d="M52 37h2v1h-2v-1zm0-6h4v1h-4v-1z"/><path d="M56,32h1v4h-1V32z"/><path d="M54,36h2v1h-2V36z"/></g><g class="gotchi-secondary"><path d="M13,38h1v1h-1V38z"/><path d="M14 39h1v1h-1v-1zm-2-2h1v1h-1v-1z"/><path d="M10,36h2v1h-2V36z"/><path d="M8,35h2v1H8V35z"/></g><path d="M8,32v3h2v1h2v1h1v1h1v1h1v-5h-1v-1h-2v-1H8z" fill="#fff"/><g class="gotchi-primary"><path d="M14,33h1v1h-1V33z"/><path d="M12 32h2v1h-2v-1zm1 7h1v1h-1v-1z"/><path d="M14 40h1v1h-1v-1zm-2-2h1v1h-1v-1z"/><path d="M10 37h2v1h-2v-1zm-2-6h4v1H8v-1z"/><path d="M7,32h1v4H7V32z"/><path d="M8,36h2v1H8V36z"/></g></g><g class="gotchi-wearable wearable-face"><svg x="21" y="32"><path d="M21 9v1h-1V8h-1V5h-1V2h-1V1h-1V0h-3v1h-1v1h-2V1H9V0H6v1H5v1H4v3H3v3H2v2H1V9H0v2h4v-1h1V9h1V8h1V7h1V6h1V5h1V4h2v1h1v1h1v1h1v1h1v1h1v1h1v1h4V9h-1z" fill="#5c2700"/><g fill="#724422"><path d="M5 5h1V3H5v2z"/><path d="M6 2v1h2V2H6zm10 1v2h1V3h-1z"/><path d="M14 2v1h2V2h-2z"/></g></svg></g><g class="gotchi-wearable wearable-eyes"><svg x="15" y="21"><path d="M0 0v2h1v1h2v1h1v3h1v2h2v1h8V9h1V8h2v1h1v1h8V9h2V7h1V4h1V3h2V2h1V0H0z" opacity=".588" fill="#2aa4ff" enable-background="new"/><path d="M0 0v2h1v1h2v1h1V3h1V2h1V1h9v1h4V1h9v1h1v1h1v1h1V3h2V2h1V0H0z"/><g fill="#fff"><path d="M7 2h1v1H7zm2 0h1v1H9zm11 0h1v1h-1zm2 0h1v1h-1z"/><path d="M6 3h1v1H6zm2 0h1v1H8zm11 0h1v1h-1zm2 0h1v1h-1z"/><path d="M5 4h1v1H5zm2 0h1v1H7zm11 0h1v1h-1zm2 0h1v1h-1z"/></g><path d="M2 1v1h2V1H2zm28 0v1h2V1h-2z" fill="#db3ffd"/></svg></g><g class="gotchi-wearable wearable-head"><svg x="15" y="14"><path d="M0 0h34v6H0z" fill="#fd0"/><path d="M0,0h34v4H0V0z" fill="#00af00"/><path d="M0,0h34v2H0V0z" fill="#00f"/></svg></g>"><svg x="12" y="32"><g><g class="gotchi-sleeves gotchi-sleeves-left gotchi-sleeves-up"><path d="M36.5,9H38V8h1V7h1V0h-2v1h-1.5V9z" fill="#501e87"/><path d="M38,7h1V1h-1v1h-1v6h1V7z" fill="#824ee2"/></g><g class="gotchi-sleeves gotchi-sleeves-left gotchi-sleeves-down"><path d="M36.5,9H38v1h2V3h-1V2h-1V1h-1.5V9z" fill="#501e87"/><path d="M38,2h-1v6h1v1h1V3h-1V2z" fill="#824ee2"/></g><g class="gotchi-sleeves gotchi-sleeves-right gotchi-sleeves-up"><path d="M3.5,1H2V0H0v7h1v1h1v1h1.5V1z" fill="#501e87"/><path d="M2,8h1V2H2V1H1v6h1V8z" fill="#824ee2"/></g><g class="gotchi-sleeves gotchi-sleeves-right gotchi-sleeves-down"><path d="M3.5,1H2v1H1v1H0v7h2V9h1.5V1z" fill="#501e87"/><path d="M2,3H1v6h1V8h1V2H2V3z" fill="#824ee2"/></g></g>,</svg><g class="gotchi-wearable wearable-hand wearable-hand-left"><svg x="0" y="25"><path d="M14 0v1h-1v1h-1V1h-1V0H7v1H6v1H5V1H4V0H0v10h4V9h1V8h1v1h1v11H6v4h1v1h4v-1h1v-4h-1V9h1V8h1v1h1v1h4V0h-4z" fill="#282c3c"/><path d="M14 1v1h-1v1h-1V2h-1V1H7v1H6v1H5V2H4V1H3v8h1V8h1V7h1v1h1v1h4V8h1V7h1v1h1v1h1V1h-1zm-4 9H8v10H7v4h4v-4h-1V10z" fill="#525375"/><path d="M7 1v7h4V1H7z" fill="#6d6e97"/><path d="M1 9h1V1H1v8zm15-8v8h1V1h-1zM5 7h1V3H5v4zm7 0h1V3h-1v4z" fill="#df2b25"/><g fill="#6d6e97"><path d="M9 10H8v2h1v-2z"/><path d="M9 12v1H8v1h1v1H8v1h1v1H8v1h1v1h1v-7H9z"/><path d="M8 20H7v4h1v-2h1v-3H8v1z"/></g><path d="M7 1v2h1V2h3V1H7z" fill="#9a97b9"/><path d="M8 13v1h2v-1H8zm0 2v1h2v-1H8zm0 2v1h2v-1H8z" fill="#ac1f22"/><path d="M9 12h1v1H9zm0 2h1v1H9zm0 2h1v1H9zm0 2h1v1H9z" fill="#34394e"/><g fill="#9a97b9"><path d="M8 20h1v1H8z"/><path d="M7 21h1v1H7z"/></g><path d="M8 13h1v1H8zm0 2h1v1H8zm0 2h1v1H8z" fill="#df2b25"/><path d="M1 8h1V1H1v7zm15-7v7h1V1h-1zM5 6h1V3H5v3zm7 0h1V3h-1v3z" fill="#ee5122"/><path d="M1 4h1V1H1v3zm15-3v3h1V1h-1zM5 3h1v1H5zm7 0h1v1h-1z" fill="#f37720"/></svg></g><g class="gotchi-wearable wearable-hand wearable-hand-right"><svg x="0" y="24"><g transform="scale(-1, 1) translate(-64, 0)"><path d="M0 9v2h5v1h1v1h1v1h1v1H5v2h1v1h1v1h1v1h1v1h1v1h1v1h1v1h1v1h1v1h2v-4h-1v-1h-1v-1h-1v-1h-1v-1h4v-2h-1v-1h-1v-1h-1v-1h-1v-1h-1v-1h4v-1h-1V9h-1V8h-1V7h-1V6h-1V5H9V4H8V3H7V2H6V1H5V0H3v3H2v3H1v3H0z" fill="#0082ff"/><path d="M1 9v1h4v1h1v1h1v1h1v1h1v1h1v1H6v1h1v1h1v1h1v1h1v1h1v1h1v1h1v1h1v1h1v-3h-1v-1h-1v-1h-1v-1h-1v-2h4v-1h-1v-1h-1v-1h-1v-1h-1v-1h-1v-1H9v-1h4V9h-1V8h-1V7h-1V6H9V5H8V4H7V3H6V2H5V1H4v2H3v3H2v3H1z" fill="#aed7ff"/><g fill="#d2e9ff"><path d="M13 10h-1V9h1v1z"/><path d="M12,9h-1V8h1V9z"/><path d="M11,8h-1V7h1V8z"/><path d="M10,7H9V6h1V7z"/><path d="M9 6H8V5h1v1zm3 8h-1v-1h1v1z"/><path d="M13 15h-1v-1h1v1z"/><path d="M14 16h-1v-1h1v1z"/><path d="M15 17h-1v-1h1v1zM8 5H7V4h1v1zm2 7H9v-1h1v1z"/><path d="M11 13h-1v-1h1v1zm0 4h-1v1 1h1v-1-1z"/><path d="M12 20h-1v-1h1v1z"/><path d="M13 21h-1v-1h1v1z"/><path d="M14 22h-1v-1h1v1z"/><path d="M15 23h-1v-1h1v1zM7 4H6V3h1v1z"/><path d="M6,3H5V2h1V3z"/><path d="M5,2H4V1h1V2z"/></g><g fill="#6bb6ff"><path d="M10 15H9v-1h1v1zm-3 2H6v-1h1v1z"/><path d="M8 18H7v-1h1v1z"/><path d="M9 19H8v-1h1v1zm2 2h-1v-1h1v1z"/><path d="M12 22h-1v-1h1v1z"/><path d="M13 23h-1v-1h1v1z"/><path d="M14 24h-1v-1h1v1zm-4-4H9v-1h1v1zm-4-9H5v-1h1v1z"/><path d="M7 12H6v-1h1v1z"/><path d="M8 13H7v-1h1v1z"/><path d="M9 14H8v-1h1v1zm-7-4H1V9h1v1zm1-4h1V3H3v1 2z"/><path d="M2 9h1V6H2v1 2zm13 16h-1v-1h1v1z"/></g></g></svg></g></svg>