<svg xmlns="http://www.w3.org/2000/svg" viewBox="0 0 64 64"><g class="gotchi-bg"><defs fill="#fff"><pattern id="a" patternUnits="userSpaceOnUse" width="4" height="4"><path d="M0 0h1v1H0zm2 2h1v1H2z"/></pattern><pattern id="b" patternUnits="userSpaceOnUse" x="0" y="0" width="2" height="2"><path d="M0 0h1v1H0z"/></pattern><pattern id="c" patternUnits="userSpaceOnUse" x="-2" y="0" width="8" height="1"><path d="M0 0h1v1H0zm2 0h1v1H2zm2 0h1v1H4z"/></pattern><pattern id="d" patternUnits="userSpaceOnUse" x="0" y="0" width="4" height="4"><path d="M0 0h1v1H0zm0 2h1v1H0zm1 0V1h1v1zm1 0h1v1H2zm0-1h1V0H2zm1 2h1v1H3z"/></pattern><pattern id="e" patternUnits="userSpaceOnUse" width="64" height="32"><path d="M4 4h1v1H4zm7 0h1v1h-1zm7 0h1v1h-1zm7 0h1v1h-1zm7 0h1v1h-1zm7 0h1v1h-1zm7 0h1v1h-1zm7 0h1v1h-1zm7 0h1v1h-1z"/><path fill="url(#a)" d="M0 8h64v7H0z"/><path fill="url(#b)" d="M0 16h64v1H0z"/><path fill="url(#c)" d="M0 18h64v1H0z"/><path fill="url(#b)" d="M22 18h15v1H22zM0 20h64v3H0z"/><path fill="url(#d)" d="M0 24h64v8H0z"/></pattern><mask id="f"><path fill="url(#e)" d="M0 0h64v32H0z"/></mask></defs><path fill="#fff" d="M0 0h64v32H0z"/><path fill="#dea8ff" class="gotchi-secondary" mask="url(#f)" d="M0 0h64v32H0z"/><path fill="#dea8ff" class="gotchi-secondary" d="M0 32h64v32H0z"/><path mask="url(#f)" fill="#fff" transform="matrix(1 0 0 -1 0 64)" d="M0 0h64v32H0z"/></g><style>.gotchi-primary{fill:#000000;}.gotchi-secondary{fill:#FBDFEB;}.gotchi-cheek{fill:#F696C6;}.gotchi-eyeColor{fill:#36818E;}.gotchi-primary-mouth{fill:#000000;}.gotchi-sleeves-up{display:none;}.gotchi-handsUp{display:none;}.gotchi-handsDownOpen{display:block;}.gotchi-handsDownClosed{display:none;}</style><g class="gotchi-body"><path d="M47 14v-2h-2v-2h-4V8h-4V6H27v2h-4v2h-4v2h-2v2h-2v41h4v-2h5v2h5v-2h6v2h5v-2h5v2h4V14z" class="gotchi-primary"/><path d="M45 14v-2h-4v-2h-4V8H27v2h-4v2h-4v2h-2v39h2v-2h5v2h5v-2h6v2h5v-2h5v2h2V14z" class="gotchi-secondary"/><path d="M18,49h2v-1h2v1h2v2h5v-2h2v-1h2v1h2v2h5v-2h2v-1h2v1h1V14h-4v-2h-4v-2h-5V9h-5v2h-4v2h-4v2h-1V49z" fill="#fff"/></g><path class="gotchi-cheek" d="M21 32v2h2v-2h-1zm21 0h-1v2h2v-2z"/><g class="gotchi-primary-mouth"><path d="M29 32h-2v2h2v-1z"/><path d="M33 34h-4v2h6v-2h-1z"/><path d="M36 32h-1v2h2v-2z"/></g>
    <style>
        .gotchi-bg { display: none }
    </style>
<g class="gotchi-shadow"><path opacity=".25" d="M25 58H19v1h1v1h24V59h1V58h-1z" fill="#000"/></g>,<g class="gotchi-collateral"><path d="M35.5 20h1v-1h1v-5h-1v-1h-1v-1h-1v-1h-5v1h-1v1h-1v1h-1v5h1v1h1v1h1v1h5v-1h1v-1zm0-2h-1v1h-4v-1h-1v-3h1v-1h4v1h1v3z"/><path d="M28.5 15h1v-1h1v-1h3v-1h-4v1h-1v1h-1v5h1v1h1v1h4v-1h-3v-1h-1v-1h-1v-3z" fill="#e51b6d"/></g><g class="gotchi-eyeColor"><path d="M23 22h-1v1h1v-1zm0 5h-1v1h1v-1zm5-5h-1v1h1v-1zm0 5h-1v1h1v-1zm14 0h-1v1h1v-1zm0-5h-1v1h1v-1zm-5 0h-1v1h1v-1zm0 5h-1v1h1v-1z" class="gotchi-primary" /><g><path d="M25 26h-1v1h1v-1zm2-1h-1v1h1v-1zm-3-1h-1v1h1v-1z" /><path d="M25 23h-1v1h1v-1z" /><path d="M25 24h-1v1h1v-1zm2 0h-1v1h1v-1zm-1 2h-1v1h1v-1z" /><path d="M25 25h-1v1h1v-1z" /><path d="M26 25h-1v1h1v-1zm-2 0h-1v1h1v-1zm2-2h-1v1h1v-1z" /><path d="M26 24h-1v1h1v-1zm13 2h-1v1h1v-1zm2-1h-1v1h1v-1zm-3-1h-1v1h1v-1z" /><path d="M39 24h-1v1h1v-1z" /><path d="M38 23h1v1h-1m0 1h-1v1h1v-1zm2 1h-1v1h1v-1z" /><path d="M40 25h-1v1h1v-1z" /><path d="M39 25h-1v1h1v-1zm2-1h-1v1h1v-1z" /><path d="M40 23h-1v1h1v-1z" /><path d="M40 24h-1v1h1v-1z" /></g></g><g class="gotchi-wearable wearable-body"><svg x="7" y="29"><path d="M41 0v1h-1v1h-1v1h-1v1h-1v1h-1v1h-1v1h-2v1h-1v1h-1v1h-1v1h-1v1h-1v1h-6v-1h-1v-1h-1v-1h-1V9h-1V8h-1V7h-2V6h-1V5h-1V4h-1V3h-1V2h-1V1H9V0H7.5v12H8v14h4v-1h5v1h5v-1h6v1h5v-1h5v1h4V12h.5V0H41z" fill="#2a2a2a"/><g fill="#303030"><path d="M18 19h1v1h-1v-1zm0 2h1v1h-1v-1zm0-4h1v1h-1v-1zm-2 1h1v1h-1v-1zm2-3h1v1h-1v-1zm0 8h1v1h-1v-1zm-2-7h1v1h-1v-1zm4 2h1v1h-1v-1zm9 6h1v1h-1v-1zm-9-8h1v1h-1v-1zm9 6h1v1h-1v-1zm-9 2h1v1h-1v-1zm0-4h1v1h-1v-1zm0 2h1v1h-1v-1zm-8 0h1v1h-1v-1zm-2-7h1v1h-1v-1zm19 5h1v1h-1v-1zm-19-3h1v1h-1v-1zm2 3h1v1h-1v-1zm-2-1h1v1h-1v-1zm0 4h1v1h-1v-1zm0-2h1v1h-1v-1zm4 2h1v1h-1v-1zm0-6h1v1h-1v-1zm0 2h1v1h-1v-1zm0-4h1v1h-1v-1zm2 7h1v1h-1v-1zm-4-6h1v1h-1v-1zm2 5h1v1h-1v-1zm-2-3h1v1h-1v-1zm4 2h1v1h-1v-1zm21 2h1v1h-1v-1zm0-2h1v1h-1v-1zm-2 1h1v1h-1v-1zm0-2h1v1h-1v-1zm0-2h1v1h-1v-1zm2 1h1v1h-1v-1zm-2-3h1v1h-1v-1zm2 1h1v1h-1v-1zm2 3h1v1h-1v-1zm0-4h1v1h-1v-1zm-10 3h1v1h-1v-1zm10 5h1v1h-1v-1zm0-2h1v1h-1v-1zm0-4h1v1h-1v-1zm-10-1h1v1h-1v-1zm2 1h1v1h-1v-1zm0-2h1v1h-1v-1zm0 8h1v1h-1v-1zm0-4h1v1h-1v-1zm0 2h1v1h-1v-1zm2 1h1v1h-1v-1zm0-5h1v2h-1v-2zm2 6h1v1h-1v-1zm-2-3h1v1h-1v-1zm-23-9h1v1h-1v-1zm30-8h1v1h-1V3zM10 13h1v1h-1v-1zm29 0h1v1h-1v-1zm0-2h1v1h-1v-1zm-17 4h1v2h-1v1h1v7h4v-7h1v-1h-1v-2h1v-2h-6v2zm-10-1h1v1h-1v-1zm23-1h1v1h-1v-1zm-21 0h1v1h-1v-1zm19 1h1v2h-1v-2zm4-2h1v1h-1v-1zm-21 2h1v1h-1v-1zm-4-2h1v1h-1v-1zm25 2h1v1h-1v-1zM9 3h1v1H9V3z"/><path d="M41 2h1v1h-1V2zM8 2h1v1H8V2z"/></g><g fill="#414040"><path d="M24,23h1v1h-1V23z"/><path d="M25,22h1v1h-1V22z"/><path d="M24,21h1v1h-1V21z"/><path d="M25,20h1v1h-1V20z"/><path d="M24,19h1v1h-1V19z"/><path d="M25,18h1v1h-1V18z"/><path d="M24,17h1v1h-1V17z"/><path d="M25,16h1v1h-1V16z"/><path d="M24 15h1v1h-1v-1zm2-1h1v1h-1v-1z"/><path d="M23 14h1v1h-1v-1zm5-2h1v1h-1v-1z"/><path d="M21 12h1v1h-1v-1zm8-1h1v1h-1v-1z"/><path d="M20 11h1v1h-1v-1zm10-1h1v1h-1v-1z"/><path d="M19 10h1v1h-1v-1zm12-1h1v1h-1V9z"/><path d="M18 9h1v1h-1V9zm14-1h1v1h-1V8z"/><path d="M17 8h1v1h-1V8zm16-1h2v1h-2V7z"/><path d="M15 7h2v1h-2V7zm20-1h1v1h-1V6z"/><path d="M14 6h1v1h-1V6zm22-1h1v1h-1V5z"/><path d="M13 5h1v1h-1V5zm24-1h1v1h-1V4z"/><path d="M12 4h1v1h-1V4zm26-1h1v1h-1V3z"/><path d="M11 3h1v1h-1V3zm28-1h1v1h-1V2z"/><path d="M10 2h1v1h-1V2zm30-1h1v1h-1V1z"/><path d="M9 1h1v1H9V1zm32-1h1v1h-1V0z"/><path d="M8,0h1v1H8V0z"/></g><path d="M34,16h1v1h-1V16z" fill="#ecd3fc"/><g fill="#de37e4"><path d="M34,17h1v1h-1V17z"/><path d="M35 16h1v1h-1v-1zm-2 0h1v1h-1v-1z"/><path d="M34 15h1v1h-1v-1zm-10-1h2v1h-2v-1z"/></g>,</svg></g><g class="gotchi-handsDownClosed"><g class="gotchi-primary"><path d="M19 42h1v1h-1zm1-6h1v1h-1z"/><path d="M21 37h1v1h-1zm5 3v4h1v-4zm-5 3h-1v1h2v-1z"/><path d="M24 44h-2v1h4v-1h-1zm1-5h-1v1h2v-1z"/><path d="M23 38h-1v1h2v-1z"/></g><g class="gotchi-secondary"><path d="M19 43h1v1h-1zm5 2h-2v1h4v-1h-1z"/><path d="M27 41v3h1v-3zm-6 3h-1v1h2v-1z"/><path d="M26 44h1v1h-1zm-7-3h-1v2h1v-1z"/></g><g class="gotchi-primary"><path d="M44 42h1v1h-1zm-1-6h1v1h-1z"/><path d="M42 37h1v1h-1z"/><path d="M42 39v-1h-2v1h1zm0 4v1h2v-1h-1z"/><path d="M40 44h-2v1h4v-1h-1z"/><path d="M38 42v-2h-1v4h1v-1z"/><path d="M40 40v-1h-2v1h1z"/></g><g class="gotchi-secondary"><path d="M42 44v1h2v-1h-1zm-5-2v-1h-1v3h1v-1z"/><path d="M40 45h-2v1h4v-1h-1z"/><path d="M37 44h1v1h-1zm7-1h1v1h-1z"/></g></g><g class="gotchi-handsDownOpen"><g class="gotchi-primary"><path d="M56 38v-1h-2v-1h-2v-1h-1v-1h-1v-1h-1v8h1v1h2v1h4v-1h1v-4z"/></g><g class="gotchi-secondary"><path d="M54 38v-1h-2v-1h-1v-1h-1v-1h-1v6h1v1h2v1h4v-4z" /></g><path d="M54,38v-1h-2v-1h-1v-1h-1v-1h-1v5h1v1h2v1h4v-3H54z" fill="#fff"/><g class="gotchi-primary"><path d="M8 38v-1h2v-1h2v-1h1v-1h1v-1h1v8h-1v1h-2v1H8v-1H7v-4z"/></g><g class="gotchi-secondary"><path d="M10 38v-1h2v-1h1v-1h1v-1h1v6h-1v1h-2v1H8v-4z" /></g><path d="M8,38v3h4v-1h2v-1h1v-5h-1v1h-1v1h-1v1h-2v1H8z" fill="#fff"/></g><g class="gotchi-handsUp"><g class="gotchi-secondary"><path d="M50,38h1v1h-1V38z"/><path d="M49 39h1v1h-1v-1zm2-2h1v1h-1v-1z"/><path d="M52,36h2v1h-2V36z"/><path d="M54,35h2v1h-2V35z"/></g><path d="M52,32v1h-2v1h-1v5h1v-1h1v-1h1v-1h2v-1h2v-3H52z" fill="#fff"/><g class="gotchi-primary"><path d="M49,33h1v1h-1V33z"/><path d="M50 32h2v1h-2v-1zm0 7h1v1h-1v-1z"/><path d="M49 40h1v1h-1v-1zm2-2h1v1h-1v-1z"/><path d="M52 37h2v1h-2v-1zm0-6h4v1h-4v-1z"/><path d="M56,32h1v4h-1V32z"/><path d="M54,36h2v1h-2V36z"/></g><g class="gotchi-secondary"><path d="M13,38h1v1h-1V38z"/><path d="M14 39h1v1h-1v-1zm-2-2h1v1h-1v-1z"/><path d="M10,36h2v1h-2V36z"/><path d="M8,35h2v1H8V35z"/></g><path d="M8,32v3h2v1h2v1h1v1h1v1h1v-5h-1v-1h-2v-1H8z" fill="#fff"/><g class="gotchi-primary"><path d="M14,33h1v1h-1V33z"/><path d="M12 32h2v1h-2v-1zm1 7h1v1h-1v-1z"/><path d="M14 40h1v1h-1v-1zm-2-2h1v1h-1v-1z"/><path d="M10 37h2v1h-2v-1zm-2-6h4v1H8v-1z"/><path d="M7,32h1v4H7V32z"/><path d="M8,36h2v1H8V36z"/></g></g><g class="gotchi-wearable wearable-face"><svg x="13" y="23"><path d="M37 2V1h-1V0h-1v1h-1v1h-1v1h1v1h1v1h1V4h1V3h1V2zM4 1H3V0H2v1H1v1H0v1h1v1h1v1h1V4h1V3h1V2H4z" fill="#376560"/><path d="M36 2V1h-1v1h-1v1h1v1h1V3h1V2zM3 1H2v1H1v1h1v1h1V3h1V2H3z" fill="#6ca958"/><path d="M35 2h1v1h-1zM2 2h1v1H2z" fill="#ff0"/></svg></g><g class="gotchi-wearable wearable-eyes"><svg x="15" y="20"><path d="M31 4V3h-1V2h-1V1h-1V0h-6v1h-1v1h-1v1h-1v1h-4V3h-1V2h-1V1h-1V0H6v1H5v1H4v1H3v1H0v4h3v1h1v1h1v1h1v1h5v5h1v1h1v1h8v-1h1v-1h1v-5h5v-1h1v-1h1V9h1V8h3V4h-3z" fill="#390601"/><g fill="#592f2a"><path d="M11,1h1v1h-1V1z"/><path d="M12 2h1v1h-1V2zM6 1h1v1H6V1z"/><path d="M5,2h1v1H5V2z"/><path d="M4,3h1v1H4V3z"/><path d="M3 4h1v1H3V4zm8 6h1v1h-1v-1z"/><path d="M12 9h1v1h-1V9zm-6 1h1v1H6v-1z"/><path d="M5,9h1v1H5V9z"/><path d="M4,8h1v1H4V8z"/><path d="M3 7h1v1H3V7zM1 6h1v1H1V6z"/><path d="M2 5h1v1H2V5zM0 5h1v1H0V5zm13-2h1v1h-1V3zm0 5h1v1h-1V8z"/><path d="M14 4h1v1h-1V4zm0 3h1v1h-1V7zm5-3h1v1h-1V4zm0 3h1v1h-1V7z"/><path d="M20 3h1v1h-1V3zm0 5h1v1h-1V8zm2-7h1v1h-1V1z"/><path d="M21 2h1v1h-1V2zm6-1h1v1h-1V1z"/><path d="M28,2h1v1h-1V2z"/><path d="M29,3h1v1h-1V3z"/><path d="M30 4h1v1h-1V4zm-8 6h1v1h-1v-1z"/><path d="M21 9h1v1h-1V9zm6 1h1v1h-1v-1z"/><path d="M28,9h1v1h-1V9z"/><path d="M29,8h1v1h-1V8z"/><path d="M30 7h1v1h-1V7zm2-1h1v1h-1V6z"/><path d="M31 5h1v1h-1V5zm2 0h1v1h-1V5z"/></g><g fill="#846460"><path d="M11,2h1v1h-1V2z"/><path d="M12 3h1v1h-1V3zm0 5h1v1h-1V8z"/><path d="M11 9h1v1h-1V9zM6 2h1v1H6V2z"/><path d="M5 3h1v1H5V3zm0 5h1v1H5V8z"/><path d="M6 9h1v1H6V9zm2-8h2v1H8V1zM4 5h1v2H4V5zM2 6h1v1H2V6zM0 6h1v1H0V6z"/><path d="M1 5h1v1H1V5zm7 5h2v1H8v-1zm11-1h1v1h-1V9z"/><path d="M20,10h1v1h-1V10z"/><path d="M21 16h-1v1h-6v-1h-1v-5h-1v6h1v1h8v-1h1v-6h-1v5zm-6-8h4v1h-4V8zm3 2h1v1h-1v-1z"/><path d="M19 11h1v1h-1v-1zm-4-1h1v1h-1v-1z"/><path d="M14 11h1v1h-1v-1zm2 0h2v1h-2v-1z"/><path d="M18 12h1v1h-1v-1zm-3 0h1v1h-1v-1z"/><path d="M16,13h2v1h-2V13z"/><path d="M18 14h1v1h-1v-1zm-3 0h1v1h-1v-1z"/><path d="M16 15h2v1h-2v-1zm3-2h1v1h-1v-1zm0 2h1v1h-1v-1zm-5-2h1v1h-1v-1zm0 2h1v1h-1v-1zm0-6h1v1h-1V9z"/><path d="M13 10h1v1h-1v-1zm0-5h1v2h-1V5zm2 0h1v2h-1V5zm3 0h1v2h-1V5zm2 0h1v2h-1V5zm2-3h1v1h-1V2z"/><path d="M21 3h1v1h-1V3zm0 5h1v1h-1V8z"/><path d="M22 9h1v1h-1V9zm5-7h1v1h-1V2z"/><path d="M28 3h1v1h-1V3zm0 5h1v1h-1V8z"/><path d="M27 9h1v1h-1V9zm-3-8h2v1h-2V1zm7 5h1v1h-1V6zm2 0h1v1h-1V6z"/><path d="M29 5h1v2h-1V5zm3 0h1v1h-1V5zm-8 5h2v1h-2v-1z"/></g><path d="M11 3H7v1H6v4h1v1h4V8h1V4h-1V3zm16 1V3h-4v1h-1v4h1v1h4V8h1V4h-1z" fill="#0ff"/><g fill="#fff"><path d="M9,3h1v1H9V3z"/><path d="M8,4h1v1H8V4z"/><path d="M7,5h1v1H7V5z"/><path d="M6 6h1v1H6V6zm5-1h-1v1H9v1H8v1H7v1h2V8h1V7h1V6h1V4h-1v1zm14-2h1v1h-1V3z"/><path d="M24,4h1v1h-1V4z"/><path d="M23 5h1v1h-1V5zm4-1v1h-1v1h-1v1h-1v1h-1v1h2V8h1V7h1V6h1V4h-1z"/><path d="M22,6h1v1h-1V6z"/></g></svg></g><g class="gotchi-wearable wearable-head"><svg x="12" y="1"><path d="M39 28v-1h-1V13h-1v-2h-1v-1h-1V9h-1V8h-1V7h-1V6h-2V5h-8V4h1V3h1V2h-1V1h-1V0h-4v1h-1v1h-1v1h1v1h1v1h-8v1H8v1H7v1H6v1H5v1H4v1H3v2H2v14H1v1H0v1h1v1h1v-1h1v-1h1v-2h2v-5h2v-1h2v-1h4v-1h2v-1h8v1h2v1h4v1h2v1h2v5h2v2h1v1h1v1h1v-1h1v-1h-1z" fill="#000032"/><path d="M11 5v1h2V5h-2zm17 0h-1v1h2V5h-1zm-1 4v1h2V9h-2zM11 9v1h2V9h-2zm11-1h-1v3h3V8h-2zm1 2h-1V9h1v1zm-6-2h-1v3h3V8h-2zm1 2h-1V9h1v1zm-7 3v1h2v-1h-2zm16 0v1h2v-1h-2z" fill="#f0f"/><g fill="#ff0"><path d="M17 5h1v1h-1zm5-4h-4v1h-1v1h1v1h1v1h2V4h1V3h1V2h-1V1zm-1 2h-2V2h2v1zm1 2h1v1h-1zm-1 7v-1h-2v1h2zm-2-5v1h2V7h-2z"/><path d="M21 6h1v1h-1zm-3 0h1v1h-1zM2 26v1h1v-2H2v1zm-1 2h1v1H1zm36-1h1v-2h-1v2zm1 1h1v1h-1z"/><path d="M36 24v-4h-1v5h2v-1h-1zM7 18v1h2v-1H7z"/><path d="M5 19v1h2v-1H5z"/><path d="M4 21v3H3v1h2v-5H4v1zm7-4H9v1h4v-1h-2zm19 0h-3v1h4v-1h-1z"/><path d="M32 18h-1v1h2v-1h-1z"/><path d="M34 19h-1v1h2v-1h-1zm-15-4v1h2v-1h-2z"/><path d="M18 14h1v1h-1zm3 0h1v1h-1z"/><path d="M19 13v1h2v-1h-2z"/><path d="M18 12h1v1h-1zm3 0h1v1h-1z"/></g><path d="M27 11v1h2v-1h-2zm-16 0v1h2v-1h-2zm17-4h-1v1h2V7h-1zM11 7v1h2V7h-2zm0 8v1h2v-1h-2zm5 0v1h2v-1h-2zm6 0v1h2v-1h-2zm5 0v1h2v-1h-2zm-10-2v-1h-1v2h1v-1zm6 0v1h1v-2h-1v1z" fill="#0f0"/><path d="M14 6v1h1V5h-1v1zm11-1v2h1V5h-1zm0 5h1v1h-1zm-11 0h1v1h-1zm11-2h1v1h-1zM14 8h1v1h-1zm0 8v1h1v-2h-1v1zm11 0v1h1v-2h-1v1zm-11-3v1h1v-2h-1v1zm11 0v1h1v-2h-1v1z" fill="#0ff"/></svg></g>"><svg x="7" y="29"><g><g class="gotchi-sleeves gotchi-sleeves-left gotchi-sleeves-up"><path d="M49,3V2h-4V1h-1V0h-2.5v12H43v-1h1v-1h1V9h2V8h2V7h1V3H49z" fill="#2a2a2a"/><g fill="#414040"><path d="M47 3v1h1v1h-6V4h4V3h1z"/><path d="M45,2h1v1h-1V2z"/><path d="M44,1h1v1h-1V1z"/><path d="M41.5,0H44v1h-2.5V0z"/></g><g fill="#303030"><path d="M46,5h1v1h-1V5z"/><path d="M45 6h1v1h-1V6zm-3-3h1v1h-1V3z"/><path d="M41.5,2H44v1h-2.5V2z"/><path d="M42 1h1v1h-1V1zm2 2h1v1h-1V3z"/></g><path d="M48 5h1v1h-1V5zm-6-3h1v1h-1V2z" fill="#de37e4"/></g><g class="gotchi-sleeves gotchi-sleeves-left gotchi-sleeves-down"><path d="M44,0v1h1v1h1v1h1v1h1v1h-4v1h1v1h2v1h2v1h1v4h-1v1h-4v-1h-2v-1h-1.5V0H44z" fill="#2a2a2a"/><g fill="#de37e4"><path d="M47 13h-1v-1h1v1z"/><path d="M48 12h-1v-1h1v1z"/></g><g fill="#303030"><path d="M46 12h-1v-1h1v1z"/><path d="M47 11h-1v-1h1v1z"/><path d="M46 10h-1V9h1v1zm-3-6h-1V3h1v1zm2 0h-1V3h1v1z"/><path d="M44,3h-2.5V2H44V3z"/><path d="M43,2h-1V1h1V2z"/></g><g fill="#414040"><path d="M46,3v1h-4v1h6V4h-1V3H46z"/><path d="M46,3h-1V2h1V3z"/><path d="M45,2h-1V1h1V2z"/><path d="M44,1h-2.5V0H44V1z"/></g><path d="M49 11h-1v-1h1v1zm-6-8h-1V2h1v1z" fill="#de37e4"/></g><g class="gotchi-sleeves gotchi-sleeves-right gotchi-sleeves-up"><path d="M0,3v4h1v1h2v1h2v1h1v1h1v1h1.5V0H6v1H5v1H1v1H0z" fill="#2a2a2a"/><g fill="#414040"><path d="M4,3v1h4v1H2V4h1V3H4z"/><path d="M5,3H4V2h1V3z"/><path d="M6,2H5V1h1V2z"/><path d="M8.5,1H6V0h2.5V1z"/></g><g fill="#303030"><path d="M4,6H3V5h1V6z"/><path d="M5 7H4V6h1v1zm3-3H7V3h1v1z"/><path d="M8.5,3H6V2h2.5V3z"/><path d="M8 2H7V1h1v1zM6 4H5V3h1v1z"/></g><path d="M2 6H1V5h1v1zm6-3H7V2h1v1z" fill="#de37e4"/></g><g class="gotchi-sleeves gotchi-sleeves-right gotchi-sleeves-down"><path d="M8.5,0v12H7v1H5v1H1v-1H0V9h1V8h2V7h2V6h1V5H2V4h1V3h1V2h1V1h1V0H8.5z" fill="#2a2a2a"/><g fill="#de37e4"><path d="M3,12h1v1H3V12z"/><path d="M2,11h1v1H2V11z"/></g><g fill="#303030"><path d="M4,11h1v1H4V11z"/><path d="M3,10h1v1H3V10z"/><path d="M4 9h1v1H4V9zm3-6h1v1H7V3zM5 3h1v1H5V3z"/><path d="M6,2h2.5v1H6V2z"/><path d="M7,1h1v1H7V1z"/></g><g fill="#414040"><path d="M3,3v1H2v1h6V4H4V3H3z"/><path d="M4,2h1v1H4V2z"/><path d="M5,1h1v1H5V1z"/><path d="M6,0h2.5v1H6V0z"/></g><path d="M1 10h1v1H1v-1zm6-8h1v1H7V2z" fill="#de37e4"/></g></g>,</svg><g class="gotchi-wearable wearable-hand wearable-hand-left"><svg x="1" y="33"><path d="M13,0v1h-1v1h-1v1H9v1H7v1H6V4H5V3H2v1H1v1H0v1h2V5h3v1H4v2h1v1H2V8H0v1h1v1h1v1h3v-1h1V9h1v1h4V9h2V8h1V0H13z" fill="#390601"/><path d="M5,6h2v2H5V6z" fill="#0ff"/><g fill="#4e2721"><path d="M1,5h1v1H1V5z"/><path d="M2 4h3v1H2V4zm0 5h3v1H2V9z"/><path d="M1 8h1v1H1V8zm12-5v1h-2v1H9v1H8v2h1V7h2V6h2V5h1V3h-1z"/></g><path d="M5,6h1v1H5V6z" fill="#fff"/></svg></g><g class="gotchi-wearable wearable-hand wearable-hand-right"><svg x="2" y="34"><g transform="scale(-1, 1) translate(-60, 0)"><path d="M8 0h1v1H8zM4 5h1v1H4z"/><path d="M0 1v3h3v1h1V4h1v1h1v2h2V6h1V4H8V3h1V2H8V1z"/><path d="M7,4V3H6v2h1v1h1V4H7z" fill="#969696"/><path d="M1,2h6v1H1V2z" fill="#cdcdcd"/></g></svg></g></svg>