<svg xmlns="http://www.w3.org/2000/svg" viewBox="0 0 64 64"><g class="gotchi-bg"><defs fill="#fff"><pattern id="a" patternUnits="userSpaceOnUse" width="4" height="4"><path d="M0 0h1v1H0zm2 2h1v1H2z"/></pattern><pattern id="b" patternUnits="userSpaceOnUse" x="0" y="0" width="2" height="2"><path d="M0 0h1v1H0z"/></pattern><pattern id="c" patternUnits="userSpaceOnUse" x="-2" y="0" width="8" height="1"><path d="M0 0h1v1H0zm2 0h1v1H2zm2 0h1v1H4z"/></pattern><pattern id="d" patternUnits="userSpaceOnUse" x="0" y="0" width="4" height="4"><path d="M0 0h1v1H0zm0 2h1v1H0zm1 0V1h1v1zm1 0h1v1H2zm0-1h1V0H2zm1 2h1v1H3z"/></pattern><pattern id="e" patternUnits="userSpaceOnUse" width="64" height="32"><path d="M4 4h1v1H4zm7 0h1v1h-1zm7 0h1v1h-1zm7 0h1v1h-1zm7 0h1v1h-1zm7 0h1v1h-1zm7 0h1v1h-1zm7 0h1v1h-1zm7 0h1v1h-1z"/><path fill="url(#a)" d="M0 8h64v7H0z"/><path fill="url(#b)" d="M0 16h64v1H0z"/><path fill="url(#c)" d="M0 18h64v1H0z"/><path fill="url(#b)" d="M22 18h15v1H22zM0 20h64v3H0z"/><path fill="url(#d)" d="M0 24h64v8H0z"/></pattern><mask id="f"><path fill="url(#e)" d="M0 0h64v32H0z"/></mask></defs><path fill="#fff" d="M0 0h64v32H0z"/><path fill="#dea8ff" class="gotchi-secondary" mask="url(#f)" d="M0 0h64v32H0z"/><path fill="#dea8ff" class="gotchi-secondary" d="M0 32h64v32H0z"/><path mask="url(#f)" fill="#fff" transform="matrix(1 0 0 -1 0 64)" d="M0 0h64v32H0z"/></g><style>.gotchi-primary{fill:#FF5E00;}.gotchi-secondary{fill:#FFCAA2;}.gotchi-cheek{fill:#F696C6;}.gotchi-eyeColor{fill:#FF5E00;}.gotchi-primary-mouth{fill:#FF5E00;}.gotchi-sleeves-up{display:none;}.gotchi-handsUp{display:none;}.gotchi-handsDownOpen{display:block;}.gotchi-handsDownClosed{display:none;}</style><g class="gotchi-body"><path d="M47 14v-2h-2v-2h-4V8h-4V6H27v2h-4v2h-4v2h-2v2h-2v41h4v-2h5v2h5v-2h6v2h5v-2h5v2h4V14z" class="gotchi-primary"/><path d="M45 14v-2h-4v-2h-4V8H27v2h-4v2h-4v2h-2v39h2v-2h5v2h5v-2h6v2h5v-2h5v2h2V14z" class="gotchi-secondary"/><path d="M18,49h2v-1h2v1h2v2h5v-2h2v-1h2v1h2v2h5v-2h2v-1h2v1h1V14h-4v-2h-4v-2h-5V9h-5v2h-4v2h-4v2h-1V49z" fill="#fff"/></g><path class="gotchi-cheek" d="M21 32v2h2v-2h-1zm21 0h-1v2h2v-2z"/><g class="gotchi-primary-mouth"><path d="M29 32h-2v2h2v-1z"/><path d="M33 34h-4v2h6v-2h-1z"/><path d="M36 32h-1v2h2v-2z"/></g>
    <style>
        .gotchi-bg { display: none }
    </style>
<g class="gotchi-shadow"><path opacity=".25" d="M25 58H19v1h1v1h24V59h1V58h-1z" fill="#000"/></g><g class="gotchi-collateral"><path d="M30 11v1h4v-1h-4z"/><path d="M29 12h1v1h-1zm7.5 2.5v4h1v-4h-1zm-10 4h1v-4h-1v4z"/><path d="M27.5 13.5h1v1h-1zm8 5h1v1h-1zm0-5h1v1h-1zM34 12h1v1h-1zm-5 8h1v1h-1zm-1.5-1.5h1v1h-1zM34 20h1v1h-1z"/><path d="M30 21v1h4v-1h-4z"/><g fill="#ff5e00"><path d="M32.5 16h-1v-1h2v-1h-1v-1h-1v1h-2v1h1v3h-1v1h2v1h1v-1h1v-1h-2v-1h2v-1h-1z"/><path d="M33.5 17h1v1h-1zm0-2h1v1h-1z"/></g></g><g class="gotchi-eyeColor"><rect x="21" y="23" width="8" height="2" class="gotchi-primary" /><rect x="35" y="23" width="8" height="2" class="gotchi-primary" /><rect x="38" y="25" width="2" height="2" /><rect x="24" y="25" width="2" height="2" /></g><g class="gotchi-wearable wearable-body"><svg x="10" y="31"><path d="M36 2v1h-1v1h-1v1h-1v1h-1v1h-2v1h-2v1H16V8h-2V7h-2V6h-1V5h-1V4H9V3H8V2H5v22h34V2h-3z"/><g fill="red"><path d="M23 12v-1h1v-1h-8V9h-2V8h-2V7h-1V6h-1V5H9V4H8V3H6v11h15v-1h1v-1h1z"/><path d="M36 3v1h-1v1h-1v1h-1v1h-1v1h-2v1h-2v1h-3v1h-1v1h-1v1h-1v1h16V3h-2z"/></g><path d="M6 15v3h32v-3H6z" fill="#fff"/><g fill="red"><path d="M16 19v1h-1v1h-1v1h24v-3H16z"/><path d="M15 20v-1H6v3h7v-1h1v-1h1z"/></g></svg></g><g class="gotchi-handsDownClosed"><g class="gotchi-primary"><path d="M19 42h1v1h-1zm1-6h1v1h-1z"/><path d="M21 37h1v1h-1zm5 3v4h1v-4zm-5 3h-1v1h2v-1z"/><path d="M24 44h-2v1h4v-1h-1zm1-5h-1v1h2v-1z"/><path d="M23 38h-1v1h2v-1z"/></g><g class="gotchi-secondary"><path d="M19 43h1v1h-1zm5 2h-2v1h4v-1h-1z"/><path d="M27 41v3h1v-3zm-6 3h-1v1h2v-1z"/><path d="M26 44h1v1h-1zm-7-3h-1v2h1v-1z"/></g><g class="gotchi-primary"><path d="M44 42h1v1h-1zm-1-6h1v1h-1z"/><path d="M42 37h1v1h-1z"/><path d="M42 39v-1h-2v1h1zm0 4v1h2v-1h-1z"/><path d="M40 44h-2v1h4v-1h-1z"/><path d="M38 42v-2h-1v4h1v-1z"/><path d="M40 40v-1h-2v1h1z"/></g><g class="gotchi-secondary"><path d="M42 44v1h2v-1h-1zm-5-2v-1h-1v3h1v-1z"/><path d="M40 45h-2v1h4v-1h-1z"/><path d="M37 44h1v1h-1zm7-1h1v1h-1z"/></g></g><g class="gotchi-handsDownOpen"><g class="gotchi-primary"><path d="M56 38v-1h-2v-1h-2v-1h-1v-1h-1v-1h-1v8h1v1h2v1h4v-1h1v-4z"/></g><g class="gotchi-secondary"><path d="M54 38v-1h-2v-1h-1v-1h-1v-1h-1v6h1v1h2v1h4v-4z" /></g><path d="M54,38v-1h-2v-1h-1v-1h-1v-1h-1v5h1v1h2v1h4v-3H54z" fill="#fff"/><g class="gotchi-primary"><path d="M8 38v-1h2v-1h2v-1h1v-1h1v-1h1v8h-1v1h-2v1H8v-1H7v-4z"/></g><g class="gotchi-secondary"><path d="M10 38v-1h2v-1h1v-1h1v-1h1v6h-1v1h-2v1H8v-4z" /></g><path d="M8,38v3h4v-1h2v-1h1v-5h-1v1h-1v1h-1v1h-2v1H8z" fill="#fff"/></g><g class="gotchi-handsUp"><g class="gotchi-secondary"><path d="M50,38h1v1h-1V38z"/><path d="M49 39h1v1h-1v-1zm2-2h1v1h-1v-1z"/><path d="M52,36h2v1h-2V36z"/><path d="M54,35h2v1h-2V35z"/></g><path d="M52,32v1h-2v1h-1v5h1v-1h1v-1h1v-1h2v-1h2v-3H52z" fill="#fff"/><g class="gotchi-primary"><path d="M49,33h1v1h-1V33z"/><path d="M50 32h2v1h-2v-1zm0 7h1v1h-1v-1z"/><path d="M49 40h1v1h-1v-1zm2-2h1v1h-1v-1z"/><path d="M52 37h2v1h-2v-1zm0-6h4v1h-4v-1z"/><path d="M56,32h1v4h-1V32z"/><path d="M54,36h2v1h-2V36z"/></g><g class="gotchi-secondary"><path d="M13,38h1v1h-1V38z"/><path d="M14 39h1v1h-1v-1zm-2-2h1v1h-1v-1z"/><path d="M10,36h2v1h-2V36z"/><path d="M8,35h2v1H8V35z"/></g><path d="M8,32v3h2v1h2v1h1v1h1v1h1v-5h-1v-1h-2v-1H8z" fill="#fff"/><g class="gotchi-primary"><path d="M14,33h1v1h-1V33z"/><path d="M12 32h2v1h-2v-1zm1 7h1v1h-1v-1z"/><path d="M14 40h1v1h-1v-1zm-2-2h1v1h-1v-1z"/><path d="M10 37h2v1h-2v-1zm-2-6h4v1H8v-1z"/><path d="M7,32h1v4H7V32z"/><path d="M8,36h2v1H8V36z"/></g></g><g class="gotchi-wearable wearable-eyes"><svg x="18" y="19"><path d="M20 0v1h-.5v.5H19v.3h-1.5V2H16v2h-1v2h-2V4h-1V2h-1.5v-.2H9v-.3h-.5V1H8V0H0v13h13V8h2v5h12V0z" fill="#fff"/><path d="M24 5v1h-1V5h-1v1h-1V5h-1v1h-1V5h-1v1h-1v1h1v1h6V7h1V5h-1zM10 5H9v1H8V5H7v1H6V5H5v1H4V5H3v2h1v1h6V7h1V6h-1V5z"/></svg></g><g class="gotchi-wearable wearable-face"><svg x="9" y="18"><path d="M5 2H4V0H0v6h2v4h2v2h2V2z" fill="#64438e"/><path d="M5 4H4V2H2v4h2v4h2V4z" fill="#b464ed"/><g fill="#edd3fd"><path d="M4 4H2v2h2V5z"/><path d="M5 6H4v4h2V6z"/></g><path d="M41 2h1V0h4v6h-2v4h-2v2h-2V2z" fill="#64438e"/><path d="M41 4h1V2h2v4h-2v4h-2V4z" fill="#b464ed"/><g fill="#edd3fd"><path d="M42 4h2v2h-2V5z"/><path d="M41 6h1v4h-2V6z"/></g></svg></g><g class="gotchi-wearable wearable-head"><svg x="11" y="4"><path d="M38 15V5h-2V3h-2V1h-2V0h-9v1h-1v1h-2V1h-1V0h-9v1H8v2H6v2H4v10H0v2h42v-2z"/><path d="M4,12h34v3H4V12z" fill="#232323"/></svg></g>"><svg x="10" y="31"><g><g class="gotchi-sleeves gotchi-sleeves-left gotchi-sleeves-up"><path d="M40 13v-1h1v-1h1v-1h2V0h-2v1h-2v1h-1.5v11H40z"/><path d="M40 12V3h-1v9h1z" fill="red"/><path d="M42 10V2h-1v8h1z" fill="#fff"/></g><g class="gotchi-sleeves gotchi-sleeves-left gotchi-sleeves-down"><path d="M40 2v1h1v1h1v1h2v10h-2v-1h-2v-1h-1.5V2H40z"/><path d="M40 3v9h-1V3h1z" fill="red"/><path d="M42 5v8h-1V5h1z" fill="#fff"/></g><g class="gotchi-sleeves gotchi-sleeves-right gotchi-sleeves-up"><path d="M4 13v-1H3v-1H2v-1H0V0h2v1h2v1h1.5v11H4z"/><path d="M4 12V3h1v9H4z" fill="red"/><path d="M2 10V2h1v8H2z" fill="#fff"/></g><g class="gotchi-sleeves gotchi-sleeves-right gotchi-sleeves-down"><path d="M4 2v1H3v1H2v1H0v10h2v-1h2v-1h1.5V2H4z"/><path d="M4 3v9h1V3H4z" fill="red"/><path d="M2 5v8h1V5H2z" fill="#fff"/></g></g></svg><g class="gotchi-wearable wearable-hand wearable-hand-left"><svg x="1" y="25"><path d="M8,12v-1H6v1H5v2h1v1h2v-1h1v-2H8z" fill="#f0f"/><path d="M5,10V9H3v1H2v2h1v1h2v-1h1v-2H5z" fill="#0ff"/><path d="M11,10V9H9v1H8v2h1v1h2v-1h1v-2H11z" fill="#ff0"/><path d="M5,14v-1H3v1H2v2h1v1h2v-1h1v-2H5z" fill="#ff8200"/><path d="M8,16v-1H6v1H5v2h1v1h2v-1h1v-2H8z" fill="#5800c0"/><path d="M8,8V7H6v1H5v2h1v1h2v-1h1V8H8z" fill="#0f0"/><path d="M11,14v-1H9v1H8v2h1v1h2v-1h1v-2H11z" fill="#00f"/><path d="M13,6V5H1v1H0v12h1v1h12v-1h1V6H13z" opacity=".4" fill="#cff" enable-background="new"/><g opacity=".7" fill="#cff"><path d="M2,18v1h10v-1H2z"/><path d="M12 6v12h1V6h-1zM2 6H1v12h1V6z"/></g><path d="M4 5h8V2h-1V1H8V0H6v1H3v1H2v3h2zm9 1v12h1V6h-1z"/><path d="M1 16V6H0v12h1v-2zm11 2h1v1h-1v-1z"/><path d="M1,18h1v1H1V18z"/><path d="M2 19v1h10v-1H2zM12 5h1v1h-1V5zM1 5h1v1H1V5z"/><path d="M10,2H3v2h8V2H10z" fill="red"/></svg></g><g class="gotchi-wearable wearable-hand wearable-hand-right"><svg x="1" y="27"><g transform="scale(-1, 1) translate(-62, 0)"><path d="M11 7V6h-1V5H3v1H2v1H1v7h1v2h1v1h2v1h3v-1h2v-1h1v-2h1V7z" fill="#511f17"/><path d="M9 9h1v1H9V9zm-7 4h1v-3H2v3zm2-1h1v-2H4v2zm2 2h1v-3H6v3zm2-3h1v1H8v-1zm2 0v2h1v-2h-1zm-6 5h1v-3H4v3zm4-1h1v-2H8v2zm-2 2h1v-2H6v2z" fill="#7a500c"/><path d="M10 7V6H3v1H2v1h1v1h7V8h1V7z" fill="#955c4b"/><path d="M3 7h7v1H3z" fill="#fff"/><g fill="#ff89ff"><path d="M2 0h1v1H2z"/><path d="M1 1h1v1H1zm2 0h1v2H3z"/><path d="M0 2h1v1H0zm4 1h1v2H4z"/><path d="M5 5h1v2H5z"/><path d="M6 7h1v1H6z"/></g></g></svg></g></svg>