<svg xmlns="http://www.w3.org/2000/svg" viewBox="0 0 64 64"><g class="gotchi-bg"><defs fill="#fff"><pattern id="a" patternUnits="userSpaceOnUse" width="4" height="4"><path d="M0 0h1v1H0zm2 2h1v1H2z"/></pattern><pattern id="b" patternUnits="userSpaceOnUse" x="0" y="0" width="2" height="2"><path d="M0 0h1v1H0z"/></pattern><pattern id="c" patternUnits="userSpaceOnUse" x="-2" y="0" width="8" height="1"><path d="M0 0h1v1H0zm2 0h1v1H2zm2 0h1v1H4z"/></pattern><pattern id="d" patternUnits="userSpaceOnUse" x="0" y="0" width="4" height="4"><path d="M0 0h1v1H0zm0 2h1v1H0zm1 0V1h1v1zm1 0h1v1H2zm0-1h1V0H2zm1 2h1v1H3z"/></pattern><pattern id="e" patternUnits="userSpaceOnUse" width="64" height="32"><path d="M4 4h1v1H4zm7 0h1v1h-1zm7 0h1v1h-1zm7 0h1v1h-1zm7 0h1v1h-1zm7 0h1v1h-1zm7 0h1v1h-1zm7 0h1v1h-1zm7 0h1v1h-1z"/><path fill="url(#a)" d="M0 8h64v7H0z"/><path fill="url(#b)" d="M0 16h64v1H0z"/><path fill="url(#c)" d="M0 18h64v1H0z"/><path fill="url(#b)" d="M22 18h15v1H22zM0 20h64v3H0z"/><path fill="url(#d)" d="M0 24h64v8H0z"/></pattern><mask id="f"><path fill="url(#e)" d="M0 0h64v32H0z"/></mask></defs><path fill="#fff" d="M0 0h64v32H0z"/><path fill="#dea8ff" class="gotchi-secondary" mask="url(#f)" d="M0 0h64v32H0z"/><path fill="#dea8ff" class="gotchi-secondary" d="M0 32h64v32H0z"/><path mask="url(#f)" fill="#fff" transform="matrix(1 0 0 -1 0 64)" d="M0 0h64v32H0z"/></g><style>.gotchi-primary{fill:#2664BA;}.gotchi-secondary{fill:#D4E0F1;}.gotchi-cheek{fill:#F696C6;}.gotchi-eyeColor{fill:#0064FF;}.gotchi-primary-mouth{fill:#2664BA;}.gotchi-sleeves-up{display:none;}.gotchi-handsUp{display:none;}.gotchi-handsDownOpen{display:block;}.gotchi-handsDownClosed{display:none;}</style><g class="gotchi-body"><path d="M47 14v-2h-2v-2h-4V8h-4V6H27v2h-4v2h-4v2h-2v2h-2v41h4v-2h5v2h5v-2h6v2h5v-2h5v2h4V14z" class="gotchi-primary"/><path d="M45 14v-2h-4v-2h-4V8H27v2h-4v2h-4v2h-2v39h2v-2h5v2h5v-2h6v2h5v-2h5v2h2V14z" class="gotchi-secondary"/><path d="M18,49h2v-1h2v1h2v2h5v-2h2v-1h2v1h2v2h5v-2h2v-1h2v1h1V14h-4v-2h-4v-2h-5V9h-5v2h-4v2h-4v2h-1V49z" fill="#fff"/></g><path class="gotchi-cheek" d="M21 32v2h2v-2h-1zm21 0h-1v2h2v-2z"/><g class="gotchi-primary-mouth"><path d="M29 32h-2v2h2v-1z"/><path d="M33 34h-4v2h6v-2h-1z"/><path d="M36 32h-1v2h2v-2z"/></g>
    <style>
        .gotchi-bg { display: none }
    </style>
<g class="gotchi-shadow"><path opacity=".25" d="M25 58H19v1h1v1h24V59h1V58h-1z" fill="#000"/></g><g class="gotchi-collateral" fill="#2664ba"><path d="M30 15v2h3v1h-3v1h1.5v1h1v-1H34v-3h-3v-1h3v-1h-1.5v-1h-1v1H30zm4 5h1v1h-1z"/><path d="M35 19h1v1h-1z"/><path d="M36 16v3h1v-5h-1v1zm-2-4h1v1h-1z"/><path d="M35 13h1v1h-1zm-7 5v-4h-1v5h1zm1 2h1v1h-1z"/><path d="M28 19h1v1h-1zm1-7h1v1h-1z"/><path d="M28 13h1v1h-1z"/></g><g class="gotchi-eyeColor"><path d="M23 22h-1v1h1v-1zm0 5h-1v1h1v-1zm5-5h-1v1h1v-1zm0 5h-1v1h1v-1zm14 0h-1v1h1v-1zm0-5h-1v1h1v-1zm-5 0h-1v1h1v-1zm0 5h-1v1h1v-1z" class="gotchi-primary" /><g><path d="M25 26h-1v1h1v-1zm2-1h-1v1h1v-1zm-3-1h-1v1h1v-1z" /><path d="M25 23h-1v1h1v-1z" /><path d="M25 24h-1v1h1v-1zm2 0h-1v1h1v-1zm-1 2h-1v1h1v-1z" /><path d="M25 25h-1v1h1v-1z" /><path d="M26 25h-1v1h1v-1zm-2 0h-1v1h1v-1zm2-2h-1v1h1v-1z" /><path d="M26 24h-1v1h1v-1zm13 2h-1v1h1v-1zm2-1h-1v1h1v-1zm-3-1h-1v1h1v-1z" /><path d="M39 24h-1v1h1v-1z" /><path d="M38 23h1v1h-1m0 1h-1v1h1v-1zm2 1h-1v1h1v-1z" /><path d="M40 25h-1v1h1v-1z" /><path d="M39 25h-1v1h1v-1zm2-1h-1v1h1v-1z" /><path d="M40 23h-1v1h1v-1z" /><path d="M40 24h-1v1h1v-1z" /></g></g><g class="gotchi-wearable wearable-body"><svg x="12" y="32"><path d="M35 1v1h-2v1h-2v1h-1v1h-1v1h-1v1h-1v1h-2v1h-2v1h-2v1h-2v-1h-2V9h-2V8h-2V7h-1V6h-1V5h-1V4H9V3H7V2H5V1H2.5v8H3v14h34V9h.5V1H35z" fill="#0448b9"/><path d="M35 2v1h-2v1h-2v1h-1v1h-1v1h-1v1h-1v1h-2v1h-2v1h-2v1h-2v-1h-2v-1h-2V9h-2V8h-1V7h-1V6h-1V5H9V4H7V3H5V2H2.5v6H4v14h32V8h1.5V2H35z" fill="#0060ff"/><g fill="#fff"><path d="M30 21h1v1h-1zm-6 0h1v1h-1zm-6 0h1v1h-1zm-6 0h1v1h-1zm-6 0h1v1H6zm-2-2h1v1H4zm30-1h-1v1h-1v1h1v1h1v-1h1v-1h-1zm-6 0h-1v1h-1v1h1v1h1v-1h1v-1h-1zm-6 0h-1v1h-1v1h1v1h1v-1h1v-1h-1zm-6 0h-1v1h-1v1h1v1h1v-1h1v-1h-1zm-6 0H9v1H8v1h1v1h1v-1h1v-1h-1zm25-2h1v1h-1zm-3 0h-1v-1h-1v1h-1v1h1v1h1v-1h1zm-6 0h-1v-1h-1v1h-1v1h1v1h1v-1h1zm-6 0h-1v-1h-1v1h-1v1h1v1h1v-1h1zm-6 0h-1v-1h-1v1h-1v1h1v1h1v-1h1zm-6 0H7v-1H6v1H5v1h1v1h1v-1h1zm26-1v-1h1v-1h-1v-1h-1v1h-1v1h1v1zm-13 0h1v-1h1v-1h-1v-1h-1v1h-1v1h1zm-11 0v-1h1v-1h-1v-1H9v1H8v1h1v1zm16-1h1v1h1v-1h1v-1h-1v-1h-1v1h-1zm-12 0h1v1h1v-1h1v-1h-1v-1h-1v1h-1zM4 13h1v1H4zm20-1h1v-1h1v-1h-3v1h1v1zm-6-1h1v1h-1zM7 12v-1h1v-1H7V9H6v1H5v1h1v1zm28-2h1v1h-1zm-6 1h1v1h1v-1h1v-1h-1V9h-1v1h-1zm-18 0h1v1h1v-1h1v-1h-1V9h-1v1h-1zm16-3h1v1h-1z"/><path d="M32 8h1v1h1V8h1V7h-1V6h-1v1h-1zm-4-1h1v1h-1zM8 8h1v1h1V8h1V7h-1V6H9v1H8zM5 8V7H4V6H3v1h-.5v1H3h2zm25-3h1v1h-1zM6 6h1V5h1V4H7V3H6v1H5v1h1z"/><path d="M31 4h1v1h-1zm5-1v1h-1v1h1v1h1V5h.5V4H37V3zM3 2h1v1H3z"/></g><path d="M33 19h1v1h-1zm-6 0h1v1h-1zm-6 0h1v1h-1zm-6 0h1v1h-1zm-6 0h1v1H9zm21-3h1v1h-1zm-6 0h1v1h-1zm-6 0h1v1h-1zm-6 0h1v1h-1zm-6 0h1v1H6zm27-3h1v1h-1zm-6 0h1v1h-1zm-6 0h1v1h-1zm-6 0h1v1h-1zm-6 0h1v1H9zm21-3h1v1h-1zm-6 0h1v1h-1zm-12 0h1v1h-1zm-6 0h1v1H6zm27-3h1v1h-1zM9 7h1v1H9zM3 7h1v1H3zm33-3h1v1h-1zM6 4h1v1H6z" fill="#ffd200"/></svg></g><g class="gotchi-handsDownClosed"><g class="gotchi-primary"><path d="M19 42h1v1h-1zm1-6h1v1h-1z"/><path d="M21 37h1v1h-1zm5 3v4h1v-4zm-5 3h-1v1h2v-1z"/><path d="M24 44h-2v1h4v-1h-1zm1-5h-1v1h2v-1z"/><path d="M23 38h-1v1h2v-1z"/></g><g class="gotchi-secondary"><path d="M19 43h1v1h-1zm5 2h-2v1h4v-1h-1z"/><path d="M27 41v3h1v-3zm-6 3h-1v1h2v-1z"/><path d="M26 44h1v1h-1zm-7-3h-1v2h1v-1z"/></g><g class="gotchi-primary"><path d="M44 42h1v1h-1zm-1-6h1v1h-1z"/><path d="M42 37h1v1h-1z"/><path d="M42 39v-1h-2v1h1zm0 4v1h2v-1h-1z"/><path d="M40 44h-2v1h4v-1h-1z"/><path d="M38 42v-2h-1v4h1v-1z"/><path d="M40 40v-1h-2v1h1z"/></g><g class="gotchi-secondary"><path d="M42 44v1h2v-1h-1zm-5-2v-1h-1v3h1v-1z"/><path d="M40 45h-2v1h4v-1h-1z"/><path d="M37 44h1v1h-1zm7-1h1v1h-1z"/></g></g><g class="gotchi-handsDownOpen"><g class="gotchi-primary"><path d="M56 38v-1h-2v-1h-2v-1h-1v-1h-1v-1h-1v8h1v1h2v1h4v-1h1v-4z"/></g><g class="gotchi-secondary"><path d="M54 38v-1h-2v-1h-1v-1h-1v-1h-1v6h1v1h2v1h4v-4z" /></g><path d="M54,38v-1h-2v-1h-1v-1h-1v-1h-1v5h1v1h2v1h4v-3H54z" fill="#fff"/><g class="gotchi-primary"><path d="M8 38v-1h2v-1h2v-1h1v-1h1v-1h1v8h-1v1h-2v1H8v-1H7v-4z"/></g><g class="gotchi-secondary"><path d="M10 38v-1h2v-1h1v-1h1v-1h1v6h-1v1h-2v1H8v-4z" /></g><path d="M8,38v3h4v-1h2v-1h1v-5h-1v1h-1v1h-1v1h-2v1H8z" fill="#fff"/></g><g class="gotchi-handsUp"><g class="gotchi-secondary"><path d="M50,38h1v1h-1V38z"/><path d="M49 39h1v1h-1v-1zm2-2h1v1h-1v-1z"/><path d="M52,36h2v1h-2V36z"/><path d="M54,35h2v1h-2V35z"/></g><path d="M52,32v1h-2v1h-1v5h1v-1h1v-1h1v-1h2v-1h2v-3H52z" fill="#fff"/><g class="gotchi-primary"><path d="M49,33h1v1h-1V33z"/><path d="M50 32h2v1h-2v-1zm0 7h1v1h-1v-1z"/><path d="M49 40h1v1h-1v-1zm2-2h1v1h-1v-1z"/><path d="M52 37h2v1h-2v-1zm0-6h4v1h-4v-1z"/><path d="M56,32h1v4h-1V32z"/><path d="M54,36h2v1h-2V36z"/></g><g class="gotchi-secondary"><path d="M13,38h1v1h-1V38z"/><path d="M14 39h1v1h-1v-1zm-2-2h1v1h-1v-1z"/><path d="M10,36h2v1h-2V36z"/><path d="M8,35h2v1H8V35z"/></g><path d="M8,32v3h2v1h2v1h1v1h1v1h1v-5h-1v-1h-2v-1H8z" fill="#fff"/><g class="gotchi-primary"><path d="M14,33h1v1h-1V33z"/><path d="M12 32h2v1h-2v-1zm1 7h1v1h-1v-1z"/><path d="M14 40h1v1h-1v-1zm-2-2h1v1h-1v-1z"/><path d="M10 37h2v1h-2v-1zm-2-6h4v1H8v-1z"/><path d="M7,32h1v4H7V32z"/><path d="M8,36h2v1H8V36z"/></g></g><g class="gotchi-wearable wearable-face"><svg x="15" y="21"><path fill="#773e1d" d="M11 14h-1v-1H9v-1H8v-1H6v-1H5V9H4V8H3V0H0v12h2v1h1v1h1v1h2v1h2v1h4v-2h-1v-1zm7 2h-4v1h1v1h1v1h2v-1h1v-1h1v-1h-2zM31 0v8h-1v1h-1v1h-1v1h-2v1h-1v1h-1v1h-1v1h-1v2h4v-1h2v-1h2v-1h1v-1h1v-1h2V0h-3z"/>
</svg></g><g class="gotchi-wearable wearable-eyes"><svg x="15" y="19"><path d="M33 4v1h-1v1h-3V5h-1V3h-1V2h-1V1h-1V0h-2v1h-1v1h-1v1h-1v2h-1v1h-4V5h-1V3h-1V2h-1V1h-1V0H9v1H8v1H7v1H6v2H5v1H2V5H1V4H0v2h1v1h1v1h3v1h1v1h1v1h1v1h1v1h2v-1h1v-1h1v-1h1V9h1V8h4v1h1v1h1v1h1v1h1v1h2v-1h1v-1h1v-1h1V9h1V8h3V7h1V6h1V4z"/><g fill="#323232"><path d="M5,7v2h1v1h1v1h1v1h1v1h1V7H5z"/><path d="M14 3h-1V2h-1V1h-1V0h-1v7h5V5h-1V3zm5 4v2h1v1h1v1h1v1h1v1h1V7h-5z"/><path d="M28,5V3h-1V2h-1V1h-1V0h-1v7h5V5H28z"/></g><path d="M10 7v6h1v-1h1v-1h1v-1h1V9h1V8h4V7h-9zm23-2h1v1h-1V5zm-9 2v6h1v-1h1v-1h1v-1h1V9h1V8h3V7h-8z"/><path d="M32 6h1v1h-1V6zM0 5h1v1H0V5zm2 2h3v1H2V7z"/><path d="M1,6h1v1H1V6z"/><g fill="#646464"><path d="M9 1H8v1H7v1H6v2H5v1H2v1h8V0H9v1zm14 0h-1v1h-1v1h-1v2h-1v1h-4v1h9V0h-1v1zm9 4h1v1h-1V5z"/><path d="M33 4h1v1h-1V4zm-4 2h3v1h-3V6zM1 5h1v1H1V5z"/><path d="M0,4h1v1H0V4z"/></g></svg></g><g class="gotchi-wearable wearable-head"><svg x="7" y="4"><path d="M41 8V7h-1V6h-1V5h-1V4h-1V3h-1V2h-3V1h-7V0h-2v1h-7v1h-3v1h-1v1h-1v1h-1v1h-1v1H9v1H8v7H0v2h42V8z" fill="#7d7d7d"/><path d="M40 8V7h-1V6h-1V5h-1V4h-1V3h-3V2h-6v1h1v1h1v1h1v1h1v1h1v1h1v8h8V8zM19 7V6h1V5h1V4h1V3h1V2h-6v1h-3v1h-1v1h-1v1h-1v1h-1v1H9v8h8V8h1V7z"/><path d="M31 7h-1V6h-1V5h-1V4h-1V3h-1V2h-2v1h-1v1h-1v1h-1v1h-1v1h-1v1h-1v8h14V8h-1z"/><g fill="#f90"><path d="M26.8 5.2h.6v.6h-.6z"/><path d="M25.6 8.3h.6V7.1h.6V5.8h-.6v.6h-.6v.7h-.7v.6h-.6v.6h-.6v.6h-.6v.6h-.6v.6h-.6v.6h1.8v1.2h-.6v1.3h-.6v1.2h.6v-.6h.6v-.6h.6v-.6h.6v-.7h.7v-.6h.6v-.6h.6v-.6h.6v-.6h-1.8v-.6z"/><path d="M21.9 14.4h.6v.6h-.6z"/></g></svg></g>"><svg x="12" y="32"><g><g class="gotchi-sleeves gotchi-sleeves-left gotchi-sleeves-up"><path d="M38 9V8h1V7h1V0h-2v1h-1.8v1h.2v6h-.2v1H38z" fill="#0448b9"/><path d="M38,8V7h1V1h-1v1h-1.8v6H38z" fill="#0060ff"/><path d="M37 4h1v1h-1V4zm-1 1h1v1h-1V5zm0-2h1v1h-1V3zm2 3h1v1h-1V6z" fill="#fdfdff"/><path d="M36 4h1v1h-1z" fill="#ffd200"/></g><g class="gotchi-sleeves gotchi-sleeves-left gotchi-sleeves-down"><path d="M39,3V2h-1V1h-2v1h1v6h-1v1h2v1h2V3H39z" fill="#0448b9"/><path d="M38,3V2h-1.5v6H38v1h1V3H38z" fill="#0060ff"/><path d="M38 7h1v1h-1V7zm-1-3h1v1h-1V4z" fill="#fdfdff"/><path d="M36 4h1v1h-1z" fill="#ffd200"/><path d="M36 3h1v1h-1zm0 2h1v1h-1z" fill="#fdfdff"/></g><g class="gotchi-sleeves gotchi-sleeves-right gotchi-sleeves-up"><path d="M1,7v1h1v1h2V8H3V2h1V1H2V0H0v7H1z" fill="#0448b9"/><path d="M2,7v1h1V6h1V3H3V2H2V1H1v6H2z" fill="#0060ff"/><path d="M1 4h1v1H1V4zm2-2h1v1H3V2zM2 7h1v1H2V7z" fill="#fdfdff"/><path d="M3 7h1v1H3z" fill="#ffd200"/></g><g class="gotchi-sleeves gotchi-sleeves-right gotchi-sleeves-down"><path d="M2,1v1H1v1H0v7h2V9h2V8H3V2h1V1H2z" fill="#0448b9"/><path d="M2,2v1H1v6h1V8h1.5V2H2z" fill="#0060ff"/><path d="M2 7h1v1H2V7zM1 4h1v1H1V4z" fill="#fdfdff"/><path d="M3 2h1v1H3zm0 4h1v1H3z" fill="#fff"/><path d="M3 7h1v1H3z" fill="#ffd200"/></g></g></svg><g class="gotchi-wearable wearable-hand wearable-hand-left"><svg x="1" y="35"><path d="M8 0v1H7v1H6v1H5V2H4V1H2v1H1v1H0v3h1v1h2V6H2V5H1V4h1V3h2v1h1v2h1v1h1v1h1v1h1V0H8z" fill="#abadb0"/><path d="M6 2v5h1V2H6z" fill="#85888c"/><path d="M8 0v9h1V0H8z" fill="#353941"/><path d="M7 1v7h1V1H7z" fill="#606469"/></svg></g><g class="gotchi-wearable wearable-hand wearable-hand-right"><svg x="6" y="23"><g transform="scale(-1, 1) translate(-52, 0)"><path d="M6 7V6H5V0H2v6H1v1H0v14h1v1h5v-1h1V7z"/><path d="M1,11h2v7H1V11z" fill="#decd87"/><path d="M3,3h1v2H3V3z" fill="#782121"/><path d="M3 1h1v1H3zm2 6V6H2v1H1v3h3v9H1v2h5V7z" fill="green"/><path d="M1 7h1v3H1V7zm0 12h1v2H1v-2z" fill="#0a0"/></g></svg></g><g class="gotchi-wearable wearable-pet"><svg x="38" y="3"><path d="M25 8V7h-1V5h-1V4h-1V3h-2V2h-3V1h-1V0h-6v1H9v1H6v1H4v1H3v1H2v2H1v1H0v2h1v1h1v1h2v1h2v1h14v-1h2v-1h2v-1h1v-1h1V8h-1z"/><path d="M24 8V7h-1V5h-1V4h-2V3h-3V2h-1V1h-6v1H9v1H6v1H4v1H3v2H2v1H1v2h1v1h2v1h2v1h14v-1h2v-1h2v-1h1V8h-1zM7 5h2v1h1v1H9V6H7v1H6V6h1V5zm13 1v1h-1V6h-2v1h-1V6h1V5h2v1h1zm-9 3V8h1v1h2V8h1v1h-1v1h-2V9h-1z" fill="#fff"/><path d="M20 8h1v1h-1zM5 8h1v1H5z" fill="#ff78ff"/><linearGradient id="A" gradientUnits="userSpaceOnUse" x1="7.894" y1="15.499" x2="18.633" y2="1.43"><stop offset="0" stop-color="#ff0"/><stop offset=".8" stop-color="#f0f"/></linearGradient><path d="M10 2V1h6v1h-6zm7 1V2h-1v1h1zm3 1V3h-3v1h3zm2 1V4h-2v1h2zm0 2h1V5h-1v2zm-2 4v1h2v-1h-2zM6 12v1h14v-1H6zm16-2v1h2v-1h-2zm2-2V7h-1v1h1zm0 0v2h1V8h-1zM10 2H9v1h1V2zM8 4h1V3H6v1h2zM6 5V4H4v1h2zm-2 6v1h2v-1H4zm-2-1v1h2v-1H2zm2-5H3v2h1V5zM2 8H1v2h1V8zm1-1H2v1h1V7z" fill="url(#A)"/></svg></g></svg>