<svg xmlns="http://www.w3.org/2000/svg" viewBox="0 0 64 64"><g class="gotchi-bg"><defs fill="#fff"><pattern id="a" patternUnits="userSpaceOnUse" width="4" height="4"><path d="M0 0h1v1H0zm2 2h1v1H2z"/></pattern><pattern id="b" patternUnits="userSpaceOnUse" x="0" y="0" width="2" height="2"><path d="M0 0h1v1H0z"/></pattern><pattern id="c" patternUnits="userSpaceOnUse" x="-2" y="0" width="8" height="1"><path d="M0 0h1v1H0zm2 0h1v1H2zm2 0h1v1H4z"/></pattern><pattern id="d" patternUnits="userSpaceOnUse" x="0" y="0" width="4" height="4"><path d="M0 0h1v1H0zm0 2h1v1H0zm1 0V1h1v1zm1 0h1v1H2zm0-1h1V0H2zm1 2h1v1H3z"/></pattern><pattern id="e" patternUnits="userSpaceOnUse" width="64" height="32"><path d="M4 4h1v1H4zm7 0h1v1h-1zm7 0h1v1h-1zm7 0h1v1h-1zm7 0h1v1h-1zm7 0h1v1h-1zm7 0h1v1h-1zm7 0h1v1h-1zm7 0h1v1h-1z"/><path fill="url(#a)" d="M0 8h64v7H0z"/><path fill="url(#b)" d="M0 16h64v1H0z"/><path fill="url(#c)" d="M0 18h64v1H0z"/><path fill="url(#b)" d="M22 18h15v1H22zM0 20h64v3H0z"/><path fill="url(#d)" d="M0 24h64v8H0z"/></pattern><mask id="f"><path fill="url(#e)" d="M0 0h64v32H0z"/></mask></defs><path fill="#fff" d="M0 0h64v32H0z"/><path fill="#dea8ff" class="gotchi-secondary" mask="url(#f)" d="M0 0h64v32H0z"/><path fill="#dea8ff" class="gotchi-secondary" d="M0 32h64v32H0z"/><path mask="url(#f)" fill="#fff" transform="matrix(1 0 0 -1 0 64)" d="M0 0h64v32H0z"/></g><style>.gotchi-primary{fill:#FF5E00;}.gotchi-secondary{fill:#FFCAA2;}.gotchi-cheek{fill:#F696C6;}.gotchi-eyeColor{fill:#0064FF;}.gotchi-primary-mouth{fill:#FF5E00;}.gotchi-sleeves-up{display:none;}.gotchi-handsUp{display:none;}.gotchi-handsDownOpen{display:block;}.gotchi-handsDownClosed{display:none;}</style><g class="gotchi-body"><path d="M47 14v-2h-2v-2h-4V8h-4V6H27v2h-4v2h-4v2h-2v2h-2v41h4v-2h5v2h5v-2h6v2h5v-2h5v2h4V14z" class="gotchi-primary"/><path d="M45 14v-2h-4v-2h-4V8H27v2h-4v2h-4v2h-2v39h2v-2h5v2h5v-2h6v2h5v-2h5v2h2V14z" class="gotchi-secondary"/><path d="M18,49h2v-1h2v1h2v2h5v-2h2v-1h2v1h2v2h5v-2h2v-1h2v1h1V14h-4v-2h-4v-2h-5V9h-5v2h-4v2h-4v2h-1V49z" fill="#fff"/></g><path class="gotchi-cheek" d="M21 32v2h2v-2h-1zm21 0h-1v2h2v-2z"/><g class="gotchi-primary-mouth"><path d="M29 32h-2v2h2v-1z"/><path d="M33 34h-4v2h6v-2h-1z"/><path d="M36 32h-1v2h2v-2z"/></g>
    <style>
        .gotchi-bg { display: none }
    </style>
<g class="gotchi-shadow"><path opacity=".25" d="M25 58H19v1h1v1h24V59h1V58h-1z" fill="#000"/></g><g class="gotchi-collateral"><path d="M30 11v1h4v-1h-4z"/><path d="M29 12h1v1h-1zm7.5 2.5v4h1v-4h-1zm-10 4h1v-4h-1v4z"/><path d="M27.5 13.5h1v1h-1zm8 5h1v1h-1zm0-5h1v1h-1zM34 12h1v1h-1zm-5 8h1v1h-1zm-1.5-1.5h1v1h-1zM34 20h1v1h-1z"/><path d="M30 21v1h4v-1h-4z"/><g fill="#ff5e00"><path d="M32.5 16h-1v-1h2v-1h-1v-1h-1v1h-2v1h1v3h-1v1h2v1h1v-1h1v-1h-2v-1h2v-1h-1z"/><path d="M33.5 17h1v1h-1zm0-2h1v1h-1z"/></g></g><g class="gotchi-eyeColor"><path d="M24 25v-1h2v-1h-1v-1h-1v1h-2v1h1v3h-1v1h2v1h1v-1h1v-1h-2v-1h2v-1h-2z"/><path d="M26 26h1v1h-1zm0-2h1v1h-1zm13 1v-1h2v-1h-1v-1h-1v1h-2v1h1v3h-1v1h2v1h1v-1h1v-1h-2v-1h2v-1h-2z"/><path d="M41 26h1v1h-1zm0-2h1v1h-1z"/></g><g class="gotchi-wearable wearable-body"><svg x="12" y="32"><path d="M3 1v20h34V1h-3v1h-1v1h-1v1h-1v1h-1v1h-1v1h-2v1h-3v1h-8V8h-3V7h-2V6h-1V5H9V4H8V3H7V2H6V1H3z" fill="#58595b"/><path d="M34 2v1h-1v1h-1v1h-1v1h-1v1h-1v1h-2v1h-3v1h-8V9h-3V8h-2V7h-1V6H9V5H8V4H7V3H6V2H4v18h32V2h-2z"/><path d="M23 13v-1h-1v-1h-4v1h-1v1h-1v4h1v1h1v1h4v-1h1v-1h1v-4h-1zm-2 2h-1v-1h1v1z" fill="#8bc53f"/><path d="M22 13v-1h-4v1h-1v3h1v-2h1v-1h2v1h1v2h-1v2h1v-1h1v-4h-1z" fill="#f9e988"/><g fill="#fff"><path d="M22 13h1v1h-1z"/><path d="M21 12h1v1h-1zm-2 2h1v1h-1z"/></g></svg></g><g class="gotchi-handsDownClosed"><g class="gotchi-primary"><path d="M19 42h1v1h-1zm1-6h1v1h-1z"/><path d="M21 37h1v1h-1zm5 3v4h1v-4zm-5 3h-1v1h2v-1z"/><path d="M24 44h-2v1h4v-1h-1zm1-5h-1v1h2v-1z"/><path d="M23 38h-1v1h2v-1z"/></g><g class="gotchi-secondary"><path d="M19 43h1v1h-1zm5 2h-2v1h4v-1h-1z"/><path d="M27 41v3h1v-3zm-6 3h-1v1h2v-1z"/><path d="M26 44h1v1h-1zm-7-3h-1v2h1v-1z"/></g><g class="gotchi-primary"><path d="M44 42h1v1h-1zm-1-6h1v1h-1z"/><path d="M42 37h1v1h-1z"/><path d="M42 39v-1h-2v1h1zm0 4v1h2v-1h-1z"/><path d="M40 44h-2v1h4v-1h-1z"/><path d="M38 42v-2h-1v4h1v-1z"/><path d="M40 40v-1h-2v1h1z"/></g><g class="gotchi-secondary"><path d="M42 44v1h2v-1h-1zm-5-2v-1h-1v3h1v-1z"/><path d="M40 45h-2v1h4v-1h-1z"/><path d="M37 44h1v1h-1zm7-1h1v1h-1z"/></g></g><g class="gotchi-handsDownOpen"><g class="gotchi-primary"><path d="M56 38v-1h-2v-1h-2v-1h-1v-1h-1v-1h-1v8h1v1h2v1h4v-1h1v-4z"/></g><g class="gotchi-secondary"><path d="M54 38v-1h-2v-1h-1v-1h-1v-1h-1v6h1v1h2v1h4v-4z" /></g><path d="M54,38v-1h-2v-1h-1v-1h-1v-1h-1v5h1v1h2v1h4v-3H54z" fill="#fff"/><g class="gotchi-primary"><path d="M8 38v-1h2v-1h2v-1h1v-1h1v-1h1v8h-1v1h-2v1H8v-1H7v-4z"/></g><g class="gotchi-secondary"><path d="M10 38v-1h2v-1h1v-1h1v-1h1v6h-1v1h-2v1H8v-4z" /></g><path d="M8,38v3h4v-1h2v-1h1v-5h-1v1h-1v1h-1v1h-2v1H8z" fill="#fff"/></g><g class="gotchi-handsUp"><g class="gotchi-secondary"><path d="M50,38h1v1h-1V38z"/><path d="M49 39h1v1h-1v-1zm2-2h1v1h-1v-1z"/><path d="M52,36h2v1h-2V36z"/><path d="M54,35h2v1h-2V35z"/></g><path d="M52,32v1h-2v1h-1v5h1v-1h1v-1h1v-1h2v-1h2v-3H52z" fill="#fff"/><g class="gotchi-primary"><path d="M49,33h1v1h-1V33z"/><path d="M50 32h2v1h-2v-1zm0 7h1v1h-1v-1z"/><path d="M49 40h1v1h-1v-1zm2-2h1v1h-1v-1z"/><path d="M52 37h2v1h-2v-1zm0-6h4v1h-4v-1z"/><path d="M56,32h1v4h-1V32z"/><path d="M54,36h2v1h-2V36z"/></g><g class="gotchi-secondary"><path d="M13,38h1v1h-1V38z"/><path d="M14 39h1v1h-1v-1zm-2-2h1v1h-1v-1z"/><path d="M10,36h2v1h-2V36z"/><path d="M8,35h2v1H8V35z"/></g><path d="M8,32v3h2v1h2v1h1v1h1v1h1v-5h-1v-1h-2v-1H8z" fill="#fff"/><g class="gotchi-primary"><path d="M14,33h1v1h-1V33z"/><path d="M12 32h2v1h-2v-1zm1 7h1v1h-1v-1z"/><path d="M14 40h1v1h-1v-1zm-2-2h1v1h-1v-1z"/><path d="M10 37h2v1h-2v-1zm-2-6h4v1H8v-1z"/><path d="M7,32h1v4H7V32z"/><path d="M8,36h2v1H8V36z"/></g></g><g class="gotchi-wearable wearable-face"><svg x="9" y="18"><path d="M5 2H4V0H0v6h2v4h2v2h2V2z" fill="#64438e"/><path d="M5 4H4V2H2v4h2v4h2V4z" fill="#b464ed"/><g fill="#edd3fd"><path d="M4 4H2v2h2V5z"/><path d="M5 6H4v4h2V6z"/></g><path d="M41 2h1V0h4v6h-2v4h-2v2h-2V2z" fill="#64438e"/><path d="M41 4h1V2h2v4h-2v4h-2V4z" fill="#b464ed"/><g fill="#edd3fd"><path d="M42 4h2v2h-2V5z"/><path d="M41 6h1v4h-2V6z"/></g></svg></g><g class="gotchi-wearable wearable-eyes"><svg x="15" y="19"><path d="M33 4v1h-1v1h-3V5h-1V3h-1V2h-1V1h-1V0h-2v1h-1v1h-1v1h-1v2h-1v1h-4V5h-1V3h-1V2h-1V1h-1V0H9v1H8v1H7v1H6v2H5v1H2V5H1V4H0v2h1v1h1v1h3v1h1v1h1v1h1v1h1v1h2v-1h1v-1h1v-1h1V9h1V8h4v1h1v1h1v1h1v1h1v1h2v-1h1v-1h1v-1h1V9h1V8h3V7h1V6h1V4z"/><g fill="#323232"><path d="M5,7v2h1v1h1v1h1v1h1v1h1V7H5z"/><path d="M14 3h-1V2h-1V1h-1V0h-1v7h5V5h-1V3zm5 4v2h1v1h1v1h1v1h1v1h1V7h-5z"/><path d="M28,5V3h-1V2h-1V1h-1V0h-1v7h5V5H28z"/></g><path d="M10 7v6h1v-1h1v-1h1v-1h1V9h1V8h4V7h-9zm23-2h1v1h-1V5zm-9 2v6h1v-1h1v-1h1v-1h1V9h1V8h3V7h-8z"/><path d="M32 6h1v1h-1V6zM0 5h1v1H0V5zm2 2h3v1H2V7z"/><path d="M1,6h1v1H1V6z"/><g fill="#646464"><path d="M9 1H8v1H7v1H6v2H5v1H2v1h8V0H9v1zm14 0h-1v1h-1v1h-1v2h-1v1h-4v1h9V0h-1v1zm9 4h1v1h-1V5z"/><path d="M33 4h1v1h-1V4zm-4 2h3v1h-3V6zM1 5h1v1H1V5z"/><path d="M0,4h1v1H0V4z"/></g></svg></g><g class="gotchi-wearable wearable-head"><svg x="26" y="4"><path d="M11 1V0H9v1H7V0H5v1H3V0H1v1H0v1h1v2h1v1h1v1h6V5h1V4h1V2h1V1z"/><path d="M10 1H9v1H7V1H5v1H3V1H1v1h1v2h2v2h4V4h2V2h1V1z" fill="#ffc03c"/><path d="M1 1v1h2V1H2zm4 0v1h2V1H6zm5 0H9v1h2V1z" fill="#ffe600"/><path d="M7 4H4v2h4V4z" fill="#ff9600"/></svg></g>"><svg x="12" y="32"><g><g class="gotchi-sleeves gotchi-sleeves-left gotchi-sleeves-up"><path d="M3.5,1H2V0H0v7h1v1h1v1h1.5V1z" fill="#58595b"/><path d="M2,7v1h1V2H2V1H1v6H2z"/></g><g class="gotchi-sleeves gotchi-sleeves-left gotchi-sleeves-down"><path d="M3.5,1H2v1H1v1H0v7h2V9h1.5V1z" fill="#58595b"/><path d="M1,3v6h1V8h1V2H2v1H1z"/></g><g class="gotchi-sleeves gotchi-sleeves-right gotchi-sleeves-up"><path d="M36.5,9H38V8h1V7h1V0h-2v1h-1.5V9z" fill="#58595b"/><path d="M39 7V1h-1v1h-1v6h1V7h1z"/></g><g class="gotchi-sleeves gotchi-sleeves-right gotchi-sleeves-down"><path d="M36.5,9H38v1h2V3h-1V2h-1V1h-1.5V9z" fill="#58595b"/><path d="M38,3V2h-1v6h1v1h1V3H38z"/></g></g></svg><g class="gotchi-wearable wearable-hand wearable-hand-left"><svg x="3" y="30"><g fill="#007300"><path d="M4 1v3H0v10h7V4H5V1z"/><path d="M5 0h3v1H5z"/></g><path d="M1,5v8h5V5H1z" fill="#00ff50"/><path d="M2,7v3h3V7H2z" fill="red"/></svg></g><g class="gotchi-wearable wearable-hand wearable-hand-right"><svg x="3" y="30"><g transform="scale(-1, 1) translate(-58, 0)"><g fill="#007300"><path d="M4 1v3H0v10h7V4H5V1z"/><path d="M5 0h3v1H5z"/></g><path d="M1,5v8h5V5H1z" fill="#00ff50"/><path d="M2,7v3h3V7H2z" fill="red"/></g></svg></g><g class="gotchi-wearable wearable-pet"><svg x="42" y="43"><path d="M19 2V1h-1V0h-5v1h-1v1H8V1H7V0H2v1H1v1H0v2h1v1h1v1H1v3h1v1h1v1H2v1H1v2h1v1H1v2h4v1h3v-1h1v-1h2v1h1v1h3v-1h4v-2h-1v-1h1v-2h-1v-1h-1v-1h1V9h1V6h-1V5h1V4h1V2h-1z"/><path d="M18 3h-1v1h-3V3h-2v1h1v1h5V4h1V3h-1zM6 3v1H3V3H1v1h1v1h5V4h1V3H6z" fill="#fff"/><g fill="#33bacc"><path d="M17 1h-4v1h5V1h-1zm-7 4h2V4h-1V3H9v1H8v1h2zM4 2h3V1H2v1h2zm5 11v2h2v-2H9z"/><path d="M16 12v-2H4v2H2v2h2v1H2v1h3v-3h1v3H5v1h3v-4h1v-1h2v1h1v4h3v-1h-1v-3h1v3h3v-1h-2v-1h2v-2h-2z"/></g><path d="M17 6H2v3h16V6h-1zm0 2H3V7h14v1z" fill="#ef1e26"/></svg></g></svg>