<svg xmlns="http://www.w3.org/2000/svg" viewBox="0 0 64 64"><g class="gotchi-bg"><defs fill="#fff"><pattern id="a" patternUnits="userSpaceOnUse" width="4" height="4"><path d="M0 0h1v1H0zm2 2h1v1H2z"/></pattern><pattern id="b" patternUnits="userSpaceOnUse" x="0" y="0" width="2" height="2"><path d="M0 0h1v1H0z"/></pattern><pattern id="c" patternUnits="userSpaceOnUse" x="-2" y="0" width="8" height="1"><path d="M0 0h1v1H0zm2 0h1v1H2zm2 0h1v1H4z"/></pattern><pattern id="d" patternUnits="userSpaceOnUse" x="0" y="0" width="4" height="4"><path d="M0 0h1v1H0zm0 2h1v1H0zm1 0V1h1v1zm1 0h1v1H2zm0-1h1V0H2zm1 2h1v1H3z"/></pattern><pattern id="e" patternUnits="userSpaceOnUse" width="64" height="32"><path d="M4 4h1v1H4zm7 0h1v1h-1zm7 0h1v1h-1zm7 0h1v1h-1zm7 0h1v1h-1zm7 0h1v1h-1zm7 0h1v1h-1zm7 0h1v1h-1zm7 0h1v1h-1z"/><path fill="url(#a)" d="M0 8h64v7H0z"/><path fill="url(#b)" d="M0 16h64v1H0z"/><path fill="url(#c)" d="M0 18h64v1H0z"/><path fill="url(#b)" d="M22 18h15v1H22zM0 20h64v3H0z"/><path fill="url(#d)" d="M0 24h64v8H0z"/></pattern><mask id="f"><path fill="url(#e)" d="M0 0h64v32H0z"/></mask></defs><path fill="#fff" d="M0 0h64v32H0z"/><path fill="#dea8ff" class="gotchi-secondary" mask="url(#f)" d="M0 0h64v32H0z"/><path fill="#dea8ff" class="gotchi-secondary" d="M0 32h64v32H0z"/><path mask="url(#f)" fill="#fff" transform="matrix(1 0 0 -1 0 64)" d="M0 0h64v32H0z"/></g><style>.gotchi-primary{fill:#2664BA;}.gotchi-secondary{fill:#D4E0F1;}.gotchi-cheek{fill:#F696C6;}.gotchi-eyeColor{fill:#5D24BF;}.gotchi-primary-mouth{fill:#2664BA;}.gotchi-sleeves-up{display:none;}.gotchi-handsUp{display:none;}.gotchi-handsDownOpen{display:block;}.gotchi-handsDownClosed{display:none;}</style><g class="gotchi-body"><path d="M47 14v-2h-2v-2h-4V8h-4V6H27v2h-4v2h-4v2h-2v2h-2v41h4v-2h5v2h5v-2h6v2h5v-2h5v2h4V14z" class="gotchi-primary"/><path d="M45 14v-2h-4v-2h-4V8H27v2h-4v2h-4v2h-2v39h2v-2h5v2h5v-2h6v2h5v-2h5v2h2V14z" class="gotchi-secondary"/><path d="M18,49h2v-1h2v1h2v2h5v-2h2v-1h2v1h2v2h5v-2h2v-1h2v1h1V14h-4v-2h-4v-2h-5V9h-5v2h-4v2h-4v2h-1V49z" fill="#fff"/></g><path class="gotchi-cheek" d="M21 32v2h2v-2h-1zm21 0h-1v2h2v-2z"/><g class="gotchi-primary-mouth"><path d="M29 32h-2v2h2v-1z"/><path d="M33 34h-4v2h6v-2h-1z"/><path d="M36 32h-1v2h2v-2z"/></g>
    <style>
        .gotchi-bg { display: none }
    </style>
<g class="gotchi-shadow"><path opacity=".25" d="M25 58H19v1h1v1h24V59h1V58h-1z" fill="#000"/></g><g class="gotchi-collateral" fill="#2664ba"><path d="M30 15v2h3v1h-3v1h1.5v1h1v-1H34v-3h-3v-1h3v-1h-1.5v-1h-1v1H30zm4 5h1v1h-1z"/><path d="M35 19h1v1h-1z"/><path d="M36 16v3h1v-5h-1v1zm-2-4h1v1h-1z"/><path d="M35 13h1v1h-1zm-7 5v-4h-1v5h1zm1 2h1v1h-1z"/><path d="M28 19h1v1h-1zm1-7h1v1h-1z"/><path d="M28 13h1v1h-1z"/></g><g class="gotchi-eyeColor"><g><path d="M23 25h-1v1h1v-1z" /><path d="M23 24h-1v1h1v-1zm4 2h-1v1h1v-1zm-3 0h-1v1h1v-1z" /><path d="M25 26h-1v1h1v-1zm2-1h-1v1h1v-1zm-3-1h-1v1h1v-1zm3-1h-1v1h1v-1z" /><path d="M28 24h-1v1h1v-1zm-3-1h-1v1h1v-1z" /><path d="M27 24h-1v1h1v-1z" /></g><path d="M27 28h-1v1h1v-1zm0-7h-1v1h1v-1zm-3 0h-1v1h1v-1z" class="gotchi-primary" /><path d="M26 26h-1v1h1v-1zm2-1h-1v1h1v-1zm-4 0h-1v1h1v-1zm0-2h-1v1h1v-1zm2 0h-1v1h1v-1z" /><path d="M24 28h-1v1h1v-1z" class="gotchi-primary" /><g><path d="M42 25h-1v1h1v-1z" /><path d="M42 24h-1v1h1v-1zm-5 1h-1v1h1v-1z" /><path d="M39 26h-1v1h1v-1zm2-1h-1v1h1v-1z" /><path d="M38 26h-1v1h1v-1zm-1-2h-1v1h1v-1z" /><path d="M38 24h-1v1h1v-1zm3-1h-1v1h1v-1z" /></g><path d="M38 28h-1v1h1v-1zm3 0h-1v1h1v-1z" class="gotchi-primary" /><path d="M38 23h1v1h-1" /><path d="M38 21h-1v1h1v-1zm3 0h-1v1h1v-1z" class="gotchi-primary" /><g><path d="M38 25h-1v1h1v-1zm3 1h-1v1h1v-1z" /><path d="M40 26h-1v1h1v-1zm-2-3h-1v1h1v-1zm3 1h-1v1h1v-1z" /><path d="M40 23h-1v1h1v-1z" /></g></g><g class="gotchi-wearable wearable-body"><svg x="15" y="40"><path d="M0 0v15h4v-2h5v2h5v-2h6v2h5v-2h5v2h4V0z" fill="#ff64ff"/><path d="M10 1h2v1h-2V1zm3 0h2v1h-2V1zm6 0h2v1h-2V1zm3 0h2v1h-2V1zM4 1h2v1H4V1zm3 0h2v1H7V1zM1 1h2v1H1V1zm27 0h2v1h-2V1zm-3 0h2v1h-2V1zm6 0h2v1h-2V1zM16 1h2v1h-2V1zm-3 12h1v-2h1V3h-2v10zM10 3h2v10h-2V3zM7 3h2v8H7V3zM1 3h2v10H1V3zm27 0h2v8h-2V3zm-3 0h2v8h-2V3zm-3 0h2v10h-2V3zm-3 8h1v2h1V3h-2v8zm12-8h2v10h-2V3zM4 3h2v8H4V3zm12 0h2v8h-2V3z" fill="#ffb9ff"/></svg></g><g class="gotchi-handsDownClosed"><g class="gotchi-primary"><path d="M19 42h1v1h-1zm1-6h1v1h-1z"/><path d="M21 37h1v1h-1zm5 3v4h1v-4zm-5 3h-1v1h2v-1z"/><path d="M24 44h-2v1h4v-1h-1zm1-5h-1v1h2v-1z"/><path d="M23 38h-1v1h2v-1z"/></g><g class="gotchi-secondary"><path d="M19 43h1v1h-1zm5 2h-2v1h4v-1h-1z"/><path d="M27 41v3h1v-3zm-6 3h-1v1h2v-1z"/><path d="M26 44h1v1h-1zm-7-3h-1v2h1v-1z"/></g><g class="gotchi-primary"><path d="M44 42h1v1h-1zm-1-6h1v1h-1z"/><path d="M42 37h1v1h-1z"/><path d="M42 39v-1h-2v1h1zm0 4v1h2v-1h-1z"/><path d="M40 44h-2v1h4v-1h-1z"/><path d="M38 42v-2h-1v4h1v-1z"/><path d="M40 40v-1h-2v1h1z"/></g><g class="gotchi-secondary"><path d="M42 44v1h2v-1h-1zm-5-2v-1h-1v3h1v-1z"/><path d="M40 45h-2v1h4v-1h-1z"/><path d="M37 44h1v1h-1zm7-1h1v1h-1z"/></g></g><g class="gotchi-handsDownOpen"><g class="gotchi-primary"><path d="M56 38v-1h-2v-1h-2v-1h-1v-1h-1v-1h-1v8h1v1h2v1h4v-1h1v-4z"/></g><g class="gotchi-secondary"><path d="M54 38v-1h-2v-1h-1v-1h-1v-1h-1v6h1v1h2v1h4v-4z" /></g><path d="M54,38v-1h-2v-1h-1v-1h-1v-1h-1v5h1v1h2v1h4v-3H54z" fill="#fff"/><g class="gotchi-primary"><path d="M8 38v-1h2v-1h2v-1h1v-1h1v-1h1v8h-1v1h-2v1H8v-1H7v-4z"/></g><g class="gotchi-secondary"><path d="M10 38v-1h2v-1h1v-1h1v-1h1v6h-1v1h-2v1H8v-4z" /></g><path d="M8,38v3h4v-1h2v-1h1v-5h-1v1h-1v1h-1v1h-2v1H8z" fill="#fff"/></g><g class="gotchi-handsUp"><g class="gotchi-secondary"><path d="M50,38h1v1h-1V38z"/><path d="M49 39h1v1h-1v-1zm2-2h1v1h-1v-1z"/><path d="M52,36h2v1h-2V36z"/><path d="M54,35h2v1h-2V35z"/></g><path d="M52,32v1h-2v1h-1v5h1v-1h1v-1h1v-1h2v-1h2v-3H52z" fill="#fff"/><g class="gotchi-primary"><path d="M49,33h1v1h-1V33z"/><path d="M50 32h2v1h-2v-1zm0 7h1v1h-1v-1z"/><path d="M49 40h1v1h-1v-1zm2-2h1v1h-1v-1z"/><path d="M52 37h2v1h-2v-1zm0-6h4v1h-4v-1z"/><path d="M56,32h1v4h-1V32z"/><path d="M54,36h2v1h-2V36z"/></g><g class="gotchi-secondary"><path d="M13,38h1v1h-1V38z"/><path d="M14 39h1v1h-1v-1zm-2-2h1v1h-1v-1z"/><path d="M10,36h2v1h-2V36z"/><path d="M8,35h2v1H8V35z"/></g><path d="M8,32v3h2v1h2v1h1v1h1v1h1v-5h-1v-1h-2v-1H8z" fill="#fff"/><g class="gotchi-primary"><path d="M14,33h1v1h-1V33z"/><path d="M12 32h2v1h-2v-1zm1 7h1v1h-1v-1z"/><path d="M14 40h1v1h-1v-1zm-2-2h1v1h-1v-1z"/><path d="M10 37h2v1h-2v-1zm-2-6h4v1H8v-1z"/><path d="M7,32h1v4H7V32z"/><path d="M8,36h2v1H8V36z"/></g></g><g class="gotchi-wearable wearable-head"><svg x="15" y="6"><path d="M33 8h-1V6h-2V4h-4V2h-4V0H12v2H8v2H4v2H2v2H0v37h2V19h1v-1h2v-1h2v-1h2v-1h2v-1h1v-1h1v-1h1v1h1v1h2v1h2v1h2v1h2v1h2v1h2v1h2v1h2v1h1v23h2V8z" fill="#9300d7"/><g fill="#ac27ff"><path d="M12 10h-1V8h-1V7H9V5H8v1H4v2H2v10h1v-1h2v-1h2v-1h2v-1h3v-2h1v-1h-1z"/><path d="M31 8h-1V6h-4V4h-4V2H12v2H9v1h1v2h1v1h1v2h1v1h1v1h1v1h2v1h2v1h2v1h2v1h2v1h2v1h2v1h2v1h1V8z"/></g><g fill="#c260ff"><path d="M11 5h-1v2h1V6zM8 5h1v1H8z"/><path d="M11 4h1v1h-1zM9 4h1v1H9zm5 0V3h-1v2h1zm1 1h1V3h-1v1zm3 0h1v1h-1z"/><path d="M17 5h1V3h-1v1zm2 0h2V4h-1V3h-1v1z"/><path d="M22 6h1V5h-2v1zm3-1h1v1h-1z"/><path d="M25 5V4h-2v1h1zm-4-2h1v1h-1zm-8 4h1v1h-1zm-2 0h1v1h-1z"/><path d="M12 7h1V5h-1v1zM8 8h1V7H7v1z"/><path d="M7 7V6H5v1h1z"/><path d="M4 7h1v1H4zm11 0h1v1h-1z"/><path d="M15 6V5h-1v2h1zm3 2h1V7h-2v1z"/><path d="M16 7h1V5h-1v1zm4 0h1V6h-2v1z"/><path d="M21 7v1h2V7h-1z"/><path d="M23 6v1h2V6h-1z"/><path d="M26 8h1V7h-2v1zm3-1h1v1h-1z"/><path d="M29 7V6h-2v1h1zM13 8h-1v2h1V9zM9 8h1v1H9z"/><path d="M7 9v1h2V9H8z"/><path d="M7 9V8H5v1h1z"/><path d="M5 10V9H3v1h1zm10-2h-1v2h1V9zm1 0h1v1h-1z"/><path d="M18 9h-1v1h2V9z"/><path d="M19 8v1h2V8h-1z"/><path d="M22 10h1V9h-2v1z"/><path d="M24 9h1V8h-2v1z"/><path d="M25 9v1h2V9h-1z"/><path d="M27 8v1h2V8h-1zm-16 3h1v1h-1z"/><path d="M10 11h1v-1H9v1z"/><path d="M7 11v1h2v-1H8z"/><path d="M7 11v-1H5v1h1z"/><path d="M5 12v-1H3v1h1zm8-2h1v1h-1zm3 0h-1v1h2v-1z"/><path d="M14 11h1v1h-1zm4 0h-1v1h2v-1z"/><path d="M20 10h-1v1h2v-1z"/><path d="M22 11h-1v1h2v-1z"/><path d="M23 10v1h2v-1h-1z"/><path d="M25 11v1h2v-1h-1z"/><path d="M27 10v1h2v-1h-1z"/><path d="M29 11v1h2v-1h-1zm1-2h-1v1h2V9z"/><path d="M31 8h1v1h-1zm0 2h1v1h-1zM2 8h1v1H2zm0 2h1v1H2zm29 2h1v1h-1zm0 2h1v1h-1z"/><path d="M29 13v1h2v-1h-1z"/><path d="M27 12v1h2v-1h-1z"/><path d="M25 13v1h2v-1h-1z"/><path d="M24 12h-1v1h2v-1z"/><path d="M22 13h-1v1h2v-1zm7 2v1h2v-1h-1z"/><path d="M26 15h-1v1h2v-1zm5 1h1v1h-1zm0 2h1v1h-1zm0 2h1v1h-1z"/><path d="M29 19v1h2v-1h-1zm0-2v1h2v-1h-1z"/><path d="M27 16v1h2v-1h-1zm0-2v1h2v-1h-1zm-3 0h-1v1h2v-1zm-4-2h-1v1h2v-1zm8 6h-1v1h2v-1z"/><path d="M26 17h-1v1h2v-1z"/><path d="M24 16h-1v1h2v-1z"/><path d="M22 15h-1v1h2v-1z"/><path d="M20 14h-1v1h2v-1z"/><path d="M18 13h-1v1h2v-1z"/><path d="M16 12h-1v1h2v-1zm-5 1h1v1h-1z"/><path d="M9 12v1h2v-1h-1z"/><path d="M7 13v1h2v-1H8zm-2 1v-1H3v1h1z"/><path d="M5 12v1h2v-1H6zm0 2v1h2v-1H6zm-3 0h1v1H2z"/><path d="M3 15v1h2v-1H4z"/><path d="M2 16h1v1H2zm0-4h1v1H2zM12 2h1v1h-1zm2 0h1v1h-1zm2 0h1v1h-1zm2 0h1v1h-1zm2 0h1v1h-1z"/></g></svg></g><g class="gotchi-wearable wearable-hand wearable-hand-left"><svg x="0" y="24"><path d="M16 1V0H1v1H0v7h1v1h7v14h1V9h7V8h1V1z" fill="#7d7d7d"/><path d="M15 1H1v7h15V1z"/><g fill="#f90"><path d="M6.3 2.3h-.9v4.5h2.7V2.3H6.3zm.9 1.8v1.8h-.9V3.2h.9v.9zm6.9-.9h.9v-.9h-2.6v4.4H15v-.9h-1.7v-.9H15v-.8h-1.7v-.9zm-4.3-.9h-.9v.9h.9v3.5h.9V3.2h.8v-.9h-.8zm-6.1.9v2.6h.9V2.3h-.9z"/><path d="M2.9 5.8h.9v.9h-.9z"/><path d="M2.9 4.1V2.3H2v3.5h.9v-.9z"/></g></svg></g><g class="gotchi-wearable wearable-hand wearable-hand-right"><svg x="6" y="27"><g transform="scale(-1, 1) translate(-52, 0)"><path d="M7 8V5H6V4H5V2H4V0H3v2H2v2H1v1H0v3h1v2H0v6h1v1h5v-1h1v-6H6V8z" fill="#faa"/><path d="M6,8V5H5V4H2v1H1v3h1v2H1v6h5v-6H5V8H6z" fill="#fff"/><path d="M1 6h3v1H1V6zm1 2h1v1H2V8zm-1 2h3v1H1v-1zm0 2h2v1H1v-1zm0 2h3v1H1v-1z" fill-opacity=".5"/><path d="M3,0h1v2H3V0z" fill="#fc0"/><path d="M2,2h3v1H2V2z" fill="#f0f" fill-opacity=".6"/></g></svg></g></svg>