<svg xmlns="http://www.w3.org/2000/svg" viewBox="0 0 64 64"><g class="gotchi-bg"><defs fill="#fff"><pattern id="a" patternUnits="userSpaceOnUse" width="4" height="4"><path d="M0 0h1v1H0zm2 2h1v1H2z"/></pattern><pattern id="b" patternUnits="userSpaceOnUse" x="0" y="0" width="2" height="2"><path d="M0 0h1v1H0z"/></pattern><pattern id="c" patternUnits="userSpaceOnUse" x="-2" y="0" width="8" height="1"><path d="M0 0h1v1H0zm2 0h1v1H2zm2 0h1v1H4z"/></pattern><pattern id="d" patternUnits="userSpaceOnUse" x="0" y="0" width="4" height="4"><path d="M0 0h1v1H0zm0 2h1v1H0zm1 0V1h1v1zm1 0h1v1H2zm0-1h1V0H2zm1 2h1v1H3z"/></pattern><pattern id="e" patternUnits="userSpaceOnUse" width="64" height="32"><path d="M4 4h1v1H4zm7 0h1v1h-1zm7 0h1v1h-1zm7 0h1v1h-1zm7 0h1v1h-1zm7 0h1v1h-1zm7 0h1v1h-1zm7 0h1v1h-1zm7 0h1v1h-1z"/><path fill="url(#a)" d="M0 8h64v7H0z"/><path fill="url(#b)" d="M0 16h64v1H0z"/><path fill="url(#c)" d="M0 18h64v1H0z"/><path fill="url(#b)" d="M22 18h15v1H22zM0 20h64v3H0z"/><path fill="url(#d)" d="M0 24h64v8H0z"/></pattern><mask id="f"><path fill="url(#e)" d="M0 0h64v32H0z"/></mask></defs><path fill="#fff" d="M0 0h64v32H0z"/><path fill="#dea8ff" class="gotchi-secondary" mask="url(#f)" d="M0 0h64v32H0z"/><path fill="#dea8ff" class="gotchi-secondary" d="M0 32h64v32H0z"/><path mask="url(#f)" fill="#fff" transform="matrix(1 0 0 -1 0 64)" d="M0 0h64v32H0z"/></g><style>.gotchi-primary{fill:#2664BA;}.gotchi-secondary{fill:#D4E0F1;}.gotchi-cheek{fill:#F696C6;}.gotchi-eyeColor{fill:#36818E;}.gotchi-primary-mouth{fill:#2664BA;}.gotchi-sleeves-up{display:none;}.gotchi-handsUp{display:none;}.gotchi-handsDownOpen{display:block;}.gotchi-handsDownClosed{display:none;}</style><g class="gotchi-body"><path d="M47 14v-2h-2v-2h-4V8h-4V6H27v2h-4v2h-4v2h-2v2h-2v41h4v-2h5v2h5v-2h6v2h5v-2h5v2h4V14z" class="gotchi-primary"/><path d="M45 14v-2h-4v-2h-4V8H27v2h-4v2h-4v2h-2v39h2v-2h5v2h5v-2h6v2h5v-2h5v2h2V14z" class="gotchi-secondary"/><path d="M18,49h2v-1h2v1h2v2h5v-2h2v-1h2v1h2v2h5v-2h2v-1h2v1h1V14h-4v-2h-4v-2h-5V9h-5v2h-4v2h-4v2h-1V49z" fill="#fff"/></g><path class="gotchi-cheek" d="M21 32v2h2v-2h-1zm21 0h-1v2h2v-2z"/><g class="gotchi-primary-mouth"><path d="M29 32h-2v2h2v-1z"/><path d="M33 34h-4v2h6v-2h-1z"/><path d="M36 32h-1v2h2v-2z"/></g>
    <style>
        .gotchi-bg { display: none }
    </style>
<g class="gotchi-shadow"><path opacity=".25" d="M25 58H19v1h1v1h24V59h1V58h-1z" fill="#000"/></g><g class="gotchi-collateral" fill="#2664ba"><path d="M30 15v2h3v1h-3v1h1.5v1h1v-1H34v-3h-3v-1h3v-1h-1.5v-1h-1v1H30zm4 5h1v1h-1z"/><path d="M35 19h1v1h-1z"/><path d="M36 16v3h1v-5h-1v1zm-2-4h1v1h-1z"/><path d="M35 13h1v1h-1zm-7 5v-4h-1v5h1zm1 2h1v1h-1z"/><path d="M28 19h1v1h-1zm1-7h1v1h-1z"/><path d="M28 13h1v1h-1z"/></g><g class="gotchi-eyeColor"><path d="M41 25h-3v-1h3v-1h-1.5v-1h-1v1H37v3h3v1h-3v1h1.5v1h1v-1H41zm0 4h1v1h-1z"/><path d="M42 28h1v1h-1z"/><path d="M43 23h1v5h-1zm-2-2h1v1h-1z"/><path d="M42 22h1v1h-1zm-6 7h1v1h-1zm-2-6h1v5h-1z"/><path d="M35 28h1v1h-1zm1-7h1v1h-1z"/><path d="M35 22h1v1h-1zm-8 3h-3v-1h3v-1h-1.5v-1h-1v1H23v3h3v1h-3v1h1.5v1h1v-1H27zm0 4h1v1h-1z"/><path d="M28 28h1v1h-1z"/><path d="M29 23h1v5h-1zm-2-2h1v1h-1z"/><path d="M28 22h1v1h-1zm-6 7h1v1h-1zm-2-6h1v5h-1z"/><path d="M21 28h1v1h-1zm1-7h1v1h-1z"/><path d="M21 22h1v1h-1z"/></g><g class="gotchi-wearable wearable-body"><svg x="12" y="32"><path d="M35 1v1h-2v3h-3v1h-1v1h-6V6h-1v1h-1v1h-2V7h-1V6h-1v1h-5V6h-1V5h-1V4H7V2H5V1H3h-.5v8H3v14h4v-2h5v2h5v-2h6v2h5v-2h5v2h4V9h.5V1H35z" fill="#262743"/><path d="M19 10h1v1h-1v-1zm0 4h1v1h-1v-1zm11-4h3v1h-3v-1zm-20 2h1v1h-1v-1zm9 6h1v1h-1v-1z" fill="#ffe2c1"/><g fill="#e9eef2"><path d="M7 4h1v2H7V4zm0 3h1v1H7V7zm7 8h2v1h-2v-1zm-2 0h1v1h-1v-1zm5 0h1v1h-1v-1zM7 15h1v1H7v-1zm0-3h1v2H7v-2zm25-8h1v2h-1V4zm0 3h1v1h-1V7zm-4-2h-3v1h-2v1h1v1h1v1h1V8h1V7h2V6h1V5h1V4h-3v1zM9 3h1v1H9V3zm23 12h1v1h-1v-1zm-8 0h2v1h-2v-1zm-2 0h1v1h-1v-1zm5 0h1v1h-1v-1zm-3-3h2v2h-2v-2z"/><path d="M22 7h1v1h-1V7zm-7-1V5h-3V4h-2v1h1v1h1v1h1v1h1v1h1V8h1V7h1V6h-2z"/><path d="M17 7h1v1h-1V7zm5 5h1v2h-1v-2zm-5 0h1v2h-1v-2zM4 12h2v2H4v-2zm0 7h2v2H4v-2zM4 4h2v2H4V4zm0 11h2v1H4v-1zm0-8h2v1H4V7zm27-4h1v1h-1V3zm-4 9h1v2h-1v-2zm-15 0h1v2h-1v-2zm2 7h2v2h-2v-2zm-2 0h1v2h-1v-2zm22-4h2v1h-2v-1zm0 4h2v2h-2v-2zm-10 0h2v2h-2v-2zm3 0h1v2h-1v-2zm7-15h2v2h-2V4zm0 8h2v2h-2v-2zm0-5h2v1h-2V7zm-20 5h2v2h-2v-2z"/></g><path d="M18 8h-2v3h-2V9h-1v2h-1V9h1V8h-1V7h-1v12h1v-2h1v4h1v-4h2v4h1v-4h1v2h1V7h-1v1zm-2 4v2h-2v-2h2zm-4 0h1v2h-1v-2zm0 4v-1h1v1h-1zm2 0v-1h2v1h-2zm4 0h-1v-1h1v1zm0-2h-1v-2h1v2zm0-3h-1V9h1v2zm10-3h-1v1h1v2h-1V9h-1v2h-2V8h-2V7h-1v12h1v-2h1v4h1v-4h2v4h1v-4h1v2h1V7h-1v1zm-2 4v2h-2v-2h2zm-4-3h1v2h-1V9zm0 3h1v2h-1v-2zm0 4v-1h1v1h-1zm2 0v-1h2v1h-2zm4 0h-1v-1h1v1zm0-2h-1v-2h1v2zM3 9h3v2H4v1h2v2H4v1h2v1H4v1h2v4h1v-4h1v2h1V3H7V2H6v1H4V1H3v8zm3-5v2H4V4h2zM4 8V7h2v1H4zm4 8H7v-1h1v1zm0-2H7v-2h1v2zm0-3H7V9h1v2zm0-3H7V7h1v1zm0-2H7V4h1v2zm29-5h-1v2h-2V2h-1v1h-1v1h1v2h-1V4h-1v6h1V9h1v5h-1v-3h-1v8h1v-2h1v4h1v-4h2v-1h-2v-1h2v-1h-2v-2h2v-1h-2V9h3V1zm-4 15h-1v-1h1v1zm1-12h2v2h-2V4zm-2 4V7h1v1h-1zm4 0h-2V7h2v1z" fill="#2c629e"/></svg></g><g class="gotchi-handsDownClosed"><g class="gotchi-primary"><path d="M19 42h1v1h-1zm1-6h1v1h-1z"/><path d="M21 37h1v1h-1zm5 3v4h1v-4zm-5 3h-1v1h2v-1z"/><path d="M24 44h-2v1h4v-1h-1zm1-5h-1v1h2v-1z"/><path d="M23 38h-1v1h2v-1z"/></g><g class="gotchi-secondary"><path d="M19 43h1v1h-1zm5 2h-2v1h4v-1h-1z"/><path d="M27 41v3h1v-3zm-6 3h-1v1h2v-1z"/><path d="M26 44h1v1h-1zm-7-3h-1v2h1v-1z"/></g><g class="gotchi-primary"><path d="M44 42h1v1h-1zm-1-6h1v1h-1z"/><path d="M42 37h1v1h-1z"/><path d="M42 39v-1h-2v1h1zm0 4v1h2v-1h-1z"/><path d="M40 44h-2v1h4v-1h-1z"/><path d="M38 42v-2h-1v4h1v-1z"/><path d="M40 40v-1h-2v1h1z"/></g><g class="gotchi-secondary"><path d="M42 44v1h2v-1h-1zm-5-2v-1h-1v3h1v-1z"/><path d="M40 45h-2v1h4v-1h-1z"/><path d="M37 44h1v1h-1zm7-1h1v1h-1z"/></g></g><g class="gotchi-handsDownOpen"><g class="gotchi-primary"><path d="M56 38v-1h-2v-1h-2v-1h-1v-1h-1v-1h-1v8h1v1h2v1h4v-1h1v-4z"/></g><g class="gotchi-secondary"><path d="M54 38v-1h-2v-1h-1v-1h-1v-1h-1v6h1v1h2v1h4v-4z" /></g><path d="M54,38v-1h-2v-1h-1v-1h-1v-1h-1v5h1v1h2v1h4v-3H54z" fill="#fff"/><g class="gotchi-primary"><path d="M8 38v-1h2v-1h2v-1h1v-1h1v-1h1v8h-1v1h-2v1H8v-1H7v-4z"/></g><g class="gotchi-secondary"><path d="M10 38v-1h2v-1h1v-1h1v-1h1v6h-1v1h-2v1H8v-4z" /></g><path d="M8,38v3h4v-1h2v-1h1v-5h-1v1h-1v1h-1v1h-2v1H8z" fill="#fff"/></g><g class="gotchi-handsUp"><g class="gotchi-secondary"><path d="M50,38h1v1h-1V38z"/><path d="M49 39h1v1h-1v-1zm2-2h1v1h-1v-1z"/><path d="M52,36h2v1h-2V36z"/><path d="M54,35h2v1h-2V35z"/></g><path d="M52,32v1h-2v1h-1v5h1v-1h1v-1h1v-1h2v-1h2v-3H52z" fill="#fff"/><g class="gotchi-primary"><path d="M49,33h1v1h-1V33z"/><path d="M50 32h2v1h-2v-1zm0 7h1v1h-1v-1z"/><path d="M49 40h1v1h-1v-1zm2-2h1v1h-1v-1z"/><path d="M52 37h2v1h-2v-1zm0-6h4v1h-4v-1z"/><path d="M56,32h1v4h-1V32z"/><path d="M54,36h2v1h-2V36z"/></g><g class="gotchi-secondary"><path d="M13,38h1v1h-1V38z"/><path d="M14 39h1v1h-1v-1zm-2-2h1v1h-1v-1z"/><path d="M10,36h2v1h-2V36z"/><path d="M8,35h2v1H8V35z"/></g><path d="M8,32v3h2v1h2v1h1v1h1v1h1v-5h-1v-1h-2v-1H8z" fill="#fff"/><g class="gotchi-primary"><path d="M14,33h1v1h-1V33z"/><path d="M12 32h2v1h-2v-1zm1 7h1v1h-1v-1z"/><path d="M14 40h1v1h-1v-1zm-2-2h1v1h-1v-1z"/><path d="M10 37h2v1h-2v-1zm-2-6h4v1H8v-1z"/><path d="M7,32h1v4H7V32z"/><path d="M8,36h2v1H8V36z"/></g></g><g class="gotchi-wearable wearable-face"><svg x="15" y="30"><path d="M33 19h-1v1h-3v-1h-1v-4h1v-1h1v-2h1V8h-1V6h-1V5h-1V4h-1V3h-2V2h-1V1h-1V0h-5v1h-2V0h-5v1h-1v1H9v1H7v1H6v1H5v1H4v2H3v4h1v2h1v1h1v4H5v1H2v-1H0v3h1v1h1v1h2v1h5v1h5v-1h3v1h2v1h6v-1h1v-1h4v-1h2v-1h1v-1h1v-3h-1z" fill="#1fba7d"/><path d="M33 19h-1v1h-3v-1h-1v-4h1v-1h1v-2h1V8h-1V6h-1V5h-1V4h-1V3h-2v1h1v5h-1V4h-1V2h-1V1h-5v1h-2V1h-5v1h-1v2H9v5H8V4h1V3H7v1H6v1H5v1H4v2H3v4h1v2h1v1h1v4H5v1H2v-1H0v3h1v1h1v1h2v1h5v1h5v-1h3v1h2v1h6v-1h1v-1h4v-1h2v-1h1v-1h1v-3h-1zM8 22v-1h1v1h2v-3h1v3h-1v1H9v-1H8z" fill="#fff"/><g fill="#72f298"><path d="M13 2h-1v1h3V2h-2zm8 0h-2v1h3V2h-1z"/><path d="M11 3h1v1h-1zm11 0h1v1h-1z"/></g><g fill="#23a3cf"><path d="M26 3h-1v1h2V3h-1z"/><path d="M27 4h1v1h-1z"/><path d="M28 5h1v1h-1zM13 6h1v1h-1z"/><path d="M30 6h-1v2h1V6zM12 8v1h1V7h-1v1z"/><path d="M30 8v4h1V8h-1zm-19 2v2h1V9h-1v1z"/><path d="M12 14h1v-2h-1v2zm-6 4v1h1v-2H6v1zm-5 1H0v1h2v-1H1z"/><path d="M5 19h1v1H5z"/><path d="M3 20H2v1h3v-1H3z"/></g><g fill="#bfdcff"><path d="M26 4h1v1h-1z"/><path d="M27 5h1v1h-1zM12 6h-1v1h-1v1h2V7h1V6h-1zm2 0h1v1h-1zm2 0h1v1h-1zm3 0h1v1h-1z"/><path d="M29 6h-1v2h1V6zM18 8v1h1V7h-1v1zm2-1h1v1h-1z"/><path d="M23 7V6h-2v1h1v1h2V7h-1zM9 8h1v1H9zm5 0V7h-1v2h1V8zm1 1h1V7h-1v2z"/><path d="M21 9v4h1V8h-1v1zm3-1h1v1h-1zm5 0v4h1V8h-1zm-10 3h1V9h-1v2zm9-1V9h-1v2h1v-1zm-15 1V9h-1v3h1v-1zm3 1v1h1v-2h-1v1z"/><path d="M12 12h-1v2h1v-2zm15 0v-1h-1v2h1v-1zm1 1v1h1v-2h-1v1zm-14 0v-1h-1v2h1v-1z"/><path d="M12 15v1h1v-2h-1v1zm13 0v1h1v-2h-1v1zm2-1h1v1h-1zm-13 1h1v1h-1zm3 0v-1h-1v2h1v-1z"/><path d="M15 16h1v1h-1zm2 0h1v1h-1z"/><path d="M16 17h1v1h-1zm-6 1v-1H9v2h1v-1z"/><path d="M17 18h1v1h-1zM6 19h1v1H6zm2 0h1v1H8zm-7 1h1v1H1z"/><path d="M5 20h1v1H5zm5 1H9v1h2v-2h-1v1z"/><path d="M3 21H2v1h3v-1H3zm2 2H4v1h3v-1H5z"/></g><g fill="#ac14f8"><path d="M7 3v1h2V3H7z"/><path d="M6 4h1v1H6z"/><path d="M5 5h1v1H5z"/><path d="M4 7v1h1V6H4v1z"/><path d="M3 9v3h1V8H3v1zm19 11h-1v2h1v-2z"/><path d="M22 22h1v1h-1zm3 0h1v1h-1z"/><path d="M23 23v1h2v-1h-2z"/></g><g fill="#dabfff"><path d="M22 13h1v1h-1z"/><path d="M22 15v-1h-1v2h1v-1z"/><path d="M20 17v1h1v-2h-1v1zm4 0h-1v2h1v-2zm3 1v-1h-1v2h1v-1z"/><path d="M24 19h1v1h-1zm3 0h1v1h-1z"/><path d="M25 20h1v1h-1zm3 0h1v1h-1zm-6 1h1v1h-1z"/><path d="M27 21h1v1h-1zm5 0h1v1h-1zm-9 1v1h2v-1h-2z"/><path d="M30 22v1h2v-1h-2z"/><path d="M28 23h-1v1h3v-1h-2z"/></g><g fill="#176dad"><path d="M20 6h1v1h-1z"/><path d="M21 7h1v1h-1z"/><path d="M22 9v4h1V8h-1v1zm7 3v2h1v-2h-1z"/><path d="M21 13h1v1h-1zm-7 1h-1v2h1v-2z"/><path d="M20 15v1h1v-2h-1v1zm8-1h1v1h-1zm-14 2h1v1h-1z"/><path d="M19 17v1h1v-2h-1v1zm-4 0h1v1h-1z"/><path d="M16 18h1v1h-1zm4 0h1v1h-1z"/><path d="M18 19h-1v1h3v-1h-2zM1 20H0v2h1v-2z"/><path d="M1 22h1v1H1z"/><path d="M3 23H2v1h2v-1H3z"/><path d="M6 24H4v1h4v-1H6z"/></g><g fill="#bfffd2"><path d="M14 1h-3v1h-1v2H9v2h1V5h1V3h1V2h4V1h-2zm10 3V2h-1V1h-5v1h4v1h1v2h1v1h1V4h-1zM13 16h1v1h-1z"/><path d="M14 17h1v1h-1z"/><path d="M15 18h1v1h-1zm-3 3h1v1h-1z"/><path d="M11 22h1v1h-1zm3 1v1h1v-2h-1v1zm-6 0h1v1H8z"/><path d="M12 24H9v1h5v-1h-2z"/></g><g fill="#581693"><path d="M33 20v2h1v-2h-1z"/><path d="M32 22h1v1h-1z"/><path d="M30 23v1h2v-1h-2z"/><path d="M28 24h-1v1h3v-1h-2z"/></g><g fill="#2d7d5c"><path d="M22 5H11v1h12V5h-1z"/><path d="M10 6h1v1h-1zm13 0h1v1h-1z"/><path d="M9 7h1v1H9zm15 0h1v1h-1zM8 22v-1H7v3h1v-2z"/><path d="M8 24h1v1H8zm6 0v1h2v-1h-2z"/><path d="M12 25H9v1h5v-1h-2z"/></g><g fill="#f5bfff"><path d="M7 4h1v1H7z"/><path d="M6 5h1v1H6z"/><path d="M6 7V6H5v2h1V7z"/><path d="M5 10V8H4v4h1v-2zm2 1h1v1H7z"/><path d="M6 12H5v2h1v-2zm2 1v2h1v-3H8v1z"/><path d="M6 14h1v1H6zm14 7h1v1h-1zm-2 1h1v1h-1z"/><path d="M21 22h1v1h-1zm-5 1h1v1h-1zm3 0h1v1h-1z"/><path d="M22 23h1v1h-1zm-4 1h-1v1h2v-1h-1zm7 0h1v1h-1z"/><path d="M23 25h-4v1h6v-1h-2z"/></g><g fill="#7a15ad"><path d="M5 12H4v2h1v-2z"/><path d="M5 14h1v1H5z"/><path d="M6 16v1h1v-2H6v1zm22 1v-2h-1v4h1v-2z"/><path d="M28 19h1v1h-1zm5 0h-1v1h2v-1h-1z"/><path d="M30 20h-1v1h3v-1h-2zm-14 2h-1v2h1v-2zm10 1v2h1v-3h-1v1z"/><path d="M16 24h1v1h-1z"/><path d="M18 25h-1v1h2v-1h-1zm7 0h1v1h-1z"/><path d="M23 26h-4v1h6v-1h-2z"/></g></svg></g><g class="gotchi-wearable wearable-eyes"><svg x="18" y="19"><path d="M27 3V2h-1V1h-1V0h-6v1h-1v1h-1v1h-1v6h1v1h1v1h1v1h6v-1h1v-1h1V9h1V3z"/><path d="M26,3V2h-1V1h-6v1h-1v1h-1v6h1v1h1v1h6v-1h1V9h1V3H26z" fill="#0f0"/><path d="M25 4V3h-1V2h-4v1h-1v1h-1v4h1v1h1v1h4V9h1V8h1V4z" fill="#ff0"/><path d="M24 4V3h-4v1h-1v4h1v1h4V8h1V4z" fill="#f0f"/><path d="M23 5V4h-2v1h-1v2h1v1h2V7h1V5z" fill="#7d00ff"/><path d="M21,5h2v2h-2V5z" fill="#0ff"/><path d="M11 3V2h-1V1H9V0H3v1H2v1H1v1H0v6h1v1h1v1h1v1h6v-1h1v-1h1V9h1V3z"/><path d="M10,3V2H9V1H3v1H2v1H1v6h1v1h1v1h6v-1h1V9h1V3H10z" fill="#0f0"/><path d="M9 4V3H8V2H4v1H3v1H2v4h1v1h1v1h4V9h1V8h1V4z" fill="#ff0"/><path d="M8 4V3H4v1H3v4h1v1h4V8h1V4z" fill="#f0f"/><path d="M7 5V4H5v1H4v2h1v1h2V7h1V5z" fill="#7d00ff"/><path d="M5,5h2v2H5V5z" fill="#0ff"/></svg></g><g class="gotchi-wearable wearable-head"><svg x="13" y="2"><svg xmlns="http://www.w3.org/2000/svg" width="38" height="22" xmlns:v="https://vecta.io/nano"><path d="M37 14v-1h-1V8h-1V6h-1V5h-1V4h-1V3h-1V2h-1V1h-2V0H10v1H8v1H7v1H6v1H5v1H4v1H3v2H2v5H1v1H0v4h1v1h14v1h1v1h1v1h4v-1h1v-1h1v-1h14v-1h1v-4h-1z"/><g fill="#50ffa8"><path d="M17 5V4h-5v1h5zm4-1v1h5V4h-5zm-1 3V6h-2v1h2zm9 1v1h-2v2h1v1h1v-1h3V8h-3zM9 9V8H6v3h3v1h1v-1h1V9H9z"/><path d="M10 12h1v1h-1zm2 0v1h14v-1H12zm15 0h1v1h-1z"/></g><path d="M34 8V6h-1V5h-1V4h-1V3h-1V2h-2V1H10v1H8v1H7v1H6v1H5v1H4v2H3v5h6v-1H6v-1H5V8h1V7h3v1h3V7h-1V4h1V3h5v1h1v1h2V4h1V3h5v1h1v3h-1v1h3V7h3v1h1v3h-1v1h-3v1h6V8h-1z" fill="#0cf1ff"/><path d="M1 14v4h14v1h1v1h1v1h4v-1h1v-1h1v-1h14v-4H1z" fill="#7d00ff"/><g fill="#fff"><path d="M9 2v1H8v1H7v1h2V4h1V3h2V2H9z"/><path d="M6 5h1v1H6z"/><path d="M5 6h1v1H5z"/></g><path d="M5 15v2h2v-2H5zm6 0v2h2v-2h-2zm7 0v2h2v-2h-2zm7 0v2h2v-2h-2zm6 0v2h2v-2h-2z" fill="#fe33ff"/><path d="M12 6h1v1h-1zm3 0v1h2V6h-2zm6 0h1v1h-1zm3 0v1h2V6h-2z" fill="#fff"/><path d="M12 8v3h14V8H12zm13 2H13V9h12v1z" fill="#ea323c"/><g fill="#feff00"><path d="M9 9v1H8v1h1v1h1v-1h1V9H9zm20 1V9h-2v2h1v1h1v-1h1v-1h-1z"/><path d="M10 12h1v1h-1zm17 0h1v1h-1z"/></g></svg></svg></g>"><svg x="12" y="32"><g><g class="gotchi-sleeves gotchi-sleeves-left gotchi-sleeves-up"><path d="M40 7V0h-2v1h-1v8h1V8h1V7h1z" fill="#262743"/><path d="M37 9V7h2V1h-1v1h-1V1h-.5v8h.5z" fill="#2c629e"/><path d="M37 2h1v1h-1V2zm0 2h1v2h-1V4z" fill="#e9eef2"/></g><g class="gotchi-sleeves gotchi-sleeves-left gotchi-sleeves-down"><path d="M39,3V2h-1V1h-1v8h1v1h2V3H39z" fill="#262743"/><path d="M36.5 1v8h.5V8h1v1h1V3h-2V1h-.5z" fill="#2c629e"/><path d="M37 7h1v1h-1V7zm0-3h1v2h-1V4z" fill="#e9eef2"/></g><g class="gotchi-sleeves gotchi-sleeves-right gotchi-sleeves-up"><path d="M1 7v1h1v1h1V1H2V0H0v7h1z" fill="#262743"/><path d="M3.5 9V1H3v1H2V1H1v6h2v2h.5z" fill="#2c629e"/><path d="M3 3H2V2h1v1zm0 3H2V4h1v2z" fill="#e9eef2"/></g><g class="gotchi-sleeves gotchi-sleeves-right gotchi-sleeves-down"><path d="M0,3v7h2V9h1V1H2v1H1v1H0z" fill="#262743"/><path d="M3 1v2H1v6h1V8h1v1h.5V1H3z" fill="#2c629e"/><path d="M3 8H2V7h1v1zm0-2H2V4h1v2z" fill="#e9eef2"/></g></g></svg><g class="gotchi-wearable wearable-hand wearable-hand-left"><svg x="4" y="5"><svg xmlns="http://www.w3.org/2000/svg" width="13" height="56" xmlns:v="https://vecta.io/nano"><path d="M12 14v-2h-1V9h-1V0H9v2H8v2H7v9H6V4H5V2H4V0H3v9H2v3H1v2H0v3h1v1h1v1h1v3h1v1h1v29H4v1H3v2h1v1h1v-1h3v1h1v-1h1v-2H9v-1H8V23h1v-1h1v-3h1v-1h1v-1h1v-3h-1z"/><path d="M4 14v1h5v-1H4z" fill="#7d00ff"/><path d="M4 9H3v3H2v3h1v-1h1v-1h1V4H4v5zm6 3V9H9V4H8v9h1v1h1v1h1v-3h-1z" fill="#fe33ff"/><path d="M8 16v1H5v-1H3v1h1v1h5v-1h1v-1H8z" fill="#fff"/><g fill="#03ffff"><path d="M2 14H1v3h1v-3z"/><path d="M2 17h1v1H2z"/><path d="M3 18h1v1H3z"/></g><g fill="#0f0"><path d="M11 14v3h1v-3h-1z"/><path d="M10 17h1v1h-1z"/><path d="M9 18h1v1H9z"/></g><path d="M4 19v3h1v1h3v-1h1v-3H4z" fill="#03ffff"/><path d="M6 24v27h1V24H6z" fill="#7d00ff"/><path d="M8 53v-1H5v1H4v2h1v-1h3v1h1v-2H8zM6 32h1v1H6zm0 2h1v2H6zm0 3h1v1H6z" fill="#fe33ff"/><path d="M8 19v3h1v-3H8z" fill="#0f0"/><path d="M5 19v4h1v-4H5z" fill="#7d00ff"/><path d="M6 19v4h1v-4H6z" fill="#fe33ff"/><path d="M7 19v4h1v-4H7z" fill="#feff00"/></svg></svg></g><g class="gotchi-wearable wearable-hand wearable-hand-right"><svg x="1" y="18"><g transform="scale(-1, 1) translate(-62, 0)"><path d="M13 4V3h-1V2h-1V1H9V0H5v1H3v1H2v1H1v1H0v6h1v1h1v1h1v1h2v21H4v1H3v2h1v1h6v-1h1v-2h-1v-1H9V13h2v-1h1v-1h1v-1h1V4h-1z" fill="#581693"/><path d="M13 4V3h-1V2h-1V1H9V0H5v1H3v1H2v1H1v1H0v6h1v1h1v1h1v1h2v1h4v-1h2v-1h1v-1h1v-1h1V4h-1z" fill="#23a3cf"/><path d="M7 32h1V14H6v19h1v-1zm2 3v-1H5v1H4v2h6v-2H9z" fill="#7a15ad"/><g fill="#ac14f8"><path d="M6 15v15h1V15H6zM5 34h1v1H5z"/><path d="M4 35h1v1H4z"/></g><path d="M6 16v2h1v-2H6zm0 3h1v1H6z" fill="#d74eef"/><path d="M12 4V3h-1V2H9V1H5v1H3v1H2v1H1v6h1v1h1v-1h1V9h2V8h1v1h2V7h1V6h1v1h1v1h1V4h-1z" fill="#3bccff"/><path d="M13 9V8h-1V7h-1V6h-1v1H9v2H7V8H6v1H4v1H3v1H2v1h1v1h2v1h4v-1h2v-1h1v-1h1v-1h1V9h-1z" fill="#176dad"/><g fill="#bfffd2"><path d="M7 2h1v1H7zM6 4H5V3H3v1H2v1H1v1h1v1h1v1h1V6h1V5h1V4z"/><path d="M12 4V3h-1V2H9v1H8v1h2v1h1v1h1v1h1V4h-1zM8 6H7v1H6v1h1v1h2V7h1V6H8z"/></g><path d="M12 9V8h-1V7h-1v2H9v1H7V9H6v1H4v1H3v1h2v1h4v-1h2v-1h1v-1h1V9h-1z" fill="#bfdcff"/><g fill="#f5fdff"><path d="M10 7v2H9v1H7v1H6v1h2v-1h2v-1h1V7h-1z"/><path d="M6 9h1v1H6z"/><path d="M6 11v-1H4v1H3v1h2v-1h1z"/><path d="M5 12h1v1H5z"/></g></g></svg></g><g class="gotchi-wearable wearable-pet"><svg x="30" y="38"><path d="M33 15v-2h-1v-2h-1v-1h-1V9h-1V8h-1v1h-1v1h-2V9h1V8h1V6h-1V5h-1V4h-3V2h1V1h-1V0h-2v1h-2V0h-2v1h-2V0h-2v1h-1v1h1v2H9v1H8v1H7v2h1v1h1v1H7V9H6V8H5v1H4v1H3v1H2v2H1v2H0v6h1v1h1v-1h1v-2h1v-1h1v1h1v1h1v-1h2v1H8v2h4v1h3v-1h1v-1h2v1h1v1h3v-1h4v-2h-1v-1h2v1h1v-1h1v-1h1v1h1v2h1v1h1v-1h1v-6h-1zM9 15h1v1H9v-1zm15 0h1v1h-1v-1z"/><path d="M28 9h1v1h-1V9zm4 11h1v1h-1v-1zm-5-2h1v1h-1v-1zM5 9h1v1H5V9zM1 20h1v1H1v-1zm5-2h1v1H6v-1z" fill="#fff"/><g fill="#51ffa8"><path d="M32,16v4h1v-4H32z"/><path d="M32 14v-1h-1v3h1v-2z"/><path d="M29 12h1v1h1v-2h-1v-1h-2v1h1v1z"/><path d="M30,15v-2h-1v-1h-1v-1h-2v1h1v1h1v2h1v2h1v1h1v-2h-1V15z"/><path d="M27 14v-1h-1v3h1v2h1v-3h-1v-1zM1 17v3h1v-4H1v1z"/><path d="M3 14v-1H2v3h1v-2z"/><path d="M4,12h1v-1h1v-1H4v1H3v2h1V12z"/><path d="M6 11v1H5v1H4v3H3v2h1v-1h1v-2h1v-2h1v-1h1v-1H6z"/><path d="M7 15H6v3h1v-2h1v-3H7v2z"/></g><path d="M25 7h-1v1h-3V7h-2v1h1v1h5V8h1V7h-1zM13 7v1h-3V7H8v1h1v1h5V8h1V7h-2z" fill="#fff"/><g fill="#51ffa8"><path d="M24 5h-4v1h5V5h-1zm-7 4h2V8h-1V7h-2v1h-1v1h2zm-6-3h3V5H9v1h2zm5 12v2h2v-2h-2z"/><path d="M23 17v-2H11v2H9v2h2v1H9v1h3v-3h1v3h-1v1h3v-4h1v-1h2v1h1v4h3v-1h-1v-3h1v3h3v-1h-2v-1h2v-2h-2z"/></g><path d="M24 10H9v4h16v-4h-1zm0 2v1H10v-2h14v1z" fill="#ef1e26"/><path d="M20 1v1h-2V1h-2v1h-2V1h-2v1h1v2h2v2h4V4h2V2h1V1z" fill="#ffc03c"/><path d="M12 1v1h2V1h-2zm4 0v1h2V1h-2zm5 0h-1v1h2V1h-1z" fill="#ffe600"/><path d="M18,4h-3v2h4V4H18z" fill="#ff9600"/><path d="M20,2h-7v2h8V2H20z" fill="#ffc03c"/></svg></g></svg>