<svg xmlns="http://www.w3.org/2000/svg" viewBox="0 0 64 64"><g class="gotchi-bg"><defs fill="#fff"><pattern id="a" patternUnits="userSpaceOnUse" width="4" height="4"><path d="M0 0h1v1H0zm2 2h1v1H2z"/></pattern><pattern id="b" patternUnits="userSpaceOnUse" x="0" y="0" width="2" height="2"><path d="M0 0h1v1H0z"/></pattern><pattern id="c" patternUnits="userSpaceOnUse" x="-2" y="0" width="8" height="1"><path d="M0 0h1v1H0zm2 0h1v1H2zm2 0h1v1H4z"/></pattern><pattern id="d" patternUnits="userSpaceOnUse" x="0" y="0" width="4" height="4"><path d="M0 0h1v1H0zm0 2h1v1H0zm1 0V1h1v1zm1 0h1v1H2zm0-1h1V0H2zm1 2h1v1H3z"/></pattern><pattern id="e" patternUnits="userSpaceOnUse" width="64" height="32"><path d="M4 4h1v1H4zm7 0h1v1h-1zm7 0h1v1h-1zm7 0h1v1h-1zm7 0h1v1h-1zm7 0h1v1h-1zm7 0h1v1h-1zm7 0h1v1h-1zm7 0h1v1h-1z"/><path fill="url(#a)" d="M0 8h64v7H0z"/><path fill="url(#b)" d="M0 16h64v1H0z"/><path fill="url(#c)" d="M0 18h64v1H0z"/><path fill="url(#b)" d="M22 18h15v1H22zM0 20h64v3H0z"/><path fill="url(#d)" d="M0 24h64v8H0z"/></pattern><mask id="f"><path fill="url(#e)" d="M0 0h64v32H0z"/></mask></defs><path fill="#fff" d="M0 0h64v32H0z"/><path fill="#dea8ff" class="gotchi-secondary" mask="url(#f)" d="M0 0h64v32H0z"/><path fill="#dea8ff" class="gotchi-secondary" d="M0 32h64v32H0z"/><path mask="url(#f)" fill="#fff" transform="matrix(1 0 0 -1 0 64)" d="M0 0h64v32H0z"/></g><style>.gotchi-primary{fill:#B6509E;}.gotchi-secondary{fill:#CFEEF4;}.gotchi-cheek{fill:#F696C6;}.gotchi-eyeColor{fill:#EA8C27;}.gotchi-primary-mouth{fill:#B6509E;}.gotchi-sleeves-up{display:none;}.gotchi-handsUp{display:none;}.gotchi-handsDownOpen{display:block;}.gotchi-handsDownClosed{display:none;}</style><g class="gotchi-bg"><defs fill="#fff"><pattern id="a" patternUnits="userSpaceOnUse" width="4" height="4"><path d="M0 0h1v1H0zm2 2h1v1H2z"/></pattern><pattern id="b" patternUnits="userSpaceOnUse" x="0" y="0" width="2" height="2"><path d="M0 0h1v1H0z"/></pattern><pattern id="c" patternUnits="userSpaceOnUse" x="-2" y="0" width="8" height="1"><path d="M0 0h1v1H0zm2 0h1v1H2zm2 0h1v1H4z"/></pattern><pattern id="d" patternUnits="userSpaceOnUse" x="0" y="0" width="4" height="4"><path d="M0 0h1v1H0zm0 2h1v1H0zm1 0V1h1v1zm1 0h1v1H2zm0-1h1V0H2zm1 2h1v1H3z"/></pattern><pattern id="e" patternUnits="userSpaceOnUse" width="64" height="32"><path d="M4 4h1v1H4zm7 0h1v1h-1zm7 0h1v1h-1zm7 0h1v1h-1zm7 0h1v1h-1zm7 0h1v1h-1zm7 0h1v1h-1zm7 0h1v1h-1zm7 0h1v1h-1z"/><path fill="url(#a)" d="M0 8h64v7H0z"/><path fill="url(#b)" d="M0 16h64v1H0z"/><path fill="url(#c)" d="M0 18h64v1H0z"/><path fill="url(#b)" d="M22 18h15v1H22zM0 20h64v3H0z"/><path fill="url(#d)" d="M0 24h64v8H0z"/></pattern><mask id="f"><path fill="url(#e)" d="M0 0h64v32H0z"/></mask></defs><path fill="#fff" d="M0 0h64v32H0z"/><path fill="#dea8ff" class="gotchi-secondary" mask="url(#f)" d="M0 0h64v32H0z"/><path fill="#dea8ff" class="gotchi-secondary" d="M0 32h64v32H0z"/><path mask="url(#f)" fill="#fff" transform="matrix(1 0 0 -1 0 64)" d="M0 0h64v32H0z"/></g><g class="gotchi-body"><g class="gotchi-primary"><path d="M21 12h2v-2h-4v2h1z"/><path d="M19 14v-2h-2v2h1zm6-4h2V8h-4v2h1z"/><path d="M29 8h8V6H27v2h1zm16 6h2v-2h-2v1z"/><path d="M48 14h-1v39h-2v2h4V14zm-11-4h4V8h-4v1z"/><path d="M41 12h4v-2h-4v1zM17 53V14h-2v41h4v-2h-1z"/><path d="M24 51h-5v2h5v-1z"/><path d="M27 53h-3v2h5v-2h-1zm18-2h-5v2h5v-1z"/><path d="M35 51h-6v2h6v-1z"/><path d="M38 53h-3v2h5v-2h-1z"/></g><g class="gotchi-secondary"><path d="M18 43v6h2v-1h2v1h2v2h-5v2h-2V14h2v1h-1v26z"/><path d="M27 51h-3v2h5v-2h-1zm11 0h-3v2h5v-2h-1z"/><path d="M35 49h-2v-1h-2v1h-2v2h6v-1zM25 11h2v-1h-4v1h1zm-4 2h2v-1h-4v1h1zm24 31v5h-1v-1h-2v1h-2v2h5v2h2V14h-2v29z"/><path d="M37 8H27v1h5v1h5V9zm8 4h-4v2h4v-1z"/><path d="M41 10h-4v2h4v-1z"/></g><path d="M44 14h-3v-2h-4v-2h-5V9h-5v2h-4v2h-4v2h-1v34h2v-1h2v1h2v2h5v-2h2v-1h2v1h2v2h5v-2h2v-1h2v1h1V14z" fill="#fff"/></g><path class="gotchi-cheek" d="M21 32v2h2v-2h-1zm21 0h-1v2h2v-2z"/><g class="gotchi-primary-mouth"><path d="M29 32h-2v2h2v-1z"/><path d="M33 34h-4v2h6v-2h-1z"/><path d="M36 32h-1v2h2v-2z"/></g><g class="gotchi-shadow"><path opacity=".25" d="M25 58H19v1h1v1h24V59h1V58h-1z" fill="#000"/></g><g class="gotchi-collateral" fill="#a73796"><path d="M30.5 15h1v-2h-1z"/><path d="M31.5 12h1v1h-1z"/><path d="M33.5 13h-1v2h1zm-4 3h-2v1h1v2h1v-2h2v-1h-1v-1h-1z"/><path d="M34.5 15h-1v2h1z"/><path d="M35.5 17h-1v2h1zm-8 4h1v-2h-1z"/><path d="M35.5 19v2h1v-2z"/></g>
    <style>
        .gotchi-bg { display: none }
    </style>
<g class="gotchi-eyeColor"><path d="M39 23v2h-1v-2h1v-1h-2v1h-1v3h1v1h2v-1h1v-3h-1z" /><g class="gotchi-primary"><path d="M36 22h-1v1h1v-1z" /><path d="M35 25v-2h-1v4h1v-2z" /><path d="M36 27h-1v1h1v-1zm5-5h-1v1h1v-1z" /><path d="M41 23v4h1v-4h-1zm-3-1h2v-1h-4v1h2zm0 6h-2v1h4v-1h-2z" /><path d="M41 27h-1v1h1v-1z" /></g><path d="M27 24v1h-1v-2h1v-1h-2v1h-1v3h1v1h2v-1h1v-3h-1v1z" /><g class="gotchi-primary"><path d="M24 22h-1v1h1v-1z" /><path d="M23 25v-2h-1v4h1v-2z" /><path d="M24 27h-1v1h1v-1zm5-5h-1v1h1v-1z" /><path d="M29 24v3h1v-4h-1v1zm-3-2h2v-1h-4v1h2zm0 6h-2v1h4v-1h-2z" /><path d="M29 27h-1v1h1v-1z" /></g></g><g class="gotchi-wearable wearable-body"><svg x="12" y="32"><path d="M35 1v1h-2v1h-2v1h-2v1h-2v1h-2v1H15V6h-2V5h-2V4H9V3H7V2H5V1H3v22h4v-2h5v2h5v-2h6v2h5v-2h5v2h4V1z" fill="#141b30"/><g fill="#fff"><path d="M22,6v2h-1v4h1V9h1V7h2V6H22z"/><path d="M25 5v1h2V5h-2zM13 5v1h2V5h-2z"/><path d="M18,7V6h-3v1h2v2h1v3h1V8h-1V7z"/></g><g fill="#343a4c"><path d="M17 13h-1v-1h-1v-1h-1v-1h-2V9h-2V8H9V7H7V6H5V3H4v17h15v-1h-1v-1h1v-1h-1v-1h1v-1h-1v-1h-1v-1zM7 14h5v1H7v-1zm0 5v-3h5v3H7z"/><path d="M18 11V9h-1V7h-2V6h-2V5h-2V4H9V3H7V2H5v1h1v2h1v1h2v1h1v1h2v1h2v1h1v1h1v1h1v1h1v1h1v-2h-1v-1zm-5-3V7h1v1h-1z"/><path d="M4 1h1v1H4V1zm29 1v1h-2v1h-2v1h-2v1h-2v1h-2v2h-1v3h-2v3h1v-1h1v-1h1v-1h1v-1h1v-1h2V9h1V8h1V7h2V6h2V5h1V3h1V2h-2zm-7 6V7h1v1h-1z"/><path d="M35 1h1v1h-1V1zm0 5h-2v1h-2v1h-2v1h-1v1h-1v1h-2v1h-1v1h-1v1h-1v1h-1v1h-1v1h1v1h-1v2h16V3h-1v3zm-7 8h5v1h-5v-1zm0 5v-3h5v3h-5z"/></g></svg></g><g class="gotchi-handsDownClosed"><g class="gotchi-primary"><path d="M19 42h1v1h-1zm1-6h1v1h-1z"/><path d="M21 37h1v1h-1zm5 3v4h1v-4zm-5 3h-1v1h2v-1z"/><path d="M24 44h-2v1h4v-1h-1zm1-5h-1v1h2v-1z"/><path d="M23 38h-1v1h2v-1z"/></g><g class="gotchi-secondary"><path d="M19 43h1v1h-1zm5 2h-2v1h4v-1h-1z"/><path d="M27 41v3h1v-3zm-6 3h-1v1h2v-1z"/><path d="M26 44h1v1h-1zm-7-3h-1v2h1v-1z"/></g><g class="gotchi-primary"><path d="M44 42h1v1h-1zm-1-6h1v1h-1z"/><path d="M42 37h1v1h-1z"/><path d="M42 39v-1h-2v1h1zm0 4v1h2v-1h-1z"/><path d="M40 44h-2v1h4v-1h-1z"/><path d="M38 42v-2h-1v4h1v-1z"/><path d="M40 40v-1h-2v1h1z"/></g><g class="gotchi-secondary"><path d="M42 44v1h2v-1h-1zm-5-2v-1h-1v3h1v-1z"/><path d="M40 45h-2v1h4v-1h-1z"/><path d="M37 44h1v1h-1zm7-1h1v1h-1z"/></g></g><g class="gotchi-handsDownOpen"><g class="gotchi-primary"><path d="M14 40h1v1h-1v-1zm-1-6h1v1h-1v-1z"/><path d="M14 33h1v1h-1v-1zm-2 2h1v1h-1v-1zm-5 3h1v4H7v-4zm5 3h2v1h-2v-1z"/><path d="M8 42h4v1H8v-1zm0-5h2v1H8v-1z"/><path d="M10,36h2v1h-2V36z"/></g><g class="gotchi-secondary"><path d="M14,39h1v1h-1V39z"/><path d="M12,40h2v1h-2V40z"/><path d="M8,41h4v1H8V41z"/></g><path d="M8,38v3h4v-1h2v-1h1v-5h-1v1h-1v1h-1v1h-2v1H8z" fill="#fff" /><g class="gotchi-primary"><path d="M49 40h1v1h-1v-1zm1-6h1v1h-1v-1z"/><path d="M49 33h1v1h-1v-1zm2 2h1v1h-1v-1zm5 3h1v4h-1v-4zm-6 3h2v1h-2v-1z"/><path d="M52 42h4v1h-4v-1zm2-5h2v1h-2v-1z"/><path d="M52,36h2v1h-2V36z"/></g><g class="gotchi-secondary"><path d="M49,39h1v1h-1V39z"/><path d="M50,40h2v1h-2V40z"/><path d="M52,41h4v1h-4V41z"/></g><path d="M54,38v-1h-2v-1h-1v-1h-1v-1h-1v5h1v1h2v1h4v-3H54z" fill="#fff" /></g><g class="gotchi-handsUp"><g class="gotchi-secondary"><path d="M50,38h1v1h-1V38z"/><path d="M49 39h1v1h-1v-1zm2-2h1v1h-1v-1z"/><path d="M52,36h2v1h-2V36z"/><path d="M54,35h2v1h-2V35z"/></g><path d="M52,32v1h-2v1h-1v5h1v-1h1v-1h1v-1h2v-1h2v-3H52z" fill="#fff"/><g class="gotchi-primary"><path d="M49,33h1v1h-1V33z"/><path d="M50 32h2v1h-2v-1zm0 7h1v1h-1v-1z"/><path d="M49 40h1v1h-1v-1zm2-2h1v1h-1v-1z"/><path d="M52 37h2v1h-2v-1zm0-6h4v1h-4v-1z"/><path d="M56,32h1v4h-1V32z"/><path d="M54,36h2v1h-2V36z"/></g><g class="gotchi-secondary"><path d="M13,38h1v1h-1V38z"/><path d="M14 39h1v1h-1v-1zm-2-2h1v1h-1v-1z"/><path d="M10,36h2v1h-2V36z"/><path d="M8,35h2v1H8V35z"/></g><path d="M8,32v3h2v1h2v1h1v1h1v1h1v-5h-1v-1h-2v-1H8z" fill="#fff"/><g class="gotchi-primary"><path d="M14,33h1v1h-1V33z"/><path d="M12 32h2v1h-2v-1zm1 7h1v1h-1v-1z"/><path d="M14 40h1v1h-1v-1zm-2-2h1v1h-1v-1z"/><path d="M10 37h2v1h-2v-1zm-2-6h4v1H8v-1z"/><path d="M7,32h1v4H7V32z"/><path d="M8,36h2v1H8V36z"/></g></g><g class="gotchi-wearable wearable-face"><svg x="11" y="6"><path d="M40 13V0h-2v25h2v-2h2V13h-2z" fill="#2800af"/><path d="M38 13v10h2V13h-2z" fill="#9b00a0"/><path d="M40 11h-2v2h2v-2zm-2 12v2h2v-2h-2z"/><path d="M40 13v2h2v-2h-2zm0 8v2h2v-2h-2z"/><path d="M38 15v6h2v-6h-2z" fill="#ff09d7"/><path d="M2 13V0h2v25H2v-2H0V13h2z" fill="#2800af"/><path d="M4 13v10H2V13h2z" fill="#9b00a0"/><path d="M2 11h2v2H2v-2zm2 12v2H2v-2h2z"/><path d="M2 13v2H0v-2h2zm0 8v2H0v-2h2z"/><path d="M4 15v6H2v-6h2z" fill="#ff09d7"/></svg></g><g class="gotchi-wearable wearable-eyes"><svg x="19" y="20"><path d="M11 3V2h-1V1H8V0H4v1H2v1H1v2H0v4h1v2h1v1h2v1h4v-1h2v-1h1V8h1V4h-1V3zm14 1V2h-1V1h-2V0h-4v1h-2v1h-1v2h-1v4h1v2h1v1h2v1h4v-1h2v-1h1V8h1V4h-1z" fill="#fff"/><g fill="#4309d7"><path d="M7 2H4v1h4V2H7z"/><path d="M9 2h1V1H8v1h1z"/><path d="M10 4h1V2h-1v2zM6 1h2V0H4v1h2zm2 9v1h2v-1H8z"/><path d="M10 9v1h1V8h-1v1z"/><path d="M11 5v3h1V4h-1v1zM1 6V4H0v4h1V6z"/><path d="M6 11v1h2v-1H6zM2 3V2H1v2h1V3z"/><path d="M4 2V1H2v1h2zM3 3h1v1H3z"/><path d="M2 5v3H1v2h1v1h1v-1h1V9h1V8h2V7h1V5H7V4H5v1H4v2H3V4H2v1zm6-2h1v1H8zM7 9H6v1h2V9H7z"/><path d="M8 8h1v1H8z"/><path d="M10 7V4H9v4h1V7zm11-5h-3v1h4V2h-1z"/><path d="M23 2h1V1h-2v1h1z"/><path d="M24 4h1V2h-1v2zm-4-3h2V0h-4v1h2zm2 9v1h2v-1h-2z"/><path d="M24 9v1h1V8h-1v1z"/><path d="M25 4v4h1V4h-1zM15 6V4h-1v4h1V6z"/><path d="M20 11v1h2v-1h-2zm-4-8V2h-1v2h1V3z"/><path d="M18 2V1h-2v1h2zm-1 1h1v1h-1z"/><path d="M16 5v3h-1v2h1v1h1v-1h1V9h1V8h2V7h1V5h-1V4h-2v1h-1v2h-1V4h-1v1zm6-2h1v1h-1zm-1 6h-1v1h2V9h-1z"/><path d="M22 8h1v1h-1z"/><path d="M24 7V4h-1v4h1V7z"/></g></svg></g><g class="gotchi-wearable wearable-head"><svg x="15" y="6"><path d="M33 8h-1V6h-2V4h-4V2h-4V0H12v2H8v2H4v2H2v2H0v37h2V19h1v-1h2v-1h2v-1h2v-1h2v-1h1v-1h1v-1h1v1h1v1h2v1h2v1h2v1h2v1h2v1h2v1h2v1h2v1h1v23h2V8z" fill="#9300d7"/><g fill="#ac27ff"><path d="M12 10h-1V8h-1V7H9V5H8v1H4v2H2v10h1v-1h2v-1h2v-1h2v-1h3v-2h1v-1h-1z"/><path d="M31 8h-1V6h-4V4h-4V2H12v2H9v1h1v2h1v1h1v2h1v1h1v1h1v1h2v1h2v1h2v1h2v1h2v1h2v1h2v1h2v1h1V8z"/></g><g fill="#c260ff"><path d="M11 5h-1v2h1V6zM8 5h1v1H8z"/><path d="M11 4h1v1h-1zM9 4h1v1H9zm5 0V3h-1v2h1zm1 1h1V3h-1v1zm3 0h1v1h-1z"/><path d="M17 5h1V3h-1v1zm2 0h2V4h-1V3h-1v1z"/><path d="M22 6h1V5h-2v1zm3-1h1v1h-1z"/><path d="M25 5V4h-2v1h1zm-4-2h1v1h-1zm-8 4h1v1h-1zm-2 0h1v1h-1z"/><path d="M12 7h1V5h-1v1zM8 8h1V7H7v1z"/><path d="M7 7V6H5v1h1z"/><path d="M4 7h1v1H4zm11 0h1v1h-1z"/><path d="M15 6V5h-1v2h1zm3 2h1V7h-2v1z"/><path d="M16 7h1V5h-1v1zm4 0h1V6h-2v1z"/><path d="M21 7v1h2V7h-1z"/><path d="M23 6v1h2V6h-1z"/><path d="M26 8h1V7h-2v1zm3-1h1v1h-1z"/><path d="M29 7V6h-2v1h1zM13 8h-1v2h1V9zM9 8h1v1H9z"/><path d="M7 9v1h2V9H8z"/><path d="M7 9V8H5v1h1z"/><path d="M5 10V9H3v1h1zm10-2h-1v2h1V9zm1 0h1v1h-1z"/><path d="M18 9h-1v1h2V9z"/><path d="M19 8v1h2V8h-1z"/><path d="M22 10h1V9h-2v1z"/><path d="M24 9h1V8h-2v1z"/><path d="M25 9v1h2V9h-1z"/><path d="M27 8v1h2V8h-1zm-16 3h1v1h-1z"/><path d="M10 11h1v-1H9v1z"/><path d="M7 11v1h2v-1H8z"/><path d="M7 11v-1H5v1h1z"/><path d="M5 12v-1H3v1h1zm8-2h1v1h-1zm3 0h-1v1h2v-1z"/><path d="M14 11h1v1h-1zm4 0h-1v1h2v-1z"/><path d="M20 10h-1v1h2v-1z"/><path d="M22 11h-1v1h2v-1z"/><path d="M23 10v1h2v-1h-1z"/><path d="M25 11v1h2v-1h-1z"/><path d="M27 10v1h2v-1h-1z"/><path d="M29 11v1h2v-1h-1zm1-2h-1v1h2V9z"/><path d="M31 8h1v1h-1zm0 2h1v1h-1zM2 8h1v1H2zm0 2h1v1H2zm29 2h1v1h-1zm0 2h1v1h-1z"/><path d="M29 13v1h2v-1h-1z"/><path d="M27 12v1h2v-1h-1z"/><path d="M25 13v1h2v-1h-1z"/><path d="M24 12h-1v1h2v-1z"/><path d="M22 13h-1v1h2v-1zm7 2v1h2v-1h-1z"/><path d="M26 15h-1v1h2v-1zm5 1h1v1h-1zm0 2h1v1h-1zm0 2h1v1h-1z"/><path d="M29 19v1h2v-1h-1zm0-2v1h2v-1h-1z"/><path d="M27 16v1h2v-1h-1zm0-2v1h2v-1h-1zm-3 0h-1v1h2v-1zm-4-2h-1v1h2v-1zm8 6h-1v1h2v-1z"/><path d="M26 17h-1v1h2v-1z"/><path d="M24 16h-1v1h2v-1z"/><path d="M22 15h-1v1h2v-1z"/><path d="M20 14h-1v1h2v-1z"/><path d="M18 13h-1v1h2v-1z"/><path d="M16 12h-1v1h2v-1zm-5 1h1v1h-1z"/><path d="M9 12v1h2v-1h-1z"/><path d="M7 13v1h2v-1H8zm-2 1v-1H3v1h1z"/><path d="M5 12v1h2v-1H6zm0 2v1h2v-1H6zm-3 0h1v1H2z"/><path d="M3 15v1h2v-1H4z"/><path d="M2 16h1v1H2zm0-4h1v1H2zM12 2h1v1h-1zm2 0h1v1h-1zm2 0h1v1h-1zm2 0h1v1h-1zm2 0h1v1h-1z"/></g></svg></g>"><svg x="12" y="32"><g><g class="gotchi-sleeves gotchi-sleeves-left gotchi-sleeves-up"><path d="M38 0v1h-1v8h1V8h1V7h1V0z" fill="#141b30"/><path d="M37,8h1V7h1V1h-1v1h-1V8z" fill="#343a4c"/></g><g class="gotchi-sleeves gotchi-sleeves-left gotchi-sleeves-down"><path d="M38 10V9h-1V1h1v1h1v1h1v7z" fill="#141b30"/><path d="M37,8h1v1h1V3h-1V2h-1V8z" fill="#343a4c"/></g><g class="gotchi-sleeves gotchi-sleeves-right gotchi-sleeves-up"><path d="M2 0v1h1v8H2V8H1V7H0V0z" fill="#141b30"/><path d="M3,2H2V1H1v6h1v1h1V2z" fill="#343a4c"/></g><g class="gotchi-sleeves gotchi-sleeves-right gotchi-sleeves-down"><path d="M2 10V9h1V1H2v1H1v1H0v7z" fill="#141b30"/><path d="M3,2H2v1H1v6h1V8h1V2z" fill="#343a4c"/></g></g></svg><g class="gotchi-wearable wearable-hand wearable-hand-left"><svg x="0" y="30"><path d="M15 12v-1h-1v-1h1V1h-1V0H2v1H1v9h1v1H1v1H0v2h16v-2h-1z"/><path d="M14 12v-1H2v1H1v1h14v-1h-1z" fill="#646464"/><path d="M2 1v9h12V1H2z" fill="#323232"/><g fill="#969696"><path d="M2 11h1v1H2zm2 0h1v1H4zm2 0h1v1H6zm2 0h1v1H8z"/><path d="M10 11h1v1h-1zm2 0h1v1h-1zM1 12h1v1H1zm2 0h1v1H3z"/><path d="M5 12h1v1H5zm2 0h1v1H7zm2 0h1v1H9zm2 0h1v1h-1zm2 0h1v1h-1z"/></g><path d="M3 4v4h1V3H3v1zm2-1v1h1v1H5v1h1v1H5v1h2V3H5zm3 0v1h1v1H8v1h1v1H8v1h2V3H8zm3 0v1h1v4h1V3h-2z" fill="#0f0"/></svg></g><g class="gotchi-wearable wearable-hand wearable-hand-right"><svg x="2" y="21"><g transform="scale(-1, 1) translate(-60, 0)"><path d="M10 8V7H9v1H6v1H4V8H1v1H0v2h1v9h1v3h1v2h1v1H3v1H2v1h1v1h5v-1h1v-1H8v-1H7v-1h1v-2h1v-3h1V10h1V8z" fill="#ff2b87"/><path d="M6,6V5H4v1H3v2h1v1h2V8h1V6H6z" fill="#f20030"/><path d="M8 12v1H3v-1H2v8h1v-5h1v7H3v1h1v2h1v2H4v1h3v-1H6v-2h1v-2h1v-3h1v-8H8zM7 22H6v-7h1v7z" fill="#ff6daa"/><path d="M10 8V7H9v1H6v1H4V8H1v1H0v2h1v1h1v1h1v1h1v9h1v-9h2v9h1V13h1v-2h1v-1h1V8z" fill="#ff9ec8"/><path d="M4 6h1v1H4V6zm2 2v1H4V8H3v1H1v2h1v1h1v1h5v-1h1v-2h1V8H6zm-1 4v-1H4v-1h1v1h2v1H5z" fill="#fafffe"/><g fill="#ff2b87"><path d="M10 0h2v1h-2z"/><path d="M9 1h1v3H9z"/><path d="M8 4h1v4H8z"/><path d="M7 8h1v2H7z"/></g></g></svg></g><g class="gotchi-wearable wearable-pet"><svg x="40" y="45"><path d="M12 3h1v1h-1V3zm8-2h1v1h-1V1zm-6 0h1v1h-1V1zm8 2h1v1h-1V3z" fill="#0f0"/><path d="M22,4h-1V3h-1V2h-1V1h-1V0h-1v1h-1v1h-1v1h-1v1h-1v2h-1v1h1v1h1v1h1v1h5V9h1V8h1V7h1V6h-1V4z" fill="#ff3bff"/><path d="M18 3V2h1V1h-1V0h-1v1h-1v1h1v1h1zm-6 3h1v1h-1V6zm0-3h1v1h-1V3zm6 3h1v1h-1V6zm-2-2h1v1h-1V4zm4-3h1v1h-1V1zm-6 0h1v1h-1V1zm5 7h1v1h-1V8zm-4 0h1v1h-1V8zm5-4h1v1h-1V4zm2 2h1v1h-1V6zm0-3h1v1h-1V3z" fill="#8700ff"/><path d="M17 4v6h1V3h-1v1zm2-1v5h1V2h-1v1zm0 6h1v1h-1V9zm-4-6v5h1V2h-1v1zm0 6h1v1h-1V9zm6-5v4h1V4h-1zm-8 1v3h1V4h-1v1z" fill="#ff9aff"/><path d="M17,1h1v1h-1V1z" fill="#ff0"/><path d="M16,13v-1h-1v-1h-1v-1h-1v1h-1v2h-1v1h-1v1h1v1h1v1h4v-1h1v-1h1v-1h-1v-1H16z" fill="#ff3bff"/><path d="M17,12h1v1h-1V12z" fill="#009300"/><path d="M13 14v3h1v-4h-1v1zm2-2h1v1h-1v-1zm0 3v2h1v-3h-1v1zm-4-1v2h1v-3h-1v1z" fill="#ff9aff"/><path d="M14 13v-1h1v-1h-1v-1h-1v1h-1v1h1v1h1zm0 3h1v1h-1v-1zm-2-2h1v1h-1v-1zm-2 0h1v1h-1v-1zm5-1h1v1h-1v-1zm2-1h1v1h-1v-1zm0 2h1v1h-1v-1z" fill="#8700ff"/><path d="M13,11h1v1h-1V11z" fill="#ff0"/><path d="M0 6h1v1H0V6zm8-2h1v1H8V4zM2 4h1v1H2V4z" fill="#0f0"/><path d="M9 6H8V5H7V4H6V3H5v1H4v1H3v1H2v1H1v2H0v1h1v1H0v1h1v1h1v1h1v1h5v-1h1v-1h1v-1h1v-1h-1v-1h1V9h-1V7H9V6z" fill="#ff3bff"/><path d="M10,6h1v1h-1V6z" fill="#0f0"/><path d="M6 6V5h1V4H6V3H5v1H4v1h1v1h1zm-6 5h1v1H0v-1zm0-2h1v1H0V9zm0-3h1v1H0V6zm6 4h1v1H6v-1zM4 7h1v1H4V7zm4-3h1v1H8V4zM2 4h1v1H2V4zm5 8h1v1H7v-1zm-4 0h1v1H3v-1zm5-4h1v1H8V8zm2 3h1v1h-1v-1zm0-2h1v1h-1V9zm0-3h1v1h-1V6zM2 8h1v1H2V8z" fill="#8700ff"/><path d="M5 7v8h1V6H5v1zm2-1v6h1V5H7v1zm0 8v1h1v-2H7v1zM3 6v6h1V5H3v1zm0 8v1h1v-2H3v1zm6-6v5h1V7H9v1zM1 8v5h1V7H1v1z" fill="#ff9aff"/><path d="M5,4h1v1H5V4z" fill="#ff0"/></svg></g></svg>