<svg xmlns="http://www.w3.org/2000/svg" viewBox="0 0 64 64"><g class="gotchi-bg"><defs fill="#fff"><pattern id="a" patternUnits="userSpaceOnUse" width="4" height="4"><path d="M0 0h1v1H0zm2 2h1v1H2z"/></pattern><pattern id="b" patternUnits="userSpaceOnUse" x="0" y="0" width="2" height="2"><path d="M0 0h1v1H0z"/></pattern><pattern id="c" patternUnits="userSpaceOnUse" x="-2" y="0" width="8" height="1"><path d="M0 0h1v1H0zm2 0h1v1H2zm2 0h1v1H4z"/></pattern><pattern id="d" patternUnits="userSpaceOnUse" x="0" y="0" width="4" height="4"><path d="M0 0h1v1H0zm0 2h1v1H0zm1 0V1h1v1zm1 0h1v1H2zm0-1h1V0H2zm1 2h1v1H3z"/></pattern><pattern id="e" patternUnits="userSpaceOnUse" width="64" height="32"><path d="M4 4h1v1H4zm7 0h1v1h-1zm7 0h1v1h-1zm7 0h1v1h-1zm7 0h1v1h-1zm7 0h1v1h-1zm7 0h1v1h-1zm7 0h1v1h-1zm7 0h1v1h-1z"/><path fill="url(#a)" d="M0 8h64v7H0z"/><path fill="url(#b)" d="M0 16h64v1H0z"/><path fill="url(#c)" d="M0 18h64v1H0z"/><path fill="url(#b)" d="M22 18h15v1H22zM0 20h64v3H0z"/><path fill="url(#d)" d="M0 24h64v8H0z"/></pattern><mask id="f"><path fill="url(#e)" d="M0 0h64v32H0z"/></mask></defs><path fill="#fff" d="M0 0h64v32H0z"/><path fill="#dea8ff" class="gotchi-secondary" mask="url(#f)" d="M0 0h64v32H0z"/><path fill="#dea8ff" class="gotchi-secondary" d="M0 32h64v32H0z"/><path mask="url(#f)" fill="#fff" transform="matrix(1 0 0 -1 0 64)" d="M0 0h64v32H0z"/></g><style>.gotchi-primary{fill:#824EE2;}.gotchi-secondary{fill:#E6DCF9;}.gotchi-cheek{fill:#F696C6;}.gotchi-eyeColor{fill:#0064FF;}.gotchi-primary-mouth{fill:#824EE2;}.gotchi-sleeves-up{display:none;}.gotchi-handsUp{display:none;}.gotchi-handsDownOpen{display:block;}.gotchi-handsDownClosed{display:none;}</style><g class="gotchi-body"><path d="M47 14v-2h-2v-2h-4V8h-4V6H27v2h-4v2h-4v2h-2v2h-2v41h4v-2h5v2h5v-2h6v2h5v-2h5v2h4V14z" class="gotchi-primary"/><path d="M45 14v-2h-4v-2h-4V8H27v2h-4v2h-4v2h-2v39h2v-2h5v2h5v-2h6v2h5v-2h5v2h2V14z" class="gotchi-secondary"/><path d="M18,49h2v-1h2v1h2v2h5v-2h2v-1h2v1h2v2h5v-2h2v-1h2v1h1V14h-4v-2h-4v-2h-5V9h-5v2h-4v2h-4v2h-1V49z" fill="#fff"/></g><path class="gotchi-cheek" d="M21 32v2h2v-2h-1zm21 0h-1v2h2v-2z"/><g class="gotchi-primary-mouth"><path d="M29 32h-2v2h2v-1z"/><path d="M33 34h-4v2h6v-2h-1z"/><path d="M36 32h-1v2h2v-2z"/></g>
    <style>
        .gotchi-bg { display: none }
    </style>
<g class="gotchi-shadow"><path opacity=".25" d="M25 58H19v1h1v1h24V59h1V58h-1z" fill="#000"/></g>,<g class="gotchi-collateral"><path d="M37.25 17.04v-.75h-.75v-.75h-.75v-.75H33.5v.75h-.75v.75h-1.5v.75h-.75v.75h-2.25v-.75h-.75v-2.25h.75v-.75h2.25v.75h.75v.75H32v-1.5h-.75v-.75h-.75v-.75h-2.25v.75h-.75v.75h-.75v.75H26v2.25h.75v.75h.75v.75h.75v.75h2.25v-.75h.75v-.75h1.5v-.75h.75v-.75h2.25v.75h.75v2.25h-.75v.75H33.5v-.75h-.75v-.75H32v1.5h.75v.75h.75v.75h2.25v-.75h.75v-.75h.75v-.75H38v-2.25h-.75z" fill="#824ee2"/></g><g class="gotchi-eyeColor"><path d="M27 23H26H25H24H23H22H21V24H22H23H24V25H23H22H21V26H22H23H24H25H26H27H28H29V25H28H27H26V24H27H28H29V23H28H27Z" class="gotchi-primary" /><path d="M41 24H42H43V23H42H41H40H39H38H37H36H35V24H36H37H38V25H37H36H35V26H36H37H38H39H40H41H42H43V25H42H41H40V24H41Z" class="gotchi-primary" /><rect x="24" y="24" width="2" height="1" /><rect x="38" y="24" width="2" height="1" /></g><g class="gotchi-wearable wearable-body"><svg x="12" y="32"><path d="M3,0v20h34V0h-2v1h-1v1h-1v1h-1v1h-1v1h-1v1h-8v1h-4V6h-8V5H9V4H8V3H7V2H6V1H5V0H3z" fill="#7d7d7d"/><path d="M35,2h-1v1h-1v1h-1v1h-1v1h-1v1h-8v1h-4V7h-8V6H9V5H8V4H7V3H6V2H5V1H4v18h32V1h-1V2z"/><g fill="#f90"><path d="M22.2 8.6h.6v.6h-.6v-.6z"/><path d="M20.9 11.7h.7v-1.3h.6V9.2h-.6v.6h-.7v.6h-.6v.7h-.6v.6h-.6v.6h-.6v.6h-.6v.6h-.6v.6h1.8v1.2h-.6v1.3h-.6v1.2h.6v-.6h.6v-.6h.6v-.7h.6v-.6h.6v-.6h.7v-.6h.6v-.6h.6v-.6h-1.9v-1.2z"/><path d="M17.3 17.8h.6v.6h-.6v-.6z"/></g><path d="M32 8v2h-1V8h-1v5h1v-2h1v2h1V8h-1zm-5 6h-1v5.1h3V14h-2zm1 2v2h-1v-3h1v1zm-1-8h-1v3h2v1h-2v1h3v-3h-2V9h2V8h-2zm4 6h-1v1h1v4.1h1V15h1v-1h-2zm-19 0h-1v5.1h1V17h2v-3h-2zm1 2h-1v-1h1v1zm-1-8h-1v5h1V9h1v4h1V8h-2zM8 8H7v3h2v1H7v1h3v-3H8V9h2V8H8zm0 6H7v5.1h1V17h1v2.1h1V14H8zm1 2H8v-1h1v1z" fill="#7d7d7d"/><defs /></svg></g><g class="gotchi-handsDownClosed"><g class="gotchi-primary"><path d="M19 42h1v1h-1zm1-6h1v1h-1z"/><path d="M21 37h1v1h-1zm5 3v4h1v-4zm-5 3h-1v1h2v-1z"/><path d="M24 44h-2v1h4v-1h-1zm1-5h-1v1h2v-1z"/><path d="M23 38h-1v1h2v-1z"/></g><g class="gotchi-secondary"><path d="M19 43h1v1h-1zm5 2h-2v1h4v-1h-1z"/><path d="M27 41v3h1v-3zm-6 3h-1v1h2v-1z"/><path d="M26 44h1v1h-1zm-7-3h-1v2h1v-1z"/></g><g class="gotchi-primary"><path d="M44 42h1v1h-1zm-1-6h1v1h-1z"/><path d="M42 37h1v1h-1z"/><path d="M42 39v-1h-2v1h1zm0 4v1h2v-1h-1z"/><path d="M40 44h-2v1h4v-1h-1z"/><path d="M38 42v-2h-1v4h1v-1z"/><path d="M40 40v-1h-2v1h1z"/></g><g class="gotchi-secondary"><path d="M42 44v1h2v-1h-1zm-5-2v-1h-1v3h1v-1z"/><path d="M40 45h-2v1h4v-1h-1z"/><path d="M37 44h1v1h-1zm7-1h1v1h-1z"/></g></g><g class="gotchi-handsDownOpen"><g class="gotchi-primary"><path d="M56 38v-1h-2v-1h-2v-1h-1v-1h-1v-1h-1v8h1v1h2v1h4v-1h1v-4z"/></g><g class="gotchi-secondary"><path d="M54 38v-1h-2v-1h-1v-1h-1v-1h-1v6h1v1h2v1h4v-4z" /></g><path d="M54,38v-1h-2v-1h-1v-1h-1v-1h-1v5h1v1h2v1h4v-3H54z" fill="#fff"/><g class="gotchi-primary"><path d="M8 38v-1h2v-1h2v-1h1v-1h1v-1h1v8h-1v1h-2v1H8v-1H7v-4z"/></g><g class="gotchi-secondary"><path d="M10 38v-1h2v-1h1v-1h1v-1h1v6h-1v1h-2v1H8v-4z" /></g><path d="M8,38v3h4v-1h2v-1h1v-5h-1v1h-1v1h-1v1h-2v1H8z" fill="#fff"/></g><g class="gotchi-handsUp"><g class="gotchi-secondary"><path d="M50,38h1v1h-1V38z"/><path d="M49 39h1v1h-1v-1zm2-2h1v1h-1v-1z"/><path d="M52,36h2v1h-2V36z"/><path d="M54,35h2v1h-2V35z"/></g><path d="M52,32v1h-2v1h-1v5h1v-1h1v-1h1v-1h2v-1h2v-3H52z" fill="#fff"/><g class="gotchi-primary"><path d="M49,33h1v1h-1V33z"/><path d="M50 32h2v1h-2v-1zm0 7h1v1h-1v-1z"/><path d="M49 40h1v1h-1v-1zm2-2h1v1h-1v-1z"/><path d="M52 37h2v1h-2v-1zm0-6h4v1h-4v-1z"/><path d="M56,32h1v4h-1V32z"/><path d="M54,36h2v1h-2V36z"/></g><g class="gotchi-secondary"><path d="M13,38h1v1h-1V38z"/><path d="M14 39h1v1h-1v-1zm-2-2h1v1h-1v-1z"/><path d="M10,36h2v1h-2V36z"/><path d="M8,35h2v1H8V35z"/></g><path d="M8,32v3h2v1h2v1h1v1h1v1h1v-5h-1v-1h-2v-1H8z" fill="#fff"/><g class="gotchi-primary"><path d="M14,33h1v1h-1V33z"/><path d="M12 32h2v1h-2v-1zm1 7h1v1h-1v-1z"/><path d="M14 40h1v1h-1v-1zm-2-2h1v1h-1v-1z"/><path d="M10 37h2v1h-2v-1zm-2-6h4v1H8v-1z"/><path d="M7,32h1v4H7V32z"/><path d="M8,36h2v1H8V36z"/></g></g><g class="gotchi-wearable wearable-face"><svg x="15" y="31"><svg xmlns="http://www.w3.org/2000/svg" width="34" height="14" xmlns:v="https://vecta.io/nano"><path d="M33 2V0h-2v1h-2v2h1v1h-2v1h-2v2h1v1h-2V7h-2v2h-1v1h-2V9h-2v2h-2V9h-2v1h-2V9h-1V7H9v1H7V7h1V5H6V4H4V3h1V1H3V0H1v2H0v2h2v1h2v1H3v2h2v1h2v1h1v2h2v-1h2v1h1v2h2v-1h4v1h2v-2h1v-1h2v1h2v-2h1V9h2V8h2V6h-1V5h2V4h2V2h-1z" fill="#8200ff"/><path d="M25 8V7h-2v2h-1v2h2v1h2v-2h1V8h-2z" fill="#0ff"/><path d="M2 2h1v1H2z" fill="#ff0"/><path d="M3 1V0H1v2h2v1h2V1H3z" fill="#b464ff"/><path d="M30 6V4h-2v1h-2v2h1v2h2V8h2V6h-1z" fill="#0f0"/><path d="M29 6v1h-2v2h2V8h2V6h-2z" fill="#00b900"/><path d="M28 6h1v1h-1zm-4 3h1v1h-1z" fill="#ff0"/><path d="M24 10V9h-2v2h2v1h2v-2h-2z" fill="#00afff"/><path d="M19 11h1v1h-1z" fill="#ff0"/><path d="M20 10V9h-2v2h2v1h2v-2h-2z" fill="#b464ff"/><path d="M11 9V7H9v1H7v2h1v2h2v-1h2V9h-1z" fill="#ff7dff"/><path d="M10 9v1H8v2h2v-1h2V9h-2z" fill="#f0f"/><path d="M9 9h1v1H9z" fill="#ff0"/><path d="M33 2V0h-2v1h-2v2h1v2h2V4h2V2h-1z" fill="#ff7dff"/><path d="M32 2v1h-2v2h2V4h2V2h-2z" fill="#f0f"/><path d="M31 2h1v1h-1z" fill="#ff0"/><path d="M16 11V9h-2v1h-2v2h1v2h2v-1h2v-2h-1z" fill="#0f0"/><path d="M15,11v1h-2v2h2v-1h2v-2h-2Z" fill="#00b900"/><path d="M14 11h1v1h-1z" fill="#ff0"/><path d="M6 5V4H4v2H3v2h2v1h2V7h1V5H6z" fill="#0ff"/><path d="M5 6h1v1H5z" fill="#ff0"/><path d="M5 7V6H3v2h2v1h2V7H5z" fill="#00afff"/></svg></svg></g><g class="gotchi-wearable wearable-eyes"><svg x="15" y="22"><path d="M34 2h-1-3V1h-1V0H5v1H4v1H1 0v1 1 1h1 3v3h1v1h10V8h1V5h2v3h1v1h10V8h1V5h3 1V4 3 2z" fill="#0448b9"/><g fill="#0060ff"><path d="M15 3h1V2h-1V1H5v1H4v1h1v1H4v1h1v1H4v1h1v1h10V7h1V6h-1V5h1V4h-1V3zm14 0h1V2h-1V1H19v1h-1v1h1v1h-1v1h1v1h-1v1h1v1h10V7h1V6h-1V5h1V4h-1V3z"/><path d="M17 3h-1v1h2V3h-1zM3 3h1v1H3zm27 0h1v1h-1z"/></g><path d="M33 3V2h-1v3h1V4h1V3h-1z" fill="#fdfdff"/><path d="M32 3h1v1h-1z" fill="#ffd200"/><path d="M1 4v1h1V2H1v1H0v1h1z" fill="#fdfdff"/><path d="M1 3h1v1H1zm3-1h1v1H4zm0 2h1v1H4zm0 2h1v1H4zm25-4h1v1h-1zm0 2h1v1h-1zm0 2h1v1h-1zM15 2h1v1h-1zm0 2h1v1h-1zm0 2h1v1h-1zm3-4h1v1h-1zm0 2h1v1h-1zm0 2h1v1h-1z" fill="#ffd200"/><path d="M14 1H6v1H5v5h1v1h8V7h1V2h-1V1zm14 1V1h-8v1h-1v5h1v1h8V7h1V2h-1z" fill="#abfbff"/><path d="M10 1v2H9v2H8v2H7v1h2V7h1V5h1V3h1V1h-2zm14 0v2h-1v2h-1v2h-1v1h2V7h1V5h1V3h1V1h-2z" fill="#d7ffff"/></svg></g><g class="gotchi-wearable wearable-head"><svg x="7" y="4"><path d="M41 8V7h-1V6h-1V5h-1V4h-1V3h-1V2h-3V1h-7V0h-2v1h-7v1h-3v1h-1v1h-1v1h-1v1h-1v1H9v1H8v7H0v2h42V8z" fill="#7d7d7d"/><path d="M40 8V7h-1V6h-1V5h-1V4h-1V3h-3V2h-6v1h1v1h1v1h1v1h1v1h1v1h1v8h8V8zM19 7V6h1V5h1V4h1V3h1V2h-6v1h-3v1h-1v1h-1v1h-1v1h-1v1H9v8h8V8h1V7z"/><path d="M31 7h-1V6h-1V5h-1V4h-1V3h-1V2h-2v1h-1v1h-1v1h-1v1h-1v1h-1v1h-1v8h14V8h-1z"/><g fill="#f90"><path d="M26.8 5.2h.6v.6h-.6z"/><path d="M25.6 8.3h.6V7.1h.6V5.8h-.6v.6h-.6v.7h-.7v.6h-.6v.6h-.6v.6h-.6v.6h-.6v.6h-.6v.6h1.8v1.2h-.6v1.3h-.6v1.2h.6v-.6h.6v-.6h.6v-.6h.6v-.7h.7v-.6h.6v-.6h.6v-.6h.6v-.6h-1.8v-.6z"/><path d="M21.9 14.4h.6v.6h-.6z"/></g></svg></g>"><svg x="12" y="32"><g><g class="gotchi-sleeves gotchi-sleeves-left gotchi-sleeves-up"><path d="M36.5,9H38V8h1V7h1V0h-2v1h-1.5V9z" fill="#7d7d7d"/><path d="M38,7h1V1h-1v1h-1v6h1V7z"/></g><g class="gotchi-sleeves gotchi-sleeves-left gotchi-sleeves-down"><path d="M36.5,9H38v1h2V3h-1V2h-1V1h-1.5V9z" fill="#7d7d7d"/><path d="M38,2h-1v6h1v1h1V3h-1V2z"/></g><g class="gotchi-sleeves gotchi-sleeves-right gotchi-sleeves-up"><path d="M3.5,1H2V0H0v7h1v1h1v1h1.5V1z" fill="#7d7d7d"/><path d="M2,8h1V2H2V1H1v6h1V8z"/></g><g class="gotchi-sleeves gotchi-sleeves-right gotchi-sleeves-down"><path d="M3.5,1H2v1H1v1H0v7h2V9h1.5V1z" fill="#7d7d7d"/><path d="M2,3H1v6h1V8h1V2H2V3z"/></g></g>,</svg><g class="gotchi-wearable wearable-hand wearable-hand-left"><svg x="0" y="24"><path d="M16 1V0H1v1H0v7h1v1h7v14h1V9h7V8h1V1z" fill="#7d7d7d"/><path d="M15 1H1v7h15V1z"/><g fill="#f90"><path d="M6.3 2.3h-.9v4.5h2.7V2.3H6.3zm.9 1.8v1.8h-.9V3.2h.9v.9zm6.9-.9h.9v-.9h-2.6v4.4H15v-.9h-1.7v-.9H15v-.8h-1.7v-.9zm-4.3-.9h-.9v.9h.9v3.5h.9V3.2h.8v-.9h-.8zm-6.1.9v2.6h.9V2.3h-.9z"/><path d="M2.9 5.8h.9v.9h-.9z"/><path d="M2.9 4.1V2.3H2v3.5h.9v-.9z"/></g></svg></g><g class="gotchi-wearable wearable-hand wearable-hand-right"><svg x="4" y="27"><g transform="scale(-1, 1) translate(-56, 0)"><svg xmlns="http://www.w3.org/2000/svg" width="8" height="28" xmlns:v="https://vecta.io/nano"><path d="M8 22V0H0v4h2v18h2v1h2v-1h2zm-1 2h1v1H7z"/><path d="M6 25h1v1H6z"/><path d="M7 26h1v1H7zm-1-3h1v1H6zm-4 1h1v1H2z"/><path d="M3 25h1v1H3zm3 2h1v1H6zm-3 0h1v1H3z"/><path d="M2 26h1v1H2zm1-3h1v1H3z"/><path d="M2 2v2h2v18h2V2H2z" fill="#d2ffff"/><path d="M4 10h2v2H4zm0-4h2v2H4zm0 8h2v2H4zm0 4h2v2H4z" fill="#00afaf"/></svg></g></svg></g><g class="gotchi-wearable wearable-pet"><svg x="43" y="40"><svg xmlns="http://www.w3.org/2000/svg" width="19" height="19" xmlns:v="https://vecta.io/nano"><path d="M18 9V7h-1V5h-1V3h-1V2h-1V1h-1V0H6v1H5v1H4v1H3v2H2v2H1v2H0v4h1v2h1v2h1v1h1v1h11v-1h1v-1h1v-2h1v-2h1V9h-1z" fill="#323232"/><path d="M17 9V7h-1V5h-1V3h-1V2h-1V1H6v1H5v1H4v2H3v2H2v2H1v4h1v2h1v2h1v1h11v-1h1v-2h1v-2h1V9h-1z" fill="#7d7d7d"/><path d="M16 9V7h-1V5h-1V3h-1V2h-1V1H6v1H5v1H4v2H3v2H2v2H1v4h1v2h1v2h1v1h10v-1h1v-2h1v-2h1V9h-1zM3 12v-2h1V9h1v1H4v2h1v1H4v-1H3zm10-8v1h-1V4h-1V3h1v1h1zm0 11v1h-1v-1h1v-2h1v2h-1z" fill="#b2b2b2"/><path d="M10 10h1v1h-1z"/><path d="M8 11v1h2v-1H8z"/><path d="M8 6H7v1H6v1h1v1h1V8h1V7H8V6zm4 1V6h-1v1h-1v1h1v1h1V8h1V7h-1z" fill="red"/><g fill="#cdcdcd"><path d="M6 1h1v1H6z"/><path d="M5 2h1v1H5z"/><path d="M4 5h1V3H4v2z"/><path d="M3 7h1V5H3v2z"/><path d="M2 9h1V7H2v2z"/><path d="M1 13h1V9H1v4z"/><path d="M2 15h1v-2H2v2z"/><path d="M3 17h1v-2H3v2z"/><path d="M4 17h1v1H4z"/></g><path d="M11 7h1v1h-1zM7 7h1v1H7z" fill="#ffffae"/><g fill="#323232"><path d="M12 15h1v1h-1z"/><path d="M13 13v2h1v-2h-1zM4 9h1v1H4zm0 3h1v1H4z"/><path d="M3 12h1v-2H3v2zm8-9h1v1h-1z"/><path d="M12 4h1v1h-1z"/></g></svg></svg></g></svg>