<svg xmlns="http://www.w3.org/2000/svg" viewBox="0 0 64 64"><g class="gotchi-bg"><defs fill="#fff"><pattern id="a" patternUnits="userSpaceOnUse" width="4" height="4"><path d="M0 0h1v1H0zm2 2h1v1H2z"/></pattern><pattern id="b" patternUnits="userSpaceOnUse" x="0" y="0" width="2" height="2"><path d="M0 0h1v1H0z"/></pattern><pattern id="c" patternUnits="userSpaceOnUse" x="-2" y="0" width="8" height="1"><path d="M0 0h1v1H0zm2 0h1v1H2zm2 0h1v1H4z"/></pattern><pattern id="d" patternUnits="userSpaceOnUse" x="0" y="0" width="4" height="4"><path d="M0 0h1v1H0zm0 2h1v1H0zm1 0V1h1v1zm1 0h1v1H2zm0-1h1V0H2zm1 2h1v1H3z"/></pattern><pattern id="e" patternUnits="userSpaceOnUse" width="64" height="32"><path d="M4 4h1v1H4zm7 0h1v1h-1zm7 0h1v1h-1zm7 0h1v1h-1zm7 0h1v1h-1zm7 0h1v1h-1zm7 0h1v1h-1zm7 0h1v1h-1zm7 0h1v1h-1z"/><path fill="url(#a)" d="M0 8h64v7H0z"/><path fill="url(#b)" d="M0 16h64v1H0z"/><path fill="url(#c)" d="M0 18h64v1H0z"/><path fill="url(#b)" d="M22 18h15v1H22zM0 20h64v3H0z"/><path fill="url(#d)" d="M0 24h64v8H0z"/></pattern><mask id="f"><path fill="url(#e)" d="M0 0h64v32H0z"/></mask></defs><path fill="#fff" d="M0 0h64v32H0z"/><path fill="#dea8ff" class="gotchi-secondary" mask="url(#f)" d="M0 0h64v32H0z"/><path fill="#dea8ff" class="gotchi-secondary" d="M0 32h64v32H0z"/><path mask="url(#f)" fill="#fff" transform="matrix(1 0 0 -1 0 64)" d="M0 0h64v32H0z"/></g><style>.gotchi-primary{fill:#2664BA;}.gotchi-secondary{fill:#D4E0F1;}.gotchi-cheek{fill:#F696C6;}.gotchi-eyeColor{fill:#5D24BF;}.gotchi-primary-mouth{fill:#2664BA;}.gotchi-sleeves-up{display:none;}.gotchi-handsUp{display:none;}.gotchi-handsDownOpen{display:block;}.gotchi-handsDownClosed{display:none;}</style><g class="gotchi-body"><path d="M47 14v-2h-2v-2h-4V8h-4V6H27v2h-4v2h-4v2h-2v2h-2v41h4v-2h5v2h5v-2h6v2h5v-2h5v2h4V14z" class="gotchi-primary"/><path d="M45 14v-2h-4v-2h-4V8H27v2h-4v2h-4v2h-2v39h2v-2h5v2h5v-2h6v2h5v-2h5v2h2V14z" class="gotchi-secondary"/><path d="M18,49h2v-1h2v1h2v2h5v-2h2v-1h2v1h2v2h5v-2h2v-1h2v1h1V14h-4v-2h-4v-2h-5V9h-5v2h-4v2h-4v2h-1V49z" fill="#fff"/></g><path class="gotchi-cheek" d="M21 32v2h2v-2h-1zm21 0h-1v2h2v-2z"/><g class="gotchi-primary-mouth"><path d="M29 32h-2v2h2v-1z"/><path d="M33 34h-4v2h6v-2h-1z"/><path d="M36 32h-1v2h2v-2z"/></g>
    <style>
        .gotchi-bg { display: none }
    </style>
<g class="gotchi-shadow"><path opacity=".25" d="M25 58H19v1h1v1h24V59h1V58h-1z" fill="#000"/></g><g class="gotchi-collateral" fill="#2664ba"><path d="M30 15v2h3v1h-3v1h1.5v1h1v-1H34v-3h-3v-1h3v-1h-1.5v-1h-1v1H30zm4 5h1v1h-1z"/><path d="M35 19h1v1h-1z"/><path d="M36 16v3h1v-5h-1v1zm-2-4h1v1h-1z"/><path d="M35 13h1v1h-1zm-7 5v-4h-1v5h1zm1 2h1v1h-1z"/><path d="M28 19h1v1h-1zm1-7h1v1h-1z"/><path d="M28 13h1v1h-1z"/></g><g class="gotchi-eyeColor"><path d="M39 23v1h-1v-1h1v-1h-2v1h-1v2h1v1h2v-1h1v-2h-1z" /><g class="gotchi-primary"><path d="M34 25h-1v1h1v-1zm7 0v1h1v-2h-1v1zm-4-2v-1h-2v1h2z" /><path d="M44 21h-7v1h5v2h1v-1h1v-1h1v-1h-1zm-9 5h-1v1h2v-1h-1z" /><path d="M38 27h-2v1h4v-1h-2zm-3-3v-1h-1v2h1v-1z" /><path d="M41 26h-1v1h1v-1z" /></g><path d="M27 22h-2v1h1v1h-1v-1h-1v2h1v1h2v-1h1v-2h-1v-1z" /><g class="gotchi-primary"><path d="M31 25h-1v1h1v-1zm-8-1h-1v2h1v-2z" /><path d="M22 22h5v-1h-8v1h1v1h1v1h1v-2z" /><path d="M28 23h1v-1h-2v1h1zm0 3v1h2v-1h-2z" /><path d="M26 27h-2v1h4v-1h-2zm3-2h1v-2h-1v2z" /><path d="M24 26h-1v1h1v-1z" /></g></g><g class="gotchi-wearable wearable-body"><svg x="12" y="32"><path d="M35 1v1h-2v1h-2v1h-2v1h-4v1h-3v1h-4V6h-3V5h-4V4H9V3H7V2H5V1H2.5v8H3v14h4v-2h5v2h5v-2h6v2h5v-2h5v2h4V9h.5V1H35z" fill="#c8c8c8"/><g fill="#fff"><path d="M17 13h-1v-1h-1v-1h-1v-1h-2V9h-1V8H9V7H7V6H6V5H5V3H4v17h15v-5h-1v-1h-1v-1zm-9-2h3v2H8v-2zm-1 8v-5h5v5H7zm16-6v-1h1v-1h1v-1h1V9h2V8h1V7h2V6h2V5h1V3h-1v1h-2v1h-2v1h-4v1h-2v2h-1v1h-1v4h1v-1h1z"/><path d="M18 9h-1V7h-2V6h-4V5H9V4H7V3H6v2h1v1h2v1h2v1h1v1h2v1h1v1h1v1h1v1h1v1h1v-4h-1V9zm17-4h-1v1h-1v1h-2v1h-2v1h-1v1h-2v1h-1v1h-1v1h-1v1h-1v1h-2v1h1v1h-1v1h1v1h-1v1h16V3h-1v2zm-3 5v1h-3v-1h3zm-5 9v-6h1v-1h5v1h1v6h-7z"/></g><path d="M32,12h1v1h-1V12z" fill="#698bd9"/><path d="M32,13h1v1h-1V13z" fill="#e2e5f3"/><path d="M30,13h1v1h-1V13z" fill="#45322f"/><path d="M31,13h1v1h-1V13z" fill="#d9c6b2"/><path d="M28,12h1v1h-1V12z" fill="#76946f"/><path d="M29,12h1v1h-1V12z" fill="#cad4e4"/><path d="M18 7v1h1v6h2V8h1V7h-4zm12 9h1v1h-1v-1z"/><g fill="#ddd9d6"><path d="M30,14h1v2h-1V14z"/><path d="M31,16v1h-1v-1h-1v2h3v-2H31z"/></g><path d="M33,13h1v1h-1V13z" fill="#556592"/><path d="M30,12h1v1h-1V12z" fill="#5666bc"/><path d="M29,13h1v1h-1V13z" fill="#f6d435"/><path d="M28,13h1v1h-1V13z" fill="#e6bf8f"/><path d="M31,12h1v1h-1V12z" fill="#c23e3f"/><path d="M27,13h1v1h-1V13z" fill="#f75457"/><path d="M7 15v1h5v-1H7zm19-8h1v1h-1V7zM13 7h1v1h-1V7zm7 11h1v1h-1v-1zm0-2h1v1h-1v-1z" fill="orange"/></svg></g><g class="gotchi-handsDownClosed"><g class="gotchi-primary"><path d="M19 42h1v1h-1zm1-6h1v1h-1z"/><path d="M21 37h1v1h-1zm5 3v4h1v-4zm-5 3h-1v1h2v-1z"/><path d="M24 44h-2v1h4v-1h-1zm1-5h-1v1h2v-1z"/><path d="M23 38h-1v1h2v-1z"/></g><g class="gotchi-secondary"><path d="M19 43h1v1h-1zm5 2h-2v1h4v-1h-1z"/><path d="M27 41v3h1v-3zm-6 3h-1v1h2v-1z"/><path d="M26 44h1v1h-1zm-7-3h-1v2h1v-1z"/></g><g class="gotchi-primary"><path d="M44 42h1v1h-1zm-1-6h1v1h-1z"/><path d="M42 37h1v1h-1z"/><path d="M42 39v-1h-2v1h1zm0 4v1h2v-1h-1z"/><path d="M40 44h-2v1h4v-1h-1z"/><path d="M38 42v-2h-1v4h1v-1z"/><path d="M40 40v-1h-2v1h1z"/></g><g class="gotchi-secondary"><path d="M42 44v1h2v-1h-1zm-5-2v-1h-1v3h1v-1z"/><path d="M40 45h-2v1h4v-1h-1z"/><path d="M37 44h1v1h-1zm7-1h1v1h-1z"/></g></g><g class="gotchi-handsDownOpen"><g class="gotchi-primary"><path d="M56 38v-1h-2v-1h-2v-1h-1v-1h-1v-1h-1v8h1v1h2v1h4v-1h1v-4z"/></g><g class="gotchi-secondary"><path d="M54 38v-1h-2v-1h-1v-1h-1v-1h-1v6h1v1h2v1h4v-4z" /></g><path d="M54,38v-1h-2v-1h-1v-1h-1v-1h-1v5h1v1h2v1h4v-3H54z" fill="#fff"/><g class="gotchi-primary"><path d="M8 38v-1h2v-1h2v-1h1v-1h1v-1h1v8h-1v1h-2v1H8v-1H7v-4z"/></g><g class="gotchi-secondary"><path d="M10 38v-1h2v-1h1v-1h1v-1h1v6h-1v1h-2v1H8v-4z" /></g><path d="M8,38v3h4v-1h2v-1h1v-5h-1v1h-1v1h-1v1h-2v1H8z" fill="#fff"/></g><g class="gotchi-handsUp"><g class="gotchi-secondary"><path d="M50,38h1v1h-1V38z"/><path d="M49 39h1v1h-1v-1zm2-2h1v1h-1v-1z"/><path d="M52,36h2v1h-2V36z"/><path d="M54,35h2v1h-2V35z"/></g><path d="M52,32v1h-2v1h-1v5h1v-1h1v-1h1v-1h2v-1h2v-3H52z" fill="#fff"/><g class="gotchi-primary"><path d="M49,33h1v1h-1V33z"/><path d="M50 32h2v1h-2v-1zm0 7h1v1h-1v-1z"/><path d="M49 40h1v1h-1v-1zm2-2h1v1h-1v-1z"/><path d="M52 37h2v1h-2v-1zm0-6h4v1h-4v-1z"/><path d="M56,32h1v4h-1V32z"/><path d="M54,36h2v1h-2V36z"/></g><g class="gotchi-secondary"><path d="M13,38h1v1h-1V38z"/><path d="M14 39h1v1h-1v-1zm-2-2h1v1h-1v-1z"/><path d="M10,36h2v1h-2V36z"/><path d="M8,35h2v1H8V35z"/></g><path d="M8,32v3h2v1h2v1h1v1h1v1h1v-5h-1v-1h-2v-1H8z" fill="#fff"/><g class="gotchi-primary"><path d="M14,33h1v1h-1V33z"/><path d="M12 32h2v1h-2v-1zm1 7h1v1h-1v-1z"/><path d="M14 40h1v1h-1v-1zm-2-2h1v1h-1v-1z"/><path d="M10 37h2v1h-2v-1zm-2-6h4v1H8v-1z"/><path d="M7,32h1v4H7V32z"/><path d="M8,36h2v1H8V36z"/></g></g><g class="gotchi-wearable wearable-head"><svg x="9" y="1"><path d="M6 12v2h1v1h1v1h1v1h1v1h1v1h3v1h18v-1h3v-1h1v-1h1v-1h1v-1h1v-1h1v-2z"/><path d="M4 12v-2H2V8H0V6h4V4h4V2h4V0h22v2h4v2h4v2h4v2h-2v2h-2v2z" fill="#fff"/><g fill="#c8c8c8"><path d="M1,7V6H0v2h2V7H1z"/><path d="M3,9V8H2v2h2V9H3z"/><path d="M5 10H4v2h2v-1H5v-1zm36 1h-1v1h2v-2h-1v1zm4-5v1h-1v1h2V6h-1z"/><path d="M43,9h-1v1h2V8h-1V9z"/></g><g fill="#2f2f2f"><path d="M10 17h1v1h-1v-1zm25 0h1v1h-1v-1z"/><path d="M11 18h1v1h-1v-1zm23 0h1v1h-1v-1zM8 15h1v1H8v-1z"/><path d="M7,14h1v1H7V14z"/><path d="M7 12H6v2h1v-2zm31 2h1v1h-1v-1z"/><path d="M39 12v2h1v-2h-1zm-2 3h1v1h-1v-1z"/><path d="M9 16h1v1H9v-1zm27 0h1v1h-1v-1z"/></g><path d="M27 4V3h-1V2h-1V1h-4v1h-1v1h-1v1h-1v4h1v1h1v1h1v1h4v-1h1V9h1V8h1V4h-1zm-3-1v1h1v1h1v2h-1v1h-1v1h-2V8h-1V7h-1V5h1V4h1V3h2z" fill="#0000b9"/><path d="M6,11v1h34v-1H6z" fill="orange"/></svg></g>"><svg x="12" y="32"><g><g class="gotchi-sleeves gotchi-sleeves-left gotchi-sleeves-up"><path d="M38,0v1h-1.5v8H38V8h1V7h1V0H38z" fill="#c8c8c8"/><path d="M37,7h1v1h-1V7z" fill="orange"/><path d="M37,7h2V1h-1v1h-1V7z" fill="#fff"/></g><g class="gotchi-sleeves gotchi-sleeves-left gotchi-sleeves-down"><path d="M39 3V2h-1V1h1V0h-2v1h-.5v8H38v1h2V3h-1z" fill="#c8c8c8"/><path d="M37,2h1v1h-1V2z" fill="orange"/><path d="M37,8h1v1h1V3h-2V8z" fill="#fff"/></g><g class="gotchi-sleeves gotchi-sleeves-right gotchi-sleeves-up"><path d="M2,0v1h1.5v8H2V8H1V7H0V0H2z" fill="#c8c8c8"/><path d="M3,8H2V7h1V8z" fill="orange"/><path d="M3,2H2V1H1v6h2V2z" fill="#fff"/></g><g class="gotchi-sleeves gotchi-sleeves-right gotchi-sleeves-down"><path d="M1,0v1h1v1H1v1H0v7h2V9h1.5V1H3V0H1z" fill="#c8c8c8"/><path d="M2,2h1v1H2V2z" fill="orange"/><path d="M3,3H1v6h1V8h1V3z" fill="#fff"/></g></g></svg><g class="gotchi-wearable wearable-hand wearable-hand-left"><svg x="1" y="31"><path d="M13 4V3h-1V2h-1V1h-1V0H4v1H3v1H2v1H1v1H0v6h1v1h1v1h1v1h1v1h6v-1h1v-1h1v-1h1v-1h1V4z" fill="#646464"/><path d="M12,4V3h-1V2h-1V1H4v1H3v1H2v1H1v6h1v1h1v1h1v1h6v-1h1v-1h1v-1h1V4H12z" fill="#b4b4b4"/><path d="M7,7.5v4h1v-1h1v-1h1v-1h1v-1H7z"/><path d="M1 3h1v1H1V3zm5 .5H5v1H4v1H3v2h4v-5H6v1z" fill="#646464"/><g fill="#323232"><path d="M3,7.5v1h1v1h1v1h1v1h1v-4H3z"/><path d="M10,5.5v-1H9v-1H8v-1H7v5h4v-2H10z"/></g></svg></g><g class="gotchi-wearable wearable-hand wearable-hand-right"><svg x="5" y="25"><g transform="scale(-1, 1) translate(-54, 0)"><path d="M0 5v8h1v1h1v4H1v1h3v-1H3v-4h1v-1h1V5z" fill="#0000b9"/><path d="M1,6v7h3V6H1z" fill="#fff"/><path d="M1 8v5h3V8H1zm1-5h1v1H2V3zm1-2h1v1H3V1zM1 0h1v1H1V0z" fill="#ffffbe"/></g></svg></g></svg>