<svg xmlns="http://www.w3.org/2000/svg" viewBox="0 0 64 64"><g class="gotchi-bg"><defs fill="#fff"><pattern id="a" patternUnits="userSpaceOnUse" width="4" height="4"><path d="M0 0h1v1H0zm2 2h1v1H2z"/></pattern><pattern id="b" patternUnits="userSpaceOnUse" x="0" y="0" width="2" height="2"><path d="M0 0h1v1H0z"/></pattern><pattern id="c" patternUnits="userSpaceOnUse" x="-2" y="0" width="8" height="1"><path d="M0 0h1v1H0zm2 0h1v1H2zm2 0h1v1H4z"/></pattern><pattern id="d" patternUnits="userSpaceOnUse" x="0" y="0" width="4" height="4"><path d="M0 0h1v1H0zm0 2h1v1H0zm1 0V1h1v1zm1 0h1v1H2zm0-1h1V0H2zm1 2h1v1H3z"/></pattern><pattern id="e" patternUnits="userSpaceOnUse" width="64" height="32"><path d="M4 4h1v1H4zm7 0h1v1h-1zm7 0h1v1h-1zm7 0h1v1h-1zm7 0h1v1h-1zm7 0h1v1h-1zm7 0h1v1h-1zm7 0h1v1h-1zm7 0h1v1h-1z"/><path fill="url(#a)" d="M0 8h64v7H0z"/><path fill="url(#b)" d="M0 16h64v1H0z"/><path fill="url(#c)" d="M0 18h64v1H0z"/><path fill="url(#b)" d="M22 18h15v1H22zM0 20h64v3H0z"/><path fill="url(#d)" d="M0 24h64v8H0z"/></pattern><mask id="f"><path fill="url(#e)" d="M0 0h64v32H0z"/></mask></defs><path fill="#fff" d="M0 0h64v32H0z"/><path fill="#dea8ff" class="gotchi-secondary" mask="url(#f)" d="M0 0h64v32H0z"/><path fill="#dea8ff" class="gotchi-secondary" d="M0 32h64v32H0z"/><path mask="url(#f)" fill="#fff" transform="matrix(1 0 0 -1 0 64)" d="M0 0h64v32H0z"/></g><style>.gotchi-primary{fill:#B6509E;}.gotchi-secondary{fill:#CFEEF4;}.gotchi-cheek{fill:#F696C6;}.gotchi-eyeColor{fill:#0064FF;}.gotchi-primary-mouth{fill:#B6509E;}.gotchi-sleeves-up{display:none;}.gotchi-handsUp{display:none;}.gotchi-handsDownOpen{display:block;}.gotchi-handsDownClosed{display:none;}</style><g class="gotchi-body"><path d="M47 14v-2h-2v-2h-4V8h-4V6H27v2h-4v2h-4v2h-2v2h-2v41h4v-2h5v2h5v-2h6v2h5v-2h5v2h4V14z" class="gotchi-primary"/><path d="M45 14v-2h-4v-2h-4V8H27v2h-4v2h-4v2h-2v39h2v-2h5v2h5v-2h6v2h5v-2h5v2h2V14z" class="gotchi-secondary"/><path d="M18,49h2v-1h2v1h2v2h5v-2h2v-1h2v1h2v2h5v-2h2v-1h2v1h1V14h-4v-2h-4v-2h-5V9h-5v2h-4v2h-4v2h-1V49z" fill="#fff"/></g><path class="gotchi-cheek" d="M21 32v2h2v-2h-1zm21 0h-1v2h2v-2z"/><g class="gotchi-primary-mouth"><path d="M29 32h-2v2h2v-1z"/><path d="M33 34h-4v2h6v-2h-1z"/><path d="M36 32h-1v2h2v-2z"/></g>
    <style>
        .gotchi-bg { display: none }
    </style>
<g class="gotchi-shadow"><path opacity=".25" d="M25 58H19v1h1v1h24V59h1V58h-1z" fill="#000"/></g><g class="gotchi-collateral" fill="#a73796"><path d="M30.5 15h1v-2h-1z"/><path d="M31.5 12h1v1h-1z"/><path d="M33.5 13h-1v2h1zm-4 3h-2v1h1v2h1v-2h2v-1h-1v-1h-1z"/><path d="M34.5 15h-1v2h1z"/><path d="M35.5 17h-1v2h1zm-8 4h1v-2h-1z"/><path d="M35.5 19v2h1v-2z"/></g><g class="gotchi-eyeColor"><path d="M23 28V29V30H24H25H26H27V29V28H28H29V27V26V25V24H28H27V23V22H26H25H24H23V23V24H22H21V25V26V27V28H22H23Z" /><path d="M35 24V25V26V27V28H36H37V29V30H38H39H40H41V29V28H42H43V27V26V25V24H42H41V23V22H40H39H38H37V23V24H36H35Z" /></g><g class="gotchi-wearable wearable-body"><svg x="15" y="33"><path d="M31,0v1h-1v1h-1v1h-1v1h-1v1h-1v1h-2v1h-2v1h-3v1h-4V8h-3V7h-2V6H8V5H7V4H6V3H5V2H4V1H3V0H0v20h34V0H31z" fill="#a000dc"/><path d="M31 1v1h-1v1h-1v1h-1v1h-1v1h-1v1h-2v1h-2v1h-3v1h-4V9h-3V8h-2V7H8V6H7V5H6V4H5V3H4V2H3V1H1v18h32V1h-2zm-8.75 9.96h-.55v.55h-.55v.55h-.55v.55h-.55v.55h1.66v.55h-.55v.55h-.55v.55h-.55v.55h-.55v.55h-.55v.55h-.55v.55h-.55v.55H16.2v-.55h-.55v-.55h-.55v-.55h-.55v-.55H14v-.55h-.55v-.55h-.55v-.55h-.6v-.55h1.66v-.55h-.55v-.55h-.55v-.55h-.56v-.55h-.55v-.55h2.21v.55h.55v.55h.55v.55h.55v.55h.55v.55h.55v.55h-1.66v.55h.55v.55h.55v.55h.55v.55h.55v-.55h.55v-.55h.55v-.55h.55v-.55h-1.66v-.55h.55v-.55h.55v-.55h.55v-.55h.55v-.55h.55v-.55h2.21v.55h.05 0z" fill="#d778f5"/><path d="M13 7h-1V6h-1V5h-1V4H8V3H6V2H4V1H3V0H0v20h14V8h-1V7zm18-7v1h-1v1h-2v1h-2v1h-2v1h-1v1h-1v1h-1v1h-1v12h14V0h-3z" fill="#232323"/><path d="M12 7h-1V6h-1V5H8V4H6V3H4V2H3V1H1v18h12V8h-1V7zm19-6v1h-1v1h-2v1h-2v1h-2v1h-1v1h-1v1h-1v11h12V1h-2z"/><path d="M4,8v1h1v1h2V9h1V8H4z" fill="#232323"/><path d="M5,8h2v1H5V8z" fill="#646464"/><path d="M26,8v1h1v1h2V9h1V8H26z" fill="#232323"/><path d="M27,8h2v1h-2V8z" fill="#646464"/><path d="M4 14v1h4v-1H4zm22 0v1h4v-1h-4z" fill="#232323"/><path d="M4 14h1v1H4v-1zm3 0h1v1H7v-1zm22 0h1v1h-1v-1zm-3 0h1v1h-1v-1zm-15 0h1v1h-1v-1zm0-2h1v1h-1v-1zm0 4h1v1h-1v-1zm0-6h1v1h-1v-1zm11 4h1v1h-1v-1zm0-2h1v1h-1v-1zm0 4h1v1h-1v-1zm0-6h1v1h-1v-1z" fill="#646464"/>
</svg></g><g class="gotchi-handsDownClosed"><g class="gotchi-primary"><path d="M19 42h1v1h-1zm1-6h1v1h-1z"/><path d="M21 37h1v1h-1zm5 3v4h1v-4zm-5 3h-1v1h2v-1z"/><path d="M24 44h-2v1h4v-1h-1zm1-5h-1v1h2v-1z"/><path d="M23 38h-1v1h2v-1z"/></g><g class="gotchi-secondary"><path d="M19 43h1v1h-1zm5 2h-2v1h4v-1h-1z"/><path d="M27 41v3h1v-3zm-6 3h-1v1h2v-1z"/><path d="M26 44h1v1h-1zm-7-3h-1v2h1v-1z"/></g><g class="gotchi-primary"><path d="M44 42h1v1h-1zm-1-6h1v1h-1z"/><path d="M42 37h1v1h-1z"/><path d="M42 39v-1h-2v1h1zm0 4v1h2v-1h-1z"/><path d="M40 44h-2v1h4v-1h-1z"/><path d="M38 42v-2h-1v4h1v-1z"/><path d="M40 40v-1h-2v1h1z"/></g><g class="gotchi-secondary"><path d="M42 44v1h2v-1h-1zm-5-2v-1h-1v3h1v-1z"/><path d="M40 45h-2v1h4v-1h-1z"/><path d="M37 44h1v1h-1zm7-1h1v1h-1z"/></g></g><g class="gotchi-handsDownOpen"><g class="gotchi-primary"><path d="M56 38v-1h-2v-1h-2v-1h-1v-1h-1v-1h-1v8h1v1h2v1h4v-1h1v-4z"/></g><g class="gotchi-secondary"><path d="M54 38v-1h-2v-1h-1v-1h-1v-1h-1v6h1v1h2v1h4v-4z" /></g><path d="M54,38v-1h-2v-1h-1v-1h-1v-1h-1v5h1v1h2v1h4v-3H54z" fill="#fff"/><g class="gotchi-primary"><path d="M8 38v-1h2v-1h2v-1h1v-1h1v-1h1v8h-1v1h-2v1H8v-1H7v-4z"/></g><g class="gotchi-secondary"><path d="M10 38v-1h2v-1h1v-1h1v-1h1v6h-1v1h-2v1H8v-4z" /></g><path d="M8,38v3h4v-1h2v-1h1v-5h-1v1h-1v1h-1v1h-2v1H8z" fill="#fff"/></g><g class="gotchi-handsUp"><g class="gotchi-secondary"><path d="M50,38h1v1h-1V38z"/><path d="M49 39h1v1h-1v-1zm2-2h1v1h-1v-1z"/><path d="M52,36h2v1h-2V36z"/><path d="M54,35h2v1h-2V35z"/></g><path d="M52,32v1h-2v1h-1v5h1v-1h1v-1h1v-1h2v-1h2v-3H52z" fill="#fff"/><g class="gotchi-primary"><path d="M49,33h1v1h-1V33z"/><path d="M50 32h2v1h-2v-1zm0 7h1v1h-1v-1z"/><path d="M49 40h1v1h-1v-1zm2-2h1v1h-1v-1z"/><path d="M52 37h2v1h-2v-1zm0-6h4v1h-4v-1z"/><path d="M56,32h1v4h-1V32z"/><path d="M54,36h2v1h-2V36z"/></g><g class="gotchi-secondary"><path d="M13,38h1v1h-1V38z"/><path d="M14 39h1v1h-1v-1zm-2-2h1v1h-1v-1z"/><path d="M10,36h2v1h-2V36z"/><path d="M8,35h2v1H8V35z"/></g><path d="M8,32v3h2v1h2v1h1v1h1v1h1v-5h-1v-1h-2v-1H8z" fill="#fff"/><g class="gotchi-primary"><path d="M14,33h1v1h-1V33z"/><path d="M12 32h2v1h-2v-1zm1 7h1v1h-1v-1z"/><path d="M14 40h1v1h-1v-1zm-2-2h1v1h-1v-1z"/><path d="M10 37h2v1h-2v-1zm-2-6h4v1H8v-1z"/><path d="M7,32h1v4H7V32z"/><path d="M8,36h2v1H8V36z"/></g></g><g class="gotchi-wearable wearable-face"><svg x="21" y="32"><path d="M21 9v1h-1V8h-1V5h-1V2h-1V1h-1V0h-3v1h-1v1h-2V1H9V0H6v1H5v1H4v3H3v3H2v2H1V9H0v2h4v-1h1V9h1V8h1V7h1V6h1V5h1V4h2v1h1v1h1v1h1v1h1v1h1v1h1v1h4V9h-1z" fill="#5c2700"/><g fill="#724422"><path d="M5 5h1V3H5v2z"/><path d="M6 2v1h2V2H6zm10 1v2h1V3h-1z"/><path d="M14 2v1h2V2h-2z"/></g></svg></g><g class="gotchi-wearable wearable-head"><svg x="15" y="2"><path d="M32 5V3h-2V2h-2V0H6v2H4v1H2v2H0v9h1v1h1v1h1v1h1v1h1v1h3v1h18v-1h3v-1h1v-1h1v-1h1v-1h1v-1h1V5z"/><path d="M1 14h1v1h1v1h1v1h1v1h3v1h18v-1h3v-1h1v-1h1v-1h1v-1h1v-2H1zm31-8V5h-1V4h-1V3h-2V2h-1V1H7v1H6v1H4v1H3v1H2v1H1v5h32V6z" fill="#51774e"/><g fill="#66553b"><path d="M2 5h2v1H2V5zm16 3V6h-2V4h-2v1h1v1h-2V5h-1V4h-1V2H9v1h1v2H9v2h3v1h2V7h1v1h3z"/><path d="M10 10h1V9H9v2h1v-1zM3 9v1h1V8H3V7H2V6H1v2h1v1h1zm25-2h2V6h1V5h-1V3h-1v2h-1v2zm-1-2h-1V4h-1v2h-2V5h1V3h1V1h-2v2h-2v1h-2v1h3v3h1V7h3V6h1V5zm0 4h4v1h-4V9z"/><path d="M32 6v2h-1v1h2V6h-1zm-5 1h1v1h-1V7zm-3 3v1h1V8h-2v2h1zm-4-2h1v2h-1V8zM4 3h2v1H4V3zm23-1h1v1h-1V2zm-7-1h1v2h-1V1zm1 12h-2v-1h-1v1h-2v2h3v-1h1v1h2v-1h3v-2h-4v1zm9-1h2v1h-2v-1zm-7 5h1v2h1v-3h-2v1zm7-2h1v1h-1v-1z"/><path d="M31 14h1v1h-1v-1zM3 12v1h1v1h2v-2H3zm-2 1h1v1H1v-1zm3 3h3v1H4v-1z"/><path d="M6 14h1v1H6v-1zm5 1H9v4h1v-2h1v-2z"/><path d="M12 12h-1v1H9v-1H7v1h1v1h3v1h1v-3zm-1 6h2v1h-2v-1zm2-3h1v2h-1v-2zm19-2h1v1h-1v-1z"/></g><path d="M13 5h2v1h-2V5zM9 6H8V5H7V4H6v1H4v1h2v1H5v1h3v3h1V9h2v1h1V7H9V6zM3 9H2v2h2v-1H3V9zm22-5h3V3h-1V1h-2v2h-1v2h-1v1h2V4zm6 6h2v1h-2v-1zm-6 0h2V7h1V5h-1v1h-1v1h-3v1h2v2zm-5-2h-5v1h-1v2h3v-1h3V8zm10-2h2v1h-2V6zM18 5h1V3h1V1h-5v1h-1v1h4v2zM8 3h1V2h2v1h1V1H8v2zm11 9h2v1h-2v-1zm1 4h-1v-1h-5v2h3v2h5v-1h-2v-2zM9 12h2v1H9v-1zm-1 1H7v-1H6v2h1v3h2v-2h2v-1H8v-1zm18 0h-1v1h-3v3h1v-1h2v3h1v-4h3v-1h-1v-1h2v-1h-4v1zM2 13h2v1H2v-1zm30-1h1v1h-1v-1z" fill="#cab983"/></svg></g><g class="gotchi-wearable wearable-hand wearable-hand-left"><svg x="1" y="33"><path d="M11 3V2h-1V1H9V0H3v1H2v1H1v1H0v6h1v1h1v1h1v1h6v-1h1v-1h1V9h1V3z" fill="#fa34f3"/><path d="M0,6v2h12V6H0z" fill="#ac15f9"/><path d="M0,4v2h12V4H0z" fill="#cf15f9"/><path d="M0,8v1h1v1h10V9h1V8H0z" fill="#8f17f9"/><path d="M2,10v1h1v1h6v-1h1v-1H2z" fill="#7e18f8"/><g fill="#fff"><path d="M7.9 6.8h.4v-.6h-.4v.6z"/><path d="M6.4 6.8v.5h.9v.4h.4v-.4h.2v-.5H6.4zm.4-.6h1.1v-.4H6.8v.4z"/><path d="M6.4 5.2v.6h.4v-.6h-.4z"/><path d="M7.7 4.7v-.4h-.4v.4h-.5v.5h1.5v-.5h-.6zm1.9 2.6h.4V5.2h.9v-.5H8.8v.5h.8v2.1zm-4-2.6v1.1H4.5V4.7h-.4v2.6h.4V6.2h1.1v1.1H6V4.7h-.4zM2 4.7v.5h1.7v-.5H2zm1.7 2.1v-1H2.4v.4h.8v.6h.5z"/><path d="M2 7.3h1.2v-.5H2v.5z"/><path d="M1.6,5.2v1.6H2V5.2H1.6z"/></g></svg></g><g class="gotchi-wearable wearable-hand wearable-hand-right"><svg x="5" y="31"><g transform="scale(-1, 1) translate(-54, 0)"><path d="M7,3V2H6V1H5V0H1v1h1v1h3v1h1v1h1v3h1V3H7z"/><path d="M3,1h1v1H3V1z" fill="#757575"/><path d="M5 5V3H4V2H2v1H1v2H0v3h1v2h1v1h2v-1h1V8h1V5z" fill="#33691e"/><path d="M4 5V3H2v2H1v3h1v2h2V8h1V5z" fill="#689f38"/><path d="M5,6V5H4V3H3v2H1v1h2v1H1v1h2v1h1V8h1V7H4V6H5z" fill="#558b2f"/></g></svg></g><g class="gotchi-wearable wearable-pet"><svg x="40" y="45"><path d="M12 3h1v1h-1zm8-2h1v1h-1zm-6 0h1v1h-1zm8 2h1v1h-1z" fill="#0f0"/><path d="M22 4h-1V3h-1V2h-1V1h-1V0h-1v1h-1v1h-1v1h-1v1h-1v2h-1v1h1v1h1v1h1v1h5V9h1V8h1V7h1V6h-1V4z" fill="#009300"/><path d="M18 3V2h1V1h-1V0h-1v1h-1v1h1v1h1zm-6 3h1v1h-1zm0-3h1v1h-1zm6 3h1v1h-1zm-2-2h1v1h-1zm4-3h1v1h-1zm-6 0h1v1h-1zm5 7h1v1h-1zm-4 0h1v1h-1zm5-4h1v1h-1zm2 2h1v1h-1zm0-3h1v1h-1z" fill="#f0f"/><path d="M17 4v6h1V3h-1v1zm2-1v5h1V2h-1v1zm0 6h1v1h-1zm-4-6v5h1V2h-1v1zm0 6h1v1h-1zm6-5v4h1V4h-1zm-8 1v3h1V4h-1v1z" fill="#006300"/><path d="M17 1h1v1h-1z" fill="#ff0"/><path d="M0 6h1v1H0zm8-2h1v1H8zM2 4h1v1H2z" fill="#0f0"/><path d="M9 6H8V5H7V4H6V3H5v1H4v1H3v1H2v1H1v2H0v1h1v1H0v1h1v1h1v1h1v1h5v-1h1v-1h1v-1h1v-1h-1v-1h1V9h-1V7H9V6z" fill="#009300"/><path d="M10 6h1v1h-1z" fill="#0f0"/><path d="M6 6V5h1V4H6V3H5v1H4v1h1v1h1zm-6 5h1v1H0zm0-2h1v1H0zm0-3h1v1H0zm6 4h1v1H6zM4 7h1v1H4zm4-3h1v1H8zM2 4h1v1H2zm5 8h1v1H7zm-4 0h1v1H3zm5-4h1v1H8zm2 3h1v1h-1zm0-2h1v1h-1zm0-3h1v1h-1zM2 8h1v1H2z" fill="#f0f"/><path d="M5 7v8h1V6H5v1zm2-1v6h1V5H7v1zm0 8v1h1v-2H7v1zM3 6v6h1V5H3v1zm0 8v1h1v-2H3v1zm6-6v5h1V7H9v1zM1 8v5h1V7H1v1z" fill="#006300"/><path d="M5 4h1v1H5z" fill="#ff0"/><g fill="#009300"><path d="M16 13v-1h-1v-1h-1v-1h-1v1h-1v2h-1v1h-1v1h1v1h1v1h4v-1h1v-1h1v-1h-1v-1h-1z"/><path d="M17 12h1v1h-1z"/></g><path d="M13 14v3h1v-4h-1v1zm2-2h1v1h-1zm0 3v2h1v-3h-1v1zm-4-1v2h1v-3h-1v1z" fill="#006300"/><path d="M14 13v-1h1v-1h-1v-1h-1v1h-1v1h1v1zm0 3h1v1h-1zm-2-2h1v1h-1zm-2 0h1v1h-1zm5-1h1v1h-1zm2-1h1v1h-1zm0 2h1v1h-1z" fill="#f0f"/><path d="M13 11h1v1h-1z" fill="#ff0"/></svg></g></svg>