<svg xmlns="http://www.w3.org/2000/svg" viewBox="0 0 64 64"><g class="gotchi-bg"><defs fill="#fff"><pattern id="a" patternUnits="userSpaceOnUse" width="4" height="4"><path d="M0 0h1v1H0zm2 2h1v1H2z"/></pattern><pattern id="b" patternUnits="userSpaceOnUse" x="0" y="0" width="2" height="2"><path d="M0 0h1v1H0z"/></pattern><pattern id="c" patternUnits="userSpaceOnUse" x="-2" y="0" width="8" height="1"><path d="M0 0h1v1H0zm2 0h1v1H2zm2 0h1v1H4z"/></pattern><pattern id="d" patternUnits="userSpaceOnUse" x="0" y="0" width="4" height="4"><path d="M0 0h1v1H0zm0 2h1v1H0zm1 0V1h1v1zm1 0h1v1H2zm0-1h1V0H2zm1 2h1v1H3z"/></pattern><pattern id="e" patternUnits="userSpaceOnUse" width="64" height="32"><path d="M4 4h1v1H4zm7 0h1v1h-1zm7 0h1v1h-1zm7 0h1v1h-1zm7 0h1v1h-1zm7 0h1v1h-1zm7 0h1v1h-1zm7 0h1v1h-1zm7 0h1v1h-1z"/><path fill="url(#a)" d="M0 8h64v7H0z"/><path fill="url(#b)" d="M0 16h64v1H0z"/><path fill="url(#c)" d="M0 18h64v1H0z"/><path fill="url(#b)" d="M22 18h15v1H22zM0 20h64v3H0z"/><path fill="url(#d)" d="M0 24h64v8H0z"/></pattern><mask id="f"><path fill="url(#e)" d="M0 0h64v32H0z"/></mask></defs><path fill="#fff" d="M0 0h64v32H0z"/><path fill="#dea8ff" class="gotchi-secondary" mask="url(#f)" d="M0 0h64v32H0z"/><path fill="#dea8ff" class="gotchi-secondary" d="M0 32h64v32H0z"/><path mask="url(#f)" fill="#fff" transform="matrix(1 0 0 -1 0 64)" d="M0 0h64v32H0z"/></g><style>.gotchi-primary{fill:#B6509E;}.gotchi-secondary{fill:#CFEEF4;}.gotchi-cheek{fill:#F696C6;}.gotchi-eyeColor{fill:#B6509E;}.gotchi-primary-mouth{fill:#B6509E;}.gotchi-sleeves-up{display:none;}.gotchi-handsUp{display:none;}.gotchi-handsDownOpen{display:block;}.gotchi-handsDownClosed{display:none;}</style><g class="gotchi-body"><path d="M47 14v-2h-2v-2h-4V8h-4V6H27v2h-4v2h-4v2h-2v2h-2v41h4v-2h5v2h5v-2h6v2h5v-2h5v2h4V14z" class="gotchi-primary"/><path d="M45 14v-2h-4v-2h-4V8H27v2h-4v2h-4v2h-2v39h2v-2h5v2h5v-2h6v2h5v-2h5v2h2V14z" class="gotchi-secondary"/><path d="M18,49h2v-1h2v1h2v2h5v-2h2v-1h2v1h2v2h5v-2h2v-1h2v1h1V14h-4v-2h-4v-2h-5V9h-5v2h-4v2h-4v2h-1V49z" fill="#fff"/></g><path class="gotchi-cheek" d="M21 32v2h2v-2h-1zm21 0h-1v2h2v-2z"/><g class="gotchi-primary-mouth"><path d="M29 32h-2v2h2v-1z"/><path d="M33 34h-4v2h6v-2h-1z"/><path d="M36 32h-1v2h2v-2z"/></g>
    <style>
        .gotchi-bg { display: none }
    </style>
<g class="gotchi-shadow"><path opacity=".25" d="M25 58H19v1h1v1h24V59h1V58h-1z" fill="#000"/></g><g class="gotchi-collateral" fill="#a73796"><path d="M30.5 15h1v-2h-1z"/><path d="M31.5 12h1v1h-1z"/><path d="M33.5 13h-1v2h1zm-4 3h-2v1h1v2h1v-2h2v-1h-1v-1h-1z"/><path d="M34.5 15h-1v2h1z"/><path d="M35.5 17h-1v2h1zm-8 4h1v-2h-1z"/><path d="M35.5 19v2h1v-2z"/></g><g class="gotchi-eyeColor"><path d="M23 28V29V30H24H25H26H27V29V28H28H29V27V26V25V24H28H27V23V22H26H25H24H23V23V24H22H21V25V26V27V28H22H23Z" /><path d="M35 24V25V26V27V28H36H37V29V30H38H39H40H41V29V28H42H43V27V26V25V24H42H41V23V22H40H39H38H37V23V24H36H35Z" /></g><g class="gotchi-wearable wearable-body"><svg x="12" y="32"><path d="M3,1v20h34V1h-3v1h-1v1h-1v1h-1v1h-1v1h-1v1h-2v1h-3v1h-8V8h-3V7h-2V6h-1V5H9V4H8V3H7V2H6V1H3z" fill="#bc20d2"/><path d="M34,2v1h-1v1h-1v1h-1v1h-1v1h-1v1h-2v1h-3v1h-8V9h-3V8h-2V7h-1V6H9V5H8V4H7V3H6V2H4v18h32V2H34z" fill="#4c0067"/><path d="M9.6 17.2H7.9V12H7v6.1h3.5V12h-.9v5.2zm1.8-5.2v6.1h.9v-1.7h2.6V12h-3.5zm2.6 3.4h-1.8v-2.6H14v2.6zm7.3-3.4v6.1h.9v-5.2h1.7v5.2h.9V12h-3.5zM17 12v6.1h3.5V12H17zm2.6 5.2h-1.7v-4.3h1.7v4.3zM32.1 12v3.5h-1.7V12h-.9v4.3h1.3V18h.9v-1.7H33V12h-.9zm-5.6 5.2V12h-.9v6.1h3.5v-.9h-2.6z" fill="#fff"/></svg></g><g class="gotchi-handsDownClosed"><g class="gotchi-primary"><path d="M19 42h1v1h-1zm1-6h1v1h-1z"/><path d="M21 37h1v1h-1zm5 3v4h1v-4zm-5 3h-1v1h2v-1z"/><path d="M24 44h-2v1h4v-1h-1zm1-5h-1v1h2v-1z"/><path d="M23 38h-1v1h2v-1z"/></g><g class="gotchi-secondary"><path d="M19 43h1v1h-1zm5 2h-2v1h4v-1h-1z"/><path d="M27 41v3h1v-3zm-6 3h-1v1h2v-1z"/><path d="M26 44h1v1h-1zm-7-3h-1v2h1v-1z"/></g><g class="gotchi-primary"><path d="M44 42h1v1h-1zm-1-6h1v1h-1z"/><path d="M42 37h1v1h-1z"/><path d="M42 39v-1h-2v1h1zm0 4v1h2v-1h-1z"/><path d="M40 44h-2v1h4v-1h-1z"/><path d="M38 42v-2h-1v4h1v-1z"/><path d="M40 40v-1h-2v1h1z"/></g><g class="gotchi-secondary"><path d="M42 44v1h2v-1h-1zm-5-2v-1h-1v3h1v-1z"/><path d="M40 45h-2v1h4v-1h-1z"/><path d="M37 44h1v1h-1zm7-1h1v1h-1z"/></g></g><g class="gotchi-handsDownOpen"><g class="gotchi-primary"><path d="M56 38v-1h-2v-1h-2v-1h-1v-1h-1v-1h-1v8h1v1h2v1h4v-1h1v-4z"/></g><g class="gotchi-secondary"><path d="M54 38v-1h-2v-1h-1v-1h-1v-1h-1v6h1v1h2v1h4v-4z" /></g><path d="M54,38v-1h-2v-1h-1v-1h-1v-1h-1v5h1v1h2v1h4v-3H54z" fill="#fff"/><g class="gotchi-primary"><path d="M8 38v-1h2v-1h2v-1h1v-1h1v-1h1v8h-1v1h-2v1H8v-1H7v-4z"/></g><g class="gotchi-secondary"><path d="M10 38v-1h2v-1h1v-1h1v-1h1v6h-1v1h-2v1H8v-4z" /></g><path d="M8,38v3h4v-1h2v-1h1v-5h-1v1h-1v1h-1v1h-2v1H8z" fill="#fff"/></g><g class="gotchi-handsUp"><g class="gotchi-secondary"><path d="M50,38h1v1h-1V38z"/><path d="M49 39h1v1h-1v-1zm2-2h1v1h-1v-1z"/><path d="M52,36h2v1h-2V36z"/><path d="M54,35h2v1h-2V35z"/></g><path d="M52,32v1h-2v1h-1v5h1v-1h1v-1h1v-1h2v-1h2v-3H52z" fill="#fff"/><g class="gotchi-primary"><path d="M49,33h1v1h-1V33z"/><path d="M50 32h2v1h-2v-1zm0 7h1v1h-1v-1z"/><path d="M49 40h1v1h-1v-1zm2-2h1v1h-1v-1z"/><path d="M52 37h2v1h-2v-1zm0-6h4v1h-4v-1z"/><path d="M56,32h1v4h-1V32z"/><path d="M54,36h2v1h-2V36z"/></g><g class="gotchi-secondary"><path d="M13,38h1v1h-1V38z"/><path d="M14 39h1v1h-1v-1zm-2-2h1v1h-1v-1z"/><path d="M10,36h2v1h-2V36z"/><path d="M8,35h2v1H8V35z"/></g><path d="M8,32v3h2v1h2v1h1v1h1v1h1v-5h-1v-1h-2v-1H8z" fill="#fff"/><g class="gotchi-primary"><path d="M14,33h1v1h-1V33z"/><path d="M12 32h2v1h-2v-1zm1 7h1v1h-1v-1z"/><path d="M14 40h1v1h-1v-1zm-2-2h1v1h-1v-1z"/><path d="M10 37h2v1h-2v-1zm-2-6h4v1H8v-1z"/><path d="M7,32h1v4H7V32z"/><path d="M8,36h2v1H8V36z"/></g></g><g class="gotchi-wearable wearable-face"><svg x="25" y="28"><svg xmlns="http://www.w3.org/2000/svg" width="14" height="14" xmlns:v="https://vecta.io/nano"><path d="M13 5V3h-1V2h-1V1H9V0H5v1H3v1H2v1H1v2H0v4h1v2h1v1h1v1h2v1h4v-1h2v-1h1v-1h1V9h1V5h-1z" fill="#f0f"/><path d="M12 5V3h-1V2H9V1H5v1H3v1H2v2H1v4h1v2h1v1h2v1h4v-1h2v-1h1V9h1V5h-1z" fill="#ff78ff"/><path d="M4 3v1H3v2h1V5h1V4h1V3H4z" fill="#fff"/><g fill="#ff46ff"><path d="M9 11v1h2v-1H9zm3-6v4h1V5h-1z"/><path d="M11 11h1V9h-1v2zm-6 1v1h4v-1H5z"/></g></svg></svg></g><g class="gotchi-wearable wearable-eyes"><svg x="15" y="20"><path d="M33 4h-1V2h-1V1h-1V0H20v1h-1v1h-1v2h-2V2h-1V1h-1V0H4v1H3v1H2v2H0v4h2v2h1v1h1v1h10v-1h1v-1h1V8h2v2h1v1h1v1h10v-1h1v-1h1V8h2V4h-1z" fill="#4c0067"/><g fill="#fff"><path d="M7 4h1v1H7zm3 0h1v1h-1z"/><path d="M9 5h1v1H9z"/><path d="M8 6h1v1H8z"/><path d="M7 7h1v1H7zm3 0h1v1h-1zm13-3h1v1h-1zm3 0h1v1h-1z"/><path d="M25 5h1v1h-1z"/><path d="M24 6h1v1h-1z"/><path d="M23 7h1v1h-1zm3 0h1v1h-1z"/></g><path d="M33 5h-1V4h-1V2h-1V1H20v1h-1v2h-1v1h-2V4h-1V2h-1V1H4v1H3v2H2v1H0v2h2v1h1v2h1v1h10v-1h1V8h1V7h2v1h1v2h1v1h10v-1h1V8h1V7h2V5h-1zM14 9h-1v1H5V9H4V3h1V2h8v1h1v6zm16 0h-1v1h-8V9h-1V3h1V2h8v1h1v6z" fill="#bc20d2"/></svg></g><g class="gotchi-wearable wearable-head"><svg x="12" y="2"><path d="M3 29h1v-1h1v-9h30v9h1v1h1v1h3v-6h-1v-7h-1v-6h-1V7h-2V5h-2V3h-2V2h-4V1h-4V0h-6v1h-4v1H9v1H7v2H5v2H3v4H2v6H1v7H0v6h3v-1h0z"/><g fill="#232323"><path d="M5,18v1h30v-1H5z"/><path d="M4 27H3v2h1v-1h1v-9H4v8z"/><path d="M2 29H1v1h2v-2H2v1zm36 0v-1h-1v-1h-1v-8h-1v9h1v1h1v1h2v-1h-1z"/></g><g fill="#646464"><path d="M5,17v1h30v-1H5z"/><path d="M35 18h1v1h-1v-1zM4 18h1v1H4v-1z"/><path d="M3 27h1v-8H3v8zm34 0v-8h-1v8h1v1h1v-1h-1z"/><path d="M2 27h1v1H2v-1zm36 1h1v1h-1v-1z"/><path d="M1 28h1v1H1v-1zm38 1h1v1h-1v-1z"/><path d="M0,29h1v1H0V29z"/></g><path d="M25.5 3v1h-1v1h-1v1h-1v1h-1v1h-1v1h3v1h-1v1h-1v1h-1v1h-1v-1h-1v-1h-1v-1h-1V9h3V8h-1V7h-1V6h-1V5h-1V4h-1V3h-4v1h1v1h1v1h1v1h1v1h-3v1h1v1h1v1h1v1h1v1h1v1h1v1h1v1h3v-1h1v-1h1v-1h1v-1h1v-1h1v-1h1V9h1V8h-3V7h1V6h1V5h1V4h1V3h-4z" fill="#a000dc"/><path d="M25.5 3v1h-1v1h-1v1h-1v1h-1v1h-1v1h3v1h-1v1h-1v1h-1v1h-1v-1h-1v-1h-1v-1h-1V9h3V8h-1V7h-1V6h-1V5h-1V4h-1V3h-3v1h1v1h1v1h1v1h1v1h-3v1h1v1h1v1h1v1h1v1h1v1h1v1h1v1h1v-1h1v-1h1v-1h1v-1h1v-1h1v-1h1V9h1V8h-3V7h1V6h1V5h1V4h1V3h-3z" fill="#c02df0"/><g fill="#d778f5"><path d="M19.5,13h1v1h-1V13z"/><path d="M18.5,12h1v1h-1V12z"/><path d="M17.5,11h1v1h-1V11z"/><path d="M16.5 10h1v1h-1v-1zm-3-7h1v1h-1V3z"/><path d="M14.5,4h1v1h-1V4z"/><path d="M15.5,5h1v1h-1V5z"/><path d="M16.5,6h1v1h-1V6z"/><path d="M17.5 7h1v1h-1V7zm-2 2h1v1h-1V9z"/><path d="M18.5 8h1v1h-1V8zm2 4h1v1h-1v-1z"/><path d="M21.5,11h1v1h-1V11z"/><path d="M22.5 10h1v1h-1v-1zm3-7h1v1h-1V3z"/><path d="M24.5,4h1v1h-1V4z"/><path d="M23.5,5h1v1h-1V5z"/><path d="M22.5,6h1v1h-1V6z"/><path d="M21.5 7h1v1h-1V7zm2 2h1v1h-1V9z"/><path d="M20.5,8h1v1h-1V8z"/></g>
</svg></g>"><svg x="12" y="32"><g><g class="gotchi-sleeves gotchi-sleeves-left gotchi-sleeves-up"><path d="M36.5 9H38V8h1V7h1V0h-2v1h-1.5v8z" fill="#bc20d2"/><path d="M39 7V1h-1v1h-1v6h1V7h1z" fill="#4c0067"/></g><g class="gotchi-sleeves gotchi-sleeves-left gotchi-sleeves-down"><path d="M36.5 9H38v1h2V3h-1V2h-1V1h-1.5v8z" fill="#bc20d2"/><path d="M38 3V2h-1v6h1v1h1V3h-1z" fill="#4c0067"/></g><g class="gotchi-sleeves gotchi-sleeves-right gotchi-sleeves-up"><path d="M3.5 1H2V0H0v7h1v1h1v1h1.5V1z" fill="#bc20d2"/><path d="M2 7v1h1V2H2V1H1v6h1z" fill="#4c0067"/></g><g class="gotchi-sleeves gotchi-sleeves-right gotchi-sleeves-down"><path d="M3.5 1H2v1H1v1H0v7h2V9h1.5V1z" fill="#bc20d2"/><path d="M1 3v6h1V8h1V2H2v1H1z" fill="#4c0067"/></g></g></svg><g class="gotchi-wearable wearable-hand wearable-hand-left"><svg x="4" y="31"><g fill="#bebebc"><path d="M5,0h1v1H4V0H5z"/><path d="M1,3h2V1h1v2h4v1H7v8H6v1H2v-1H1V4H0V3H1z"/></g><g fill="#0f0"><path d="M3 4h1v1H3v1H2V4h1zm1 4v2H3v1H2V8h2z"/><path d="M4 6h1V5h1v3H4V6zm1 4h1v2H4v-1h1v-1z"/></g><g fill="#fff"><path d="M4 6v2H3V6h1zm-1 5h1v1H3v-1z"/><path d="M4 5h1v1H4V5zm0 5h1v1H4v-1z"/><path d="M5 4h1v1H5V4zm0 4h1v2H5V8z"/></g><g fill="#0af"><path d="M3 6v2H2V6h1zm-1 5h1v1H2v-1z"/><path d="M3 5h1v1H3V5zm0 5h1v1H3v-1z"/><path d="M4 4h1v1H4V4zm0 4h1v2H4V8z"/></g></svg></g><g class="gotchi-wearable wearable-hand wearable-hand-right"><svg x="0" y="24"><g transform="scale(-1, 1) translate(-64, 0)"><path d="M0 9v2h5v1h1v1h1v1h1v1H5v2h1v1h1v1h1v1h1v1h1v1h1v1h1v1h1v1h1v1h2v-4h-1v-1h-1v-1h-1v-1h-1v-1h4v-2h-1v-1h-1v-1h-1v-1h-1v-1h-1v-1h4v-1h-1V9h-1V8h-1V7h-1V6h-1V5H9V4H8V3H7V2H6V1H5V0H3v3H2v3H1v3H0z" fill="#0082ff"/><path d="M1 9v1h4v1h1v1h1v1h1v1h1v1h1v1H6v1h1v1h1v1h1v1h1v1h1v1h1v1h1v1h1v1h1v-3h-1v-1h-1v-1h-1v-1h-1v-2h4v-1h-1v-1h-1v-1h-1v-1h-1v-1h-1v-1H9v-1h4V9h-1V8h-1V7h-1V6H9V5H8V4H7V3H6V2H5V1H4v2H3v3H2v3H1z" fill="#aed7ff"/><g fill="#d2e9ff"><path d="M13 10h-1V9h1v1z"/><path d="M12,9h-1V8h1V9z"/><path d="M11,8h-1V7h1V8z"/><path d="M10,7H9V6h1V7z"/><path d="M9 6H8V5h1v1zm3 8h-1v-1h1v1z"/><path d="M13 15h-1v-1h1v1z"/><path d="M14 16h-1v-1h1v1z"/><path d="M15 17h-1v-1h1v1zM8 5H7V4h1v1zm2 7H9v-1h1v1z"/><path d="M11 13h-1v-1h1v1zm0 4h-1v1 1h1v-1-1z"/><path d="M12 20h-1v-1h1v1z"/><path d="M13 21h-1v-1h1v1z"/><path d="M14 22h-1v-1h1v1z"/><path d="M15 23h-1v-1h1v1zM7 4H6V3h1v1z"/><path d="M6,3H5V2h1V3z"/><path d="M5,2H4V1h1V2z"/></g><g fill="#6bb6ff"><path d="M10 15H9v-1h1v1zm-3 2H6v-1h1v1z"/><path d="M8 18H7v-1h1v1z"/><path d="M9 19H8v-1h1v1zm2 2h-1v-1h1v1z"/><path d="M12 22h-1v-1h1v1z"/><path d="M13 23h-1v-1h1v1z"/><path d="M14 24h-1v-1h1v1zm-4-4H9v-1h1v1zm-4-9H5v-1h1v1z"/><path d="M7 12H6v-1h1v1z"/><path d="M8 13H7v-1h1v1z"/><path d="M9 14H8v-1h1v1zm-7-4H1V9h1v1zm1-4h1V3H3v1 2z"/><path d="M2 9h1V6H2v1 2zm13 16h-1v-1h1v1z"/></g></g></svg></g></svg>