<svg xmlns="http://www.w3.org/2000/svg" viewBox="0 0 64 64"><g class="gotchi-bg"><defs fill="#fff"><pattern id="a" patternUnits="userSpaceOnUse" width="4" height="4"><path d="M0 0h1v1H0zm2 2h1v1H2z"/></pattern><pattern id="b" patternUnits="userSpaceOnUse" x="0" y="0" width="2" height="2"><path d="M0 0h1v1H0z"/></pattern><pattern id="c" patternUnits="userSpaceOnUse" x="-2" y="0" width="8" height="1"><path d="M0 0h1v1H0zm2 0h1v1H2zm2 0h1v1H4z"/></pattern><pattern id="d" patternUnits="userSpaceOnUse" x="0" y="0" width="4" height="4"><path d="M0 0h1v1H0zm0 2h1v1H0zm1 0V1h1v1zm1 0h1v1H2zm0-1h1V0H2zm1 2h1v1H3z"/></pattern><pattern id="e" patternUnits="userSpaceOnUse" width="64" height="32"><path d="M4 4h1v1H4zm7 0h1v1h-1zm7 0h1v1h-1zm7 0h1v1h-1zm7 0h1v1h-1zm7 0h1v1h-1zm7 0h1v1h-1zm7 0h1v1h-1zm7 0h1v1h-1z"/><path fill="url(#a)" d="M0 8h64v7H0z"/><path fill="url(#b)" d="M0 16h64v1H0z"/><path fill="url(#c)" d="M0 18h64v1H0z"/><path fill="url(#b)" d="M22 18h15v1H22zM0 20h64v3H0z"/><path fill="url(#d)" d="M0 24h64v8H0z"/></pattern><mask id="f"><path fill="url(#e)" d="M0 0h64v32H0z"/></mask></defs><path fill="#fff" d="M0 0h64v32H0z"/><path fill="#dea8ff" class="gotchi-secondary" mask="url(#f)" d="M0 0h64v32H0z"/><path fill="#dea8ff" class="gotchi-secondary" d="M0 32h64v32H0z"/><path mask="url(#f)" fill="#fff" transform="matrix(1 0 0 -1 0 64)" d="M0 0h64v32H0z"/></g><style>.gotchi-primary{fill:#2664BA;}.gotchi-secondary{fill:#D4E0F1;}.gotchi-cheek{fill:#F696C6;}.gotchi-eyeColor{fill:#51FFA8;}.gotchi-primary-mouth{fill:#2664BA;}.gotchi-sleeves-up{display:none;}.gotchi-handsUp{display:none;}.gotchi-handsDownOpen{display:block;}.gotchi-handsDownClosed{display:none;}</style><g class="gotchi-bg"><defs fill="#fff"><pattern id="a" patternUnits="userSpaceOnUse" width="4" height="4"><path d="M0 0h1v1H0zm2 2h1v1H2z"/></pattern><pattern id="b" patternUnits="userSpaceOnUse" x="0" y="0" width="2" height="2"><path d="M0 0h1v1H0z"/></pattern><pattern id="c" patternUnits="userSpaceOnUse" x="-2" y="0" width="8" height="1"><path d="M0 0h1v1H0zm2 0h1v1H2zm2 0h1v1H4z"/></pattern><pattern id="d" patternUnits="userSpaceOnUse" x="0" y="0" width="4" height="4"><path d="M0 0h1v1H0zm0 2h1v1H0zm1 0V1h1v1zm1 0h1v1H2zm0-1h1V0H2zm1 2h1v1H3z"/></pattern><pattern id="e" patternUnits="userSpaceOnUse" width="64" height="32"><path d="M4 4h1v1H4zm7 0h1v1h-1zm7 0h1v1h-1zm7 0h1v1h-1zm7 0h1v1h-1zm7 0h1v1h-1zm7 0h1v1h-1zm7 0h1v1h-1zm7 0h1v1h-1z"/><path fill="url(#a)" d="M0 8h64v7H0z"/><path fill="url(#b)" d="M0 16h64v1H0z"/><path fill="url(#c)" d="M0 18h64v1H0z"/><path fill="url(#b)" d="M22 18h15v1H22zM0 20h64v3H0z"/><path fill="url(#d)" d="M0 24h64v8H0z"/></pattern><mask id="f"><path fill="url(#e)" d="M0 0h64v32H0z"/></mask></defs><path fill="#fff" d="M0 0h64v32H0z"/><path fill="#dea8ff" class="gotchi-secondary" mask="url(#f)" d="M0 0h64v32H0z"/><path fill="#dea8ff" class="gotchi-secondary" d="M0 32h64v32H0z"/><path mask="url(#f)" fill="#fff" transform="matrix(1 0 0 -1 0 64)" d="M0 0h64v32H0z"/></g><g class="gotchi-body"><g class="gotchi-primary"><path d="M21 12h2v-2h-4v2h1z"/><path d="M19 14v-2h-2v2h1zm6-4h2V8h-4v2h1z"/><path d="M29 8h8V6H27v2h1zm16 6h2v-2h-2v1z"/><path d="M48 14h-1v39h-2v2h4V14zm-11-4h4V8h-4v1z"/><path d="M41 12h4v-2h-4v1zM17 53V14h-2v41h4v-2h-1z"/><path d="M24 51h-5v2h5v-1z"/><path d="M27 53h-3v2h5v-2h-1zm18-2h-5v2h5v-1z"/><path d="M35 51h-6v2h6v-1z"/><path d="M38 53h-3v2h5v-2h-1z"/></g><g class="gotchi-secondary"><path d="M18 43v6h2v-1h2v1h2v2h-5v2h-2V14h2v1h-1v26z"/><path d="M27 51h-3v2h5v-2h-1zm11 0h-3v2h5v-2h-1z"/><path d="M35 49h-2v-1h-2v1h-2v2h6v-1zM25 11h2v-1h-4v1h1zm-4 2h2v-1h-4v1h1zm24 31v5h-1v-1h-2v1h-2v2h5v2h2V14h-2v29z"/><path d="M37 8H27v1h5v1h5V9zm8 4h-4v2h4v-1z"/><path d="M41 10h-4v2h4v-1z"/></g><path d="M44 14h-3v-2h-4v-2h-5V9h-5v2h-4v2h-4v2h-1v34h2v-1h2v1h2v2h5v-2h2v-1h2v1h2v2h5v-2h2v-1h2v1h1V14z" fill="#fff"/></g><path class="gotchi-cheek" d="M21 32v2h2v-2h-1zm21 0h-1v2h2v-2z"/><g class="gotchi-primary-mouth"><path d="M29 32h-2v2h2v-1z"/><path d="M33 34h-4v2h6v-2h-1z"/><path d="M36 32h-1v2h2v-2z"/></g><g class="gotchi-shadow"><path opacity=".25" d="M25 58H19v1h1v1h24V59h1V58h-1z" fill="#000"/></g><g class="gotchi-collateral" fill="#2664ba"><path d="M30 15v2h3v1h-3v1h1.5v1h1v-1H34v-3h-3v-1h3v-1h-1.5v-1h-1v1H30zm4 5h1v1h-1z"/><path d="M35 19h1v1h-1z"/><path d="M36 16v3h1v-5h-1v1zm-2-4h1v1h-1z"/><path d="M35 13h1v1h-1zm-7 5v-4h-1v5h1zm1 2h1v1h-1z"/><path d="M28 19h1v1h-1zm1-7h1v1h-1z"/><path d="M28 13h1v1h-1z"/></g>
    <style>
        .gotchi-bg { display: none }
    </style>
<g class="gotchi-eyeColor"><rect x="23" y="23" width="4" height="1" class="gotchi-primary" /><rect x="24" y="24" width="2" height="2" /><rect x="37" y="23" width="4" height="1" class="gotchi-primary" /><rect x="38" y="24" width="2" height="2" /></g><g class="gotchi-wearable wearable-body"><svg x="11" y="33"><path d="M38 0h-3v1h-2v1h-2v1h-2v1h-2v1h-2v2h-2v1h-1v1h-2V8h-1V7h-2V5h-2V4h-2V3h-2V2H9V1H7V0H4v22h4v-2h5v2h5v-2h6v2h5v-2h5v2h4V0z" fill="#0064b4"/><path d="M36 15v-2h-1v-2h-1v-1h-5v1h-2v2h-1v2h-1v1h-1v1h-2v1h2v2h5v-2h5v2h3v-4h-1v-1zm-18 2v-1h-1v-1h-1v-2h-1v-2h-2v-1H8v1H7v2H6v3H5v4h3v-2h5v2h5v-2h2v-1h-2z" fill="#0af"/><g fill="#ff0096"><path d="M14,5h-1v1h2V5H14z"/><path d="M15 6v1h2V6h-2zm13-1h-1v1h2V5h-1z"/><path d="M25,6v1h2V6H25z"/></g><g fill="#0000be"><path d="M14,4h-1v1h2V4H14z"/><path d="M15 5v1h2V5h-2zm13-1h-1v1h2V4h-1z"/><path d="M25,5v1h2V5H25z"/></g><g fill="#ffbe00"><path d="M5 8V7H4v3h1V8zm-1 5h1v1H4v-1z"/><path d="M20 10v1h2v-1h-2zm-7-4V4h-2V3H9V2H7V1H4v2h1v4h1v3H5v1H4v1h1v1h1v-2h1v-1h1V7H7V4h1v3h1v2h2V7h-1V5h1v2h1v2h1v1h1V7h1V6h-2z"/><path d="M19,9V8h-2v1h1v1h2V9H19z"/><path d="M16 7h1v1h-1V7zm21-6h-2v1h-2v1h-2v1h-2v2h-2v1h1v3h1V9h1V7h1V5h1v2h-1v2h2V7h1V4h1v3h-1v3h1v1h1v2h1v-1h1v-1h-1v-1h-1V7h1V3h1V1h-1z"/><path d="M37 9v1h1V7h-1v2zm0 4h1v1h-1v-1zm-16-1h-1v-1h-3v-1h-1v3h1v-1h2v1h-2v2h1v-1h6v1h1v-2h-2v-1h2v1h1v-3h-1v1h-3v1h-1zm4-5h1v1h-1V7z"/><path d="M23,8v1h-1v1h2V9h1V8H23z"/></g><g fill="#fff"><path d="M17 10h1v1h-1v-1zm3 6v1h2v-1h-2z"/><path d="M19 15v-1h-1v2h2v-1h-1zm-2-7h-1V7h-1v3h2V8zm7 2h1v1h-1v-1z"/><path d="M26 7v1h-1v2h2V7h-1zm-3 8h-1v1h2v-2h-1v1z"/></g><path d="M7,10h1v1H7V10z"/><path d="M6 12v1h1v-2H6v1zM5 5V3H4v4h1V5z"/><path d="M6,9V7H5v3h1V9z"/><path d="M4 10h1v1H4v-1zm0 2h1v1H4v-1z"/><path d="M5 14H4v2h2v-3H5v1zm12-5h1v1h-1V9zM8 5V4H7v3h1V5z"/><path d="M12 9V7h-1v2H9V7H8v3h5V9h-1zm5 4h-1v2h1v-2z"/><path d="M17 15h1v1h-1v-1zm-1-4v-1h-1V7h-1v3h-1v1h2v2h1v-2zm-5-7h2V3h-2v1z"/><path d="M10 3h1V2H9v1h1z"/><path d="M8 2h1V1H7v1h1zm11 6h1v1h-1V8z"/><path d="M18 7h-1v1h2V7h-1zm4 9v1h2v-1h-2zm-3 0h-1v1h2v-1h-1zM7 1V0H4v1h3zm4 4h-1v2h1V5zm8 8v-1h-2v1h2zm0-2h1v-1h-2v1h1z"/><path d="M20 11v1h2v-1h-2zM35 0v1h3V0h-3zm-1 10h1v1h-1v-1z"/><path d="M36 11h-1v2h1v-2zm0-3v2h1V7h-1v1z"/><path d="M37 10h1v1h-1v-1zm0 2h1v1h-1v-1z"/><path d="M36 14v2h2v-2h-1v-1h-1v1zm-4-8V5h-1v2h1V6zm-4 3V7h-1v3h-1v3h1v-2h2v-1h-1V9zm-4 0h1v1h-1V9zm13-5v3h1V3h-1v1zm-2 2V4h-1v3h1V6z"/><path d="M34 8V7h-1v2h-2V7h-1v2h-1v1h5V8zm-9 6v1h1v-2h-1v1z"/><path d="M24 15h1v1h-1v-1zm0-3h-1v1h2v-1h-1zm7-8V3h-2v1h2z"/><path d="M31,2v1h2V2H31z"/><path d="M33 1v1h2V1h-2zM23 11h1v-1h-2v1h1zm-1-3h1v1h-1V8z"/><path d="M25 8V7h-2v1h2zm-3 2V9h-2v1h2zm0 6v-1h1v-1h-4v1h1v1h2zm-2 1v1h2v-1h-2z"/><defs /></svg></g><g class="gotchi-handsDownClosed"><g class="gotchi-primary"><path d="M19 42h1v1h-1zm1-6h1v1h-1z"/><path d="M21 37h1v1h-1zm5 3v4h1v-4zm-5 3h-1v1h2v-1z"/><path d="M24 44h-2v1h4v-1h-1zm1-5h-1v1h2v-1z"/><path d="M23 38h-1v1h2v-1z"/></g><g class="gotchi-secondary"><path d="M19 43h1v1h-1zm5 2h-2v1h4v-1h-1z"/><path d="M27 41v3h1v-3zm-6 3h-1v1h2v-1z"/><path d="M26 44h1v1h-1zm-7-3h-1v2h1v-1z"/></g><g class="gotchi-primary"><path d="M44 42h1v1h-1zm-1-6h1v1h-1z"/><path d="M42 37h1v1h-1z"/><path d="M42 39v-1h-2v1h1zm0 4v1h2v-1h-1z"/><path d="M40 44h-2v1h4v-1h-1z"/><path d="M38 42v-2h-1v4h1v-1z"/><path d="M40 40v-1h-2v1h1z"/></g><g class="gotchi-secondary"><path d="M42 44v1h2v-1h-1zm-5-2v-1h-1v3h1v-1z"/><path d="M40 45h-2v1h4v-1h-1z"/><path d="M37 44h1v1h-1zm7-1h1v1h-1z"/></g></g><g class="gotchi-handsDownOpen"><g class="gotchi-primary"><path d="M14 40h1v1h-1v-1zm-1-6h1v1h-1v-1z"/><path d="M14 33h1v1h-1v-1zm-2 2h1v1h-1v-1zm-5 3h1v4H7v-4zm5 3h2v1h-2v-1z"/><path d="M8 42h4v1H8v-1zm0-5h2v1H8v-1z"/><path d="M10,36h2v1h-2V36z"/></g><g class="gotchi-secondary"><path d="M14,39h1v1h-1V39z"/><path d="M12,40h2v1h-2V40z"/><path d="M8,41h4v1H8V41z"/></g><path d="M8,38v3h4v-1h2v-1h1v-5h-1v1h-1v1h-1v1h-2v1H8z" fill="#fff" /><g class="gotchi-primary"><path d="M49 40h1v1h-1v-1zm1-6h1v1h-1v-1z"/><path d="M49 33h1v1h-1v-1zm2 2h1v1h-1v-1zm5 3h1v4h-1v-4zm-6 3h2v1h-2v-1z"/><path d="M52 42h4v1h-4v-1zm2-5h2v1h-2v-1z"/><path d="M52,36h2v1h-2V36z"/></g><g class="gotchi-secondary"><path d="M49,39h1v1h-1V39z"/><path d="M50,40h2v1h-2V40z"/><path d="M52,41h4v1h-4V41z"/></g><path d="M54,38v-1h-2v-1h-1v-1h-1v-1h-1v5h1v1h2v1h4v-3H54z" fill="#fff" /></g><g class="gotchi-handsUp"><g class="gotchi-secondary"><path d="M50,38h1v1h-1V38z"/><path d="M49 39h1v1h-1v-1zm2-2h1v1h-1v-1z"/><path d="M52,36h2v1h-2V36z"/><path d="M54,35h2v1h-2V35z"/></g><path d="M52,32v1h-2v1h-1v5h1v-1h1v-1h1v-1h2v-1h2v-3H52z" fill="#fff"/><g class="gotchi-primary"><path d="M49,33h1v1h-1V33z"/><path d="M50 32h2v1h-2v-1zm0 7h1v1h-1v-1z"/><path d="M49 40h1v1h-1v-1zm2-2h1v1h-1v-1z"/><path d="M52 37h2v1h-2v-1zm0-6h4v1h-4v-1z"/><path d="M56,32h1v4h-1V32z"/><path d="M54,36h2v1h-2V36z"/></g><g class="gotchi-secondary"><path d="M13,38h1v1h-1V38z"/><path d="M14 39h1v1h-1v-1zm-2-2h1v1h-1v-1z"/><path d="M10,36h2v1h-2V36z"/><path d="M8,35h2v1H8V35z"/></g><path d="M8,32v3h2v1h2v1h1v1h1v1h1v-5h-1v-1h-2v-1H8z" fill="#fff"/><g class="gotchi-primary"><path d="M14,33h1v1h-1V33z"/><path d="M12 32h2v1h-2v-1zm1 7h1v1h-1v-1z"/><path d="M14 40h1v1h-1v-1zm-2-2h1v1h-1v-1z"/><path d="M10 37h2v1h-2v-1zm-2-6h4v1H8v-1z"/><path d="M7,32h1v4H7V32z"/><path d="M8,36h2v1H8V36z"/></g></g><g class="gotchi-wearable wearable-face"><svg x="23" y="32"><path d="M17,3V2h-1V1h-2V0h-4v1H8V0H4v1H2v1H1v1H0v6h1V8h1V6h1V5h2V4h8v1h2v1h1v2h1v1h1V3H17z" fill="#aaa"/><g fill="#e1e1e1"><path d="M2 3h1v1H2V3zm2-2v1h2V1H4z"/><path d="M3 2h1v1H3V2zm12 1h1v1h-1V3zm-3-2v1h2V1h-2z"/><path d="M14,2h1v1h-1V2z"/></g><g fill="#919191"><path d="M7,0h1v1H7V0z"/><path d="M10 2V1H8v1h2zM3 4v1h2V4H3z"/><path d="M2,5h1v1H2V5z"/><path d="M1 8h1V6H1v2zm9-8h1v1h-1V0zM5 3v1h8V3H5z"/><path d="M13,4v1h2V4H13z"/><path d="M15,5h1v1h-1V5z"/><path d="M17 6h-1v2h1V6zM0 8h1v1H0V8z"/><path d="M17,8h1v1h-1V8z"/></g></svg></g><g class="gotchi-wearable wearable-eyes"><svg x="19" y="20"><path d="M11 3V2h-1V1H8V0H4v1H2v1H1v2H0v4h1v2h1v1h2v1h4v-1h2v-1h1V8h1V4h-1V3zm14 1V2h-1V1h-2V0h-4v1h-2v1h-1v2h-1v4h1v2h1v1h2v1h4v-1h2v-1h1V8h1V4h-1z" fill="#fff"/><g fill="#4309d7"><path d="M7 2H4v1h4V2H7z"/><path d="M9 2h1V1H8v1h1z"/><path d="M10 4h1V2h-1v2zM6 1h2V0H4v1h2zm2 9v1h2v-1H8z"/><path d="M10 9v1h1V8h-1v1z"/><path d="M11 5v3h1V4h-1v1zM1 6V4H0v4h1V6z"/><path d="M6 11v1h2v-1H6zM2 3V2H1v2h1V3z"/><path d="M4 2V1H2v1h2zM3 3h1v1H3z"/><path d="M2 5v3H1v2h1v1h1v-1h1V9h1V8h2V7h1V5H7V4H5v1H4v2H3V4H2v1zm6-2h1v1H8zM7 9H6v1h2V9H7z"/><path d="M8 8h1v1H8z"/><path d="M10 7V4H9v4h1V7zm11-5h-3v1h4V2h-1z"/><path d="M23 2h1V1h-2v1h1z"/><path d="M24 4h1V2h-1v2zm-4-3h2V0h-4v1h2zm2 9v1h2v-1h-2z"/><path d="M24 9v1h1V8h-1v1z"/><path d="M25 4v4h1V4h-1zM15 6V4h-1v4h1V6z"/><path d="M20 11v1h2v-1h-2zm-4-8V2h-1v2h1V3z"/><path d="M18 2V1h-2v1h2zm-1 1h1v1h-1z"/><path d="M16 5v3h-1v2h1v1h1v-1h1V9h1V8h2V7h1V5h-1V4h-2v1h-1v2h-1V4h-1v1zm6-2h1v1h-1zm-1 6h-1v1h2V9h-1z"/><path d="M22 8h1v1h-1z"/><path d="M24 7V4h-1v4h1V7z"/></g></svg></g><g class="gotchi-wearable wearable-head"><svg x="19" y="4"><path d="M25 0v1h-1v2h-1v1h-1v2h-1v1h-1v2h-1v4h2v1h4V8h1V0z" fill="#002de4"/><path d="M24 3v1h-1v3h2V3zm-2 5V7h-1v2h-1v3h2v1h2V8h-1z" fill="#1973ff"/><path d="M24 3v1h-1v3h1V5h1V3zm-2 4h-1v2h-1v3h1v-1h1V9h1V8h-1z" fill="#9dc3ff"/><path d="M1 0v1h1v2h1v1h1v2h1v1h1v2h1v4H5v1H1V8H0V0z" fill="#002de4"/><path d="M2 3v1h1v3H1V3zm2 5V7h1v2h1v3H4v1H2V8h1z" fill="#1973ff"/><path d="M2 3v1h1v3H2V5H1V3zm2 4h1v2h1v3H5v-1H4V9H3V8h1z" fill="#9dc3ff"/></svg></g>"><svg x="11" y="33"><g><g class="gotchi-sleeves gotchi-sleeves-left gotchi-sleeves-up"><path d="M38 10h1V9h1V8h1V7h1V0h-1v1h-2v1h-1v8z" fill="#0064b4"/><path d="M38 9h1V8h1V2h-1v1h-1m3 2h1v1h-1zm0-2h1v1h-1zm0-2h1v1h-1z" fill="#0af"/><defs /></g><g class="gotchi-sleeves gotchi-sleeves-left gotchi-sleeves-down"><path d="M38 8h1v1h2v1h1V3h-1V2h-1V1h-1V0h-1v8z" fill="#0064b4"/><path d="M38 7h1v1h1V2h-1V1h-1m3 3h1v1h-1zm0 2h1v1h-1zm0 2h1v1h-1z" fill="#0af"/><defs /></g><g class="gotchi-sleeves gotchi-sleeves-right gotchi-sleeves-up"><path d="M4 2H3V1H1V0H0v7h1v1h1v1h1v1h1V2z" fill="#0064b4"/><g fill="#0af"><path d="M4 3H3V2H2v6h1v1h1M0 5h1v1H0z"/><path d="M0 3h1v1H0zm0-2h1v1H0z"/></g><defs /></g><g class="gotchi-sleeves gotchi-sleeves-right gotchi-sleeves-down"><path d="M4 0H3v1H2v1H1v1H0v7h1V9h2V8h1V0z" fill="#0064b4"/><path d="M4 1H3v1H2v6h1V7h1M0 4h1v1H0zm0 2h1v1H0zm0 2h1v1H0z" fill="#0af"/><defs /></g></g></svg><g class="gotchi-wearable wearable-hand wearable-hand-left"><svg x="0" y="17"><path d="M14 29v-2h-1v-5h1v-4h-1v-1h-1v1h-1v2H9v-1H8V7h1V4H8V3h1V2h1V1H9V0H7v1H6v1H5v2H4v4h1v10H3v-2H2v-1H1v2H0v2h1v2h1v6H1v2H0v6h1v1h1v1h2v1h6v-1h2v-1h1v-1h1v-2h1v-4h-1z"/><path d="M13,30v-3h-1v-5h1v-4h-1v3H9v-1H8v1H5v-2H4v6H3v5h1v2h5v-1h3v2h2v-3H13z" fill="#e1e1e1"/><g fill="#ff8700"><path d="M11,24h1v1h-1V24z"/><path d="M10,25v-1h1v-1h-1v-1H9v1H8v1h1v3H8v1h1v1h1v-1h1v-1h-1v-1h1v-1H10z"/><path d="M11,26h1v1h-1V26z"/></g><path d="M7 21H5v1h3v-1H7zm-1 2H5v2h3v-2H7 6zm0 3H5v1h3v-1H7 6zm0 3H5v1h3v-1H7 6z" fill="#fff"/><path d="M7 23h1v-1H5v1h1 1zm0 3h1v-1H5v1h1 1zm0 3h1v-2H5v2h1 1zm1 1H4v2h5v-2H8z" fill="#7f7f7f"/><path d="M9 1V0H7v2H6v2H5v3H4v1h1v13h1v-1h1v1h1V7h1V4H8V3h1V2h1V1H9zM7 19H6v-1h1v1zm0-2H6v-1h1v1zm0-2H6v-1h1v1zm0-2H6v-1h1v1zm0-2H6v-1h1v1zm0-2H6V8h1v1z" fill="#eda350"/></svg></g><g class="gotchi-wearable wearable-hand wearable-hand-right"><svg x="6" y="10"><g transform="scale(-1, 1) translate(-52, 0)"><path d="M7 27v-3H6V2H5V1H4V0H3v1H2v1H1v22H0v3h2v5H1v1h1v1h1v1h1v-1h1v-1h1v-1H5v-5z" fill="#333"/><g fill="gray"><path d="M5 24v1H4v1H3v-1H2v-1H1v2h1v1h1v5H2v1h1v1h1v-1h1v-1H4v-5h1v-1h1v-2H5z"/><path d="M3 24h1v1H3z"/><path d="M3 23h1v1h1V2H4V1H3v1H2v22h1v-1z"/></g><path d="M4,25v1H3v-1H2v2h3v-2H4z" fill="#a0a5a9"/><path d="M4 2V1H3v1H2v22h1v-1h1v1h1V2z" fill="#bfbfbf"/><path d="M3 32h1v1H3zm0-4h1v1H3zm0 2h1v1H3z" fill="#c7c7c7"/><path d="M3 24h1v1H3z" fill="#f0f"/><path d="M4,2V1H3v21h2V2H4z" fill="#e6e6e6"/></g></svg></g><g class="gotchi-wearable wearable-pet"><svg x="3" y="2"><g fill="#9600bd"><path d="M13 1v1h-1v1H9V2H8v2H7V2H6v1H3V2H2V1H0v5h1v1h1v1h1v1H2v1H1v3h1v1h3v-1h1v-1h1v-1h1v1h1v1h1v1h3v-1h1v-3h-1V9h-1V8h1V7h1V6h1V1h-2z"/><path d="M5 1h1v1H5z"/><path d="M4 0h1v1H4zm5 1h1v1H9z"/><path d="M10 0h1v1h-1z"/></g><g fill="#f0f"><path d="M7 5h1v1H7z"/><path d="M13 2v1h-1v2h-1v1H8v5h1v1h1v1h3v-3h-1V9H9V8h3V7h1V6h1V2h-1zM5 6H4V5H3V3H2V2H1v4h1v1h1v1h3v1H3v1H2v3h3v-1h1v-1h1V6H5z"/></g><g fill="#ff8bff"><path d="M6 7H4V6H3V5H2V3H1v3h1v1h1v1h3v1h1V6H6v1zm7-4v2h-1v1h-1v1H9V6H8v3h1V8h3V7h1V6h1V3h-1z"/><path d="M9 11h1v1h3v-1h-1v-1h-1V9H9v2zM4 9v1H3v1H2v1h3v-1h1V9H4z"/></g><path d="M4 3v2h3V3H4zm4 0v2h3V3H8z" fill="#fff"/><path d="M4 3v1h1v1h1V4h1V3H4zm4 0v1h1v1h1V4h1V3H8z"/></svg></g></svg>