<svg xmlns="http://www.w3.org/2000/svg" viewBox="0 0 64 64"><g class="gotchi-bg"><defs fill="#fff"><pattern id="a" patternUnits="userSpaceOnUse" width="4" height="4"><path d="M0 0h1v1H0zm2 2h1v1H2z"/></pattern><pattern id="b" patternUnits="userSpaceOnUse" x="0" y="0" width="2" height="2"><path d="M0 0h1v1H0z"/></pattern><pattern id="c" patternUnits="userSpaceOnUse" x="-2" y="0" width="8" height="1"><path d="M0 0h1v1H0zm2 0h1v1H2zm2 0h1v1H4z"/></pattern><pattern id="d" patternUnits="userSpaceOnUse" x="0" y="0" width="4" height="4"><path d="M0 0h1v1H0zm0 2h1v1H0zm1 0V1h1v1zm1 0h1v1H2zm0-1h1V0H2zm1 2h1v1H3z"/></pattern><pattern id="e" patternUnits="userSpaceOnUse" width="64" height="32"><path d="M4 4h1v1H4zm7 0h1v1h-1zm7 0h1v1h-1zm7 0h1v1h-1zm7 0h1v1h-1zm7 0h1v1h-1zm7 0h1v1h-1zm7 0h1v1h-1zm7 0h1v1h-1z"/><path fill="url(#a)" d="M0 8h64v7H0z"/><path fill="url(#b)" d="M0 16h64v1H0z"/><path fill="url(#c)" d="M0 18h64v1H0z"/><path fill="url(#b)" d="M22 18h15v1H22zM0 20h64v3H0z"/><path fill="url(#d)" d="M0 24h64v8H0z"/></pattern><mask id="f"><path fill="url(#e)" d="M0 0h64v32H0z"/></mask></defs><path fill="#fff" d="M0 0h64v32H0z"/><path fill="#dea8ff" class="gotchi-secondary" mask="url(#f)" d="M0 0h64v32H0z"/><path fill="#dea8ff" class="gotchi-secondary" d="M0 32h64v32H0z"/><path mask="url(#f)" fill="#fff" transform="matrix(1 0 0 -1 0 64)" d="M0 0h64v32H0z"/></g><style>.gotchi-primary{fill:#824EE2;}.gotchi-secondary{fill:#E6DCF9;}.gotchi-cheek{fill:#F696C6;}.gotchi-eyeColor{fill:#0064FF;}.gotchi-primary-mouth{fill:#824EE2;}.gotchi-sleeves-up{display:none;}.gotchi-handsUp{display:none;}.gotchi-handsDownOpen{display:block;}.gotchi-handsDownClosed{display:none;}</style><g class="gotchi-bg"><defs fill="#fff"><pattern id="a" patternUnits="userSpaceOnUse" width="4" height="4"><path d="M0 0h1v1H0zm2 2h1v1H2z"/></pattern><pattern id="b" patternUnits="userSpaceOnUse" x="0" y="0" width="2" height="2"><path d="M0 0h1v1H0z"/></pattern><pattern id="c" patternUnits="userSpaceOnUse" x="-2" y="0" width="8" height="1"><path d="M0 0h1v1H0zm2 0h1v1H2zm2 0h1v1H4z"/></pattern><pattern id="d" patternUnits="userSpaceOnUse" x="0" y="0" width="4" height="4"><path d="M0 0h1v1H0zm0 2h1v1H0zm1 0V1h1v1zm1 0h1v1H2zm0-1h1V0H2zm1 2h1v1H3z"/></pattern><pattern id="e" patternUnits="userSpaceOnUse" width="64" height="32"><path d="M4 4h1v1H4zm7 0h1v1h-1zm7 0h1v1h-1zm7 0h1v1h-1zm7 0h1v1h-1zm7 0h1v1h-1zm7 0h1v1h-1zm7 0h1v1h-1zm7 0h1v1h-1z"/><path fill="url(#a)" d="M0 8h64v7H0z"/><path fill="url(#b)" d="M0 16h64v1H0z"/><path fill="url(#c)" d="M0 18h64v1H0z"/><path fill="url(#b)" d="M22 18h15v1H22zM0 20h64v3H0z"/><path fill="url(#d)" d="M0 24h64v8H0z"/></pattern><mask id="f"><path fill="url(#e)" d="M0 0h64v32H0z"/></mask></defs><path fill="#fff" d="M0 0h64v32H0z"/><path fill="#dea8ff" class="gotchi-secondary" mask="url(#f)" d="M0 0h64v32H0z"/><path fill="#dea8ff" class="gotchi-secondary" d="M0 32h64v32H0z"/><path mask="url(#f)" fill="#fff" transform="matrix(1 0 0 -1 0 64)" d="M0 0h64v32H0z"/></g><g class="gotchi-body"><g class="gotchi-primary"><path d="M21 12h2v-2h-4v2h1z"/><path d="M19 14v-2h-2v2h1zm6-4h2V8h-4v2h1z"/><path d="M29 8h8V6H27v2h1zm16 6h2v-2h-2v1z"/><path d="M48 14h-1v39h-2v2h4V14zm-11-4h4V8h-4v1z"/><path d="M41 12h4v-2h-4v1zM17 53V14h-2v41h4v-2h-1z"/><path d="M24 51h-5v2h5v-1z"/><path d="M27 53h-3v2h5v-2h-1zm18-2h-5v2h5v-1z"/><path d="M35 51h-6v2h6v-1z"/><path d="M38 53h-3v2h5v-2h-1z"/></g><g class="gotchi-secondary"><path d="M18 43v6h2v-1h2v1h2v2h-5v2h-2V14h2v1h-1v26z"/><path d="M27 51h-3v2h5v-2h-1zm11 0h-3v2h5v-2h-1z"/><path d="M35 49h-2v-1h-2v1h-2v2h6v-1zM25 11h2v-1h-4v1h1zm-4 2h2v-1h-4v1h1zm24 31v5h-1v-1h-2v1h-2v2h5v2h2V14h-2v29z"/><path d="M37 8H27v1h5v1h5V9zm8 4h-4v2h4v-1z"/><path d="M41 10h-4v2h4v-1z"/></g><path d="M44 14h-3v-2h-4v-2h-5V9h-5v2h-4v2h-4v2h-1v34h2v-1h2v1h2v2h5v-2h2v-1h2v1h2v2h5v-2h2v-1h2v1h1V14z" fill="#fff"/></g><path class="gotchi-cheek" d="M21 32v2h2v-2h-1zm21 0h-1v2h2v-2z"/><g class="gotchi-primary-mouth"><path d="M29 32h-2v2h2v-1z"/><path d="M33 34h-4v2h6v-2h-1z"/><path d="M36 32h-1v2h2v-2z"/></g><g class="gotchi-shadow"><path opacity=".25" d="M25 58H19v1h1v1h24V59h1V58h-1z" fill="#000"/></g><g class="gotchi-collateral"><path d="M37.25 17.04v-.75h-.75v-.75h-.75v-.75H33.5v.75h-.75v.75h-1.5v.75h-.75v.75h-2.25v-.75h-.75v-2.25h.75v-.75h2.25v.75h.75v.75H32v-1.5h-.75v-.75h-.75v-.75h-2.25v.75h-.75v.75h-.75v.75H26v2.25h.75v.75h.75v.75h.75v.75h2.25v-.75h.75v-.75h1.5v-.75h.75v-.75h2.25v.75h.75v2.25h-.75v.75H33.5v-.75h-.75v-.75H32v1.5h.75v.75h.75v.75h2.25v-.75h.75v-.75h.75v-.75H38v-2.25h-.75z" fill="#824ee2"/></g>
    <style>
        .gotchi-bg { display: none }
    </style>
<g class="gotchi-eyeColor"><g><path d="M40 23v2h1v-2h-1z" /><path d="M39 24v-1h-2v2h1v1h2v-1h-1v-1zm-13 0v1h1v-2h-1v1z" /><path d="M25 24v-1h-2v2h1v1h2v-1h-1v-1z" /></g><g class="gotchi-primary"><path d="M35 23h-1v1h1v-1zm0 2h-1v1h1v-1zm9-2h-1v1h1v-1z" /><path d="M45 24h-1v1h1v-1zm-8-1h6v-1h-8v1h2z" /><path d="M34 24h-1v1h1v-1zm10 1h-1v1h1v-1z" /><path d="M41 26h-6v1h8v-1h-2zm-20-3h-1v1h1v-1zm0 2h-1v1h1v-1zm9-2h-1v1h1v-1z" /><path d="M31 24h-1v1h1v-1zm-8-1h6v-1h-8v1h2z" /><path d="M20 24h-1v1h1v-1zm10 1h-1v1h1v-1z" /><path d="M27 26h-6v1h8v-1h-2z" /></g></g><g class="gotchi-wearable wearable-body"><svg x="10" y="31"><path d="M17 10h-2V8h-2V6h-2V4H9V2H8V0H4v1h1v1h-.5v8H5v14h4v-2h5v2h5V10h-2zM36 0v2h-1v2h-2v2h-2v2h-2v2h-4v14h5v-2h5v2h4V10h.5V2H39V1h1V0h-4z" fill="#3c0000"/><path d="M15 12h-2v-2h-2V8H9V6H7V4H6v18h3v-2h5v2h1v-4h2v-2h-2v-4zm-1 4h-2v-1h2v1zm-6-1h3v1H8v-1zm0-2h1v1H8v-1zm0-2h1v1H8v-1zm3 3h-1v-1h1v1zm2 0h-1v-1h1v1zm-2-2h-1v-1h1v1zm-1 7H8v-1h3v1h-1zm4 0h-2v-1h2v1zM37 4v2h-2v2h-2v2h-2v2h-2v4h-2v2h2v4h1v-2h5v2h3V4h-1zm-1 8h-1v-1h1v1zm0 2h-1v-1h1v1zm0 2h-3v-1h3v1zm-6-1h2v1h-2v-1zm3-2h1v1h-1v-1zm1-2v1h-1v-1h1zm-2 2v1h-1v-1h1zm-1 6h-1v-1h2v1h-1zm3 0h-1v-1h3v1h-2z" fill="#500"/><g fill="#fcb040"><path d="M11 6H9v2h2V6zm-3 7h1v1H8zm1 2H8v1h3v-1H9zm1-2h1v1h-1z"/><path d="M12 13h1v1h-1zm0 2v1h2v-1h-2zm1-7h-2v2h2V8z"/><path d="M15 10h-2v2h2v-2zm-7 1h1v1H8z"/><path d="M9 4H7v2h2V4zm6 8v4h2v-4h-2zm-6 6H8v1h3v-1H9zm3 0v1h2v-1h-2z"/><path d="M15 18v4h2v-4h-2zm-5-7h1v1h-1zM7 2H5v2h2V2zm26 4v2h2V6h-2zm2 7h1v1h-1zm-1 2h-1v1h3v-1h-2zm-1-2h1v1h-1zm-2 0h1v1h-1z"/><path d="M30 15v1h2v-1h-2zm1-7v2h2V8h-2z"/><path d="M29 10v2h2v-2h-2z"/><path d="M27 12v4h2v-4h-2zm8-1h1v1h-1zm0-7v2h2V4h-2zm-1 14h-1v1h3v-1h-2z"/><path d="M30 18v1h2v-1h-2zm-3 0v4h2v-4h-2zm6-7h1v1h-1zm4-9v2h2V2h-2z"/></g></svg></g><g class="gotchi-handsDownClosed"><g class="gotchi-primary"><path d="M19 42h1v1h-1zm1-6h1v1h-1z"/><path d="M21 37h1v1h-1zm5 3v4h1v-4zm-5 3h-1v1h2v-1z"/><path d="M24 44h-2v1h4v-1h-1zm1-5h-1v1h2v-1z"/><path d="M23 38h-1v1h2v-1z"/></g><g class="gotchi-secondary"><path d="M19 43h1v1h-1zm5 2h-2v1h4v-1h-1z"/><path d="M27 41v3h1v-3zm-6 3h-1v1h2v-1z"/><path d="M26 44h1v1h-1zm-7-3h-1v2h1v-1z"/></g><g class="gotchi-primary"><path d="M44 42h1v1h-1zm-1-6h1v1h-1z"/><path d="M42 37h1v1h-1z"/><path d="M42 39v-1h-2v1h1zm0 4v1h2v-1h-1z"/><path d="M40 44h-2v1h4v-1h-1z"/><path d="M38 42v-2h-1v4h1v-1z"/><path d="M40 40v-1h-2v1h1z"/></g><g class="gotchi-secondary"><path d="M42 44v1h2v-1h-1zm-5-2v-1h-1v3h1v-1z"/><path d="M40 45h-2v1h4v-1h-1z"/><path d="M37 44h1v1h-1zm7-1h1v1h-1z"/></g></g><g class="gotchi-handsDownOpen"><g class="gotchi-primary"><path d="M14 40h1v1h-1v-1zm-1-6h1v1h-1v-1z"/><path d="M14 33h1v1h-1v-1zm-2 2h1v1h-1v-1zm-5 3h1v4H7v-4zm5 3h2v1h-2v-1z"/><path d="M8 42h4v1H8v-1zm0-5h2v1H8v-1z"/><path d="M10,36h2v1h-2V36z"/></g><g class="gotchi-secondary"><path d="M14,39h1v1h-1V39z"/><path d="M12,40h2v1h-2V40z"/><path d="M8,41h4v1H8V41z"/></g><path d="M8,38v3h4v-1h2v-1h1v-5h-1v1h-1v1h-1v1h-2v1H8z" fill="#fff" /><g class="gotchi-primary"><path d="M49 40h1v1h-1v-1zm1-6h1v1h-1v-1z"/><path d="M49 33h1v1h-1v-1zm2 2h1v1h-1v-1zm5 3h1v4h-1v-4zm-6 3h2v1h-2v-1z"/><path d="M52 42h4v1h-4v-1zm2-5h2v1h-2v-1z"/><path d="M52,36h2v1h-2V36z"/></g><g class="gotchi-secondary"><path d="M49,39h1v1h-1V39z"/><path d="M50,40h2v1h-2V40z"/><path d="M52,41h4v1h-4V41z"/></g><path d="M54,38v-1h-2v-1h-1v-1h-1v-1h-1v5h1v1h2v1h4v-3H54z" fill="#fff" /></g><g class="gotchi-handsUp"><g class="gotchi-secondary"><path d="M50,38h1v1h-1V38z"/><path d="M49 39h1v1h-1v-1zm2-2h1v1h-1v-1z"/><path d="M52,36h2v1h-2V36z"/><path d="M54,35h2v1h-2V35z"/></g><path d="M52,32v1h-2v1h-1v5h1v-1h1v-1h1v-1h2v-1h2v-3H52z" fill="#fff"/><g class="gotchi-primary"><path d="M49,33h1v1h-1V33z"/><path d="M50 32h2v1h-2v-1zm0 7h1v1h-1v-1z"/><path d="M49 40h1v1h-1v-1zm2-2h1v1h-1v-1z"/><path d="M52 37h2v1h-2v-1zm0-6h4v1h-4v-1z"/><path d="M56,32h1v4h-1V32z"/><path d="M54,36h2v1h-2V36z"/></g><g class="gotchi-secondary"><path d="M13,38h1v1h-1V38z"/><path d="M14 39h1v1h-1v-1zm-2-2h1v1h-1v-1z"/><path d="M10,36h2v1h-2V36z"/><path d="M8,35h2v1H8V35z"/></g><path d="M8,32v3h2v1h2v1h1v1h1v1h1v-5h-1v-1h-2v-1H8z" fill="#fff"/><g class="gotchi-primary"><path d="M14,33h1v1h-1V33z"/><path d="M12 32h2v1h-2v-1zm1 7h1v1h-1v-1z"/><path d="M14 40h1v1h-1v-1zm-2-2h1v1h-1v-1z"/><path d="M10 37h2v1h-2v-1zm-2-6h4v1H8v-1z"/><path d="M7,32h1v4H7V32z"/><path d="M8,36h2v1H8V36z"/></g></g><g class="gotchi-wearable wearable-face"><svg x="11" y="2"><path d="M38 6h-2v2h2V6zM4 6v2h2V6H4z"/><path d="M6 4v2h2V4H6z"/><path d="M8 2v2h4V2H8zm28 2h-2v2h2V4z"/><path d="M34 2h-4v2h4V2z"/><path d="M30 0H12v2h18V0zM2 8v9H0v10h2v2h2V8H2zm38 9V8h-2v21h2v-2h2V17h-2z"/><path d="M40 19v-4h-2v14h2v-4h2v-6h-2z" fill="#323232"/><path d="M38 17v10h2V17h-2z" fill="#828282"/><path d="M38 19v6h2v-6h-2z" fill="#afafaf"/><path d="M2 19v-4h2v14H2v-4H0v-6h2z" fill="#323232"/><path d="M4 17v10H2V17h2z" fill="#828282"/><path d="M4 19v6H2v-6h2z" fill="#afafaf"/></svg></g><g class="gotchi-wearable wearable-eyes"><svg x="15" y="21"><path d="M0 0v2h19v5h1v2h2v1h3V9h2V7h1V2h6V0H0z" fill="#0e0c15"/></svg></g><g class="gotchi-wearable wearable-head"><svg x="15" y="4"><path d="M33 8V7h-1V6h-1V5h-1V4h-1V3h-1V2h-3V1h-7V0h-2v1H9v1H6v1H5v1H4v1H3v1H2v1H1v1H0v9h3v1h1v1h26v-1h1v-1h3V8h-1z" fill="#960000"/><g fill="red"><path d="M32 8V7h-1V6h-1V5h-1V4h-1V3h-3V2h-6v1h1v1h1v1h1v1h1v1h1v1h1v8h8V8h-1zM11 7V6h1V5h1V4h1V3h1V2H9v1H6v1H5v1H4v1H3v1H2v1H1v8h8V8h1V7h1z"/><path d="M23 7h-1V6h-1V5h-1V4h-1V3h-1V2h-2v1h-1v1h-1v1h-1v1h-1v1h-1v1h-1v8h14V8h-1V7zM4 17v1h26v-1H4z"/></g><g fill="#ffc900"><path d="M22 13.5v-6h-2v6h2zm-4 0v-6h-2v6h2z"/><path d="M14 15.5h2v-2h-2v2zm4 0h2v-2h-2v2z"/><path d="M14 13.5v-6h-2v6h2z"/></g></svg></g>"><svg x="10" y="31"><g><g class="gotchi-sleeves gotchi-sleeves-left gotchi-sleeves-up"><path d="M40 10V9h1V8h1V7h2V0h-2v1h-2v1h-1v8h1z" fill="#3c0000"/><path d="M43 7V0h-1v7h1z" fill="#fcb040"/><path d="M40 9V3h-1v6h1zm2-7h-1v5h1V2z" fill="#500"/></g><g class="gotchi-sleeves gotchi-sleeves-left gotchi-sleeves-down"><path d="M40 2v1h1v1h1v1h2v7h-2v-1h-2v-1h-1V2h1z" fill="#3c0000"/><path d="M43 5v7h-1V5h1z" fill="#fcb040"/><path d="M40 3v6h-1V3h1zm2 7h-1V5h1v5z" fill="#500"/></g><g class="gotchi-sleeves gotchi-sleeves-right gotchi-sleeves-up"><path d="M4 10V9H3V8H2V7H0V0h2v1h2v1h1v8H4z" fill="#3c0000"/><path d="M1 7V0h1v7H1z" fill="#fcb040"/><path d="M4 9V3h1v6H4zM2 2h1v5H2V2z" fill="#500"/></g><g class="gotchi-sleeves gotchi-sleeves-right gotchi-sleeves-down"><path d="M4 2v1H3v1H2v1H0v7h2v-1h2v-1h1V2H4z" fill="#3c0000"/><path d="M1 5v7h1V5H1z" fill="#fcb040"/><path d="M4 3v6h1V3H4zm-2 7h1V5H2v5z" fill="#500"/></g></g></svg></svg>