<svg xmlns="http://www.w3.org/2000/svg" viewBox="0 0 64 64"><g class="gotchi-bg"><defs fill="#fff"><pattern id="a" patternUnits="userSpaceOnUse" width="4" height="4"><path d="M0 0h1v1H0zm2 2h1v1H2z"/></pattern><pattern id="b" patternUnits="userSpaceOnUse" x="0" y="0" width="2" height="2"><path d="M0 0h1v1H0z"/></pattern><pattern id="c" patternUnits="userSpaceOnUse" x="-2" y="0" width="8" height="1"><path d="M0 0h1v1H0zm2 0h1v1H2zm2 0h1v1H4z"/></pattern><pattern id="d" patternUnits="userSpaceOnUse" x="0" y="0" width="4" height="4"><path d="M0 0h1v1H0zm0 2h1v1H0zm1 0V1h1v1zm1 0h1v1H2zm0-1h1V0H2zm1 2h1v1H3z"/></pattern><pattern id="e" patternUnits="userSpaceOnUse" width="64" height="32"><path d="M4 4h1v1H4zm7 0h1v1h-1zm7 0h1v1h-1zm7 0h1v1h-1zm7 0h1v1h-1zm7 0h1v1h-1zm7 0h1v1h-1zm7 0h1v1h-1zm7 0h1v1h-1z"/><path fill="url(#a)" d="M0 8h64v7H0z"/><path fill="url(#b)" d="M0 16h64v1H0z"/><path fill="url(#c)" d="M0 18h64v1H0z"/><path fill="url(#b)" d="M22 18h15v1H22zM0 20h64v3H0z"/><path fill="url(#d)" d="M0 24h64v8H0z"/></pattern><mask id="f"><path fill="url(#e)" d="M0 0h64v32H0z"/></mask></defs><path fill="#fff" d="M0 0h64v32H0z"/><path fill="#dea8ff" class="gotchi-secondary" mask="url(#f)" d="M0 0h64v32H0z"/><path fill="#dea8ff" class="gotchi-secondary" d="M0 32h64v32H0z"/><path mask="url(#f)" fill="#fff" transform="matrix(1 0 0 -1 0 64)" d="M0 0h64v32H0z"/></g><style>.gotchi-primary{fill:#26A17B;}.gotchi-secondary{fill:#AEDCCE;}.gotchi-cheek{fill:#F696C6;}.gotchi-eyeColor{fill:#0064FF;}.gotchi-primary-mouth{fill:#26A17B;}.gotchi-sleeves-up{display:none;}.gotchi-handsUp{display:none;}.gotchi-handsDownOpen{display:block;}.gotchi-handsDownClosed{display:none;}</style><g class="gotchi-bg"><defs fill="#fff"><pattern id="a" patternUnits="userSpaceOnUse" width="4" height="4"><path d="M0 0h1v1H0zm2 2h1v1H2z"/></pattern><pattern id="b" patternUnits="userSpaceOnUse" x="0" y="0" width="2" height="2"><path d="M0 0h1v1H0z"/></pattern><pattern id="c" patternUnits="userSpaceOnUse" x="-2" y="0" width="8" height="1"><path d="M0 0h1v1H0zm2 0h1v1H2zm2 0h1v1H4z"/></pattern><pattern id="d" patternUnits="userSpaceOnUse" x="0" y="0" width="4" height="4"><path d="M0 0h1v1H0zm0 2h1v1H0zm1 0V1h1v1zm1 0h1v1H2zm0-1h1V0H2zm1 2h1v1H3z"/></pattern><pattern id="e" patternUnits="userSpaceOnUse" width="64" height="32"><path d="M4 4h1v1H4zm7 0h1v1h-1zm7 0h1v1h-1zm7 0h1v1h-1zm7 0h1v1h-1zm7 0h1v1h-1zm7 0h1v1h-1zm7 0h1v1h-1zm7 0h1v1h-1z"/><path fill="url(#a)" d="M0 8h64v7H0z"/><path fill="url(#b)" d="M0 16h64v1H0z"/><path fill="url(#c)" d="M0 18h64v1H0z"/><path fill="url(#b)" d="M22 18h15v1H22zM0 20h64v3H0z"/><path fill="url(#d)" d="M0 24h64v8H0z"/></pattern><mask id="f"><path fill="url(#e)" d="M0 0h64v32H0z"/></mask></defs><path fill="#fff" d="M0 0h64v32H0z"/><path fill="#dea8ff" class="gotchi-secondary" mask="url(#f)" d="M0 0h64v32H0z"/><path fill="#dea8ff" class="gotchi-secondary" d="M0 32h64v32H0z"/><path mask="url(#f)" fill="#fff" transform="matrix(1 0 0 -1 0 64)" d="M0 0h64v32H0z"/></g><g class="gotchi-body"><g class="gotchi-primary"><path d="M21 12h2v-2h-4v2h1z"/><path d="M19 14v-2h-2v2h1zm6-4h2V8h-4v2h1z"/><path d="M29 8h8V6H27v2h1zm16 6h2v-2h-2v1z"/><path d="M48 14h-1v39h-2v2h4V14zm-11-4h4V8h-4v1z"/><path d="M41 12h4v-2h-4v1zM17 53V14h-2v41h4v-2h-1z"/><path d="M24 51h-5v2h5v-1z"/><path d="M27 53h-3v2h5v-2h-1zm18-2h-5v2h5v-1z"/><path d="M35 51h-6v2h6v-1z"/><path d="M38 53h-3v2h5v-2h-1z"/></g><g class="gotchi-secondary"><path d="M18 43v6h2v-1h2v1h2v2h-5v2h-2V14h2v1h-1v26z"/><path d="M27 51h-3v2h5v-2h-1zm11 0h-3v2h5v-2h-1z"/><path d="M35 49h-2v-1h-2v1h-2v2h6v-1zM25 11h2v-1h-4v1h1zm-4 2h2v-1h-4v1h1zm24 31v5h-1v-1h-2v1h-2v2h5v2h2V14h-2v29z"/><path d="M37 8H27v1h5v1h5V9zm8 4h-4v2h4v-1z"/><path d="M41 10h-4v2h4v-1z"/></g><path d="M44 14h-3v-2h-4v-2h-5V9h-5v2h-4v2h-4v2h-1v34h2v-1h2v1h2v2h5v-2h2v-1h2v1h2v2h5v-2h2v-1h2v1h1V14z" fill="#fff"/></g><path class="gotchi-cheek" d="M21 32v2h2v-2h-1zm21 0h-1v2h2v-2z"/><g class="gotchi-primary-mouth"><path d="M29 32h-2v2h2v-1z"/><path d="M33 34h-4v2h6v-2h-1z"/><path d="M36 32h-1v2h2v-2z"/></g><g class="gotchi-shadow"><path opacity=".25" d="M25 58H19v1h1v1h24V59h1V58h-1z" fill="#000"/></g><g class="gotchi-collateral" fill="#26a17b"><path d="M31 19h2v3h-2zm0-2v1h2v-1h3v-1h-3v-1h2v-2h-6v2h2v1h-3v1z"/><path d="M27 17h1v1h-1z"/><path d="M28 18h3v1h-3zm8-1h1v1h-1z"/><path d="M33 18h3v1h-3z"/></g>
    <style>
        .gotchi-bg { display: none }
    </style>
<g class="gotchi-eyeColor"><path d="M27 23H26H25H24H23H22H21V24H22H23H24V25H23H22H21V26H22H23H24H25H26H27H28H29V25H28H27H26V24H27H28H29V23H28H27Z" class="gotchi-primary" /><path d="M41 24H42H43V23H42H41H40H39H38H37H36H35V24H36H37H38V25H37H36H35V26H36H37H38H39H40H41H42H43V25H42H41H40V24H41Z" class="gotchi-primary" /><rect x="24" y="24" width="2" height="1" /><rect x="38" y="24" width="2" height="1" /></g><g class="gotchi-wearable wearable-body"><svg x="15" y="41"><path d="M0,0v14h4v-2h5v2h5v-2h6v2h5v-2h5v2h4V0H0z" fill="#390601"/><g fill="#5e342f"><path d="M14 9h-1v1h-3V9H9V4H4v5H3v1H1v2h3v-2h5v2h5v-2h1V4h-1v5zM5 5h3v1H5V5zm0 2h3v1H5V7zm5-3h3v1h-3V4zm0 2h3v1h-3V6zM1 4h2v2H1V4z"/><path d="M10 8h3v1h-3V8zM1 7h2v2H1V7zm20-3h3v1h-3V4zm0 2h3v1h-3V6zm9-2h-5v5h-1v1h-3V9h-1V4h-1v6h1v2h5v-2h5v2h3v-2h-2V9h-1V4zm-4 1h3v1h-3V5zm0 2h3v1h-3V7z"/><path d="M31 7h2v2h-2V7zm0-3h2v2h-2V4zM21 8h3v1h-3V8zm-5-4h2v6h-2V4z"/></g><g fill="#a97955"><path d="M15 1h1v2h-1V1zm-5 0h1v1h-1V1zm2 0h1v1h-1V1zm9 0h1v1h-1V1zm2 0h1v1h-1V1zM4 1h1v1H4V1zm2 0h1v1H6V1zm2 0h1v1H8V1zM2 1h1v1H2V1zm27 0h1v1h-1V1zm-2 0h1v1h-1V1zm-2 0h1v1h-1V1z"/><path d="M31 1h1v1h-1V1zM18 1h1v2h-1V1zM5 2h1v1H5V2zM3 2h1v1H3V2zm4 0h1v1H7V2zm2 0h1v1H9V2zm4 0h1v1h-1V2zm15 0h1v1h-1V2z"/><path d="M26 2h1v1h-1V2zm-6 0h1v1h-1V2zm4 0h1v1h-1V2zM1 2h1v1H1V2zm31 0h1v1h-1V2zM22 2h1v1h-1V2zM11 2h1v1h-1V2zm19 0h1v1h-1V2z"/></g></svg></g><g class="gotchi-handsDownClosed"><g class="gotchi-primary"><path d="M19 42h1v1h-1zm1-6h1v1h-1z"/><path d="M21 37h1v1h-1zm5 3v4h1v-4zm-5 3h-1v1h2v-1z"/><path d="M24 44h-2v1h4v-1h-1zm1-5h-1v1h2v-1z"/><path d="M23 38h-1v1h2v-1z"/></g><g class="gotchi-secondary"><path d="M19 43h1v1h-1zm5 2h-2v1h4v-1h-1z"/><path d="M27 41v3h1v-3zm-6 3h-1v1h2v-1z"/><path d="M26 44h1v1h-1zm-7-3h-1v2h1v-1z"/></g><g class="gotchi-primary"><path d="M44 42h1v1h-1zm-1-6h1v1h-1z"/><path d="M42 37h1v1h-1z"/><path d="M42 39v-1h-2v1h1zm0 4v1h2v-1h-1z"/><path d="M40 44h-2v1h4v-1h-1z"/><path d="M38 42v-2h-1v4h1v-1z"/><path d="M40 40v-1h-2v1h1z"/></g><g class="gotchi-secondary"><path d="M42 44v1h2v-1h-1zm-5-2v-1h-1v3h1v-1z"/><path d="M40 45h-2v1h4v-1h-1z"/><path d="M37 44h1v1h-1zm7-1h1v1h-1z"/></g></g><g class="gotchi-handsDownOpen"><g class="gotchi-primary"><path d="M14 40h1v1h-1v-1zm-1-6h1v1h-1v-1z"/><path d="M14 33h1v1h-1v-1zm-2 2h1v1h-1v-1zm-5 3h1v4H7v-4zm5 3h2v1h-2v-1z"/><path d="M8 42h4v1H8v-1zm0-5h2v1H8v-1z"/><path d="M10,36h2v1h-2V36z"/></g><g class="gotchi-secondary"><path d="M14,39h1v1h-1V39z"/><path d="M12,40h2v1h-2V40z"/><path d="M8,41h4v1H8V41z"/></g><path d="M8,38v3h4v-1h2v-1h1v-5h-1v1h-1v1h-1v1h-2v1H8z" fill="#fff" /><g class="gotchi-primary"><path d="M49 40h1v1h-1v-1zm1-6h1v1h-1v-1z"/><path d="M49 33h1v1h-1v-1zm2 2h1v1h-1v-1zm5 3h1v4h-1v-4zm-6 3h2v1h-2v-1z"/><path d="M52 42h4v1h-4v-1zm2-5h2v1h-2v-1z"/><path d="M52,36h2v1h-2V36z"/></g><g class="gotchi-secondary"><path d="M49,39h1v1h-1V39z"/><path d="M50,40h2v1h-2V40z"/><path d="M52,41h4v1h-4V41z"/></g><path d="M54,38v-1h-2v-1h-1v-1h-1v-1h-1v5h1v1h2v1h4v-3H54z" fill="#fff" /></g><g class="gotchi-handsUp"><g class="gotchi-secondary"><path d="M50,38h1v1h-1V38z"/><path d="M49 39h1v1h-1v-1zm2-2h1v1h-1v-1z"/><path d="M52,36h2v1h-2V36z"/><path d="M54,35h2v1h-2V35z"/></g><path d="M52,32v1h-2v1h-1v5h1v-1h1v-1h1v-1h2v-1h2v-3H52z" fill="#fff"/><g class="gotchi-primary"><path d="M49,33h1v1h-1V33z"/><path d="M50 32h2v1h-2v-1zm0 7h1v1h-1v-1z"/><path d="M49 40h1v1h-1v-1zm2-2h1v1h-1v-1z"/><path d="M52 37h2v1h-2v-1zm0-6h4v1h-4v-1z"/><path d="M56,32h1v4h-1V32z"/><path d="M54,36h2v1h-2V36z"/></g><g class="gotchi-secondary"><path d="M13,38h1v1h-1V38z"/><path d="M14 39h1v1h-1v-1zm-2-2h1v1h-1v-1z"/><path d="M10,36h2v1h-2V36z"/><path d="M8,35h2v1H8V35z"/></g><path d="M8,32v3h2v1h2v1h1v1h1v1h1v-5h-1v-1h-2v-1H8z" fill="#fff"/><g class="gotchi-primary"><path d="M14,33h1v1h-1V33z"/><path d="M12 32h2v1h-2v-1zm1 7h1v1h-1v-1z"/><path d="M14 40h1v1h-1v-1zm-2-2h1v1h-1v-1z"/><path d="M10 37h2v1h-2v-1zm-2-6h4v1H8v-1z"/><path d="M7,32h1v4H7V32z"/><path d="M8,36h2v1H8V36z"/></g></g><g class="gotchi-wearable wearable-face"><svg x="21" y="32"><path d="M21 9v1h-1V8h-1V5h-1V2h-1V1h-1V0h-3v1h-1v1h-2V1H9V0H6v1H5v1H4v3H3v3H2v2H1V9H0v2h4v-1h1V9h1V8h1V7h1V6h1V5h1V4h2v1h1v1h1v1h1v1h1v1h1v1h1v1h4V9h-1z" fill="#5c2700"/><g fill="#724422"><path d="M5 5h1V3H5v2z"/><path d="M6 2v1h2V2H6zm10 1v2h1V3h-1z"/><path d="M14 2v1h2V2h-2z"/></g></svg></g><g class="gotchi-wearable wearable-eyes"><svg x="15" y="20"><path d="M31 4V3h-1V2h-1V1h-1V0h-6v1h-1v1h-1v1h-1v1h-4V3h-1V2h-1V1h-1V0H6v1H5v1H4v1H3v1H0v4h3v1h1v1h1v1h1v1h5v5h1v1h1v1h8v-1h1v-1h1v-5h5v-1h1v-1h1V9h1V8h3V4h-3z" fill="#390601"/><g fill="#592f2a"><path d="M11,1h1v1h-1V1z"/><path d="M12 2h1v1h-1V2zM6 1h1v1H6V1z"/><path d="M5,2h1v1H5V2z"/><path d="M4,3h1v1H4V3z"/><path d="M3 4h1v1H3V4zm8 6h1v1h-1v-1z"/><path d="M12 9h1v1h-1V9zm-6 1h1v1H6v-1z"/><path d="M5,9h1v1H5V9z"/><path d="M4,8h1v1H4V8z"/><path d="M3 7h1v1H3V7zM1 6h1v1H1V6z"/><path d="M2 5h1v1H2V5zM0 5h1v1H0V5zm13-2h1v1h-1V3zm0 5h1v1h-1V8z"/><path d="M14 4h1v1h-1V4zm0 3h1v1h-1V7zm5-3h1v1h-1V4zm0 3h1v1h-1V7z"/><path d="M20 3h1v1h-1V3zm0 5h1v1h-1V8zm2-7h1v1h-1V1z"/><path d="M21 2h1v1h-1V2zm6-1h1v1h-1V1z"/><path d="M28,2h1v1h-1V2z"/><path d="M29,3h1v1h-1V3z"/><path d="M30 4h1v1h-1V4zm-8 6h1v1h-1v-1z"/><path d="M21 9h1v1h-1V9zm6 1h1v1h-1v-1z"/><path d="M28,9h1v1h-1V9z"/><path d="M29,8h1v1h-1V8z"/><path d="M30 7h1v1h-1V7zm2-1h1v1h-1V6z"/><path d="M31 5h1v1h-1V5zm2 0h1v1h-1V5z"/></g><g fill="#846460"><path d="M11,2h1v1h-1V2z"/><path d="M12 3h1v1h-1V3zm0 5h1v1h-1V8z"/><path d="M11 9h1v1h-1V9zM6 2h1v1H6V2z"/><path d="M5 3h1v1H5V3zm0 5h1v1H5V8z"/><path d="M6 9h1v1H6V9zm2-8h2v1H8V1zM4 5h1v2H4V5zM2 6h1v1H2V6zM0 6h1v1H0V6z"/><path d="M1 5h1v1H1V5zm7 5h2v1H8v-1zm11-1h1v1h-1V9z"/><path d="M20,10h1v1h-1V10z"/><path d="M21 16h-1v1h-6v-1h-1v-5h-1v6h1v1h8v-1h1v-6h-1v5zm-6-8h4v1h-4V8zm3 2h1v1h-1v-1z"/><path d="M19 11h1v1h-1v-1zm-4-1h1v1h-1v-1z"/><path d="M14 11h1v1h-1v-1zm2 0h2v1h-2v-1z"/><path d="M18 12h1v1h-1v-1zm-3 0h1v1h-1v-1z"/><path d="M16,13h2v1h-2V13z"/><path d="M18 14h1v1h-1v-1zm-3 0h1v1h-1v-1z"/><path d="M16 15h2v1h-2v-1zm3-2h1v1h-1v-1zm0 2h1v1h-1v-1zm-5-2h1v1h-1v-1zm0 2h1v1h-1v-1zm0-6h1v1h-1V9z"/><path d="M13 10h1v1h-1v-1zm0-5h1v2h-1V5zm2 0h1v2h-1V5zm3 0h1v2h-1V5zm2 0h1v2h-1V5zm2-3h1v1h-1V2z"/><path d="M21 3h1v1h-1V3zm0 5h1v1h-1V8z"/><path d="M22 9h1v1h-1V9zm5-7h1v1h-1V2z"/><path d="M28 3h1v1h-1V3zm0 5h1v1h-1V8z"/><path d="M27 9h1v1h-1V9zm-3-8h2v1h-2V1zm7 5h1v1h-1V6zm2 0h1v1h-1V6z"/><path d="M29 5h1v2h-1V5zm3 0h1v1h-1V5zm-8 5h2v1h-2v-1z"/></g><path d="M11 3H7v1H6v4h1v1h4V8h1V4h-1V3zm16 1V3h-4v1h-1v4h1v1h4V8h1V4h-1z" fill="#0ff"/><g fill="#fff"><path d="M9,3h1v1H9V3z"/><path d="M8,4h1v1H8V4z"/><path d="M7,5h1v1H7V5z"/><path d="M6 6h1v1H6V6zm5-1h-1v1H9v1H8v1H7v1h2V8h1V7h1V6h1V4h-1v1zm14-2h1v1h-1V3z"/><path d="M24,4h1v1h-1V4z"/><path d="M23 5h1v1h-1V5zm4-1v1h-1v1h-1v1h-1v1h-1v1h2V8h1V7h1V6h1V4h-1z"/><path d="M22,6h1v1h-1V6z"/></g></svg></g><g class="gotchi-wearable wearable-head"><svg x="9" y="3"><path d="M44 14v2h-4V4h-2V2h-2V0H26v1h-1v1h-4V1h-1V0H10v2H8v2H6v12H2v-2H0v3h1v1h44v-1h1v-3h-2z" fill="#e4c599"/><path d="M6 13v3h34v-3H6z" fill="#4b2d00"/><path d="M12 13v3h2v-3h-2zm4 0v3h2v-3h-2zm4 0v3h2v-3h-2zm12 0v3h2v-3h-2zm-4 0v3h2v-3h-2zM8 13v3h2v-3H8zm28 0v3h2v-3h-2zm-12 0v3h2v-3h-2z" fill="#a97955"/></svg></g><g class="gotchi-wearable wearable-hand wearable-hand-left"><svg x="1" y="33"><path d="M13,0v1h-1v1h-1v1H9v1H7v1H6V4H5V3H2v1H1v1H0v1h2V5h3v1H4v2h1v1H2V8H0v1h1v1h1v1h3v-1h1V9h1v1h4V9h2V8h1V0H13z" fill="#390601"/><path d="M5,6h2v2H5V6z" fill="#0ff"/><g fill="#4e2721"><path d="M1,5h1v1H1V5z"/><path d="M2 4h3v1H2V4zm0 5h3v1H2V9z"/><path d="M1 8h1v1H1V8zm12-5v1h-2v1H9v1H8v2h1V7h2V6h2V5h1V3h-1z"/></g><path d="M5,6h1v1H5V6z" fill="#fff"/></svg></g><g class="gotchi-wearable wearable-hand wearable-hand-right"><svg x="2" y="23"><g transform="scale(-1, 1) translate(-60, 0)"><g fill="#e4c599"><path d="M9 14h1v-1H8v1h1z"/><path d="M7 13h1v-2H7v2zm0-4v1h2V9H7z"/><path d="M9 8h1v1H9z"/><path d="M10 7h1v1h-1z"/><path d="M11 3v4h1V3h-1z"/><path d="M10 2h1v1h-1z"/><path d="M9 1h1v1H9z"/><path d="M5 1h4V0H3v1h2zM1 2h1v1H1z"/><path d="M2 1h1v1H2zM1 5V3H0v4h1V5z"/><path d="M1 7h1v1H1z"/><path d="M2 8h1v1H2z"/><path d="M4 9H3v1h2V9H4z"/><path d="M5 10v1h2v-1H5zm5 6h1v-2h-1v2z"/><path d="M11 18v1h1v-3h-1v2z"/><path d="M10 19h1v1h-1z"/><path d="M8 20H6v1h4v-1H8z"/><path d="M5 21h1v1H5z"/><path d="M4 23v1h1v-2H4v1z"/><path d="M5 24h1v1H5z"/><path d="M6 25h1v1H6z"/></g><path d="M7 12h1v1H7zm-1-2h1v1H6zm2-1h1v1H8zm2-2h1v1h-1zm1-2h1v1h-1zm0-2h1v1h-1zM9 1h1v1H9zM7 0h1v1H7zM5 0h1v1H5zM3 0h1v1H3zM1 2h1v1H1zM0 4h1v1H0zm0 2h1v1H0zm2 2h1v1H2zm2 1h1v1H4zm5 4h1v1H9zm1 2h1v1h-1zm1 2h1v1h-1zm-1 2h1v1h-1zm-2 1h1v1H8zm-2 0h1v1H6zm-2 2h1v1H4zm1 2h1v1H5z" fill="#a97955"/></g></svg></g></svg>