<svg xmlns="http://www.w3.org/2000/svg" viewBox="0 0 64 64"><g class="gotchi-bg"><defs fill="#fff"><pattern id="a" patternUnits="userSpaceOnUse" width="4" height="4"><path d="M0 0h1v1H0zm2 2h1v1H2z"/></pattern><pattern id="b" patternUnits="userSpaceOnUse" x="0" y="0" width="2" height="2"><path d="M0 0h1v1H0z"/></pattern><pattern id="c" patternUnits="userSpaceOnUse" x="-2" y="0" width="8" height="1"><path d="M0 0h1v1H0zm2 0h1v1H2zm2 0h1v1H4z"/></pattern><pattern id="d" patternUnits="userSpaceOnUse" x="0" y="0" width="4" height="4"><path d="M0 0h1v1H0zm0 2h1v1H0zm1 0V1h1v1zm1 0h1v1H2zm0-1h1V0H2zm1 2h1v1H3z"/></pattern><pattern id="e" patternUnits="userSpaceOnUse" width="64" height="32"><path d="M4 4h1v1H4zm7 0h1v1h-1zm7 0h1v1h-1zm7 0h1v1h-1zm7 0h1v1h-1zm7 0h1v1h-1zm7 0h1v1h-1zm7 0h1v1h-1zm7 0h1v1h-1z"/><path fill="url(#a)" d="M0 8h64v7H0z"/><path fill="url(#b)" d="M0 16h64v1H0z"/><path fill="url(#c)" d="M0 18h64v1H0z"/><path fill="url(#b)" d="M22 18h15v1H22zM0 20h64v3H0z"/><path fill="url(#d)" d="M0 24h64v8H0z"/></pattern><mask id="f"><path fill="url(#e)" d="M0 0h64v32H0z"/></mask></defs><path fill="#fff" d="M0 0h64v32H0z"/><path fill="#dea8ff" class="gotchi-secondary" mask="url(#f)" d="M0 0h64v32H0z"/><path fill="#dea8ff" class="gotchi-secondary" d="M0 32h64v32H0z"/><path mask="url(#f)" fill="#fff" transform="matrix(1 0 0 -1 0 64)" d="M0 0h64v32H0z"/></g><style>.gotchi-primary{fill:#2664BA;}.gotchi-secondary{fill:#D4E0F1;}.gotchi-cheek{fill:#F696C6;}.gotchi-eyeColor{fill:#EA8C27;}.gotchi-primary-mouth{fill:#2664BA;}.gotchi-sleeves-up{display:none;}.gotchi-handsUp{display:none;}.gotchi-handsDownOpen{display:block;}.gotchi-handsDownClosed{display:none;}</style><g class="gotchi-body"><path d="M47 14v-2h-2v-2h-4V8h-4V6H27v2h-4v2h-4v2h-2v2h-2v41h4v-2h5v2h5v-2h6v2h5v-2h5v2h4V14z" class="gotchi-primary"/><path d="M45 14v-2h-4v-2h-4V8H27v2h-4v2h-4v2h-2v39h2v-2h5v2h5v-2h6v2h5v-2h5v2h2V14z" class="gotchi-secondary"/><path d="M18,49h2v-1h2v1h2v2h5v-2h2v-1h2v1h2v2h5v-2h2v-1h2v1h1V14h-4v-2h-4v-2h-5V9h-5v2h-4v2h-4v2h-1V49z" fill="#fff"/></g><path class="gotchi-cheek" d="M21 32v2h2v-2h-1zm21 0h-1v2h2v-2z"/><g class="gotchi-primary-mouth"><path d="M29 32h-2v2h2v-1z"/><path d="M33 34h-4v2h6v-2h-1z"/><path d="M36 32h-1v2h2v-2z"/></g>
    <style>
        .gotchi-bg { display: none }
    </style>
<g class="gotchi-shadow"><path opacity=".25" d="M25 58H19v1h1v1h24V59h1V58h-1z" fill="#000"/></g><g class="gotchi-collateral" fill="#2664ba"><path d="M30 15v2h3v1h-3v1h1.5v1h1v-1H34v-3h-3v-1h3v-1h-1.5v-1h-1v1H30zm4 5h1v1h-1z"/><path d="M35 19h1v1h-1z"/><path d="M36 16v3h1v-5h-1v1zm-2-4h1v1h-1z"/><path d="M35 13h1v1h-1zm-7 5v-4h-1v5h1zm1 2h1v1h-1z"/><path d="M28 19h1v1h-1zm1-7h1v1h-1z"/><path d="M28 13h1v1h-1z"/></g><g class="gotchi-eyeColor"><rect x="23" y="23" width="4" height="1" class="gotchi-primary" /><rect x="24" y="24" width="2" height="2" /><rect x="37" y="23" width="4" height="1" class="gotchi-primary" /><rect x="38" y="24" width="2" height="2" /></g><g class="gotchi-wearable wearable-body"><svg x="12" y="32"><path d="M34 1v1h-1v1h-1v1h-1v1h-1v1h-1v1h-2v1h-3v1h-8V8h-3V7h-2V6h-1V5H9V4H8V3H7V2H6V1H3v20h34V1h-3z" fill="#960000"/><path d="M34 2v1h-1v1h-1v1h-1v1h-1v1h-1v1h-2v1h-3v1h-8V9h-3V8h-2V7h-1V6H9V5H8V4H7V3H6V2H4v18h32V2h-2z" fill="red"/><g fill="#ffc900"><path d="M12.5 14v-2h-1v4h1v-2z"/><path d="M12.5 16h1v1h-1z"/><path d="M14.5 14v-2h-1v4h1v-2zm1-1v3h1v-4h-1v1z"/><path d="M14.5 16h1v1h-1zm11-2v3h1v-4h-1v1zm-2 0v3h1v-4h-1v1z"/><path d="M24.5 12h1v1h-1zm3 0v5h1v-5h-1zm-6 2v3h1v-4h-1v1z"/><path d="M22.5 12h1v1h-1zm-4 0v1h2v-1h-2zm2 3v-1h-1v2h1v-1z"/><path d="M18.5 16h1v1h-1z"/><path d="M17.5 14v2h1v-3h-1v1z"/></g></svg></g><g class="gotchi-handsDownClosed"><g class="gotchi-primary"><path d="M19 42h1v1h-1zm1-6h1v1h-1z"/><path d="M21 37h1v1h-1zm5 3v4h1v-4zm-5 3h-1v1h2v-1z"/><path d="M24 44h-2v1h4v-1h-1zm1-5h-1v1h2v-1z"/><path d="M23 38h-1v1h2v-1z"/></g><g class="gotchi-secondary"><path d="M19 43h1v1h-1zm5 2h-2v1h4v-1h-1z"/><path d="M27 41v3h1v-3zm-6 3h-1v1h2v-1z"/><path d="M26 44h1v1h-1zm-7-3h-1v2h1v-1z"/></g><g class="gotchi-primary"><path d="M44 42h1v1h-1zm-1-6h1v1h-1z"/><path d="M42 37h1v1h-1z"/><path d="M42 39v-1h-2v1h1zm0 4v1h2v-1h-1z"/><path d="M40 44h-2v1h4v-1h-1z"/><path d="M38 42v-2h-1v4h1v-1z"/><path d="M40 40v-1h-2v1h1z"/></g><g class="gotchi-secondary"><path d="M42 44v1h2v-1h-1zm-5-2v-1h-1v3h1v-1z"/><path d="M40 45h-2v1h4v-1h-1z"/><path d="M37 44h1v1h-1zm7-1h1v1h-1z"/></g></g><g class="gotchi-handsDownOpen"><g class="gotchi-primary"><path d="M56 38v-1h-2v-1h-2v-1h-1v-1h-1v-1h-1v8h1v1h2v1h4v-1h1v-4z"/></g><g class="gotchi-secondary"><path d="M54 38v-1h-2v-1h-1v-1h-1v-1h-1v6h1v1h2v1h4v-4z" /></g><path d="M54,38v-1h-2v-1h-1v-1h-1v-1h-1v5h1v1h2v1h4v-3H54z" fill="#fff"/><g class="gotchi-primary"><path d="M8 38v-1h2v-1h2v-1h1v-1h1v-1h1v8h-1v1h-2v1H8v-1H7v-4z"/></g><g class="gotchi-secondary"><path d="M10 38v-1h2v-1h1v-1h1v-1h1v6h-1v1h-2v1H8v-4z" /></g><path d="M8,38v3h4v-1h2v-1h1v-5h-1v1h-1v1h-1v1h-2v1H8z" fill="#fff"/></g><g class="gotchi-handsUp"><g class="gotchi-secondary"><path d="M50,38h1v1h-1V38z"/><path d="M49 39h1v1h-1v-1zm2-2h1v1h-1v-1z"/><path d="M52,36h2v1h-2V36z"/><path d="M54,35h2v1h-2V35z"/></g><path d="M52,32v1h-2v1h-1v5h1v-1h1v-1h1v-1h2v-1h2v-3H52z" fill="#fff"/><g class="gotchi-primary"><path d="M49,33h1v1h-1V33z"/><path d="M50 32h2v1h-2v-1zm0 7h1v1h-1v-1z"/><path d="M49 40h1v1h-1v-1zm2-2h1v1h-1v-1z"/><path d="M52 37h2v1h-2v-1zm0-6h4v1h-4v-1z"/><path d="M56,32h1v4h-1V32z"/><path d="M54,36h2v1h-2V36z"/></g><g class="gotchi-secondary"><path d="M13,38h1v1h-1V38z"/><path d="M14 39h1v1h-1v-1zm-2-2h1v1h-1v-1z"/><path d="M10,36h2v1h-2V36z"/><path d="M8,35h2v1H8V35z"/></g><path d="M8,32v3h2v1h2v1h1v1h1v1h1v-5h-1v-1h-2v-1H8z" fill="#fff"/><g class="gotchi-primary"><path d="M14,33h1v1h-1V33z"/><path d="M12 32h2v1h-2v-1zm1 7h1v1h-1v-1z"/><path d="M14 40h1v1h-1v-1zm-2-2h1v1h-1v-1z"/><path d="M10 37h2v1h-2v-1zm-2-6h4v1H8v-1z"/><path d="M7,32h1v4H7V32z"/><path d="M8,36h2v1H8V36z"/></g></g><g class="gotchi-wearable wearable-face"><svg x="11" y="2"><path d="M38 6h-2v2h2V6zM4 6v2h2V6H4z"/><path d="M6 4v2h2V4H6z"/><path d="M8 2v2h4V2H8zm28 2h-2v2h2V4z"/><path d="M34 2h-4v2h4V2z"/><path d="M30 0H12v2h18V0zM2 8v9H0v10h2v2h2V8H2zm38 9V8h-2v21h2v-2h2V17h-2z"/><path d="M40 19v-4h-2v14h2v-4h2v-6h-2z" fill="#323232"/><path d="M38 17v10h2V17h-2z" fill="#828282"/><path d="M38 19v6h2v-6h-2z" fill="#afafaf"/><path d="M2 19v-4h2v14H2v-4H0v-6h2z" fill="#323232"/><path d="M4 17v10H2V17h2z" fill="#828282"/><path d="M4 19v6H2v-6h2z" fill="#afafaf"/></svg></g><g class="gotchi-wearable wearable-eyes"><svg x="15" y="21"><path d="M6,9h1v1H6V9z"/><path d="M5,8h1v1H5V8z"/><path d="M5,6V2H4v2H2v1h2v3h1V6z"/><path d="M5 1h1v1H5V1zM0 3v1h2V3H0zm9 7H7v1h4v-1H9z"/><path d="M11,9v1h2V9H11z"/><path d="M13,8h1v1h-1V8z"/><path d="M14 7h1v1h-1V7zm0-6h1v1h-1V1z"/><path d="M8 1h6V0H6v1h2zm19 8h1v1h-1V9z"/><path d="M28 8h1v1h-1V8zm0-7h1v1h-1V1z"/><path d="M30,4V2h-1v6h1V5h2V4H30z"/><path d="M32 3v1h2V3h-2zm-7 7h-2v1h4v-1h-2z"/><path d="M22,9h-1v1h2V9H22z"/><path d="M20,8h1v1h-1V8z"/><path d="M19,7h1v1h-1V7z"/><path d="M19,5V2h-1v2h-2V2h-1v5h1V5h2v2h1V5z"/><path d="M19,1h1v1h-1V1z"/><path d="M22 1h6V0h-8v1h2z"/><path d="M14 1H6v1H5v6h1v1h1v1h4V9h2V8h1V7h1V2h-1V1zm14 1V1h-8v1h-1v5h1v1h1v1h2v1h4V9h1V8h1V2h-1z" opacity=".75" fill="#a000dc" enable-background="new"/><g fill="#d778f5"><path d="M11 1h1v1h-1V1zM8 1h1v1H8V1z"/><path d="M10 2h1v1h-1V2zM7 2h1v1H7V2z"/><path d="M9 3h1v1H9V3zM6 3h1v1H6V3z"/><path d="M8,4h1v1H8V4z"/><path d="M7,5h1v1H7V5z"/><path d="M6 6h1v1H6V6zM5 4h1v1H5V4zm17-3h1v1h-1V1zm3 0h1v1h-1V1z"/><path d="M21 2h1v1h-1V2zm3 0h1v1h-1V2z"/><path d="M20 3h1v1h-1V3zm3 0h1v1h-1V3z"/><path d="M22,4h1v1h-1V4z"/><path d="M21,5h1v1h-1V5z"/><path d="M20 6h1v1h-1V6zm-1-2h1v1h-1V4z"/></g>
</svg></g><g class="gotchi-wearable wearable-head"><svg x="15" y="4"><path d="M33 8V7h-1V6h-1V5h-1V4h-1V3h-1V2h-3V1h-7V0h-2v1H9v1H6v1H5v1H4v1H3v1H2v1H1v1H0v9h3v1h1v1h26v-1h1v-1h3V8h-1z" fill="#960000"/><g fill="red"><path d="M32 8V7h-1V6h-1V5h-1V4h-1V3h-3V2h-6v1h1v1h1v1h1v1h1v1h1v1h1v8h8V8h-1zM11 7V6h1V5h1V4h1V3h1V2H9v1H6v1H5v1H4v1H3v1H2v1H1v8h8V8h1V7h1z"/><path d="M23 7h-1V6h-1V5h-1V4h-1V3h-1V2h-2v1h-1v1h-1v1h-1v1h-1v1h-1v1h-1v8h14V8h-1V7zM4 17v1h26v-1H4z"/></g><g fill="#ffc900"><path d="M22 13.5v-6h-2v6h2zm-4 0v-6h-2v6h2z"/><path d="M14 15.5h2v-2h-2v2zm4 0h2v-2h-2v2z"/><path d="M14 13.5v-6h-2v6h2z"/></g></svg></g>"><svg x="12" y="32"><g><g class="gotchi-sleeves gotchi-sleeves-left gotchi-sleeves-up"><path d="M38 9V8h1V7h1V0h-2v1h-1.5v8H38z" fill="#960000"/><path d="M38 8V7h1V1h-1v1h-1v6h1z" fill="red"/></g><g class="gotchi-sleeves gotchi-sleeves-left gotchi-sleeves-down"><path d="M38 1v1h1v1h1v7h-2V9h-1.5V1H38z" fill="#960000"/><path d="M38 2v1h1v6h-1V8h-1V2h1z" fill="red"/></g><g class="gotchi-sleeves gotchi-sleeves-right gotchi-sleeves-up"><path d="M2 9V8H1V7H0V0h2v1h1.5v8H2z" fill="#960000"/><path d="M2 8V7H1V1h1v1h1v6H2z" fill="red"/></g><g class="gotchi-sleeves gotchi-sleeves-right gotchi-sleeves-down"><path d="M2 1v1H1v1H0v7h2V9h1.5V1H2z" fill="#960000"/><path d="M2 2v1H1v6h1V8h1V2H2z" fill="red"/></g></g></svg><g class="gotchi-wearable wearable-hand wearable-hand-left"><svg x="4" y="31"><path d="M0,0v11h1v1h1v1h1v1h3v-1h1v-1h1v-1h1V0H0z"/><path d="M1,2v7h7V2H1z" fill="#323232"/><path d="M3 7h3v1H3V7zm0-4h3v1H3V3zm0 2h3v1H3V5z" fill="#0f0"/></svg></g><g class="gotchi-wearable wearable-hand wearable-hand-right"><svg x="1" y="35"><g transform="scale(-1, 1) translate(-62, 0)"><path d="M8 0v1H7v1H6v1H5V2H4V1H2v1H1v1H0v3h1v1h2V6H2V5H1V4h1V3h2v1h1v2h1v1h1v1h1v1h1V0H8z" fill="#abadb0"/><path d="M6 2v5h1V2H6z" fill="#85888c"/><path d="M8 0v9h1V0H8z" fill="#353941"/><path d="M7 1v7h1V1H7z" fill="#606469"/></g></svg></g></svg>