<svg xmlns="http://www.w3.org/2000/svg" viewBox="0 0 64 64"><g class="gotchi-bg"><defs fill="#fff"><pattern id="a" patternUnits="userSpaceOnUse" width="4" height="4"><path d="M0 0h1v1H0zm2 2h1v1H2z"/></pattern><pattern id="b" patternUnits="userSpaceOnUse" x="0" y="0" width="2" height="2"><path d="M0 0h1v1H0z"/></pattern><pattern id="c" patternUnits="userSpaceOnUse" x="-2" y="0" width="8" height="1"><path d="M0 0h1v1H0zm2 0h1v1H2zm2 0h1v1H4z"/></pattern><pattern id="d" patternUnits="userSpaceOnUse" x="0" y="0" width="4" height="4"><path d="M0 0h1v1H0zm0 2h1v1H0zm1 0V1h1v1zm1 0h1v1H2zm0-1h1V0H2zm1 2h1v1H3z"/></pattern><pattern id="e" patternUnits="userSpaceOnUse" width="64" height="32"><path d="M4 4h1v1H4zm7 0h1v1h-1zm7 0h1v1h-1zm7 0h1v1h-1zm7 0h1v1h-1zm7 0h1v1h-1zm7 0h1v1h-1zm7 0h1v1h-1zm7 0h1v1h-1z"/><path fill="url(#a)" d="M0 8h64v7H0z"/><path fill="url(#b)" d="M0 16h64v1H0z"/><path fill="url(#c)" d="M0 18h64v1H0z"/><path fill="url(#b)" d="M22 18h15v1H22zM0 20h64v3H0z"/><path fill="url(#d)" d="M0 24h64v8H0z"/></pattern><mask id="f"><path fill="url(#e)" d="M0 0h64v32H0z"/></mask></defs><path fill="#fff" d="M0 0h64v32H0z"/><path fill="#dea8ff" class="gotchi-secondary" mask="url(#f)" d="M0 0h64v32H0z"/><path fill="#dea8ff" class="gotchi-secondary" d="M0 32h64v32H0z"/><path mask="url(#f)" fill="#fff" transform="matrix(1 0 0 -1 0 64)" d="M0 0h64v32H0z"/></g><style>.gotchi-primary{fill:#26A17B;}.gotchi-secondary{fill:#AEDCCE;}.gotchi-cheek{fill:#F696C6;}.gotchi-eyeColor{fill:#EA8C27;}.gotchi-primary-mouth{fill:#26A17B;}.gotchi-sleeves-up{display:none;}.gotchi-handsUp{display:none;}.gotchi-handsDownOpen{display:block;}.gotchi-handsDownClosed{display:none;}</style><g class="gotchi-body"><path d="M47 14v-2h-2v-2h-4V8h-4V6H27v2h-4v2h-4v2h-2v2h-2v41h4v-2h5v2h5v-2h6v2h5v-2h5v2h4V14z" class="gotchi-primary"/><path d="M45 14v-2h-4v-2h-4V8H27v2h-4v2h-4v2h-2v39h2v-2h5v2h5v-2h6v2h5v-2h5v2h2V14z" class="gotchi-secondary"/><path d="M18,49h2v-1h2v1h2v2h5v-2h2v-1h2v1h2v2h5v-2h2v-1h2v1h1V14h-4v-2h-4v-2h-5V9h-5v2h-4v2h-4v2h-1V49z" fill="#fff"/></g><path class="gotchi-cheek" d="M21 32v2h2v-2h-1zm21 0h-1v2h2v-2z"/><g class="gotchi-primary-mouth"><path d="M29 32h-2v2h2v-1z"/><path d="M33 34h-4v2h6v-2h-1z"/><path d="M36 32h-1v2h2v-2z"/></g>
    <style>
        .gotchi-bg { display: none }
    </style>
<g class="gotchi-shadow"><path opacity=".25" d="M25 58H19v1h1v1h24V59h1V58h-1z" fill="#000"/></g><g class="gotchi-collateral" fill="#26a17b"><path d="M31 19h2v3h-2zm0-2v1h2v-1h3v-1h-3v-1h2v-2h-6v2h2v1h-3v1z"/><path d="M27 17h1v1h-1z"/><path d="M28 18h3v1h-3zm8-1h1v1h-1z"/><path d="M33 18h3v1h-3z"/></g><g class="gotchi-eyeColor"><path d="M39 23v1h-1v-1h1v-1h-2v1h-1v2h1v1h2v-1h1v-2h-1z" /><g class="gotchi-primary"><path d="M34 25h-1v1h1v-1zm7 0v1h1v-2h-1v1zm-4-2v-1h-2v1h2z" /><path d="M44 21h-7v1h5v2h1v-1h1v-1h1v-1h-1zm-9 5h-1v1h2v-1h-1z" /><path d="M38 27h-2v1h4v-1h-2zm-3-3v-1h-1v2h1v-1z" /><path d="M41 26h-1v1h1v-1z" /></g><path d="M27 22h-2v1h1v1h-1v-1h-1v2h1v1h2v-1h1v-2h-1v-1z" /><g class="gotchi-primary"><path d="M31 25h-1v1h1v-1zm-8-1h-1v2h1v-2z" /><path d="M22 22h5v-1h-8v1h1v1h1v1h1v-2z" /><path d="M28 23h1v-1h-2v1h1zm0 3v1h2v-1h-2z" /><path d="M26 27h-2v1h4v-1h-2zm3-2h1v-2h-1v2z" /><path d="M24 26h-1v1h1v-1z" /></g></g><g class="gotchi-wearable wearable-body"><svg x="12" y="32"><path d="M35 1v1h-2v1h-2v1h-1v1h-1v1h-1v1h-1v1h-2v1h-2v1h-2v1h-2v-1h-2V9h-2V8h-2V7h-1V6h-1V5h-1V4H9V3H7V2H5V1H2.5v8H3v14h34V9h.5V1H35z" fill="#0448b9"/><path d="M35 2v1h-2v1h-2v1h-1v1h-1v1h-1v1h-1v1h-2v1h-2v1h-2v1h-2v-1h-2v-1h-2V9h-2V8h-1V7h-1V6h-1V5H9V4H7V3H5V2H2.5v6H4v14h32V8h1.5V2H35z" fill="#0060ff"/><g fill="#fff"><path d="M30 21h1v1h-1zm-6 0h1v1h-1zm-6 0h1v1h-1zm-6 0h1v1h-1zm-6 0h1v1H6zm-2-2h1v1H4zm30-1h-1v1h-1v1h1v1h1v-1h1v-1h-1zm-6 0h-1v1h-1v1h1v1h1v-1h1v-1h-1zm-6 0h-1v1h-1v1h1v1h1v-1h1v-1h-1zm-6 0h-1v1h-1v1h1v1h1v-1h1v-1h-1zm-6 0H9v1H8v1h1v1h1v-1h1v-1h-1zm25-2h1v1h-1zm-3 0h-1v-1h-1v1h-1v1h1v1h1v-1h1zm-6 0h-1v-1h-1v1h-1v1h1v1h1v-1h1zm-6 0h-1v-1h-1v1h-1v1h1v1h1v-1h1zm-6 0h-1v-1h-1v1h-1v1h1v1h1v-1h1zm-6 0H7v-1H6v1H5v1h1v1h1v-1h1zm26-1v-1h1v-1h-1v-1h-1v1h-1v1h1v1zm-13 0h1v-1h1v-1h-1v-1h-1v1h-1v1h1zm-11 0v-1h1v-1h-1v-1H9v1H8v1h1v1zm16-1h1v1h1v-1h1v-1h-1v-1h-1v1h-1zm-12 0h1v1h1v-1h1v-1h-1v-1h-1v1h-1zM4 13h1v1H4zm20-1h1v-1h1v-1h-3v1h1v1zm-6-1h1v1h-1zM7 12v-1h1v-1H7V9H6v1H5v1h1v1zm28-2h1v1h-1zm-6 1h1v1h1v-1h1v-1h-1V9h-1v1h-1zm-18 0h1v1h1v-1h1v-1h-1V9h-1v1h-1zm16-3h1v1h-1z"/><path d="M32 8h1v1h1V8h1V7h-1V6h-1v1h-1zm-4-1h1v1h-1zM8 8h1v1h1V8h1V7h-1V6H9v1H8zM5 8V7H4V6H3v1h-.5v1H3h2zm25-3h1v1h-1zM6 6h1V5h1V4H7V3H6v1H5v1h1z"/><path d="M31 4h1v1h-1zm5-1v1h-1v1h1v1h1V5h.5V4H37V3zM3 2h1v1H3z"/></g><path d="M33 19h1v1h-1zm-6 0h1v1h-1zm-6 0h1v1h-1zm-6 0h1v1h-1zm-6 0h1v1H9zm21-3h1v1h-1zm-6 0h1v1h-1zm-6 0h1v1h-1zm-6 0h1v1h-1zm-6 0h1v1H6zm27-3h1v1h-1zm-6 0h1v1h-1zm-6 0h1v1h-1zm-6 0h1v1h-1zm-6 0h1v1H9zm21-3h1v1h-1zm-6 0h1v1h-1zm-12 0h1v1h-1zm-6 0h1v1H6zm27-3h1v1h-1zM9 7h1v1H9zM3 7h1v1H3zm33-3h1v1h-1zM6 4h1v1H6z" fill="#ffd200"/></svg></g><g class="gotchi-handsDownClosed"><g class="gotchi-primary"><path d="M19 42h1v1h-1zm1-6h1v1h-1z"/><path d="M21 37h1v1h-1zm5 3v4h1v-4zm-5 3h-1v1h2v-1z"/><path d="M24 44h-2v1h4v-1h-1zm1-5h-1v1h2v-1z"/><path d="M23 38h-1v1h2v-1z"/></g><g class="gotchi-secondary"><path d="M19 43h1v1h-1zm5 2h-2v1h4v-1h-1z"/><path d="M27 41v3h1v-3zm-6 3h-1v1h2v-1z"/><path d="M26 44h1v1h-1zm-7-3h-1v2h1v-1z"/></g><g class="gotchi-primary"><path d="M44 42h1v1h-1zm-1-6h1v1h-1z"/><path d="M42 37h1v1h-1z"/><path d="M42 39v-1h-2v1h1zm0 4v1h2v-1h-1z"/><path d="M40 44h-2v1h4v-1h-1z"/><path d="M38 42v-2h-1v4h1v-1z"/><path d="M40 40v-1h-2v1h1z"/></g><g class="gotchi-secondary"><path d="M42 44v1h2v-1h-1zm-5-2v-1h-1v3h1v-1z"/><path d="M40 45h-2v1h4v-1h-1z"/><path d="M37 44h1v1h-1zm7-1h1v1h-1z"/></g></g><g class="gotchi-handsDownOpen"><g class="gotchi-primary"><path d="M56 38v-1h-2v-1h-2v-1h-1v-1h-1v-1h-1v8h1v1h2v1h4v-1h1v-4z"/></g><g class="gotchi-secondary"><path d="M54 38v-1h-2v-1h-1v-1h-1v-1h-1v6h1v1h2v1h4v-4z" /></g><path d="M54,38v-1h-2v-1h-1v-1h-1v-1h-1v5h1v1h2v1h4v-3H54z" fill="#fff"/><g class="gotchi-primary"><path d="M8 38v-1h2v-1h2v-1h1v-1h1v-1h1v8h-1v1h-2v1H8v-1H7v-4z"/></g><g class="gotchi-secondary"><path d="M10 38v-1h2v-1h1v-1h1v-1h1v6h-1v1h-2v1H8v-4z" /></g><path d="M8,38v3h4v-1h2v-1h1v-5h-1v1h-1v1h-1v1h-2v1H8z" fill="#fff"/></g><g class="gotchi-handsUp"><g class="gotchi-secondary"><path d="M50,38h1v1h-1V38z"/><path d="M49 39h1v1h-1v-1zm2-2h1v1h-1v-1z"/><path d="M52,36h2v1h-2V36z"/><path d="M54,35h2v1h-2V35z"/></g><path d="M52,32v1h-2v1h-1v5h1v-1h1v-1h1v-1h2v-1h2v-3H52z" fill="#fff"/><g class="gotchi-primary"><path d="M49,33h1v1h-1V33z"/><path d="M50 32h2v1h-2v-1zm0 7h1v1h-1v-1z"/><path d="M49 40h1v1h-1v-1zm2-2h1v1h-1v-1z"/><path d="M52 37h2v1h-2v-1zm0-6h4v1h-4v-1z"/><path d="M56,32h1v4h-1V32z"/><path d="M54,36h2v1h-2V36z"/></g><g class="gotchi-secondary"><path d="M13,38h1v1h-1V38z"/><path d="M14 39h1v1h-1v-1zm-2-2h1v1h-1v-1z"/><path d="M10,36h2v1h-2V36z"/><path d="M8,35h2v1H8V35z"/></g><path d="M8,32v3h2v1h2v1h1v1h1v1h1v-5h-1v-1h-2v-1H8z" fill="#fff"/><g class="gotchi-primary"><path d="M14,33h1v1h-1V33z"/><path d="M12 32h2v1h-2v-1zm1 7h1v1h-1v-1z"/><path d="M14 40h1v1h-1v-1zm-2-2h1v1h-1v-1z"/><path d="M10 37h2v1h-2v-1zm-2-6h4v1H8v-1z"/><path d="M7,32h1v4H7V32z"/><path d="M8,36h2v1H8V36z"/></g></g><g class="gotchi-wearable wearable-face"><svg x="9" y="18"><path d="M5 2H4V0H0v6h2v4h2v2h2V2z" fill="#64438e"/><path d="M5 4H4V2H2v4h2v4h2V4z" fill="#b464ed"/><g fill="#edd3fd"><path d="M4 4H2v2h2V5z"/><path d="M5 6H4v4h2V6z"/></g><path d="M41 2h1V0h4v6h-2v4h-2v2h-2V2z" fill="#64438e"/><path d="M41 4h1V2h2v4h-2v4h-2V4z" fill="#b464ed"/><g fill="#edd3fd"><path d="M42 4h2v2h-2V5z"/><path d="M41 6h1v4h-2V6z"/></g></svg></g><g class="gotchi-wearable wearable-eyes"><svg x="15" y="22"><path d="M34 2h-1-3V1h-1V0H5v1H4v1H1 0v1 1 1h1 3v3h1v1h10V8h1V5h2v3h1v1h10V8h1V5h3 1V4 3 2z" fill="#0448b9"/><g fill="#0060ff"><path d="M15 3h1V2h-1V1H5v1H4v1h1v1H4v1h1v1H4v1h1v1h10V7h1V6h-1V5h1V4h-1V3zm14 0h1V2h-1V1H19v1h-1v1h1v1h-1v1h1v1h-1v1h1v1h10V7h1V6h-1V5h1V4h-1V3z"/><path d="M17 3h-1v1h2V3h-1zM3 3h1v1H3zm27 0h1v1h-1z"/></g><path d="M33 3V2h-1v3h1V4h1V3h-1z" fill="#fdfdff"/><path d="M32 3h1v1h-1z" fill="#ffd200"/><path d="M1 4v1h1V2H1v1H0v1h1z" fill="#fdfdff"/><path d="M1 3h1v1H1zm3-1h1v1H4zm0 2h1v1H4zm0 2h1v1H4zm25-4h1v1h-1zm0 2h1v1h-1zm0 2h1v1h-1zM15 2h1v1h-1zm0 2h1v1h-1zm0 2h1v1h-1zm3-4h1v1h-1zm0 2h1v1h-1zm0 2h1v1h-1z" fill="#ffd200"/><path d="M14 1H6v1H5v5h1v1h8V7h1V2h-1V1zm14 1V1h-8v1h-1v5h1v1h8V7h1V2h-1z" fill="#abfbff"/><path d="M10 1v2H9v2H8v2H7v1h2V7h1V5h1V3h1V1h-2zm14 0v2h-1v2h-1v2h-1v1h2V7h1V5h1V3h1V1h-2z" fill="#d7ffff"/></svg></g><g class="gotchi-wearable wearable-head"><svg x="15" y="0"><path d="M32 14v-2h-2v-2h-4V8h-4V6h-4V5h2V4h1V3h-1V2h-1V1h-1V0h-2v1h-1v1h-1v1h-1v1h1v1h2v1h-4v2H8v2H4v2H2v2H0v7h2v-3h1v-1h8v1h1v1h2v1h1v1h1v1h2v-1h1v-1h1v-1h2v-1h1v-1h8v1h1v3h2v-7h-2z" fill="#e5ba05"/><path d="M16 5v1h2V5h-2z" fill="#0448b9"/><path d="M19 3V2h-1V1h-2v1h-1v1h-1v1h6V3h-1zm13 12v-1h-1v-1h-1v-1h-1v-1h-3v-1h-1V9h-3V8h-1V7h-8v1h-1v1H9v1H8v1H5v1H4v1H3v1H2v1H1v3h1v-1h1v-1h8v1h1v1h2v1h1v1h1v1h2v-1h1v-1h1v-1h2v-1h1v-1h8v1h1v1h1v-3h-1z" fill="#ffd200"/><g fill="#fdfdff"><path d="M8 14h1v1H8zm-2 0h1v1H6z"/><path d="M9 13h1v1H9zm-2 0h1v1H7z"/><path d="M10 12h1v1h-1zm-2 0h1v1H8z"/><path d="M11 11h1v1h-1zm-2 0h1v1H9z"/><path d="M12 10h1v1h-1zm-2 0h1v1h-1z"/></g></svg></g>"><svg x="12" y="32"><g><g class="gotchi-sleeves gotchi-sleeves-left gotchi-sleeves-up"><path d="M38 9V8h1V7h1V0h-2v1h-1.8v1h.2v6h-.2v1H38z" fill="#0448b9"/><path d="M38,8V7h1V1h-1v1h-1.8v6H38z" fill="#0060ff"/><path d="M37 4h1v1h-1V4zm-1 1h1v1h-1V5zm0-2h1v1h-1V3zm2 3h1v1h-1V6z" fill="#fdfdff"/><path d="M36 4h1v1h-1z" fill="#ffd200"/></g><g class="gotchi-sleeves gotchi-sleeves-left gotchi-sleeves-down"><path d="M39,3V2h-1V1h-2v1h1v6h-1v1h2v1h2V3H39z" fill="#0448b9"/><path d="M38,3V2h-1.5v6H38v1h1V3H38z" fill="#0060ff"/><path d="M38 7h1v1h-1V7zm-1-3h1v1h-1V4z" fill="#fdfdff"/><path d="M36 4h1v1h-1z" fill="#ffd200"/><path d="M36 3h1v1h-1zm0 2h1v1h-1z" fill="#fdfdff"/></g><g class="gotchi-sleeves gotchi-sleeves-right gotchi-sleeves-up"><path d="M1,7v1h1v1h2V8H3V2h1V1H2V0H0v7H1z" fill="#0448b9"/><path d="M2,7v1h1V6h1V3H3V2H2V1H1v6H2z" fill="#0060ff"/><path d="M1 4h1v1H1V4zm2-2h1v1H3V2zM2 7h1v1H2V7z" fill="#fdfdff"/><path d="M3 7h1v1H3z" fill="#ffd200"/></g><g class="gotchi-sleeves gotchi-sleeves-right gotchi-sleeves-down"><path d="M2,1v1H1v1H0v7h2V9h2V8H3V2h1V1H2z" fill="#0448b9"/><path d="M2,2v1H1v6h1V8h1.5V2H2z" fill="#0060ff"/><path d="M2 7h1v1H2V7zM1 4h1v1H1V4z" fill="#fdfdff"/><path d="M3 2h1v1H3zm0 4h1v1H3z" fill="#fff"/><path d="M3 7h1v1H3z" fill="#ffd200"/></g></g></svg><g class="gotchi-wearable wearable-hand wearable-hand-left"><svg x="1" y="27"><path d="M11 7V6h-1V5H3v1H2v1H1v7h1v2h1v1h2v1h3v-1h2v-1h1v-2h1V7z" fill="#511f17"/><path d="M9 9h1v1H9V9zm-7 4h1v-3H2v3zm2-1h1v-2H4v2zm2 2h1v-3H6v3zm2-3h1v1H8v-1zm2 0v2h1v-2h-1zm-6 5h1v-3H4v3zm4-1h1v-2H8v2zm-2 2h1v-2H6v2z" fill="#7a500c"/><path d="M10 7V6H3v1H2v1h1v1h7V8h1V7z" fill="#955c4b"/><path d="M3 7h7v1H3z" fill="#fff"/><g fill="#ff89ff"><path d="M2 0h1v1H2z"/><path d="M1 1h1v1H1zm2 0h1v2H3z"/><path d="M0 2h1v1H0zm4 1h1v2H4z"/><path d="M5 5h1v2H5z"/><path d="M6 7h1v1H6z"/></g></svg></g><g class="gotchi-wearable wearable-hand wearable-hand-right"><svg x="6" y="27"><g transform="scale(-1, 1) translate(-52, 0)"><path d="M7 8V5H6V4H5V2H4V0H3v2H2v2H1v1H0v3h1v2H0v6h1v1h5v-1h1v-6H6V8z" fill="#faa"/><path d="M6,8V5H5V4H2v1H1v3h1v2H1v6h5v-6H5V8H6z" fill="#fff"/><path d="M1 6h3v1H1V6zm1 2h1v1H2V8zm-1 2h3v1H1v-1zm0 2h2v1H1v-1zm0 2h3v1H1v-1z" fill-opacity=".5"/><path d="M3,0h1v2H3V0z" fill="#fc0"/><path d="M2,2h3v1H2V2z" fill="#f0f" fill-opacity=".6"/></g></svg></g><g class="gotchi-wearable wearable-pet"><svg x="40" y="45"><path d="M12 3h1v1h-1zm8-2h1v1h-1zm-6 0h1v1h-1zm8 2h1v1h-1z" fill="#0f0"/><path d="M22 4h-1V3h-1V2h-1V1h-1V0h-1v1h-1v1h-1v1h-1v1h-1v2h-1v1h1v1h1v1h1v1h5V9h1V8h1V7h1V6h-1V4z" fill="#009300"/><path d="M18 3V2h1V1h-1V0h-1v1h-1v1h1v1h1zm-6 3h1v1h-1zm0-3h1v1h-1zm6 3h1v1h-1zm-2-2h1v1h-1zm4-3h1v1h-1zm-6 0h1v1h-1zm5 7h1v1h-1zm-4 0h1v1h-1zm5-4h1v1h-1zm2 2h1v1h-1zm0-3h1v1h-1z" fill="#f0f"/><path d="M17 4v6h1V3h-1v1zm2-1v5h1V2h-1v1zm0 6h1v1h-1zm-4-6v5h1V2h-1v1zm0 6h1v1h-1zm6-5v4h1V4h-1zm-8 1v3h1V4h-1v1z" fill="#006300"/><path d="M17 1h1v1h-1z" fill="#ff0"/><path d="M0 6h1v1H0zm8-2h1v1H8zM2 4h1v1H2z" fill="#0f0"/><path d="M9 6H8V5H7V4H6V3H5v1H4v1H3v1H2v1H1v2H0v1h1v1H0v1h1v1h1v1h1v1h5v-1h1v-1h1v-1h1v-1h-1v-1h1V9h-1V7H9V6z" fill="#009300"/><path d="M10 6h1v1h-1z" fill="#0f0"/><path d="M6 6V5h1V4H6V3H5v1H4v1h1v1h1zm-6 5h1v1H0zm0-2h1v1H0zm0-3h1v1H0zm6 4h1v1H6zM4 7h1v1H4zm4-3h1v1H8zM2 4h1v1H2zm5 8h1v1H7zm-4 0h1v1H3zm5-4h1v1H8zm2 3h1v1h-1zm0-2h1v1h-1zm0-3h1v1h-1zM2 8h1v1H2z" fill="#f0f"/><path d="M5 7v8h1V6H5v1zm2-1v6h1V5H7v1zm0 8v1h1v-2H7v1zM3 6v6h1V5H3v1zm0 8v1h1v-2H3v1zm6-6v5h1V7H9v1zM1 8v5h1V7H1v1z" fill="#006300"/><path d="M5 4h1v1H5z" fill="#ff0"/><g fill="#009300"><path d="M16 13v-1h-1v-1h-1v-1h-1v1h-1v2h-1v1h-1v1h1v1h1v1h4v-1h1v-1h1v-1h-1v-1h-1z"/><path d="M17 12h1v1h-1z"/></g><path d="M13 14v3h1v-4h-1v1zm2-2h1v1h-1zm0 3v2h1v-3h-1v1zm-4-1v2h1v-3h-1v1z" fill="#006300"/><path d="M14 13v-1h1v-1h-1v-1h-1v1h-1v1h1v1zm0 3h1v1h-1zm-2-2h1v1h-1zm-2 0h1v1h-1zm5-1h1v1h-1zm2-1h1v1h-1zm0 2h1v1h-1z" fill="#f0f"/><path d="M13 11h1v1h-1z" fill="#ff0"/></svg></g></svg>