<svg xmlns="http://www.w3.org/2000/svg" viewBox="0 0 64 64"><g class="gotchi-bg"><defs fill="#fff"><pattern id="a" patternUnits="userSpaceOnUse" width="4" height="4"><path d="M0 0h1v1H0zm2 2h1v1H2z"/></pattern><pattern id="b" patternUnits="userSpaceOnUse" x="0" y="0" width="2" height="2"><path d="M0 0h1v1H0z"/></pattern><pattern id="c" patternUnits="userSpaceOnUse" x="-2" y="0" width="8" height="1"><path d="M0 0h1v1H0zm2 0h1v1H2zm2 0h1v1H4z"/></pattern><pattern id="d" patternUnits="userSpaceOnUse" x="0" y="0" width="4" height="4"><path d="M0 0h1v1H0zm0 2h1v1H0zm1 0V1h1v1zm1 0h1v1H2zm0-1h1V0H2zm1 2h1v1H3z"/></pattern><pattern id="e" patternUnits="userSpaceOnUse" width="64" height="32"><path d="M4 4h1v1H4zm7 0h1v1h-1zm7 0h1v1h-1zm7 0h1v1h-1zm7 0h1v1h-1zm7 0h1v1h-1zm7 0h1v1h-1zm7 0h1v1h-1zm7 0h1v1h-1z"/><path fill="url(#a)" d="M0 8h64v7H0z"/><path fill="url(#b)" d="M0 16h64v1H0z"/><path fill="url(#c)" d="M0 18h64v1H0z"/><path fill="url(#b)" d="M22 18h15v1H22zM0 20h64v3H0z"/><path fill="url(#d)" d="M0 24h64v8H0z"/></pattern><mask id="f"><path fill="url(#e)" d="M0 0h64v32H0z"/></mask></defs><path fill="#fff" d="M0 0h64v32H0z"/><path fill="#dea8ff" class="gotchi-secondary" mask="url(#f)" d="M0 0h64v32H0z"/><path fill="#dea8ff" class="gotchi-secondary" d="M0 32h64v32H0z"/><path mask="url(#f)" fill="#fff" transform="matrix(1 0 0 -1 0 64)" d="M0 0h64v32H0z"/></g><style>.gotchi-primary{fill:#B6509E;}.gotchi-secondary{fill:#CFEEF4;}.gotchi-cheek{fill:#F696C6;}.gotchi-eyeColor{fill:#0064FF;}.gotchi-primary-mouth{fill:#B6509E;}.gotchi-sleeves-up{display:none;}.gotchi-handsUp{display:none;}.gotchi-handsDownOpen{display:block;}.gotchi-handsDownClosed{display:none;}</style><g class="gotchi-body"><path d="M47 14v-2h-2v-2h-4V8h-4V6H27v2h-4v2h-4v2h-2v2h-2v41h4v-2h5v2h5v-2h6v2h5v-2h5v2h4V14z" class="gotchi-primary"/><path d="M45 14v-2h-4v-2h-4V8H27v2h-4v2h-4v2h-2v39h2v-2h5v2h5v-2h6v2h5v-2h5v2h2V14z" class="gotchi-secondary"/><path d="M18,49h2v-1h2v1h2v2h5v-2h2v-1h2v1h2v2h5v-2h2v-1h2v1h1V14h-4v-2h-4v-2h-5V9h-5v2h-4v2h-4v2h-1V49z" fill="#fff"/></g><path class="gotchi-cheek" d="M21 32v2h2v-2h-1zm21 0h-1v2h2v-2z"/><g class="gotchi-primary-mouth"><path d="M29 32h-2v2h2v-1z"/><path d="M33 34h-4v2h6v-2h-1z"/><path d="M36 32h-1v2h2v-2z"/></g>
    <style>
        .gotchi-bg { display: none }
    </style>
<g class="gotchi-shadow"><path opacity=".25" d="M25 58H19v1h1v1h24V59h1V58h-1z" fill="#000"/></g><g class="gotchi-collateral" fill="#a73796"><path d="M30.5 15h1v-2h-1z"/><path d="M31.5 12h1v1h-1z"/><path d="M33.5 13h-1v2h1zm-4 3h-2v1h1v2h1v-2h2v-1h-1v-1h-1z"/><path d="M34.5 15h-1v2h1z"/><path d="M35.5 17h-1v2h1zm-8 4h1v-2h-1z"/><path d="M35.5 19v2h1v-2z"/></g><g class="gotchi-eyeColor"><g><path d="M40 23v2h1v-2h-1z" /><path d="M39 24v-1h-2v2h1v1h2v-1h-1v-1zm-13 0v1h1v-2h-1v1z" /><path d="M25 24v-1h-2v2h1v1h2v-1h-1v-1z" /></g><g class="gotchi-primary"><path d="M35 23h-1v1h1v-1zm0 2h-1v1h1v-1zm9-2h-1v1h1v-1z" /><path d="M45 24h-1v1h1v-1zm-8-1h6v-1h-8v1h2z" /><path d="M34 24h-1v1h1v-1zm10 1h-1v1h1v-1z" /><path d="M41 26h-6v1h8v-1h-2zm-20-3h-1v1h1v-1zm0 2h-1v1h1v-1zm9-2h-1v1h1v-1z" /><path d="M31 24h-1v1h1v-1zm-8-1h6v-1h-8v1h2z" /><path d="M20 24h-1v1h1v-1zm10 1h-1v1h1v-1z" /><path d="M27 26h-6v1h8v-1h-2z" /></g></g><g class="gotchi-wearable wearable-body"><svg x="9" y="32"><path d="M37 1v1h-1v1h-1v1h-1v1h-1v1h-1v1h-2v1h-3v1h-8V8h-3V7h-2V6h-1V5h-1V4h-1V3h-1V2H9V1H6v2h1v1h1v1h1v6H8v1H7v1H6v8h34v-8h-1v-1h-1v-1h-1V5h1V4h1V3h1V1h-3z"/><g fill="#7e18f8"><path d="M22 10.3v.7h-.7v1.4h-.7v1.4h-.7v.7H22v1.4h-.7v1.4h-.7v1.4h.7V18h.7v-.7h.7v-.7h.7v-.7h.7v-.7h.7v-.7h.7v-.7h-2.1v-.7h.7v-.7h.7v-.7h.7V11h.7v-.7H22z"/><path d="M19.9 18.7v.7h.7v-.7h-.7z"/></g><path d="M22 10.3v.7h-.7v1.4h3.5v-.7h.7V11h.7v-.7H22z" fill="#fa34f3"/><path d="M23.4 13.8v-.7h.7v-.7h-3.5v1.4h-.7v.7h5.6v-.7c.1 0-1.5 0-2.1 0z" fill="#cf15f9"/><path d="M22 14.5v1.4h2.1v-.7h.7v-.7H22z" fill="#ac15f9"/><path d="M21.3 15.9v1.4h1.4v-.7h.7v-.7h-2.1z" fill="#8f17f9"/></svg></g><g class="gotchi-handsDownClosed"><g class="gotchi-primary"><path d="M19 42h1v1h-1zm1-6h1v1h-1z"/><path d="M21 37h1v1h-1zm5 3v4h1v-4zm-5 3h-1v1h2v-1z"/><path d="M24 44h-2v1h4v-1h-1zm1-5h-1v1h2v-1z"/><path d="M23 38h-1v1h2v-1z"/></g><g class="gotchi-secondary"><path d="M19 43h1v1h-1zm5 2h-2v1h4v-1h-1z"/><path d="M27 41v3h1v-3zm-6 3h-1v1h2v-1z"/><path d="M26 44h1v1h-1zm-7-3h-1v2h1v-1z"/></g><g class="gotchi-primary"><path d="M44 42h1v1h-1zm-1-6h1v1h-1z"/><path d="M42 37h1v1h-1z"/><path d="M42 39v-1h-2v1h1zm0 4v1h2v-1h-1z"/><path d="M40 44h-2v1h4v-1h-1z"/><path d="M38 42v-2h-1v4h1v-1z"/><path d="M40 40v-1h-2v1h1z"/></g><g class="gotchi-secondary"><path d="M42 44v1h2v-1h-1zm-5-2v-1h-1v3h1v-1z"/><path d="M40 45h-2v1h4v-1h-1z"/><path d="M37 44h1v1h-1zm7-1h1v1h-1z"/></g></g><g class="gotchi-handsDownOpen"><g class="gotchi-primary"><path d="M56 38v-1h-2v-1h-2v-1h-1v-1h-1v-1h-1v8h1v1h2v1h4v-1h1v-4z"/></g><g class="gotchi-secondary"><path d="M54 38v-1h-2v-1h-1v-1h-1v-1h-1v6h1v1h2v1h4v-4z" /></g><path d="M54,38v-1h-2v-1h-1v-1h-1v-1h-1v5h1v1h2v1h4v-3H54z" fill="#fff"/><g class="gotchi-primary"><path d="M8 38v-1h2v-1h2v-1h1v-1h1v-1h1v8h-1v1h-2v1H8v-1H7v-4z"/></g><g class="gotchi-secondary"><path d="M10 38v-1h2v-1h1v-1h1v-1h1v6h-1v1h-2v1H8v-4z" /></g><path d="M8,38v3h4v-1h2v-1h1v-5h-1v1h-1v1h-1v1h-2v1H8z" fill="#fff"/></g><g class="gotchi-handsUp"><g class="gotchi-secondary"><path d="M50,38h1v1h-1V38z"/><path d="M49 39h1v1h-1v-1zm2-2h1v1h-1v-1z"/><path d="M52,36h2v1h-2V36z"/><path d="M54,35h2v1h-2V35z"/></g><path d="M52,32v1h-2v1h-1v5h1v-1h1v-1h1v-1h2v-1h2v-3H52z" fill="#fff"/><g class="gotchi-primary"><path d="M49,33h1v1h-1V33z"/><path d="M50 32h2v1h-2v-1zm0 7h1v1h-1v-1z"/><path d="M49 40h1v1h-1v-1zm2-2h1v1h-1v-1z"/><path d="M52 37h2v1h-2v-1zm0-6h4v1h-4v-1z"/><path d="M56,32h1v4h-1V32z"/><path d="M54,36h2v1h-2V36z"/></g><g class="gotchi-secondary"><path d="M13,38h1v1h-1V38z"/><path d="M14 39h1v1h-1v-1zm-2-2h1v1h-1v-1z"/><path d="M10,36h2v1h-2V36z"/><path d="M8,35h2v1H8V35z"/></g><path d="M8,32v3h2v1h2v1h1v1h1v1h1v-5h-1v-1h-2v-1H8z" fill="#fff"/><g class="gotchi-primary"><path d="M14,33h1v1h-1V33z"/><path d="M12 32h2v1h-2v-1zm1 7h1v1h-1v-1z"/><path d="M14 40h1v1h-1v-1zm-2-2h1v1h-1v-1z"/><path d="M10 37h2v1h-2v-1zm-2-6h4v1H8v-1z"/><path d="M7,32h1v4H7V32z"/><path d="M8,36h2v1H8V36z"/></g></g><g class="gotchi-wearable wearable-face"><svg x="15" y="21"><path fill="#773e1d" d="M11 14h-1v-1H9v-1H8v-1H6v-1H5V9H4V8H3V0H0v12h2v1h1v1h1v1h2v1h2v1h4v-2h-1v-1zm7 2h-4v1h1v1h1v1h2v-1h1v-1h1v-1h-2zM31 0v8h-1v1h-1v1h-1v1h-2v1h-1v1h-1v1h-1v1h-1v2h4v-1h2v-1h2v-1h1v-1h1v-1h2V0h-3z"/>
</svg></g><g class="gotchi-wearable wearable-eyes"><svg x="15" y="20"><path d="M31 4V3h-1V2h-1V1h-1V0h-6v1h-1v1h-1v1h-1v1h-4V3h-1V2h-1V1h-1V0H6v1H5v1H4v1H3v1H0v4h3v1h1v1h1v1h1v1h5v5h1v1h1v1h8v-1h1v-1h1v-5h5v-1h1v-1h1V9h1V8h3V4h-3z" fill="#390601"/><g fill="#592f2a"><path d="M11,1h1v1h-1V1z"/><path d="M12 2h1v1h-1V2zM6 1h1v1H6V1z"/><path d="M5,2h1v1H5V2z"/><path d="M4,3h1v1H4V3z"/><path d="M3 4h1v1H3V4zm8 6h1v1h-1v-1z"/><path d="M12 9h1v1h-1V9zm-6 1h1v1H6v-1z"/><path d="M5,9h1v1H5V9z"/><path d="M4,8h1v1H4V8z"/><path d="M3 7h1v1H3V7zM1 6h1v1H1V6z"/><path d="M2 5h1v1H2V5zM0 5h1v1H0V5zm13-2h1v1h-1V3zm0 5h1v1h-1V8z"/><path d="M14 4h1v1h-1V4zm0 3h1v1h-1V7zm5-3h1v1h-1V4zm0 3h1v1h-1V7z"/><path d="M20 3h1v1h-1V3zm0 5h1v1h-1V8zm2-7h1v1h-1V1z"/><path d="M21 2h1v1h-1V2zm6-1h1v1h-1V1z"/><path d="M28,2h1v1h-1V2z"/><path d="M29,3h1v1h-1V3z"/><path d="M30 4h1v1h-1V4zm-8 6h1v1h-1v-1z"/><path d="M21 9h1v1h-1V9zm6 1h1v1h-1v-1z"/><path d="M28,9h1v1h-1V9z"/><path d="M29,8h1v1h-1V8z"/><path d="M30 7h1v1h-1V7zm2-1h1v1h-1V6z"/><path d="M31 5h1v1h-1V5zm2 0h1v1h-1V5z"/></g><g fill="#846460"><path d="M11,2h1v1h-1V2z"/><path d="M12 3h1v1h-1V3zm0 5h1v1h-1V8z"/><path d="M11 9h1v1h-1V9zM6 2h1v1H6V2z"/><path d="M5 3h1v1H5V3zm0 5h1v1H5V8z"/><path d="M6 9h1v1H6V9zm2-8h2v1H8V1zM4 5h1v2H4V5zM2 6h1v1H2V6zM0 6h1v1H0V6z"/><path d="M1 5h1v1H1V5zm7 5h2v1H8v-1zm11-1h1v1h-1V9z"/><path d="M20,10h1v1h-1V10z"/><path d="M21 16h-1v1h-6v-1h-1v-5h-1v6h1v1h8v-1h1v-6h-1v5zm-6-8h4v1h-4V8zm3 2h1v1h-1v-1z"/><path d="M19 11h1v1h-1v-1zm-4-1h1v1h-1v-1z"/><path d="M14 11h1v1h-1v-1zm2 0h2v1h-2v-1z"/><path d="M18 12h1v1h-1v-1zm-3 0h1v1h-1v-1z"/><path d="M16,13h2v1h-2V13z"/><path d="M18 14h1v1h-1v-1zm-3 0h1v1h-1v-1z"/><path d="M16 15h2v1h-2v-1zm3-2h1v1h-1v-1zm0 2h1v1h-1v-1zm-5-2h1v1h-1v-1zm0 2h1v1h-1v-1zm0-6h1v1h-1V9z"/><path d="M13 10h1v1h-1v-1zm0-5h1v2h-1V5zm2 0h1v2h-1V5zm3 0h1v2h-1V5zm2 0h1v2h-1V5zm2-3h1v1h-1V2z"/><path d="M21 3h1v1h-1V3zm0 5h1v1h-1V8z"/><path d="M22 9h1v1h-1V9zm5-7h1v1h-1V2z"/><path d="M28 3h1v1h-1V3zm0 5h1v1h-1V8z"/><path d="M27 9h1v1h-1V9zm-3-8h2v1h-2V1zm7 5h1v1h-1V6zm2 0h1v1h-1V6z"/><path d="M29 5h1v2h-1V5zm3 0h1v1h-1V5zm-8 5h2v1h-2v-1z"/></g><path d="M11 3H7v1H6v4h1v1h4V8h1V4h-1V3zm16 1V3h-4v1h-1v4h1v1h4V8h1V4h-1z" fill="#0ff"/><g fill="#fff"><path d="M9,3h1v1H9V3z"/><path d="M8,4h1v1H8V4z"/><path d="M7,5h1v1H7V5z"/><path d="M6 6h1v1H6V6zm5-1h-1v1H9v1H8v1H7v1h2V8h1V7h1V6h1V4h-1v1zm14-2h1v1h-1V3z"/><path d="M24,4h1v1h-1V4z"/><path d="M23 5h1v1h-1V5zm4-1v1h-1v1h-1v1h-1v1h-1v1h2V8h1V7h1V6h1V4h-1z"/><path d="M22,6h1v1h-1V6z"/></g></svg></g><g class="gotchi-wearable wearable-head"><svg x="11" y="0"><path d="M42 14v-4h-2V8h-2V6h-2V4h-2V2h-4V0H18v2h-4v2h-2v2h-2v2H8v2H6v4H4v4H2v2H0v2h42v-2h-2v-2h-2v-4h-2v-2h-2v-2h4v2h2v2z" fill="#3a2b77"/><g fill="#b135ff"><path d="M4 18v2h34v-2H4zm32-2v-2h-4v-2h-2v-2h2V8h4V6h-2V4h-4V2H18v2h-4v2h-2v2h-2v2H8v4H6v2h30z"/><path d="M20 15.9h3V18h-3z"/></g><path d="M25 9V8h-1V7h-1V5h-1V4h-1v1h-1v2h-1v1h-1v1h-1v1h1v1h1v1h1v2h1v1h1v-1h1v-2h1v-1h1v-1h1V9z" fill="#47289b"/><path d="M20,11h3v1h-3V11z" fill="#cb5bff"/><path d="M22,8h2v1h-2V8z" fill="#6f16e2"/><g fill="#3a2b77"><path d="M22 10h1v1h-1v-1zm0-5h1v2h-1V5z"/><path d="M23 7h1v1h-1V7zm2 2h1v1h-1V9z"/><path d="M24 8h1v1h-1V8zm0 2h1v1h-1v-1zm-6-2h1v1h-1V8zm0 2h1v1h-1v-1zm2 4h1v-2h-1v2z"/><path d="M19,11h1v1h-1V11z"/></g><path d="M21,9h3v1h-3V9z" fill="#f37aff"/><path d="M22,7h1v2h-1V7z" fill="#5d24bf"/><g fill="#8000ff"><path d="M20 10h2v1h-2v-1zm2-3h1v1h-1V7z"/><path d="M21,11h1v3h-1V11z"/></g><g fill="#b135ff"><path d="M21,9h1v2h-1V9z"/><path d="M22,11h1v1h-1V11z"/><path d="M23,9h1v2h-1V9z"/></g><path d="M20 7v1h-1v2h3V7z" fill="#ffa3ff"/><path d="M20,8h1v2h-1V8z" fill="#ffc9ff"/><path d="M19 9.5h1V11h-1V9.5zm4-.5v1h2V9h-2z" fill="#cb5bff"/><path d="M21 5h1v5h-1z" fill="#fff"/><path d="M18 9h4v1h-4z" fill="#ffc9ff"/><path d="M20 9h1v1h-1z" fill="#fff"/><path d="M20 16h1v1h-1z" fill="#f37aff"/><path d="M20 17h1v1h-1z" fill="#ffc9ff"/><path d="M21 16h1v1h-1z" fill="#fff"/><path d="M21 17h1v1h-1z" fill="#5d24bf"/><path d="M22 16h1v1h-1z" fill="#8000ff"/><path d="M22 17h1v1h-1z" fill="#b135ff"/></svg></g>"><svg x="9" y="32"><g><g class="gotchi-sleeves gotchi-sleeves-left gotchi-sleeves-up"><path d="M41 4h1v1h1v1h2V5h1V3h-1V2h-1V1h-1V0h-2v1h-1v2h1z"/><g fill="#fa34f3"><path d="M44 4h1v1h-1z"/><path d="M43 3h1v1h-1z"/></g><path d="M42 2h1v1h-1z" fill="#ac15f9"/><path d="M41 1h1v1h-1z" fill="#7e18f8"/></g><g class="gotchi-sleeves gotchi-sleeves-left gotchi-sleeves-down"><path d="M45 5V4h-2v1h-1v1h-1v1h-1v2h1v1h2V9h1V8h1V7h1V5z"/><g fill="#fa34f3"><path d="M44 5h1v1h-1z"/><path d="M43 6h1v1h-1z"/></g><path d="M42 7h1v1h-1z" fill="#ac15f9"/><path d="M41 8h1v1h-1z" fill="#7e18f8"/></g><g class="gotchi-sleeves gotchi-sleeves-right gotchi-sleeves-up"><path d="M1 5v1h2V5h1V4h1V3h1V1H5V0H3v1H2v1H1v1H0v2z"/><g fill="#fa34f3"><path d="M1 4h1v1H1z"/><path d="M2 3h1v1H2z"/></g><path d="M3 2h1v1H3z" fill="#ac15f9"/><path d="M4 1h1v1H4z" fill="#7e18f8"/></g><g class="gotchi-sleeves gotchi-sleeves-right gotchi-sleeves-down"><path d="M5 6H4V5H3V4H1v1H0v2h1v1h1v1h1v1h2V9h1V7H5z"/><g fill="#fa34f3"><path d="M1 5h1v1H1z"/><path d="M2 6h1v1H2z"/></g><path d="M3 7h1v1H3z" fill="#ac15f9"/><path d="M4 8h1v1H4z" fill="#7e18f8"/></g></g></svg><g class="gotchi-wearable wearable-hand wearable-hand-left"><svg x="1" y="33"><path d="M13,0v1h-1v1h-1v1H9v1H7v1H6V4H5V3H2v1H1v1H0v1h2V5h3v1H4v2h1v1H2V8H0v1h1v1h1v1h3v-1h1V9h1v1h4V9h2V8h1V0H13z" fill="#390601"/><path d="M5,6h2v2H5V6z" fill="#0ff"/><g fill="#4e2721"><path d="M1,5h1v1H1V5z"/><path d="M2 4h3v1H2V4zm0 5h3v1H2V9z"/><path d="M1 8h1v1H1V8zm12-5v1h-2v1H9v1H8v2h1V7h2V6h2V5h1V3h-1z"/></g><path d="M5,6h1v1H5V6z" fill="#fff"/></svg></g><g class="gotchi-wearable wearable-hand wearable-hand-right"><svg x="1" y="33"><g transform="scale(-1, 1) translate(-62, 0)"><path d="M13,0v1h-1v1h-1v1H9v1H7v1H6V4H5V3H2v1H1v1H0v1h2V5h3v1H4v2h1v1H2V8H0v1h1v1h1v1h3v-1h1V9h1v1h4V9h2V8h1V0H13z" fill="#390601"/><path d="M5,6h2v2H5V6z" fill="#0ff"/><g fill="#4e2721"><path d="M1,5h1v1H1V5z"/><path d="M2 4h3v1H2V4zm0 5h3v1H2V9z"/><path d="M1 8h1v1H1V8zm12-5v1h-2v1H9v1H8v2h1V7h2V6h2V5h1V3h-1z"/></g><path d="M5,6h1v1H5V6z" fill="#fff"/></g></svg></g><g class="gotchi-wearable wearable-pet"><svg x="40" y="45"><path d="M12 3h1v1h-1zm8-2h1v1h-1zm-6 0h1v1h-1zm8 2h1v1h-1z" fill="#0f0"/><path d="M22 4h-1V3h-1V2h-1V1h-1V0h-1v1h-1v1h-1v1h-1v1h-1v2h-1v1h1v1h1v1h1v1h5V9h1V8h1V7h1V6h-1V4z" fill="#009300"/><path d="M18 3V2h1V1h-1V0h-1v1h-1v1h1v1h1zm-6 3h1v1h-1zm0-3h1v1h-1zm6 3h1v1h-1zm-2-2h1v1h-1zm4-3h1v1h-1zm-6 0h1v1h-1zm5 7h1v1h-1zm-4 0h1v1h-1zm5-4h1v1h-1zm2 2h1v1h-1zm0-3h1v1h-1z" fill="#f0f"/><path d="M17 4v6h1V3h-1v1zm2-1v5h1V2h-1v1zm0 6h1v1h-1zm-4-6v5h1V2h-1v1zm0 6h1v1h-1zm6-5v4h1V4h-1zm-8 1v3h1V4h-1v1z" fill="#006300"/><path d="M17 1h1v1h-1z" fill="#ff0"/><path d="M0 6h1v1H0zm8-2h1v1H8zM2 4h1v1H2z" fill="#0f0"/><path d="M9 6H8V5H7V4H6V3H5v1H4v1H3v1H2v1H1v2H0v1h1v1H0v1h1v1h1v1h1v1h5v-1h1v-1h1v-1h1v-1h-1v-1h1V9h-1V7H9V6z" fill="#009300"/><path d="M10 6h1v1h-1z" fill="#0f0"/><path d="M6 6V5h1V4H6V3H5v1H4v1h1v1h1zm-6 5h1v1H0zm0-2h1v1H0zm0-3h1v1H0zm6 4h1v1H6zM4 7h1v1H4zm4-3h1v1H8zM2 4h1v1H2zm5 8h1v1H7zm-4 0h1v1H3zm5-4h1v1H8zm2 3h1v1h-1zm0-2h1v1h-1zm0-3h1v1h-1zM2 8h1v1H2z" fill="#f0f"/><path d="M5 7v8h1V6H5v1zm2-1v6h1V5H7v1zm0 8v1h1v-2H7v1zM3 6v6h1V5H3v1zm0 8v1h1v-2H3v1zm6-6v5h1V7H9v1zM1 8v5h1V7H1v1z" fill="#006300"/><path d="M5 4h1v1H5z" fill="#ff0"/><g fill="#009300"><path d="M16 13v-1h-1v-1h-1v-1h-1v1h-1v2h-1v1h-1v1h1v1h1v1h4v-1h1v-1h1v-1h-1v-1h-1z"/><path d="M17 12h1v1h-1z"/></g><path d="M13 14v3h1v-4h-1v1zm2-2h1v1h-1zm0 3v2h1v-3h-1v1zm-4-1v2h1v-3h-1v1z" fill="#006300"/><path d="M14 13v-1h1v-1h-1v-1h-1v1h-1v1h1v1zm0 3h1v1h-1zm-2-2h1v1h-1zm-2 0h1v1h-1zm5-1h1v1h-1zm2-1h1v1h-1zm0 2h1v1h-1z" fill="#f0f"/><path d="M13 11h1v1h-1z" fill="#ff0"/></svg></g></svg>