<svg xmlns="http://www.w3.org/2000/svg" viewBox="0 0 64 64"><g class="gotchi-bg"><defs fill="#fff"><pattern id="a" patternUnits="userSpaceOnUse" width="4" height="4"><path d="M0 0h1v1H0zm2 2h1v1H2z"/></pattern><pattern id="b" patternUnits="userSpaceOnUse" x="0" y="0" width="2" height="2"><path d="M0 0h1v1H0z"/></pattern><pattern id="c" patternUnits="userSpaceOnUse" x="-2" y="0" width="8" height="1"><path d="M0 0h1v1H0zm2 0h1v1H2zm2 0h1v1H4z"/></pattern><pattern id="d" patternUnits="userSpaceOnUse" x="0" y="0" width="4" height="4"><path d="M0 0h1v1H0zm0 2h1v1H0zm1 0V1h1v1zm1 0h1v1H2zm0-1h1V0H2zm1 2h1v1H3z"/></pattern><pattern id="e" patternUnits="userSpaceOnUse" width="64" height="32"><path d="M4 4h1v1H4zm7 0h1v1h-1zm7 0h1v1h-1zm7 0h1v1h-1zm7 0h1v1h-1zm7 0h1v1h-1zm7 0h1v1h-1zm7 0h1v1h-1zm7 0h1v1h-1z"/><path fill="url(#a)" d="M0 8h64v7H0z"/><path fill="url(#b)" d="M0 16h64v1H0z"/><path fill="url(#c)" d="M0 18h64v1H0z"/><path fill="url(#b)" d="M22 18h15v1H22zM0 20h64v3H0z"/><path fill="url(#d)" d="M0 24h64v8H0z"/></pattern><mask id="f"><path fill="url(#e)" d="M0 0h64v32H0z"/></mask></defs><path fill="#fff" d="M0 0h64v32H0z"/><path fill="#dea8ff" class="gotchi-secondary" mask="url(#f)" d="M0 0h64v32H0z"/><path fill="#dea8ff" class="gotchi-secondary" d="M0 32h64v32H0z"/><path mask="url(#f)" fill="#fff" transform="matrix(1 0 0 -1 0 64)" d="M0 0h64v32H0z"/></g><style>.gotchi-primary{fill:#2664BA;}.gotchi-secondary{fill:#D4E0F1;}.gotchi-cheek{fill:#F696C6;}.gotchi-eyeColor{fill:#FF00FF;}.gotchi-primary-mouth{fill:#2664BA;}.gotchi-sleeves-up{display:none;}.gotchi-handsUp{display:none;}.gotchi-handsDownOpen{display:block;}.gotchi-handsDownClosed{display:none;}</style><g class="gotchi-body"><path d="M47 14v-2h-2v-2h-4V8h-4V6H27v2h-4v2h-4v2h-2v2h-2v41h4v-2h5v2h5v-2h6v2h5v-2h5v2h4V14z" class="gotchi-primary"/><path d="M45 14v-2h-4v-2h-4V8H27v2h-4v2h-4v2h-2v39h2v-2h5v2h5v-2h6v2h5v-2h5v2h2V14z" class="gotchi-secondary"/><path d="M18,49h2v-1h2v1h2v2h5v-2h2v-1h2v1h2v2h5v-2h2v-1h2v1h1V14h-4v-2h-4v-2h-5V9h-5v2h-4v2h-4v2h-1V49z" fill="#fff"/></g><path class="gotchi-cheek" d="M21 32v2h2v-2h-1zm21 0h-1v2h2v-2z"/><g class="gotchi-primary-mouth"><path d="M29 32h-2v2h2v-1z"/><path d="M33 34h-4v2h6v-2h-1z"/><path d="M36 32h-1v2h2v-2z"/></g>
    <style>
        .gotchi-bg { display: none }
    </style>
<g class="gotchi-shadow"><path opacity=".25" d="M25 58H19v1h1v1h24V59h1V58h-1z" fill="#000"/></g><g class="gotchi-collateral" fill="#2664ba"><path d="M30 15v2h3v1h-3v1h1.5v1h1v-1H34v-3h-3v-1h3v-1h-1.5v-1h-1v1H30zm4 5h1v1h-1z"/><path d="M35 19h1v1h-1z"/><path d="M36 16v3h1v-5h-1v1zm-2-4h1v1h-1z"/><path d="M35 13h1v1h-1zm-7 5v-4h-1v5h1zm1 2h1v1h-1z"/><path d="M28 19h1v1h-1zm1-7h1v1h-1z"/><path d="M28 13h1v1h-1z"/></g><g class="gotchi-eyeColor"><path d="M23 28V29V30H24H25H26H27V29V28H28H29V27V26V25V24H28H27V23V22H26H25H24H23V23V24H22H21V25V26V27V28H22H23Z" /><path d="M35 24V25V26V27V28H36H37V29V30H38H39H40H41V29V28H42H43V27V26V25V24H42H41V23V22H40H39H38H37V23V24H36H35Z" /></g><g class="gotchi-wearable wearable-body"><svg x="7" y="31"><path d="M38 3v2h-2v2h-6v2H20V7h-6V5h-2V3H7.5v7H8v14h4v-2h5v2h5v-2h6v2h5v-2h5v2h4V10h.5V3H38z" fill="#0fa9c9"/><g fill="#0f5a87"><path d="M42.5 6H40v16h-2v2h4V10h.5V6zM12 20h5v2h-5v-2z"/><path d="M33 20h5v2h-5v-2zm-16 2h5v2h-5v-2z"/><path d="M22,20h6v2h-6V20z"/><path d="M28 22h5v2h-5v-2zM8 24h4v-2h-2V6H7.5v4H8v14z"/></g><g fill="#fff"><path d="M27 14v-2h1v-1h-1v-1h-1v1h-2v-1h-1v1h-1v1h1v2H10v2h30v-2H27zm-1 0h-2v-2h2v2z"/><path d="M24,9h2v1h-2V9z"/></g><path d="M24 14v2h2v-2h-2zm-4 0v2h2v-2h-2zm-8 0v2h2v-2h-2zm20 0v2h2v-2h-2zm4 0v2h2v-2h-2zm-8 4v4h5v-4h-5zm-11 0v4h5v-4h-5zm1-2v-2h-2v2h2zm12 0v-2h-2v2h2z" fill="#a73796"/></svg></g><g class="gotchi-handsDownClosed"><g class="gotchi-primary"><path d="M19 42h1v1h-1zm1-6h1v1h-1z"/><path d="M21 37h1v1h-1zm5 3v4h1v-4zm-5 3h-1v1h2v-1z"/><path d="M24 44h-2v1h4v-1h-1zm1-5h-1v1h2v-1z"/><path d="M23 38h-1v1h2v-1z"/></g><g class="gotchi-secondary"><path d="M19 43h1v1h-1zm5 2h-2v1h4v-1h-1z"/><path d="M27 41v3h1v-3zm-6 3h-1v1h2v-1z"/><path d="M26 44h1v1h-1zm-7-3h-1v2h1v-1z"/></g><g class="gotchi-primary"><path d="M44 42h1v1h-1zm-1-6h1v1h-1z"/><path d="M42 37h1v1h-1z"/><path d="M42 39v-1h-2v1h1zm0 4v1h2v-1h-1z"/><path d="M40 44h-2v1h4v-1h-1z"/><path d="M38 42v-2h-1v4h1v-1z"/><path d="M40 40v-1h-2v1h1z"/></g><g class="gotchi-secondary"><path d="M42 44v1h2v-1h-1zm-5-2v-1h-1v3h1v-1z"/><path d="M40 45h-2v1h4v-1h-1z"/><path d="M37 44h1v1h-1zm7-1h1v1h-1z"/></g></g><g class="gotchi-handsDownOpen"><g class="gotchi-primary"><path d="M56 38v-1h-2v-1h-2v-1h-1v-1h-1v-1h-1v8h1v1h2v1h4v-1h1v-4z"/></g><g class="gotchi-secondary"><path d="M54 38v-1h-2v-1h-1v-1h-1v-1h-1v6h1v1h2v1h4v-4z" /></g><path d="M54,38v-1h-2v-1h-1v-1h-1v-1h-1v5h1v1h2v1h4v-3H54z" fill="#fff"/><g class="gotchi-primary"><path d="M8 38v-1h2v-1h2v-1h1v-1h1v-1h1v8h-1v1h-2v1H8v-1H7v-4z"/></g><g class="gotchi-secondary"><path d="M10 38v-1h2v-1h1v-1h1v-1h1v6h-1v1h-2v1H8v-4z" /></g><path d="M8,38v3h4v-1h2v-1h1v-5h-1v1h-1v1h-1v1h-2v1H8z" fill="#fff"/></g><g class="gotchi-handsUp"><g class="gotchi-secondary"><path d="M50,38h1v1h-1V38z"/><path d="M49 39h1v1h-1v-1zm2-2h1v1h-1v-1z"/><path d="M52,36h2v1h-2V36z"/><path d="M54,35h2v1h-2V35z"/></g><path d="M52,32v1h-2v1h-1v5h1v-1h1v-1h1v-1h2v-1h2v-3H52z" fill="#fff"/><g class="gotchi-primary"><path d="M49,33h1v1h-1V33z"/><path d="M50 32h2v1h-2v-1zm0 7h1v1h-1v-1z"/><path d="M49 40h1v1h-1v-1zm2-2h1v1h-1v-1z"/><path d="M52 37h2v1h-2v-1zm0-6h4v1h-4v-1z"/><path d="M56,32h1v4h-1V32z"/><path d="M54,36h2v1h-2V36z"/></g><g class="gotchi-secondary"><path d="M13,38h1v1h-1V38z"/><path d="M14 39h1v1h-1v-1zm-2-2h1v1h-1v-1z"/><path d="M10,36h2v1h-2V36z"/><path d="M8,35h2v1H8V35z"/></g><path d="M8,32v3h2v1h2v1h1v1h1v1h1v-5h-1v-1h-2v-1H8z" fill="#fff"/><g class="gotchi-primary"><path d="M14,33h1v1h-1V33z"/><path d="M12 32h2v1h-2v-1zm1 7h1v1h-1v-1z"/><path d="M14 40h1v1h-1v-1zm-2-2h1v1h-1v-1z"/><path d="M10 37h2v1h-2v-1zm-2-6h4v1H8v-1z"/><path d="M7,32h1v4H7V32z"/><path d="M8,36h2v1H8V36z"/></g></g><g class="gotchi-wearable wearable-eyes"><svg x="15" y="21"><path d="M3 1v7h11V1H3z" fill="#0ff"/><path d="M3 1v2h11V1H3z" fill="#00b9ff"/><path d="M10 2v5h1V2h-1z" opacity=".4" fill="#fff" enable-background="new"/><path d="M20 1v7h11V1H20z" fill="#f0f"/><path d="M20 1v2h11V1H20z" fill="#d700ff"/><path d="M27 2v5h1V2h-1z" opacity=".4" fill="#fff" enable-background="new"/><path d="M0 0v5h2v3h1v1h11V8h1V5h4v3h1v1h11V8h1V5h2V0H0zm30 7h-9V2h9v5zM13 7H4V2h9v5z" fill="#c8c8c8"/><path d="M15 2v1h4V2h-4zM0 2v1h2V2H0zm32 0v1h2V2h-2z" fill="#aaa"/></svg></g><g class="gotchi-wearable wearable-head"><svg x="15" y="4"><path d="M33 8V7h-1V6h-1V5h-1V4h-1V3h-1V2h-3V1h-7V0h-2v1H9v1H6v1H5v1H4v1H3v1H2v1H1v1H0v9h3v1h1v1h26v-1h1v-1h3V8h-1z" fill="#960000"/><g fill="red"><path d="M32 8V7h-1V6h-1V5h-1V4h-1V3h-3V2h-6v1h1v1h1v1h1v1h1v1h1v1h1v8h8V8h-1zM11 7V6h1V5h1V4h1V3h1V2H9v1H6v1H5v1H4v1H3v1H2v1H1v8h8V8h1V7h1z"/><path d="M23 7h-1V6h-1V5h-1V4h-1V3h-1V2h-2v1h-1v1h-1v1h-1v1h-1v1h-1v1h-1v8h14V8h-1V7zM4 17v1h26v-1H4z"/></g><g fill="#ffc900"><path d="M22 13.5v-6h-2v6h2zm-4 0v-6h-2v6h2z"/><path d="M14 15.5h2v-2h-2v2zm4 0h2v-2h-2v2z"/><path d="M14 13.5v-6h-2v6h2z"/></g></svg></g>"><svg x="7" y="31"><g><g class="gotchi-sleeves gotchi-sleeves-left gotchi-sleeves-up"><path d="M43 2V1h2V0h4v1h1v4h-1v1h-2v1h-2v1h-1v1h-1v1h-1.5V9h1V3h-1V2H43z" fill="#0f5a87"/><path d="M43 3V2h2v4 1h-1v1h-1v1h-1V3z" fill="#0fa9c9"/><path d="M45 2V1h4v4h-2v1h-2z" fill="#a73796"/></g><g class="gotchi-sleeves gotchi-sleeves-left gotchi-sleeves-down"><path d="M42 3V2h1v1h1v1h1v1h2v1h2v1h1v4h-1v1h-4v-1h-2v-1h-2V6h1V3z" fill="#0f5a87"/><path d="M43 3v1h1v1h1v1 4h-2V9h-1V6h-1V3z" fill="#0fa9c9"/><path d="M45 6h2v1h2v4h-4z" fill="#a73796"/></g><g class="gotchi-sleeves gotchi-sleeves-right gotchi-sleeves-up"><path d="M7 2V1H5V0H1v1H0v4h1v1h2v1h2v1h1v1h1v1h1.5V9h-1V3h1V2H7z" fill="#0f5a87"/><path d="M7 3V2H5v4 1h1v1h1v1h1V3z" fill="#0fa9c9"/><path d="M5 2V1H1v4h2v1h2z" fill="#a73796"/></g><g class="gotchi-sleeves gotchi-sleeves-right gotchi-sleeves-down"><path d="M8 3V2H7v1H6v1H5v1H3v1H1v1H0v4h1v1h4v-1h2v-1h2V6H8V3z" fill="#0f5a87"/><path d="M7 3v1H6v1H5v1 4h2V9h1V6h1V3z" fill="#0fa9c9"/><path d="M5 6H3v1H1v4h4z" fill="#a73796"/></g></g></svg><g class="gotchi-wearable wearable-hand wearable-hand-left"><svg x="0" y="24"><path d="M16 1V0H1v1H0v7h1v1h7v14h1V9h7V8h1V1z" fill="#7d7d7d"/><path d="M15 1H1v7h15V1z"/><g fill="#f90"><path d="M6.3 2.3h-.9v4.5h2.7V2.3H6.3zm.9 1.8v1.8h-.9V3.2h.9v.9zm6.9-.9h.9v-.9h-2.6v4.4H15v-.9h-1.7v-.9H15v-.8h-1.7v-.9zm-4.3-.9h-.9v.9h.9v3.5h.9V3.2h.8v-.9h-.8zm-6.1.9v2.6h.9V2.3h-.9z"/><path d="M2.9 5.8h.9v.9h-.9z"/><path d="M2.9 4.1V2.3H2v3.5h.9v-.9z"/></g></svg></g><g class="gotchi-wearable wearable-hand wearable-hand-right"><svg x="1" y="29"><g transform="scale(-1, 1) translate(-62, 0)"><g fill="#d3cadf"><path d="M2,0h1v1H2V0z"/><path d="M3,1h1v1H3V1z"/><path d="M4,2h1v1H4V2z"/><path d="M3,3h1v1H3V3z"/><path d="M2 4h1v2H2V4zm4-4h1v1H6V0z"/><path d="M7,1h1v1H7V1z"/><path d="M8,2h1v1H8V2z"/><path d="M7,3h1v1H7V3z"/><path d="M6,4h1v2H6V4z"/></g><g fill="#64438e"><path d="M0,5v9h1v1h8v-1h1v-2h2v-1h-2V8h2V7h-2V5H0z"/><path d="M12,8v3h1V8H12z"/></g><path d="M1 14h8V6H1v8z" fill="#fff"/><path d="M8,6v8h1V6H8z" fill="#d3cadf"/><path d="M7.1 8.3v-.9H5.4v.9h-.8v-.9H2.9v.9H2v1.8h.9v.9h.8v.9h.9v.9h.9v-.9h.8V11h.9v-.9H8V8.3h-.9z" fill="#fa34f3"/><path d="M4.6 11.9h.9v.9h-.9v-.9z" fill="#7e18f8"/><path d="M3.7 11v.9h2.6V11H3.7h0z" fill="#8f17f9"/><path d="M2.9 10.1v.9h4.3v-.9H2.9z" fill="#ac15f9"/><path d="M2 9.2v.9h6v-.9H2z" fill="#cf15f9"/><path d="M7.1 8.3v-.9H5.4v.9h-.8v-.9H2.9v.9H2v.9h6v-.9h-.9z" fill="#fa34f3"/></g></svg></g><g class="gotchi-wearable wearable-pet"><svg x="38" y="3"><path d="M25 8V7h-1V5h-1V4h-1V3h-2V2h-3V1h-1V0h-6v1H9v1H6v1H4v1H3v1H2v2H1v1H0v2h1v1h1v1h2v1h2v1h14v-1h2v-1h2v-1h1v-1h1V8h-1z"/><path d="M24 8V7h-1V5h-1V4h-2V3h-3V2h-1V1h-6v1H9v1H6v1H4v1H3v2H2v1H1v2h1v1h2v1h2v1h14v-1h2v-1h2v-1h1V8h-1zM7 5h2v1h1v1H9V6H7v1H6V6h1V5zm13 1v1h-1V6h-2v1h-1V6h1V5h2v1h1zm-9 3V8h1v1h2V8h1v1h-1v1h-2V9h-1z" fill="#fff"/><path d="M20 8h1v1h-1zM5 8h1v1H5z" fill="#ff78ff"/><linearGradient id="A" gradientUnits="userSpaceOnUse" x1="7.894" y1="15.499" x2="18.633" y2="1.43"><stop offset="0" stop-color="#ff0"/><stop offset=".8" stop-color="#f0f"/></linearGradient><path d="M10 2V1h6v1h-6zm7 1V2h-1v1h1zm3 1V3h-3v1h3zm2 1V4h-2v1h2zm0 2h1V5h-1v2zm-2 4v1h2v-1h-2zM6 12v1h14v-1H6zm16-2v1h2v-1h-2zm2-2V7h-1v1h1zm0 0v2h1V8h-1zM10 2H9v1h1V2zM8 4h1V3H6v1h2zM6 5V4H4v1h2zm-2 6v1h2v-1H4zm-2-1v1h2v-1H2zm2-5H3v2h1V5zM2 8H1v2h1V8zm1-1H2v1h1V7z" fill="url(#A)"/></svg></g></svg>