<svg xmlns="http://www.w3.org/2000/svg" viewBox="0 0 64 64"><g class="gotchi-bg"><defs fill="#fff"><pattern id="a" patternUnits="userSpaceOnUse" width="4" height="4"><path d="M0 0h1v1H0zm2 2h1v1H2z"/></pattern><pattern id="b" patternUnits="userSpaceOnUse" x="0" y="0" width="2" height="2"><path d="M0 0h1v1H0z"/></pattern><pattern id="c" patternUnits="userSpaceOnUse" x="-2" y="0" width="8" height="1"><path d="M0 0h1v1H0zm2 0h1v1H2zm2 0h1v1H4z"/></pattern><pattern id="d" patternUnits="userSpaceOnUse" x="0" y="0" width="4" height="4"><path d="M0 0h1v1H0zm0 2h1v1H0zm1 0V1h1v1zm1 0h1v1H2zm0-1h1V0H2zm1 2h1v1H3z"/></pattern><pattern id="e" patternUnits="userSpaceOnUse" width="64" height="32"><path d="M4 4h1v1H4zm7 0h1v1h-1zm7 0h1v1h-1zm7 0h1v1h-1zm7 0h1v1h-1zm7 0h1v1h-1zm7 0h1v1h-1zm7 0h1v1h-1zm7 0h1v1h-1z"/><path fill="url(#a)" d="M0 8h64v7H0z"/><path fill="url(#b)" d="M0 16h64v1H0z"/><path fill="url(#c)" d="M0 18h64v1H0z"/><path fill="url(#b)" d="M22 18h15v1H22zM0 20h64v3H0z"/><path fill="url(#d)" d="M0 24h64v8H0z"/></pattern><mask id="f"><path fill="url(#e)" d="M0 0h64v32H0z"/></mask></defs><path fill="#fff" d="M0 0h64v32H0z"/><path fill="#dea8ff" class="gotchi-secondary" mask="url(#f)" d="M0 0h64v32H0z"/><path fill="#dea8ff" class="gotchi-secondary" d="M0 32h64v32H0z"/><path mask="url(#f)" fill="#fff" transform="matrix(1 0 0 -1 0 64)" d="M0 0h64v32H0z"/></g><style>.gotchi-primary{fill:#000000;}.gotchi-secondary{fill:#FBDFEB;}.gotchi-cheek{fill:#F696C6;}.gotchi-eyeColor{fill:#000000;}.gotchi-primary-mouth{fill:#000000;}.gotchi-sleeves-up{display:none;}.gotchi-handsUp{display:none;}.gotchi-handsDownOpen{display:block;}.gotchi-handsDownClosed{display:none;}</style><g class="gotchi-body"><path d="M47 14v-2h-2v-2h-4V8h-4V6H27v2h-4v2h-4v2h-2v2h-2v41h4v-2h5v2h5v-2h6v2h5v-2h5v2h4V14z" class="gotchi-primary"/><path d="M45 14v-2h-4v-2h-4V8H27v2h-4v2h-4v2h-2v39h2v-2h5v2h5v-2h6v2h5v-2h5v2h2V14z" class="gotchi-secondary"/><path d="M18,49h2v-1h2v1h2v2h5v-2h2v-1h2v1h2v2h5v-2h2v-1h2v1h1V14h-4v-2h-4v-2h-5V9h-5v2h-4v2h-4v2h-1V49z" fill="#fff"/></g><path class="gotchi-cheek" d="M21 32v2h2v-2h-1zm21 0h-1v2h2v-2z"/><g class="gotchi-primary-mouth"><path d="M29 32h-2v2h2v-1z"/><path d="M33 34h-4v2h6v-2h-1z"/><path d="M36 32h-1v2h2v-2z"/></g>
    <style>
        .gotchi-bg { display: none }
    </style>
<g class="gotchi-shadow"><path opacity=".25" d="M25 58H19v1h1v1h24V59h1V58h-1z" fill="#000"/></g><g class="gotchi-collateral"><path d="M35.5 20h1v-1h1v-5h-1v-1h-1v-1h-1v-1h-5v1h-1v1h-1v1h-1v5h1v1h1v1h1v1h5v-1h1v-1zm0-2h-1v1h-4v-1h-1v-3h1v-1h4v1h1v3z"/><path d="M28.5 15h1v-1h1v-1h3v-1h-4v1h-1v1h-1v5h1v1h1v1h4v-1h-3v-1h-1v-1h-1v-3z" fill="#e51b6d"/></g><g class="gotchi-eyeColor"><path d="M27 23H26H25H24H23H22H21V24V25V26H22H23H24H25H26H27H28H29V25V24V23H28H27ZM23 25H22V24H23H24V25H23ZM28 25H27H26V24H27H28V25Z" class="gotchi-primary" /><rect x="24" y="24" width="2" height="1" /><path d="M42 23H41H40H39H38H37H36H35V24V25V26H36H37H38H39H40H41H42H43V25V24V23H42ZM37 25H36V24H37H38V25H37ZM42 25H41H40V24H41H42V25Z" class="gotchi-primary" /><rect x="38" y="24" width="2" height="1" /></g><g class="gotchi-wearable wearable-body"><svg x="12" y="32"><path d="M3,21h34V1h-2v1h-1v1h-1v1h-1v1h-1v1h-1v1h-8v1h-4V7h-8V6H9V5H8V4H7V3H6V2H5V1H3V21z" fill="#501e87"/><path d="M35,3h-1v1h-1v1h-1v1h-1v1h-1v1h-8v1h-4V8h-8V7H9V6H8V5H7V4H6V3H5V2H4v18h32V2h-1V3z" fill="#824ee2"/><path d="M33 11h-1V8h-1v4h3v-1h-1zm-1 2h-1v1h2v1h-2v3h3v-1h-2v-1h2v-3h-2zM7 13H6v1h2v1H6v3h3v-1H7v-1h2v-3H7zm0-2V8H6v4h3v-1H7z" fill="#501e87"/><path d="M27 14v-1h-1v-1h-1v-1h-3v1h-1v1h-2v1h-1v1h-3v-1h-1v-3h1v-1h3v1h1v1h1v-2h-1V9h-1V8h-3v1h-1v1h-1v1h-1v3h1v1h1v1h1v1h3v-1h1v-1h2v-1h1v-1h3v1h1v3h-1v1h-3v-1h-1v-1h-1v2h1v1h1v1h3v-1h1v-1h1v-1h1v-3h-1z" fill="#fff"/></svg></g><g class="gotchi-handsDownClosed"><g class="gotchi-primary"><path d="M19 42h1v1h-1zm1-6h1v1h-1z"/><path d="M21 37h1v1h-1zm5 3v4h1v-4zm-5 3h-1v1h2v-1z"/><path d="M24 44h-2v1h4v-1h-1zm1-5h-1v1h2v-1z"/><path d="M23 38h-1v1h2v-1z"/></g><g class="gotchi-secondary"><path d="M19 43h1v1h-1zm5 2h-2v1h4v-1h-1z"/><path d="M27 41v3h1v-3zm-6 3h-1v1h2v-1z"/><path d="M26 44h1v1h-1zm-7-3h-1v2h1v-1z"/></g><g class="gotchi-primary"><path d="M44 42h1v1h-1zm-1-6h1v1h-1z"/><path d="M42 37h1v1h-1z"/><path d="M42 39v-1h-2v1h1zm0 4v1h2v-1h-1z"/><path d="M40 44h-2v1h4v-1h-1z"/><path d="M38 42v-2h-1v4h1v-1z"/><path d="M40 40v-1h-2v1h1z"/></g><g class="gotchi-secondary"><path d="M42 44v1h2v-1h-1zm-5-2v-1h-1v3h1v-1z"/><path d="M40 45h-2v1h4v-1h-1z"/><path d="M37 44h1v1h-1zm7-1h1v1h-1z"/></g></g><g class="gotchi-handsDownOpen"><g class="gotchi-primary"><path d="M56 38v-1h-2v-1h-2v-1h-1v-1h-1v-1h-1v8h1v1h2v1h4v-1h1v-4z"/></g><g class="gotchi-secondary"><path d="M54 38v-1h-2v-1h-1v-1h-1v-1h-1v6h1v1h2v1h4v-4z" /></g><path d="M54,38v-1h-2v-1h-1v-1h-1v-1h-1v5h1v1h2v1h4v-3H54z" fill="#fff"/><g class="gotchi-primary"><path d="M8 38v-1h2v-1h2v-1h1v-1h1v-1h1v8h-1v1h-2v1H8v-1H7v-4z"/></g><g class="gotchi-secondary"><path d="M10 38v-1h2v-1h1v-1h1v-1h1v6h-1v1h-2v1H8v-4z" /></g><path d="M8,38v3h4v-1h2v-1h1v-5h-1v1h-1v1h-1v1h-2v1H8z" fill="#fff"/></g><g class="gotchi-handsUp"><g class="gotchi-secondary"><path d="M50,38h1v1h-1V38z"/><path d="M49 39h1v1h-1v-1zm2-2h1v1h-1v-1z"/><path d="M52,36h2v1h-2V36z"/><path d="M54,35h2v1h-2V35z"/></g><path d="M52,32v1h-2v1h-1v5h1v-1h1v-1h1v-1h2v-1h2v-3H52z" fill="#fff"/><g class="gotchi-primary"><path d="M49,33h1v1h-1V33z"/><path d="M50 32h2v1h-2v-1zm0 7h1v1h-1v-1z"/><path d="M49 40h1v1h-1v-1zm2-2h1v1h-1v-1z"/><path d="M52 37h2v1h-2v-1zm0-6h4v1h-4v-1z"/><path d="M56,32h1v4h-1V32z"/><path d="M54,36h2v1h-2V36z"/></g><g class="gotchi-secondary"><path d="M13,38h1v1h-1V38z"/><path d="M14 39h1v1h-1v-1zm-2-2h1v1h-1v-1z"/><path d="M10,36h2v1h-2V36z"/><path d="M8,35h2v1H8V35z"/></g><path d="M8,32v3h2v1h2v1h1v1h1v1h1v-5h-1v-1h-2v-1H8z" fill="#fff"/><g class="gotchi-primary"><path d="M14,33h1v1h-1V33z"/><path d="M12 32h2v1h-2v-1zm1 7h1v1h-1v-1z"/><path d="M14 40h1v1h-1v-1zm-2-2h1v1h-1v-1z"/><path d="M10 37h2v1h-2v-1zm-2-6h4v1H8v-1z"/><path d="M7,32h1v4H7V32z"/><path d="M8,36h2v1H8V36z"/></g></g><g class="gotchi-wearable wearable-face"><svg x="19" y="32"><path d="M25 1V0h-3v1h2v2h-2V2h-2V1h-2V0h-4v1h-2V0H8v1H6v1H4v1H2V1h2V0H1v1H0v3h1v1h1v1h2v1h4V6h2V5h2V4h2v1h2v1h2v1h4V6h2V5h1V4h1V1z"/><g fill="#303030"><path d="M19 3h1v1h-1zm-2-2h-1v1h2V1z"/><path d="M18 2h1v1h-1zM6 3h1v1H6zm2-2v1h2V1H9z"/><path d="M7 2h1v1H7z"/></g></svg></g><g class="gotchi-wearable wearable-eyes"><svg x="15" y="21"><path d="M3 1v7h11V1H3z" fill="#0ff"/><path d="M3 1v2h11V1H3z" fill="#00b9ff"/><path d="M10 2v5h1V2h-1z" opacity=".4" fill="#fff" enable-background="new"/><path d="M20 1v7h11V1H20z" fill="#f0f"/><path d="M20 1v2h11V1H20z" fill="#d700ff"/><path d="M27 2v5h1V2h-1z" opacity=".4" fill="#fff" enable-background="new"/><path d="M0 0v5h2v3h1v1h11V8h1V5h4v3h1v1h11V8h1V5h2V0H0zm30 7h-9V2h9v5zM13 7H4V2h9v5z" fill="#c8c8c8"/><path d="M15 2v1h4V2h-4zM0 2v1h2V2H0zm32 0v1h2V2h-2z" fill="#aaa"/></svg></g><g class="gotchi-wearable wearable-head"><svg x="7" y="4"><path d="M41 8V7h-1V6h-1V5h-1V4h-1V3h-1V2h-3V1h-7V0h-2v1h-7v1h-3v1h-1v1h-1v1h-1v1h-1v1H9v1H8v7H0v2h42V8z" fill="#501e87"/><g fill="#824ee2"><path d="M40 8V7h-1V6h-1V5h-1V4h-1V3h-3V2h-6v1h1v1h1v1h1v1h1v1h1v1h1v8h8V8h-1zM19 7V6h1V5h1V4h1V3h1V2h-6v1h-3v1h-1v1h-1v1h-1v1h-1v1H9v8h8V8h1V7h1z"/><path d="M31 7h-1V6h-1V5h-1V4h-1V3h-1V2h-2v1h-1v1h-1v1h-1v1h-1v1h-1v1h-1v8h14V8h-1z"/></g><path d="M30.2 10.8V10h-.7v-.8h-.7v-.7h-2.3v.7h-.7v.8h-1.6v.8h-.7v.7h-2.3v-.7h-.7V8.5h.7v-.7h2.3v.7h.7v.7h.8V7.8h-.8V7h-.7v-.8h-2.3V7h-.7v.8h-.7v.7H19v2.3h.8v.7h.7v.7h.7v.8h2.3v-.8h.7v-.7h1.6v-.7h.7V10h2.3v.8h.7V13h-.7v.8h-2.3V13h-.7v-.8H25v1.6h.8v.7h.7v.7h2.3v-.7h.7v-.7h.7V13h.8v-2.2z" fill="#fff"/><path d="M13 10v1h1v1h-1v3h2v-1h-1v-1h1v-3h-1zm26 0h-1v1h1v1h-1v3h2v-1h-1v-1h1v-3zm-28 3v-3h-1v5h2v-1h-1zm25 0v-3h-1v5h2v-1h-1z" fill="#501e87"/></svg></g>"><svg x="12" y="32"><g><g class="gotchi-sleeves gotchi-sleeves-left gotchi-sleeves-up"><path d="M36.5,9H38V8h1V7h1V0h-2v1h-1.5V9z" fill="#501e87"/><path d="M38,7h1V1h-1v1h-1v6h1V7z" fill="#824ee2"/></g><g class="gotchi-sleeves gotchi-sleeves-left gotchi-sleeves-down"><path d="M36.5,9H38v1h2V3h-1V2h-1V1h-1.5V9z" fill="#501e87"/><path d="M38,2h-1v6h1v1h1V3h-1V2z" fill="#824ee2"/></g><g class="gotchi-sleeves gotchi-sleeves-right gotchi-sleeves-up"><path d="M3.5,1H2V0H0v7h1v1h1v1h1.5V1z" fill="#501e87"/><path d="M2,8h1V2H2V1H1v6h1V8z" fill="#824ee2"/></g><g class="gotchi-sleeves gotchi-sleeves-right gotchi-sleeves-down"><path d="M3.5,1H2v1H1v1H0v7h2V9h1.5V1z" fill="#501e87"/><path d="M2,3H1v6h1V8h1V2H2V3z" fill="#824ee2"/></g></g></svg><g class="gotchi-wearable wearable-hand wearable-hand-left"><svg x="1" y="24"><path d="M12 1V0H1v1H0v7h1v1h5v14h1V9h5V8h1V1z" fill="#501e87"/><path d="M11 1H1v7h11V1z" fill="#824ee2"/><path d="M9 2H7v1h2v1H7v3h3V6H8V5h2V2zM4 6V2H3v5h3V6H5z" fill="#fff"/></svg></g><g class="gotchi-wearable wearable-hand wearable-hand-right"><svg x="2" y="24"><g transform="scale(-1, 1) translate(-60, 0)"><path d="M5 1v1H0v9h5v-1h4.5V1z" fill="green"/><path d="M5 1h1v9H5z" fill="#2d5016"/><g fill="#ffb81c"><path d="M6,6h1v1H6V6z"/><path d="M7,7h1v1H7V7z"/><path d="M8 8h1v1H8V8zM4 6h1v1H4V6z"/><path d="M3,7h1v1H3V7z"/><path d="M2,8h1v1H2V8z"/><path d="M1,9h1v1H1V9z"/><path d="M0 10h1v1H0v-1zm6-6h1v1H6V4z"/><path d="M7,3h1v1H7V3z"/><path d="M8 2h1v1H8V2zM0 2h1v1H0V2zm3 3h1v1H3V5z"/><path d="M2,4h1v1H2V4z"/><path d="M1,3h1v1H1V3z"/></g><path d="M8 3v1H7v1H6v1h1v1h1v1h1V3H8zM3 5H2V4H1V3H0v7h1V9h1V8h1V7h1V6H3V5z"/><path d="M5,5h1v1H5V5z" fill="#d4aa00"/><path d="M9,0h1v28H9V0z" fill="gray"/><path d="M9,0h1v1H9V0z" fill="#4d4d4d"/></g></svg></g><g class="gotchi-wearable wearable-pet"><svg x="38" y="3"><path d="M25 8V7h-1V5h-1V4h-1V3h-2V2h-3V1h-1V0h-6v1H9v1H6v1H4v1H3v1H2v2H1v1H0v2h1v1h1v1h2v1h2v1h14v-1h2v-1h2v-1h1v-1h1V8h-1z"/><path d="M24 8V7h-1V5h-1V4h-2V3h-3V2h-1V1h-6v1H9v1H6v1H4v1H3v2H2v1H1v2h1v1h2v1h2v1h14v-1h2v-1h2v-1h1V8h-1zM7 5h2v1h1v1H9V6H7v1H6V6h1V5zm13 1v1h-1V6h-2v1h-1V6h1V5h2v1h1zm-9 3V8h1v1h2V8h1v1h-1v1h-2V9h-1z" fill="#fff"/><path d="M20 8h1v1h-1zM5 8h1v1H5z" fill="#ff78ff"/><linearGradient id="A" gradientUnits="userSpaceOnUse" x1="7.894" y1="15.499" x2="18.633" y2="1.43"><stop offset="0" stop-color="#ff0"/><stop offset=".8" stop-color="#f0f"/></linearGradient><path d="M10 2V1h6v1h-6zm7 1V2h-1v1h1zm3 1V3h-3v1h3zm2 1V4h-2v1h2zm0 2h1V5h-1v2zm-2 4v1h2v-1h-2zM6 12v1h14v-1H6zm16-2v1h2v-1h-2zm2-2V7h-1v1h1zm0 0v2h1V8h-1zM10 2H9v1h1V2zM8 4h1V3H6v1h2zM6 5V4H4v1h2zm-2 6v1h2v-1H4zm-2-1v1h2v-1H2zm2-5H3v2h1V5zM2 8H1v2h1V8zm1-1H2v1h1V7z" fill="url(#A)"/></svg></g></svg>