<svg xmlns="http://www.w3.org/2000/svg" viewBox="0 0 64 64"><g class="gotchi-bg"><defs fill="#fff"><pattern id="a" patternUnits="userSpaceOnUse" width="4" height="4"><path d="M0 0h1v1H0zm2 2h1v1H2z"/></pattern><pattern id="b" patternUnits="userSpaceOnUse" x="0" y="0" width="2" height="2"><path d="M0 0h1v1H0z"/></pattern><pattern id="c" patternUnits="userSpaceOnUse" x="-2" y="0" width="8" height="1"><path d="M0 0h1v1H0zm2 0h1v1H2zm2 0h1v1H4z"/></pattern><pattern id="d" patternUnits="userSpaceOnUse" x="0" y="0" width="4" height="4"><path d="M0 0h1v1H0zm0 2h1v1H0zm1 0V1h1v1zm1 0h1v1H2zm0-1h1V0H2zm1 2h1v1H3z"/></pattern><pattern id="e" patternUnits="userSpaceOnUse" width="64" height="32"><path d="M4 4h1v1H4zm7 0h1v1h-1zm7 0h1v1h-1zm7 0h1v1h-1zm7 0h1v1h-1zm7 0h1v1h-1zm7 0h1v1h-1zm7 0h1v1h-1zm7 0h1v1h-1z"/><path fill="url(#a)" d="M0 8h64v7H0z"/><path fill="url(#b)" d="M0 16h64v1H0z"/><path fill="url(#c)" d="M0 18h64v1H0z"/><path fill="url(#b)" d="M22 18h15v1H22zM0 20h64v3H0z"/><path fill="url(#d)" d="M0 24h64v8H0z"/></pattern><mask id="f"><path fill="url(#e)" d="M0 0h64v32H0z"/></mask></defs><path fill="#fff" d="M0 0h64v32H0z"/><path fill="#dea8ff" class="gotchi-secondary" mask="url(#f)" d="M0 0h64v32H0z"/><path fill="#dea8ff" class="gotchi-secondary" d="M0 32h64v32H0z"/><path mask="url(#f)" fill="#fff" transform="matrix(1 0 0 -1 0 64)" d="M0 0h64v32H0z"/></g><style>.gotchi-primary{fill:#824EE2;}.gotchi-secondary{fill:#E6DCF9;}.gotchi-cheek{fill:#F696C6;}.gotchi-eyeColor{fill:#0064FF;}.gotchi-primary-mouth{fill:#824EE2;}.gotchi-sleeves-up{display:none;}.gotchi-handsUp{display:none;}.gotchi-handsDownOpen{display:block;}.gotchi-handsDownClosed{display:none;}</style><g class="gotchi-body"><path d="M47 14v-2h-2v-2h-4V8h-4V6H27v2h-4v2h-4v2h-2v2h-2v41h4v-2h5v2h5v-2h6v2h5v-2h5v2h4V14z" class="gotchi-primary"/><path d="M45 14v-2h-4v-2h-4V8H27v2h-4v2h-4v2h-2v39h2v-2h5v2h5v-2h6v2h5v-2h5v2h2V14z" class="gotchi-secondary"/><path d="M18,49h2v-1h2v1h2v2h5v-2h2v-1h2v1h2v2h5v-2h2v-1h2v1h1V14h-4v-2h-4v-2h-5V9h-5v2h-4v2h-4v2h-1V49z" fill="#fff"/></g><path class="gotchi-cheek" d="M21 32v2h2v-2h-1zm21 0h-1v2h2v-2z"/><g class="gotchi-primary-mouth"><path d="M29 32h-2v2h2v-1z"/><path d="M33 34h-4v2h6v-2h-1z"/><path d="M36 32h-1v2h2v-2z"/></g>
    <style>
        .gotchi-bg { display: none }
    </style>
<g class="gotchi-shadow"><path opacity=".25" d="M25 58H19v1h1v1h24V59h1V58h-1z" fill="#000"/></g><g class="gotchi-collateral"><path d="M37.25 17.04v-.75h-.75v-.75h-.75v-.75H33.5v.75h-.75v.75h-1.5v.75h-.75v.75h-2.25v-.75h-.75v-2.25h.75v-.75h2.25v.75h.75v.75H32v-1.5h-.75v-.75h-.75v-.75h-2.25v.75h-.75v.75h-.75v.75H26v2.25h.75v.75h.75v.75h.75v.75h2.25v-.75h.75v-.75h1.5v-.75h.75v-.75h2.25v.75h.75v2.25h-.75v.75H33.5v-.75h-.75v-.75H32v1.5h.75v.75h.75v.75h2.25v-.75h.75v-.75h.75v-.75H38v-2.25h-.75z" fill="#824ee2"/></g><g class="gotchi-eyeColor"><path d="M28 22H27V21H26H25H24H23V22H22V23H21V24V25V26V27H22V28H23V29H24H25H26H27V28H28V27H29V26V25V24V23H28V22Z" /><path d="M42 23V22H41V21H40H39H38H37V22H36V23H35V24V25V26V27H36V28H37V29H38H39H40H41V28H42V27H43V26V25V24V23H42Z" /></g><g class="gotchi-wearable wearable-body"><svg x="12" y="32"><path d="M34 1v1h-1v1h-1v1h-1v1h-1v1h-1v1h-2v1h-3v1h-8V8h-3V7h-2V6h-1V5H9V4H8V3H7V2H6V1H3v20h34V1h-3z"/><linearGradient id="A" gradientUnits="userSpaceOnUse" x1="9.769" y1="24.403" x2="30.231" y2="-2.403"><stop offset="0" stop-color="#ff0"/><stop offset=".8" stop-color="#f0f"/></linearGradient><path d="M36 2v18H4V2h2v1h1v1h1v1h1v1h1v1h1v1h2v1h3v1h8V9h3V8h2V7h1V6h1V5h1V4h1V3h1V2h2z" fill="url(#A)"/><path d="M16.6 10.8h1.5v1.5h-1.5zm2.9 1.5v1.5H21v1.4h-1.5v-1.4H18v4.4h1.5v-1.5h2.9v-4.4z" fill="#fff"/></svg></g><g class="gotchi-handsDownClosed"><g class="gotchi-primary"><path d="M19 42h1v1h-1zm1-6h1v1h-1z"/><path d="M21 37h1v1h-1zm5 3v4h1v-4zm-5 3h-1v1h2v-1z"/><path d="M24 44h-2v1h4v-1h-1zm1-5h-1v1h2v-1z"/><path d="M23 38h-1v1h2v-1z"/></g><g class="gotchi-secondary"><path d="M19 43h1v1h-1zm5 2h-2v1h4v-1h-1z"/><path d="M27 41v3h1v-3zm-6 3h-1v1h2v-1z"/><path d="M26 44h1v1h-1zm-7-3h-1v2h1v-1z"/></g><g class="gotchi-primary"><path d="M44 42h1v1h-1zm-1-6h1v1h-1z"/><path d="M42 37h1v1h-1z"/><path d="M42 39v-1h-2v1h1zm0 4v1h2v-1h-1z"/><path d="M40 44h-2v1h4v-1h-1z"/><path d="M38 42v-2h-1v4h1v-1z"/><path d="M40 40v-1h-2v1h1z"/></g><g class="gotchi-secondary"><path d="M42 44v1h2v-1h-1zm-5-2v-1h-1v3h1v-1z"/><path d="M40 45h-2v1h4v-1h-1z"/><path d="M37 44h1v1h-1zm7-1h1v1h-1z"/></g></g><g class="gotchi-handsDownOpen"><g class="gotchi-primary"><path d="M56 38v-1h-2v-1h-2v-1h-1v-1h-1v-1h-1v8h1v1h2v1h4v-1h1v-4z"/></g><g class="gotchi-secondary"><path d="M54 38v-1h-2v-1h-1v-1h-1v-1h-1v6h1v1h2v1h4v-4z" /></g><path d="M54,38v-1h-2v-1h-1v-1h-1v-1h-1v5h1v1h2v1h4v-3H54z" fill="#fff"/><g class="gotchi-primary"><path d="M8 38v-1h2v-1h2v-1h1v-1h1v-1h1v8h-1v1h-2v1H8v-1H7v-4z"/></g><g class="gotchi-secondary"><path d="M10 38v-1h2v-1h1v-1h1v-1h1v6h-1v1h-2v1H8v-4z" /></g><path d="M8,38v3h4v-1h2v-1h1v-5h-1v1h-1v1h-1v1h-2v1H8z" fill="#fff"/></g><g class="gotchi-handsUp"><g class="gotchi-secondary"><path d="M50,38h1v1h-1V38z"/><path d="M49 39h1v1h-1v-1zm2-2h1v1h-1v-1z"/><path d="M52,36h2v1h-2V36z"/><path d="M54,35h2v1h-2V35z"/></g><path d="M52,32v1h-2v1h-1v5h1v-1h1v-1h1v-1h2v-1h2v-3H52z" fill="#fff"/><g class="gotchi-primary"><path d="M49,33h1v1h-1V33z"/><path d="M50 32h2v1h-2v-1zm0 7h1v1h-1v-1z"/><path d="M49 40h1v1h-1v-1zm2-2h1v1h-1v-1z"/><path d="M52 37h2v1h-2v-1zm0-6h4v1h-4v-1z"/><path d="M56,32h1v4h-1V32z"/><path d="M54,36h2v1h-2V36z"/></g><g class="gotchi-secondary"><path d="M13,38h1v1h-1V38z"/><path d="M14 39h1v1h-1v-1zm-2-2h1v1h-1v-1z"/><path d="M10,36h2v1h-2V36z"/><path d="M8,35h2v1H8V35z"/></g><path d="M8,32v3h2v1h2v1h1v1h1v1h1v-5h-1v-1h-2v-1H8z" fill="#fff"/><g class="gotchi-primary"><path d="M14,33h1v1h-1V33z"/><path d="M12 32h2v1h-2v-1zm1 7h1v1h-1v-1z"/><path d="M14 40h1v1h-1v-1zm-2-2h1v1h-1v-1z"/><path d="M10 37h2v1h-2v-1zm-2-6h4v1H8v-1z"/><path d="M7,32h1v4H7V32z"/><path d="M8,36h2v1H8V36z"/></g></g><g class="gotchi-wearable wearable-eyes"><svg x="15" y="22"><svg xmlns="http://www.w3.org/2000/svg" width="34" height="8" xmlns:v="https://vecta.io/nano"><path d="M0 0v8h34V0H0z" fill="#4d4d4d"/><path d="M1 1v6h1V1H1zm31 0v6h1V1h-1zM10 1v6h3V1h-3zm11 0v6h3V1h-3z" fill="#c5c5c5"/><path d="M3 1v6h6V1H3zm11 0v6h6V1h-6zm11 0v6h6V1h-6z" fill="#fff"/><path d="M22 2v4h1V2h-1zM11 6h1V2h-1v4z" fill="#e3e3e3"/><path d="M4 2v4h4V2H4zm11 0v4h4V2h-4zm11 0v4h4V2h-4z" fill="#faf"/><path d="M5 3v2h2V3H5zm11 0v2h2V3h-2zm11 0v2h2V3h-2z"/></svg></svg></g><g class="gotchi-wearable wearable-head"><svg x="14" y="1"><path d="M35 14v-1h-1v-1h-1v-1h-1v-1h-1V8h2V4h2V2h-6v2h-2v2h-2V5h-2V4h-1V3h-1V2h-1V1h-1V0h-2v1h-1v1h-1v1h-1v1h-1v1h-2v1H8v1H7v1H6v1H5v1H4v1H3v1H2v1H1v1H0v5h16v1h1v1h2v-1h1v-1h16v-5h-1z" fill="#321227"/><g fill="#376560"><path d="M23 16v1h-1v1h13v-3H24v1h-1zm-10 0h-1v-1H1v3h13v-1h-1v-1z"/><path d="M29 2v2h-2v2h-4V5h-1V4h-1V3h-1V2h-1V1h-2v1h-1v1h-1v1h-1v1h-1v1h-2v1H8v1H7v1H6v1H5v1H4v1H3v1H2v1h10v1h1v1h1v1h1v1h1v1h1v1h2v-1h1v-1h1v-1h1v-1h1v-1h1v-1h10v-1h-1v-1h-1v-1h-1V8h2V4h2V2h-6z"/></g><path d="M12 16h-1v-1H2v3h11v-1h-1v-1zm11-2h1v-1h8v-1h-1v-1h-1v-1h-1V9h-1V8h-3V7h-2V6h-1V5h-1V4h-1V3h-1V2h-2v1h-1v1h-1v1h-1v1h-1v1h-2v1H8v1H7v1H6v1H5v1H4v1h8v1h1v1h1v1h1v1h1v1h1v1h2v-1h1v-1h1v-1h1v-1h1v-1zm2 1v1h-1v1h-1v1h11v-3h-9z" fill="#6ca958"/><path d="M29 2v2h-2v2h-2v4h6V8h2V4h2V2h-6z" fill="#960000"/><path d="M21 8V7h-1V6h-1V5h-2v1h-1v1h-1v1h-1v4h1v1h1v1h1v1h2v-1h1v-1h1v-1h1V8h-1z" fill="#376560"/><path d="M20 8V7h-1V6h-2v1h-1v1h-1v4h1v1h1v1h2v-1h1v-1h1V8h-1z" fill="#99c38b"/><path d="M18 10v4h1v-1h1v-1h1v-2h-3z" fill="#80b46d"/><path d="M15 10v2h1v1h1v1h1v-4h-3z" fill="#68a552"/><path d="M17 6v1h-1v1h-1v2h3V6h-1z" fill="#b2d2a7"/><path d="M29 4v2h-2v2h4V4h-2z" fill="red"/></svg></g>"><svg x="12" y="32"><g><g class="gotchi-sleeves gotchi-sleeves-left gotchi-sleeves-up"><path d="M38 9V8h1V7h1V0h-2v1h-1.5v8H38z"/><linearGradient id="A" gradientUnits="userSpaceOnUse" x1="40.056" y1="1.806" x2="35.944" y2="7.194"><stop offset="0" stop-color="#ff0"/><stop offset=".8" stop-color="#f0f"/></linearGradient><path d="M38 7h1V1h-1v1h-1v6h1V7z" fill="url(#A)"/></g><g class="gotchi-sleeves gotchi-sleeves-left gotchi-sleeves-down"><path d="M38 1v1h1v1h1v7h-2V9h-1.5V1H38z"/><linearGradient id="A" gradientUnits="userSpaceOnUse" x1="40.056" y1="8.194" x2="35.944" y2="2.806"><stop offset="0" stop-color="#ff0"/><stop offset=".8" stop-color="#f0f"/></linearGradient><path d="M38 3h1v6h-1V8h-1V2h1v1z" fill="url(#A)"/></g><g class="gotchi-sleeves gotchi-sleeves-right gotchi-sleeves-up"><path d="M2 9V8H1V7H0V0h2v1h1.5v8H2z"/><linearGradient id="A" gradientUnits="userSpaceOnUse" x1="-.056" y1="1.806" x2="4.056" y2="7.194"><stop offset="0" stop-color="#ff0"/><stop offset=".8" stop-color="#f0f"/></linearGradient><path d="M2 7H1V1h1v1h1v6H2V7z" fill="url(#A)"/></g><g class="gotchi-sleeves gotchi-sleeves-right gotchi-sleeves-down"><path d="M2 1v1H1v1H0v7h2V9h1.5V1H2z"/><linearGradient id="A" gradientUnits="userSpaceOnUse" x1="-.056" y1="8.194" x2="4.056" y2="2.806"><stop offset="0" stop-color="#ff0"/><stop offset=".8" stop-color="#f0f"/></linearGradient><path d="M2 3H1v6h1V8h1V2H2v1z" fill="url(#A)"/></g></g></svg><g class="gotchi-wearable wearable-hand wearable-hand-left"><svg x="1" y="24"><path d="M12 1V0H1v1H0v7h1v1h5v14h1V9h5V8h1V1z" fill="#501e87"/><path d="M11 1H1v7h11V1z" fill="#824ee2"/><path d="M9 2H7v1h2v1H7v3h3V6H8V5h2V2zM4 6V2H3v5h3V6H5z" fill="#fff"/></svg></g><g class="gotchi-wearable wearable-hand wearable-hand-right"><svg x="0" y="25"><g transform="scale(-1, 1) translate(-64, 0)"><g fill="#321227"><path d="M9 2h1v1H9z"/><path d="M8 3h1v1H8z"/><path d="M8 4H7v2h1V4z"/><path d="M7 6H6v2h1V6zm2 21h1v1H9z"/><path d="M8 26h1v1H8z"/><path d="M8 24H7v2h1v-2z"/><path d="M7 22H6v2h1v-2z"/><path d="M12 12h1v-1h-1V0h-1v1h-1v1h1v9H6V8H5v3H3v-1H1v1H0v1h1v1h2v-1h2v6H3v-1H1v1H0v1h1v1h2v-1h2v3h1v-3h5v9h-1v1h1v1h1V19h1v-1h-1v-6zm-1 6H6v-6h5v6z"/><path d="M3 13h1v1H3zm0-4h1v1H3zm0 11h1v1H3zm0-4h1v1H3z"/></g><path d="M11 17h1v-4h-1v4zm0-14v7h1V3h-1zm0 24h1v-7h-1v7zm0-15v-1H2v1h9zm0 6H2v1h9v-1z" fill="#b49698"/></g></svg></g></svg>