<svg xmlns="http://www.w3.org/2000/svg" viewBox="0 0 64 64"><g class="gotchi-bg"><defs fill="#fff"><pattern id="a" patternUnits="userSpaceOnUse" width="4" height="4"><path d="M0 0h1v1H0zm2 2h1v1H2z"/></pattern><pattern id="b" patternUnits="userSpaceOnUse" x="0" y="0" width="2" height="2"><path d="M0 0h1v1H0z"/></pattern><pattern id="c" patternUnits="userSpaceOnUse" x="-2" y="0" width="8" height="1"><path d="M0 0h1v1H0zm2 0h1v1H2zm2 0h1v1H4z"/></pattern><pattern id="d" patternUnits="userSpaceOnUse" x="0" y="0" width="4" height="4"><path d="M0 0h1v1H0zm0 2h1v1H0zm1 0V1h1v1zm1 0h1v1H2zm0-1h1V0H2zm1 2h1v1H3z"/></pattern><pattern id="e" patternUnits="userSpaceOnUse" width="64" height="32"><path d="M4 4h1v1H4zm7 0h1v1h-1zm7 0h1v1h-1zm7 0h1v1h-1zm7 0h1v1h-1zm7 0h1v1h-1zm7 0h1v1h-1zm7 0h1v1h-1zm7 0h1v1h-1z"/><path fill="url(#a)" d="M0 8h64v7H0z"/><path fill="url(#b)" d="M0 16h64v1H0z"/><path fill="url(#c)" d="M0 18h64v1H0z"/><path fill="url(#b)" d="M22 18h15v1H22zM0 20h64v3H0z"/><path fill="url(#d)" d="M0 24h64v8H0z"/></pattern><mask id="f"><path fill="url(#e)" d="M0 0h64v32H0z"/></mask></defs><path fill="#fff" d="M0 0h64v32H0z"/><path fill="#dea8ff" class="gotchi-secondary" mask="url(#f)" d="M0 0h64v32H0z"/><path fill="#dea8ff" class="gotchi-secondary" d="M0 32h64v32H0z"/><path mask="url(#f)" fill="#fff" transform="matrix(1 0 0 -1 0 64)" d="M0 0h64v32H0z"/></g><style>.gotchi-primary{fill:#824EE2;}.gotchi-secondary{fill:#E6DCF9;}.gotchi-cheek{fill:#F696C6;}.gotchi-eyeColor{fill:#0064FF;}.gotchi-primary-mouth{fill:#824EE2;}.gotchi-sleeves-up{display:none;}.gotchi-handsUp{display:none;}.gotchi-handsDownOpen{display:block;}.gotchi-handsDownClosed{display:none;}</style><g class="gotchi-body"><path d="M47 14v-2h-2v-2h-4V8h-4V6H27v2h-4v2h-4v2h-2v2h-2v41h4v-2h5v2h5v-2h6v2h5v-2h5v2h4V14z" class="gotchi-primary"/><path d="M45 14v-2h-4v-2h-4V8H27v2h-4v2h-4v2h-2v39h2v-2h5v2h5v-2h6v2h5v-2h5v2h2V14z" class="gotchi-secondary"/><path d="M18,49h2v-1h2v1h2v2h5v-2h2v-1h2v1h2v2h5v-2h2v-1h2v1h1V14h-4v-2h-4v-2h-5V9h-5v2h-4v2h-4v2h-1V49z" fill="#fff"/></g><path class="gotchi-cheek" d="M21 32v2h2v-2h-1zm21 0h-1v2h2v-2z"/><g class="gotchi-primary-mouth"><path d="M29 32h-2v2h2v-1z"/><path d="M33 34h-4v2h6v-2h-1z"/><path d="M36 32h-1v2h2v-2z"/></g>
    <style>
        .gotchi-bg { display: none }
    </style>
<g class="gotchi-shadow"><path opacity=".25" d="M25 58H19v1h1v1h24V59h1V58h-1z" fill="#000"/></g><g class="gotchi-collateral"><path d="M37.25 17.04v-.75h-.75v-.75h-.75v-.75H33.5v.75h-.75v.75h-1.5v.75h-.75v.75h-2.25v-.75h-.75v-2.25h.75v-.75h2.25v.75h.75v.75H32v-1.5h-.75v-.75h-.75v-.75h-2.25v.75h-.75v.75h-.75v.75H26v2.25h.75v.75h.75v.75h.75v.75h2.25v-.75h.75v-.75h1.5v-.75h.75v-.75h2.25v.75h.75v2.25h-.75v.75H33.5v-.75h-.75v-.75H32v1.5h.75v.75h.75v.75h2.25v-.75h.75v-.75h.75v-.75H38v-2.25h-.75z" fill="#824ee2"/></g><g class="gotchi-eyeColor"><g><path d="M23 25h-1v1h1v-1z" /><path d="M23 24h-1v1h1v-1zm4 2h-1v1h1v-1zm-3 0h-1v1h1v-1z" /><path d="M25 26h-1v1h1v-1zm2-1h-1v1h1v-1zm-3-1h-1v1h1v-1zm3-1h-1v1h1v-1z" /><path d="M28 24h-1v1h1v-1zm-3-1h-1v1h1v-1z" /><path d="M27 24h-1v1h1v-1z" /></g><path d="M27 28h-1v1h1v-1zm0-7h-1v1h1v-1zm-3 0h-1v1h1v-1z" class="gotchi-primary" /><path d="M26 26h-1v1h1v-1zm2-1h-1v1h1v-1zm-4 0h-1v1h1v-1zm0-2h-1v1h1v-1zm2 0h-1v1h1v-1z" /><path d="M24 28h-1v1h1v-1z" class="gotchi-primary" /><g><path d="M42 25h-1v1h1v-1z" /><path d="M42 24h-1v1h1v-1zm-5 1h-1v1h1v-1z" /><path d="M39 26h-1v1h1v-1zm2-1h-1v1h1v-1z" /><path d="M38 26h-1v1h1v-1zm-1-2h-1v1h1v-1z" /><path d="M38 24h-1v1h1v-1zm3-1h-1v1h1v-1z" /></g><path d="M38 28h-1v1h1v-1zm3 0h-1v1h1v-1z" class="gotchi-primary" /><path d="M38 23h1v1h-1" /><path d="M38 21h-1v1h1v-1zm3 0h-1v1h1v-1z" class="gotchi-primary" /><g><path d="M38 25h-1v1h1v-1zm3 1h-1v1h1v-1z" /><path d="M40 26h-1v1h1v-1zm-2-3h-1v1h1v-1zm3 1h-1v1h1v-1z" /><path d="M40 23h-1v1h1v-1z" /></g></g><g class="gotchi-wearable wearable-body"><svg x="12" y="31"><path d="M35 0v1h-3v2h-3v2h-3v1h-1v1H15V6h-1V5h-3V3H8V1H5V0H4L2.5 2v16H3v6h4v-1h5v1h5v-1h6v1h5v-1h5v1h4v-6h.5V2L36 0h-1z" fill="#4b2d00"/><g fill="#c8c4b7"><path d="M35 20h-1v1h2v-1h-1zM4 20v1h2v-1H4zm32-10h1v1h-1zm-3 0v1h2v-1h-2zm-3 2v1h2v-1h-2zm-3 2v1h2v-1h-2zm-2 8h1v1h-1zm0-2h1v1h-1zm0-2h1v1h-1zm0-2h1v1h-1zm-11 6h1v1h-1zm0-2h1v1h-1zm0-2h1v1h-1zm0-2h1v1h-1zm-3-2v1h2v-1h-2zm-3-2v1h2v-1H8zm-3-2v1h2v-1H5zm-2 0h1v1H3zm33-4h-2v2h-3v2h-3v2h-3v2h-2v2h1v-1h2v-2h3v-2h3V9h5V6h-1zm0 2h-1V7h1v1zM23 21h1v1h-1zm0-2h1v1h-1zm0-2h1v1h-1zm-7 4h1v1h-1zm0-2h1v1h-1zm0-2h1v1h-1zm-1-3v-2h-3v-2H9V8H6V6H3v3h5v2h3v2h3v2h2v1h1v-2h-2zM4 8V7h1v1H4zm31-6h-2v3h3V2h-1zm0 2h-1V3h1v1zm-7 2h-1v3h3V6h-2zm1 2h-1V7h1v1zm-7 2h-1v3h3v-3h-2zm1 2h-1v-1h1v1zm-3 9h-2v1h4v-1h-2zm0-4h-2v1h4v-1h-2zm-1-4v-3h-3v3h3zm-2-1v-1h1v1h-1z"/><path d="M11 6h-1v3h3V6h-2zm1 2h-1V7h1v1zM5 2H4v3h3V2H5zm1 2H5V3h1v1zm30-4v2h1.5V1H37V0h-1zm-2 22v1h2v-1h-2zM31 4h-1v3h3V4h-2zm1 2h-1V5h1v1zm-7 2h-1v3h3V8h-2zm1 2h-1V9h1v1zm-4-3h1v1h-1zm-1 7v1h-2v-2h-1v3h4v-3h-1v1z"/><path d="M21 8h1v1h-1zm-1 11h-2v1h4v-1h-2z"/><path d="M21 13v-1h-2v1h2zm-2-4v1h2V9h-2z"/><path d="M18 8h1v1h-1z"/><path d="M17 7h1v1h-1zm-3 1h-1v3h3V8h-2zm1 2h-1V9h1v1zM4 22v1h2v-1H4zM8 4H7v3h3V4H8zm1 2H8V5h1v1zM4 1V0H3v1h-.5v1H4z"/></g></svg></g><g class="gotchi-handsDownClosed"><g class="gotchi-primary"><path d="M19 42h1v1h-1zm1-6h1v1h-1z"/><path d="M21 37h1v1h-1zm5 3v4h1v-4zm-5 3h-1v1h2v-1z"/><path d="M24 44h-2v1h4v-1h-1zm1-5h-1v1h2v-1z"/><path d="M23 38h-1v1h2v-1z"/></g><g class="gotchi-secondary"><path d="M19 43h1v1h-1zm5 2h-2v1h4v-1h-1z"/><path d="M27 41v3h1v-3zm-6 3h-1v1h2v-1z"/><path d="M26 44h1v1h-1zm-7-3h-1v2h1v-1z"/></g><g class="gotchi-primary"><path d="M44 42h1v1h-1zm-1-6h1v1h-1z"/><path d="M42 37h1v1h-1z"/><path d="M42 39v-1h-2v1h1zm0 4v1h2v-1h-1z"/><path d="M40 44h-2v1h4v-1h-1z"/><path d="M38 42v-2h-1v4h1v-1z"/><path d="M40 40v-1h-2v1h1z"/></g><g class="gotchi-secondary"><path d="M42 44v1h2v-1h-1zm-5-2v-1h-1v3h1v-1z"/><path d="M40 45h-2v1h4v-1h-1z"/><path d="M37 44h1v1h-1zm7-1h1v1h-1z"/></g></g><g class="gotchi-handsDownOpen"><g class="gotchi-primary"><path d="M56 38v-1h-2v-1h-2v-1h-1v-1h-1v-1h-1v8h1v1h2v1h4v-1h1v-4z"/></g><g class="gotchi-secondary"><path d="M54 38v-1h-2v-1h-1v-1h-1v-1h-1v6h1v1h2v1h4v-4z" /></g><path d="M54,38v-1h-2v-1h-1v-1h-1v-1h-1v5h1v1h2v1h4v-3H54z" fill="#fff"/><g class="gotchi-primary"><path d="M8 38v-1h2v-1h2v-1h1v-1h1v-1h1v8h-1v1h-2v1H8v-1H7v-4z"/></g><g class="gotchi-secondary"><path d="M10 38v-1h2v-1h1v-1h1v-1h1v6h-1v1h-2v1H8v-4z" /></g><path d="M8,38v3h4v-1h2v-1h1v-5h-1v1h-1v1h-1v1h-2v1H8z" fill="#fff"/></g><g class="gotchi-handsUp"><g class="gotchi-secondary"><path d="M50,38h1v1h-1V38z"/><path d="M49 39h1v1h-1v-1zm2-2h1v1h-1v-1z"/><path d="M52,36h2v1h-2V36z"/><path d="M54,35h2v1h-2V35z"/></g><path d="M52,32v1h-2v1h-1v5h1v-1h1v-1h1v-1h2v-1h2v-3H52z" fill="#fff"/><g class="gotchi-primary"><path d="M49,33h1v1h-1V33z"/><path d="M50 32h2v1h-2v-1zm0 7h1v1h-1v-1z"/><path d="M49 40h1v1h-1v-1zm2-2h1v1h-1v-1z"/><path d="M52 37h2v1h-2v-1zm0-6h4v1h-4v-1z"/><path d="M56,32h1v4h-1V32z"/><path d="M54,36h2v1h-2V36z"/></g><g class="gotchi-secondary"><path d="M13,38h1v1h-1V38z"/><path d="M14 39h1v1h-1v-1zm-2-2h1v1h-1v-1z"/><path d="M10,36h2v1h-2V36z"/><path d="M8,35h2v1H8V35z"/></g><path d="M8,32v3h2v1h2v1h1v1h1v1h1v-5h-1v-1h-2v-1H8z" fill="#fff"/><g class="gotchi-primary"><path d="M14,33h1v1h-1V33z"/><path d="M12 32h2v1h-2v-1zm1 7h1v1h-1v-1z"/><path d="M14 40h1v1h-1v-1zm-2-2h1v1h-1v-1z"/><path d="M10 37h2v1h-2v-1zm-2-6h4v1H8v-1z"/><path d="M7,32h1v4H7V32z"/><path d="M8,36h2v1H8V36z"/></g></g><g class="gotchi-wearable wearable-face"><svg x="11" y="2"><path d="M38 6h-2v2h2V6zM4 6v2h2V6H4z"/><path d="M6 4v2h2V4H6z"/><path d="M8 2v2h4V2H8zm28 2h-2v2h2V4z"/><path d="M34 2h-4v2h4V2z"/><path d="M30 0H12v2h18V0zM2 8v9H0v10h2v2h2V8H2zm38 9V8h-2v21h2v-2h2V17h-2z"/><path d="M40 19v-4h-2v14h2v-4h2v-6h-2z" fill="#323232"/><path d="M38 17v10h2V17h-2z" fill="#828282"/><path d="M38 19v6h2v-6h-2z" fill="#afafaf"/><path d="M2 19v-4h2v14H2v-4H0v-6h2z" fill="#323232"/><path d="M4 17v10H2V17h2z" fill="#828282"/><path d="M4 19v6H2v-6h2z" fill="#afafaf"/></svg></g><g class="gotchi-wearable wearable-eyes"><svg x="15" y="19"><path d="M33 4v1h-1v1h-3V5h-1V3h-1V2h-1V1h-1V0h-2v1h-1v1h-1v1h-1v2h-1v1h-4V5h-1V3h-1V2h-1V1h-1V0H9v1H8v1H7v1H6v2H5v1H2V5H1V4H0v2h1v1h1v1h3v1h1v1h1v1h1v1h1v1h2v-1h1v-1h1v-1h1V9h1V8h4v1h1v1h1v1h1v1h1v1h2v-1h1v-1h1v-1h1V9h1V8h3V7h1V6h1V4z"/><g fill="#323232"><path d="M5,7v2h1v1h1v1h1v1h1v1h1V7H5z"/><path d="M14 3h-1V2h-1V1h-1V0h-1v7h5V5h-1V3zm5 4v2h1v1h1v1h1v1h1v1h1V7h-5z"/><path d="M28,5V3h-1V2h-1V1h-1V0h-1v7h5V5H28z"/></g><path d="M10 7v6h1v-1h1v-1h1v-1h1V9h1V8h4V7h-9zm23-2h1v1h-1V5zm-9 2v6h1v-1h1v-1h1v-1h1V9h1V8h3V7h-8z"/><path d="M32 6h1v1h-1V6zM0 5h1v1H0V5zm2 2h3v1H2V7z"/><path d="M1,6h1v1H1V6z"/><g fill="#646464"><path d="M9 1H8v1H7v1H6v2H5v1H2v1h8V0H9v1zm14 0h-1v1h-1v1h-1v2h-1v1h-4v1h9V0h-1v1zm9 4h1v1h-1V5z"/><path d="M33 4h1v1h-1V4zm-4 2h3v1h-3V6zM1 5h1v1H1V5z"/><path d="M0,4h1v1H0V4z"/></g></svg></g><g class="gotchi-wearable wearable-head"><svg x="14" y="1"><path d="M35 14v-1h-1v-1h-1v-1h-1v-1h-1V8h2V4h2V2h-6v2h-2v2h-2V5h-2V4h-1V3h-1V2h-1V1h-1V0h-2v1h-1v1h-1v1h-1v1h-1v1h-2v1H8v1H7v1H6v1H5v1H4v1H3v1H2v1H1v1H0v5h16v1h1v1h2v-1h1v-1h16v-5h-1z" fill="#321227"/><g fill="#376560"><path d="M23 16v1h-1v1h13v-3H24v1h-1zm-10 0h-1v-1H1v3h13v-1h-1v-1z"/><path d="M29 2v2h-2v2h-4V5h-1V4h-1V3h-1V2h-1V1h-2v1h-1v1h-1v1h-1v1h-1v1h-2v1H8v1H7v1H6v1H5v1H4v1H3v1H2v1h10v1h1v1h1v1h1v1h1v1h1v1h2v-1h1v-1h1v-1h1v-1h1v-1h1v-1h10v-1h-1v-1h-1v-1h-1V8h2V4h2V2h-6z"/></g><path d="M12 16h-1v-1H2v3h11v-1h-1v-1zm11-2h1v-1h8v-1h-1v-1h-1v-1h-1V9h-1V8h-3V7h-2V6h-1V5h-1V4h-1V3h-1V2h-2v1h-1v1h-1v1h-1v1h-1v1h-2v1H8v1H7v1H6v1H5v1H4v1h8v1h1v1h1v1h1v1h1v1h1v1h2v-1h1v-1h1v-1h1v-1h1v-1zm2 1v1h-1v1h-1v1h11v-3h-9z" fill="#6ca958"/><path d="M29 2v2h-2v2h-2v4h6V8h2V4h2V2h-6z" fill="#960000"/><path d="M21 8V7h-1V6h-1V5h-2v1h-1v1h-1v1h-1v4h1v1h1v1h1v1h2v-1h1v-1h1v-1h1V8h-1z" fill="#376560"/><path d="M20 8V7h-1V6h-2v1h-1v1h-1v4h1v1h1v1h2v-1h1v-1h1V8h-1z" fill="#99c38b"/><path d="M18 10v4h1v-1h1v-1h1v-2h-3z" fill="#80b46d"/><path d="M15 10v2h1v1h1v1h1v-4h-3z" fill="#68a552"/><path d="M17 6v1h-1v1h-1v2h3V6h-1z" fill="#b2d2a7"/><path d="M29 4v2h-2v2h4V4h-2z" fill="red"/></svg></g>"><svg x="12" y="31"><g><g class="gotchi-sleeves gotchi-sleeves-left gotchi-sleeves-up"><path d="M37 2h-.5v4h.5v3h-.5v1h.5v1h-.5v7H38v-3h1v-4h1V1h-3v1z" fill="#4b2d00"/><g fill="#c8c4b7"><path d="M38 1h-1v1h-.5V0H38v1zm-1 1v4h1V5h2V1h-1v1h-2zm1 1h1v1h-1V3z"/><path d="M37 9h-.5V6h.5zm0 2h-.5v-1h.5z"/></g></g><g class="gotchi-sleeves gotchi-sleeves-left gotchi-sleeves-down"><path d="M36.5 2v4h.5v3h-.5v1h.5v1h-.5v8H38v-3h1v-2h1V4h-1V2h-2.5z" fill="#4b2d00"/><g fill="#c8c4b7"><path d="M38 2h-1.5V1H38v1zm-1 1v3h3V4h-1v1h-1V4h1V3h-2z"/><path d="M37 9h-.5V6h.5zm0 2h-.5v-1h.5z"/></g></g><g class="gotchi-sleeves gotchi-sleeves-right gotchi-sleeves-up"><path d="M3 1H0v10h1v4h1v3h1.5v-7H3v-1h.5V9H3V6h.5V2H3V1z" fill="#4b2d00"/><g fill="#c8c4b7"><path d="M2 0h1.5v2H3V1H2V0zM1 2V1H0v4h2v1h1V2H1zm1 2H1V3h1v1z"/><path d="M3 6h.5v3H3zm0 4h.5v1H3z"/></g></g><g class="gotchi-sleeves gotchi-sleeves-right gotchi-sleeves-down"><path d="M1 2v2H0v10h1v2h1v3h1.5v-8H3v-1h.5V9H3V6h.5V2H1z" fill="#4b2d00"/><g fill="#c8c4b7"><path d="M2 1h1.5v1H2V1zM1 3v1h1v1H1V4H0v2h3V3H1z"/><path d="M3 6h.5v3H3zm0 4h.5v1H3z"/></g></g></g></svg><g class="gotchi-wearable wearable-hand wearable-hand-left"><svg x="4" y="27"><svg xmlns="http://www.w3.org/2000/svg" width="8" height="28" xmlns:v="https://vecta.io/nano"><path d="M8 22V0H0v4h2v18h2v1h2v-1h2zm-1 2h1v1H7z"/><path d="M6 25h1v1H6z"/><path d="M7 26h1v1H7zm-1-3h1v1H6zm-4 1h1v1H2z"/><path d="M3 25h1v1H3zm3 2h1v1H6zm-3 0h1v1H3z"/><path d="M2 26h1v1H2zm1-3h1v1H3z"/><path d="M2 2v2h2v18h2V2H2z" fill="#d2ffff"/><path d="M4 10h2v2H4zm0-4h2v2H4zm0 8h2v2H4zm0 4h2v2H4z" fill="#00afaf"/></svg></svg></g><g class="gotchi-wearable wearable-hand wearable-hand-right"><svg x="4" y="31"><g transform="scale(-1, 1) translate(-56, 0)"><path d="M0,0v11h1v1h1v1h1v1h3v-1h1v-1h1v-1h1V0H0z"/><path d="M1,2v7h7V2H1z" fill="#323232"/><path d="M3 7h3v1H3V7zm0-4h3v1H3V3zm0 2h3v1H3V5z" fill="#0f0"/></g></svg></g><g class="gotchi-wearable wearable-pet"><svg x="42" y="43"><path d="M19 2V1h-1V0h-5v1h-1v1H8V1H7V0H2v1H1v1H0v2h1v1h1v1H1v3h1v1h1v1H2v1H1v2h1v1H1v2h4v1h3v-1h1v-1h2v1h1v1h3v-1h4v-2h-1v-1h1v-2h-1v-1h-1v-1h1V9h1V6h-1V5h1V4h1V2z"/><path d="M18 3h-1v1h-3V3h-2v1h1v1h5V4h1V3zM6 3v1H3V3H1v1h1v1h5V4h1V3H7z" fill="#fff"/><g fill="#9b00dc"><path d="M17 1h-4v1h5V1zm-7 4h2V4h-1V3H9v1H8v1h1zM4 2h3V1H2v1h1zm5 11v2h2v-2h-1z"/><path d="M16 12v-2H4v2H2v2h2v1H2v1h3v-3h1v3H5v1h3v-4h1v-1h2v1h1v4h3v-1h-1v-3h1v3h3v-1h-2v-1h2v-2h-1z"/></g><path d="M17 6H2v3h16V6h-1zm0 2H3V7h14v1z" fill="#faaff3"/></svg></g></svg>