<svg xmlns="http://www.w3.org/2000/svg" viewBox="0 0 64 64"><g class="gotchi-bg"><defs fill="#fff"><pattern id="a" patternUnits="userSpaceOnUse" width="4" height="4"><path d="M0 0h1v1H0zm2 2h1v1H2z"/></pattern><pattern id="b" patternUnits="userSpaceOnUse" x="0" y="0" width="2" height="2"><path d="M0 0h1v1H0z"/></pattern><pattern id="c" patternUnits="userSpaceOnUse" x="-2" y="0" width="8" height="1"><path d="M0 0h1v1H0zm2 0h1v1H2zm2 0h1v1H4z"/></pattern><pattern id="d" patternUnits="userSpaceOnUse" x="0" y="0" width="4" height="4"><path d="M0 0h1v1H0zm0 2h1v1H0zm1 0V1h1v1zm1 0h1v1H2zm0-1h1V0H2zm1 2h1v1H3z"/></pattern><pattern id="e" patternUnits="userSpaceOnUse" width="64" height="32"><path d="M4 4h1v1H4zm7 0h1v1h-1zm7 0h1v1h-1zm7 0h1v1h-1zm7 0h1v1h-1zm7 0h1v1h-1zm7 0h1v1h-1zm7 0h1v1h-1zm7 0h1v1h-1z"/><path fill="url(#a)" d="M0 8h64v7H0z"/><path fill="url(#b)" d="M0 16h64v1H0z"/><path fill="url(#c)" d="M0 18h64v1H0z"/><path fill="url(#b)" d="M22 18h15v1H22zM0 20h64v3H0z"/><path fill="url(#d)" d="M0 24h64v8H0z"/></pattern><mask id="f"><path fill="url(#e)" d="M0 0h64v32H0z"/></mask></defs><path fill="#fff" d="M0 0h64v32H0z"/><path fill="#dea8ff" class="gotchi-secondary" mask="url(#f)" d="M0 0h64v32H0z"/><path fill="#dea8ff" class="gotchi-secondary" d="M0 32h64v32H0z"/><path mask="url(#f)" fill="#fff" transform="matrix(1 0 0 -1 0 64)" d="M0 0h64v32H0z"/></g><style>.gotchi-primary{fill:#2664BA;}.gotchi-secondary{fill:#D4E0F1;}.gotchi-cheek{fill:#F696C6;}.gotchi-eyeColor{fill:#51FFA8;}.gotchi-primary-mouth{fill:#2664BA;}.gotchi-sleeves-up{display:none;}.gotchi-handsUp{display:none;}.gotchi-handsDownOpen{display:block;}.gotchi-handsDownClosed{display:none;}</style><g class="gotchi-body"><path d="M47 14v-2h-2v-2h-4V8h-4V6H27v2h-4v2h-4v2h-2v2h-2v41h4v-2h5v2h5v-2h6v2h5v-2h5v2h4V14z" class="gotchi-primary"/><path d="M45 14v-2h-4v-2h-4V8H27v2h-4v2h-4v2h-2v39h2v-2h5v2h5v-2h6v2h5v-2h5v2h2V14z" class="gotchi-secondary"/><path d="M18,49h2v-1h2v1h2v2h5v-2h2v-1h2v1h2v2h5v-2h2v-1h2v1h1V14h-4v-2h-4v-2h-5V9h-5v2h-4v2h-4v2h-1V49z" fill="#fff"/></g><path class="gotchi-cheek" d="M21 32v2h2v-2h-1zm21 0h-1v2h2v-2z"/><g class="gotchi-primary-mouth"><path d="M29 32h-2v2h2v-1z"/><path d="M33 34h-4v2h6v-2h-1z"/><path d="M36 32h-1v2h2v-2z"/></g>
    <style>
        .gotchi-bg { display: none }
    </style>
<g class="gotchi-shadow"><path opacity=".25" d="M25 58H19v1h1v1h24V59h1V58h-1z" fill="#000"/></g><g class="gotchi-collateral" fill="#2664ba"><path d="M30 15v2h3v1h-3v1h1.5v1h1v-1H34v-3h-3v-1h3v-1h-1.5v-1h-1v1H30zm4 5h1v1h-1z"/><path d="M35 19h1v1h-1z"/><path d="M36 16v3h1v-5h-1v1zm-2-4h1v1h-1z"/><path d="M35 13h1v1h-1zm-7 5v-4h-1v5h1zm1 2h1v1h-1z"/><path d="M28 19h1v1h-1zm1-7h1v1h-1z"/><path d="M28 13h1v1h-1z"/></g><g class="gotchi-eyeColor"><path d="M23 22h-1v1h1v-1zm0 5h-1v1h1v-1zm5-5h-1v1h1v-1zm0 5h-1v1h1v-1zm14 0h-1v1h1v-1zm0-5h-1v1h1v-1zm-5 0h-1v1h1v-1zm0 5h-1v1h1v-1z" class="gotchi-primary" /><g><path d="M25 26h-1v1h1v-1zm2-1h-1v1h1v-1zm-3-1h-1v1h1v-1z" /><path d="M25 23h-1v1h1v-1z" /><path d="M25 24h-1v1h1v-1zm2 0h-1v1h1v-1zm-1 2h-1v1h1v-1z" /><path d="M25 25h-1v1h1v-1z" /><path d="M26 25h-1v1h1v-1zm-2 0h-1v1h1v-1zm2-2h-1v1h1v-1z" /><path d="M26 24h-1v1h1v-1zm13 2h-1v1h1v-1zm2-1h-1v1h1v-1zm-3-1h-1v1h1v-1z" /><path d="M39 24h-1v1h1v-1z" /><path d="M38 23h1v1h-1m0 1h-1v1h1v-1zm2 1h-1v1h1v-1z" /><path d="M40 25h-1v1h1v-1z" /><path d="M39 25h-1v1h1v-1zm2-1h-1v1h1v-1z" /><path d="M40 23h-1v1h1v-1z" /><path d="M40 24h-1v1h1v-1z" /></g></g><g class="gotchi-wearable wearable-body"><svg x="15" y="41"><path d="M0 0v14h4v-2h5v2h5v-2h6v2h5v-2h5v2h4V0z" fill="#003ca0"/><path d="M16 2V1h-6v1h6zm8 0V1h-5v1h5zM9 2V1H1v1h8zm24 0V1h-8v1h8z" fill="#de9a53"/><path d="M17,1h1v1h-1V1z" fill="#a97955"/><g fill="#4bafff"><path d="M4,3v3H3v1H1v5h3v-2h5v2h5v-2h2V3H4z"/><path d="M3 3H1v3h2V3zm15 0h-1v4h1V3zm13 0v3h2V3h-2z"/><path d="M30,3H19v4h-1v1h-1v2h3v2h5v-2h5v2h3V7h-2V6h-1V3z"/></g></svg></g><g class="gotchi-handsDownClosed"><g class="gotchi-primary"><path d="M19 42h1v1h-1zm1-6h1v1h-1z"/><path d="M21 37h1v1h-1zm5 3v4h1v-4zm-5 3h-1v1h2v-1z"/><path d="M24 44h-2v1h4v-1h-1zm1-5h-1v1h2v-1z"/><path d="M23 38h-1v1h2v-1z"/></g><g class="gotchi-secondary"><path d="M19 43h1v1h-1zm5 2h-2v1h4v-1h-1z"/><path d="M27 41v3h1v-3zm-6 3h-1v1h2v-1z"/><path d="M26 44h1v1h-1zm-7-3h-1v2h1v-1z"/></g><g class="gotchi-primary"><path d="M44 42h1v1h-1zm-1-6h1v1h-1z"/><path d="M42 37h1v1h-1z"/><path d="M42 39v-1h-2v1h1zm0 4v1h2v-1h-1z"/><path d="M40 44h-2v1h4v-1h-1z"/><path d="M38 42v-2h-1v4h1v-1z"/><path d="M40 40v-1h-2v1h1z"/></g><g class="gotchi-secondary"><path d="M42 44v1h2v-1h-1zm-5-2v-1h-1v3h1v-1z"/><path d="M40 45h-2v1h4v-1h-1z"/><path d="M37 44h1v1h-1zm7-1h1v1h-1z"/></g></g><g class="gotchi-handsDownOpen"><g class="gotchi-primary"><path d="M56 38v-1h-2v-1h-2v-1h-1v-1h-1v-1h-1v8h1v1h2v1h4v-1h1v-4z"/></g><g class="gotchi-secondary"><path d="M54 38v-1h-2v-1h-1v-1h-1v-1h-1v6h1v1h2v1h4v-4z" /></g><path d="M54,38v-1h-2v-1h-1v-1h-1v-1h-1v5h1v1h2v1h4v-3H54z" fill="#fff"/><g class="gotchi-primary"><path d="M8 38v-1h2v-1h2v-1h1v-1h1v-1h1v8h-1v1h-2v1H8v-1H7v-4z"/></g><g class="gotchi-secondary"><path d="M10 38v-1h2v-1h1v-1h1v-1h1v6h-1v1h-2v1H8v-4z" /></g><path d="M8,38v3h4v-1h2v-1h1v-5h-1v1h-1v1h-1v1h-2v1H8z" fill="#fff"/></g><g class="gotchi-handsUp"><g class="gotchi-secondary"><path d="M50,38h1v1h-1V38z"/><path d="M49 39h1v1h-1v-1zm2-2h1v1h-1v-1z"/><path d="M52,36h2v1h-2V36z"/><path d="M54,35h2v1h-2V35z"/></g><path d="M52,32v1h-2v1h-1v5h1v-1h1v-1h1v-1h2v-1h2v-3H52z" fill="#fff"/><g class="gotchi-primary"><path d="M49,33h1v1h-1V33z"/><path d="M50 32h2v1h-2v-1zm0 7h1v1h-1v-1z"/><path d="M49 40h1v1h-1v-1zm2-2h1v1h-1v-1z"/><path d="M52 37h2v1h-2v-1zm0-6h4v1h-4v-1z"/><path d="M56,32h1v4h-1V32z"/><path d="M54,36h2v1h-2V36z"/></g><g class="gotchi-secondary"><path d="M13,38h1v1h-1V38z"/><path d="M14 39h1v1h-1v-1zm-2-2h1v1h-1v-1z"/><path d="M10,36h2v1h-2V36z"/><path d="M8,35h2v1H8V35z"/></g><path d="M8,32v3h2v1h2v1h1v1h1v1h1v-5h-1v-1h-2v-1H8z" fill="#fff"/><g class="gotchi-primary"><path d="M14,33h1v1h-1V33z"/><path d="M12 32h2v1h-2v-1zm1 7h1v1h-1v-1z"/><path d="M14 40h1v1h-1v-1zm-2-2h1v1h-1v-1z"/><path d="M10 37h2v1h-2v-1zm-2-6h4v1H8v-1z"/><path d="M7,32h1v4H7V32z"/><path d="M8,36h2v1H8V36z"/></g></g><g class="gotchi-wearable wearable-eyes"><svg x="15" y="22"><path d="M0,0v2h3v2h1v2h1v1h1v1h7V7h1V6h1V4h1V2h2v2h1v2h1v1h1v1h7V7h1V6h1V4h1V2h3V0H0z"/><path d="M29 1v2h-1V2h-1V1zM14 1v2h-1V2h-1V1z" fill="#fff"/></svg></g><g class="gotchi-wearable wearable-head"><svg x="11" y="3"><path d="M2 17h2v12H2zm36 0h2v12h-2zM5 17h2v8H5zm30 0h2v8h-2z" fill="#502d16"/><path d="M2 19h2v2H2v-2zm0 4h2v2H2v-2zm0 4h2v2H2v-2zm3-6h2v2H5v-2zm33-2h2v2h-2v-2zm0 4h2v2h-2v-2zm0 4h2v2h-2v-2zm-3-6h2v2h-2v-2z" fill="#a05a2c"/><path d="M40 6V4h-2V2h-4V0H8v2H4v2H2v2H0v11h2v2h38v-2h2V6z" fill="maroon"/><path d="M38 6V4h-4V2H8v2H4v2H2v11h38V6z" fill="red"/><path d="M0 6v11h2v2h38v-2h2V6z" fill="#ff0"/><path d="M0 12v5h2v2h38v-2h2v-5z" fill="#0a0"/><path d="M40 6h2v6h-2V6zM0 6h2v6H0V6z" fill="#d4aa00"/><g fill="green"><path d="M2,17h38v2H2V17z"/><path d="M40 12h2v5h-2v-5zM0 12h2v5H0v-5z"/></g></svg></g><g class="gotchi-wearable wearable-hand wearable-hand-left"><svg x="1" y="29"><g fill="#d3cadf"><path d="M2,0h1v1H2V0z"/><path d="M3,1h1v1H3V1z"/><path d="M4,2h1v1H4V2z"/><path d="M3,3h1v1H3V3z"/><path d="M2 4h1v2H2V4zm4-4h1v1H6V0z"/><path d="M7,1h1v1H7V1z"/><path d="M8,2h1v1H8V2z"/><path d="M7,3h1v1H7V3z"/><path d="M6,4h1v2H6V4z"/></g><g fill="#64438e"><path d="M0,5v9h1v1h8v-1h1v-2h2v-1h-2V8h2V7h-2V5H0z"/><path d="M12,8v3h1V8H12z"/></g><path d="M1 14h8V6H1v8z" fill="#fff"/><path d="M8,6v8h1V6H8z" fill="#d3cadf"/><path d="M7.1 8.3v-.9H5.4v.9h-.8v-.9H2.9v.9H2v1.8h.9v.9h.8v.9h.9v.9h.9v-.9h.8V11h.9v-.9H8V8.3h-.9z" fill="#fa34f3"/><path d="M4.6 11.9h.9v.9h-.9v-.9z" fill="#7e18f8"/><path d="M3.7 11v.9h2.6V11H3.7h0z" fill="#8f17f9"/><path d="M2.9 10.1v.9h4.3v-.9H2.9z" fill="#ac15f9"/><path d="M2 9.2v.9h6v-.9H2z" fill="#cf15f9"/><path d="M7.1 8.3v-.9H5.4v.9h-.8v-.9H2.9v.9H2v.9h6v-.9h-.9z" fill="#fa34f3"/></svg></g><g class="gotchi-wearable wearable-hand wearable-hand-right"><svg x="1" y="29"><g transform="scale(-1, 1) translate(-62, 0)"><g fill="#d3cadf"><path d="M2,0h1v1H2V0z"/><path d="M3,1h1v1H3V1z"/><path d="M4,2h1v1H4V2z"/><path d="M3,3h1v1H3V3z"/><path d="M2 4h1v2H2V4zm4-4h1v1H6V0z"/><path d="M7,1h1v1H7V1z"/><path d="M8,2h1v1H8V2z"/><path d="M7,3h1v1H7V3z"/><path d="M6,4h1v2H6V4z"/></g><g fill="#64438e"><path d="M0,5v9h1v1h8v-1h1v-2h2v-1h-2V8h2V7h-2V5H0z"/><path d="M12,8v3h1V8H12z"/></g><path d="M1 14h8V6H1v8z" fill="#fff"/><path d="M8,6v8h1V6H8z" fill="#d3cadf"/><path d="M7.1 8.3v-.9H5.4v.9h-.8v-.9H2.9v.9H2v1.8h.9v.9h.8v.9h.9v.9h.9v-.9h.8V11h.9v-.9H8V8.3h-.9z" fill="#fa34f3"/><path d="M4.6 11.9h.9v.9h-.9v-.9z" fill="#7e18f8"/><path d="M3.7 11v.9h2.6V11H3.7h0z" fill="#8f17f9"/><path d="M2.9 10.1v.9h4.3v-.9H2.9z" fill="#ac15f9"/><path d="M2 9.2v.9h6v-.9H2z" fill="#cf15f9"/><path d="M7.1 8.3v-.9H5.4v.9h-.8v-.9H2.9v.9H2v.9h6v-.9h-.9z" fill="#fa34f3"/></g></svg></g></svg>