<svg xmlns="http://www.w3.org/2000/svg" viewBox="0 0 64 64"><g class="gotchi-bg"><defs fill="#fff"><pattern id="a" patternUnits="userSpaceOnUse" width="4" height="4"><path d="M0 0h1v1H0zm2 2h1v1H2z"/></pattern><pattern id="b" patternUnits="userSpaceOnUse" x="0" y="0" width="2" height="2"><path d="M0 0h1v1H0z"/></pattern><pattern id="c" patternUnits="userSpaceOnUse" x="-2" y="0" width="8" height="1"><path d="M0 0h1v1H0zm2 0h1v1H2zm2 0h1v1H4z"/></pattern><pattern id="d" patternUnits="userSpaceOnUse" x="0" y="0" width="4" height="4"><path d="M0 0h1v1H0zm0 2h1v1H0zm1 0V1h1v1zm1 0h1v1H2zm0-1h1V0H2zm1 2h1v1H3z"/></pattern><pattern id="e" patternUnits="userSpaceOnUse" width="64" height="32"><path d="M4 4h1v1H4zm7 0h1v1h-1zm7 0h1v1h-1zm7 0h1v1h-1zm7 0h1v1h-1zm7 0h1v1h-1zm7 0h1v1h-1zm7 0h1v1h-1zm7 0h1v1h-1z"/><path fill="url(#a)" d="M0 8h64v7H0z"/><path fill="url(#b)" d="M0 16h64v1H0z"/><path fill="url(#c)" d="M0 18h64v1H0z"/><path fill="url(#b)" d="M22 18h15v1H22zM0 20h64v3H0z"/><path fill="url(#d)" d="M0 24h64v8H0z"/></pattern><mask id="f"><path fill="url(#e)" d="M0 0h64v32H0z"/></mask></defs><path fill="#fff" d="M0 0h64v32H0z"/><path fill="#dea8ff" class="gotchi-secondary" mask="url(#f)" d="M0 0h64v32H0z"/><path fill="#dea8ff" class="gotchi-secondary" d="M0 32h64v32H0z"/><path mask="url(#f)" fill="#fff" transform="matrix(1 0 0 -1 0 64)" d="M0 0h64v32H0z"/></g><style>.gotchi-primary{fill:#824EE2;}.gotchi-secondary{fill:#E6DCF9;}.gotchi-cheek{fill:#F696C6;}.gotchi-eyeColor{fill:#EA8C27;}.gotchi-primary-mouth{fill:#824EE2;}.gotchi-sleeves-up{display:none;}.gotchi-handsUp{display:none;}.gotchi-handsDownOpen{display:block;}.gotchi-handsDownClosed{display:none;}</style><g class="gotchi-body"><path d="M47 14v-2h-2v-2h-4V8h-4V6H27v2h-4v2h-4v2h-2v2h-2v41h4v-2h5v2h5v-2h6v2h5v-2h5v2h4V14z" class="gotchi-primary"/><path d="M45 14v-2h-4v-2h-4V8H27v2h-4v2h-4v2h-2v39h2v-2h5v2h5v-2h6v2h5v-2h5v2h2V14z" class="gotchi-secondary"/><path d="M18,49h2v-1h2v1h2v2h5v-2h2v-1h2v1h2v2h5v-2h2v-1h2v1h1V14h-4v-2h-4v-2h-5V9h-5v2h-4v2h-4v2h-1V49z" fill="#fff"/></g><path class="gotchi-cheek" d="M21 32v2h2v-2h-1zm21 0h-1v2h2v-2z"/><g class="gotchi-primary-mouth"><path d="M29 32h-2v2h2v-1z"/><path d="M33 34h-4v2h6v-2h-1z"/><path d="M36 32h-1v2h2v-2z"/></g>
    <style>
        .gotchi-bg { display: none }
    </style>
<g class="gotchi-shadow"><path opacity=".25" d="M25 58H19v1h1v1h24V59h1V58h-1z" fill="#000"/></g><g class="gotchi-collateral"><path d="M37.25 17.04v-.75h-.75v-.75h-.75v-.75H33.5v.75h-.75v.75h-1.5v.75h-.75v.75h-2.25v-.75h-.75v-2.25h.75v-.75h2.25v.75h.75v.75H32v-1.5h-.75v-.75h-.75v-.75h-2.25v.75h-.75v.75h-.75v.75H26v2.25h.75v.75h.75v.75h.75v.75h2.25v-.75h.75v-.75h1.5v-.75h.75v-.75h2.25v.75h.75v2.25h-.75v.75H33.5v-.75h-.75v-.75H32v1.5h.75v.75h.75v.75h2.25v-.75h.75v-.75h.75v-.75H38v-2.25h-.75z" fill="#824ee2"/></g><g class="gotchi-eyeColor"><path d="M27 23H26H25H24H23H22H21V24V25V26H22H23H24H25H26H27H28H29V25V24V23H28H27ZM23 25H22V24H23H24V25H23ZM28 25H27H26V24H27H28V25Z" class="gotchi-primary" /><rect x="24" y="24" width="2" height="1" /><path d="M42 23H41H40H39H38H37H36H35V24V25V26H36H37H38H39H40H41H42H43V25V24V23H42ZM37 25H36V24H37H38V25H37ZM42 25H41H40V24H41H42V25Z" class="gotchi-primary" /><rect x="38" y="24" width="2" height="1" /></g><g class="gotchi-wearable wearable-body"><svg x="12" y="32"><path d="M3,1v20h34V1h-3v1h-1v1h-1v1h-1v1h-1v1h-1v1h-2v1h-3v1h-8V8h-3V7h-2V6h-1V5H9V4H8V3H7V2H6V1H3z" fill="#bc20d2"/><path d="M34,2v1h-1v1h-1v1h-1v1h-1v1h-1v1h-2v1h-3v1h-8V9h-3V8h-2V7h-1V6H9V5H8V4H7V3H6V2H4v18h32V2H34z" fill="#4c0067"/><path d="M9.6 17.2H7.9V12H7v6.1h3.5V12h-.9v5.2zm1.8-5.2v6.1h.9v-1.7h2.6V12h-3.5zm2.6 3.4h-1.8v-2.6H14v2.6zm7.3-3.4v6.1h.9v-5.2h1.7v5.2h.9V12h-3.5zM17 12v6.1h3.5V12H17zm2.6 5.2h-1.7v-4.3h1.7v4.3zM32.1 12v3.5h-1.7V12h-.9v4.3h1.3V18h.9v-1.7H33V12h-.9zm-5.6 5.2V12h-.9v6.1h3.5v-.9h-2.6z" fill="#fff"/></svg></g><g class="gotchi-handsDownClosed"><g class="gotchi-primary"><path d="M19 42h1v1h-1zm1-6h1v1h-1z"/><path d="M21 37h1v1h-1zm5 3v4h1v-4zm-5 3h-1v1h2v-1z"/><path d="M24 44h-2v1h4v-1h-1zm1-5h-1v1h2v-1z"/><path d="M23 38h-1v1h2v-1z"/></g><g class="gotchi-secondary"><path d="M19 43h1v1h-1zm5 2h-2v1h4v-1h-1z"/><path d="M27 41v3h1v-3zm-6 3h-1v1h2v-1z"/><path d="M26 44h1v1h-1zm-7-3h-1v2h1v-1z"/></g><g class="gotchi-primary"><path d="M44 42h1v1h-1zm-1-6h1v1h-1z"/><path d="M42 37h1v1h-1z"/><path d="M42 39v-1h-2v1h1zm0 4v1h2v-1h-1z"/><path d="M40 44h-2v1h4v-1h-1z"/><path d="M38 42v-2h-1v4h1v-1z"/><path d="M40 40v-1h-2v1h1z"/></g><g class="gotchi-secondary"><path d="M42 44v1h2v-1h-1zm-5-2v-1h-1v3h1v-1z"/><path d="M40 45h-2v1h4v-1h-1z"/><path d="M37 44h1v1h-1zm7-1h1v1h-1z"/></g></g><g class="gotchi-handsDownOpen"><g class="gotchi-primary"><path d="M56 38v-1h-2v-1h-2v-1h-1v-1h-1v-1h-1v8h1v1h2v1h4v-1h1v-4z"/></g><g class="gotchi-secondary"><path d="M54 38v-1h-2v-1h-1v-1h-1v-1h-1v6h1v1h2v1h4v-4z" /></g><path d="M54,38v-1h-2v-1h-1v-1h-1v-1h-1v5h1v1h2v1h4v-3H54z" fill="#fff"/><g class="gotchi-primary"><path d="M8 38v-1h2v-1h2v-1h1v-1h1v-1h1v8h-1v1h-2v1H8v-1H7v-4z"/></g><g class="gotchi-secondary"><path d="M10 38v-1h2v-1h1v-1h1v-1h1v6h-1v1h-2v1H8v-4z" /></g><path d="M8,38v3h4v-1h2v-1h1v-5h-1v1h-1v1h-1v1h-2v1H8z" fill="#fff"/></g><g class="gotchi-handsUp"><g class="gotchi-secondary"><path d="M50,38h1v1h-1V38z"/><path d="M49 39h1v1h-1v-1zm2-2h1v1h-1v-1z"/><path d="M52,36h2v1h-2V36z"/><path d="M54,35h2v1h-2V35z"/></g><path d="M52,32v1h-2v1h-1v5h1v-1h1v-1h1v-1h2v-1h2v-3H52z" fill="#fff"/><g class="gotchi-primary"><path d="M49,33h1v1h-1V33z"/><path d="M50 32h2v1h-2v-1zm0 7h1v1h-1v-1z"/><path d="M49 40h1v1h-1v-1zm2-2h1v1h-1v-1z"/><path d="M52 37h2v1h-2v-1zm0-6h4v1h-4v-1z"/><path d="M56,32h1v4h-1V32z"/><path d="M54,36h2v1h-2V36z"/></g><g class="gotchi-secondary"><path d="M13,38h1v1h-1V38z"/><path d="M14 39h1v1h-1v-1zm-2-2h1v1h-1v-1z"/><path d="M10,36h2v1h-2V36z"/><path d="M8,35h2v1H8V35z"/></g><path d="M8,32v3h2v1h2v1h1v1h1v1h1v-5h-1v-1h-2v-1H8z" fill="#fff"/><g class="gotchi-primary"><path d="M14,33h1v1h-1V33z"/><path d="M12 32h2v1h-2v-1zm1 7h1v1h-1v-1z"/><path d="M14 40h1v1h-1v-1zm-2-2h1v1h-1v-1z"/><path d="M10 37h2v1h-2v-1zm-2-6h4v1H8v-1z"/><path d="M7,32h1v4H7V32z"/><path d="M8,36h2v1H8V36z"/></g></g><g class="gotchi-wearable wearable-eyes"><svg x="15" y="20"><path d="M33 4h-1V2h-1V1h-1V0H20v1h-1v1h-1v2h-2V2h-1V1h-1V0H4v1H3v1H2v2H0v4h2v2h1v1h1v1h10v-1h1v-1h1V8h2v2h1v1h1v1h10v-1h1v-1h1V8h2V4h-1z" fill="#4c0067"/><g fill="#fff"><path d="M7 4h1v1H7zm3 0h1v1h-1z"/><path d="M9 5h1v1H9z"/><path d="M8 6h1v1H8z"/><path d="M7 7h1v1H7zm3 0h1v1h-1zm13-3h1v1h-1zm3 0h1v1h-1z"/><path d="M25 5h1v1h-1z"/><path d="M24 6h1v1h-1z"/><path d="M23 7h1v1h-1zm3 0h1v1h-1z"/></g><path d="M33 5h-1V4h-1V2h-1V1H20v1h-1v2h-1v1h-2V4h-1V2h-1V1H4v1H3v2H2v1H0v2h2v1h1v2h1v1h10v-1h1V8h1V7h2v1h1v2h1v1h10v-1h1V8h1V7h2V5h-1zM14 9h-1v1H5V9H4V3h1V2h8v1h1v6zm16 0h-1v1h-8V9h-1V3h1V2h8v1h1v6z" fill="#bc20d2"/></svg></g><g class="gotchi-wearable wearable-head"><svg x="15" y="2"><path d="M31 0v1h-2v1h-2v1h-2v1H9V3H7V2H5V1H3V0H0v40h2v-1h1v-1h1v-1h2v1h1v1h2v1h16v-1h2v-1h1v-1h2v1h1v1h1v1h2V0z" fill="#6c3617"/><g fill="#e06b1a"><path d="M32 15v-1h-2v-1h-2v-1h-2v-1h-2V9h1V8h1V7h1V6h1V5h1V4h1V3h1V2h-2v1h-2v1h-2v1H9V4H7V3H5V2H3v1h1v1h1v1h1v1h1v1h1v1h1v1h1v2H8v1H6v1H4v1H2v1H1v24h1v-1h1v-1h1v-1h1v-1h1v-1h1v-1h1v-1h1v-1h1v-1h1v-1h1v-1h1v-1h8v1h1v1h1v1h1v1h1v1h1v1h1v1h1v1h1v1h1v1h1v1h1v1h1V15h-1z"/><path d="M31 1h1v1h-1zM2 1h1v1H2z"/></g><path d="M31,26v-1H19V10h1V9h1V8h1V7h1V6h1V5H10v1h1v1h1v1h1v1h1v1h1v15H3v1H2v1h30v-1H31z" fill="#f57a1a"/><path d="M19 17v7h1v-1h1v-1h1v-1h1v-1h3v1h1v1h2v-1h1v-1h1v-1h1v-1h1v-1H19zm2 10v1h1v1h1v1h1v1h1v1h1v1h2v-1h1v-1h1v-1h1v-1h1v-1h1v-1H21zM1 17v1h1v1h1v1h1v1h1v1h2v-1h1v-1h3v1h1v1h1v1h1v1h1v-7H1zm0 10v1h1v1h1v1h1v1h1v1h1v1h2v-1h1v-1h1v-1h1v-1h1v-1h1v-1H1z" fill="#c65616"/><path d="M28 35v-1h-1v-1h-1v-1h-1v-1h-1v-1h-1v-1h-1v-1h-1v1h-1v1h-1v1h-1v1h-2v-1h-1v-1h-1v-1h-1v-1h-1v1h-1v1h-1v1H9v1H8v1H7v1H6v1H5v1h1v1h1v1h2v1h16v-1h2v-1h1v-1h1v-1h-1z" fill="#b8a394"/><path d="M28 35v-1h-1v-1h-1v-1h-1v-1h-1v-1h-1v-1h-1v-1h-1v1h-1v1h-1v1h-1v1h-2v-1h-1v-1h-1v-1h-1v-1h-1v1h-1v1h-1v1H9v1H8v1H7v1H6v1H5v1h24v-1z" fill="#d1b9aa"/><path d="M20 32h2v2h-2zm-8 0h2v2h-2z"/><path d="M14 34h6v2h-6zm15-10v-1h-1v-1h-1v-1h-1v-1h-3v1h-1v1h-1v1h-1v1h-1v1h11v-1h-1zm-14 1v-1h-1v-1h-1v-1h-1v-1h-1v-1H8v1H7v1H6v1H5v1H4v1h11zm-2 2v2h1v1h1v1h1v1h2v-1h1v-1h1v-1h1v-2h-8z"/></svg></g>"><svg x="12" y="32"><g><g class="gotchi-sleeves gotchi-sleeves-left gotchi-sleeves-up"><path d="M36.5 9H38V8h1V7h1V0h-2v1h-1.5v8z" fill="#bc20d2"/><path d="M39 7V1h-1v1h-1v6h1V7h1z" fill="#4c0067"/></g><g class="gotchi-sleeves gotchi-sleeves-left gotchi-sleeves-down"><path d="M36.5 9H38v1h2V3h-1V2h-1V1h-1.5v8z" fill="#bc20d2"/><path d="M38 3V2h-1v6h1v1h1V3h-1z" fill="#4c0067"/></g><g class="gotchi-sleeves gotchi-sleeves-right gotchi-sleeves-up"><path d="M3.5 1H2V0H0v7h1v1h1v1h1.5V1z" fill="#bc20d2"/><path d="M2 7v1h1V2H2V1H1v6h1z" fill="#4c0067"/></g><g class="gotchi-sleeves gotchi-sleeves-right gotchi-sleeves-down"><path d="M3.5 1H2v1H1v1H0v7h2V9h1.5V1z" fill="#bc20d2"/><path d="M1 3v6h1V8h1V2H2v1H1z" fill="#4c0067"/></g></g></svg><g class="gotchi-wearable wearable-hand wearable-hand-left"><svg x="4" y="34"><path d="M0,10h6V0H0V10z"/><path d="M1,1v8h4V1H1z" fill="#b4ecff"/><path d="M1,2v7h4V2H1z" fill="#fff"/></svg></g><g class="gotchi-wearable wearable-hand wearable-hand-right"><svg x="1" y="25"><g transform="scale(-1, 1) translate(-62, 0)"><path d="M8,12v-1H6v1H5v2h1v1h2v-1h1v-2H8z" fill="#f0f"/><path d="M5,10V9H3v1H2v2h1v1h2v-1h1v-2H5z" fill="#0ff"/><path d="M11,10V9H9v1H8v2h1v1h2v-1h1v-2H11z" fill="#ff0"/><path d="M5,14v-1H3v1H2v2h1v1h2v-1h1v-2H5z" fill="#ff8200"/><path d="M8,16v-1H6v1H5v2h1v1h2v-1h1v-2H8z" fill="#5800c0"/><path d="M8,8V7H6v1H5v2h1v1h2v-1h1V8H8z" fill="#0f0"/><path d="M11,14v-1H9v1H8v2h1v1h2v-1h1v-2H11z" fill="#00f"/><path d="M13,6V5H1v1H0v12h1v1h12v-1h1V6H13z" opacity=".4" fill="#cff" enable-background="new"/><g opacity=".7" fill="#cff"><path d="M2,18v1h10v-1H2z"/><path d="M12 6v12h1V6h-1zM2 6H1v12h1V6z"/></g><path d="M4 5h8V2h-1V1H8V0H6v1H3v1H2v3h2zm9 1v12h1V6h-1z"/><path d="M1 16V6H0v12h1v-2zm11 2h1v1h-1v-1z"/><path d="M1,18h1v1H1V18z"/><path d="M2 19v1h10v-1H2zM12 5h1v1h-1V5zM1 5h1v1H1V5z"/><path d="M10,2H3v2h8V2H10z" fill="red"/></g></svg></g></svg>