<svg xmlns="http://www.w3.org/2000/svg" viewBox="0 0 64 64"><g class="gotchi-bg"><defs fill="#fff"><pattern id="a" patternUnits="userSpaceOnUse" width="4" height="4"><path d="M0 0h1v1H0zm2 2h1v1H2z"/></pattern><pattern id="b" patternUnits="userSpaceOnUse" x="0" y="0" width="2" height="2"><path d="M0 0h1v1H0z"/></pattern><pattern id="c" patternUnits="userSpaceOnUse" x="-2" y="0" width="8" height="1"><path d="M0 0h1v1H0zm2 0h1v1H2zm2 0h1v1H4z"/></pattern><pattern id="d" patternUnits="userSpaceOnUse" x="0" y="0" width="4" height="4"><path d="M0 0h1v1H0zm0 2h1v1H0zm1 0V1h1v1zm1 0h1v1H2zm0-1h1V0H2zm1 2h1v1H3z"/></pattern><pattern id="e" patternUnits="userSpaceOnUse" width="64" height="32"><path d="M4 4h1v1H4zm7 0h1v1h-1zm7 0h1v1h-1zm7 0h1v1h-1zm7 0h1v1h-1zm7 0h1v1h-1zm7 0h1v1h-1zm7 0h1v1h-1zm7 0h1v1h-1z"/><path fill="url(#a)" d="M0 8h64v7H0z"/><path fill="url(#b)" d="M0 16h64v1H0z"/><path fill="url(#c)" d="M0 18h64v1H0z"/><path fill="url(#b)" d="M22 18h15v1H22zM0 20h64v3H0z"/><path fill="url(#d)" d="M0 24h64v8H0z"/></pattern><mask id="f"><path fill="url(#e)" d="M0 0h64v32H0z"/></mask></defs><path fill="#fff" d="M0 0h64v32H0z"/><path fill="#dea8ff" class="gotchi-secondary" mask="url(#f)" d="M0 0h64v32H0z"/><path fill="#dea8ff" class="gotchi-secondary" d="M0 32h64v32H0z"/><path mask="url(#f)" fill="#fff" transform="matrix(1 0 0 -1 0 64)" d="M0 0h64v32H0z"/></g><style>.gotchi-primary{fill:#FF5E00;}.gotchi-secondary{fill:#FFCAA2;}.gotchi-cheek{fill:#F696C6;}.gotchi-eyeColor{fill:#FF5E00;}.gotchi-primary-mouth{fill:#FF5E00;}.gotchi-sleeves-up{display:none;}.gotchi-handsUp{display:none;}.gotchi-handsDownOpen{display:block;}.gotchi-handsDownClosed{display:none;}</style><g class="gotchi-body"><path d="M47 14v-2h-2v-2h-4V8h-4V6H27v2h-4v2h-4v2h-2v2h-2v41h4v-2h5v2h5v-2h6v2h5v-2h5v2h4V14z" class="gotchi-primary"/><path d="M45 14v-2h-4v-2h-4V8H27v2h-4v2h-4v2h-2v39h2v-2h5v2h5v-2h6v2h5v-2h5v2h2V14z" class="gotchi-secondary"/><path d="M18,49h2v-1h2v1h2v2h5v-2h2v-1h2v1h2v2h5v-2h2v-1h2v1h1V14h-4v-2h-4v-2h-5V9h-5v2h-4v2h-4v2h-1V49z" fill="#fff"/></g><path class="gotchi-cheek" d="M21 32v2h2v-2h-1zm21 0h-1v2h2v-2z"/><g class="gotchi-primary-mouth"><path d="M29 32h-2v2h2v-1z"/><path d="M33 34h-4v2h6v-2h-1z"/><path d="M36 32h-1v2h2v-2z"/></g>
    <style>
        .gotchi-bg { display: none }
    </style>
<g class="gotchi-shadow"><path opacity=".25" d="M25 58H19v1h1v1h24V59h1V58h-1z" fill="#000"/></g><g class="gotchi-collateral"><path d="M30 11v1h4v-1h-4z"/><path d="M29 12h1v1h-1zm7.5 2.5v4h1v-4h-1zm-10 4h1v-4h-1v4z"/><path d="M27.5 13.5h1v1h-1zm8 5h1v1h-1zm0-5h1v1h-1zM34 12h1v1h-1zm-5 8h1v1h-1zm-1.5-1.5h1v1h-1zM34 20h1v1h-1z"/><path d="M30 21v1h4v-1h-4z"/><g fill="#ff5e00"><path d="M32.5 16h-1v-1h2v-1h-1v-1h-1v1h-2v1h1v3h-1v1h2v1h1v-1h1v-1h-2v-1h2v-1h-1z"/><path d="M33.5 17h1v1h-1zm0-2h1v1h-1z"/></g></g><g class="gotchi-eyeColor"><path d="M39 23v1h-1v-1h1v-1h-2v1h-1v2h1v1h2v-1h1v-2h-1z" /><g class="gotchi-primary"><path d="M34 25h-1v1h1v-1zm7 0v1h1v-2h-1v1zm-4-2v-1h-2v1h2z" /><path d="M44 21h-7v1h5v2h1v-1h1v-1h1v-1h-1zm-9 5h-1v1h2v-1h-1z" /><path d="M38 27h-2v1h4v-1h-2zm-3-3v-1h-1v2h1v-1z" /><path d="M41 26h-1v1h1v-1z" /></g><path d="M27 22h-2v1h1v1h-1v-1h-1v2h1v1h2v-1h1v-2h-1v-1z" /><g class="gotchi-primary"><path d="M31 25h-1v1h1v-1zm-8-1h-1v2h1v-2z" /><path d="M22 22h5v-1h-8v1h1v1h1v1h1v-2z" /><path d="M28 23h1v-1h-2v1h1zm0 3v1h2v-1h-2z" /><path d="M26 27h-2v1h4v-1h-2zm3-2h1v-2h-1v2z" /><path d="M24 26h-1v1h1v-1z" /></g></g><g class="gotchi-wearable wearable-body"><svg x="9" y="32"><path d="M37 1v1h-1v1h-1v1h-1v1h-1v1h-1v1h-2v1h-3v1h-8V8h-3V7h-2V6h-1V5h-1V4h-1V3h-1V2H9V1H6v2h1v1h1v1h1v6H8v1H7v1H6v8h34v-8h-1v-1h-1v-1h-1V5h1V4h1V3h1V1h-3z"/><g fill="#7e18f8"><path d="M22 10.3v.7h-.7v1.4h-.7v1.4h-.7v.7H22v1.4h-.7v1.4h-.7v1.4h.7V18h.7v-.7h.7v-.7h.7v-.7h.7v-.7h.7v-.7h.7v-.7h-2.1v-.7h.7v-.7h.7v-.7h.7V11h.7v-.7H22z"/><path d="M19.9 18.7v.7h.7v-.7h-.7z"/></g><path d="M22 10.3v.7h-.7v1.4h3.5v-.7h.7V11h.7v-.7H22z" fill="#fa34f3"/><path d="M23.4 13.8v-.7h.7v-.7h-3.5v1.4h-.7v.7h5.6v-.7c.1 0-1.5 0-2.1 0z" fill="#cf15f9"/><path d="M22 14.5v1.4h2.1v-.7h.7v-.7H22z" fill="#ac15f9"/><path d="M21.3 15.9v1.4h1.4v-.7h.7v-.7h-2.1z" fill="#8f17f9"/></svg></g><g class="gotchi-handsDownClosed"><g class="gotchi-primary"><path d="M19 42h1v1h-1zm1-6h1v1h-1z"/><path d="M21 37h1v1h-1zm5 3v4h1v-4zm-5 3h-1v1h2v-1z"/><path d="M24 44h-2v1h4v-1h-1zm1-5h-1v1h2v-1z"/><path d="M23 38h-1v1h2v-1z"/></g><g class="gotchi-secondary"><path d="M19 43h1v1h-1zm5 2h-2v1h4v-1h-1z"/><path d="M27 41v3h1v-3zm-6 3h-1v1h2v-1z"/><path d="M26 44h1v1h-1zm-7-3h-1v2h1v-1z"/></g><g class="gotchi-primary"><path d="M44 42h1v1h-1zm-1-6h1v1h-1z"/><path d="M42 37h1v1h-1z"/><path d="M42 39v-1h-2v1h1zm0 4v1h2v-1h-1z"/><path d="M40 44h-2v1h4v-1h-1z"/><path d="M38 42v-2h-1v4h1v-1z"/><path d="M40 40v-1h-2v1h1z"/></g><g class="gotchi-secondary"><path d="M42 44v1h2v-1h-1zm-5-2v-1h-1v3h1v-1z"/><path d="M40 45h-2v1h4v-1h-1z"/><path d="M37 44h1v1h-1zm7-1h1v1h-1z"/></g></g><g class="gotchi-handsDownOpen"><g class="gotchi-primary"><path d="M56 38v-1h-2v-1h-2v-1h-1v-1h-1v-1h-1v8h1v1h2v1h4v-1h1v-4z"/></g><g class="gotchi-secondary"><path d="M54 38v-1h-2v-1h-1v-1h-1v-1h-1v6h1v1h2v1h4v-4z" /></g><path d="M54,38v-1h-2v-1h-1v-1h-1v-1h-1v5h1v1h2v1h4v-3H54z" fill="#fff"/><g class="gotchi-primary"><path d="M8 38v-1h2v-1h2v-1h1v-1h1v-1h1v8h-1v1h-2v1H8v-1H7v-4z"/></g><g class="gotchi-secondary"><path d="M10 38v-1h2v-1h1v-1h1v-1h1v6h-1v1h-2v1H8v-4z" /></g><path d="M8,38v3h4v-1h2v-1h1v-5h-1v1h-1v1h-1v1h-2v1H8z" fill="#fff"/></g><g class="gotchi-handsUp"><g class="gotchi-secondary"><path d="M50,38h1v1h-1V38z"/><path d="M49 39h1v1h-1v-1zm2-2h1v1h-1v-1z"/><path d="M52,36h2v1h-2V36z"/><path d="M54,35h2v1h-2V35z"/></g><path d="M52,32v1h-2v1h-1v5h1v-1h1v-1h1v-1h2v-1h2v-3H52z" fill="#fff"/><g class="gotchi-primary"><path d="M49,33h1v1h-1V33z"/><path d="M50 32h2v1h-2v-1zm0 7h1v1h-1v-1z"/><path d="M49 40h1v1h-1v-1zm2-2h1v1h-1v-1z"/><path d="M52 37h2v1h-2v-1zm0-6h4v1h-4v-1z"/><path d="M56,32h1v4h-1V32z"/><path d="M54,36h2v1h-2V36z"/></g><g class="gotchi-secondary"><path d="M13,38h1v1h-1V38z"/><path d="M14 39h1v1h-1v-1zm-2-2h1v1h-1v-1z"/><path d="M10,36h2v1h-2V36z"/><path d="M8,35h2v1H8V35z"/></g><path d="M8,32v3h2v1h2v1h1v1h1v1h1v-5h-1v-1h-2v-1H8z" fill="#fff"/><g class="gotchi-primary"><path d="M14,33h1v1h-1V33z"/><path d="M12 32h2v1h-2v-1zm1 7h1v1h-1v-1z"/><path d="M14 40h1v1h-1v-1zm-2-2h1v1h-1v-1z"/><path d="M10 37h2v1h-2v-1zm-2-6h4v1H8v-1z"/><path d="M7,32h1v4H7V32z"/><path d="M8,36h2v1H8V36z"/></g></g><g class="gotchi-wearable wearable-face"><svg x="29" y="37"><path d="M0,0v1h1v1h1v1h2V2h1V1h1V0H0z"/></svg></g><g class="gotchi-wearable wearable-eyes"><svg x="19" y="20"><path d="M25 4V3h-1V2h-1V1h-1V0h-4v1h-1v1h-1v1h-1v1h-1v4h1v1h1v1h1v1h1v1h4v-1h1v-1h1V9h1V8h1V4h-1z" fill="#326400"/><path d="M24 4V3h-1V2h-1V1h-4v1h-1v1h-1v1h-1v4h1v1h1v1h1v1h4v-1h1V9h1V8h1V4h-1z" fill="#8bc53f"/><path d="M23 4V3h-1V2h-4v1h-1v1h-1v4h1v1h1v1h4V9h1V8h1V4h-1z" fill="#f9e988"/><path d="M22 4V3h-4v1h-1v4h1v1h4V8h1V4h-1z" fill="#fff"/><path d="M20 3h-1v6h2V3h-1z" fill="#58595b"/><path d="M11 4V3h-1V2H9V1H8V0H4v1H3v1H2v1H1v1H0v4h1v1h1v1h1v1h1v1h4v-1h1v-1h1V9h1V8h1V4h-1z" fill="#326400"/><path d="M10 4V3H9V2H8V1H4v1H3v1H2v1H1v4h1v1h1v1h1v1h4v-1h1V9h1V8h1V4h-1z" fill="#8bc53f"/><path d="M9 4V3H8V2H4v1H3v1H2v4h1v1h1v1h4V9h1V8h1V4H9z" fill="#f9e988"/><path d="M8 4V3H4v1H3v4h1v1h4V8h1V4H8z" fill="#fff"/><path d="M6 3H5v6h2V3H6z" fill="#58595b"/></svg></g><g class="gotchi-wearable wearable-head"><svg x="14" y="5"><path d="M30,12v-1h-1v-1h-2V9H9v1H7v1H6v1H5v1H4v13h1v1h1v1h1v1h2v1h18v-1h2v-1h1v-1h1v-1h1V13h-1v-1H30z" opacity=".75" fill="#005bff" enable-background="new"/><path d="M35 9V7h-1V6h-1V5h-1V4h-1V3h-1V2h-2V1h-2V0H10v1H8v1H6v1H5v1H4v1H3v1H2v1H1v2H0v18h1v2h1v1h1v1h1v1h1v1h2v1h2v1h18v-1h2v-1h2v-1h1v-1h1v-1h1v-1h1v-2h1V9h-1zm-4 16v1h-1v1h-1v1h-2v1H9v-1H7v-1H6v-1H5V13h1v-1h1v-1h2v-1h18v1h2v1h1v1h1v12z"/><g fill="#fff"><path d="M34 9V7h-1V6h-1V5h-1V4h-1V3h-2V2h-2V1H10v1H8v1H6v1H5v1H4v1H3v1H2v2H1v18h1v2h1v1h1v1h1v1h2v1h2v1h18v-1h2v-1h2v-1h1v-1h1v-1h1v-2h1V9h-1zm-3 17v1h-1v1h-1v1h-2v1H9v-1H7v-1H6v-1H5v-1H4V13h1v-1h1v-1h1v-1h2V9h18v1h2v1h1v1h1v1h1v13h-1zm-3-12v2h1v-2h-1z"/><path d="M26,13v1h2v-1H26z"/></g></svg></g>"><svg x="9" y="32"><g><g class="gotchi-sleeves gotchi-sleeves-left gotchi-sleeves-up"><path d="M41 4h1v1h1v1h2V5h1V3h-1V2h-1V1h-1V0h-2v1h-1v2h1z"/><g fill="#fa34f3"><path d="M44 4h1v1h-1z"/><path d="M43 3h1v1h-1z"/></g><path d="M42 2h1v1h-1z" fill="#ac15f9"/><path d="M41 1h1v1h-1z" fill="#7e18f8"/></g><g class="gotchi-sleeves gotchi-sleeves-left gotchi-sleeves-down"><path d="M45 5V4h-2v1h-1v1h-1v1h-1v2h1v1h2V9h1V8h1V7h1V5z"/><g fill="#fa34f3"><path d="M44 5h1v1h-1z"/><path d="M43 6h1v1h-1z"/></g><path d="M42 7h1v1h-1z" fill="#ac15f9"/><path d="M41 8h1v1h-1z" fill="#7e18f8"/></g><g class="gotchi-sleeves gotchi-sleeves-right gotchi-sleeves-up"><path d="M1 5v1h2V5h1V4h1V3h1V1H5V0H3v1H2v1H1v1H0v2z"/><g fill="#fa34f3"><path d="M1 4h1v1H1z"/><path d="M2 3h1v1H2z"/></g><path d="M3 2h1v1H3z" fill="#ac15f9"/><path d="M4 1h1v1H4z" fill="#7e18f8"/></g><g class="gotchi-sleeves gotchi-sleeves-right gotchi-sleeves-down"><path d="M5 6H4V5H3V4H1v1H0v2h1v1h1v1h1v1h2V9h1V7H5z"/><g fill="#fa34f3"><path d="M1 5h1v1H1z"/><path d="M2 6h1v1H2z"/></g><path d="M3 7h1v1H3z" fill="#ac15f9"/><path d="M4 8h1v1H4z" fill="#7e18f8"/></g></g></svg><g class="gotchi-wearable wearable-hand wearable-hand-left"><svg x="0" y="30"><path d="M13 12v-1h-1v-1h-1V9h-1V8H9V7H8V6H7V5H6V4h1V3h3V2h1V1h-1V0H5v1H4v1H2v2H1v1H0v5h1v1h1v-1h1V7h1V6h1v1h1v1h1v1h1v1h1v1h1v1h1v1h1v1h2v-2z" fill="#281d0a"/><path d="M12 12h1v1h-1v-1zm-2-2h1v1h-1v-1zM8 8h1v1H8V8zM6 6h1v1H6V6z" fill="#876526"/><path d="M4,4h1v1H4V4z" fill="#868686"/><g fill="#483514"><path d="M13,12h1v1h-1V12z"/><path d="M12 11h1v1h-1v-1zm-2-2h1v1h-1V9zM8 7h1v1H8V7zM6 5h1v1H6V5z"/><path d="M11 10h1v1h-1v-1zM9 8h1v1H9V8zM7 6h1v1H7V6zM5 4h1v1H5V4z"/></g><g fill="#281d0a"><path d="M12,13h1v1h-1V13z"/><path d="M11 12h1v1h-1v-1zm-2-2h1v1H9v-1zM7 8h1v1H7V8zM5 6h1v1H5V6z"/><path d="M10 11h1v1h-1v-1zM8 9h1v1H8V9zM6 7h1v1H6V7zM4 5h1v1H4V5z"/></g><path d="M13 13h1v1h-1v-1zm-2-2h1v1h-1v-1zM9 9h1v1H9V9zM7 7h1v1H7V7zM5 5h1v1H5V5z" fill="#644c1e"/><g fill="#c8c8c8"><path d="M5,2v1H4v1h2V3h1V2H5z"/><path d="M3,5H2v2h1V6h1V4H3V5z"/></g><g fill="#3c3c3c"><path d="M3,2h1v1H3V2z"/><path d="M2 3h1v1H2V3zm2-2h1v1H4V1z"/><path d="M1,4h1v1H1V4z"/><path d="M0 10h1V5H0v5z"/><path d="M1,10h1v1H1V10z"/><path d="M3,7H2v3h1V7z"/><path d="M3 6h1v1H3V6zm2-6v1h5V0H5z"/><path d="M10,1h1v1h-1V1z"/><path d="M7,2v1h3V2H7z"/><path d="M6,3h1v1H6V3z"/></g><g fill="#eaeaea"><path d="M3,3h1v1H3V3z"/><path d="M4 2h1v1H4V2zM2 4h1v1H2V4z"/><path d="M1 10h1V5H1v5zm4-9v1h5V1H5z"/></g><path d="M2,2h1v1H2V2z" fill="#868686"/></svg></g><g class="gotchi-wearable wearable-hand wearable-hand-right"><svg x="4" y="31"><g transform="scale(-1, 1) translate(-56, 0)"><g fill="#bebebc"><path d="M5,0h1v1H4V0H5z"/><path d="M1,3h2V1h1v2h4v1H7v8H6v1H2v-1H1V4H0V3H1z"/></g><g fill="#0f0"><path d="M3 4h1v1H3v1H2V4h1zm1 4v2H3v1H2V8h2z"/><path d="M4 6h1V5h1v3H4V6zm1 4h1v2H4v-1h1v-1z"/></g><g fill="#fff"><path d="M4 6v2H3V6h1zm-1 5h1v1H3v-1z"/><path d="M4 5h1v1H4V5zm0 5h1v1H4v-1z"/><path d="M5 4h1v1H5V4zm0 4h1v2H5V8z"/></g><g fill="#0af"><path d="M3 6v2H2V6h1zm-1 5h1v1H2v-1z"/><path d="M3 5h1v1H3V5zm0 5h1v1H3v-1z"/><path d="M4 4h1v1H4V4zm0 4h1v2H4V8z"/></g></g></svg></g><g class="gotchi-wearable wearable-pet"><svg x="42" y="43"><path d="M19 2V1h-1V0h-5v1h-1v1H8V1H7V0H2v1H1v1H0v2h1v1h1v1H1v3h1v1h1v1H2v1H1v2h1v1H1v2h4v1h3v-1h1v-1h2v1h1v1h3v-1h4v-2h-1v-1h1v-2h-1v-1h-1v-1h1V9h1V6h-1V5h1V4h1V2h-1z"/><path d="M18 3h-1v1h-3V3h-2v1h1v1h5V4h1V3h-1zM6 3v1H3V3H1v1h1v1h5V4h1V3H6z" fill="#fff"/><g fill="#59bcff"><path d="M17 1h-4v1h5V1h-1zm-7 4h2V4h-1V3H9v1H8v1h2zM4 2h3V1H2v1h2zm5 11v2h2v-2H9z"/><path d="M16 12v-2H4v2H2v2h2v1H2v1h3v-3h1v3H5v1h3v-4h1v-1h2v1h1v4h3v-1h-1v-3h1v3h3v-1h-2v-1h2v-2h-2z"/></g><path d="M17 6H2v3h16V6h-1zm0 2H3V7h14v1z" fill="#ef1e26"/></svg></g></svg>