<svg xmlns="http://www.w3.org/2000/svg" viewBox="0 0 64 64"><g class="gotchi-bg"><defs fill="#fff"><pattern id="a" patternUnits="userSpaceOnUse" width="4" height="4"><path d="M0 0h1v1H0zm2 2h1v1H2z"/></pattern><pattern id="b" patternUnits="userSpaceOnUse" x="0" y="0" width="2" height="2"><path d="M0 0h1v1H0z"/></pattern><pattern id="c" patternUnits="userSpaceOnUse" x="-2" y="0" width="8" height="1"><path d="M0 0h1v1H0zm2 0h1v1H2zm2 0h1v1H4z"/></pattern><pattern id="d" patternUnits="userSpaceOnUse" x="0" y="0" width="4" height="4"><path d="M0 0h1v1H0zm0 2h1v1H0zm1 0V1h1v1zm1 0h1v1H2zm0-1h1V0H2zm1 2h1v1H3z"/></pattern><pattern id="e" patternUnits="userSpaceOnUse" width="64" height="32"><path d="M4 4h1v1H4zm7 0h1v1h-1zm7 0h1v1h-1zm7 0h1v1h-1zm7 0h1v1h-1zm7 0h1v1h-1zm7 0h1v1h-1zm7 0h1v1h-1zm7 0h1v1h-1z"/><path fill="url(#a)" d="M0 8h64v7H0z"/><path fill="url(#b)" d="M0 16h64v1H0z"/><path fill="url(#c)" d="M0 18h64v1H0z"/><path fill="url(#b)" d="M22 18h15v1H22zM0 20h64v3H0z"/><path fill="url(#d)" d="M0 24h64v8H0z"/></pattern><mask id="f"><path fill="url(#e)" d="M0 0h64v32H0z"/></mask></defs><path fill="#fff" d="M0 0h64v32H0z"/><path fill="#dea8ff" class="gotchi-secondary" mask="url(#f)" d="M0 0h64v32H0z"/><path fill="#dea8ff" class="gotchi-secondary" d="M0 32h64v32H0z"/><path mask="url(#f)" fill="#fff" transform="matrix(1 0 0 -1 0 64)" d="M0 0h64v32H0z"/></g><style>.gotchi-primary{fill:#FF7D00;}.gotchi-secondary{fill:#F9D792;}.gotchi-cheek{fill:#F4AF24;}.gotchi-eyeColor{fill:#36818E;}.gotchi-primary-mouth{fill:#FF7D00;}.gotchi-sleeves-up{display:none;}.gotchi-handsUp{display:none;}.gotchi-handsDownOpen{display:block;}.gotchi-handsDownClosed{display:none;}</style><g class="gotchi-bg"><defs fill="#fff"><pattern id="a" patternUnits="userSpaceOnUse" width="4" height="4"><path d="M0 0h1v1H0zm2 2h1v1H2z"/></pattern><pattern id="b" patternUnits="userSpaceOnUse" x="0" y="0" width="2" height="2"><path d="M0 0h1v1H0z"/></pattern><pattern id="c" patternUnits="userSpaceOnUse" x="-2" y="0" width="8" height="1"><path d="M0 0h1v1H0zm2 0h1v1H2zm2 0h1v1H4z"/></pattern><pattern id="d" patternUnits="userSpaceOnUse" x="0" y="0" width="4" height="4"><path d="M0 0h1v1H0zm0 2h1v1H0zm1 0V1h1v1zm1 0h1v1H2zm0-1h1V0H2zm1 2h1v1H3z"/></pattern><pattern id="e" patternUnits="userSpaceOnUse" width="64" height="32"><path d="M4 4h1v1H4zm7 0h1v1h-1zm7 0h1v1h-1zm7 0h1v1h-1zm7 0h1v1h-1zm7 0h1v1h-1zm7 0h1v1h-1zm7 0h1v1h-1zm7 0h1v1h-1z"/><path fill="url(#a)" d="M0 8h64v7H0z"/><path fill="url(#b)" d="M0 16h64v1H0z"/><path fill="url(#c)" d="M0 18h64v1H0z"/><path fill="url(#b)" d="M22 18h15v1H22zM0 20h64v3H0z"/><path fill="url(#d)" d="M0 24h64v8H0z"/></pattern><mask id="f"><path fill="url(#e)" d="M0 0h64v32H0z"/></mask></defs><path fill="#fff" d="M0 0h64v32H0z"/><path fill="#dea8ff" class="gotchi-secondary" mask="url(#f)" d="M0 0h64v32H0z"/><path fill="#dea8ff" class="gotchi-secondary" d="M0 32h64v32H0z"/><path mask="url(#f)" fill="#fff" transform="matrix(1 0 0 -1 0 64)" d="M0 0h64v32H0z"/></g><g class="gotchi-body"><path d="M47 14v-2h-2v-2h-4V8h-4V6H27v2h-4v2h-4v2h-2v2h-2v41h4v-2h5v2h5v-2h6v2h5v-2h5v2h4V14z" class="gotchi-primary"/><path d="M45 14v-2h-4v-2h-4V8H27v2h-4v2h-4v2h-2v39h2v-2h5v2h5v-2h6v2h5v-2h5v2h2V14z" class="gotchi-secondary"/><path d="M18,49h2v-1h2v1h2v2h5v-2h2v-1h2v1h2v2h5v-2h2v-1h2v1h1V14h-4v-2h-4v-2h-5V9h-5v2h-4v2h-4v2h-1V49z" fill="#fff"/></g><path class="gotchi-cheek" d="M21 32v2h2v-2h-1zm21 0h-1v2h2v-2z"/><g class="gotchi-primary-mouth"><path d="M29 32h-2v2h2v-1z"/><path d="M33 34h-4v2h6v-2h-1z"/><path d="M36 32h-1v2h2v-2z"/></g><g class="gotchi-shadow"><path opacity=".25" d="M25 58H19v1h1v1h24V59h1V58h-1z" fill="#000"/></g>,<g class="gotchi-collateral" fill="#ff7d00"><path d="M37 16v-1h-1v-1h-1v1h-6v-2h5v-1h-6v3h-1v1h1v1h-1v1h1v3h6v-1h-5v-2h6v1h1v-1h1v-1h-1v-1h1zm-2 1h-6v-1h6v1z"/><path d="M34 19h1v1h-1zm0-6h1v1h-1z"/></g>
    <style>
        .gotchi-bg { display: none }
    </style>
<g class="gotchi-eyeColor"><path d="M28 22H27V21H26H25H24H23V22H22V23H21V24V25V26V27H22V28H23V29H24H25H26H27V28H28V27H29V26V25V24V23H28V22Z" /><path d="M42 23V22H41V21H40H39H38H37V22H36V23H35V24V25V26V27H36V28H37V29H38H39H40H41V28H42V27H43V26V25V24V23H42Z" /></g><g class="gotchi-wearable wearable-body"><svg x="12" y="32"><path d="M35 1v1h-2v1h-2v1h-2v1h-4v1h-3v1h-4V6h-3V5h-4V4H9V3H7V2H5V1H3v22h4v-2h5v2h5v-2h6v2h5v-2h5v2h4V1z" fill="#c8c8c8"/><g fill="#fff"><path d="M17 13h-1v-1h-1v-1h-1v-1h-2V9h-1V8H9V7H7V6H6V5H5V3H4v17h15v-5h-1v-1h-1v-1zm-9-2h3v2H8v-2zm-1 8v-5h5v5H7zm16-6v-1h1v-1h1v-1h1V9h2V8h1V7h2V6h2V5h1V3h-1v1h-2v1h-2v1h-4v1h-2v2h-1v1h-1v4h1v-1h1z"/><path d="M18 9h-1V7h-2V6h-4V5H9V4H7V3H6v2h1v1h2v1h2v1h1v1h2v1h1v1h1v1h1v1h1v1h1v-4h-1V9zm17-4h-1v1h-1v1h-2v1h-2v1h-1v1h-2v1h-1v1h-1v1h-1v1h-1v1h-2v1h1v1h-1v1h1v1h-1v1h16V3h-1v2zm-3 5v1h-3v-1h3zm-5 9v-6h1v-1h5v1h1v6h-7z"/></g><path d="M32,12h1v1h-1V12z" fill="#698bd9"/><path d="M32,13h1v1h-1V13z" fill="#e2e5f3"/><path d="M30,13h1v1h-1V13z" fill="#45322f"/><path d="M31,13h1v1h-1V13z" fill="#d9c6b2"/><path d="M28,12h1v1h-1V12z" fill="#76946f"/><path d="M29,12h1v1h-1V12z" fill="#cad4e4"/><path d="M18 7v1h1v6h2V8h1V7h-4zm12 9h1v1h-1v-1z"/><g fill="#ddd9d6"><path d="M30,14h1v2h-1V14z"/><path d="M31,16v1h-1v-1h-1v2h3v-2H31z"/></g><path d="M33,13h1v1h-1V13z" fill="#556592"/><path d="M30,12h1v1h-1V12z" fill="#5666bc"/><path d="M29,13h1v1h-1V13z" fill="#f6d435"/><path d="M28,13h1v1h-1V13z" fill="#e6bf8f"/><path d="M31,12h1v1h-1V12z" fill="#c23e3f"/><path d="M27,13h1v1h-1V13z" fill="#f75457"/><path d="M7 15v1h5v-1H7zm19-8h1v1h-1V7zM13 7h1v1h-1V7zm7 11h1v1h-1v-1zm0-2h1v1h-1v-1z" fill="orange"/></svg></g><g class="gotchi-handsDownClosed"><g class="gotchi-primary"><path d="M19 42h1v1h-1zm1-6h1v1h-1z"/><path d="M21 37h1v1h-1zm5 3v4h1v-4zm-5 3h-1v1h2v-1z"/><path d="M24 44h-2v1h4v-1h-1zm1-5h-1v1h2v-1z"/><path d="M23 38h-1v1h2v-1z"/></g><g class="gotchi-secondary"><path d="M19 43h1v1h-1zm5 2h-2v1h4v-1h-1z"/><path d="M27 41v3h1v-3zm-6 3h-1v1h2v-1z"/><path d="M26 44h1v1h-1zm-7-3h-1v2h1v-1z"/></g><g class="gotchi-primary"><path d="M44 42h1v1h-1zm-1-6h1v1h-1z"/><path d="M42 37h1v1h-1z"/><path d="M42 39v-1h-2v1h1zm0 4v1h2v-1h-1z"/><path d="M40 44h-2v1h4v-1h-1z"/><path d="M38 42v-2h-1v4h1v-1z"/><path d="M40 40v-1h-2v1h1z"/></g><g class="gotchi-secondary"><path d="M42 44v1h2v-1h-1zm-5-2v-1h-1v3h1v-1z"/><path d="M40 45h-2v1h4v-1h-1z"/><path d="M37 44h1v1h-1zm7-1h1v1h-1z"/></g></g><g class="gotchi-handsDownOpen"><g class="gotchi-primary"><path d="M56 38v-1h-2v-1h-2v-1h-1v-1h-1v-1h-1v8h1v1h2v1h4v-1h1v-4z"/></g><g class="gotchi-secondary"><path d="M54 38v-1h-2v-1h-1v-1h-1v-1h-1v6h1v1h2v1h4v-4z" /></g><path d="M54,38v-1h-2v-1h-1v-1h-1v-1h-1v5h1v1h2v1h4v-3H54z" fill="#fff"/><g class="gotchi-primary"><path d="M8 38v-1h2v-1h2v-1h1v-1h1v-1h1v8h-1v1h-2v1H8v-1H7v-4z"/></g><g class="gotchi-secondary"><path d="M10 38v-1h2v-1h1v-1h1v-1h1v6h-1v1h-2v1H8v-4z" /></g><path d="M8,38v3h4v-1h2v-1h1v-5h-1v1h-1v1h-1v1h-2v1H8z" fill="#fff"/></g><g class="gotchi-handsUp"><g class="gotchi-secondary"><path d="M50,38h1v1h-1V38z"/><path d="M49 39h1v1h-1v-1zm2-2h1v1h-1v-1z"/><path d="M52,36h2v1h-2V36z"/><path d="M54,35h2v1h-2V35z"/></g><path d="M52,32v1h-2v1h-1v5h1v-1h1v-1h1v-1h2v-1h2v-3H52z" fill="#fff"/><g class="gotchi-primary"><path d="M49,33h1v1h-1V33z"/><path d="M50 32h2v1h-2v-1zm0 7h1v1h-1v-1z"/><path d="M49 40h1v1h-1v-1zm2-2h1v1h-1v-1z"/><path d="M52 37h2v1h-2v-1zm0-6h4v1h-4v-1z"/><path d="M56,32h1v4h-1V32z"/><path d="M54,36h2v1h-2V36z"/></g><g class="gotchi-secondary"><path d="M13,38h1v1h-1V38z"/><path d="M14 39h1v1h-1v-1zm-2-2h1v1h-1v-1z"/><path d="M10,36h2v1h-2V36z"/><path d="M8,35h2v1H8V35z"/></g><path d="M8,32v3h2v1h2v1h1v1h1v1h1v-5h-1v-1h-2v-1H8z" fill="#fff"/><g class="gotchi-primary"><path d="M14,33h1v1h-1V33z"/><path d="M12 32h2v1h-2v-1zm1 7h1v1h-1v-1z"/><path d="M14 40h1v1h-1v-1zm-2-2h1v1h-1v-1z"/><path d="M10 37h2v1h-2v-1zm-2-6h4v1H8v-1z"/><path d="M7,32h1v4H7V32z"/><path d="M8,36h2v1H8V36z"/></g></g><g class="gotchi-wearable wearable-face"><svg x="15" y="19"><g fill="#7d0064"><path d="M36 6h2v2h-2z"/><path d="M38 4V0h-2v2h-2v2h-4V3h-2V2h-2V1h-4v1h-2v1h-2v1h-2V3h-2V2h-2V1H8v1H6v1H4v1H0v6h4v1h2v1h2v1h4v-1h2v-1h2v-1h2v1h2v1h2v1h4v-1h2v-1h2v-1h4V6h2V4z"/></g><path d="M30 5V4h-2V3h-2V2h-4v1h-2v1h-2v1h-2V4h-2V3h-2V2H8v1H6v1H4v1H0v4h4v1h2v1h2v1h4v-1h2v-1h2V9h2v1h2v1h2v1h4v-1h2v-1h2V9h4V5h-4z" fill="#a73796"/><g fill="#7d0064"><path d="M26,2v1h2V2H26z"/><path d="M28 3v1h2V3h-2zm-6-2v1h4V1h-4z"/><path d="M20 2v1h2V2h-2zm-8 0v1h2V2h-2z"/><path d="M8,1v1h4V1H8z"/><path d="M6,2v1h2V2H6z"/><path d="M4,3v1h2V3H4z"/><path d="M0 4v1h4V4H0zm16 0v1h2V4h-2z"/><path d="M14 3v1h2V3h-2zm4 0v1h2V3h-2zM8 12v1h4v-1H8z"/><path d="M6,11v1h2v-1H6z"/><path d="M4,10v1h2v-1H4z"/><path d="M0 9v1h4V9H0zm12 2v1h2v-1h-2zm8 0v1h2v-1h-2z"/><path d="M22,12v1h4v-1H22z"/><path d="M26,11v1h2v-1H26z"/><path d="M28,10v1h2v-1H28z"/><path d="M30 9v1h4V9h-4zm-16 1v1h2v-1h-2z"/><path d="M16,9v1h2V9H16z"/><path d="M18 10v1h2v-1h-2zm18-2h2V6h-2v2z"/><path d="M36,0v2h-2v2h-4v1h4v1h2V4h2V0H36z"/></g><path d="M26 6V5h-1V4h-2v1h-1v1h-1v2h1v1h1v1h2V9h1V8h1V6z" fill="#fff"/><path d="M23 6h2v2h-2z" fill="#7d0064"/><path d="M12 5h-1V4H9v1H8v1H7v2h1v1h1v1h2V9h1V8h1V6h-1z" fill="#fff"/><path d="M9 6h2v2H9z" fill="#7d0064"/></svg></g><g class="gotchi-wearable wearable-eyes"><svg x="15" y="22"><path d="M12 2h1v2h-1V2zm15 0h1v2h-1V2z" fill="#fff"/><path d="M0,0v2h3v4h1v1h1v1h1v1h7V8h1V7h1V6h1V2h2v4h1v1h1v1h1v1h7V8h1V7h1V6h1V2h3V0H0z"/><path d="M27 2h1v2h-1zM12 2h1v2h-1z" fill="#fff"/></svg></g><g class="gotchi-wearable wearable-head"><svg x="11" y="6"><path d="M41 18v-1h-1v-1h-2v8h2v-1h1v-1h1v-4zM2 17H1v1H0v4h1v1h1v1h2v-8H2z" fill="#e4c596"/><path d="M38 16h2v3h-2v-3zM2 16h2v3H2v-3z" fill="#604838"/><path d="M28 35v-1h2v-1h1v-1h1v-1h1v-1h1v-1h1v-1h1v-1h2V8h-2V6h-2V4h-4V2h-4V0H16v2h-4v2H8v2H6v2H4v19h2v1h1v1h1v1h1v1h1v1h1v1h1v1h2v1h2v1h10v-1h2z" fill="#855d43"/><path d="M32 16v-2h-8v2h-2v8h-2V14H10v2H8v8h2v2h4v1h-1v1h-2v2h1v1h2v1h2v1h2v2h6v-2h2v-1h2v-1h2v-1h1v-2h-2v-1h-1v-1h4v-2h2v-8z" fill="#e4c596"/><path d="M14,29h14v1H14V29z" fill="#d78784"/><path d="M17,30h8v1h-8V30z" fill="#f9b7b2"/><path d="M16 16h-4v2h-2v4h2v2h4v-2h2v-4h-2zm14 2v-2h-4v2h-2v4h2v2h4v-2h2v-4z" fill="#412c18"/><path d="M16 16h2v2h-2v-2zm0 6h2v2h-2v-2zm8-6h2v2h-2v-2zm0 6h2v2h-2v-2z" fill="#fff"/><path d="M12 18h4v4h-4zm14 0h4v4h-4z" fill="#13100e"/><path d="M18 26h6v2h-6z" fill="#604838"/></svg></g>"><svg x="12" y="32"><g><g class="gotchi-sleeves gotchi-sleeves-left gotchi-sleeves-up"><path d="M38 0v1h-1v8h1V8h1V7h1V0z" fill="#c8c8c8"/><path d="M37,7h1v1h-1V7z" fill="orange"/><path d="M37,7h2V1h-1v1h-1V7z" fill="#fff"/></g><g class="gotchi-sleeves gotchi-sleeves-left gotchi-sleeves-down"><path d="M39 3V2h-1V1h1V0h-2v9h1v1h2V3z" fill="#c8c8c8"/><path d="M37,2h1v1h-1V2z" fill="orange"/><path d="M37,8h1v1h1V3h-2V8z" fill="#fff"/></g><g class="gotchi-sleeves gotchi-sleeves-right gotchi-sleeves-up"><path d="M2 0v1h1v8H2V8H1V7H0V0z" fill="#c8c8c8"/><path d="M3,8H2V7h1V8z" fill="orange"/><path d="M3,2H2V1H1v6h2V2z" fill="#fff"/></g><g class="gotchi-sleeves gotchi-sleeves-right gotchi-sleeves-down"><path d="M1 0v1h1v1H1v1H0v7h2V9h1V0z" fill="#c8c8c8"/><path d="M2,2h1v1H2V2z" fill="orange"/><path d="M3,3H1v6h1V8h1V3z" fill="#fff"/></g></g></svg><g class="gotchi-wearable wearable-hand wearable-hand-left"><svg x="0" y="30"><path d="M13 12v-1h-1v-1h-1V9h-1V8H9V7H8V6H7V5H6V4h1V3h3V2h1V1h-1V0H5v1H4v1H2v2H1v1H0v5h1v1h1v-1h1V7h1V6h1v1h1v1h1v1h1v1h1v1h1v1h1v1h1v1h2v-2z" fill="#281d0a"/><path d="M12 12h1v1h-1v-1zm-2-2h1v1h-1v-1zM8 8h1v1H8V8zM6 6h1v1H6V6z" fill="#876526"/><path d="M4,4h1v1H4V4z" fill="#868686"/><g fill="#483514"><path d="M13,12h1v1h-1V12z"/><path d="M12 11h1v1h-1v-1zm-2-2h1v1h-1V9zM8 7h1v1H8V7zM6 5h1v1H6V5z"/><path d="M11 10h1v1h-1v-1zM9 8h1v1H9V8zM7 6h1v1H7V6zM5 4h1v1H5V4z"/></g><g fill="#281d0a"><path d="M12,13h1v1h-1V13z"/><path d="M11 12h1v1h-1v-1zm-2-2h1v1H9v-1zM7 8h1v1H7V8zM5 6h1v1H5V6z"/><path d="M10 11h1v1h-1v-1zM8 9h1v1H8V9zM6 7h1v1H6V7zM4 5h1v1H4V5z"/></g><path d="M13 13h1v1h-1v-1zm-2-2h1v1h-1v-1zM9 9h1v1H9V9zM7 7h1v1H7V7zM5 5h1v1H5V5z" fill="#644c1e"/><g fill="#c8c8c8"><path d="M5,2v1H4v1h2V3h1V2H5z"/><path d="M3,5H2v2h1V6h1V4H3V5z"/></g><g fill="#3c3c3c"><path d="M3,2h1v1H3V2z"/><path d="M2 3h1v1H2V3zm2-2h1v1H4V1z"/><path d="M1,4h1v1H1V4z"/><path d="M0 10h1V5H0v5z"/><path d="M1,10h1v1H1V10z"/><path d="M3,7H2v3h1V7z"/><path d="M3 6h1v1H3V6zm2-6v1h5V0H5z"/><path d="M10,1h1v1h-1V1z"/><path d="M7,2v1h3V2H7z"/><path d="M6,3h1v1H6V3z"/></g><g fill="#eaeaea"><path d="M3,3h1v1H3V3z"/><path d="M4 2h1v1H4V2zM2 4h1v1H2V4z"/><path d="M1 10h1V5H1v5zm4-9v1h5V1H5z"/></g><path d="M2,2h1v1H2V2z" fill="#868686"/></svg></g><g class="gotchi-wearable wearable-hand wearable-hand-right"><svg x="6" y="23"><g transform="scale(-1, 1) translate(-52, 0)"><path d="M6 7V6H5V0H2v6H1v1H0v14h1v1h5v-1h1V7z"/><path d="M1,11h2v7H1V11z" fill="#decd87"/><path d="M3,3h1v2H3V3z" fill="#782121"/><path d="M3 1h1v1H3zm2 6V6H2v1H1v3h3v9H1v2h5V7z" fill="green"/><path d="M1 7h1v3H1V7zm0 12h1v2H1v-2z" fill="#0a0"/></g></svg></g><g class="gotchi-wearable wearable-pet"><svg x="42" y="43"><path d="M19 2V1h-1V0h-5v1h-1v1H8V1H7V0H2v1H1v1H0v2h1v1h1v1H1v3h1v1h1v1H2v1H1v2h1v1H1v2h4v1h3v-1h1v-1h2v1h1v1h3v-1h4v-2h-1v-1h1v-2h-1v-1h-1v-1h1V9h1V6h-1V5h1V4h1V2h-1z"/><path d="M18 3h-1v1h-3V3h-2v1h1v1h5V4h1V3h-1zM6 3v1H3V3H1v1h1v1h5V4h1V3H6z" fill="#fff"/><g fill="#59bcff"><path d="M17 1h-4v1h5V1h-1zm-7 4h2V4h-1V3H9v1H8v1h2zM4 2h3V1H2v1h2zm5 11v2h2v-2H9z"/><path d="M16 12v-2H4v2H2v2h2v1H2v1h3v-3h1v3H5v1h3v-4h1v-1h2v1h1v4h3v-1h-1v-3h1v3h3v-1h-2v-1h2v-2h-2z"/></g><path d="M17 6H2v3h16V6h-1zm0 2H3V7h14v1z" fill="#ef1e26"/><defs /></svg></g></svg>