<svg xmlns="http://www.w3.org/2000/svg" viewBox="0 0 64 64"><g class="gotchi-bg"><defs fill="#fff"><pattern id="a" patternUnits="userSpaceOnUse" width="4" height="4"><path d="M0 0h1v1H0zm2 2h1v1H2z"/></pattern><pattern id="b" patternUnits="userSpaceOnUse" x="0" y="0" width="2" height="2"><path d="M0 0h1v1H0z"/></pattern><pattern id="c" patternUnits="userSpaceOnUse" x="-2" y="0" width="8" height="1"><path d="M0 0h1v1H0zm2 0h1v1H2zm2 0h1v1H4z"/></pattern><pattern id="d" patternUnits="userSpaceOnUse" x="0" y="0" width="4" height="4"><path d="M0 0h1v1H0zm0 2h1v1H0zm1 0V1h1v1zm1 0h1v1H2zm0-1h1V0H2zm1 2h1v1H3z"/></pattern><pattern id="e" patternUnits="userSpaceOnUse" width="64" height="32"><path d="M4 4h1v1H4zm7 0h1v1h-1zm7 0h1v1h-1zm7 0h1v1h-1zm7 0h1v1h-1zm7 0h1v1h-1zm7 0h1v1h-1zm7 0h1v1h-1zm7 0h1v1h-1z"/><path fill="url(#a)" d="M0 8h64v7H0z"/><path fill="url(#b)" d="M0 16h64v1H0z"/><path fill="url(#c)" d="M0 18h64v1H0z"/><path fill="url(#b)" d="M22 18h15v1H22zM0 20h64v3H0z"/><path fill="url(#d)" d="M0 24h64v8H0z"/></pattern><mask id="f"><path fill="url(#e)" d="M0 0h64v32H0z"/></mask></defs><path fill="#fff" d="M0 0h64v32H0z"/><path fill="#dea8ff" class="gotchi-secondary" mask="url(#f)" d="M0 0h64v32H0z"/><path fill="#dea8ff" class="gotchi-secondary" d="M0 32h64v32H0z"/><path mask="url(#f)" fill="#fff" transform="matrix(1 0 0 -1 0 64)" d="M0 0h64v32H0z"/></g><style>.gotchi-primary{fill:#2664BA;}.gotchi-secondary{fill:#D4E0F1;}.gotchi-cheek{fill:#F696C6;}.gotchi-eyeColor{fill:#5D24BF;}.gotchi-primary-mouth{fill:#2664BA;}.gotchi-sleeves-up{display:none;}.gotchi-handsUp{display:none;}.gotchi-handsDownOpen{display:block;}.gotchi-handsDownClosed{display:none;}</style><g class="gotchi-bg"><defs fill="#fff"><pattern id="a" patternUnits="userSpaceOnUse" width="4" height="4"><path d="M0 0h1v1H0zm2 2h1v1H2z"/></pattern><pattern id="b" patternUnits="userSpaceOnUse" x="0" y="0" width="2" height="2"><path d="M0 0h1v1H0z"/></pattern><pattern id="c" patternUnits="userSpaceOnUse" x="-2" y="0" width="8" height="1"><path d="M0 0h1v1H0zm2 0h1v1H2zm2 0h1v1H4z"/></pattern><pattern id="d" patternUnits="userSpaceOnUse" x="0" y="0" width="4" height="4"><path d="M0 0h1v1H0zm0 2h1v1H0zm1 0V1h1v1zm1 0h1v1H2zm0-1h1V0H2zm1 2h1v1H3z"/></pattern><pattern id="e" patternUnits="userSpaceOnUse" width="64" height="32"><path d="M4 4h1v1H4zm7 0h1v1h-1zm7 0h1v1h-1zm7 0h1v1h-1zm7 0h1v1h-1zm7 0h1v1h-1zm7 0h1v1h-1zm7 0h1v1h-1zm7 0h1v1h-1z"/><path fill="url(#a)" d="M0 8h64v7H0z"/><path fill="url(#b)" d="M0 16h64v1H0z"/><path fill="url(#c)" d="M0 18h64v1H0z"/><path fill="url(#b)" d="M22 18h15v1H22zM0 20h64v3H0z"/><path fill="url(#d)" d="M0 24h64v8H0z"/></pattern><mask id="f"><path fill="url(#e)" d="M0 0h64v32H0z"/></mask></defs><path fill="#fff" d="M0 0h64v32H0z"/><path fill="#dea8ff" class="gotchi-secondary" mask="url(#f)" d="M0 0h64v32H0z"/><path fill="#dea8ff" class="gotchi-secondary" d="M0 32h64v32H0z"/><path mask="url(#f)" fill="#fff" transform="matrix(1 0 0 -1 0 64)" d="M0 0h64v32H0z"/></g><g class="gotchi-body"><g class="gotchi-primary"><path d="M21 12h2v-2h-4v2h1z"/><path d="M19 14v-2h-2v2h1zm6-4h2V8h-4v2h1z"/><path d="M29 8h8V6H27v2h1zm16 6h2v-2h-2v1z"/><path d="M48 14h-1v39h-2v2h4V14zm-11-4h4V8h-4v1z"/><path d="M41 12h4v-2h-4v1zM17 53V14h-2v41h4v-2h-1z"/><path d="M24 51h-5v2h5v-1z"/><path d="M27 53h-3v2h5v-2h-1zm18-2h-5v2h5v-1z"/><path d="M35 51h-6v2h6v-1z"/><path d="M38 53h-3v2h5v-2h-1z"/></g><g class="gotchi-secondary"><path d="M18 43v6h2v-1h2v1h2v2h-5v2h-2V14h2v1h-1v26z"/><path d="M27 51h-3v2h5v-2h-1zm11 0h-3v2h5v-2h-1z"/><path d="M35 49h-2v-1h-2v1h-2v2h6v-1zM25 11h2v-1h-4v1h1zm-4 2h2v-1h-4v1h1zm24 31v5h-1v-1h-2v1h-2v2h5v2h2V14h-2v29z"/><path d="M37 8H27v1h5v1h5V9zm8 4h-4v2h4v-1z"/><path d="M41 10h-4v2h4v-1z"/></g><path d="M44 14h-3v-2h-4v-2h-5V9h-5v2h-4v2h-4v2h-1v34h2v-1h2v1h2v2h5v-2h2v-1h2v1h2v2h5v-2h2v-1h2v1h1V14z" fill="#fff"/></g><path class="gotchi-cheek" d="M21 32v2h2v-2h-1zm21 0h-1v2h2v-2z"/><g class="gotchi-primary-mouth"><path d="M29 32h-2v2h2v-1z"/><path d="M33 34h-4v2h6v-2h-1z"/><path d="M36 32h-1v2h2v-2z"/></g><g class="gotchi-shadow"><path opacity=".25" d="M25 58H19v1h1v1h24V59h1V58h-1z" fill="#000"/></g><g class="gotchi-collateral" fill="#2664ba"><path d="M30 15v2h3v1h-3v1h1.5v1h1v-1H34v-3h-3v-1h3v-1h-1.5v-1h-1v1H30zm4 5h1v1h-1z"/><path d="M35 19h1v1h-1z"/><path d="M36 16v3h1v-5h-1v1zm-2-4h1v1h-1z"/><path d="M35 13h1v1h-1zm-7 5v-4h-1v5h1zm1 2h1v1h-1z"/><path d="M28 19h1v1h-1zm1-7h1v1h-1z"/><path d="M28 13h1v1h-1z"/></g>
    <style>
        .gotchi-bg { display: none }
    </style>
<g class="gotchi-eyeColor"><path d="M39 23v2h-1v-2h1v-1h-2v1h-1v3h1v1h2v-1h1v-3h-1z" /><g class="gotchi-primary"><path d="M36 22h-1v1h1v-1z" /><path d="M35 25v-2h-1v4h1v-2z" /><path d="M36 27h-1v1h1v-1zm5-5h-1v1h1v-1z" /><path d="M41 23v4h1v-4h-1zm-3-1h2v-1h-4v1h2zm0 6h-2v1h4v-1h-2z" /><path d="M41 27h-1v1h1v-1z" /></g><path d="M27 24v1h-1v-2h1v-1h-2v1h-1v3h1v1h2v-1h1v-3h-1v1z" /><g class="gotchi-primary"><path d="M24 22h-1v1h1v-1z" /><path d="M23 25v-2h-1v4h1v-2z" /><path d="M24 27h-1v1h1v-1zm5-5h-1v1h1v-1z" /><path d="M29 24v3h1v-4h-1v1zm-3-2h2v-1h-4v1h2zm0 6h-2v1h4v-1h-2z" /><path d="M29 27h-1v1h1v-1z" /></g></g><g class="gotchi-wearable wearable-body"><svg x="6" y="17"><path d="M44 36v-3h-1V22h-1v-1h-2v-1H30v1h-2v1h-4v-1h-2v-1H12v1h-2v1H9v11H8v3H7v2h6v-2h5v2h5v-2h6v2h5v-2h5v2h6v-2h-1z" fill="#0b433d"/><path d="M8 3H7V2H6V1H5V0H1v1H0v4h1v1H0v2h1v1h1v1h1v1h1v1h1v1h1v1h1v1h1v1h1V4H8V3zm43-2V0h-4v1h-1v1h-1v1h-1v1h-1v12h1v-1h1v-1h1v-1h1v-1h1v-1h1v-1h1V9h1V8h1V6h-1V5h1V1h-1zm-1 30h-1v-1h-1v-1h-1v-1h-1v-1h-1v-1h-1v-1h-1v8h1v2h1v1h1v1h4v-1h1v-4h-1v-1zM8 26H7v1H6v1H5v1H4v1H3v1H2v1H1v4h1v1h4v-1h1v-1h1v-2h1v-8H8v1z" fill="gold"/><g fill="#376560"><path d="M22 24v-1h1v-1h-1v-1H12v1h-1v1h1v1h-1v1h1v1h-1v1h1v1h10v-1h1v-1h-1v-1h1v-1h-1z"/><path d="M23 25h1v1h-1zm-13 0h1v1h-1zm0-2h1v1h-1zm13 0h1v1h-1zm0 4h1v1h-1zm-13 0h1v1h-1z"/></g><path d="M25 25v1h2v-1h-2zm0 2v1h2v-1h-2zm0-4v1h2v-1h-2z" fill="#ff0"/><g fill="#376560"><path d="M40 24v-1h1v-1h-1v-1H30v1h-1v1h1v1h-1v1h1v1h-1v1h1v1h10v-1h1v-1h-1v-1h1v-1h-1z"/><path d="M28 25h1v1h-1zm13 0h1v1h-1zm0-2h1v1h-1zm-13 0h1v1h-1zm0 4h1v1h-1zm13 0h1v1h-1z"/></g><path d="M42 33v-4h-1v7h2v-3h-1zm-4-4v5h1v2h1v-7h-2zm-2 5h1v-5h-1v5zm-4-5v7h2v-2h1v-5h-3zm-4 0v5h1v2h2v-7h-3zm-3 0v5h2v-5h-2zm-4 0v7h2v-2h1v-5h-3zm-4 0v5h1v2h2v-7h-3zm-2 5h1v-5h-1v5zm-3-5v7h1v-2h1v-5h-2zm-2 4H9v3h2v-7h-1v4z" fill="#6ca958"/><g fill="#ffee94"><path d="M7 11H6v-1H5V9H4V8H3V7H2V6H1v2h1v1h1v1h1v1h1v1h1v1h1v1h1v1h1v-2H8v-1H7v-1z"/><path d="M8 4H7V3H6V2H5V1H1v4h1v1h1v1h1v1h1v1h1v1h1v1h1v1h1V5H8V4zm41 3v1h-1v1h-1v1h-1v1h-1v1h-1v1h-1v2h1v-1h1v-1h1v-1h1v-1h1v-1h1V9h1V8h1V6h-1v1h-1z"/><path d="M47 1v1h-1v1h-1v1h-1v1h-1v7h1v-1h1v-1h1V9h1V8h1V7h1V6h1V5h1V1h-4zm2 30h-1v-1h-1v-1h-1v-1h-1v-1h-1v-1h-1v7h1v1h1v1h1v1h4v-4h-1v-1zM8 27H7v1H6v1H5v1H4v1H3v1H2v4h4v-1h1v-1h1v-1h1v-7H8v1z"/></g><g fill="#fff7cd"><path d="M2 7h1v1H2z"/><path d="M3 8h1v1H3z"/><path d="M4 9h1v1H4z"/><path d="M5 10h1v1H5z"/><path d="M6 11h1v1H6z"/><path d="M7 12h1v1H7z"/><path d="M8 13h1v1H8zm0-7H7V5H6V4H5V3H4V2H2v2h1v1h1v1h1v1h1v1h1v1h1v1h1V7H8V6zm41 1h1v1h-1z"/><path d="M48 8h1v1h-1z"/><path d="M47 9h1v1h-1z"/><path d="M46 10h1v1h-1z"/><path d="M45 11h1v1h-1z"/><path d="M44 12h1v1h-1z"/><path d="M43 13h1v1h-1zm5-11v1h-1v1h-1v1h-1v1h-1v1h-1v3h1V9h1V8h1V7h1V6h1V5h1V4h1V2h-2zm0 30h-1v-1h-1v-1h-1v-1h-1v-1h-1v3h1v1h1v1h1v1h1v1h2v-2h-1v-1zM8 29H7v1H6v1H5v1H4v1H3v2h2v-1h1v-1h1v-1h1v-1h1v-3H8v1z"/></g><g fill="#fffffd"><path d="M3 3h1v1H3z"/><path d="M4 4h1v1H4z"/><path d="M5 5h1v1H5z"/><path d="M6 6h1v1H6z"/><path d="M7 7h1v1H7z"/><path d="M8 8h1v1H8zm40-5h1v1h-1z"/><path d="M47 4h1v1h-1z"/><path d="M46 5h1v1h-1z"/><path d="M45 6h1v1h-1z"/><path d="M44 7h1v1h-1z"/><path d="M43 8h1v1h-1zm4 25h1v1h-1z"/><path d="M46 32h1v1h-1z"/><path d="M45 31h1v1h-1z"/><path d="M44 30h1v1h-1z"/><path d="M43 29h1v1h-1zM4 33h1v1H4z"/><path d="M5 32h1v1H5z"/><path d="M6 31h1v1H6z"/><path d="M7 30h1v1H7z"/><path d="M8 29h1v1H8z"/></g></svg></g><g class="gotchi-handsDownClosed"><g class="gotchi-primary"><path d="M19 42h1v1h-1zm1-6h1v1h-1z"/><path d="M21 37h1v1h-1zm5 3v4h1v-4zm-5 3h-1v1h2v-1z"/><path d="M24 44h-2v1h4v-1h-1zm1-5h-1v1h2v-1z"/><path d="M23 38h-1v1h2v-1z"/></g><g class="gotchi-secondary"><path d="M19 43h1v1h-1zm5 2h-2v1h4v-1h-1z"/><path d="M27 41v3h1v-3zm-6 3h-1v1h2v-1z"/><path d="M26 44h1v1h-1zm-7-3h-1v2h1v-1z"/></g><g class="gotchi-primary"><path d="M44 42h1v1h-1zm-1-6h1v1h-1z"/><path d="M42 37h1v1h-1z"/><path d="M42 39v-1h-2v1h1zm0 4v1h2v-1h-1z"/><path d="M40 44h-2v1h4v-1h-1z"/><path d="M38 42v-2h-1v4h1v-1z"/><path d="M40 40v-1h-2v1h1z"/></g><g class="gotchi-secondary"><path d="M42 44v1h2v-1h-1zm-5-2v-1h-1v3h1v-1z"/><path d="M40 45h-2v1h4v-1h-1z"/><path d="M37 44h1v1h-1zm7-1h1v1h-1z"/></g></g><g class="gotchi-handsDownOpen"><g class="gotchi-primary"><path d="M14 40h1v1h-1v-1zm-1-6h1v1h-1v-1z"/><path d="M14 33h1v1h-1v-1zm-2 2h1v1h-1v-1zm-5 3h1v4H7v-4zm5 3h2v1h-2v-1z"/><path d="M8 42h4v1H8v-1zm0-5h2v1H8v-1z"/><path d="M10,36h2v1h-2V36z"/></g><g class="gotchi-secondary"><path d="M14,39h1v1h-1V39z"/><path d="M12,40h2v1h-2V40z"/><path d="M8,41h4v1H8V41z"/></g><path d="M8,38v3h4v-1h2v-1h1v-5h-1v1h-1v1h-1v1h-2v1H8z" fill="#fff" /><g class="gotchi-primary"><path d="M49 40h1v1h-1v-1zm1-6h1v1h-1v-1z"/><path d="M49 33h1v1h-1v-1zm2 2h1v1h-1v-1zm5 3h1v4h-1v-4zm-6 3h2v1h-2v-1z"/><path d="M52 42h4v1h-4v-1zm2-5h2v1h-2v-1z"/><path d="M52,36h2v1h-2V36z"/></g><g class="gotchi-secondary"><path d="M49,39h1v1h-1V39z"/><path d="M50,40h2v1h-2V40z"/><path d="M52,41h4v1h-4V41z"/></g><path d="M54,38v-1h-2v-1h-1v-1h-1v-1h-1v5h1v1h2v1h4v-3H54z" fill="#fff" /></g><g class="gotchi-handsUp"><g class="gotchi-secondary"><path d="M50,38h1v1h-1V38z"/><path d="M49 39h1v1h-1v-1zm2-2h1v1h-1v-1z"/><path d="M52,36h2v1h-2V36z"/><path d="M54,35h2v1h-2V35z"/></g><path d="M52,32v1h-2v1h-1v5h1v-1h1v-1h1v-1h2v-1h2v-3H52z" fill="#fff"/><g class="gotchi-primary"><path d="M49,33h1v1h-1V33z"/><path d="M50 32h2v1h-2v-1zm0 7h1v1h-1v-1z"/><path d="M49 40h1v1h-1v-1zm2-2h1v1h-1v-1z"/><path d="M52 37h2v1h-2v-1zm0-6h4v1h-4v-1z"/><path d="M56,32h1v4h-1V32z"/><path d="M54,36h2v1h-2V36z"/></g><g class="gotchi-secondary"><path d="M13,38h1v1h-1V38z"/><path d="M14 39h1v1h-1v-1zm-2-2h1v1h-1v-1z"/><path d="M10,36h2v1h-2V36z"/><path d="M8,35h2v1H8V35z"/></g><path d="M8,32v3h2v1h2v1h1v1h1v1h1v-5h-1v-1h-2v-1H8z" fill="#fff"/><g class="gotchi-primary"><path d="M14,33h1v1h-1V33z"/><path d="M12 32h2v1h-2v-1zm1 7h1v1h-1v-1z"/><path d="M14 40h1v1h-1v-1zm-2-2h1v1h-1v-1z"/><path d="M10 37h2v1h-2v-1zm-2-6h4v1H8v-1z"/><path d="M7,32h1v4H7V32z"/><path d="M8,36h2v1H8V36z"/></g></g><g class="gotchi-wearable wearable-face"><svg x="21" y="32"><path d="M21 9v1h-1V8h-1V5h-1V2h-1V1h-1V0h-3v1h-1v1h-2V1H9V0H6v1H5v1H4v3H3v3H2v2H1V9H0v2h4v-1h1V9h1V8h1V7h1V6h1V5h1V4h2v1h1v1h1v1h1v1h1v1h1v1h1v1h4V9h-1z" fill="#5c2700"/><g fill="#724422"><path d="M5 5h1V3H5v2z"/><path d="M6 2v1h2V2H6zm10 1v2h1V3h-1z"/><path d="M14 2v1h2V2h-2z"/></g></svg></g><g class="gotchi-wearable wearable-eyes"><svg x="15" y="22"><path d="M2.1 7.9v-2h-2V2.1h2v-2h29.8v2h2v3.8h-2v2z"/><path d="M31.8.2v2h2v3.5h-2v2.1H2.2v-2h-2V2.2h2v-2h29.6M32 0H2v2H0v4h2v2h30V6h2V2h-2V0z" fill="#c8c8c8"/><path d="M2 2h30v4H2z"/><path d="M26,2v4h2V2H26z" fill="#c260ff"/><g fill="#c8c8c8"><path d="M2,0h30v2H2V0z"/><path d="M0 2h2v4H0V2zm32 0h2v4h-2V2z"/><path d="M2,6h30v2H2V6z"/></g></svg></g><g class="gotchi-wearable wearable-head"><svg x="15" y="14"><path d="M0 0h34v6H0z" fill="#fd0"/><path d="M0,0h34v4H0V0z" fill="#00af00"/><path d="M0,0h34v2H0V0z" fill="#00f"/></svg></g>"><svg x="6" y="17"><g><g class="gotchi-sleeves gotchi-sleeves-left gotchi-sleeves-up"><g></g></g><g class="gotchi-sleeves gotchi-sleeves-left gotchi-sleeves-down"><g></g></g><g class="gotchi-sleeves gotchi-sleeves-right gotchi-sleeves-up"><g></g></g><g class="gotchi-sleeves gotchi-sleeves-right gotchi-sleeves-down"><g></g></g></g></svg><g class="gotchi-wearable wearable-hand wearable-hand-right"><svg x="0" y="28"><g transform="scale(-1, 1) translate(-64, 0)"><path d="M14 13v-1h-1v-1h-1v-1h-1V9h-1V8H9V7H8V6h3V4h-1V3H9V2H8V1H7V0H5v3H3v2H0v2h1v1h1v1h1v1h1v1h2V8h1v1h1v1h1v1h1v1h1v1h1v1h1v1h2v-2h-1z" fill="#240f0a"/><g fill="#3b2924"><path d="M4 4h1v1H4z"/><path d="M5 5h1v1H5z"/><path d="M6 6h1v1H6z"/><path d="M7 7h1v1H7z"/><path d="M8 8h1v1H8z"/><path d="M9 9h1v1H9z"/><path d="M10 10h1v1h-1z"/><path d="M11 11h1v1h-1z"/><path d="M12 12h1v1h-1z"/><path d="M13 13h1v1h-1z"/></g><path d="M5 6H4V5H3v1H1v1h1v1h1v1h1v1h1V8h1V7H5V6zm4-2V3H8V2H7V1H6v2H5v1h1v1h1v1h1V5h2V4H9z" fill="#f6f6f6"/><path d="M8 4V3H7V2H6v1H5v1h1v1h1v1h1V5h1V4zM5 6H4V5H3v1H2v1h1v1h1v1h1V8h1V7H5z" fill="#828282"/></g></svg></g><g class="gotchi-wearable wearable-pet"><svg x="42" y="43"><path d="M19 2V1h-1V0h-5v1h-1v1H8V1H7V0H2v1H1v1H0v2h1v1h1v1H1v3h1v1h1v1H2v1H1v2h1v1H1v2h4v1h3v-1h1v-1h2v1h1v1h3v-1h4v-2h-1v-1h1v-2h-1v-1h-1v-1h1V9h1V6h-1V5h1V4h1V2z"/><path d="M18 3h-1v1h-3V3h-2v1h1v1h5V4h1V3zM6 3v1H3V3H1v1h1v1h5V4h1V3H7z" fill="#fff"/><g fill="#9b00dc"><path d="M17 1h-4v1h5V1zm-7 4h2V4h-1V3H9v1H8v1h1zM4 2h3V1H2v1h1zm5 11v2h2v-2h-1z"/><path d="M16 12v-2H4v2H2v2h2v1H2v1h3v-3h1v3H5v1h3v-4h1v-1h2v1h1v4h3v-1h-1v-3h1v3h3v-1h-2v-1h2v-2h-1z"/></g><path d="M17 6H2v3h16V6h-1zm0 2H3V7h14v1z" fill="#faaff3"/></svg></g></svg>