<svg xmlns="http://www.w3.org/2000/svg" viewBox="0 0 64 64"><g class="gotchi-bg"><defs fill="#fff"><pattern id="a" patternUnits="userSpaceOnUse" width="4" height="4"><path d="M0 0h1v1H0zm2 2h1v1H2z"/></pattern><pattern id="b" patternUnits="userSpaceOnUse" x="0" y="0" width="2" height="2"><path d="M0 0h1v1H0z"/></pattern><pattern id="c" patternUnits="userSpaceOnUse" x="-2" y="0" width="8" height="1"><path d="M0 0h1v1H0zm2 0h1v1H2zm2 0h1v1H4z"/></pattern><pattern id="d" patternUnits="userSpaceOnUse" x="0" y="0" width="4" height="4"><path d="M0 0h1v1H0zm0 2h1v1H0zm1 0V1h1v1zm1 0h1v1H2zm0-1h1V0H2zm1 2h1v1H3z"/></pattern><pattern id="e" patternUnits="userSpaceOnUse" width="64" height="32"><path d="M4 4h1v1H4zm7 0h1v1h-1zm7 0h1v1h-1zm7 0h1v1h-1zm7 0h1v1h-1zm7 0h1v1h-1zm7 0h1v1h-1zm7 0h1v1h-1zm7 0h1v1h-1z"/><path fill="url(#a)" d="M0 8h64v7H0z"/><path fill="url(#b)" d="M0 16h64v1H0z"/><path fill="url(#c)" d="M0 18h64v1H0z"/><path fill="url(#b)" d="M22 18h15v1H22zM0 20h64v3H0z"/><path fill="url(#d)" d="M0 24h64v8H0z"/></pattern><mask id="f"><path fill="url(#e)" d="M0 0h64v32H0z"/></mask></defs><path fill="#fff" d="M0 0h64v32H0z"/><path fill="#dea8ff" class="gotchi-secondary" mask="url(#f)" d="M0 0h64v32H0z"/><path fill="#dea8ff" class="gotchi-secondary" d="M0 32h64v32H0z"/><path mask="url(#f)" fill="#fff" transform="matrix(1 0 0 -1 0 64)" d="M0 0h64v32H0z"/></g><style>.gotchi-primary{fill:#824EE2;}.gotchi-secondary{fill:#E6DCF9;}.gotchi-cheek{fill:#F696C6;}.gotchi-eyeColor{fill:#0064FF;}.gotchi-primary-mouth{fill:#824EE2;}.gotchi-sleeves-up{display:none;}.gotchi-handsUp{display:none;}.gotchi-handsDownOpen{display:block;}.gotchi-handsDownClosed{display:none;}</style><g class="gotchi-bg"><defs fill="#fff"><pattern id="a" patternUnits="userSpaceOnUse" width="4" height="4"><path d="M0 0h1v1H0zm2 2h1v1H2z"/></pattern><pattern id="b" patternUnits="userSpaceOnUse" x="0" y="0" width="2" height="2"><path d="M0 0h1v1H0z"/></pattern><pattern id="c" patternUnits="userSpaceOnUse" x="-2" y="0" width="8" height="1"><path d="M0 0h1v1H0zm2 0h1v1H2zm2 0h1v1H4z"/></pattern><pattern id="d" patternUnits="userSpaceOnUse" x="0" y="0" width="4" height="4"><path d="M0 0h1v1H0zm0 2h1v1H0zm1 0V1h1v1zm1 0h1v1H2zm0-1h1V0H2zm1 2h1v1H3z"/></pattern><pattern id="e" patternUnits="userSpaceOnUse" width="64" height="32"><path d="M4 4h1v1H4zm7 0h1v1h-1zm7 0h1v1h-1zm7 0h1v1h-1zm7 0h1v1h-1zm7 0h1v1h-1zm7 0h1v1h-1zm7 0h1v1h-1zm7 0h1v1h-1z"/><path fill="url(#a)" d="M0 8h64v7H0z"/><path fill="url(#b)" d="M0 16h64v1H0z"/><path fill="url(#c)" d="M0 18h64v1H0z"/><path fill="url(#b)" d="M22 18h15v1H22zM0 20h64v3H0z"/><path fill="url(#d)" d="M0 24h64v8H0z"/></pattern><mask id="f"><path fill="url(#e)" d="M0 0h64v32H0z"/></mask></defs><path fill="#fff" d="M0 0h64v32H0z"/><path fill="#dea8ff" class="gotchi-secondary" mask="url(#f)" d="M0 0h64v32H0z"/><path fill="#dea8ff" class="gotchi-secondary" d="M0 32h64v32H0z"/><path mask="url(#f)" fill="#fff" transform="matrix(1 0 0 -1 0 64)" d="M0 0h64v32H0z"/></g><g class="gotchi-body"><g class="gotchi-primary"><path d="M21 12h2v-2h-4v2h1z"/><path d="M19 14v-2h-2v2h1zm6-4h2V8h-4v2h1z"/><path d="M29 8h8V6H27v2h1zm16 6h2v-2h-2v1z"/><path d="M48 14h-1v39h-2v2h4V14zm-11-4h4V8h-4v1z"/><path d="M41 12h4v-2h-4v1zM17 53V14h-2v41h4v-2h-1z"/><path d="M24 51h-5v2h5v-1z"/><path d="M27 53h-3v2h5v-2h-1zm18-2h-5v2h5v-1z"/><path d="M35 51h-6v2h6v-1z"/><path d="M38 53h-3v2h5v-2h-1z"/></g><g class="gotchi-secondary"><path d="M18 43v6h2v-1h2v1h2v2h-5v2h-2V14h2v1h-1v26z"/><path d="M27 51h-3v2h5v-2h-1zm11 0h-3v2h5v-2h-1z"/><path d="M35 49h-2v-1h-2v1h-2v2h6v-1zM25 11h2v-1h-4v1h1zm-4 2h2v-1h-4v1h1zm24 31v5h-1v-1h-2v1h-2v2h5v2h2V14h-2v29z"/><path d="M37 8H27v1h5v1h5V9zm8 4h-4v2h4v-1z"/><path d="M41 10h-4v2h4v-1z"/></g><path d="M44 14h-3v-2h-4v-2h-5V9h-5v2h-4v2h-4v2h-1v34h2v-1h2v1h2v2h5v-2h2v-1h2v1h2v2h5v-2h2v-1h2v1h1V14z" fill="#fff"/></g><path class="gotchi-cheek" d="M21 32v2h2v-2h-1zm21 0h-1v2h2v-2z"/><g class="gotchi-primary-mouth"><path d="M29 32h-2v2h2v-1z"/><path d="M33 34h-4v2h6v-2h-1z"/><path d="M36 32h-1v2h2v-2z"/></g><g class="gotchi-shadow"><path opacity=".25" d="M25 58H19v1h1v1h24V59h1V58h-1z" fill="#000"/></g><g class="gotchi-collateral"><path d="M37.25 17.04v-.75h-.75v-.75h-.75v-.75H33.5v.75h-.75v.75h-1.5v.75h-.75v.75h-2.25v-.75h-.75v-2.25h.75v-.75h2.25v.75h.75v.75H32v-1.5h-.75v-.75h-.75v-.75h-2.25v.75h-.75v.75h-.75v.75H26v2.25h.75v.75h.75v.75h.75v.75h2.25v-.75h.75v-.75h1.5v-.75h.75v-.75h2.25v.75h.75v2.25h-.75v.75H33.5v-.75h-.75v-.75H32v1.5h.75v.75h.75v.75h2.25v-.75h.75v-.75h.75v-.75H38v-2.25h-.75z" fill="#824ee2"/></g>
    <style>
        .gotchi-bg { display: none }
    </style>
<g class="gotchi-eyeColor"><path d="M43.46 23.91v-.64h-.64v-.64h-.64V22h-1.91v.64h-.64v.64H39v1.28h.64v-.64h.64v-.64h1.91v.64h.64v1.91h-.64v.64h-1.91v-.64h-.64v-.64h-1.28v-.64h-.64v-.64h-1.91v.64h-.64v.64h-.64v.64h-.63v1.91h.64v.64h.64v.64h.64v.64h1.91v-.64h.64v-.64H39V27.1h-.64v.64h-.64v.64h-1.91v-.64h-.64v-1.91h.64v-.64h1.91v.64h.64v.64h1.28v.64h.64v.64h1.91v-.65h.64v-.64h.64v-.64h.64v-1.91h-.65zm-14-.64h-.64v-.64h-.64V22h-1.91v.64h-.64v.64H25v1.28h.64v-.64h.64v-.64h1.91v.64h.64v1.91h-.64v.64h-1.91v-.64h-.64v-.64h-1.28v-.64h-.64v-.64h-1.91v.64h-.64v.64h-.64v.64h-.63v1.91h.64v.64h.64v.64h.64v.64h1.91v-.64h.64v-.64H25V27.1h-.64v.64h-.64v.64h-1.91v-.64h-.64v-1.91h.64v-.64h1.91v.64h.64v.64h1.28v.64h.64v.64h1.91v-.65h.64v-.64h.64v-.64h.64v-1.91h-.64v-.64z"/></g><g class="gotchi-wearable wearable-body"><svg x="12" y="32"><path d="M34 1v1h-1v1h-1v1h-1v1h-1v1h-1v1h-2v1h-3v1h-8V8h-3V7h-2V6h-1V5H9V4H8V3H7V2H6V1H3v20h34V1h-3z" fill="#960000"/><path d="M34 2v1h-1v1h-1v1h-1v1h-1v1h-1v1h-2v1h-3v1h-8V9h-3V8h-2V7h-1V6H9V5H8V4H7V3H6V2H4v18h32V2h-2z" fill="red"/><g fill="#ffc900"><path d="M12.5 14v-2h-1v4h1v-2z"/><path d="M12.5 16h1v1h-1z"/><path d="M14.5 14v-2h-1v4h1v-2zm1-1v3h1v-4h-1v1z"/><path d="M14.5 16h1v1h-1zm11-2v3h1v-4h-1v1zm-2 0v3h1v-4h-1v1z"/><path d="M24.5 12h1v1h-1zm3 0v5h1v-5h-1zm-6 2v3h1v-4h-1v1z"/><path d="M22.5 12h1v1h-1zm-4 0v1h2v-1h-2zm2 3v-1h-1v2h1v-1z"/><path d="M18.5 16h1v1h-1z"/><path d="M17.5 14v2h1v-3h-1v1z"/></g></svg></g><g class="gotchi-handsDownClosed"><g class="gotchi-primary"><path d="M19 42h1v1h-1zm1-6h1v1h-1z"/><path d="M21 37h1v1h-1zm5 3v4h1v-4zm-5 3h-1v1h2v-1z"/><path d="M24 44h-2v1h4v-1h-1zm1-5h-1v1h2v-1z"/><path d="M23 38h-1v1h2v-1z"/></g><g class="gotchi-secondary"><path d="M19 43h1v1h-1zm5 2h-2v1h4v-1h-1z"/><path d="M27 41v3h1v-3zm-6 3h-1v1h2v-1z"/><path d="M26 44h1v1h-1zm-7-3h-1v2h1v-1z"/></g><g class="gotchi-primary"><path d="M44 42h1v1h-1zm-1-6h1v1h-1z"/><path d="M42 37h1v1h-1z"/><path d="M42 39v-1h-2v1h1zm0 4v1h2v-1h-1z"/><path d="M40 44h-2v1h4v-1h-1z"/><path d="M38 42v-2h-1v4h1v-1z"/><path d="M40 40v-1h-2v1h1z"/></g><g class="gotchi-secondary"><path d="M42 44v1h2v-1h-1zm-5-2v-1h-1v3h1v-1z"/><path d="M40 45h-2v1h4v-1h-1z"/><path d="M37 44h1v1h-1zm7-1h1v1h-1z"/></g></g><g class="gotchi-handsDownOpen"><g class="gotchi-primary"><path d="M14 40h1v1h-1v-1zm-1-6h1v1h-1v-1z"/><path d="M14 33h1v1h-1v-1zm-2 2h1v1h-1v-1zm-5 3h1v4H7v-4zm5 3h2v1h-2v-1z"/><path d="M8 42h4v1H8v-1zm0-5h2v1H8v-1z"/><path d="M10,36h2v1h-2V36z"/></g><g class="gotchi-secondary"><path d="M14,39h1v1h-1V39z"/><path d="M12,40h2v1h-2V40z"/><path d="M8,41h4v1H8V41z"/></g><path d="M8,38v3h4v-1h2v-1h1v-5h-1v1h-1v1h-1v1h-2v1H8z" fill="#fff" /><g class="gotchi-primary"><path d="M49 40h1v1h-1v-1zm1-6h1v1h-1v-1z"/><path d="M49 33h1v1h-1v-1zm2 2h1v1h-1v-1zm5 3h1v4h-1v-4zm-6 3h2v1h-2v-1z"/><path d="M52 42h4v1h-4v-1zm2-5h2v1h-2v-1z"/><path d="M52,36h2v1h-2V36z"/></g><g class="gotchi-secondary"><path d="M49,39h1v1h-1V39z"/><path d="M50,40h2v1h-2V40z"/><path d="M52,41h4v1h-4V41z"/></g><path d="M54,38v-1h-2v-1h-1v-1h-1v-1h-1v5h1v1h2v1h4v-3H54z" fill="#fff" /></g><g class="gotchi-handsUp"><g class="gotchi-secondary"><path d="M50,38h1v1h-1V38z"/><path d="M49 39h1v1h-1v-1zm2-2h1v1h-1v-1z"/><path d="M52,36h2v1h-2V36z"/><path d="M54,35h2v1h-2V35z"/></g><path d="M52,32v1h-2v1h-1v5h1v-1h1v-1h1v-1h2v-1h2v-3H52z" fill="#fff"/><g class="gotchi-primary"><path d="M49,33h1v1h-1V33z"/><path d="M50 32h2v1h-2v-1zm0 7h1v1h-1v-1z"/><path d="M49 40h1v1h-1v-1zm2-2h1v1h-1v-1z"/><path d="M52 37h2v1h-2v-1zm0-6h4v1h-4v-1z"/><path d="M56,32h1v4h-1V32z"/><path d="M54,36h2v1h-2V36z"/></g><g class="gotchi-secondary"><path d="M13,38h1v1h-1V38z"/><path d="M14 39h1v1h-1v-1zm-2-2h1v1h-1v-1z"/><path d="M10,36h2v1h-2V36z"/><path d="M8,35h2v1H8V35z"/></g><path d="M8,32v3h2v1h2v1h1v1h1v1h1v-5h-1v-1h-2v-1H8z" fill="#fff"/><g class="gotchi-primary"><path d="M14,33h1v1h-1V33z"/><path d="M12 32h2v1h-2v-1zm1 7h1v1h-1v-1z"/><path d="M14 40h1v1h-1v-1zm-2-2h1v1h-1v-1z"/><path d="M10 37h2v1h-2v-1zm-2-6h4v1H8v-1z"/><path d="M7,32h1v4H7V32z"/><path d="M8,36h2v1H8V36z"/></g></g><g class="gotchi-wearable wearable-head"><svg x="11" y="0"><path d="M43 13v-1h-1v-2h-2V8h-2V6h-2V4h-2V2h-4V0H18v2h-4v2h-2v2h-2v2H8v2H6v4H4v4H2v2H0v2h42v-2h-2v-2h-2v-4h-2v-2h-2v-2h4v2h2v1h-1v3h1v1h3v-1h1v-3z"/><path d="M6,16v-2h2v-4h2V8h2V6h2V4h4V2h12v2h4v2h2v2h-4v2h-2v2h2v2h4v2H6z" fill="red"/><path d="M4 18h34v2H4v-2zm36-5h3v3h-3v-3z" fill="#fff"/><path d="M24 8V7h-1V6h-1V5h-2v1h-1v1h-1v1h-1v4h1v1h1v1h1v1h2v-1h1v-1h1v-1h1V8z"/><path d="M23 8V7h-1V6h-2v1h-1v1h-1v4h1v1h1v1h2v-1h1v-1h1V8z" fill="#fffacc"/><g fill="#fff066"><path d="M18,10v2h1v1h1v1h1v-4H18z"/><path d="M23,8V7h-1V6h-1v4h3V8H23z"/></g><path d="M21,10v4h1v-1h1v-1h1v-2H21z" fill="#ffe600"/></svg></g>"><svg x="12" y="32"><g><g class="gotchi-sleeves gotchi-sleeves-left gotchi-sleeves-up"><path d="M38 9V8h1V7h1V0h-2v1h-1.5v8H38z" fill="#960000"/><path d="M38 8V7h1V1h-1v1h-1v6h1z" fill="red"/></g><g class="gotchi-sleeves gotchi-sleeves-left gotchi-sleeves-down"><path d="M38 1v1h1v1h1v7h-2V9h-1.5V1H38z" fill="#960000"/><path d="M38 2v1h1v6h-1V8h-1V2h1z" fill="red"/></g><g class="gotchi-sleeves gotchi-sleeves-right gotchi-sleeves-up"><path d="M2 9V8H1V7H0V0h2v1h1.5v8H2z" fill="#960000"/><path d="M2 8V7H1V1h1v1h1v6H2z" fill="red"/></g><g class="gotchi-sleeves gotchi-sleeves-right gotchi-sleeves-down"><path d="M2 1v1H1v1H0v7h2V9h1.5V1H2z" fill="#960000"/><path d="M2 2v1H1v6h1V8h1V2H2z" fill="red"/></g></g></svg><g class="gotchi-wearable wearable-hand wearable-hand-left"><svg x="0" y="25"><g fill="#321227"><path d="M9 2h1v1H9z"/><path d="M8 3h1v1H8z"/><path d="M8 4H7v2h1V4z"/><path d="M7 6H6v2h1V6zm2 21h1v1H9z"/><path d="M8 26h1v1H8z"/><path d="M8 24H7v2h1v-2z"/><path d="M7 22H6v2h1v-2z"/><path d="M12 12h1v-1h-1V0h-1v1h-1v1h1v9H6V8H5v3H3v-1H1v1H0v1h1v1h2v-1h2v6H3v-1H1v1H0v1h1v1h2v-1h2v3h1v-3h5v9h-1v1h1v1h1V19h1v-1h-1v-6zm-1 6H6v-6h5v6z"/><path d="M3 13h1v1H3zm0-4h1v1H3zm0 11h1v1H3zm0-4h1v1H3z"/></g><path d="M11 17h1v-4h-1v4zm0-14v7h1V3h-1zm0 24h1v-7h-1v7zm0-15v-1H2v1h9zm0 6H2v1h9v-1z" fill="#b49698"/></svg></g><g class="gotchi-wearable wearable-hand wearable-hand-right"><svg x="0" y="26"><g transform="scale(-1, 1) translate(-64, 0)"><g fill="#321227"><path d="M9 4H8v2h1V4z"/><path d="M8 6H7v2h1V6z"/><path d="M7 8H6v2h1V8zm1 13v2h1v-2H8z"/><path d="M7 19v2h1v-2H7z"/><path d="M6 17v2h1v-2H6zm-3-2h1v1H3zm0-4h1v1H3z"/><path d="M11 13V0h-1v2H9v2h1v9H6v-3H5v3H3v-1H1v1H0v1h1v1h2v-1h2v3h1v-3h4v9H9v2h1v2h1V14h1v-1h-1z"/></g><path d="M10 25h1V15h-1v10zm0-23v10h1V2h-1zm0 11H2v1h8v-1z" fill="#b49698"/></g></svg></g></svg>