<svg xmlns="http://www.w3.org/2000/svg" viewBox="0 0 64 64"><g class="gotchi-bg"><defs fill="#fff"><pattern id="a" patternUnits="userSpaceOnUse" width="4" height="4"><path d="M0 0h1v1H0zm2 2h1v1H2z"/></pattern><pattern id="b" patternUnits="userSpaceOnUse" x="0" y="0" width="2" height="2"><path d="M0 0h1v1H0z"/></pattern><pattern id="c" patternUnits="userSpaceOnUse" x="-2" y="0" width="8" height="1"><path d="M0 0h1v1H0zm2 0h1v1H2zm2 0h1v1H4z"/></pattern><pattern id="d" patternUnits="userSpaceOnUse" x="0" y="0" width="4" height="4"><path d="M0 0h1v1H0zm0 2h1v1H0zm1 0V1h1v1zm1 0h1v1H2zm0-1h1V0H2zm1 2h1v1H3z"/></pattern><pattern id="e" patternUnits="userSpaceOnUse" width="64" height="32"><path d="M4 4h1v1H4zm7 0h1v1h-1zm7 0h1v1h-1zm7 0h1v1h-1zm7 0h1v1h-1zm7 0h1v1h-1zm7 0h1v1h-1zm7 0h1v1h-1zm7 0h1v1h-1z"/><path fill="url(#a)" d="M0 8h64v7H0z"/><path fill="url(#b)" d="M0 16h64v1H0z"/><path fill="url(#c)" d="M0 18h64v1H0z"/><path fill="url(#b)" d="M22 18h15v1H22zM0 20h64v3H0z"/><path fill="url(#d)" d="M0 24h64v8H0z"/></pattern><mask id="f"><path fill="url(#e)" d="M0 0h64v32H0z"/></mask></defs><path fill="#fff" d="M0 0h64v32H0z"/><path fill="#dea8ff" class="gotchi-secondary" mask="url(#f)" d="M0 0h64v32H0z"/><path fill="#dea8ff" class="gotchi-secondary" d="M0 32h64v32H0z"/><path mask="url(#f)" fill="#fff" transform="matrix(1 0 0 -1 0 64)" d="M0 0h64v32H0z"/></g><style>.gotchi-primary{fill:#B6509E;}.gotchi-secondary{fill:#CFEEF4;}.gotchi-cheek{fill:#F696C6;}.gotchi-eyeColor{fill:#EA8C27;}.gotchi-primary-mouth{fill:#B6509E;}.gotchi-sleeves-up{display:none;}.gotchi-handsUp{display:none;}.gotchi-handsDownOpen{display:block;}.gotchi-handsDownClosed{display:none;}</style><g class="gotchi-bg"><defs fill="#fff"><pattern id="a" patternUnits="userSpaceOnUse" width="4" height="4"><path d="M0 0h1v1H0zm2 2h1v1H2z"/></pattern><pattern id="b" patternUnits="userSpaceOnUse" x="0" y="0" width="2" height="2"><path d="M0 0h1v1H0z"/></pattern><pattern id="c" patternUnits="userSpaceOnUse" x="-2" y="0" width="8" height="1"><path d="M0 0h1v1H0zm2 0h1v1H2zm2 0h1v1H4z"/></pattern><pattern id="d" patternUnits="userSpaceOnUse" x="0" y="0" width="4" height="4"><path d="M0 0h1v1H0zm0 2h1v1H0zm1 0V1h1v1zm1 0h1v1H2zm0-1h1V0H2zm1 2h1v1H3z"/></pattern><pattern id="e" patternUnits="userSpaceOnUse" width="64" height="32"><path d="M4 4h1v1H4zm7 0h1v1h-1zm7 0h1v1h-1zm7 0h1v1h-1zm7 0h1v1h-1zm7 0h1v1h-1zm7 0h1v1h-1zm7 0h1v1h-1zm7 0h1v1h-1z"/><path fill="url(#a)" d="M0 8h64v7H0z"/><path fill="url(#b)" d="M0 16h64v1H0z"/><path fill="url(#c)" d="M0 18h64v1H0z"/><path fill="url(#b)" d="M22 18h15v1H22zM0 20h64v3H0z"/><path fill="url(#d)" d="M0 24h64v8H0z"/></pattern><mask id="f"><path fill="url(#e)" d="M0 0h64v32H0z"/></mask></defs><path fill="#fff" d="M0 0h64v32H0z"/><path fill="#dea8ff" class="gotchi-secondary" mask="url(#f)" d="M0 0h64v32H0z"/><path fill="#dea8ff" class="gotchi-secondary" d="M0 32h64v32H0z"/><path mask="url(#f)" fill="#fff" transform="matrix(1 0 0 -1 0 64)" d="M0 0h64v32H0z"/></g><g class="gotchi-body"><g class="gotchi-primary"><path d="M21 12h2v-2h-4v2h1z"/><path d="M19 14v-2h-2v2h1zm6-4h2V8h-4v2h1z"/><path d="M29 8h8V6H27v2h1zm16 6h2v-2h-2v1z"/><path d="M48 14h-1v39h-2v2h4V14zm-11-4h4V8h-4v1z"/><path d="M41 12h4v-2h-4v1zM17 53V14h-2v41h4v-2h-1z"/><path d="M24 51h-5v2h5v-1z"/><path d="M27 53h-3v2h5v-2h-1zm18-2h-5v2h5v-1z"/><path d="M35 51h-6v2h6v-1z"/><path d="M38 53h-3v2h5v-2h-1z"/></g><g class="gotchi-secondary"><path d="M18 43v6h2v-1h2v1h2v2h-5v2h-2V14h2v1h-1v26z"/><path d="M27 51h-3v2h5v-2h-1zm11 0h-3v2h5v-2h-1z"/><path d="M35 49h-2v-1h-2v1h-2v2h6v-1zM25 11h2v-1h-4v1h1zm-4 2h2v-1h-4v1h1zm24 31v5h-1v-1h-2v1h-2v2h5v2h2V14h-2v29z"/><path d="M37 8H27v1h5v1h5V9zm8 4h-4v2h4v-1z"/><path d="M41 10h-4v2h4v-1z"/></g><path d="M44 14h-3v-2h-4v-2h-5V9h-5v2h-4v2h-4v2h-1v34h2v-1h2v1h2v2h5v-2h2v-1h2v1h2v2h5v-2h2v-1h2v1h1V14z" fill="#fff"/></g><path class="gotchi-cheek" d="M21 32v2h2v-2h-1zm21 0h-1v2h2v-2z"/><g class="gotchi-primary-mouth"><path d="M29 32h-2v2h2v-1z"/><path d="M33 34h-4v2h6v-2h-1z"/><path d="M36 32h-1v2h2v-2z"/></g><g class="gotchi-shadow"><path opacity=".25" d="M25 58H19v1h1v1h24V59h1V58h-1z" fill="#000"/></g><g class="gotchi-collateral" fill="#a73796"><path d="M30.5 15h1v-2h-1z"/><path d="M31.5 12h1v1h-1z"/><path d="M33.5 13h-1v2h1zm-4 3h-2v1h1v2h1v-2h2v-1h-1v-1h-1z"/><path d="M34.5 15h-1v2h1z"/><path d="M35.5 17h-1v2h1zm-8 4h1v-2h-1z"/><path d="M35.5 19v2h1v-2z"/></g>
    <style>
        .gotchi-bg { display: none }
    </style>
<g class="gotchi-eyeColor"><path d="M42 24v-1h-1v-1h-4v1h-1v1h-1v4h1v1h1v1h4v-1h1v-1h1v-4h-1z"/><path d="M41 25v2h1v-2h-1zm-3-2v1h2v-1h-2zm-2 3v1h1v-2h-1v1zm2-1v2h2v-2h-2zm0 3v1h2v-1h-2z" fill="#fff"/><path d="M28 23h-1v-1h-4v1h-1v1h-1v4h1v1h1v1h4v-1h1v-1h1v-4h-1v-1z"/><path d="M27 26v1h1v-2h-1v1zm-3-3v1h2v-1h-2zm-2 3v1h1v-2h-1v1zm2-1v2h2v-2h-2zm0 3v1h2v-1h-2z" fill="#fff"/></g><g class="gotchi-wearable wearable-body"><svg x="12" y="32"><g><path d="M25 7H15V6h-3V5h-2V4H9V3H8V2H7V1H3v20h34V9h.5V1H33v1h-1v1h-1v1h-1v1h-2v1h-3v1z" fill="#d4aa00"/><g fill="#ff0"><path d="M21 12h1v1h-1v-1zm-2 3h2v1h-2v-1z"/><path d="M21 14h1v1h-1v-1zm-3 0h1v1h-1v-1zm0-2h1v1h-1v-1zm7-5v1H15V7h-3V5v15h16V7h-3zm-2 4v1h1v6h-1v-1h-1v1h-1v-1h-2v1h-1v-1h-1v1h-1v-6h1v-1h1v-1h4v1h1z"/></g><path d="M23 12v-1h-1v-1h-4v1h-1v1h-1v6h1v-1h1v1h1v-1h2v1h1v-1h1v1h1v-6h-1zm-5 0h1v1h-1v-1zm4 3h-1v1h-2v-1h-1v-1h1v1h2v-1h1v1zm0-2h-1v-1h1v1z" fill="green"/><path d="M8,3V2H7V1H2.5v8H3v12h9V5h-2V4H9V3H8z" fill="#2d5016"/><path d="M8,4V3H7V2H2.5v6H4v12h8V6h-2V5H9V4H8z" fill="green"/><path d="M33 1v1h-1v1h-1v1h-1v1h-2v16h9V9h.5V1H33z" fill="#a00"/><path d="M31,4v1h-1v1h-2v14h8V8h1.5V2H33v1h-1v1H31z" fill="red"/><path d="M7 2h1v1H7z" fill="#2d5016"/><g class="gotchi-sleeves gotchi-sleeves-left gotchi-sleeves-up"><path d="M40 0v7h-1v1h-1v1h-1V1h1V0h2z" fill="#a00"/><path d="M38,8V7h1V1h-1v1h-1.5v6H38z" fill="red"/></g><g class="gotchi-sleeves gotchi-sleeves-left gotchi-sleeves-down"><path d="M38,10V9h-1V1h1v1h1v1h1v7H38z" fill="#a00"/><path d="M36.5,2v6H38v1h1V3h-1V2H36.5z" fill="red"/></g><g class="gotchi-sleeves gotchi-sleeves-right gotchi-sleeves-up"><path d="M0,0v7h1v1h1v1h1V1H2V0H0z" fill="#2d5016"/><path d="M3.5,8V2H2V1H1v6h1v1H3.5z" fill="green"/></g><g class="gotchi-sleeves gotchi-sleeves-right gotchi-sleeves-down"><path d="M2,10V9h1V1H2v1H1v1H0v7H2z" fill="#2d5016"/><path d="M2,2v1H1v6h1V8h1.5V2H2z" fill="green"/></g></g></svg></g><g class="gotchi-handsDownClosed"><g class="gotchi-primary"><path d="M19 42h1v1h-1zm1-6h1v1h-1z"/><path d="M21 37h1v1h-1zm5 3v4h1v-4zm-5 3h-1v1h2v-1z"/><path d="M24 44h-2v1h4v-1h-1zm1-5h-1v1h2v-1z"/><path d="M23 38h-1v1h2v-1z"/></g><g class="gotchi-secondary"><path d="M19 43h1v1h-1zm5 2h-2v1h4v-1h-1z"/><path d="M27 41v3h1v-3zm-6 3h-1v1h2v-1z"/><path d="M26 44h1v1h-1zm-7-3h-1v2h1v-1z"/></g><g class="gotchi-primary"><path d="M44 42h1v1h-1zm-1-6h1v1h-1z"/><path d="M42 37h1v1h-1z"/><path d="M42 39v-1h-2v1h1zm0 4v1h2v-1h-1z"/><path d="M40 44h-2v1h4v-1h-1z"/><path d="M38 42v-2h-1v4h1v-1z"/><path d="M40 40v-1h-2v1h1z"/></g><g class="gotchi-secondary"><path d="M42 44v1h2v-1h-1zm-5-2v-1h-1v3h1v-1z"/><path d="M40 45h-2v1h4v-1h-1z"/><path d="M37 44h1v1h-1zm7-1h1v1h-1z"/></g></g><g class="gotchi-handsDownOpen"><g class="gotchi-primary"><path d="M14 40h1v1h-1v-1zm-1-6h1v1h-1v-1z"/><path d="M14 33h1v1h-1v-1zm-2 2h1v1h-1v-1zm-5 3h1v4H7v-4zm5 3h2v1h-2v-1z"/><path d="M8 42h4v1H8v-1zm0-5h2v1H8v-1z"/><path d="M10,36h2v1h-2V36z"/></g><g class="gotchi-secondary"><path d="M14,39h1v1h-1V39z"/><path d="M12,40h2v1h-2V40z"/><path d="M8,41h4v1H8V41z"/></g><path d="M8,38v3h4v-1h2v-1h1v-5h-1v1h-1v1h-1v1h-2v1H8z" fill="#fff" /><g class="gotchi-primary"><path d="M49 40h1v1h-1v-1zm1-6h1v1h-1v-1z"/><path d="M49 33h1v1h-1v-1zm2 2h1v1h-1v-1zm5 3h1v4h-1v-4zm-6 3h2v1h-2v-1z"/><path d="M52 42h4v1h-4v-1zm2-5h2v1h-2v-1z"/><path d="M52,36h2v1h-2V36z"/></g><g class="gotchi-secondary"><path d="M49,39h1v1h-1V39z"/><path d="M50,40h2v1h-2V40z"/><path d="M52,41h4v1h-4V41z"/></g><path d="M54,38v-1h-2v-1h-1v-1h-1v-1h-1v5h1v1h2v1h4v-3H54z" fill="#fff" /></g><g class="gotchi-handsUp"><g class="gotchi-secondary"><path d="M50,38h1v1h-1V38z"/><path d="M49 39h1v1h-1v-1zm2-2h1v1h-1v-1z"/><path d="M52,36h2v1h-2V36z"/><path d="M54,35h2v1h-2V35z"/></g><path d="M52,32v1h-2v1h-1v5h1v-1h1v-1h1v-1h2v-1h2v-3H52z" fill="#fff"/><g class="gotchi-primary"><path d="M49,33h1v1h-1V33z"/><path d="M50 32h2v1h-2v-1zm0 7h1v1h-1v-1z"/><path d="M49 40h1v1h-1v-1zm2-2h1v1h-1v-1z"/><path d="M52 37h2v1h-2v-1zm0-6h4v1h-4v-1z"/><path d="M56,32h1v4h-1V32z"/><path d="M54,36h2v1h-2V36z"/></g><g class="gotchi-secondary"><path d="M13,38h1v1h-1V38z"/><path d="M14 39h1v1h-1v-1zm-2-2h1v1h-1v-1z"/><path d="M10,36h2v1h-2V36z"/><path d="M8,35h2v1H8V35z"/></g><path d="M8,32v3h2v1h2v1h1v1h1v1h1v-5h-1v-1h-2v-1H8z" fill="#fff"/><g class="gotchi-primary"><path d="M14,33h1v1h-1V33z"/><path d="M12 32h2v1h-2v-1zm1 7h1v1h-1v-1z"/><path d="M14 40h1v1h-1v-1zm-2-2h1v1h-1v-1z"/><path d="M10 37h2v1h-2v-1zm-2-6h4v1H8v-1z"/><path d="M7,32h1v4H7V32z"/><path d="M8,36h2v1H8V36z"/></g></g><g class="gotchi-wearable wearable-face"><svg x="11" y="2"><path d="M38 6h-2v2h2V6zM4 6v2h2V6H4z"/><path d="M6 4v2h2V4H6z"/><path d="M8 2v2h4V2H8zm28 2h-2v2h2V4z"/><path d="M34 2h-4v2h4V2z"/><path d="M30 0H12v2h18V0zM2 8v9H0v10h2v2h2V8H2zm38 9V8h-2v21h2v-2h2V17h-2z"/><path d="M40 19v-4h-2v14h2v-4h2v-6h-2z" fill="#323232"/><path d="M38 17v10h2V17h-2z" fill="#828282"/><path d="M38 19v6h2v-6h-2z" fill="#afafaf"/><path d="M2 19v-4h2v14H2v-4H0v-6h2z" fill="#323232"/><path d="M4 17v10H2V17h2z" fill="#828282"/><path d="M4 19v6H2v-6h2z" fill="#afafaf"/></svg></g><g class="gotchi-wearable wearable-eyes"><svg x="15" y="19"><path d="M33 4v1h-1v1h-3V5h-1V3h-1V2h-1V1h-1V0h-2v1h-1v1h-1v1h-1v2h-1v1h-4V5h-1V3h-1V2h-1V1h-1V0H9v1H8v1H7v1H6v2H5v1H2V5H1V4H0v2h1v1h1v1h3v1h1v1h1v1h1v1h1v1h2v-1h1v-1h1v-1h1V9h1V8h4v1h1v1h1v1h1v1h1v1h2v-1h1v-1h1v-1h1V9h1V8h3V7h1V6h1V4z"/><g fill="#323232"><path d="M5,7v2h1v1h1v1h1v1h1v1h1V7H5z"/><path d="M14 3h-1V2h-1V1h-1V0h-1v7h5V5h-1V3zm5 4v2h1v1h1v1h1v1h1v1h1V7h-5z"/><path d="M28,5V3h-1V2h-1V1h-1V0h-1v7h5V5H28z"/></g><path d="M10 7v6h1v-1h1v-1h1v-1h1V9h1V8h4V7h-9zm23-2h1v1h-1V5zm-9 2v6h1v-1h1v-1h1v-1h1V9h1V8h3V7h-8z"/><path d="M32 6h1v1h-1V6zM0 5h1v1H0V5zm2 2h3v1H2V7z"/><path d="M1,6h1v1H1V6z"/><g fill="#646464"><path d="M9 1H8v1H7v1H6v2H5v1H2v1h8V0H9v1zm14 0h-1v1h-1v1h-1v2h-1v1h-4v1h9V0h-1v1zm9 4h1v1h-1V5z"/><path d="M33 4h1v1h-1V4zm-4 2h3v1h-3V6zM1 5h1v1H1V5z"/><path d="M0,4h1v1H0V4z"/></g></svg></g><g class="gotchi-wearable wearable-head"><svg x="11" y="3"><path d="M2 17h2v12H2zm36 0h2v12h-2zM5 17h2v8H5zm30 0h2v8h-2z" fill="#502d16"/><path d="M2 19h2v2H2v-2zm0 4h2v2H2v-2zm0 4h2v2H2v-2zm3-6h2v2H5v-2zm33-2h2v2h-2v-2zm0 4h2v2h-2v-2zm0 4h2v2h-2v-2zm-3-6h2v2h-2v-2z" fill="#a05a2c"/><path d="M40 6V4h-2V2h-4V0H8v2H4v2H2v2H0v11h2v2h38v-2h2V6z" fill="maroon"/><path d="M38 6V4h-4V2H8v2H4v2H2v11h38V6z" fill="red"/><path d="M0 6v11h2v2h38v-2h2V6z" fill="#ff0"/><path d="M0 12v5h2v2h38v-2h2v-5z" fill="#0a0"/><path d="M40 6h2v6h-2V6zM0 6h2v6H0V6z" fill="#d4aa00"/><g fill="green"><path d="M2,17h38v2H2V17z"/><path d="M40 12h2v5h-2v-5zM0 12h2v5H0v-5z"/></g></svg></g>"><svg x="12" y="32"><g><g class="gotchi-sleeves gotchi-sleeves-left gotchi-sleeves-up"><path d="M38 0v1h-1v8h1V8h1V7h1V0z" fill="#a00"/><path d="M38 8V7h1V1h-1v1h-1v6h1z" fill="red"/></g><g class="gotchi-sleeves gotchi-sleeves-left gotchi-sleeves-down"><path d="M38 10V9h-1V1h1v1h1v1h1v7z" fill="#a00"/><path d="M37,2v6h1v1h1V3h-1V2H37z" fill="red"/></g><g class="gotchi-sleeves gotchi-sleeves-right gotchi-sleeves-up"><path d="M2 0v1h1v8H2V8H1V7H0V0z" fill="#2d5016"/><path d="M3,8V2H2V1H1v6h1v1H3z" fill="green"/></g><g class="gotchi-sleeves gotchi-sleeves-right gotchi-sleeves-down"><path d="M2 10V9h1V1H2v1H1v1H0v7z" fill="#2d5016"/><path d="M2,2v1H1v6h1V8h1V2H2z" fill="green"/></g></g></svg><g class="gotchi-wearable wearable-hand wearable-hand-left"><svg x="2" y="24"><path d="M5 1v1H0v9h5v-1h4.5V1z" fill="green"/><path d="M5 1h1v9H5z" fill="#2d5016"/><g fill="#ffb81c"><path d="M6,6h1v1H6V6z"/><path d="M7,7h1v1H7V7z"/><path d="M8 8h1v1H8V8zM4 6h1v1H4V6z"/><path d="M3,7h1v1H3V7z"/><path d="M2,8h1v1H2V8z"/><path d="M1,9h1v1H1V9z"/><path d="M0 10h1v1H0v-1zm6-6h1v1H6V4z"/><path d="M7,3h1v1H7V3z"/><path d="M8 2h1v1H8V2zM0 2h1v1H0V2zm3 3h1v1H3V5z"/><path d="M2,4h1v1H2V4z"/><path d="M1,3h1v1H1V3z"/></g><path d="M8 3v1H7v1H6v1h1v1h1v1h1V3H8zM3 5H2V4H1V3H0v7h1V9h1V8h1V7h1V6H3V5z"/><path d="M5,5h1v1H5V5z" fill="#d4aa00"/><path d="M9,0h1v28H9V0z" fill="gray"/><path d="M9,0h1v1H9V0z" fill="#4d4d4d"/></svg></g><g class="gotchi-wearable wearable-hand wearable-hand-right"><svg x="1" y="25"><g transform="scale(-1, 1) translate(-62, 0)"><path d="M8 12v-1H6v1H5v2h1v1h2v-1h1v-2H8z" fill="#f0f"/><path d="M5 10V9H3v1H2v2h1v1h2v-1h1v-2H5z" fill="#0ff"/><path d="M11 10V9H9v1H8v2h1v1h2v-1h1v-2h-1z" fill="#ff0"/><path d="M5 14v-1H3v1H2v2h1v1h2v-1h1v-2H5z" fill="#ff8200"/><path d="M8 16v-1H6v1H5v2h1v1h2v-1h1v-2H8z" fill="#5800c0"/><path d="M8 8V7H6v1H5v2h1v1h2v-1h1V8H8z" fill="#0f0"/><path d="M11 14v-1H9v1H8v2h1v1h2v-1h1v-2h-1z" fill="#00f"/><path d="M4 5h8V2h-1V1H8V0H6v1H3v1H2v3h2zm9 1v12h1V6h-1z"/><path d="M1 16V6H0v12h1v-2zm11 2h1v1h-1z"/><path d="M1 18h1v1H1z"/><path d="M10 19H2v1h10v-1h-2zm2-14h1v1h-1zM1 5h1v1H1z"/><path d="M10 2H3v2h8V2h-1z" fill="red"/><path d="M12 6V5H2v1H1v12h1v1h10v-1h1V6h-1z" opacity=".4" fill="#cff" enable-background="new"/><g opacity=".7" fill="#cff"><path d="M10 18H2v1h10v-1h-2z"/><path d="M12 6v12h1V6h-1zM2 16V6H1v12h1v-2z"/></g></g></svg></g><g class="gotchi-wearable wearable-pet"><svg x="42" y="43"><path d="M19 2V1h-1V0h-5v1h-1v1H8V1H7V0H2v1H1v1H0v2h1v1h1v1H1v3h1v1h1v1H2v1H1v2h1v1H1v2h4v1h3v-1h1v-1h2v1h1v1h3v-1h4v-2h-1v-1h1v-2h-1v-1h-1v-1h1V9h1V6h-1V5h1V4h1V2z"/><path d="M18 3h-1v1h-3V3h-2v1h1v1h5V4h1V3zM6 3v1H3V3H1v1h1v1h5V4h1V3H7z" fill="#fff"/><g fill="#9b00dc"><path d="M17 1h-4v1h5V1zm-7 4h2V4h-1V3H9v1H8v1h1zM4 2h3V1H2v1h1zm5 11v2h2v-2h-1z"/><path d="M16 12v-2H4v2H2v2h2v1H2v1h3v-3h1v3H5v1h3v-4h1v-1h2v1h1v4h3v-1h-1v-3h1v3h3v-1h-2v-1h2v-2h-1z"/></g><path d="M17 6H2v3h16V6h-1zm0 2H3V7h14v1z" fill="#faaff3"/></svg></g></svg>