<svg xmlns="http://www.w3.org/2000/svg" viewBox="0 0 64 64"><g class="gotchi-bg"><defs fill="#fff"><pattern id="a" patternUnits="userSpaceOnUse" width="4" height="4"><path d="M0 0h1v1H0zm2 2h1v1H2z"/></pattern><pattern id="b" patternUnits="userSpaceOnUse" x="0" y="0" width="2" height="2"><path d="M0 0h1v1H0z"/></pattern><pattern id="c" patternUnits="userSpaceOnUse" x="-2" y="0" width="8" height="1"><path d="M0 0h1v1H0zm2 0h1v1H2zm2 0h1v1H4z"/></pattern><pattern id="d" patternUnits="userSpaceOnUse" x="0" y="0" width="4" height="4"><path d="M0 0h1v1H0zm0 2h1v1H0zm1 0V1h1v1zm1 0h1v1H2zm0-1h1V0H2zm1 2h1v1H3z"/></pattern><pattern id="e" patternUnits="userSpaceOnUse" width="64" height="32"><path d="M4 4h1v1H4zm7 0h1v1h-1zm7 0h1v1h-1zm7 0h1v1h-1zm7 0h1v1h-1zm7 0h1v1h-1zm7 0h1v1h-1zm7 0h1v1h-1zm7 0h1v1h-1z"/><path fill="url(#a)" d="M0 8h64v7H0z"/><path fill="url(#b)" d="M0 16h64v1H0z"/><path fill="url(#c)" d="M0 18h64v1H0z"/><path fill="url(#b)" d="M22 18h15v1H22zM0 20h64v3H0z"/><path fill="url(#d)" d="M0 24h64v8H0z"/></pattern><mask id="f"><path fill="url(#e)" d="M0 0h64v32H0z"/></mask></defs><path fill="#fff" d="M0 0h64v32H0z"/><path fill="#dea8ff" class="gotchi-secondary" mask="url(#f)" d="M0 0h64v32H0z"/><path fill="#dea8ff" class="gotchi-secondary" d="M0 32h64v32H0z"/><path mask="url(#f)" fill="#fff" transform="matrix(1 0 0 -1 0 64)" d="M0 0h64v32H0z"/></g><style>.gotchi-primary{fill:#B6509E;}.gotchi-secondary{fill:#CFEEF4;}.gotchi-cheek{fill:#F696C6;}.gotchi-eyeColor{fill:#0064FF;}.gotchi-primary-mouth{fill:#B6509E;}.gotchi-sleeves-up{display:none;}.gotchi-handsUp{display:none;}.gotchi-handsDownOpen{display:block;}.gotchi-handsDownClosed{display:none;}</style><g class="gotchi-body"><path d="M47 14v-2h-2v-2h-4V8h-4V6H27v2h-4v2h-4v2h-2v2h-2v41h4v-2h5v2h5v-2h6v2h5v-2h5v2h4V14z" class="gotchi-primary"/><path d="M45 14v-2h-4v-2h-4V8H27v2h-4v2h-4v2h-2v39h2v-2h5v2h5v-2h6v2h5v-2h5v2h2V14z" class="gotchi-secondary"/><path d="M18,49h2v-1h2v1h2v2h5v-2h2v-1h2v1h2v2h5v-2h2v-1h2v1h1V14h-4v-2h-4v-2h-5V9h-5v2h-4v2h-4v2h-1V49z" fill="#fff"/></g><path class="gotchi-cheek" d="M21 32v2h2v-2h-1zm21 0h-1v2h2v-2z"/><g class="gotchi-primary-mouth"><path d="M29 32h-2v2h2v-1z"/><path d="M33 34h-4v2h6v-2h-1z"/><path d="M36 32h-1v2h2v-2z"/></g><g class="gotchi-shadow"><path opacity=".25" d="M25 58H19v1h1v1h24V59h1V58h-1z" fill="#000"/></g>,<g class="gotchi-collateral" fill="#a73796"><path d="M30.5 15h1v-2h-1z"/><path d="M31.5 12h1v1h-1z"/><path d="M33.5 13h-1v2h1zm-4 3h-2v1h1v2h1v-2h2v-1h-1v-1h-1z"/><path d="M34.5 15h-1v2h1z"/><path d="M35.5 17h-1v2h1zm-8 4h1v-2h-1z"/><path d="M35.5 19v2h1v-2z"/></g>
    <style>
        .gotchi-bg { display: none }
    </style>
<g class="gotchi-eyeColor"><path d="M28 22H27V21H26H25H24H23V22H22V23H21V24V25V26V27H22V28H23V29H24H25H26H27V28H28V27H29V26V25V24V23H28V22Z" /><path d="M42 23V22H41V21H40H39H38H37V22H36V23H35V24V25V26V27H36V28H37V29H38H39H40H41V28H42V27H43V26V25V24V23H42Z" /></g><g class="gotchi-wearable wearable-body"><svg x="12" y="32"><style><![CDATA[.a{fill:#369c2e}.b{fill:#5fb935}.c{fill:#368528}.d{fill:#a322d4}.e{fill:#2234cb}.f{fill:#f122ad}.g{fill:#0e982e}.h{fill:#d322e8}.i{fill:#36a72e}.j{fill:#1ce4a3}.k{fill:#6822bc}.l{fill:#8a22b4}.m{fill:#18742e}.n{fill:#28ff3c}]]></style><path d="M35 1v1h-2v1h-2v1h-2v1h-2v1h-1v1h-1v1h-1v1h-1v1h-1v1h-1v1h-2v-1h-1v-1h-1V9h-1V8h-1V7h-1V6h-1V5h-2V4H9V3H7V2H5V1H3v18h34V1z" fill="#c5221c"/><path d="M35 2v1h-2v1h-2v1h-2v1h-2v1h-1v1h-1v1h-1v1h-1v1h-1v1h-2v1h1v1h-1v1h1v1h-1v1h1v1h15V9h1V2h-2zm-8 12v-1h1v1h-1zm6-4h-4V9h4v1zm-15 1h-1v-1h-1V9h-1V8h-1V7h-1V6h-2V5H9V4H7V3H5V2H3v7h1v9h15v-6h-1v-1zM7 10V9h4v1H7zm6 3v1h-1v-1h1z" fill="#f1221c"/><path d="M20,14h1v1h-1V14z" class="n"/><path d="M21 14h1v1h-1v-1zm0-2h1v1h-1v-1z" class="d"/><path d="M31,5h1v1h-1V5z" class="e"/><path d="M31,8h1v1h-1V8z" class="f"/><path d="M30,8h1v1h-1V8z" fill="#8a22a0"/><path d="M30,7h1v1h-1V7z" class="f"/><path d="M29,10h1v1h-1V10z" class="a"/><path d="M29,8h1v1h-1V8z" class="f"/><path d="M32,12h1v1h-1V12z" class="b"/><path d="M32,13h1v1h-1V13z" class="a"/><path d="M20,12h1v1h-1V12z" class="n"/><path d="M23,14h1v1h-1V14z" class="d"/><path d="M31,13h1v1h-1V13z" class="b"/><path d="M23,12h1v1h-1V12z" class="d"/><path d="M26,8h1v1h-1V8z" class="c"/><path d="M22,13h1v1h-1V13z" fill="#f122a4"/><path d="M36,2h1v1h-1V2z" fill="#b782c2"/><path d="M33,3h1v1h-1V3z" class="e"/><path d="M35,11h1v1h-1V11z" fill="#1c62a3"/><path d="M35,14h1v1h-1V14z" class="h"/><g class="i"><path d="M35 7h1v1h-1V7zm0-2h1v1h-1V5z"/><path d="M36,6h1v1h-1V6z"/></g><path d="M31,11h1v1h-1V11z" class="b"/><path d="M25,9h1v1h-1V9z" class="c"/><path d="M30,11h1v1h-1V11z" class="a"/><path d="M27,7h1v1h-1V7z" class="c"/><path d="M34,12h1v1h-1V12z" class="j"/><path d="M33,5h1v1h-1V5z" class="e"/><path d="M34,6h1v1h-1V6z" class="i"/><path d="M34,10h1v1h-1V10z" class="j"/><path d="M30,12h1v1h-1V12z" class="b"/><path d="M24,10h1v1h-1V10z" class="c"/><path d="M31,12h1v1h-1V12z" class="a"/><path d="M20,16h1v1h-1V16z" class="n"/><path d="M21,16h1v1h-1V16z" class="k"/><path d="M26,16h1v1h-1V16z" class="g"/><path d="M32 15h1v1h-1v-1zm-2 0h1v1h-1v-1z" class="l"/><path d="M25,16h1v1h-1V16z" class="m"/><path d="M31,16h1v1h-1V16z" fill="#cec81c"/><path d="M35,15h1v1h-1V15z" fill="#ba911c"/><g class="h"><path d="M35,16h1v1h-1V16z"/><path d="M34,15h1v1h-1V15z"/></g><path d="M21,17h1v1h-1V17z" fill="#84861c"/><path d="M32 17h1v1h-1v-1zm-2 0h1v1h-1v-1z" class="l"/><path d="M25,17h1v1h-1V17z" class="g"/><path d="M22,17h1v1h-1V17z" class="k"/><path d="M26,17h1v1h-1V17z" class="m"/><path d="M27,17h1v1h-1V17z" class="g"/><path d="M18 14h1v1h-1v-1zm0-2h1v1h-1v-1z" class="d"/><path d="M8,5h1v1H8V5z" class="e"/><path d="M8,8h1v1H8V8z" class="f"/><path d="M9,8h1v1H9V8z" fill="#8a22a0"/><path d="M9,7h1v1H9V7z" class="f"/><path d="M10,10h1v1h-1V10z" class="a"/><path d="M10,8h1v1h-1V8z" class="f"/><path d="M7,12h1v1H7V12z" class="b"/><path d="M7,13h1v1H7V13z" class="a"/><path d="M16,14h1v1h-1V14z" class="d"/><path d="M8,13h1v1H8V13z" class="b"/><path d="M16,12h1v1h-1V12z" class="d"/><path d="M13,8h1v1h-1V8z" class="c"/><path d="M17,13h1v1h-1V13z" fill="#f122a4"/><path d="M3,2h1v1H3V2z" fill="#b782c2"/><path d="M6,3h1v1H6V3z" class="e"/><path d="M4,11h1v1H4V11z" fill="#1c62a3"/><path d="M4,14h1v1H4V14z" class="h"/><g class="i"><path d="M4 7h1v1H4V7zm0-2h1v1H4V5z"/><path d="M3,6h1v1H3V6z"/></g><path d="M8,11h1v1H8V11z" class="b"/><path d="M14,9h1v1h-1V9z" class="c"/><path d="M9,11h1v1H9V11z" class="a"/><path d="M12,7h1v1h-1V7z" class="c"/><path d="M5,12h1v1H5V12z" class="j"/><path d="M6,5h1v1H6V5z" class="e"/><path d="M5,6h1v1H5V6z" class="i"/><g fill="#367f2e"><path d="M36,5h1v1h-1V5z"/><path d="M35,6h1v1h-1V6z"/><path d="M34 7h1v1h-1V7zM3 5h1v1H3V5z"/><path d="M4,6h1v1H4V6z"/><path d="M5,7h1v1H5V7z"/></g><path d="M5,10h1v1H5V10z" class="j"/><g fill="#077c22"><path d="M26,9h1v1h-1V9z"/><path d="M25 10h1v1h-1v-1zm0-2h1v1h-1V8z"/><path d="M24 9h1v1h-1V9zM13 9h1v1h-1V9z"/><path d="M14 10h1v1h-1v-1zm0-2h1v1h-1V8z"/><path d="M15,9h1v1h-1V9z"/></g><path d="M9,12h1v1H9V12z" class="b"/><path d="M15,10h1v1h-1V10z" class="c"/><g fill="#e8dc21"><path d="M32 4h1v1h-1V4zm-5 10h1v1h-1v-1zm0-2h1v1h-1v-1z"/><path d="M26 13h1v1h-1v-1zm2 0h1v1h-1v-1zM7 4h1v1H7V4zm5 10h1v1h-1v-1zm0-2h1v1h-1v-1z"/><path d="M13 13h1v1h-1v-1zm-2 0h1v1h-1v-1z"/></g><path d="M8,12h1v1H8V12z" class="a"/><path d="M18,16h1v1h-1V16z" class="k"/><path d="M13,16h1v1h-1V16z" class="g"/><path d="M7 15h1v1H7v-1zm2 0h1v1H9v-1z" class="l"/><path d="M14,16h1v1h-1V16z" class="m"/><path d="M8,16h1v1H8V16z" fill="#cec81c"/><path d="M4,15h1v1H4V15z" fill="#ba911c"/><g class="h"><path d="M4,16h1v1H4V16z"/><path d="M5,15h1v1H5V15z"/></g><path d="M18,17h1v1h-1V17z" fill="#84861c"/><path d="M7 17h1v1H7v-1zm2 0h1v1H9v-1z" class="l"/><path d="M14,17h1v1h-1V17z" class="g"/><path d="M17,17h1v1h-1V17z" class="k"/><path d="M13,17h1v1h-1V17z" class="m"/><path d="M12,17h1v1h-1V17z" class="g"/></svg></g><g class="gotchi-handsDownClosed"><g class="gotchi-primary"><path d="M19 42h1v1h-1zm1-6h1v1h-1z"/><path d="M21 37h1v1h-1zm5 3v4h1v-4zm-5 3h-1v1h2v-1z"/><path d="M24 44h-2v1h4v-1h-1zm1-5h-1v1h2v-1z"/><path d="M23 38h-1v1h2v-1z"/></g><g class="gotchi-secondary"><path d="M19 43h1v1h-1zm5 2h-2v1h4v-1h-1z"/><path d="M27 41v3h1v-3zm-6 3h-1v1h2v-1z"/><path d="M26 44h1v1h-1zm-7-3h-1v2h1v-1z"/></g><g class="gotchi-primary"><path d="M44 42h1v1h-1zm-1-6h1v1h-1z"/><path d="M42 37h1v1h-1z"/><path d="M42 39v-1h-2v1h1zm0 4v1h2v-1h-1z"/><path d="M40 44h-2v1h4v-1h-1z"/><path d="M38 42v-2h-1v4h1v-1z"/><path d="M40 40v-1h-2v1h1z"/></g><g class="gotchi-secondary"><path d="M42 44v1h2v-1h-1zm-5-2v-1h-1v3h1v-1z"/><path d="M40 45h-2v1h4v-1h-1z"/><path d="M37 44h1v1h-1zm7-1h1v1h-1z"/></g></g><g class="gotchi-handsDownOpen"><g class="gotchi-primary"><path d="M56 38v-1h-2v-1h-2v-1h-1v-1h-1v-1h-1v8h1v1h2v1h4v-1h1v-4z"/></g><g class="gotchi-secondary"><path d="M54 38v-1h-2v-1h-1v-1h-1v-1h-1v6h1v1h2v1h4v-4z" /></g><path d="M54,38v-1h-2v-1h-1v-1h-1v-1h-1v5h1v1h2v1h4v-3H54z" fill="#fff"/><g class="gotchi-primary"><path d="M8 38v-1h2v-1h2v-1h1v-1h1v-1h1v8h-1v1h-2v1H8v-1H7v-4z"/></g><g class="gotchi-secondary"><path d="M10 38v-1h2v-1h1v-1h1v-1h1v6h-1v1h-2v1H8v-4z" /></g><path d="M8,38v3h4v-1h2v-1h1v-5h-1v1h-1v1h-1v1h-2v1H8z" fill="#fff"/></g><g class="gotchi-handsUp"><g class="gotchi-secondary"><path d="M50,38h1v1h-1V38z"/><path d="M49 39h1v1h-1v-1zm2-2h1v1h-1v-1z"/><path d="M52,36h2v1h-2V36z"/><path d="M54,35h2v1h-2V35z"/></g><path d="M52,32v1h-2v1h-1v5h1v-1h1v-1h1v-1h2v-1h2v-3H52z" fill="#fff"/><g class="gotchi-primary"><path d="M49,33h1v1h-1V33z"/><path d="M50 32h2v1h-2v-1zm0 7h1v1h-1v-1z"/><path d="M49 40h1v1h-1v-1zm2-2h1v1h-1v-1z"/><path d="M52 37h2v1h-2v-1zm0-6h4v1h-4v-1z"/><path d="M56,32h1v4h-1V32z"/><path d="M54,36h2v1h-2V36z"/></g><g class="gotchi-secondary"><path d="M13,38h1v1h-1V38z"/><path d="M14 39h1v1h-1v-1zm-2-2h1v1h-1v-1z"/><path d="M10,36h2v1h-2V36z"/><path d="M8,35h2v1H8V35z"/></g><path d="M8,32v3h2v1h2v1h1v1h1v1h1v-5h-1v-1h-2v-1H8z" fill="#fff"/><g class="gotchi-primary"><path d="M14,33h1v1h-1V33z"/><path d="M12 32h2v1h-2v-1zm1 7h1v1h-1v-1z"/><path d="M14 40h1v1h-1v-1zm-2-2h1v1h-1v-1z"/><path d="M10 37h2v1h-2v-1zm-2-6h4v1H8v-1z"/><path d="M7,32h1v4H7V32z"/><path d="M8,36h2v1H8V36z"/></g></g><g class="gotchi-wearable wearable-face"><svg x="15" y="21"><path fill="#773e1d" d="M11 14h-1v-1H9v-1H8v-1H6v-1H5V9H4V8H3V0H0v12h2v1h1v1h1v1h2v1h2v1h4v-2h-1v-1zm7 2h-4v1h1v1h1v1h2v-1h1v-1h1v-1h-2zM31 0v8h-1v1h-1v1h-1v1h-2v1h-1v1h-1v1h-1v1h-1v2h4v-1h2v-1h2v-1h1v-1h1v-1h2V0h-3z"/></svg></g><g class="gotchi-wearable wearable-eyes"><svg x="15" y="22"><path d="M34 2h-1-3V1h-1V0H5v1H4v1H1 0v1 1 1h1 3v3h1v1h10V8h1V5h2v3h1v1h10V8h1V5h3 1V4 3 2z" fill="#0448b9"/><g fill="#0060ff"><path d="M15 3h1V2h-1V1H5v1H4v1h1v1H4v1h1v1H4v1h1v1h10V7h1V6h-1V5h1V4h-1V3zm14 0h1V2h-1V1H19v1h-1v1h1v1h-1v1h1v1h-1v1h1v1h10V7h1V6h-1V5h1V4h-1V3z"/><path d="M17 3h-1v1h2V3h-1zM3 3h1v1H3zm27 0h1v1h-1z"/></g><path d="M33 3V2h-1v3h1V4h1V3h-1z" fill="#fdfdff"/><path d="M32 3h1v1h-1z" fill="#ffd200"/><path d="M1 4v1h1V2H1v1H0v1h1z" fill="#fdfdff"/><path d="M1 3h1v1H1zm3-1h1v1H4zm0 2h1v1H4zm0 2h1v1H4zm25-4h1v1h-1zm0 2h1v1h-1zm0 2h1v1h-1zM15 2h1v1h-1zm0 2h1v1h-1zm0 2h1v1h-1zm3-4h1v1h-1zm0 2h1v1h-1zm0 2h1v1h-1z" fill="#ffd200"/><path d="M14 1H6v1H5v5h1v1h8V7h1V2h-1V1zm14 1V1h-8v1h-1v5h1v1h8V7h1V2h-1z" fill="#abfbff"/><path d="M10 1v2H9v2H8v2H7v1h2V7h1V5h1V3h1V1h-2zm14 0v2h-1v2h-1v2h-1v1h2V7h1V5h1V3h1V1h-2z" fill="#d7ffff"/></svg></g><g class="gotchi-wearable wearable-head"><svg x="7" y="0"><path d="M6 6h2v2H6V6zm2-4h2v2H8V2zm-4 8h2v2H4v-2zm-2 4h2v2H2v-2zM0 26h2v2H0v-2zM13 0h2v2h-2V0zM0 20h2v2H0v-2zm46-6h2v2h-2v-2zM32 0h2v2h-2V0z"/><path d="M48 24v-2h-3v-4h1v-2h-2v-4h-2V8h-5V6h2V4h-7V2H15v2h-5v2h2v2H8v4H6v4H4v2h1v4H2v2h3v4H2v2h5v3h3v1h1V22h1v-2h2v-2h2v-4h2v-2h2v-2h2V8h8v2h4v2h4v2h2v19h3v-3h5v-2h-3v-4h3z"/><path d="M48 20h2v2h-2v-2zm0 6h2v2h-2v-2zM39 2h2v2h-2V2zm5 8h2v2h-2v-2zm-2-4h2v2h-2V6z"/></svg></g>"><svg x="12" y="32"><g><g class="gotchi-sleeves gotchi-sleeves-left gotchi-sleeves-up"><path d="M36.5 1v1h.2v7H38V8h1V7h1V0h-2v1h-1.5z" fill="#c5221c"/><path d="M36.5,2v7H37V8h1V7h1V1h-1v1H36.5z" fill="#f1221c"/><path d="M39,3h-1V2h1V3z" fill="#f1751c"/><path d="M38,6h-1.8V5H38V6z" fill="#367f2e"/><path d="M37 3h-.8V2h.8v1z" fill="#b782c2"/><path d="M37 7h-.8V6h.8v1z" fill="#36a72e"/></g><g class="gotchi-sleeves gotchi-sleeves-left gotchi-sleeves-down"><path d="M36 1v1h.8v7H38v1h2V3h-1V2h-1V1h-2z" fill="#c5221c"/><path d="M36.5,2v7H37V8h1v1h1V3h-1V2H36.5z" fill="#f1221c"/><path d="M39,8h-1V7h1V8z" fill="#f1751c"/><path d="M38,5h-1V4h1V5z" fill="#367f2e"/><path d="M37 3h-.8V2h.8v1z" fill="#b782c2"/><path d="M37 7h-.8V6h.8v1z" fill="#36a72e"/><path d="M37 6h-.8V5h.8v1z" fill="#367f2e"/></g><g class="gotchi-sleeves gotchi-sleeves-right gotchi-sleeves-up"><path d="M2 1V0H0v7h1v1h1v1h1.3V2h.2V1H2z" fill="#c5221c"/><path d="M2 2V1H1v6h1v1h1v1h.5V2H2z" fill="#f1221c"/><path d="M1,2h1v1H1V2z" fill="#f1751c"/><path d="M2,5h1.8v1H2V5z" fill="#367f2e"/><path d="M3 2h.8v1H3V2z" fill="#b782c2"/><path d="M3 6h.8v1H3V6z" fill="#36a72e"/></g><g class="gotchi-sleeves gotchi-sleeves-right gotchi-sleeves-down"><path d="M2,1v1H1v1H0v7h2V9h1.2V2H4V1H2z" fill="#c5221c"/><path d="M2 2v1H1v6h1V8h1v1h.5V2H2z" fill="#f1221c"/><path d="M1,7h1v1H1V7z" fill="#f1751c"/><path d="M2,4h1v1H2V4z" fill="#367f2e"/><path d="M3 2h.8v1H3V2z" fill="#b782c2"/><path d="M3 6h.8v1H3V6z" fill="#36a72e"/><path d="M3 5h.8v1H3V5z" fill="#367f2e"/></g></g>,</svg><g class="gotchi-wearable wearable-hand wearable-hand-left"><svg x="1" y="30"><svg xmlns="http://www.w3.org/2000/svg" width="13" height="20"><path fill="#d7c3b4" d="M0 7v6h1v2h1v2h1v1h1v1h2v1h5v-1h1v-1h1v-4h-1v-1h-1v-1h-1V8h1V7h1V6h1V2h-1V1h-1V0H6v1H4v1H3v1H2v2H1v2H0zm9 5v1H7v-1H6V8h1V7h2v1H8v4h1z"/><path fill="#0ff" d="M8,2v2h2V2H8z"/><path fill="#ff0" d="M4,5v2h2V5H4z"/><path fill="#7d00ff" d="M8,16v2h2v-2H8z"/><path fill="#f0f" d="M4,13v2h2v-2H4z"/><path fill="#0f0" d="M2,9v2h2V9H2z"/></svg></svg></g><g class="gotchi-wearable wearable-hand wearable-hand-right"><svg x="1" y="24"><g transform="scale(-1, 1) translate(-62, 0)"><path d="M12 1V0H1v1H0v6h1v1h5v14h1V8h5V7h1V1z"/><path d="M1 1h11v6H1z" fill="#fff"/><g fill="#205fec"><path d="M10,2h1v1h-1V2z"/><path d="M9 3h1v1H9V3zM6 3h1v1H6V3z"/><path d="M5,2h1v1H5V2z"/><path d="M4,3h1v1H4V3z"/><path d="M3,4h1v1H3V4z"/><path d="M2,5h1v1H2V5z"/></g><g fill="#88bdf3"><path d="M11 3h1v1h-1V3zM8 4h1v1H8V4z"/><path d="M7 3h1v1H7V3zM1 4h1v1H1V4z"/></g></g></svg></g><g class="gotchi-wearable wearable-pet"><svg x="42" y="38"><path d="M19 6V5h-1V4h-3V2h1V1h-1V0h-2v1h-2V0H9v1H7V0H5v1H4v1h1v2H2v1H1v1H0v2h1v1h1v1H1v4h1v1h1v1H2v1H1v2h1v1H1v2h4v1h3v-1h1v-1h2v1h1v1h3v-1h4v-2h-1v-1h1v-2h-1v-1h-1v-1h1v-1h1v-4h-1V9h1V8h1V6h-1z"/><path d="M18 7h-1v1h-3V7h-2v1h1v1h5V8h1V7h-1zM6 7v1H3V7H1v1h1v1h5V8h1V7H6z" fill="#fff"/><g fill="#faaff3"><path d="M17 5h-4v1h5V5h-1zm-7 4h2V8h-1V7H9v1H8v1h2zM4 6h3V5H2v1h2zm5 12v2h2v-2H9z"/><path d="M16 17v-2H4v2H2v2h2v1H2v1h3v-3h1v3H5v1h3v-4h1v-1h2v1h1v4h3v-1h-1v-3h1v3h3v-1h-2v-1h2v-2h-2z"/></g><path d="M17 10H2v4h16v-4h-1zm0 2v1H3v-2h14v1z" fill="#ef1e26"/><path d="M13 1v1h-2V1H9v1H7V1H5v1h1v2h2v2h4V4h2V2h1V1z" fill="#ffc03c"/><path d="M5 1v1h2V1H5zm4 0v1h2V1H9zm5 0h-1v1h2V1h-1z" fill="#ffe600"/><path d="M11,4H8v2h4V4H11z" fill="#ff9600"/><path d="M13,2H6v2h8V2H13z" fill="#ffc03c"/><defs /></svg></g></svg>