<svg xmlns="http://www.w3.org/2000/svg" viewBox="0 0 64 64"><g class="gotchi-bg"><defs fill="#fff"><pattern id="a" patternUnits="userSpaceOnUse" width="4" height="4"><path d="M0 0h1v1H0zm2 2h1v1H2z"/></pattern><pattern id="b" patternUnits="userSpaceOnUse" x="0" y="0" width="2" height="2"><path d="M0 0h1v1H0z"/></pattern><pattern id="c" patternUnits="userSpaceOnUse" x="-2" y="0" width="8" height="1"><path d="M0 0h1v1H0zm2 0h1v1H2zm2 0h1v1H4z"/></pattern><pattern id="d" patternUnits="userSpaceOnUse" x="0" y="0" width="4" height="4"><path d="M0 0h1v1H0zm0 2h1v1H0zm1 0V1h1v1zm1 0h1v1H2zm0-1h1V0H2zm1 2h1v1H3z"/></pattern><pattern id="e" patternUnits="userSpaceOnUse" width="64" height="32"><path d="M4 4h1v1H4zm7 0h1v1h-1zm7 0h1v1h-1zm7 0h1v1h-1zm7 0h1v1h-1zm7 0h1v1h-1zm7 0h1v1h-1zm7 0h1v1h-1zm7 0h1v1h-1z"/><path fill="url(#a)" d="M0 8h64v7H0z"/><path fill="url(#b)" d="M0 16h64v1H0z"/><path fill="url(#c)" d="M0 18h64v1H0z"/><path fill="url(#b)" d="M22 18h15v1H22zM0 20h64v3H0z"/><path fill="url(#d)" d="M0 24h64v8H0z"/></pattern><mask id="f"><path fill="url(#e)" d="M0 0h64v32H0z"/></mask></defs><path fill="#fff" d="M0 0h64v32H0z"/><path fill="#dea8ff" class="gotchi-secondary" mask="url(#f)" d="M0 0h64v32H0z"/><path fill="#dea8ff" class="gotchi-secondary" d="M0 32h64v32H0z"/><path mask="url(#f)" fill="#fff" transform="matrix(1 0 0 -1 0 64)" d="M0 0h64v32H0z"/></g><style>.gotchi-primary{fill:#B6509E;}.gotchi-secondary{fill:#CFEEF4;}.gotchi-cheek{fill:#F696C6;}.gotchi-eyeColor{fill:#FF00FF;}.gotchi-primary-mouth{fill:#B6509E;}.gotchi-sleeves-up{display:none;}.gotchi-handsUp{display:none;}.gotchi-handsDownOpen{display:block;}.gotchi-handsDownClosed{display:none;}</style><g class="gotchi-body"><path d="M47 14v-2h-2v-2h-4V8h-4V6H27v2h-4v2h-4v2h-2v2h-2v41h4v-2h5v2h5v-2h6v2h5v-2h5v2h4V14z" class="gotchi-primary"/><path d="M45 14v-2h-4v-2h-4V8H27v2h-4v2h-4v2h-2v39h2v-2h5v2h5v-2h6v2h5v-2h5v2h2V14z" class="gotchi-secondary"/><path d="M18,49h2v-1h2v1h2v2h5v-2h2v-1h2v1h2v2h5v-2h2v-1h2v1h1V14h-4v-2h-4v-2h-5V9h-5v2h-4v2h-4v2h-1V49z" fill="#fff"/></g><path class="gotchi-cheek" d="M21 32v2h2v-2h-1zm21 0h-1v2h2v-2z"/><g class="gotchi-primary-mouth"><path d="M29 32h-2v2h2v-1z"/><path d="M33 34h-4v2h6v-2h-1z"/><path d="M36 32h-1v2h2v-2z"/></g><g class="gotchi-shadow"><path opacity=".25" d="M25 58H19v1h1v1h24V59h1V58h-1z" fill="#000"/></g>,<g class="gotchi-collateral" fill="#a73796"><path d="M30.5 15h1v-2h-1z"/><path d="M31.5 12h1v1h-1z"/><path d="M33.5 13h-1v2h1zm-4 3h-2v1h1v2h1v-2h2v-1h-1v-1h-1z"/><path d="M34.5 15h-1v2h1z"/><path d="M35.5 17h-1v2h1zm-8 4h1v-2h-1z"/><path d="M35.5 19v2h1v-2z"/></g>
    <style>
        .gotchi-bg { display: none }
    </style>
<g class="gotchi-eyeColor"><rect x="21" y="23" width="8" height="2" class="gotchi-primary" /><rect x="35" y="23" width="8" height="2" class="gotchi-primary" /><rect x="38" y="25" width="2" height="2" /><rect x="24" y="25" width="2" height="2" /></g><g class="gotchi-wearable wearable-body"><svg x="11" y="33"><path d="M38 0h-3v1h-2v1h-2v1h-2v1h-2v1h-2v2h-2v1h-1v1h-2V8h-1V7h-2V5h-2V4h-2V3h-2V2H9V1H7V0H4v22h4v-2h5v2h5v-2h6v2h5v-2h5v2h4V0z" fill="#0064b4"/><path d="M36 15v-2h-1v-2h-1v-1h-5v1h-2v2h-1v2h-1v1h-1v1h-2v1h2v2h5v-2h5v2h3v-4h-1v-1zm-18 2v-1h-1v-1h-1v-2h-1v-2h-2v-1H8v1H7v2H6v3H5v4h3v-2h5v2h5v-2h2v-1h-2z" fill="#0af"/><g fill="#ff0096"><path d="M14,5h-1v1h2V5H14z"/><path d="M15 6v1h2V6h-2zm13-1h-1v1h2V5h-1z"/><path d="M25,6v1h2V6H25z"/></g><g fill="#0000be"><path d="M14,4h-1v1h2V4H14z"/><path d="M15 5v1h2V5h-2zm13-1h-1v1h2V4h-1z"/><path d="M25,5v1h2V5H25z"/></g><g fill="#ffbe00"><path d="M5 8V7H4v3h1V8zm-1 5h1v1H4v-1z"/><path d="M20 10v1h2v-1h-2zm-7-4V4h-2V3H9V2H7V1H4v2h1v4h1v3H5v1H4v1h1v1h1v-2h1v-1h1V7H7V4h1v3h1v2h2V7h-1V5h1v2h1v2h1v1h1V7h1V6h-2z"/><path d="M19,9V8h-2v1h1v1h2V9H19z"/><path d="M16 7h1v1h-1V7zm21-6h-2v1h-2v1h-2v1h-2v2h-2v1h1v3h1V9h1V7h1V5h1v2h-1v2h2V7h1V4h1v3h-1v3h1v1h1v2h1v-1h1v-1h-1v-1h-1V7h1V3h1V1h-1z"/><path d="M37 9v1h1V7h-1v2zm0 4h1v1h-1v-1zm-16-1h-1v-1h-3v-1h-1v3h1v-1h2v1h-2v2h1v-1h6v1h1v-2h-2v-1h2v1h1v-3h-1v1h-3v1h-1zm4-5h1v1h-1V7z"/><path d="M23,8v1h-1v1h2V9h1V8H23z"/></g><g fill="#fff"><path d="M17 10h1v1h-1v-1zm3 6v1h2v-1h-2z"/><path d="M19 15v-1h-1v2h2v-1h-1zm-2-7h-1V7h-1v3h2V8zm7 2h1v1h-1v-1z"/><path d="M26 7v1h-1v2h2V7h-1zm-3 8h-1v1h2v-2h-1v1z"/></g><path d="M7,10h1v1H7V10z"/><path d="M6 12v1h1v-2H6v1zM5 5V3H4v4h1V5z"/><path d="M6,9V7H5v3h1V9z"/><path d="M4 10h1v1H4v-1zm0 2h1v1H4v-1z"/><path d="M5 14H4v2h2v-3H5v1zm12-5h1v1h-1V9zM8 5V4H7v3h1V5z"/><path d="M12 9V7h-1v2H9V7H8v3h5V9h-1zm5 4h-1v2h1v-2z"/><path d="M17 15h1v1h-1v-1zm-1-4v-1h-1V7h-1v3h-1v1h2v2h1v-2zm-5-7h2V3h-2v1z"/><path d="M10 3h1V2H9v1h1z"/><path d="M8 2h1V1H7v1h1zm11 6h1v1h-1V8z"/><path d="M18 7h-1v1h2V7h-1zm4 9v1h2v-1h-2zm-3 0h-1v1h2v-1h-1zM7 1V0H4v1h3zm4 4h-1v2h1V5zm8 8v-1h-2v1h2zm0-2h1v-1h-2v1h1z"/><path d="M20 11v1h2v-1h-2zM35 0v1h3V0h-3zm-1 10h1v1h-1v-1z"/><path d="M36 11h-1v2h1v-2zm0-3v2h1V7h-1v1z"/><path d="M37 10h1v1h-1v-1zm0 2h1v1h-1v-1z"/><path d="M36 14v2h2v-2h-1v-1h-1v1zm-4-8V5h-1v2h1V6zm-4 3V7h-1v3h-1v3h1v-2h2v-1h-1V9zm-4 0h1v1h-1V9zm13-5v3h1V3h-1v1zm-2 2V4h-1v3h1V6z"/><path d="M34 8V7h-1v2h-2V7h-1v2h-1v1h5V8zm-9 6v1h1v-2h-1v1z"/><path d="M24 15h1v1h-1v-1zm0-3h-1v1h2v-1h-1zm7-8V3h-2v1h2z"/><path d="M31,2v1h2V2H31z"/><path d="M33 1v1h2V1h-2zM23 11h1v-1h-2v1h1zm-1-3h1v1h-1V8z"/><path d="M25 8V7h-2v1h2zm-3 2V9h-2v1h2zm0 6v-1h1v-1h-4v1h1v1h2zm-2 1v1h2v-1h-2z"/><defs /></svg></g><g class="gotchi-handsDownClosed"><g class="gotchi-primary"><path d="M19 42h1v1h-1zm1-6h1v1h-1z"/><path d="M21 37h1v1h-1zm5 3v4h1v-4zm-5 3h-1v1h2v-1z"/><path d="M24 44h-2v1h4v-1h-1zm1-5h-1v1h2v-1z"/><path d="M23 38h-1v1h2v-1z"/></g><g class="gotchi-secondary"><path d="M19 43h1v1h-1zm5 2h-2v1h4v-1h-1z"/><path d="M27 41v3h1v-3zm-6 3h-1v1h2v-1z"/><path d="M26 44h1v1h-1zm-7-3h-1v2h1v-1z"/></g><g class="gotchi-primary"><path d="M44 42h1v1h-1zm-1-6h1v1h-1z"/><path d="M42 37h1v1h-1z"/><path d="M42 39v-1h-2v1h1zm0 4v1h2v-1h-1z"/><path d="M40 44h-2v1h4v-1h-1z"/><path d="M38 42v-2h-1v4h1v-1z"/><path d="M40 40v-1h-2v1h1z"/></g><g class="gotchi-secondary"><path d="M42 44v1h2v-1h-1zm-5-2v-1h-1v3h1v-1z"/><path d="M40 45h-2v1h4v-1h-1z"/><path d="M37 44h1v1h-1zm7-1h1v1h-1z"/></g></g><g class="gotchi-handsDownOpen"><g class="gotchi-primary"><path d="M56 38v-1h-2v-1h-2v-1h-1v-1h-1v-1h-1v8h1v1h2v1h4v-1h1v-4z"/></g><g class="gotchi-secondary"><path d="M54 38v-1h-2v-1h-1v-1h-1v-1h-1v6h1v1h2v1h4v-4z" /></g><path d="M54,38v-1h-2v-1h-1v-1h-1v-1h-1v5h1v1h2v1h4v-3H54z" fill="#fff"/><g class="gotchi-primary"><path d="M8 38v-1h2v-1h2v-1h1v-1h1v-1h1v8h-1v1h-2v1H8v-1H7v-4z"/></g><g class="gotchi-secondary"><path d="M10 38v-1h2v-1h1v-1h1v-1h1v6h-1v1h-2v1H8v-4z" /></g><path d="M8,38v3h4v-1h2v-1h1v-5h-1v1h-1v1h-1v1h-2v1H8z" fill="#fff"/></g><g class="gotchi-handsUp"><g class="gotchi-secondary"><path d="M50,38h1v1h-1V38z"/><path d="M49 39h1v1h-1v-1zm2-2h1v1h-1v-1z"/><path d="M52,36h2v1h-2V36z"/><path d="M54,35h2v1h-2V35z"/></g><path d="M52,32v1h-2v1h-1v5h1v-1h1v-1h1v-1h2v-1h2v-3H52z" fill="#fff"/><g class="gotchi-primary"><path d="M49,33h1v1h-1V33z"/><path d="M50 32h2v1h-2v-1zm0 7h1v1h-1v-1z"/><path d="M49 40h1v1h-1v-1zm2-2h1v1h-1v-1z"/><path d="M52 37h2v1h-2v-1zm0-6h4v1h-4v-1z"/><path d="M56,32h1v4h-1V32z"/><path d="M54,36h2v1h-2V36z"/></g><g class="gotchi-secondary"><path d="M13,38h1v1h-1V38z"/><path d="M14 39h1v1h-1v-1zm-2-2h1v1h-1v-1z"/><path d="M10,36h2v1h-2V36z"/><path d="M8,35h2v1H8V35z"/></g><path d="M8,32v3h2v1h2v1h1v1h1v1h1v-5h-1v-1h-2v-1H8z" fill="#fff"/><g class="gotchi-primary"><path d="M14,33h1v1h-1V33z"/><path d="M12 32h2v1h-2v-1zm1 7h1v1h-1v-1z"/><path d="M14 40h1v1h-1v-1zm-2-2h1v1h-1v-1z"/><path d="M10 37h2v1h-2v-1zm-2-6h4v1H8v-1z"/><path d="M7,32h1v4H7V32z"/><path d="M8,36h2v1H8V36z"/></g></g><g class="gotchi-wearable wearable-face"><svg x="15" y="21"><path fill="#773e1d" d="M11 14h-1v-1H9v-1H8v-1H6v-1H5V9H4V8H3V0H0v12h2v1h1v1h1v1h2v1h2v1h4v-2h-1v-1zm7 2h-4v1h1v1h1v1h2v-1h1v-1h1v-1h-2zM31 0v8h-1v1h-1v1h-1v1h-2v1h-1v1h-1v1h-1v1h-1v2h4v-1h2v-1h2v-1h1v-1h1v-1h2V0h-3z"/></svg></g><g class="gotchi-wearable wearable-eyes"><svg x="15" y="21"><path d="M0 0v2h19v5h1v2h2v1h3V9h2V7h1V2h6V0H0z" fill="#0e0c15"/></svg></g><g class="gotchi-wearable wearable-head"><svg x="15" y="6"><path d="M33 8h-1V6h-2V4h-4V2h-4V0H12v2H8v2H4v2H2v2H0v37h2V19h1v-1h2v-1h2v-1h2v-1h2v-1h1v-1h1v-1h1v1h1v1h2v1h2v1h2v1h2v1h2v1h2v1h2v1h2v1h1v23h2V8z" fill="#9300d7"/><g fill="#ac27ff"><path d="M12 10h-1V8h-1V7H9V5H8v1H4v2H2v10h1v-1h2v-1h2v-1h2v-1h3v-2h1v-1h-1z"/><path d="M31 8h-1V6h-4V4h-4V2H12v2H9v1h1v2h1v1h1v2h1v1h1v1h1v1h2v1h2v1h2v1h2v1h2v1h2v1h2v1h2v1h1V8z"/></g><g fill="#c260ff"><path d="M11 5h-1v2h1V6zM8 5h1v1H8z"/><path d="M11 4h1v1h-1zM9 4h1v1H9zm5 0V3h-1v2h1zm1 1h1V3h-1v1zm3 0h1v1h-1z"/><path d="M17 5h1V3h-1v1zm2 0h2V4h-1V3h-1v1z"/><path d="M22 6h1V5h-2v1zm3-1h1v1h-1z"/><path d="M25 5V4h-2v1h1zm-4-2h1v1h-1zm-8 4h1v1h-1zm-2 0h1v1h-1z"/><path d="M12 7h1V5h-1v1zM8 8h1V7H7v1z"/><path d="M7 7V6H5v1h1z"/><path d="M4 7h1v1H4zm11 0h1v1h-1z"/><path d="M15 6V5h-1v2h1zm3 2h1V7h-2v1z"/><path d="M16 7h1V5h-1v1zm4 0h1V6h-2v1z"/><path d="M21 7v1h2V7h-1z"/><path d="M23 6v1h2V6h-1z"/><path d="M26 8h1V7h-2v1zm3-1h1v1h-1z"/><path d="M29 7V6h-2v1h1zM13 8h-1v2h1V9zM9 8h1v1H9z"/><path d="M7 9v1h2V9H8z"/><path d="M7 9V8H5v1h1z"/><path d="M5 10V9H3v1h1zm10-2h-1v2h1V9zm1 0h1v1h-1z"/><path d="M18 9h-1v1h2V9z"/><path d="M19 8v1h2V8h-1z"/><path d="M22 10h1V9h-2v1z"/><path d="M24 9h1V8h-2v1z"/><path d="M25 9v1h2V9h-1z"/><path d="M27 8v1h2V8h-1zm-16 3h1v1h-1z"/><path d="M10 11h1v-1H9v1z"/><path d="M7 11v1h2v-1H8z"/><path d="M7 11v-1H5v1h1z"/><path d="M5 12v-1H3v1h1zm8-2h1v1h-1zm3 0h-1v1h2v-1z"/><path d="M14 11h1v1h-1zm4 0h-1v1h2v-1z"/><path d="M20 10h-1v1h2v-1z"/><path d="M22 11h-1v1h2v-1z"/><path d="M23 10v1h2v-1h-1z"/><path d="M25 11v1h2v-1h-1z"/><path d="M27 10v1h2v-1h-1z"/><path d="M29 11v1h2v-1h-1zm1-2h-1v1h2V9z"/><path d="M31 8h1v1h-1zm0 2h1v1h-1zM2 8h1v1H2zm0 2h1v1H2zm29 2h1v1h-1zm0 2h1v1h-1z"/><path d="M29 13v1h2v-1h-1z"/><path d="M27 12v1h2v-1h-1z"/><path d="M25 13v1h2v-1h-1z"/><path d="M24 12h-1v1h2v-1z"/><path d="M22 13h-1v1h2v-1zm7 2v1h2v-1h-1z"/><path d="M26 15h-1v1h2v-1zm5 1h1v1h-1zm0 2h1v1h-1zm0 2h1v1h-1z"/><path d="M29 19v1h2v-1h-1zm0-2v1h2v-1h-1z"/><path d="M27 16v1h2v-1h-1zm0-2v1h2v-1h-1zm-3 0h-1v1h2v-1zm-4-2h-1v1h2v-1zm8 6h-1v1h2v-1z"/><path d="M26 17h-1v1h2v-1z"/><path d="M24 16h-1v1h2v-1z"/><path d="M22 15h-1v1h2v-1z"/><path d="M20 14h-1v1h2v-1z"/><path d="M18 13h-1v1h2v-1z"/><path d="M16 12h-1v1h2v-1zm-5 1h1v1h-1z"/><path d="M9 12v1h2v-1h-1z"/><path d="M7 13v1h2v-1H8zm-2 1v-1H3v1h1z"/><path d="M5 12v1h2v-1H6zm0 2v1h2v-1H6zm-3 0h1v1H2z"/><path d="M3 15v1h2v-1H4z"/><path d="M2 16h1v1H2zm0-4h1v1H2zM12 2h1v1h-1zm2 0h1v1h-1zm2 0h1v1h-1zm2 0h1v1h-1zm2 0h1v1h-1z"/></g></svg></g>"><svg x="11" y="33"><g><g class="gotchi-sleeves gotchi-sleeves-left gotchi-sleeves-up"><path d="M38 10h1V9h1V8h1V7h1V0h-1v1h-2v1h-1v8z" fill="#0064b4"/><path d="M38 9h1V8h1V2h-1v1h-1m3 2h1v1h-1zm0-2h1v1h-1zm0-2h1v1h-1z" fill="#0af"/><defs /></g><g class="gotchi-sleeves gotchi-sleeves-left gotchi-sleeves-down"><path d="M38 8h1v1h2v1h1V3h-1V2h-1V1h-1V0h-1v8z" fill="#0064b4"/><path d="M38 7h1v1h1V2h-1V1h-1m3 3h1v1h-1zm0 2h1v1h-1zm0 2h1v1h-1z" fill="#0af"/><defs /></g><g class="gotchi-sleeves gotchi-sleeves-right gotchi-sleeves-up"><path d="M4 2H3V1H1V0H0v7h1v1h1v1h1v1h1V2z" fill="#0064b4"/><g fill="#0af"><path d="M4 3H3V2H2v6h1v1h1M0 5h1v1H0z"/><path d="M0 3h1v1H0zm0-2h1v1H0z"/></g><defs /></g><g class="gotchi-sleeves gotchi-sleeves-right gotchi-sleeves-down"><path d="M4 0H3v1H2v1H1v1H0v7h1V9h2V8h1V0z" fill="#0064b4"/><path d="M4 1H3v1H2v6h1V7h1M0 4h1v1H0zm0 2h1v1H0zm0 2h1v1H0z" fill="#0af"/><defs /></g></g></svg><g class="gotchi-wearable wearable-hand wearable-hand-left"><svg x="0" y="17"><path d="M14 29v-2h-1v-5h1v-4h-1v-1h-1v1h-1v2H9v-1H8V7h1V4H8V3h1V2h1V1H9V0H7v1H6v1H5v2H4v4h1v10H3v-2H2v-1H1v2H0v2h1v2h1v6H1v2H0v6h1v1h1v1h2v1h6v-1h2v-1h1v-1h1v-2h1v-4h-1z"/><path d="M13,30v-3h-1v-5h1v-4h-1v3H9v-1H8v1H5v-2H4v6H3v5h1v2h5v-1h3v2h2v-3H13z" fill="#e1e1e1"/><g fill="#ff8700"><path d="M11,24h1v1h-1V24z"/><path d="M10,25v-1h1v-1h-1v-1H9v1H8v1h1v3H8v1h1v1h1v-1h1v-1h-1v-1h1v-1H10z"/><path d="M11,26h1v1h-1V26z"/></g><path d="M7 21H5v1h3v-1H7zm-1 2H5v2h3v-2H7 6zm0 3H5v1h3v-1H7 6zm0 3H5v1h3v-1H7 6z" fill="#fff"/><path d="M7 23h1v-1H5v1h1 1zm0 3h1v-1H5v1h1 1zm0 3h1v-2H5v2h1 1zm1 1H4v2h5v-2H8z" fill="#7f7f7f"/><path d="M9 1V0H7v2H6v2H5v3H4v1h1v13h1v-1h1v1h1V7h1V4H8V3h1V2h1V1H9zM7 19H6v-1h1v1zm0-2H6v-1h1v1zm0-2H6v-1h1v1zm0-2H6v-1h1v1zm0-2H6v-1h1v1zm0-2H6V8h1v1z" fill="#eda350"/></svg></g><g class="gotchi-wearable wearable-hand wearable-hand-right"><svg x="6" y="22"><g transform="scale(-1, 1) translate(-52, 0)"><path d="M8 5V4H7V3H6V1H5V0H4v1H3v2H2v1H1v1H0v1h1v1h1v1h1v2h1v23h1V10h1V8h1V7h1V6h1V5z" fill="#47289b"/><path d="M3,7h3v1H3V7z" fill="#cb5bff"/><path d="M5,4h2v1H5V4z" fill="#6f16e2"/><g fill="#3a2b77"><path d="M5 6h1v1H5V6zm0-5h1v2H5V1z"/><path d="M6 3h1v1H6V3zm2 2h1v1H8V5z"/><path d="M7 4h1v1H7V4zm0 2h1v1H7V6zM1 4h1v1H1V4zm0 2h1v1H1V6zm2 4h1V8H3v2z"/><path d="M2,7h1v1H2V7z"/></g><path d="M4,5h3v1H4V5z" fill="#f37aff"/><path d="M5,3h1v2H5V3z" fill="#5d24bf"/><g fill="#8000ff"><path d="M3 6h2v1H3V6zm2-3h1v1H5V3z"/><path d="M4,7h1v3H4V7z"/></g><g fill="#b135ff"><path d="M4,5h1v2H4V5z"/><path d="M5,7h1v1H5V7z"/><path d="M6,5h1v2H6V5z"/></g><path d="M3 3v1H2v2h3V3z" fill="#ffa3ff"/><path d="M3,4h1v2H3V4z" fill="#ffc9ff"/><path d="M2 5.5h1V7H2V5.5zM6 5v1h2V5H6z" fill="#cb5bff"/><path d="M4 1h1v5H4z" fill="#fff"/><path d="M1 5h4v1H1z" fill="#ffc9ff"/><path d="M3 5h1v1H3z" fill="#fff"/></g></svg></g></svg>