<svg xmlns="http://www.w3.org/2000/svg" viewBox="0 0 64 64"><g class="gotchi-bg"><defs fill="#fff"><pattern id="a" patternUnits="userSpaceOnUse" width="4" height="4"><path d="M0 0h1v1H0zm2 2h1v1H2z"/></pattern><pattern id="b" patternUnits="userSpaceOnUse" x="0" y="0" width="2" height="2"><path d="M0 0h1v1H0z"/></pattern><pattern id="c" patternUnits="userSpaceOnUse" x="-2" y="0" width="8" height="1"><path d="M0 0h1v1H0zm2 0h1v1H2zm2 0h1v1H4z"/></pattern><pattern id="d" patternUnits="userSpaceOnUse" x="0" y="0" width="4" height="4"><path d="M0 0h1v1H0zm0 2h1v1H0zm1 0V1h1v1zm1 0h1v1H2zm0-1h1V0H2zm1 2h1v1H3z"/></pattern><pattern id="e" patternUnits="userSpaceOnUse" width="64" height="32"><path d="M4 4h1v1H4zm7 0h1v1h-1zm7 0h1v1h-1zm7 0h1v1h-1zm7 0h1v1h-1zm7 0h1v1h-1zm7 0h1v1h-1zm7 0h1v1h-1zm7 0h1v1h-1z"/><path fill="url(#a)" d="M0 8h64v7H0z"/><path fill="url(#b)" d="M0 16h64v1H0z"/><path fill="url(#c)" d="M0 18h64v1H0z"/><path fill="url(#b)" d="M22 18h15v1H22zM0 20h64v3H0z"/><path fill="url(#d)" d="M0 24h64v8H0z"/></pattern><mask id="f"><path fill="url(#e)" d="M0 0h64v32H0z"/></mask></defs><path fill="#fff" d="M0 0h64v32H0z"/><path fill="#dea8ff" class="gotchi-secondary" mask="url(#f)" d="M0 0h64v32H0z"/><path fill="#dea8ff" class="gotchi-secondary" d="M0 32h64v32H0z"/><path mask="url(#f)" fill="#fff" transform="matrix(1 0 0 -1 0 64)" d="M0 0h64v32H0z"/></g><style>.gotchi-primary{fill:#2664BA;}.gotchi-secondary{fill:#D4E0F1;}.gotchi-cheek{fill:#F696C6;}.gotchi-eyeColor{fill:#51FFA8;}.gotchi-primary-mouth{fill:#2664BA;}.gotchi-sleeves-up{display:none;}.gotchi-handsUp{display:none;}.gotchi-handsDownOpen{display:block;}.gotchi-handsDownClosed{display:none;}</style><g class="gotchi-body"><path d="M47 14v-2h-2v-2h-4V8h-4V6H27v2h-4v2h-4v2h-2v2h-2v41h4v-2h5v2h5v-2h6v2h5v-2h5v2h4V14z" class="gotchi-primary"/><path d="M45 14v-2h-4v-2h-4V8H27v2h-4v2h-4v2h-2v39h2v-2h5v2h5v-2h6v2h5v-2h5v2h2V14z" class="gotchi-secondary"/><path d="M18,49h2v-1h2v1h2v2h5v-2h2v-1h2v1h2v2h5v-2h2v-1h2v1h1V14h-4v-2h-4v-2h-5V9h-5v2h-4v2h-4v2h-1V49z" fill="#fff"/></g><path class="gotchi-cheek" d="M21 32v2h2v-2h-1zm21 0h-1v2h2v-2z"/><g class="gotchi-primary-mouth"><path d="M29 32h-2v2h2v-1z"/><path d="M33 34h-4v2h6v-2h-1z"/><path d="M36 32h-1v2h2v-2z"/></g>
    <style>
        .gotchi-bg { display: none }
    </style>
<g class="gotchi-shadow"><path opacity=".25" d="M25 58H19v1h1v1h24V59h1V58h-1z" fill="#000"/></g>,<g class="gotchi-collateral" fill="#2664ba"><path d="M30 15v2h3v1h-3v1h1.5v1h1v-1H34v-3h-3v-1h3v-1h-1.5v-1h-1v1H30zm4 5h1v1h-1z"/><path d="M35 19h1v1h-1z"/><path d="M36 16v3h1v-5h-1v1zm-2-4h1v1h-1z"/><path d="M35 13h1v1h-1zm-7 5v-4h-1v5h1zm1 2h1v1h-1z"/><path d="M28 19h1v1h-1zm1-7h1v1h-1z"/><path d="M28 13h1v1h-1z"/></g><g class="gotchi-eyeColor"><g><path d="M40 23v2h1v-2h-1z" /><path d="M39 24v-1h-2v2h1v1h2v-1h-1v-1zm-13 0v1h1v-2h-1v1z" /><path d="M25 24v-1h-2v2h1v1h2v-1h-1v-1z" /></g><g class="gotchi-primary"><path d="M35 23h-1v1h1v-1zm0 2h-1v1h1v-1zm9-2h-1v1h1v-1z" /><path d="M45 24h-1v1h1v-1zm-8-1h6v-1h-8v1h2z" /><path d="M34 24h-1v1h1v-1zm10 1h-1v1h1v-1z" /><path d="M41 26h-6v1h8v-1h-2zm-20-3h-1v1h1v-1zm0 2h-1v1h1v-1zm9-2h-1v1h1v-1z" /><path d="M31 24h-1v1h1v-1zm-8-1h6v-1h-8v1h2z" /><path d="M20 24h-1v1h1v-1zm10 1h-1v1h1v-1z" /><path d="M27 26h-6v1h8v-1h-2z" /></g></g><g class="gotchi-wearable wearable-body"><svg x="10" y="32"><path d="M37 0v1h-1v1h-1v1h-1v1h-1v1h-1v1h-1v1h-3v1h-4v1h-1v1h-2V9h-1V8h-4V7h-3V6h-1V5h-1V4h-1V3H9V2H8V1H7V0H5v23h4v-2h5v2h5v-2h6v2h5v-2h5v2h4V0h-2z"/><path d="M21 13h2v-1h-2v1zm-1-2h1v-1h-1V9h-1v4h1v-2zm6 0h1V9h-1v2zm10 1h1v1h-1zm-2 0h1v1h-1zm-6 2v5h9v-5h-9zm4-2h1v1h-1zm-2 0h1v1h-1zm-4 0h1v1h-1zm8-8v1h3V4h-3zm-2 2v1h5V6h-5zm-4 2v1h9V8h-9zm0 2v1h9v-1h-9zm8-8h1v1h-1zm-8 10h1v1h-1zm-11 2v5h10v-5H17zm7-1h1V9h-1v1h-1v1h1v2zm-6-4h-1v2h1V9zM7 8v1h9V8H7zm0 4h1v1H7zm2 0h1v1H9zm2 0h1v1h-1zm2 0h1v1h-1zm-6-2v1h9v-1H7zm10 2h1v1h-1zm-7-7V4H7v1h3zm2 2V6H7v1h5zM7 2h1v1H7zm8 10h1v1h-1zm-8 2v5h9v-5H7z" fill="#51ffa8"/><path d="M21 12v1h2v-1h-2zm5-2v1h1V9h-1v1zm10 2h1v1h-1zm-2 0h1v1h-1zm1 2v5h2v-5h-2zm0-10v1h2V4h-2zm0 2v1h2V6h-2zm0 2v1h2V8h-2zm0 2v1h2v-1h-2zm1-8h1v1h-1zm-19 9h1V9h-1v2zM7 12h1v1H7zm0 2v5h2v-5H7zm2-2h1v1H9zm0-7V4H7v1h2zm0 2V6H7v1h2zm0 2V8H7v1h2zm0 2v-1H7v1h2zM7 2h1v1H7z" fill="#c3ffe1"/><path d="M21 12v1h2v-1h-2zm5-3h1v1h-1zm10 3h1v1h-1zm0 7h1v-5h-1v5zm0-15h1v1h-1zm0 2h1v1h-1zm0 2h1v1h-1zm0 2h1v1h-1zm0-8h1v1h-1zM17 9h1v1h-1zM7 12h1v1H7zm0 7h1v-5H7v5zM7 4h1v1H7zm0 2h1v1H7zm0 2h1v1H7zm0 2h1v1H7zm0-8h1v1H7z" fill="#fff"/></svg></g><g class="gotchi-handsDownClosed"><g class="gotchi-primary"><path d="M19 42h1v1h-1zm1-6h1v1h-1z"/><path d="M21 37h1v1h-1zm5 3v4h1v-4zm-5 3h-1v1h2v-1z"/><path d="M24 44h-2v1h4v-1h-1zm1-5h-1v1h2v-1z"/><path d="M23 38h-1v1h2v-1z"/></g><g class="gotchi-secondary"><path d="M19 43h1v1h-1zm5 2h-2v1h4v-1h-1z"/><path d="M27 41v3h1v-3zm-6 3h-1v1h2v-1z"/><path d="M26 44h1v1h-1zm-7-3h-1v2h1v-1z"/></g><g class="gotchi-primary"><path d="M44 42h1v1h-1zm-1-6h1v1h-1z"/><path d="M42 37h1v1h-1z"/><path d="M42 39v-1h-2v1h1zm0 4v1h2v-1h-1z"/><path d="M40 44h-2v1h4v-1h-1z"/><path d="M38 42v-2h-1v4h1v-1z"/><path d="M40 40v-1h-2v1h1z"/></g><g class="gotchi-secondary"><path d="M42 44v1h2v-1h-1zm-5-2v-1h-1v3h1v-1z"/><path d="M40 45h-2v1h4v-1h-1z"/><path d="M37 44h1v1h-1zm7-1h1v1h-1z"/></g></g><g class="gotchi-handsDownOpen"><g class="gotchi-primary"><path d="M56 38v-1h-2v-1h-2v-1h-1v-1h-1v-1h-1v8h1v1h2v1h4v-1h1v-4z"/></g><g class="gotchi-secondary"><path d="M54 38v-1h-2v-1h-1v-1h-1v-1h-1v6h1v1h2v1h4v-4z" /></g><path d="M54,38v-1h-2v-1h-1v-1h-1v-1h-1v5h1v1h2v1h4v-3H54z" fill="#fff"/><g class="gotchi-primary"><path d="M8 38v-1h2v-1h2v-1h1v-1h1v-1h1v8h-1v1h-2v1H8v-1H7v-4z"/></g><g class="gotchi-secondary"><path d="M10 38v-1h2v-1h1v-1h1v-1h1v6h-1v1h-2v1H8v-4z" /></g><path d="M8,38v3h4v-1h2v-1h1v-5h-1v1h-1v1h-1v1h-2v1H8z" fill="#fff"/></g><g class="gotchi-handsUp"><g class="gotchi-secondary"><path d="M50,38h1v1h-1V38z"/><path d="M49 39h1v1h-1v-1zm2-2h1v1h-1v-1z"/><path d="M52,36h2v1h-2V36z"/><path d="M54,35h2v1h-2V35z"/></g><path d="M52,32v1h-2v1h-1v5h1v-1h1v-1h1v-1h2v-1h2v-3H52z" fill="#fff"/><g class="gotchi-primary"><path d="M49,33h1v1h-1V33z"/><path d="M50 32h2v1h-2v-1zm0 7h1v1h-1v-1z"/><path d="M49 40h1v1h-1v-1zm2-2h1v1h-1v-1z"/><path d="M52 37h2v1h-2v-1zm0-6h4v1h-4v-1z"/><path d="M56,32h1v4h-1V32z"/><path d="M54,36h2v1h-2V36z"/></g><g class="gotchi-secondary"><path d="M13,38h1v1h-1V38z"/><path d="M14 39h1v1h-1v-1zm-2-2h1v1h-1v-1z"/><path d="M10,36h2v1h-2V36z"/><path d="M8,35h2v1H8V35z"/></g><path d="M8,32v3h2v1h2v1h1v1h1v1h1v-5h-1v-1h-2v-1H8z" fill="#fff"/><g class="gotchi-primary"><path d="M14,33h1v1h-1V33z"/><path d="M12 32h2v1h-2v-1zm1 7h1v1h-1v-1z"/><path d="M14 40h1v1h-1v-1zm-2-2h1v1h-1v-1z"/><path d="M10 37h2v1h-2v-1zm-2-6h4v1H8v-1z"/><path d="M7,32h1v4H7V32z"/><path d="M8,36h2v1H8V36z"/></g></g><g class="gotchi-wearable wearable-face"><svg x="15" y="6"><path d="M13.8,30.2v-3.5h6.5v3.5H13.8z" fill="#fff"/><g fill="#773e1d"><path d="M15,28h4v1h-4V28z"/><path d="M0 27h2v1h2v1h2v1h2v1h4v1h3v1h1v1h2v-1h1v-1h3v-1h4v-1h2v-1h2v-1h2v-1h2V8h-2V6h-2V4h-4V2h-4V0H12v2H8v2H4v2H2v2H0v19zm15 3v-1h-1v-1h1v-1h4v1h1v1h-1v1h-4zm12-5v1h-2v1h-3v-1h-1v-1h-1v-1h-6v1h-1v1h-1v1H9v-1H7v-1H3V12h1V9h1V8h3V7h4v1h3v1h4V8h3V7h4v1h3v1h1v3h1v13h-4z"/></g></svg></g><g class="gotchi-wearable wearable-eyes"><svg x="22" y="22"><path d="M2.1 7.9v-1h-1v-1h-1V2.1h1v-1h1v-1h3.8v1h1v1h1v3.8h-1v1h-1v1z" fill="#fff"/><path d="M5.8.2v1h1v1h1v3.5h-1v1.1h-1v1H2.2v-1h-1v-1h-1V2.2h1v-1h1v-1h3.6M6 0H2v1H1v1H0v4h1v1h1v1h4V7h1V6h1V2H7V1H6V0z" fill="#0000b9"/><path d="M14.1 7.9v-1h-1v-1h-1V2.1h1v-1h1v-1h3.8v1h1v1h1v3.8h-1v1h-1v1z" fill="#fff"/><path d="M17.8.2v1h1v1h1v3.5h-1v1.1h-1v1h-3.5v-1h-1.1v-1h-1V2.2h1v-1h1v-1h3.6M18 0h-4v1h-1v1h-1v4h1v1h1v1h4V7h1V6h1V2h-1V1h-1V0z" fill="#0000b9"/><g fill="#fff"><path d="M5,1h1v1H5V1z"/><path d="M4 2h1v2H4V2zM2 1h1v1H2V1z"/><path d="M6,2v3H5v1H3V5H2V2H1v4h1v1h4V6h1V2H6z"/></g><path d="M5,4H4V2h1V1H3v1H2v3h1v1h2V5h1V2H5V4z" fill="#00a5ff"/><g fill="#0000b9"><path d="M1,1h1v1H1V1z"/><path d="M1,2H0v4h1V2z"/><path d="M1 6h1v1H1V6zm5-5h1v1H6V1z"/><path d="M6 1V0H2v1h4zM2 7v1h4V7H2z"/></g><g fill="#fff"><path d="M17,1h1v1h-1V1z"/><path d="M16 2h1v2h-1V2zm-2-1h1v1h-1V1z"/><path d="M18,2v3h-1v1h-2V5h-1V2h-1v4h1v1h4V6h1V2H18z"/></g><path d="M17 2v2h-1V2h1V1h-2v1h-1v3h1v1h2V5h1V2h-1z" fill="#00a5ff"/><g fill="#0000b9"><path d="M13,1h1v1h-1V1z"/><path d="M13,2h-1v4h1V2z"/><path d="M13 6h1v1h-1V6zm5-5h1v1h-1V1z"/><path d="M19 2v4h1V2h-1zm-1-1V0h-4v1h4zm-4 6v1h4V7h-4z"/><path d="M18 6h1v1h-1V6zM7 6h1V2H7v4z"/><path d="M6,6h1v1H6V6z"/></g></svg></g><g class="gotchi-wearable wearable-head"><svg x="9" y="2"><path d="M44 26v-4h-2v-4h-2v-6h2V8h-2v2h-2V8h2V2h2V0h-4v6h-4V4h-2V2h-4V0H18v2h-4v2h-2v2H8V0H4v2h2v6h2v2H6V8H4v4h2v6H4v4H2v4H0v2h6v4h2v2h2v2h2v2h2v2h8v-1h2v1h8v-2h2v-2h2v-2h2v-2h2v-4h6v-2h-2zm-8-2H10v-2h26v2z"/><g fill="#666"><path d="M36 14H25v1h-1v1h12v-2z"/><path d="M38 16h-2v2h2v-2z"/><path d="M40 20v-2h-2v4h2v-2z"/><path d="M42 26v-4h-2v5h4v-1h-2zm-4-12v-2h-2v2h2zM8 16v2h2v-2H8zm2-4H8v2h2v-2z"/><path d="M21 14H10v2h12v-1h-1v-1zM6 18v4h2v-4H6z"/><path d="M4 22v4H2v1h4v-5H4z"/></g><path d="M25 7V6h-1V5h-2v1h-1v1h-1v4h1v1h1v1h2v-1h1v-1h1V7h-1z" fill="#51ffa8"/><g fill="#b4b4b4"><path d="M13 30h-1v3h1v-3z"/><path d="M14 31v1h1v1h1v-3h3v2h1v1h1v-3h1v3h2v-3h1v3h1v-1h1v-2h3v3h1v-1h1v-2h1v-1H13v1h1v1z"/><path d="M33 30v3h1v-3h-1zm-20 3h1v1h-1z"/><path d="M14 34h1v1h-1z"/><path d="M19 35v-2h-1v-2h-1v4h-2v1h5v-1h-1zm2-1h1v1h-1zm3 0h1v1h-1zm7 0h1v1h-1z"/><path d="M24 36v-1h-2v1h-2v1h6v-1h-2z"/><path d="M29 35v-4h-1v2h-1v2h-1v1h5v-1h-2zm3-2h1v1h-1z"/></g><g fill="#51ffa8"><path d="M21 34h1v1h-1z"/><path d="M22 35v1h2v-1h-2z"/><path d="M24 34h1v1h-1z"/></g><path d="M14 30v2h1v1h1v-3h-2zm5 0v2h1v1h1v-3h-2zm3 0v3h2v-3h-2zm5 0h-2v3h1v-1h1v-2zm3 0v3h1v-1h1v-2h-2zm-12 1h-1v4h2v-2h-1v-2zm10 2h-1v2h2v-4h-1v2z" fill="#fff"/><path d="M36 22v-3h-1v-1H11v1h-1v3H8v2h2v3h1v1h24v-1h1v-3h2v-2h-2zm-3 2h-1v-2h1v2zm-20-2h1v2h-1v-2zm18 2h-1v-2h1v2zm-16-2h1v2h-1v-2zm14 2h-1v-2h1v2zm-12-2h1v2h-1v-2zm2 0h1v2h-1v-2zm2 0h1v2h-1v-2zm3 0h1v2h-1v-2zm2 0h1v2h-1v-2zm-15 0h1v2h-1v-2zm23 2v-2h1v2h-1z" fill="#b4b4b4"/><path d="M35 22v2h1v-2h-1zm-2 2h1v-2h-1v2zm-2 0h1v-2h-1v2zm-2 0h1v-2h-1v2zm-2 0h1v-2h-1v2zm-9 0h1v-2h-1v2zm2 0h1v-2h-1v2zm2-2v2h2v-2h-2zm3 2h1v-2h-1v2zm-9 0h1v-2h-1v2zm-2 0h1v-2h-1v2zm-2 0h1v-2h-1v2zm-2 0h1v-2h-1v2z" fill="#51ffa8"/><g fill="#666"><path d="M36 22v2h2v-2h-2zm-26 0H8v2h2v-2z"/><path d="M36 20v-1H10v1h26zm0 2v-1H10v1h26zm-26 2v1h26v-1H10zm0 2v1h26v-1H10z"/></g><path d="M36 14H25v1h11v-1zm2 2h-2v1h2v-1zm2 2h-2v1h2v-1zm0 4v1h2v-1h-2zm-2-9v-1h-2v1h2zM8 16v1h2v-1H8zm2-3v-1H8v1h2zm0 1v1h11v-1H10zm-4 4v1h2v-1H6zm-2 4v1h2v-1H4z" fill="#464646"/><path d="M38 0v6h-2v2h-2v2h-5v1h-1v1h8v-2h2V8h2V2h2V0h-4z" fill="#51ffa8"/><path d="M36 9v1h2V9h-2zm-8 2v1h8v-1h-8zm10-4v1h2V7h-2zm2-6v1h2V1h-2z" fill="#00d280"/><path d="M17 11v-1h-5V8h-2V6H8V0H4v2h2v6h2v2h2v2h8v-1h-1z" fill="#51ffa8"/><path d="M10 9H8v1h2V9zm0 2v1h8v-1h-8zM8 7H6v1h2V7zM6 1H4v1h2V1z" fill="#00d280"/><path d="M32 6V4h-4V2h-4v1h1v1h1v1h1v1h1v1h1v3h5V6h-2zM18 2v2h-4v2h-2v4h5V7h1V6h1V5h1V4h1V3h1V2h-4z" fill="#464646"/><path d="M32 7V5h-4V3h-3v1h1v1h1v1h1v1h1v2h5V7h-2zM18 3v2h-4v2h-2v2h5V7h1V6h1V5h1V4h1V3h-3z" fill="#666"/><g fill="#b4b4b4"><path d="M20 5h1v1h-1z"/><path d="M21 4h1v1h-1zm3 0h1v1h-1z"/><path d="M25 5h1v1h-1zm-6 1h1v1h-1z"/><path d="M19 7h-1v4h1V7zm7-1h1v1h-1z"/><path d="M27 7v4h1V7h-1zm-3-3V3h-2v1h2zm0 9h1v1h-1z"/><path d="M25 12h1v1h-1zm-3 2v1h2v-1h-2zm-2-2h1v1h-1z"/><path d="M21 13h1v1h-1zm-2-2h1v1h-1zm7 0h1v1h-1z"/></g><g fill="#d2d2d2"><path d="M24 4h1v1h-1z"/><path d="M25 5h1v1h-1z"/><path d="M26 6h1v1h-1z"/><path d="M27 7v2h1V7h-1zm-4-4h1v1h-1z"/></g><g fill="#f5f5f5"><path d="M20 5h1v1h-1z"/><path d="M21 4h1v1h-1zm-3 5h1V7h-1v2z"/><path d="M19 6h1v1h-1zm3-3h1v1h-1z"/></g><g fill="#d2d2d2"><path d="M19 9h-1v2h1V9zm3 5h1v1h-1zm-2-2h1v1h-1z"/><path d="M21 13h1v1h-1zm-2-2h1v1h-1z"/></g><path d="M22 5v1h-1v1h-1v2h3V5h-1z" fill="#e1fff0"/><path d="M23 9v4h1v-1h1v-1h1V9h-3z" fill="#00d280"/></svg></g>"><svg x="10" y="32"><g><g class="gotchi-sleeves gotchi-sleeves-left gotchi-sleeves-up"><path d="M41 10V9h1V8h1V6h1V5h-2V0h-2v1h-1.5v9H41z"/><path d="M42 5V0h-2v1h-1v4h3z" fill="#464646"/><path d="M40 9V6h-1v3h1zm2-3h-1v2h1V6z" fill="#c3ffe1"/><path d="M39 6h1v1h-1z" fill="#51ffa8"/><path d="M39 8h1v1h-1zm2-1h1v1h-1z" fill="#fff"/></g><g class="gotchi-sleeves gotchi-sleeves-left gotchi-sleeves-down"><path d="M41 0v1h1v1h1v2h1v1h-2v5h-2V9h-1.5V0H41z"/><path d="M42 5v5h-2V9h-1V5h3z" fill="#464646"/><path d="M40 1v3h-1V1h1zm2 3h-1V2h1v2z" fill="#c3ffe1"/><path d="M39 3h1v1h-1z" fill="#51ffa8"/><path d="M39 1h1v1h-1zm2 1h1v1h-1z" fill="#fff"/></g><g class="gotchi-sleeves gotchi-sleeves-right gotchi-sleeves-up"><path d="M3 10V9H2V8H1V6H0V5h2V0h2v1h1.5v9H3z"/><path d="M2 5V0h2v1h1v4H2z" fill="#464646"/><path d="M4 9V6h1v3H4zM2 6h1v2H2V6z" fill="#c3ffe1"/><path d="M4 6h1v1H4z" fill="#51ffa8"/><path d="M4 8h1v1H4zM2 7h1v1H2z" fill="#fff"/></g><g class="gotchi-sleeves gotchi-sleeves-right gotchi-sleeves-down"><path d="M3 0v1H2v1H1v2H0v1h2v5h2V9h1.5V0H3z"/><path d="M2 5v5h2V9h1V5H2z" fill="#464646"/><path d="M4 1v3h1V1H4zM2 4h1V2H2v2z" fill="#c3ffe1"/><path d="M4 3h1v1H4z" fill="#51ffa8"/><path d="M4 1h1v1H4zM2 2h1v1H2z" fill="#fff"/></g></g></svg><g class="gotchi-wearable wearable-hand wearable-hand-left"><svg x="1" y="18"><path d="M13 4V3h-1V2h-1V1H9V0H5v1H3v1H2v1H1v1H0v6h1v1h1v1h1v1h2v21H4v1H3v2h1v1h6v-1h1v-2h-1v-1H9V13h2v-1h1v-1h1v-1h1V4h-1z" fill="#581693"/><path d="M13 4V3h-1V2h-1V1H9V0H5v1H3v1H2v1H1v1H0v6h1v1h1v1h1v1h2v1h4v-1h2v-1h1v-1h1v-1h1V4h-1z" fill="#23a3cf"/><path d="M7 32h1V14H6v19h1v-1zm2 3v-1H5v1H4v2h6v-2H9z" fill="#7a15ad"/><g fill="#ac14f8"><path d="M6 15v15h1V15H6zM5 34h1v1H5z"/><path d="M4 35h1v1H4z"/></g><path d="M6 16v2h1v-2H6zm0 3h1v1H6z" fill="#d74eef"/><path d="M12 4V3h-1V2H9V1H5v1H3v1H2v1H1v6h1v1h1v-1h1V9h2V8h1v1h2V7h1V6h1v1h1v1h1V4h-1z" fill="#3bccff"/><path d="M13 9V8h-1V7h-1V6h-1v1H9v2H7V8H6v1H4v1H3v1H2v1h1v1h2v1h4v-1h2v-1h1v-1h1v-1h1V9h-1z" fill="#176dad"/><g fill="#bfffd2"><path d="M7 2h1v1H7zM6 4H5V3H3v1H2v1H1v1h1v1h1v1h1V6h1V5h1V4z"/><path d="M12 4V3h-1V2H9v1H8v1h2v1h1v1h1v1h1V4h-1zM8 6H7v1H6v1h1v1h2V7h1V6H8z"/></g><path d="M12 9V8h-1V7h-1v2H9v1H7V9H6v1H4v1H3v1h2v1h4v-1h2v-1h1v-1h1V9h-1z" fill="#bfdcff"/><g fill="#f5fdff"><path d="M10 7v2H9v1H7v1H6v1h2v-1h2v-1h1V7h-1z"/><path d="M6 9h1v1H6z"/><path d="M6 11v-1H4v1H3v1h2v-1h1z"/><path d="M5 12h1v1H5z"/></g></svg></g><g class="gotchi-wearable wearable-hand wearable-hand-right"><svg x="0" y="18"><g transform="scale(-1, 1) translate(-64, 0)"><path d="M13 7V6h-3V5H8v1H6V4H5V1h1V0H4v1H3v1H2v1H1v1H0v11h1v1h1v1h1v1h1v1h2v-1H5v-3h1v-2h1v4h1v8H7v1H6v2h6v-2h-1v-1h-1v-8h1v-2h1v-2h1v-1h1V7z" fill="#303030"/><path d="M5 7V6H4V3H3v1H2v1H1v9h1v1h1v1h1v-3h1v-1h8V7z" fill="#3d3b3b"/><path d="M8 7h5v5H8V7zM5 7h2v5H5V7z" fill="#323232"/><path d="M8 27h1v1H8v-1zm3-1v1h-1v1h2v-2h-1zm-5 0h1v2H6v-2z" fill="#393939"/><path d="M11 26v-1H7v1h2v1h1v-1h1zm0-9v-4H7v4h4z" fill="#303030"/><path d="M8 17h1v8H8v-8zM8 5h2v1H8V5z" fill="#3d3b3b"/><path d="M10 26h1v1h-1v-1zm-3 0h1v1H7v-1z" fill="#c66afb"/><path d="M9,15h1v1H9V15z" fill="#ad31eb"/><path d="M8,15h1v1H8V15z" fill="#c462fd"/><path d="M9,14h1v1H9V14z" fill="#c66afb"/><path d="M8,14h1v1H8V14z" fill="#dda8fc"/></g></svg></g><g class="gotchi-wearable wearable-pet"><svg x="40" y="45"><path d="M12 3h1v1h-1V3zm8-2h1v1h-1V1zm-6 0h1v1h-1V1zm8 2h1v1h-1V3z" fill="#0f0"/><path d="M22,4h-1V3h-1V2h-1V1h-1V0h-1v1h-1v1h-1v1h-1v1h-1v2h-1v1h1v1h1v1h1v1h5V9h1V8h1V7h1V6h-1V4z" fill="#ff3bff"/><path d="M18 3V2h1V1h-1V0h-1v1h-1v1h1v1h1zm-6 3h1v1h-1V6zm0-3h1v1h-1V3zm6 3h1v1h-1V6zm-2-2h1v1h-1V4zm4-3h1v1h-1V1zm-6 0h1v1h-1V1zm5 7h1v1h-1V8zm-4 0h1v1h-1V8zm5-4h1v1h-1V4zm2 2h1v1h-1V6zm0-3h1v1h-1V3z" fill="#8700ff"/><path d="M17 4v6h1V3h-1v1zm2-1v5h1V2h-1v1zm0 6h1v1h-1V9zm-4-6v5h1V2h-1v1zm0 6h1v1h-1V9zm6-5v4h1V4h-1zm-8 1v3h1V4h-1v1z" fill="#ff9aff"/><path d="M17,1h1v1h-1V1z" fill="#ff0"/><path d="M16,13v-1h-1v-1h-1v-1h-1v1h-1v2h-1v1h-1v1h1v1h1v1h4v-1h1v-1h1v-1h-1v-1H16z" fill="#ff3bff"/><path d="M17,12h1v1h-1V12z" fill="#009300"/><path d="M13 14v3h1v-4h-1v1zm2-2h1v1h-1v-1zm0 3v2h1v-3h-1v1zm-4-1v2h1v-3h-1v1z" fill="#ff9aff"/><path d="M14 13v-1h1v-1h-1v-1h-1v1h-1v1h1v1h1zm0 3h1v1h-1v-1zm-2-2h1v1h-1v-1zm-2 0h1v1h-1v-1zm5-1h1v1h-1v-1zm2-1h1v1h-1v-1zm0 2h1v1h-1v-1z" fill="#8700ff"/><path d="M13,11h1v1h-1V11z" fill="#ff0"/><path d="M0 6h1v1H0V6zm8-2h1v1H8V4zM2 4h1v1H2V4z" fill="#0f0"/><path d="M9 6H8V5H7V4H6V3H5v1H4v1H3v1H2v1H1v2H0v1h1v1H0v1h1v1h1v1h1v1h5v-1h1v-1h1v-1h1v-1h-1v-1h1V9h-1V7H9V6z" fill="#ff3bff"/><path d="M10,6h1v1h-1V6z" fill="#0f0"/><path d="M6 6V5h1V4H6V3H5v1H4v1h1v1h1zm-6 5h1v1H0v-1zm0-2h1v1H0V9zm0-3h1v1H0V6zm6 4h1v1H6v-1zM4 7h1v1H4V7zm4-3h1v1H8V4zM2 4h1v1H2V4zm5 8h1v1H7v-1zm-4 0h1v1H3v-1zm5-4h1v1H8V8zm2 3h1v1h-1v-1zm0-2h1v1h-1V9zm0-3h1v1h-1V6zM2 8h1v1H2V8z" fill="#8700ff"/><path d="M5 7v8h1V6H5v1zm2-1v6h1V5H7v1zm0 8v1h1v-2H7v1zM3 6v6h1V5H3v1zm0 8v1h1v-2H3v1zm6-6v5h1V7H9v1zM1 8v5h1V7H1v1z" fill="#ff9aff"/><path d="M5,4h1v1H5V4z" fill="#ff0"/></svg></g></svg>