<svg xmlns="http://www.w3.org/2000/svg" viewBox="0 0 64 64"><g class="gotchi-bg"><defs fill="#fff"><pattern id="a" patternUnits="userSpaceOnUse" width="4" height="4"><path d="M0 0h1v1H0zm2 2h1v1H2z"/></pattern><pattern id="b" patternUnits="userSpaceOnUse" x="0" y="0" width="2" height="2"><path d="M0 0h1v1H0z"/></pattern><pattern id="c" patternUnits="userSpaceOnUse" x="-2" y="0" width="8" height="1"><path d="M0 0h1v1H0zm2 0h1v1H2zm2 0h1v1H4z"/></pattern><pattern id="d" patternUnits="userSpaceOnUse" x="0" y="0" width="4" height="4"><path d="M0 0h1v1H0zm0 2h1v1H0zm1 0V1h1v1zm1 0h1v1H2zm0-1h1V0H2zm1 2h1v1H3z"/></pattern><pattern id="e" patternUnits="userSpaceOnUse" width="64" height="32"><path d="M4 4h1v1H4zm7 0h1v1h-1zm7 0h1v1h-1zm7 0h1v1h-1zm7 0h1v1h-1zm7 0h1v1h-1zm7 0h1v1h-1zm7 0h1v1h-1zm7 0h1v1h-1z"/><path fill="url(#a)" d="M0 8h64v7H0z"/><path fill="url(#b)" d="M0 16h64v1H0z"/><path fill="url(#c)" d="M0 18h64v1H0z"/><path fill="url(#b)" d="M22 18h15v1H22zM0 20h64v3H0z"/><path fill="url(#d)" d="M0 24h64v8H0z"/></pattern><mask id="f"><path fill="url(#e)" d="M0 0h64v32H0z"/></mask></defs><path fill="#fff" d="M0 0h64v32H0z"/><path fill="#dea8ff" class="gotchi-secondary" mask="url(#f)" d="M0 0h64v32H0z"/><path fill="#dea8ff" class="gotchi-secondary" d="M0 32h64v32H0z"/><path mask="url(#f)" fill="#fff" transform="matrix(1 0 0 -1 0 64)" d="M0 0h64v32H0z"/></g><style>.gotchi-primary{fill:#824EE2;}.gotchi-secondary{fill:#E6DCF9;}.gotchi-cheek{fill:#F696C6;}.gotchi-eyeColor{fill:#36818E;}.gotchi-primary-mouth{fill:#824EE2;}.gotchi-sleeves-up{display:none;}.gotchi-handsUp{display:none;}.gotchi-handsDownOpen{display:block;}.gotchi-handsDownClosed{display:none;}</style><g class="gotchi-bg"><defs fill="#fff"><pattern id="a" patternUnits="userSpaceOnUse" width="4" height="4"><path d="M0 0h1v1H0zm2 2h1v1H2z"/></pattern><pattern id="b" patternUnits="userSpaceOnUse" x="0" y="0" width="2" height="2"><path d="M0 0h1v1H0z"/></pattern><pattern id="c" patternUnits="userSpaceOnUse" x="-2" y="0" width="8" height="1"><path d="M0 0h1v1H0zm2 0h1v1H2zm2 0h1v1H4z"/></pattern><pattern id="d" patternUnits="userSpaceOnUse" x="0" y="0" width="4" height="4"><path d="M0 0h1v1H0zm0 2h1v1H0zm1 0V1h1v1zm1 0h1v1H2zm0-1h1V0H2zm1 2h1v1H3z"/></pattern><pattern id="e" patternUnits="userSpaceOnUse" width="64" height="32"><path d="M4 4h1v1H4zm7 0h1v1h-1zm7 0h1v1h-1zm7 0h1v1h-1zm7 0h1v1h-1zm7 0h1v1h-1zm7 0h1v1h-1zm7 0h1v1h-1zm7 0h1v1h-1z"/><path fill="url(#a)" d="M0 8h64v7H0z"/><path fill="url(#b)" d="M0 16h64v1H0z"/><path fill="url(#c)" d="M0 18h64v1H0z"/><path fill="url(#b)" d="M22 18h15v1H22zM0 20h64v3H0z"/><path fill="url(#d)" d="M0 24h64v8H0z"/></pattern><mask id="f"><path fill="url(#e)" d="M0 0h64v32H0z"/></mask></defs><path fill="#fff" d="M0 0h64v32H0z"/><path fill="#dea8ff" class="gotchi-secondary" mask="url(#f)" d="M0 0h64v32H0z"/><path fill="#dea8ff" class="gotchi-secondary" d="M0 32h64v32H0z"/><path mask="url(#f)" fill="#fff" transform="matrix(1 0 0 -1 0 64)" d="M0 0h64v32H0z"/></g><g class="gotchi-body"><path d="M47 14v-2h-2v-2h-4V8h-4V6H27v2h-4v2h-4v2h-2v2h-2v41h4v-2h5v2h5v-2h6v2h5v-2h5v2h4V14z" class="gotchi-primary"/><path d="M45 14v-2h-4v-2h-4V8H27v2h-4v2h-4v2h-2v39h2v-2h5v2h5v-2h6v2h5v-2h5v2h2V14z" class="gotchi-secondary"/><path d="M18,49h2v-1h2v1h2v2h5v-2h2v-1h2v1h2v2h5v-2h2v-1h2v1h1V14h-4v-2h-4v-2h-5V9h-5v2h-4v2h-4v2h-1V49z" fill="#fff"/></g><path class="gotchi-cheek" d="M21 32v2h2v-2h-1zm21 0h-1v2h2v-2z"/><g class="gotchi-primary-mouth"><path d="M29 32h-2v2h2v-1z"/><path d="M33 34h-4v2h6v-2h-1z"/><path d="M36 32h-1v2h2v-2z"/></g><g class="gotchi-shadow"><path opacity=".25" d="M25 58H19v1h1v1h24V59h1V58h-1z" fill="#000"/></g>,<g class="gotchi-collateral"><path d="M37.25 17.04v-.75h-.75v-.75h-.75v-.75H33.5v.75h-.75v.75h-1.5v.75h-.75v.75h-2.25v-.75h-.75v-2.25h.75v-.75h2.25v.75h.75v.75H32v-1.5h-.75v-.75h-.75v-.75h-2.25v.75h-.75v.75h-.75v.75H26v2.25h.75v.75h.75v.75h.75v.75h2.25v-.75h.75v-.75h1.5v-.75h.75v-.75h2.25v.75h.75v2.25h-.75v.75H33.5v-.75h-.75v-.75H32v1.5h.75v.75h.75v.75h2.25v-.75h.75v-.75h.75v-.75H38v-2.25h-.75z" fill="#824ee2"/></g>
    <style>
        .gotchi-bg { display: none }
    </style>
<g class="gotchi-eyeColor"><path d="M39 23v2h-1v-2h1v-1h-2v1h-1v3h1v1h2v-1h1v-3h-1z" /><g class="gotchi-primary"><path d="M36 22h-1v1h1v-1z" /><path d="M35 25v-2h-1v4h1v-2z" /><path d="M36 27h-1v1h1v-1zm5-5h-1v1h1v-1z" /><path d="M41 23v4h1v-4h-1zm-3-1h2v-1h-4v1h2zm0 6h-2v1h4v-1h-2z" /><path d="M41 27h-1v1h1v-1z" /></g><path d="M27 24v1h-1v-2h1v-1h-2v1h-1v3h1v1h2v-1h1v-3h-1v1z" /><g class="gotchi-primary"><path d="M24 22h-1v1h1v-1z" /><path d="M23 25v-2h-1v4h1v-2z" /><path d="M24 27h-1v1h1v-1zm5-5h-1v1h1v-1z" /><path d="M29 24v3h1v-4h-1v1zm-3-2h2v-1h-4v1h2zm0 6h-2v1h4v-1h-2z" /><path d="M29 27h-1v1h1v-1z" /></g></g><g class="gotchi-wearable wearable-body"><svg x="12" y="32"><path d="M35 1v1h-2v3h-3v1h-1v1h-6V6h-1v1h-1v1h-2V7h-1V6h-1v1h-5V6h-1V5h-1V4H7V2H5V1H3v22h4v-2h5v2h5v-2h6v2h5v-2h5v2h4V1z" fill="#262743"/><path d="M19 10h1v1h-1v-1zm0 4h1v1h-1v-1zm11-4h3v1h-3v-1zm-20 2h1v1h-1v-1zm9 6h1v1h-1v-1z" fill="#ffe2c1"/><g fill="#e9eef2"><path d="M7 4h1v2H7V4zm0 3h1v1H7V7zm7 8h2v1h-2v-1zm-2 0h1v1h-1v-1zm5 0h1v1h-1v-1zM7 15h1v1H7v-1zm0-3h1v2H7v-2zm25-8h1v2h-1V4zm0 3h1v1h-1V7zm-4-2h-3v1h-2v1h1v1h1v1h1V8h1V7h2V6h1V5h1V4h-3v1zM9 3h1v1H9V3zm23 12h1v1h-1v-1zm-8 0h2v1h-2v-1zm-2 0h1v1h-1v-1zm5 0h1v1h-1v-1zm-3-3h2v2h-2v-2z"/><path d="M22 7h1v1h-1V7zm-7-1V5h-3V4h-2v1h1v1h1v1h1v1h1v1h1V8h1V7h1V6h-2z"/><path d="M17 7h1v1h-1V7zm5 5h1v2h-1v-2zm-5 0h1v2h-1v-2zM4 12h2v2H4v-2zm0 7h2v2H4v-2zM4 4h2v2H4V4zm0 11h2v1H4v-1zm0-8h2v1H4V7zm27-4h1v1h-1V3zm-4 9h1v2h-1v-2zm-15 0h1v2h-1v-2zm2 7h2v2h-2v-2zm-2 0h1v2h-1v-2zm22-4h2v1h-2v-1zm0 4h2v2h-2v-2zm-10 0h2v2h-2v-2zm3 0h1v2h-1v-2zm7-15h2v2h-2V4zm0 8h2v2h-2v-2zm0-5h2v1h-2V7zm-20 5h2v2h-2v-2z"/></g><path d="M18 8h-2v3h-2V9h-1v2h-1V9h1V8h-1V7h-1v12h1v-2h1v4h1v-4h2v4h1v-4h1v2h1V7h-1v1zm-2 4v2h-2v-2h2zm-4 0h1v2h-1v-2zm0 4v-1h1v1h-1zm2 0v-1h2v1h-2zm4 0h-1v-1h1v1zm0-2h-1v-2h1v2zm0-3h-1V9h1v2zm10-3h-1v1h1v2h-1V9h-1v2h-2V8h-2V7h-1v12h1v-2h1v4h1v-4h2v4h1v-4h1v2h1V7h-1v1zm-2 4v2h-2v-2h2zm-4-3h1v2h-1V9zm0 3h1v2h-1v-2zm0 4v-1h1v1h-1zm2 0v-1h2v1h-2zm4 0h-1v-1h1v1zm0-2h-1v-2h1v2zM3 9h3v2H4v1h2v2H4v1h2v1H4v1h2v4h1v-4h1v2h1V3H7V2H6v1H4V1H3v8zm3-5v2H4V4h2zM4 8V7h2v1H4zm4 8H7v-1h1v1zm0-2H7v-2h1v2zm0-3H7V9h1v2zm0-3H7V7h1v1zm0-2H7V4h1v2zm29-5h-1v2h-2V2h-1v1h-1v1h1v2h-1V4h-1v6h1V9h1v5h-1v-3h-1v8h1v-2h1v4h1v-4h2v-1h-2v-1h2v-1h-2v-2h2v-1h-2V9h3V1zm-4 15h-1v-1h1v1zm1-12h2v2h-2V4zm-2 4V7h1v1h-1zm4 0h-2V7h2v1z" fill="#2c629e"/></svg></g><g class="gotchi-handsDownClosed"><g class="gotchi-primary"><path d="M19 42h1v1h-1zm1-6h1v1h-1z"/><path d="M21 37h1v1h-1zm5 3v4h1v-4zm-5 3h-1v1h2v-1z"/><path d="M24 44h-2v1h4v-1h-1zm1-5h-1v1h2v-1z"/><path d="M23 38h-1v1h2v-1z"/></g><g class="gotchi-secondary"><path d="M19 43h1v1h-1zm5 2h-2v1h4v-1h-1z"/><path d="M27 41v3h1v-3zm-6 3h-1v1h2v-1z"/><path d="M26 44h1v1h-1zm-7-3h-1v2h1v-1z"/></g><g class="gotchi-primary"><path d="M44 42h1v1h-1zm-1-6h1v1h-1z"/><path d="M42 37h1v1h-1z"/><path d="M42 39v-1h-2v1h1zm0 4v1h2v-1h-1z"/><path d="M40 44h-2v1h4v-1h-1z"/><path d="M38 42v-2h-1v4h1v-1z"/><path d="M40 40v-1h-2v1h1z"/></g><g class="gotchi-secondary"><path d="M42 44v1h2v-1h-1zm-5-2v-1h-1v3h1v-1z"/><path d="M40 45h-2v1h4v-1h-1z"/><path d="M37 44h1v1h-1zm7-1h1v1h-1z"/></g></g><g class="gotchi-handsDownOpen"><g class="gotchi-primary"><path d="M56 38v-1h-2v-1h-2v-1h-1v-1h-1v-1h-1v8h1v1h2v1h4v-1h1v-4z"/></g><g class="gotchi-secondary"><path d="M54 38v-1h-2v-1h-1v-1h-1v-1h-1v6h1v1h2v1h4v-4z" /></g><path d="M54,38v-1h-2v-1h-1v-1h-1v-1h-1v5h1v1h2v1h4v-3H54z" fill="#fff"/><g class="gotchi-primary"><path d="M8 38v-1h2v-1h2v-1h1v-1h1v-1h1v8h-1v1h-2v1H8v-1H7v-4z"/></g><g class="gotchi-secondary"><path d="M10 38v-1h2v-1h1v-1h1v-1h1v6h-1v1h-2v1H8v-4z" /></g><path d="M8,38v3h4v-1h2v-1h1v-5h-1v1h-1v1h-1v1h-2v1H8z" fill="#fff"/></g><g class="gotchi-handsUp"><g class="gotchi-secondary"><path d="M50,38h1v1h-1V38z"/><path d="M49 39h1v1h-1v-1zm2-2h1v1h-1v-1z"/><path d="M52,36h2v1h-2V36z"/><path d="M54,35h2v1h-2V35z"/></g><path d="M52,32v1h-2v1h-1v5h1v-1h1v-1h1v-1h2v-1h2v-3H52z" fill="#fff"/><g class="gotchi-primary"><path d="M49,33h1v1h-1V33z"/><path d="M50 32h2v1h-2v-1zm0 7h1v1h-1v-1z"/><path d="M49 40h1v1h-1v-1zm2-2h1v1h-1v-1z"/><path d="M52 37h2v1h-2v-1zm0-6h4v1h-4v-1z"/><path d="M56,32h1v4h-1V32z"/><path d="M54,36h2v1h-2V36z"/></g><g class="gotchi-secondary"><path d="M13,38h1v1h-1V38z"/><path d="M14 39h1v1h-1v-1zm-2-2h1v1h-1v-1z"/><path d="M10,36h2v1h-2V36z"/><path d="M8,35h2v1H8V35z"/></g><path d="M8,32v3h2v1h2v1h1v1h1v1h1v-5h-1v-1h-2v-1H8z" fill="#fff"/><g class="gotchi-primary"><path d="M14,33h1v1h-1V33z"/><path d="M12 32h2v1h-2v-1zm1 7h1v1h-1v-1z"/><path d="M14 40h1v1h-1v-1zm-2-2h1v1h-1v-1z"/><path d="M10 37h2v1h-2v-1zm-2-6h4v1H8v-1z"/><path d="M7,32h1v4H7V32z"/><path d="M8,36h2v1H8V36z"/></g></g><g class="gotchi-wearable wearable-face"><svg x="25" y="32"><g fill="#bdbba6"><path d="M13 3V1h-1V0H9v1H8v1H6V1H5V0H2v1H1v2H0v9h1v-2h1V8h1V6h1V5h1V4h4v1h1v1h1v2h1v2h1v2h1V3h-1z"/><path d="M8 6H4v1h1v4h1v2h.5v1h1v-1H8v-2h1V7h1V6H8z"/></g><g fill="#eeecdf"><path d="M1 4v1h1V3H1v1zm2-3v1h2V1H3z"/><path d="M2 2h1v1H2zm10 1v2h1V3h-1zm-2-2H9v1h2V1h-1z"/><path d="M11 2h1v1h-1zM7 8v2h1V7H7v1z"/></g></svg></g><g class="gotchi-wearable wearable-eyes"><svg x="20" y="22"><path d="M10 1H9V0H2v1H1v1H0v4h1v1h1v1h7V7h1V6h1V2h-1V1zm13 1V1h-1V0h-7v1h-1v1h-1v4h1v1h1v1h7V7h1V6h1V2h-1z"/><path d="M5 2v1h1V1H5v1zm0 2h1v1H5zm2 0v1h1V3H7v1zm0-3h1v1H7zM3 1h1v1H3zM1 4v1h1V3H1v1zm2 0v1h1V3H3v1zm0 2h1v1H3zm6-2v1h1V3H9v1zM7 6h1v1H7zM5 6h1v1H5zm13-4v1h1V1h-1v1zm0 2h1v1h-1zm2 0v1h1V3h-1v1zm0-3h1v1h-1zm-4 0h1v1h-1zm-2 3v1h1V3h-1v1zm2 0v1h1V3h-1v1zm0 2h1v1h-1zm6-3v2h1V3h-1zm-2 3h1v1h-1zm-2 0h1v1h-1z" fill="#0f0"/></svg></g><g class="gotchi-wearable wearable-head"><svg x="15" y="6"><g fill="#ffa207"><path d="M33 8h-1V6h-2V4h-4V2h-4V0H12v2H8v2H4v2H2v2H0v37h2V19h1v-1h2v-1h2v-1h2v-1h2v-1h1v-1h1v-1h1v1h1v1h2v1h2v1h2v1h2v1h2v1h2v1h2v1h2v1h1v23h2V8h-1z"/><path d="M12,10h-1V8h-1V7H9V5H8v1H4v2H2v10h1v-1h2v-1h2v-1h2v-1h3v-2h1v-1h-1V10z"/><path d="M31,8h-1V6h-4V4h-4V2H12v2H9v1h1v2h1v1h1v2h1v1h1v1h1v1h2v1h2v1h2v1h2v1h2v1h2v1h2v1h2v1h1V8H31z"/></g><g fill="#ffc03c"><path d="M11 5h-1v2h1V5zM8 5h1v1H8V5z"/><path d="M11 4h1v1h-1V4zM9 4h1v1H9V4zm5 0V3h-1v2h1V4zm1 1h1V3h-1v2zm3 0h1v1h-1V5z"/><path d="M17 5h1V3h-1v2zm2 0h2V4h-1V3h-1v2z"/><path d="M22 6h1V5h-2v1h1zm3-1h1v1h-1V5z"/><path d="M25 5V4h-2v1h2zm-4-2h1v1h-1V3zm-8 4h1v1h-1V7zm-2 0h1v1h-1V7z"/><path d="M12 7h1V5h-1v2zM8 8h1V7H7v1h1z"/><path d="M7 7V6H5v1h2z"/><path d="M4 7h1v1H4V7zm11 0h1v1h-1V7z"/><path d="M15 6V5h-1v2h1V6zm3 2h1V7h-2v1h1z"/><path d="M16 7h1V5h-1v2zm4 0h1V6h-2v1h1z"/><path d="M21 7v1h2V7h-2z"/><path d="M23 6v1h2V6h-2z"/><path d="M26 8h1V7h-2v1h1zm3-1h1v1h-1V7z"/><path d="M29 7V6h-2v1h2zM13 8h-1v2h1V8zM9 8h1v1H9V8z"/><path d="M7 9v1h2V9H7z"/><path d="M7 9V8H5v1h2z"/><path d="M5 10V9H3v1h2zm10-2h-1v2h1V8zm1 0h1v1h-1V8z"/><path d="M18,9h-1v1h2V9H18z"/><path d="M19 8v1h2V8h-2z"/><path d="M22 10h1V9h-2v1h1z"/><path d="M24 9h1V8h-2v1h1z"/><path d="M25 9v1h2V9h-2z"/><path d="M27 8v1h2V8h-2zm-16 3h1v1h-1v-1z"/><path d="M10 11h1v-1H9v1h1z"/><path d="M7 11v1h2v-1H7z"/><path d="M7 11v-1H5v1h2z"/><path d="M5 12v-1H3v1h2zm8-2h1v1h-1v-1zm3 0h-1v1h2v-1h-1z"/><path d="M14 11h1v1h-1v-1zm4 0h-1v1h2v-1h-1z"/><path d="M20,10h-1v1h2v-1H20z"/><path d="M22,11h-1v1h2v-1H22z"/><path d="M23 10v1h2v-1h-2z"/><path d="M25 11v1h2v-1h-2z"/><path d="M27 10v1h2v-1h-2z"/><path d="M29 11v1h2v-1h-2zm1-2h-1v1h2V9h-1z"/><path d="M31 8h1v1h-1V8zm0 2h1v1h-1v-1zM2 8h1v1H2V8zm0 2h1v1H2v-1zm29 2h1v1h-1v-1zm0 2h1v1h-1v-1z"/><path d="M29 13v1h2v-1h-2z"/><path d="M27 12v1h2v-1h-2z"/><path d="M25 13v1h2v-1h-2z"/><path d="M24,12h-1v1h2v-1H24z"/><path d="M22 13h-1v1h2v-1h-1zm7 2v1h2v-1h-2z"/><path d="M26 15h-1v1h2v-1h-1zm5 1h1v1h-1v-1zm0 2h1v1h-1v-1zm0 2h1v1h-1v-1z"/><path d="M29 19v1h2v-1h-2zm0-2v1h2v-1h-2z"/><path d="M27 16v1h2v-1h-2zm0-2v1h2v-1h-2zm-3 0h-1v1h2v-1h-1zm-4-2h-1v1h2v-1h-1zm8 6h-1v1h2v-1h-1z"/><path d="M26,17h-1v1h2v-1H26z"/><path d="M24,16h-1v1h2v-1H24z"/><path d="M22,15h-1v1h2v-1H22z"/><path d="M20,14h-1v1h2v-1H20z"/><path d="M18,13h-1v1h2v-1H18z"/><path d="M16 12h-1v1h2v-1h-1zm-5 1h1v1h-1v-1z"/><path d="M9 12v1h2v-1H9z"/><path d="M7 13v1h2v-1H7zm-2 1v-1H3v1h2z"/><path d="M5 12v1h2v-1H5zm0 2v1h2v-1H5zm-3 0h1v1H2v-1z"/><path d="M3 15v1h2v-1H3z"/><path d="M2 16h1v1H2v-1zm0-4h1v1H2v-1zM12 2h1v1h-1V2zm2 0h1v1h-1V2zm2 0h1v1h-1V2zm2 0h1v1h-1V2zm2 0h1v1h-1V2z"/></g><defs /></svg></g>"><svg x="12" y="32"><g><g class="gotchi-sleeves gotchi-sleeves-left gotchi-sleeves-up"><path d="M38 0v1h-1v8h1V8h1V7h1V0z" fill="#262743"/><path d="M38 1v1h-1v5h2V1z" fill="#2c629e"/><path d="M37 2h1v1h-1V2zm0 2h1v2h-1V4z" fill="#e9eef2"/></g><g class="gotchi-sleeves gotchi-sleeves-left gotchi-sleeves-down"><path d="M39 3V2h-1V1h-1v8h1v1h2V3z" fill="#262743"/><path d="M37 3v5h1v1h1V3z" fill="#2c629e"/><path d="M37 7h1v1h-1V7zm0-3h1v2h-1V4z" fill="#e9eef2"/></g><g class="gotchi-sleeves gotchi-sleeves-right gotchi-sleeves-up"><path d="M2 1V0H0v7h1v1h1v1h1V1z" fill="#262743"/><path d="M2 2V1H1v6h2V2z" fill="#2c629e"/><path d="M2 2h1v1H2V2zm0 2h1v2H2V4z" fill="#e9eef2"/></g><g class="gotchi-sleeves gotchi-sleeves-right gotchi-sleeves-down"><path d="M2 1v1H1v1H0v7h2V9h1V1z" fill="#262743"/><path d="M1 3v6h1V8h1V3z" fill="#2c629e"/><path d="M2 7h1v1H2V7zm0-3h1v2H2V4z" fill="#e9eef2"/></g></g></svg><g class="gotchi-wearable wearable-hand wearable-hand-left"><svg x="0" y="33"><path d="M12 2V1h-1V0H2v1H1v1H0v2h1v1h1v1h1v1h1v1h1v1h1v1h1V9h1V8h1V7h1V6h1V5h1V4h1V2z"/><path d="M2 4v1h1v1h1v1h1v1h1v1h1V8h1V7h1V6h1V5h1V4z" fill="#46a7c0"/><g fill="#0ff"><path d="M9 2H8V1H5v1H4v1H3v2h1v1h1v1h1v1h1V7h1V6h1V5h1V3H9zm2 0h1v1h-1z"/><path d="M10 1h1v1h-1zM2 1h1v1H2z"/><path d="M1 2h1v1H1z"/></g><g fill="#fff"><path d="M11 3h1v1h-1V3zM1 3h1v1H1V3zm8-2h1v1H9V1zM8 3V2H7V1H6v1H5v1H3v1h7V3H8z"/><path d="M10 2h1v1h-1V2zM2 2h1v1H2V2z"/><path d="M3,1h1v1H3V1z"/></g></svg></g><g class="gotchi-wearable wearable-hand wearable-hand-right"><svg x="0" y="18"><g transform="scale(-1, 1) translate(-64, 0)"><path d="M13 7V6h-3V5H8v1H6V4H5V1h1V0H4v1H3v1H2v1H1v1H0v11h1v1h1v1h1v1h1v1h2v-1H5v-3h1v-2h1v4h1v8H7v1H6v2h6v-2h-1v-1h-1v-8h1v-2h1v-2h1v-1h1V7z" fill="#303030"/><path d="M5 7V6H4V3H3v1H2v1H1v9h1v1h1v1h1v-3h1v-1h8V7z" fill="#3d3b3b"/><path d="M8 7h5v5H8V7zM5 7h2v5H5V7z" fill="#323232"/><path d="M8 27h1v1H8v-1zm3-1v1h-1v1h2v-2h-1zm-5 0h1v2H6v-2z" fill="#393939"/><path d="M11 26v-1H7v1h2v1h1v-1h1zm0-9v-4H7v4h4z" fill="#303030"/><path d="M8 17h1v8H8v-8zM8 5h2v1H8V5z" fill="#3d3b3b"/><path d="M10 26h1v1h-1v-1zm-3 0h1v1H7v-1z" fill="#c66afb"/><path d="M9,15h1v1H9V15z" fill="#ad31eb"/><path d="M8,15h1v1H8V15z" fill="#c462fd"/><path d="M9,14h1v1H9V14z" fill="#c66afb"/><path d="M8,14h1v1H8V14z" fill="#dda8fc"/></g></svg></g><g class="gotchi-wearable wearable-pet"><svg x="1" y="48"><path d="M51 7h1v1h-1zm8-2h1v1h-1zm-6 0h1v1h-1zm8 2h1v1h-1z" fill="#0f0"/><path d="M61 8h-1V7h-1V6h-1V5h-1V4h-1v1h-1v1h-1v1h-1v1h-1v2h-1v1h1v1h1v1h1v1h5v-1h1v-1h1v-1h1v-1h-1V8z" fill="#009300"/><path d="M57 7V6h1V5h-1V4h-1v1h-1v1h1v1h1zm-6 3h1v1h-1zm0-3h1v1h-1zm6 3h1v1h-1zm-2-2h1v1h-1zm4-3h1v1h-1zm-6 0h1v1h-1zm5 7h1v1h-1zm-4 0h1v1h-1zm5-4h1v1h-1zm2 2h1v1h-1zm0-3h1v1h-1z" fill="#f0f"/><path d="M56 8v6h1V7h-1v1zm2-1v5h1V6h-1v1zm0 6h1v1h-1zm-4-6v5h1V6h-1v1zm0 6h1v1h-1zm6-5v4h1V8h-1zm-8 1v3h1V8h-1v1z" fill="#006300"/><path d="M56 5h1v1h-1z" fill="#ff0"/><path d="M10 7h1v1h-1zM2 5h1v1H2zm6 0h1v1H8zM0 7h1v1H0z" fill="#0f0"/><path d="M9 7H8V6H7V5H6V4H5v1H4v1H3v1H2v1H1v2H0v1h1v1h1v1h1v1h5v-1h1v-1h1v-1h1v-1h-1V8H9V7z" fill="#ff0"/><path d="M6 7V6h1V5H6V4H5v1H4v1h1v1h1zm4 3h1v1h-1zm0-3h1v1h-1zm-6 3h1v1H4zm2-2h1v1H6zM2 5h1v1H2zm6 0h1v1H8zm-5 7h1v1H3zm4 0h1v1H7zM2 8h1v1H2zm-2 2h1v1H0zm0-3h1v1H0z" fill="#8700ff"/><path d="M5 8v6h1V7H5v1zM3 7v5h1V6H3v1zm0 6h1v1H3zm4-6v5h1V6H7v1zm0 6h1v1H7zM1 9v3h1V8H1v1zm8 0v3h1V8H9v1z" fill="#c5bd00"/><path d="M5 5h1v1H5z" fill="#ff0"/><path d="M22 3h1v1h-1zm-8-2h1v1h-1zm6 0h1v1h-1zm-8 2h1v1h-1z" fill="#0f0"/><use href="#A" fill="#00a"/><path d="M18 3V2h1V1h-1V0h-1v1h-1v1h1v1h1zm4 5h1v1h-1zm0-2h1v1h-1zm0-3h1v1h-1zm-6 4h1v1h-1zm2-3h1v1h-1zm-4-3h1v1h-1zm6 0h1v1h-1zm-5 8h1v1h-1zm4 0h1v1h-1zm-5-4h1v1h-1zm-2 3h1v1h-1zm0-2h1v1h-1zm0-3h1v1h-1zm8 2h1v1h-1z" fill="#f0f"/><path d="M17 4v8h1V3h-1v1zm-2-1v6h1V2h-1v1zm0 8v1h1v-2h-1v1zm4-8v6h1V2h-1v1zm0 8v1h1v-2h-1v1zm-6-6v5h1V4h-1v1zm8 0v5h1V4h-1v1z" fill="#0064ff"/><path d="M17 1h1v1h-1z" fill="#ff0"/><g fill="#0f0"><path d="M25.4 5h1v1h-1zm8-2h1v1h-1zm-6 0h1v1h-1z"/><path d="M34.4 5h-1V4h-1V3h-1V2h-1v1h-1v1h-1v1h-1v1h-1v2h-1v1h1v1h-1v1h1v1h1v1h1v1h5v-1h1v-1h1v-1h1v-1h-1V9h1V8h-1V6h-1V5z"/><path d="M35.4 5h1v1h-1z"/></g><path d="M31.4 5V4h1V3h-1V2h-1v1h-1v1h1v1h1zm-6 5h1v1h-1zm0-2h1v1h-1zm0-3h1v1h-1zm6 4h1v1h-1zm-2-3h1v1h-1zm4-3h1v1h-1zm-6 0h1v1h-1zm5 8h1v1h-1zm-4 0h1v1h-1zm5-4h1v1h-1zm2 3h1v1h-1zm0-2h1v1h-1zm0-3h1v1h-1zm-8 2h1v1h-1z" fill="#f0f"/><path d="M30.4 6v8h1V5h-1v1zm2-1v6h1V4h-1v1zm0 8v1h1v-2h-1v1zm-4-8v6h1V4h-1v1zm0 8v1h1v-2h-1v1zm6-6v5h1V6h-1v1zm-8 0v5h1V6h-1v1z" fill="#00af00"/><path d="M30.4 3h1v1h-1z" fill="#ff0"/><path d="M39 3h1v1h-1zm8-2h1v1h-1zm-6 0h1v1h-1z" fill="#0f0"/><use href="#A" x="27" fill="#ff3bff"/><path d="M49 3h1v1h-1z" fill="#0f0"/><path d="M45 3V2h1V1h-1V0h-1v1h-1v1h1v1h1zm-6 5h1v1h-1zm0-2h1v1h-1zm0-3h1v1h-1zm6 4h1v1h-1zm-2-3h1v1h-1zm4-3h1v1h-1zm-6 0h1v1h-1zm5 8h1v1h-1zm-4 0h1v1h-1zm5-4h1v1h-1zm2 3h1v1h-1zm0-2h1v1h-1zm0-3h1v1h-1zm-8 2h1v1h-1z" fill="#8700ff"/><path d="M44 4v8h1V3h-1v1zm2-1v6h1V2h-1v1zm0 8v1h1v-2h-1v1zm-4-8v6h1V2h-1v1zm0 8v1h1v-2h-1v1zm6-6v5h1V4h-1v1zm-8 0v5h1V4h-1v1z" fill="#ff9aff"/><path d="M44 1h1v1h-1z" fill="#ff0"/><defs><path id="A" d="M21 3h-1V2h-1V1h-1V0h-1v1h-1v1h-1v1h-1v1h-1v2h-1v1h1v1h-1v1h1v1h1v1h1v1h5v-1h1v-1h1V9h1V8h-1V7h1V6h-1V4h-1V3z"/></defs></svg></g></svg>