<svg xmlns="http://www.w3.org/2000/svg" viewBox="0 0 64 64"><g class="gotchi-bg"><defs fill="#fff"><pattern id="a" patternUnits="userSpaceOnUse" width="4" height="4"><path d="M0 0h1v1H0zm2 2h1v1H2z"/></pattern><pattern id="b" patternUnits="userSpaceOnUse" x="0" y="0" width="2" height="2"><path d="M0 0h1v1H0z"/></pattern><pattern id="c" patternUnits="userSpaceOnUse" x="-2" y="0" width="8" height="1"><path d="M0 0h1v1H0zm2 0h1v1H2zm2 0h1v1H4z"/></pattern><pattern id="d" patternUnits="userSpaceOnUse" x="0" y="0" width="4" height="4"><path d="M0 0h1v1H0zm0 2h1v1H0zm1 0V1h1v1zm1 0h1v1H2zm0-1h1V0H2zm1 2h1v1H3z"/></pattern><pattern id="e" patternUnits="userSpaceOnUse" width="64" height="32"><path d="M4 4h1v1H4zm7 0h1v1h-1zm7 0h1v1h-1zm7 0h1v1h-1zm7 0h1v1h-1zm7 0h1v1h-1zm7 0h1v1h-1zm7 0h1v1h-1zm7 0h1v1h-1z"/><path fill="url(#a)" d="M0 8h64v7H0z"/><path fill="url(#b)" d="M0 16h64v1H0z"/><path fill="url(#c)" d="M0 18h64v1H0z"/><path fill="url(#b)" d="M22 18h15v1H22zM0 20h64v3H0z"/><path fill="url(#d)" d="M0 24h64v8H0z"/></pattern><mask id="f"><path fill="url(#e)" d="M0 0h64v32H0z"/></mask></defs><path fill="#fff" d="M0 0h64v32H0z"/><path fill="#dea8ff" class="gotchi-secondary" mask="url(#f)" d="M0 0h64v32H0z"/><path fill="#dea8ff" class="gotchi-secondary" d="M0 32h64v32H0z"/><path mask="url(#f)" fill="#fff" transform="matrix(1 0 0 -1 0 64)" d="M0 0h64v32H0z"/></g><style>.gotchi-primary{fill:#64438E;}.gotchi-secondary{fill:#EDD3FD;}.gotchi-cheek{fill:#F696C6;}.gotchi-eyeColor{fill:#EA8C27;}.gotchi-primary-mouth{fill:#64438E;}.gotchi-sleeves-up{display:none;}.gotchi-handsUp{display:none;}.gotchi-handsDownOpen{display:block;}.gotchi-handsDownClosed{display:none;}</style><g class="gotchi-bg"><defs fill="#fff"><pattern id="a" patternUnits="userSpaceOnUse" width="4" height="4"><path d="M0 0h1v1H0zm2 2h1v1H2z"/></pattern><pattern id="b" patternUnits="userSpaceOnUse" x="0" y="0" width="2" height="2"><path d="M0 0h1v1H0z"/></pattern><pattern id="c" patternUnits="userSpaceOnUse" x="-2" y="0" width="8" height="1"><path d="M0 0h1v1H0zm2 0h1v1H2zm2 0h1v1H4z"/></pattern><pattern id="d" patternUnits="userSpaceOnUse" x="0" y="0" width="4" height="4"><path d="M0 0h1v1H0zm0 2h1v1H0zm1 0V1h1v1zm1 0h1v1H2zm0-1h1V0H2zm1 2h1v1H3z"/></pattern><pattern id="e" patternUnits="userSpaceOnUse" width="64" height="32"><path d="M4 4h1v1H4zm7 0h1v1h-1zm7 0h1v1h-1zm7 0h1v1h-1zm7 0h1v1h-1zm7 0h1v1h-1zm7 0h1v1h-1zm7 0h1v1h-1zm7 0h1v1h-1z"/><path fill="url(#a)" d="M0 8h64v7H0z"/><path fill="url(#b)" d="M0 16h64v1H0z"/><path fill="url(#c)" d="M0 18h64v1H0z"/><path fill="url(#b)" d="M22 18h15v1H22zM0 20h64v3H0z"/><path fill="url(#d)" d="M0 24h64v8H0z"/></pattern><mask id="f"><path fill="url(#e)" d="M0 0h64v32H0z"/></mask></defs><path fill="#fff" d="M0 0h64v32H0z"/><path fill="#dea8ff" class="gotchi-secondary" mask="url(#f)" d="M0 0h64v32H0z"/><path fill="#dea8ff" class="gotchi-secondary" d="M0 32h64v32H0z"/><path mask="url(#f)" fill="#fff" transform="matrix(1 0 0 -1 0 64)" d="M0 0h64v32H0z"/></g><g class="gotchi-body"><path d="M47 14v-2h-2v-2h-4V8h-4V6H27v2h-4v2h-4v2h-2v2h-2v41h4v-2h5v2h5v-2h6v2h5v-2h5v2h4V14z" class="gotchi-primary"/><path d="M45 14v-2h-4v-2h-4V8H27v2h-4v2h-4v2h-2v39h2v-2h5v2h5v-2h6v2h5v-2h5v2h2V14z" class="gotchi-secondary"/><path d="M18,49h2v-1h2v1h2v2h5v-2h2v-1h2v1h2v2h5v-2h2v-1h2v1h1V14h-4v-2h-4v-2h-5V9h-5v2h-4v2h-4v2h-1V49z" fill="#fff"/></g><path class="gotchi-cheek" d="M21 32v2h2v-2h-1zm21 0h-1v2h2v-2z"/><g class="gotchi-primary-mouth"><path d="M29 32h-2v2h2v-1z"/><path d="M33 34h-4v2h6v-2h-1z"/><path d="M36 32h-1v2h2v-2z"/></g><g class="gotchi-shadow"><path opacity=".25" d="M25 58H19v1h1v1h24V59h1V58h-1z" fill="#000"/></g>,<g class="gotchi-collateral"><g fill="#64438e"><path d="M29 17v-2h-1v4h1v-1z"/><path d="M29 14h1v1h-1zm0 5h1v1h-1z"/><path d="M30 20h1v1h-1z"/><path d="M31 21v1h2v-1h-1zm-1-8h1v1h-1zm4 6h1v1h-1zm0-5h1v1h-1z"/><path d="M33 13v-1h-2v1h1zm0 7h1v1h-1z"/><path d="M33 13h1v1h-1zm2 2v4h1v-4z"/></g><path d="M34 17h-2v4h1v-1h1v-1h1v-2z" fill="#c260ff"/><g fill="#dea8ff"><path d="M30 17h-1v2h1v1h1v1h1v-4h-1z"/><path d="M34 15v-1h-1v-1h-1v4h3v-2z"/></g><path d="M31 17h1v-4h-1v1h-1v1h-1v2h1z" fill="#edd3fd"/></g>
    <style>
        .gotchi-bg { display: none }
    </style>
<g class="gotchi-eyeColor"><path d="M27 23H26H25H24H23H22H21V24V25H22H23H24H25H26H27H28H29V24V23H28H27Z" class="gotchi-primary" /><path d="M42 23H41H40H39H38H37H36H35V24V25H36H37H38H39H40H41H42H43V24V23H42Z" class="gotchi-primary" /><rect x="24" y="23" width="2" height="2" /> <rect x="38" y="23" width="2" height="2" /></g><g class="gotchi-wearable wearable-body"><svg x="12" y="31"><path d="M35 0v1h-3v2h-3v2h-3v1h-1v1H15V6h-1V5h-3V3H8V1H5V0H4L2.5 2v16H3v6h4v-1h5v1h5v-1h6v1h5v-1h5v1h4v-6h.5V2L36 0h-1z" fill="#000032"/><path d="M35 20h-1v1h2v-1h-1zM4 20v1h2v-1H4z" fill="#ff9600"/><path d="M36 10h1v1h-1zm-3 0v1h2v-1h-2zm-3 2v1h2v-1h-2zm-3 2v1h2v-1h-2zm-2 8h1v1h-1zm0-2h1v1h-1zm0-2h1v1h-1zm0-2h1v1h-1zm-11 6h1v1h-1zm0-2h1v1h-1zm0-2h1v1h-1zm0-2h1v1h-1zm-3-2v1h2v-1h-2zm-3-2v1h2v-1H8zm-3-2v1h2v-1H5zm-2 0h1v1H3z" fill="#0ff"/><path d="M36 6h-2v2h-3v2h-3v2h-3v2h-2v2h1v-1h2v-2h3v-2h3V9h5V6h-1zm0 2h-1V7h1v1zM23 21h1v1h-1zm0-2h1v1h-1zm0-2h1v1h-1zm-7 4h1v1h-1zm0-2h1v1h-1zm0-2h1v1h-1zm-1-3v-2h-3v-2H9V8H6V6H3v3h5v2h3v2h3v2h2v1h1v-2h-2zM4 8V7h1v1H4z" fill="#0f0"/><path d="M35 2h-2v3h3V2h-1zm0 2h-1V3h1v1zm-7 2h-1v3h3V6h-2zm1 2h-1V7h1v1zm-7 2h-1v3h3v-3h-2zm1 2h-1v-1h1v1zm-3 9h-2v1h4v-1h-2zm0-4h-2v1h4v-1h-2zm-1-4v-3h-3v3h3zm-2-1v-1h1v1h-1zm-6-6h-1v3h3V6h-2zm1 2h-1V7h1v1zM5 2H4v3h3V2H5zm1 2H5V3h1v1z" fill="#f0f"/><g fill="#ff0"><path d="M36 0v2h1.5V1H37V0h-1zm-2 22v1h2v-1h-2zM31 4h-1v3h3V4h-2zm1 2h-1V5h1v1zm-7 2h-1v3h3V8h-2zm1 2h-1V9h1v1zm-4-3h1v1h-1zm-1 7v1h-2v-2h-1v3h4v-3h-1v1z"/><path d="M21 8h1v1h-1zm-1 11h-2v1h4v-1h-2z"/><path d="M21 13v-1h-2v1h2zm-2-4v1h2V9h-2z"/><path d="M18 8h1v1h-1z"/><path d="M17 7h1v1h-1zm-3 1h-1v3h3V8h-2zm1 2h-1V9h1v1zM4 22v1h2v-1H4zM8 4H7v3h3V4H8zm1 2H8V5h1v1zM4 1V0H3v1h-.5v1H4z"/></g></svg></g><g class="gotchi-handsDownClosed"><g class="gotchi-primary"><path d="M19 42h1v1h-1zm1-6h1v1h-1z"/><path d="M21 37h1v1h-1zm5 3v4h1v-4zm-5 3h-1v1h2v-1z"/><path d="M24 44h-2v1h4v-1h-1zm1-5h-1v1h2v-1z"/><path d="M23 38h-1v1h2v-1z"/></g><g class="gotchi-secondary"><path d="M19 43h1v1h-1zm5 2h-2v1h4v-1h-1z"/><path d="M27 41v3h1v-3zm-6 3h-1v1h2v-1z"/><path d="M26 44h1v1h-1zm-7-3h-1v2h1v-1z"/></g><g class="gotchi-primary"><path d="M44 42h1v1h-1zm-1-6h1v1h-1z"/><path d="M42 37h1v1h-1z"/><path d="M42 39v-1h-2v1h1zm0 4v1h2v-1h-1z"/><path d="M40 44h-2v1h4v-1h-1z"/><path d="M38 42v-2h-1v4h1v-1z"/><path d="M40 40v-1h-2v1h1z"/></g><g class="gotchi-secondary"><path d="M42 44v1h2v-1h-1zm-5-2v-1h-1v3h1v-1z"/><path d="M40 45h-2v1h4v-1h-1z"/><path d="M37 44h1v1h-1zm7-1h1v1h-1z"/></g></g><g class="gotchi-handsDownOpen"><g class="gotchi-primary"><path d="M56 38v-1h-2v-1h-2v-1h-1v-1h-1v-1h-1v8h1v1h2v1h4v-1h1v-4z"/></g><g class="gotchi-secondary"><path d="M54 38v-1h-2v-1h-1v-1h-1v-1h-1v6h1v1h2v1h4v-4z" /></g><path d="M54,38v-1h-2v-1h-1v-1h-1v-1h-1v5h1v1h2v1h4v-3H54z" fill="#fff"/><g class="gotchi-primary"><path d="M8 38v-1h2v-1h2v-1h1v-1h1v-1h1v8h-1v1h-2v1H8v-1H7v-4z"/></g><g class="gotchi-secondary"><path d="M10 38v-1h2v-1h1v-1h1v-1h1v6h-1v1h-2v1H8v-4z" /></g><path d="M8,38v3h4v-1h2v-1h1v-5h-1v1h-1v1h-1v1h-2v1H8z" fill="#fff"/></g><g class="gotchi-handsUp"><g class="gotchi-secondary"><path d="M50,38h1v1h-1V38z"/><path d="M49 39h1v1h-1v-1zm2-2h1v1h-1v-1z"/><path d="M52,36h2v1h-2V36z"/><path d="M54,35h2v1h-2V35z"/></g><path d="M52,32v1h-2v1h-1v5h1v-1h1v-1h1v-1h2v-1h2v-3H52z" fill="#fff"/><g class="gotchi-primary"><path d="M49,33h1v1h-1V33z"/><path d="M50 32h2v1h-2v-1zm0 7h1v1h-1v-1z"/><path d="M49 40h1v1h-1v-1zm2-2h1v1h-1v-1z"/><path d="M52 37h2v1h-2v-1zm0-6h4v1h-4v-1z"/><path d="M56,32h1v4h-1V32z"/><path d="M54,36h2v1h-2V36z"/></g><g class="gotchi-secondary"><path d="M13,38h1v1h-1V38z"/><path d="M14 39h1v1h-1v-1zm-2-2h1v1h-1v-1z"/><path d="M10,36h2v1h-2V36z"/><path d="M8,35h2v1H8V35z"/></g><path d="M8,32v3h2v1h2v1h1v1h1v1h1v-5h-1v-1h-2v-1H8z" fill="#fff"/><g class="gotchi-primary"><path d="M14,33h1v1h-1V33z"/><path d="M12 32h2v1h-2v-1zm1 7h1v1h-1v-1z"/><path d="M14 40h1v1h-1v-1zm-2-2h1v1h-1v-1z"/><path d="M10 37h2v1h-2v-1zm-2-6h4v1H8v-1z"/><path d="M7,32h1v4H7V32z"/><path d="M8,36h2v1H8V36z"/></g></g><g class="gotchi-wearable wearable-face"><svg x="11" y="2"><path d="M38 6h-2v2h2V6zM4 6v2h2V6H4z"/><path d="M6 4v2h2V4H6z"/><path d="M8 2v2h4V2H8zm28 2h-2v2h2V4z"/><path d="M34 2h-4v2h4V2z"/><path d="M30 0H12v2h18V0zM2 8v9H0v10h2v2h2V8H2zm38 9V8h-2v21h2v-2h2V17h-2z"/><path d="M40 19v-4h-2v14h2v-4h2v-6h-2z" fill="#323232"/><path d="M38 17v10h2V17h-2z" fill="#828282"/><path d="M38 19v6h2v-6h-2z" fill="#afafaf"/><path d="M2 19v-4h2v14H2v-4H0v-6h2z" fill="#323232"/><path d="M4 17v10H2V17h2z" fill="#828282"/><path d="M4 19v6H2v-6h2z" fill="#afafaf"/></svg></g><g class="gotchi-wearable wearable-eyes"><svg x="14" y="5"><path d="M35,13v-2h-2V9H21V0h-6v9H3v2H1v2H0v7h1v2h2v2h2v2h10v-2h6v2h10v-2h2v-2h2v-2h1v-7H35z"/><path d="M3,11v11h2v2h10v-2h6v2h10v-2h2V11H3z" fill="#ff0097"/><path d="M5,13v9h10v-2h6v2h10v-9H5z" fill="#ff14ff"/><path d="M7 11h2v13H7V11zm20 0h2v13h-2V11zm-2 0h1v13h-1V11zm-15 0h1v13h-1V11z" opacity=".8" fill="#fff" enable-background="new"/></svg></g><g class="gotchi-wearable wearable-head"><svg x="12" y="1"><path d="M39 28v-1h-1V13h-1v-2h-1v-1h-1V9h-1V8h-1V7h-1V6h-2V5h-8V4h1V3h1V2h-1V1h-1V0h-4v1h-1v1h-1v1h1v1h1v1h-8v1H8v1H7v1H6v1H5v1H4v1H3v2H2v14H1v1H0v1h1v1h1v-1h1v-1h1v-2h2v-5h2v-1h2v-1h4v-1h2v-1h8v1h2v1h4v1h2v1h2v5h2v2h1v1h1v1h1v-1h1v-1h-1z" fill="#000032"/><path d="M11 5v1h2V5h-2zm17 0h-1v1h2V5h-1zm-1 4v1h2V9h-2zM11 9v1h2V9h-2zm11-1h-1v3h3V8h-2zm1 2h-1V9h1v1zm-6-2h-1v3h3V8h-2zm1 2h-1V9h1v1zm-7 3v1h2v-1h-2zm16 0v1h2v-1h-2z" fill="#f0f"/><g fill="#ff0"><path d="M17 5h1v1h-1zm5-4h-4v1h-1v1h1v1h1v1h2V4h1V3h1V2h-1V1zm-1 2h-2V2h2v1zm1 2h1v1h-1zm-1 7v-1h-2v1h2zm-2-5v1h2V7h-2z"/><path d="M21 6h1v1h-1zm-3 0h1v1h-1zM2 26v1h1v-2H2v1zm-1 2h1v1H1zm36-1h1v-2h-1v2zm1 1h1v1h-1z"/><path d="M36 24v-4h-1v5h2v-1h-1zM7 18v1h2v-1H7z"/><path d="M5 19v1h2v-1H5z"/><path d="M4 21v3H3v1h2v-5H4v1zm7-4H9v1h4v-1h-2zm19 0h-3v1h4v-1h-1z"/><path d="M32 18h-1v1h2v-1h-1z"/><path d="M34 19h-1v1h2v-1h-1zm-15-4v1h2v-1h-2z"/><path d="M18 14h1v1h-1zm3 0h1v1h-1z"/><path d="M19 13v1h2v-1h-2z"/><path d="M18 12h1v1h-1zm3 0h1v1h-1z"/></g><path d="M27 11v1h2v-1h-2zm-16 0v1h2v-1h-2zm17-4h-1v1h2V7h-1zM11 7v1h2V7h-2zm0 8v1h2v-1h-2zm5 0v1h2v-1h-2zm6 0v1h2v-1h-2zm5 0v1h2v-1h-2zm-10-2v-1h-1v2h1v-1zm6 0v1h1v-2h-1v1z" fill="#0f0"/><path d="M14 6v1h1V5h-1v1zm11-1v2h1V5h-1zm0 5h1v1h-1zm-11 0h1v1h-1zm11-2h1v1h-1zM14 8h1v1h-1zm0 8v1h1v-2h-1v1zm11 0v1h1v-2h-1v1zm-11-3v1h1v-2h-1v1zm11 0v1h1v-2h-1v1z" fill="#0ff"/></svg></g>"><svg x="12" y="31"><g><g class="gotchi-sleeves gotchi-sleeves-left gotchi-sleeves-up"><path d="M38 1h2v10h-1v4h-1v3h-1V1h1z" fill="#000032"/><path d="M36.8 0H38v1h-1.2z" fill="#ff0"/><path d="M37 2v4h1V5h2V1h-1v1h-2zm1 1h1v1h-1V3z" fill="#0f0"/></g><g class="gotchi-sleeves gotchi-sleeves-left gotchi-sleeves-down"><path d="M38 2h1v2h1v10h-1v2h-1v3h-1V2h1z" fill="#000032"/><path d="M36.5 1H38v1h-1.5z" fill="#ff0"/><path d="M39 3v1h-1v1h1V4h1v2h-3V3h2z" fill="#0f0"/></g><g class="gotchi-sleeves gotchi-sleeves-right gotchi-sleeves-up"><path d="M2 1H0v10h1v4h1v3h1V1H2z" fill="#000032"/><path d="M2 0h1.5v1H2z" fill="#ff0"/><path d="M1 2V1H0v4h2v1h1V2H1zm1 2H1V3h1v1z" fill="#0f0"/></g><g class="gotchi-sleeves gotchi-sleeves-right gotchi-sleeves-down"><path d="M2 2H1v2H0v10h1v2h1v3h1V2H2z" fill="#000032"/><path d="M2 1h1.5v1H2z" fill="#ff0"/><path d="M1 3v1h1v1H1V4H0v2h3V3H1z" fill="#0f0"/></g></g></svg><g class="gotchi-wearable wearable-hand wearable-hand-left"><svg x="0" y="30"><path d="M15 12v-1h-1v-1h1V1h-1V0H2v1H1v9h1v1H1v1H0v2h16v-2h-1z"/><path d="M14 12v-1H2v1H1v1h14v-1h-1z" fill="#646464"/><path d="M2 1v9h12V1H2z" fill="#323232"/><g fill="#969696"><path d="M2 11h1v1H2zm2 0h1v1H4zm2 0h1v1H6zm2 0h1v1H8z"/><path d="M10 11h1v1h-1zm2 0h1v1h-1zM1 12h1v1H1zm2 0h1v1H3z"/><path d="M5 12h1v1H5zm2 0h1v1H7zm2 0h1v1H9zm2 0h1v1h-1zm2 0h1v1h-1z"/></g><path d="M3 4v4h1V3H3v1zm2-1v1h1v1H5v1h1v1H5v1h2V3H5zm3 0v1h1v1H8v1h1v1H8v1h2V3H8zm3 0v1h1v4h1V3h-2z" fill="#0f0"/></svg></g><g class="gotchi-wearable wearable-hand wearable-hand-right"><svg x="6" y="10"><g transform="scale(-1, 1) translate(-52, 0)"><path d="M7 27v-3H6V2H5V1H4V0H3v1H2v1H1v22H0v3h2v5H1v1h1v1h1v1h1v-1h1v-1h1v-1H5v-5z" fill="#333"/><g fill="gray"><path d="M5 24v1H4v1H3v-1H2v-1H1v2h1v1h1v5H2v1h1v1h1v-1h1v-1H4v-5h1v-1h1v-2H5z"/><path d="M3 24h1v1H3z"/><path d="M3 23h1v1h1V2H4V1H3v1H2v22h1v-1z"/></g><path d="M4,25v1H3v-1H2v2h3v-2H4z" fill="#a0a5a9"/><path d="M4 2V1H3v1H2v22h1v-1h1v1h1V2z" fill="#bfbfbf"/><path d="M3 32h1v1H3zm0-4h1v1H3zm0 2h1v1H3z" fill="#c7c7c7"/><path d="M3 24h1v1H3z" fill="#f0f"/><path d="M4,2V1H3v21h2V2H4z" fill="#e6e6e6"/></g></svg></g><g class="gotchi-wearable wearable-pet"><svg x="44" y="33"><path d="M16 4V3h-1V2h-1V1h-2V0H5v1H3v1H2v1H1v1H0v7h1v1h1v1h1v1h2v1h2v2H3v1H1v2h1v1H1v1H0v3h1v1h2v-1h1v-1h1v-1h7v1h1v1h1v1h2v-1h1v-3h-1v-1h-1v-1h1v-2h-2v-1h-4v-2h2v-1h2v-1h1v-1h1v-1h1V4h-1z"/><path d="M15 4V3h-1V2h-2V1H5v1H3v1H2v1H1v7h1v1h1v1h2v1h3v3h1v-3h3v-1h2v-1h1v-1h1V4h-1zM8 8v1H7V8h1V7H7V6h1v1h1V6h1v1H9v1h1v1H9V8H8z" fill="#a0a0a0"/><g fill="#2800af"><path d="M2 19h1v1H2z"/><path d="M5 21v-1H3v2h1v-1h1z"/><path d="M4 22h1v1H4z"/><path d="M5 21v1h2v-1H5zm6 0h-1v1h2v-1h-1z"/><path d="M12 20v1h1v1h1v-2h-2z"/><path d="M14 19h1v1h-1zm-2 3h1v1h-1zm-1-2h1v-1h1v-1H4v1h1v1h2v1h1v1h1v-1h1v-1h1z"/></g><g fill="#e6e6e6"><path d="M14 11h1v1h-1z"/><path d="M15 4v7h1V4h-1z"/><path d="M14 3h1v1h-1zm-2 9v1h2v-1h-2z"/><path d="M13 3h1V2h-2v1h1zM2 11h1v1H2z"/><path d="M2 9V4H1v7h1V9z"/><path d="M2 3h1v1H2zm2 9H3v1h2v-1H4z"/><path d="M5 3V2H3v1h2z"/><path d="M7 2h5V1H5v1h2zm3 11H5v1h7v-1h-2zM8 6h1v1H8z"/><path d="M7 7h1v1H7zm2 0h1v1H9z"/><path d="M8 8h1v1H8z"/></g><g fill="#c8c8c8"><path d="M6 5h1v1h3V5h1V4h1V3H5v1h1v1z"/><path d="M6 10V9h1V6H6V5H5V4H3v7h2v-1h1z"/><path d="M11 10h-1V9H7v1H6v1H5v1h7v-1h-1v-1z"/><path d="M14 4h-2v1h-1v1h-1v3h1v1h1v1h2V4z"/></g><path d="M14 22v3h2v-3h-2z" fill="#a0a0a0"/><path d="M15 22v3h1v-3h-1z" fill="#e6e6e6"/><path d="M3 22v3H1v-3h2z" fill="#a0a0a0"/><path d="M2 22v3H1v-3h1z" fill="#e6e6e6"/><g fill="#4309d7"><path d="M5 19v1h2v-1H5z"/><path d="M4 20h1v1H4z"/><path d="M5 21h1v1H5zm6 0h1v1h-1z"/><path d="M12 20h1v1h-1z"/><path d="M11 19h-1v1h2v-1h-1z"/></g><path d="M4 18h1v1H4zm-2 1h1v1H2zm1 2h1v1H3zm5-2H7v1h3v-1H8zm0 2h1v1H8zm6-2h1v1h-1zm-1 2h1v1h-1zm-1-3h1v1h-1z" fill="#ff09d7"/></svg></g></svg>