<svg xmlns="http://www.w3.org/2000/svg" viewBox="0 0 64 64"><g class="gotchi-bg"><defs fill="#fff"><pattern id="a" patternUnits="userSpaceOnUse" width="4" height="4"><path d="M0 0h1v1H0zm2 2h1v1H2z"/></pattern><pattern id="b" patternUnits="userSpaceOnUse" x="0" y="0" width="2" height="2"><path d="M0 0h1v1H0z"/></pattern><pattern id="c" patternUnits="userSpaceOnUse" x="-2" y="0" width="8" height="1"><path d="M0 0h1v1H0zm2 0h1v1H2zm2 0h1v1H4z"/></pattern><pattern id="d" patternUnits="userSpaceOnUse" x="0" y="0" width="4" height="4"><path d="M0 0h1v1H0zm0 2h1v1H0zm1 0V1h1v1zm1 0h1v1H2zm0-1h1V0H2zm1 2h1v1H3z"/></pattern><pattern id="e" patternUnits="userSpaceOnUse" width="64" height="32"><path d="M4 4h1v1H4zm7 0h1v1h-1zm7 0h1v1h-1zm7 0h1v1h-1zm7 0h1v1h-1zm7 0h1v1h-1zm7 0h1v1h-1zm7 0h1v1h-1zm7 0h1v1h-1z"/><path fill="url(#a)" d="M0 8h64v7H0z"/><path fill="url(#b)" d="M0 16h64v1H0z"/><path fill="url(#c)" d="M0 18h64v1H0z"/><path fill="url(#b)" d="M22 18h15v1H22zM0 20h64v3H0z"/><path fill="url(#d)" d="M0 24h64v8H0z"/></pattern><mask id="f"><path fill="url(#e)" d="M0 0h64v32H0z"/></mask></defs><path fill="#fff" d="M0 0h64v32H0z"/><path fill="#dea8ff" class="gotchi-secondary" mask="url(#f)" d="M0 0h64v32H0z"/><path fill="#dea8ff" class="gotchi-secondary" d="M0 32h64v32H0z"/><path mask="url(#f)" fill="#fff" transform="matrix(1 0 0 -1 0 64)" d="M0 0h64v32H0z"/></g><style>.gotchi-primary{fill:#000000;}.gotchi-secondary{fill:#FBDFEB;}.gotchi-cheek{fill:#F696C6;}.gotchi-eyeColor{fill:#5D24BF;}.gotchi-primary-mouth{fill:#000000;}.gotchi-sleeves-up{display:none;}.gotchi-handsUp{display:none;}.gotchi-handsDownOpen{display:block;}.gotchi-handsDownClosed{display:none;}</style><g class="gotchi-bg"><defs fill="#fff"><pattern id="a" patternUnits="userSpaceOnUse" width="4" height="4"><path d="M0 0h1v1H0zm2 2h1v1H2z"/></pattern><pattern id="b" patternUnits="userSpaceOnUse" x="0" y="0" width="2" height="2"><path d="M0 0h1v1H0z"/></pattern><pattern id="c" patternUnits="userSpaceOnUse" x="-2" y="0" width="8" height="1"><path d="M0 0h1v1H0zm2 0h1v1H2zm2 0h1v1H4z"/></pattern><pattern id="d" patternUnits="userSpaceOnUse" x="0" y="0" width="4" height="4"><path d="M0 0h1v1H0zm0 2h1v1H0zm1 0V1h1v1zm1 0h1v1H2zm0-1h1V0H2zm1 2h1v1H3z"/></pattern><pattern id="e" patternUnits="userSpaceOnUse" width="64" height="32"><path d="M4 4h1v1H4zm7 0h1v1h-1zm7 0h1v1h-1zm7 0h1v1h-1zm7 0h1v1h-1zm7 0h1v1h-1zm7 0h1v1h-1zm7 0h1v1h-1zm7 0h1v1h-1z"/><path fill="url(#a)" d="M0 8h64v7H0z"/><path fill="url(#b)" d="M0 16h64v1H0z"/><path fill="url(#c)" d="M0 18h64v1H0z"/><path fill="url(#b)" d="M22 18h15v1H22zM0 20h64v3H0z"/><path fill="url(#d)" d="M0 24h64v8H0z"/></pattern><mask id="f"><path fill="url(#e)" d="M0 0h64v32H0z"/></mask></defs><path fill="#fff" d="M0 0h64v32H0z"/><path fill="#dea8ff" class="gotchi-secondary" mask="url(#f)" d="M0 0h64v32H0z"/><path fill="#dea8ff" class="gotchi-secondary" d="M0 32h64v32H0z"/><path mask="url(#f)" fill="#fff" transform="matrix(1 0 0 -1 0 64)" d="M0 0h64v32H0z"/></g><g class="gotchi-body"><path d="M47 14v-2h-2v-2h-4V8h-4V6H27v2h-4v2h-4v2h-2v2h-2v41h4v-2h5v2h5v-2h6v2h5v-2h5v2h4V14z" class="gotchi-primary"/><path d="M45 14v-2h-4v-2h-4V8H27v2h-4v2h-4v2h-2v39h2v-2h5v2h5v-2h6v2h5v-2h5v2h2V14z" class="gotchi-secondary"/><path d="M18,49h2v-1h2v1h2v2h5v-2h2v-1h2v1h2v2h5v-2h2v-1h2v1h1V14h-4v-2h-4v-2h-5V9h-5v2h-4v2h-4v2h-1V49z" fill="#fff"/></g><path class="gotchi-cheek" d="M21 32v2h2v-2h-1zm21 0h-1v2h2v-2z"/><g class="gotchi-primary-mouth"><path d="M29 32h-2v2h2v-1z"/><path d="M33 34h-4v2h6v-2h-1z"/><path d="M36 32h-1v2h2v-2z"/></g><g class="gotchi-shadow"><path opacity=".25" d="M25 58H19v1h1v1h24V59h1V58h-1z" fill="#000"/></g>,<g class="gotchi-collateral"><path d="M35.5 20h1v-1h1v-5h-1v-1h-1v-1h-1v-1h-5v1h-1v1h-1v1h-1v5h1v1h1v1h1v1h5v-1h1v-1zm0-2h-1v1h-4v-1h-1v-3h1v-1h4v1h1v3z"/><path d="M28.5 15h1v-1h1v-1h3v-1h-4v1h-1v1h-1v5h1v1h1v1h4v-1h-3v-1h-1v-1h-1v-3z" fill="#e51b6d"/></g>
    <style>
        .gotchi-bg { display: none }
    </style>
<g class="gotchi-eyeColor"><path d="M23 22h-1v1h1v-1zm0 5h-1v1h1v-1zm5-5h-1v1h1v-1zm0 5h-1v1h1v-1zm14 0h-1v1h1v-1zm0-5h-1v1h1v-1zm-5 0h-1v1h1v-1zm0 5h-1v1h1v-1z" class="gotchi-primary" /><g><path d="M25 26h-1v1h1v-1zm2-1h-1v1h1v-1zm-3-1h-1v1h1v-1z" /><path d="M25 23h-1v1h1v-1z" /><path d="M25 24h-1v1h1v-1zm2 0h-1v1h1v-1zm-1 2h-1v1h1v-1z" /><path d="M25 25h-1v1h1v-1z" /><path d="M26 25h-1v1h1v-1zm-2 0h-1v1h1v-1zm2-2h-1v1h1v-1z" /><path d="M26 24h-1v1h1v-1zm13 2h-1v1h1v-1zm2-1h-1v1h1v-1zm-3-1h-1v1h1v-1z" /><path d="M39 24h-1v1h1v-1z" /><path d="M38 23h1v1h-1m0 1h-1v1h1v-1zm2 1h-1v1h1v-1z" /><path d="M40 25h-1v1h1v-1z" /><path d="M39 25h-1v1h1v-1zm2-1h-1v1h1v-1z" /><path d="M40 23h-1v1h1v-1z" /><path d="M40 24h-1v1h1v-1z" /></g></g><g class="gotchi-wearable wearable-body"><svg x="7" y="31"><path d="M38,2v4h-1v1h-4v1H17V7h-4V6h-1V2H8v22h4v-2h5v2h5v-2h6v2h5v-2h5v2h4V2H38z" fill="#ff0"/><path d="M31,9h5v5h-5V9z" fill="#f60"/><path d="M32 10v1h1v-1h-1zm1 1v1h1v-1h-1zm1 0h1v-1h-1v1zm0 1v1h1v-1h-1zm-1 0h-1v1h1v-1z" fill="#fff"/><path d="M12 20v2h5v-2h-5zm5 2v2h5v-2h-5zm5 0h6v-2h-6v2zm6 0v2h5v-2h-5zm5 0h5v-2h-5v2zM8 23v1h4v-1H8zm30 0v1h4v-1h-4z"/><path d="M8 2v1h3v4h1v1h5V7h-4V6h-1V2H8zm9 6v1h16V8H17zm16 0h5V7h1V3h3V2h-4v4h-1v1h-4v1zM8 9v14h4v-1H9V9H8zm33 0v13h-3v1h4V9h-1z" fill="#d8d800"/><path d="M24 9h2v9h-2z"/><g fill="#252525"><path d="M24,9h1v1h-1V9z"/><path d="M25,10h1v1h-1V10z"/><path d="M24,11h1v1h-1V11z"/><path d="M25,12h1v1h-1V12z"/><path d="M24,13h1v1h-1V13z"/><path d="M25,14h1v1h-1V14z"/><path d="M24,15h1v1h-1V15z"/><path d="M25,16h1v1h-1V16z"/><path d="M24,17h1v1h-1V17z"/></g></svg></g><g class="gotchi-handsDownClosed"><g class="gotchi-primary"><path d="M19 42h1v1h-1zm1-6h1v1h-1z"/><path d="M21 37h1v1h-1zm5 3v4h1v-4zm-5 3h-1v1h2v-1z"/><path d="M24 44h-2v1h4v-1h-1zm1-5h-1v1h2v-1z"/><path d="M23 38h-1v1h2v-1z"/></g><g class="gotchi-secondary"><path d="M19 43h1v1h-1zm5 2h-2v1h4v-1h-1z"/><path d="M27 41v3h1v-3zm-6 3h-1v1h2v-1z"/><path d="M26 44h1v1h-1zm-7-3h-1v2h1v-1z"/></g><g class="gotchi-primary"><path d="M44 42h1v1h-1zm-1-6h1v1h-1z"/><path d="M42 37h1v1h-1z"/><path d="M42 39v-1h-2v1h1zm0 4v1h2v-1h-1z"/><path d="M40 44h-2v1h4v-1h-1z"/><path d="M38 42v-2h-1v4h1v-1z"/><path d="M40 40v-1h-2v1h1z"/></g><g class="gotchi-secondary"><path d="M42 44v1h2v-1h-1zm-5-2v-1h-1v3h1v-1z"/><path d="M40 45h-2v1h4v-1h-1z"/><path d="M37 44h1v1h-1zm7-1h1v1h-1z"/></g></g><g class="gotchi-handsDownOpen"><g class="gotchi-primary"><path d="M56 38v-1h-2v-1h-2v-1h-1v-1h-1v-1h-1v8h1v1h2v1h4v-1h1v-4z"/></g><g class="gotchi-secondary"><path d="M54 38v-1h-2v-1h-1v-1h-1v-1h-1v6h1v1h2v1h4v-4z" /></g><path d="M54,38v-1h-2v-1h-1v-1h-1v-1h-1v5h1v1h2v1h4v-3H54z" fill="#fff"/><g class="gotchi-primary"><path d="M8 38v-1h2v-1h2v-1h1v-1h1v-1h1v8h-1v1h-2v1H8v-1H7v-4z"/></g><g class="gotchi-secondary"><path d="M10 38v-1h2v-1h1v-1h1v-1h1v6h-1v1h-2v1H8v-4z" /></g><path d="M8,38v3h4v-1h2v-1h1v-5h-1v1h-1v1h-1v1h-2v1H8z" fill="#fff"/></g><g class="gotchi-handsUp"><g class="gotchi-secondary"><path d="M50,38h1v1h-1V38z"/><path d="M49 39h1v1h-1v-1zm2-2h1v1h-1v-1z"/><path d="M52,36h2v1h-2V36z"/><path d="M54,35h2v1h-2V35z"/></g><path d="M52,32v1h-2v1h-1v5h1v-1h1v-1h1v-1h2v-1h2v-3H52z" fill="#fff"/><g class="gotchi-primary"><path d="M49,33h1v1h-1V33z"/><path d="M50 32h2v1h-2v-1zm0 7h1v1h-1v-1z"/><path d="M49 40h1v1h-1v-1zm2-2h1v1h-1v-1z"/><path d="M52 37h2v1h-2v-1zm0-6h4v1h-4v-1z"/><path d="M56,32h1v4h-1V32z"/><path d="M54,36h2v1h-2V36z"/></g><g class="gotchi-secondary"><path d="M13,38h1v1h-1V38z"/><path d="M14 39h1v1h-1v-1zm-2-2h1v1h-1v-1z"/><path d="M10,36h2v1h-2V36z"/><path d="M8,35h2v1H8V35z"/></g><path d="M8,32v3h2v1h2v1h1v1h1v1h1v-5h-1v-1h-2v-1H8z" fill="#fff"/><g class="gotchi-primary"><path d="M14,33h1v1h-1V33z"/><path d="M12 32h2v1h-2v-1zm1 7h1v1h-1v-1z"/><path d="M14 40h1v1h-1v-1zm-2-2h1v1h-1v-1z"/><path d="M10 37h2v1h-2v-1zm-2-6h4v1H8v-1z"/><path d="M7,32h1v4H7V32z"/><path d="M8,36h2v1H8V36z"/></g></g><g class="gotchi-wearable wearable-head"><svg x="12" y="1"><path d="M39 28v-1h-1V13h-1v-2h-1v-1h-1V9h-1V8h-1V7h-1V6h-2V5h-8V4h1V3h1V2h-1V1h-1V0h-4v1h-1v1h-1v1h1v1h1v1h-8v1H8v1H7v1H6v1H5v1H4v1H3v2H2v14H1v1H0v1h1v1h1v-1h1v-1h1v-2h2v-5h2v-1h2v-1h4v-1h2v-1h8v1h2v1h4v1h2v1h2v5h2v2h1v1h1v1h1v-1h1v-1h-1z" fill="#000032"/><path d="M11 5v1h2V5h-2zm17 0h-1v1h2V5h-1zm-1 4v1h2V9h-2zM11 9v1h2V9h-2zm11-1h-1v3h3V8h-2zm1 2h-1V9h1v1zm-6-2h-1v3h3V8h-2zm1 2h-1V9h1v1zm-7 3v1h2v-1h-2zm16 0v1h2v-1h-2z" fill="#f0f"/><g fill="#ff0"><path d="M17 5h1v1h-1zm5-4h-4v1h-1v1h1v1h1v1h2V4h1V3h1V2h-1V1zm-1 2h-2V2h2v1zm1 2h1v1h-1zm-1 7v-1h-2v1h2zm-2-5v1h2V7h-2z"/><path d="M21 6h1v1h-1zm-3 0h1v1h-1zM2 26v1h1v-2H2v1zm-1 2h1v1H1zm36-1h1v-2h-1v2zm1 1h1v1h-1z"/><path d="M36 24v-4h-1v5h2v-1h-1zM7 18v1h2v-1H7z"/><path d="M5 19v1h2v-1H5z"/><path d="M4 21v3H3v1h2v-5H4v1zm7-4H9v1h4v-1h-2zm19 0h-3v1h4v-1h-1z"/><path d="M32 18h-1v1h2v-1h-1z"/><path d="M34 19h-1v1h2v-1h-1zm-15-4v1h2v-1h-2z"/><path d="M18 14h1v1h-1zm3 0h1v1h-1z"/><path d="M19 13v1h2v-1h-2z"/><path d="M18 12h1v1h-1zm3 0h1v1h-1z"/></g><path d="M27 11v1h2v-1h-2zm-16 0v1h2v-1h-2zm17-4h-1v1h2V7h-1zM11 7v1h2V7h-2zm0 8v1h2v-1h-2zm5 0v1h2v-1h-2zm6 0v1h2v-1h-2zm5 0v1h2v-1h-2zm-10-2v-1h-1v2h1v-1zm6 0v1h1v-2h-1v1z" fill="#0f0"/><path d="M14 6v1h1V5h-1v1zm11-1v2h1V5h-1zm0 5h1v1h-1zm-11 0h1v1h-1zm11-2h1v1h-1zM14 8h1v1h-1zm0 8v1h1v-2h-1v1zm11 0v1h1v-2h-1v1zm-11-3v1h1v-2h-1v1zm11 0v1h1v-2h-1v1z" fill="#0ff"/></svg></g>"><svg x="7" y="31"><g><g class="gotchi-sleeves gotchi-sleeves-left gotchi-sleeves-up"><path d="M49 1V0h-4v1h-2v1h-1v8h1V9h1V8h1V7h2V6h2V5h1V1z" fill="#ff0"/><path d="M43 10V9h-1v1h1zm0-1h1V8h-1v1zm1-1h1V7h-1v1zm-1-5V2h-1v1h1zm0-1h1V1h-1v1z" fill="#d8d800"/><path d="M49 1V0h-4v1h-1v5h1v1h2V6h2V5h1V1z"/><path d="M45,1h4v1h-4V1z" fill="#666"/></g><g class="gotchi-sleeves gotchi-sleeves-left gotchi-sleeves-down"><path d="M49 7V6h-2V5h-2V4h-1V3h-1V2h-1v8h1v1h2v1h4v-1h1V7z" fill="#ff0"/><path d="M42 2v1h1V2h-1zm1 2h1V3h-1v1zm1 1h1V4h-1v1zm-2 4v1h1V9h-1zm1 2h1v-1h-1v1z" fill="#d8d800"/><path d="M49 7V6h-2V5h-2v1h-1v5h1v1h4v-1h1V7z"/><path d="M45,10h4v1h-4V10z" fill="#666"/></g><g class="gotchi-sleeves gotchi-sleeves-right gotchi-sleeves-up"><path d="M7 2V1H5V0H1v1H0v4h1v1h2v1h2v1h1v1h1v1h1V2z" fill="#ff0"/><path d="M8 10V9H7v1h1zM7 8H6v1h1V8zM6 7H5v1h1V7zm2-4V2H7v1h1zM7 1H6v1h1V1z" fill="#d8d800"/><path d="M5 1V0H1v1H0v4h1v1h2v1h2V6h1V1z"/><path d="M1 1h4v1H1V1z" fill="#666"/></g><g class="gotchi-sleeves gotchi-sleeves-right gotchi-sleeves-down"><path d="M7 2v1H6v1H5v1H3v1H1v1H0v4h1v1h4v-1h2v-1h1V2z" fill="#ff0"/><path d="M7 2v1h1V2H7zm0 1H6v1h1V3zM6 4H5v1h1V4zm1 5v1h1V9H7zm0 1H6v1h1v-1z" fill="#d8d800"/><path d="M5 6V5H3v1H1v1H0v4h1v1h4v-1h1V6z"/><path d="M1 10h4v1H1v-1z" fill="#666"/></g></g></svg><g class="gotchi-wearable wearable-hand wearable-hand-left"><svg x="6" y="23"><path d="M6 7V6H5V0H2v6H1v1H0v14h1v1h5v-1h1V7z"/><path d="M1,11h2v7H1V11z" fill="#decd87"/><path d="M3,3h1v2H3V3z" fill="#782121"/><path d="M3 1h1v1H3zm2 6V6H2v1H1v3h3v9H1v2h5V7z" fill="green"/><path d="M1 7h1v3H1V7zm0 12h1v2H1v-2z" fill="#0a0"/></svg></g><g class="gotchi-wearable wearable-hand wearable-hand-right"><svg x="6" y="23"><g transform="scale(-1, 1) translate(-52, 0)"><path d="M6 7V6H5V0H2v6H1v1H0v14h1v1h5v-1h1V7z"/><path d="M1,11h2v7H1V11z" fill="#decd87"/><path d="M3,3h1v2H3V3z" fill="#782121"/><path d="M3 1h1v1H3zm2 6V6H2v1H1v3h3v9H1v2h5V7z" fill="green"/><path d="M1 7h1v3H1V7zm0 12h1v2H1v-2z" fill="#0a0"/></g></svg></g><g class="gotchi-wearable wearable-pet"><svg x="42" y="43"><path d="M19 2V1h-1V0h-5v1h-1v1H8V1H7V0H2v1H1v1H0v2h1v1h1v1H1v3h1v1h1v1H2v1H1v2h1v1H1v2h4v1h3v-1h1v-1h2v1h1v1h3v-1h4v-2h-1v-1h1v-2h-1v-1h-1v-1h1V9h1V6h-1V5h1V4h1V2h-1z"/><path d="M18 3h-1v1h-3V3h-2v1h1v1h5V4h1V3h-1zM6 3v1H3V3H1v1h1v1h5V4h1V3H6z" fill="#fff"/><g fill="#59bcff"><path d="M17 1h-4v1h5V1h-1zm-7 4h2V4h-1V3H9v1H8v1h2zM4 2h3V1H2v1h2zm5 11v2h2v-2H9z"/><path d="M16 12v-2H4v2H2v2h2v1H2v1h3v-3h1v3H5v1h3v-4h1v-1h2v1h1v4h3v-1h-1v-3h1v3h3v-1h-2v-1h2v-2h-2z"/></g><path d="M17 6H2v3h16V6h-1zm0 2H3V7h14v1z" fill="#ef1e26"/><defs /></svg></g></svg>